{
	"asset":{
		"generator":"Khronos glTF Blender I/O v4.4.56",
		"version":"2.0"
	},
	"scene":0,
	"scenes":[
		{
			"name":"Scene",
			"nodes":[
				8
			]
		}
	],
	"nodes":[
		{
			"name":"Arm_0",
			"translation":[
				-0.17716878652572632,
				0,
				0.09279666095972061
			]
		},
		{
			"name":"Arm_1",
			"translation":[
				-0.1876000463962555,
				0,
				-0.06932694464921951
			]
		},
		{
			"name":"Arm_2",
			"translation":[
				-2.2523953191466717e-07,
				0,
				-0.20000000298023224
			]
		},
		{
			"name":"Arm_3",
			"translation":[
				0.20000000298023224,
				0,
				-1.058408452081494e-05
			]
		},
		{
			"name":"Arm_4",
			"translation":[
				2.443473022140097e-06,
				0,
				0.20000000298023224
			]
		},
		{
			"children":[
				0,
				1,
				2,
				3,
				4
			],
			"name":"Root"
		},
		{
			"mesh":0,
			"name":"Starfish_Body",
			"skin":0
		},
		{
			"mesh":1,
			"name":"Starfish_SurfaceDetails",
			"skin":0
		},
		{
			"children":[
				6,
				7,
				5
			],
			"name":"Starfish_Rig"
		}
	],
	"animations":[
		{
			"channels":[
				{
					"sampler":0,
					"target":{
						"node":5,
						"path":"translation"
					}
				},
				{
					"sampler":1,
					"target":{
						"node":5,
						"path":"rotation"
					}
				},
				{
					"sampler":2,
					"target":{
						"node":5,
						"path":"scale"
					}
				},
				{
					"sampler":3,
					"target":{
						"node":0,
						"path":"translation"
					}
				},
				{
					"sampler":4,
					"target":{
						"node":0,
						"path":"rotation"
					}
				},
				{
					"sampler":5,
					"target":{
						"node":0,
						"path":"scale"
					}
				},
				{
					"sampler":6,
					"target":{
						"node":1,
						"path":"translation"
					}
				},
				{
					"sampler":7,
					"target":{
						"node":1,
						"path":"rotation"
					}
				},
				{
					"sampler":8,
					"target":{
						"node":1,
						"path":"scale"
					}
				},
				{
					"sampler":9,
					"target":{
						"node":2,
						"path":"translation"
					}
				},
				{
					"sampler":10,
					"target":{
						"node":2,
						"path":"rotation"
					}
				},
				{
					"sampler":11,
					"target":{
						"node":2,
						"path":"scale"
					}
				},
				{
					"sampler":12,
					"target":{
						"node":3,
						"path":"translation"
					}
				},
				{
					"sampler":13,
					"target":{
						"node":3,
						"path":"rotation"
					}
				},
				{
					"sampler":14,
					"target":{
						"node":3,
						"path":"scale"
					}
				},
				{
					"sampler":15,
					"target":{
						"node":4,
						"path":"translation"
					}
				},
				{
					"sampler":16,
					"target":{
						"node":4,
						"path":"rotation"
					}
				},
				{
					"sampler":17,
					"target":{
						"node":4,
						"path":"scale"
					}
				}
			],
			"name":"Crawl",
			"samplers":[
				{
					"input":31,
					"interpolation":"STEP",
					"output":32
				},
				{
					"input":31,
					"interpolation":"STEP",
					"output":33
				},
				{
					"input":31,
					"interpolation":"STEP",
					"output":34
				},
				{
					"input":31,
					"interpolation":"STEP",
					"output":35
				},
				{
					"input":36,
					"interpolation":"LINEAR",
					"output":37
				},
				{
					"input":31,
					"interpolation":"STEP",
					"output":38
				},
				{
					"input":31,
					"interpolation":"STEP",
					"output":39
				},
				{
					"input":36,
					"interpolation":"LINEAR",
					"output":40
				},
				{
					"input":31,
					"interpolation":"STEP",
					"output":41
				},
				{
					"input":31,
					"interpolation":"STEP",
					"output":42
				},
				{
					"input":36,
					"interpolation":"LINEAR",
					"output":43
				},
				{
					"input":31,
					"interpolation":"STEP",
					"output":44
				},
				{
					"input":31,
					"interpolation":"STEP",
					"output":45
				},
				{
					"input":36,
					"interpolation":"LINEAR",
					"output":46
				},
				{
					"input":31,
					"interpolation":"STEP",
					"output":47
				},
				{
					"input":31,
					"interpolation":"STEP",
					"output":48
				},
				{
					"input":36,
					"interpolation":"LINEAR",
					"output":49
				},
				{
					"input":31,
					"interpolation":"STEP",
					"output":50
				}
			]
		}
	],
	"materials":[
		{
			"doubleSided":true,
			"name":"Coral Orange",
			"pbrMetallicRoughness":{
				"baseColorFactor":[
					0.8299999833106995,
					0.23999999463558197,
					0.11999999731779099,
					1
				],
				"metallicFactor":0,
				"roughnessFactor":0.699999988079071
			}
		},
		{
			"doubleSided":true,
			"name":"Apricot Highlights",
			"pbrMetallicRoughness":{
				"baseColorFactor":[
					0.9399999976158142,
					0.38999998569488525,
					0.1899999976158142,
					1
				],
				"metallicFactor":0,
				"roughnessFactor":0.699999988079071
			}
		},
		{
			"doubleSided":true,
			"name":"Warm Coral Sides",
			"pbrMetallicRoughness":{
				"baseColorFactor":[
					0.6299999952316284,
					0.14000000059604645,
					0.10000000149011612,
					1
				],
				"metallicFactor":0,
				"roughnessFactor":0.699999988079071
			}
		},
		{
			"doubleSided":true,
			"name":"Sand Underside",
			"pbrMetallicRoughness":{
				"baseColorFactor":[
					0.9100000262260437,
					0.6499999761581421,
					0.4099999964237213,
					1
				],
				"metallicFactor":0,
				"roughnessFactor":0.699999988079071
			}
		},
		{
			"doubleSided":true,
			"name":"Golden Papillae",
			"pbrMetallicRoughness":{
				"baseColorFactor":[
					0.9800000190734863,
					0.6000000238418579,
					0.28999999165534973,
					1
				],
				"metallicFactor":0,
				"roughnessFactor":0.699999988079071
			}
		}
	],
	"meshes":[
		{
			"name":"\u7acb\u65b9\u4f53.009",
			"primitives":[
				{
					"attributes":{
						"POSITION":0,
						"NORMAL":1,
						"TEXCOORD_0":2,
						"JOINTS_0":3,
						"WEIGHTS_0":4
					},
					"indices":5,
					"material":0
				},
				{
					"attributes":{
						"POSITION":6,
						"NORMAL":7,
						"TEXCOORD_0":8,
						"JOINTS_0":9,
						"WEIGHTS_0":10
					},
					"indices":11,
					"material":1
				},
				{
					"attributes":{
						"POSITION":12,
						"NORMAL":13,
						"TEXCOORD_0":14,
						"JOINTS_0":15,
						"WEIGHTS_0":16
					},
					"indices":17,
					"material":2
				},
				{
					"attributes":{
						"POSITION":18,
						"NORMAL":19,
						"TEXCOORD_0":20,
						"JOINTS_0":21,
						"WEIGHTS_0":22
					},
					"indices":23,
					"material":3
				}
			]
		},
		{
			"name":"Icosphere",
			"primitives":[
				{
					"attributes":{
						"POSITION":25,
						"NORMAL":26,
						"TEXCOORD_0":27,
						"JOINTS_0":28,
						"WEIGHTS_0":29
					},
					"indices":30,
					"material":4
				}
			]
		}
	],
	"skins":[
		{
			"inverseBindMatrices":24,
			"joints":[
				5,
				0,
				1,
				2,
				3,
				4
			],
			"name":"Starfish_Rig"
		}
	],
	"accessors":[
		{
			"bufferView":0,
			"componentType":5126,
			"count":564,
			"max":[
				1.397152066230774,
				0.2725408971309662,
				1.3262701034545898
			],
			"min":[
				-1.4588059186935425,
				0.057489924132823944,
				-1.4143741130828857
			],
			"type":"VEC3"
		},
		{
			"bufferView":1,
			"componentType":5126,
			"count":564,
			"type":"VEC3"
		},
		{
			"bufferView":2,
			"componentType":5126,
			"count":564,
			"type":"VEC2"
		},
		{
			"bufferView":3,
			"componentType":5121,
			"count":564,
			"type":"VEC4"
		},
		{
			"bufferView":4,
			"componentType":5126,
			"count":564,
			"type":"VEC4"
		},
		{
			"bufferView":5,
			"componentType":5123,
			"count":1359,
			"type":"SCALAR"
		},
		{
			"bufferView":6,
			"componentType":5126,
			"count":170,
			"max":[
				1.3972777128219604,
				0.2725408971309662,
				1.325900673866272
			],
			"min":[
				-1.4580169916152954,
				0.05750400573015213,
				-1.4121696949005127
			],
			"type":"VEC3"
		},
		{
			"bufferView":7,
			"componentType":5126,
			"count":170,
			"type":"VEC3"
		},
		{
			"bufferView":8,
			"componentType":5126,
			"count":170,
			"type":"VEC2"
		},
		{
			"bufferView":9,
			"componentType":5121,
			"count":170,
			"type":"VEC4"
		},
		{
			"bufferView":10,
			"componentType":5126,
			"count":170,
			"type":"VEC4"
		},
		{
			"bufferView":11,
			"componentType":5123,
			"count":249,
			"type":"SCALAR"
		},
		{
			"bufferView":12,
			"componentType":5126,
			"count":689,
			"max":[
				1.3973932266235352,
				0.2590389847755432,
				1.3263884782791138
			],
			"min":[
				-1.4588059186935425,
				-0.10956965386867523,
				-1.4148054122924805
			],
			"type":"VEC3"
		},
		{
			"bufferView":13,
			"componentType":5126,
			"count":689,
			"type":"VEC3"
		},
		{
			"bufferView":14,
			"componentType":5126,
			"count":689,
			"type":"VEC2"
		},
		{
			"bufferView":15,
			"componentType":5121,
			"count":689,
			"type":"VEC4"
		},
		{
			"bufferView":16,
			"componentType":5126,
			"count":689,
			"type":"VEC4"
		},
		{
			"bufferView":17,
			"componentType":5123,
			"count":1047,
			"type":"SCALAR"
		},
		{
			"bufferView":18,
			"componentType":5126,
			"count":889,
			"max":[
				1.3972649574279785,
				0.23457787930965424,
				1.3263884782791138
			],
			"min":[
				-1.4588054418563843,
				-0.1125214472413063,
				-1.4148054122924805
			],
			"type":"VEC3"
		},
		{
			"bufferView":19,
			"componentType":5126,
			"count":889,
			"type":"VEC3"
		},
		{
			"bufferView":20,
			"componentType":5126,
			"count":889,
			"type":"VEC2"
		},
		{
			"bufferView":21,
			"componentType":5121,
			"count":889,
			"type":"VEC4"
		},
		{
			"bufferView":22,
			"componentType":5126,
			"count":889,
			"type":"VEC4"
		},
		{
			"bufferView":23,
			"componentType":5123,
			"count":2079,
			"type":"SCALAR"
		},
		{
			"bufferView":24,
			"componentType":5126,
			"count":6,
			"type":"MAT4"
		},
		{
			"bufferView":25,
			"componentType":5126,
			"count":3180,
			"max":[
				1.2427518367767334,
				0.2937217354774475,
				1.2641054391860962
			],
			"min":[
				-1.2257285118103027,
				0.08511338382959366,
				-1.2150824069976807
			],
			"type":"VEC3"
		},
		{
			"bufferView":26,
			"componentType":5126,
			"count":3180,
			"type":"VEC3"
		},
		{
			"bufferView":27,
			"componentType":5126,
			"count":3180,
			"type":"VEC2"
		},
		{
			"bufferView":28,
			"componentType":5121,
			"count":3180,
			"type":"VEC4"
		},
		{
			"bufferView":29,
			"componentType":5126,
			"count":3180,
			"type":"VEC4"
		},
		{
			"bufferView":30,
			"componentType":5123,
			"count":3180,
			"type":"SCALAR"
		},
		{
			"bufferView":31,
			"componentType":5126,
			"count":2,
			"max":[
				1.6333333333333333
			],
			"min":[
				0.03333333333333333
			],
			"type":"SCALAR"
		},
		{
			"bufferView":32,
			"componentType":5126,
			"count":2,
			"type":"VEC3"
		},
		{
			"bufferView":33,
			"componentType":5126,
			"count":2,
			"type":"VEC4"
		},
		{
			"bufferView":34,
			"componentType":5126,
			"count":2,
			"type":"VEC3"
		},
		{
			"bufferView":35,
			"componentType":5126,
			"count":2,
			"type":"VEC3"
		},
		{
			"bufferView":36,
			"componentType":5126,
			"count":49,
			"max":[
				1.6333333333333333
			],
			"min":[
				0.03333333333333333
			],
			"type":"SCALAR"
		},
		{
			"bufferView":37,
			"componentType":5126,
			"count":49,
			"type":"VEC4"
		},
		{
			"bufferView":38,
			"componentType":5126,
			"count":2,
			"type":"VEC3"
		},
		{
			"bufferView":39,
			"componentType":5126,
			"count":2,
			"type":"VEC3"
		},
		{
			"bufferView":40,
			"componentType":5126,
			"count":49,
			"type":"VEC4"
		},
		{
			"bufferView":41,
			"componentType":5126,
			"count":2,
			"type":"VEC3"
		},
		{
			"bufferView":42,
			"componentType":5126,
			"count":2,
			"type":"VEC3"
		},
		{
			"bufferView":43,
			"componentType":5126,
			"count":49,
			"type":"VEC4"
		},
		{
			"bufferView":44,
			"componentType":5126,
			"count":2,
			"type":"VEC3"
		},
		{
			"bufferView":45,
			"componentType":5126,
			"count":2,
			"type":"VEC3"
		},
		{
			"bufferView":46,
			"componentType":5126,
			"count":49,
			"type":"VEC4"
		},
		{
			"bufferView":47,
			"componentType":5126,
			"count":2,
			"type":"VEC3"
		},
		{
			"bufferView":48,
			"componentType":5126,
			"count":2,
			"type":"VEC3"
		},
		{
			"bufferView":49,
			"componentType":5126,
			"count":49,
			"type":"VEC4"
		},
		{
			"bufferView":50,
			"componentType":5126,
			"count":2,
			"type":"VEC3"
		}
	],
	"bufferViews":[
		{
			"buffer":0,
			"byteLength":6768,
			"byteOffset":0,
			"target":34962
		},
		{
			"buffer":0,
			"byteLength":6768,
			"byteOffset":6768,
			"target":34962
		},
		{
			"buffer":0,
			"byteLength":4512,
			"byteOffset":13536,
			"target":34962
		},
		{
			"buffer":0,
			"byteLength":2256,
			"byteOffset":18048,
			"target":34962
		},
		{
			"buffer":0,
			"byteLength":9024,
			"byteOffset":20304,
			"target":34962
		},
		{
			"buffer":0,
			"byteLength":2718,
			"byteOffset":29328,
			"target":34963
		},
		{
			"buffer":0,
			"byteLength":2040,
			"byteOffset":32048,
			"target":34962
		},
		{
			"buffer":0,
			"byteLength":2040,
			"byteOffset":34088,
			"target":34962
		},
		{
			"buffer":0,
			"byteLength":1360,
			"byteOffset":36128,
			"target":34962
		},
		{
			"buffer":0,
			"byteLength":680,
			"byteOffset":37488,
			"target":34962
		},
		{
			"buffer":0,
			"byteLength":2720,
			"byteOffset":38168,
			"target":34962
		},
		{
			"buffer":0,
			"byteLength":498,
			"byteOffset":40888,
			"target":34963
		},
		{
			"buffer":0,
			"byteLength":8268,
			"byteOffset":41388,
			"target":34962
		},
		{
			"buffer":0,
			"byteLength":8268,
			"byteOffset":49656,
			"target":34962
		},
		{
			"buffer":0,
			"byteLength":5512,
			"byteOffset":57924,
			"target":34962
		},
		{
			"buffer":0,
			"byteLength":2756,
			"byteOffset":63436,
			"target":34962
		},
		{
			"buffer":0,
			"byteLength":11024,
			"byteOffset":66192,
			"target":34962
		},
		{
			"buffer":0,
			"byteLength":2094,
			"byteOffset":77216,
			"target":34963
		},
		{
			"buffer":0,
			"byteLength":10668,
			"byteOffset":79312,
			"target":34962
		},
		{
			"buffer":0,
			"byteLength":10668,
			"byteOffset":89980,
			"target":34962
		},
		{
			"buffer":0,
			"byteLength":7112,
			"byteOffset":100648,
			"target":34962
		},
		{
			"buffer":0,
			"byteLength":3556,
			"byteOffset":107760,
			"target":34962
		},
		{
			"buffer":0,
			"byteLength":14224,
			"byteOffset":111316,
			"target":34962
		},
		{
			"buffer":0,
			"byteLength":4158,
			"byteOffset":125540,
			"target":34963
		},
		{
			"buffer":0,
			"byteLength":384,
			"byteOffset":129700
		},
		{
			"buffer":0,
			"byteLength":38160,
			"byteOffset":130084,
			"target":34962
		},
		{
			"buffer":0,
			"byteLength":38160,
			"byteOffset":168244,
			"target":34962
		},
		{
			"buffer":0,
			"byteLength":25440,
			"byteOffset":206404,
			"target":34962
		},
		{
			"buffer":0,
			"byteLength":12720,
			"byteOffset":231844,
			"target":34962
		},
		{
			"buffer":0,
			"byteLength":50880,
			"byteOffset":244564,
			"target":34962
		},
		{
			"buffer":0,
			"byteLength":6360,
			"byteOffset":295444,
			"target":34963
		},
		{
			"buffer":0,
			"byteLength":8,
			"byteOffset":301804
		},
		{
			"buffer":0,
			"byteLength":24,
			"byteOffset":301812
		},
		{
			"buffer":0,
			"byteLength":32,
			"byteOffset":301836
		},
		{
			"buffer":0,
			"byteLength":24,
			"byteOffset":301868
		},
		{
			"buffer":0,
			"byteLength":24,
			"byteOffset":301892
		},
		{
			"buffer":0,
			"byteLength":196,
			"byteOffset":301916
		},
		{
			"buffer":0,
			"byteLength":784,
			"byteOffset":302112
		},
		{
			"buffer":0,
			"byteLength":24,
			"byteOffset":302896
		},
		{
			"buffer":0,
			"byteLength":24,
			"byteOffset":302920
		},
		{
			"buffer":0,
			"byteLength":784,
			"byteOffset":302944
		},
		{
			"buffer":0,
			"byteLength":24,
			"byteOffset":303728
		},
		{
			"buffer":0,
			"byteLength":24,
			"byteOffset":303752
		},
		{
			"buffer":0,
			"byteLength":784,
			"byteOffset":303776
		},
		{
			"buffer":0,
			"byteLength":24,
			"byteOffset":304560
		},
		{
			"buffer":0,
			"byteLength":24,
			"byteOffset":304584
		},
		{
			"buffer":0,
			"byteLength":784,
			"byteOffset":304608
		},
		{
			"buffer":0,
			"byteLength":24,
			"byteOffset":305392
		},
		{
			"buffer":0,
			"byteLength":24,
			"byteOffset":305416
		},
		{
			"buffer":0,
			"byteLength":784,
			"byteOffset":305440
		},
		{
			"buffer":0,
			"byteLength":24,
			"byteOffset":306224
		}
	],
	"buffers":[
		{
			"byteLength":306248,
			"uri":"Starfish.bin"
		}
	]
}
