mtllib sun.mtl
o Fence
usemtl Sun
v -1.0 -1 -1
v -0.996 -1 -1
v -0.996 1 -1
v -1.0 1 -1
v -1.0 -1 1
v -0.996 -1 1
v -0.996 1 1
v -1.0 1 1
f 1 4 3 2
f 5 6 7 8
f 1 5 8 4
f 2 3 7 6
f 4 8 7 3
f 1 2 6 5
v -0.9 -1 -1
v -0.896 -1 -1
v -0.896 1 -1
v -0.9 1 -1
v -0.9 -1 1
v -0.896 -1 1
v -0.896 1 1
v -0.9 1 1
f 9 12 11 10
f 13 14 15 16
f 9 13 16 12
f 10 11 15 14
f 12 16 15 11
f 9 10 14 13
v -0.8 -1 -1
v -0.796 -1 -1
v -0.796 1 -1
v -0.8 1 -1
v -0.8 -1 1
v -0.796 -1 1
v -0.796 1 1
v -0.8 1 1
f 17 20 19 18
f 21 22 23 24
f 17 21 24 20
f 18 19 23 22
f 20 24 23 19
f 17 18 22 21
v -0.7 -1 -1
v -0.696 -1 -1
v -0.696 1 -1
v -0.7 1 -1
v -0.7 -1 1
v -0.696 -1 1
v -0.696 1 1
v -0.7 1 1
f 25 28 27 26
f 29 30 31 32
f 25 29 32 28
f 26 27 31 30
f 28 32 31 27
f 25 26 30 29
v -0.6 -1 -1
v -0.596 -1 -1
v -0.596 1 -1
v -0.6 1 -1
v -0.6 -1 1
v -0.596 -1 1
v -0.596 1 1
v -0.6 1 1
f 33 36 35 34
f 37 38 39 40
f 33 37 40 36
f 34 35 39 38
f 36 40 39 35
f 33 34 38 37
v -0.5 -1 -1
v -0.496 -1 -1
v -0.496 1 -1
v -0.5 1 -1
v -0.5 -1 1
v -0.496 -1 1
v -0.496 1 1
v -0.5 1 1
f 41 44 43 42
f 45 46 47 48
f 41 45 48 44
f 42 43 47 46
f 44 48 47 43
f 41 42 46 45
v -0.3999999999999999 -1 -1
v -0.3959999999999999 -1 -1
v -0.3959999999999999 1 -1
v -0.3999999999999999 1 -1
v -0.3999999999999999 -1 1
v -0.3959999999999999 -1 1
v -0.3959999999999999 1 1
v -0.3999999999999999 1 1
f 49 52 51 50
f 53 54 55 56
f 49 53 56 52
f 50 51 55 54
f 52 56 55 51
f 49 50 54 53
v -0.29999999999999993 -1 -1
v -0.29599999999999993 -1 -1
v -0.29599999999999993 1 -1
v -0.29999999999999993 1 -1
v -0.29999999999999993 -1 1
v -0.29599999999999993 -1 1
v -0.29599999999999993 1 1
v -0.29999999999999993 1 1
f 57 60 59 58
f 61 62 63 64
f 57 61 64 60
f 58 59 63 62
f 60 64 63 59
f 57 58 62 61
v -0.19999999999999996 -1 -1
v -0.19599999999999995 -1 -1
v -0.19599999999999995 1 -1
v -0.19999999999999996 1 -1
v -0.19999999999999996 -1 1
v -0.19599999999999995 -1 1
v -0.19599999999999995 1 1
v -0.19999999999999996 1 1
f 65 68 67 66
f 69 70 71 72
f 65 69 72 68
f 66 67 71 70
f 68 72 71 67
f 65 66 70 69
v -0.09999999999999998 -1 -1
v -0.09599999999999997 -1 -1
v -0.09599999999999997 1 -1
v -0.09999999999999998 1 -1
v -0.09999999999999998 -1 1
v -0.09599999999999997 -1 1
v -0.09599999999999997 1 1
v -0.09999999999999998 1 1
f 73 76 75 74
f 77 78 79 80
f 73 77 80 76
f 74 75 79 78
f 76 80 79 75
f 73 74 78 77
v 0.0 -1 -1
v 0.0040000000000000036 -1 -1
v 0.0040000000000000036 1 -1
v 0.0 1 -1
v 0.0 -1 1
v 0.0040000000000000036 -1 1
v 0.0040000000000000036 1 1
v 0.0 1 1
f 81 84 83 82
f 85 86 87 88
f 81 85 88 84
f 82 83 87 86
f 84 88 87 83
f 81 82 86 85
v 0.10000000000000009 -1 -1
v 0.10400000000000009 -1 -1
v 0.10400000000000009 1 -1
v 0.10000000000000009 1 -1
v 0.10000000000000009 -1 1
v 0.10400000000000009 -1 1
v 0.10400000000000009 1 1
v 0.10000000000000009 1 1
f 89 92 91 90
f 93 94 95 96
f 89 93 96 92
f 90 91 95 94
f 92 96 95 91
f 89 90 94 93
v 0.20000000000000018 -1 -1
v 0.20400000000000018 -1 -1
v 0.20400000000000018 1 -1
v 0.20000000000000018 1 -1
v 0.20000000000000018 -1 1
v 0.20400000000000018 -1 1
v 0.20400000000000018 1 1
v 0.20000000000000018 1 1
f 97 100 99 98
f 101 102 103 104
f 97 101 104 100
f 98 99 103 102
f 100 104 103 99
f 97 98 102 101
v 0.30000000000000004 -1 -1
v 0.30400000000000005 -1 -1
v 0.30400000000000005 1 -1
v 0.30000000000000004 1 -1
v 0.30000000000000004 -1 1
v 0.30400000000000005 -1 1
v 0.30400000000000005 1 1
v 0.30000000000000004 1 1
f 105 108 107 106
f 109 110 111 112
f 105 109 112 108
f 106 107 111 110
f 108 112 111 107
f 105 106 110 109
v 0.40000000000000013 -1 -1
v 0.40400000000000014 -1 -1
v 0.40400000000000014 1 -1
v 0.40000000000000013 1 -1
v 0.40000000000000013 -1 1
v 0.40400000000000014 -1 1
v 0.40400000000000014 1 1
v 0.40000000000000013 1 1
f 113 116 115 114
f 117 118 119 120
f 113 117 120 116
f 114 115 119 118
f 116 120 119 115
f 113 114 118 117
v 0.5 -1 -1
v 0.504 -1 -1
v 0.504 1 -1
v 0.5 1 -1
v 0.5 -1 1
v 0.504 -1 1
v 0.504 1 1
v 0.5 1 1
f 121 124 123 122
f 125 126 127 128
f 121 125 128 124
f 122 123 127 126
f 124 128 127 123
f 121 122 126 125
v 0.6000000000000001 -1 -1
v 0.6040000000000001 -1 -1
v 0.6040000000000001 1 -1
v 0.6000000000000001 1 -1
v 0.6000000000000001 -1 1
v 0.6040000000000001 -1 1
v 0.6040000000000001 1 1
v 0.6000000000000001 1 1
f 129 132 131 130
f 133 134 135 136
f 129 133 136 132
f 130 131 135 134
f 132 136 135 131
f 129 130 134 133
v 0.7000000000000002 -1 -1
v 0.7040000000000002 -1 -1
v 0.7040000000000002 1 -1
v 0.7000000000000002 1 -1
v 0.7000000000000002 -1 1
v 0.7040000000000002 -1 1
v 0.7040000000000002 1 1
v 0.7000000000000002 1 1
f 137 140 139 138
f 141 142 143 144
f 137 141 144 140
f 138 139 143 142
f 140 144 143 139
f 137 138 142 141
v 0.8 -1 -1
v 0.804 -1 -1
v 0.804 1 -1
v 0.8 1 -1
v 0.8 -1 1
v 0.804 -1 1
v 0.804 1 1
v 0.8 1 1
f 145 148 147 146
f 149 150 151 152
f 145 149 152 148
f 146 147 151 150
f 148 152 151 147
f 145 146 150 149
v 0.9000000000000001 -1 -1
v 0.9040000000000001 -1 -1
v 0.9040000000000001 1 -1
v 0.9000000000000001 1 -1
v 0.9000000000000001 -1 1
v 0.9040000000000001 -1 1
v 0.9040000000000001 1 1
v 0.9000000000000001 1 1
f 153 156 155 154
f 157 158 159 160
f 153 157 160 156
f 154 155 159 158
f 156 160 159 155
f 153 154 158 157
v 1.0 -1 -1
v 1.004 -1 -1
v 1.004 1 -1
v 1.0 1 -1
v 1.0 -1 1
v 1.004 -1 1
v 1.004 1 1
v 1.0 1 1
f 161 164 163 162
f 165 166 167 168
f 161 165 168 164
f 162 163 167 166
f 164 168 167 163
f 161 162 166 165
v -1 -0.8250000000000001 -1
v 1 -0.8250000000000001 -1
v 1 -0.775 -1
v -1 -0.775 -1
v -1 -0.8250000000000001 1
v 1 -0.8250000000000001 1
v 1 -0.775 1
v -1 -0.775 1
f 169 172 171 170
f 173 174 175 176
f 169 173 176 172
f 170 171 175 174
f 172 176 175 171
f 169 170 174 173
v -1 -0.025 -1
v 1 -0.025 -1
v 1 0.025 -1
v -1 0.025 -1
v -1 -0.025 1
v 1 -0.025 1
v 1 0.025 1
v -1 0.025 1
f 177 180 179 178
f 181 182 183 184
f 177 181 184 180
f 178 179 183 182
f 180 184 183 179
f 177 178 182 181
v -1 0.775 -1
v 1 0.775 -1
v 1 0.8250000000000001 -1
v -1 0.8250000000000001 -1
v -1 0.775 1
v 1 0.775 1
v 1 0.8250000000000001 1
v -1 0.8250000000000001 1
f 185 188 187 186
f 189 190 191 192
f 185 189 192 188
f 186 187 191 190
f 188 192 191 187
f 185 186 190 189
