{
	"asset":{
		"generator":"Khronos glTF Blender I/O v4.4.56",
		"version":"2.0"
	},
	"scene":0,
	"scenes":[
		{
			"name":"Scene",
			"nodes":[
				27
			]
		}
	],
	"nodes":[
		{
			"name":"Spine_2",
			"translation":[
				0.8339999914169312,
				0,
				0
			]
		},
		{
			"children":[
				0
			],
			"name":"Spine_1",
			"translation":[
				0.8339999914169312,
				0,
				0
			]
		},
		{
			"children":[
				1
			],
			"name":"Spine_0",
			"translation":[
				-0.1485999971628189,
				0,
				0
			]
		},
		{
			"children":[
				2
			],
			"name":"Root"
		},
		{
			"mesh":0,
			"name":"Eye_-1",
			"skin":0
		},
		{
			"mesh":1,
			"name":"Eye_1",
			"skin":0
		},
		{
			"mesh":2,
			"name":"Eye_glint_-1",
			"skin":0
		},
		{
			"mesh":3,
			"name":"Eye_glint_1",
			"skin":0
		},
		{
			"mesh":4,
			"name":"Gill_-1_0",
			"skin":0
		},
		{
			"mesh":5,
			"name":"Gill_-1_1",
			"skin":0
		},
		{
			"mesh":6,
			"name":"Gill_-1_2",
			"skin":0
		},
		{
			"mesh":7,
			"name":"Gill_-1_3",
			"skin":0
		},
		{
			"mesh":8,
			"name":"Gill_-1_4",
			"skin":0
		},
		{
			"mesh":9,
			"name":"Gill_1_0",
			"skin":0
		},
		{
			"mesh":10,
			"name":"Gill_1_1",
			"skin":0
		},
		{
			"mesh":11,
			"name":"Gill_1_2",
			"skin":0
		},
		{
			"mesh":12,
			"name":"Gill_1_3",
			"skin":0
		},
		{
			"mesh":13,
			"name":"Gill_1_4",
			"skin":0
		},
		{
			"mesh":14,
			"name":"Pectoral_-1",
			"skin":0
		},
		{
			"mesh":15,
			"name":"Pectoral_1",
			"skin":0
		},
		{
			"mesh":16,
			"name":"Pelvic_-1",
			"skin":0
		},
		{
			"mesh":17,
			"name":"Pelvic_1",
			"skin":0
		},
		{
			"mesh":18,
			"name":"Second_dorsal",
			"skin":0
		},
		{
			"mesh":19,
			"name":"Shark_Body",
			"skin":0
		},
		{
			"mesh":20,
			"name":"Shark_dorsal",
			"skin":0
		},
		{
			"mesh":21,
			"name":"Tail_lower",
			"skin":0
		},
		{
			"mesh":22,
			"name":"Tail_upper",
			"skin":0
		},
		{
			"children":[
				4,
				5,
				6,
				7,
				8,
				9,
				10,
				11,
				12,
				13,
				14,
				15,
				16,
				17,
				18,
				19,
				20,
				21,
				22,
				23,
				24,
				25,
				26,
				3
			],
			"name":"shark_Rig"
		}
	],
	"animations":[
		{
			"channels":[
				{
					"sampler":0,
					"target":{
						"node":3,
						"path":"translation"
					}
				},
				{
					"sampler":1,
					"target":{
						"node":3,
						"path":"rotation"
					}
				},
				{
					"sampler":2,
					"target":{
						"node":3,
						"path":"scale"
					}
				},
				{
					"sampler":3,
					"target":{
						"node":2,
						"path":"translation"
					}
				},
				{
					"sampler":4,
					"target":{
						"node":2,
						"path":"rotation"
					}
				},
				{
					"sampler":5,
					"target":{
						"node":2,
						"path":"scale"
					}
				},
				{
					"sampler":6,
					"target":{
						"node":1,
						"path":"translation"
					}
				},
				{
					"sampler":7,
					"target":{
						"node":1,
						"path":"rotation"
					}
				},
				{
					"sampler":8,
					"target":{
						"node":1,
						"path":"scale"
					}
				},
				{
					"sampler":9,
					"target":{
						"node":0,
						"path":"translation"
					}
				},
				{
					"sampler":10,
					"target":{
						"node":0,
						"path":"rotation"
					}
				},
				{
					"sampler":11,
					"target":{
						"node":0,
						"path":"scale"
					}
				}
			],
			"name":"Swim",
			"samplers":[
				{
					"input":138,
					"interpolation":"LINEAR",
					"output":139
				},
				{
					"input":140,
					"interpolation":"STEP",
					"output":141
				},
				{
					"input":140,
					"interpolation":"STEP",
					"output":142
				},
				{
					"input":140,
					"interpolation":"STEP",
					"output":143
				},
				{
					"input":138,
					"interpolation":"LINEAR",
					"output":144
				},
				{
					"input":140,
					"interpolation":"STEP",
					"output":145
				},
				{
					"input":140,
					"interpolation":"LINEAR",
					"output":146
				},
				{
					"input":138,
					"interpolation":"LINEAR",
					"output":147
				},
				{
					"input":140,
					"interpolation":"STEP",
					"output":148
				},
				{
					"input":140,
					"interpolation":"STEP",
					"output":149
				},
				{
					"input":138,
					"interpolation":"LINEAR",
					"output":150
				},
				{
					"input":140,
					"interpolation":"STEP",
					"output":151
				}
			]
		}
	],
	"materials":[
		{
			"doubleSided":true,
			"name":"Eye Black.005",
			"pbrMetallicRoughness":{
				"baseColorFactor":[
					0.006000000052154064,
					0.009999999776482582,
					0.013000000268220901,
					1
				],
				"metallicFactor":0,
				"roughnessFactor":0.20000000298023224
			}
		},
		{
			"doubleSided":true,
			"name":"Eye White.005",
			"pbrMetallicRoughness":{
				"baseColorFactor":[
					0.9599999785423279,
					0.9800000190734863,
					1,
					1
				],
				"metallicFactor":0,
				"roughnessFactor":0.25
			}
		},
		{
			"doubleSided":true,
			"name":"Ocean Back.002",
			"pbrMetallicRoughness":{
				"baseColorFactor":[
					0.12999999523162842,
					0.25,
					0.30000001192092896,
					1
				],
				"metallicFactor":0,
				"roughnessFactor":0.5
			}
		},
		{
			"doubleSided":true,
			"name":"Fin Blue.002",
			"pbrMetallicRoughness":{
				"baseColorFactor":[
					0.10999999940395355,
					0.28999999165534973,
					0.3799999952316284,
					1
				],
				"metallicFactor":0,
				"roughnessFactor":0.5
			}
		},
		{
			"doubleSided":true,
			"name":"Silver Flank.002",
			"pbrMetallicRoughness":{
				"baseColorFactor":[
					0.4399999976158142,
					0.5899999737739563,
					0.6299999952316284,
					1
				],
				"metallicFactor":0,
				"roughnessFactor":0.5
			}
		},
		{
			"doubleSided":true,
			"name":"Pale Belly.002",
			"pbrMetallicRoughness":{
				"baseColorFactor":[
					0.7699999809265137,
					0.8299999833106995,
					0.7900000214576721,
					1
				],
				"metallicFactor":0,
				"roughnessFactor":0.5
			}
		}
	],
	"meshes":[
		{
			"name":"Sphere.040",
			"primitives":[
				{
					"attributes":{
						"POSITION":0,
						"NORMAL":1,
						"TEXCOORD_0":2,
						"JOINTS_0":3,
						"WEIGHTS_0":4
					},
					"indices":5,
					"material":0
				}
			]
		},
		{
			"name":"Sphere.042",
			"primitives":[
				{
					"attributes":{
						"POSITION":7,
						"NORMAL":8,
						"TEXCOORD_0":9,
						"JOINTS_0":10,
						"WEIGHTS_0":11
					},
					"indices":12,
					"material":0
				}
			]
		},
		{
			"name":"Sphere.041",
			"primitives":[
				{
					"attributes":{
						"POSITION":13,
						"NORMAL":14,
						"TEXCOORD_0":15,
						"JOINTS_0":16,
						"WEIGHTS_0":17
					},
					"indices":18,
					"material":1
				}
			]
		},
		{
			"name":"Sphere.043",
			"primitives":[
				{
					"attributes":{
						"POSITION":19,
						"NORMAL":20,
						"TEXCOORD_0":21,
						"JOINTS_0":22,
						"WEIGHTS_0":23
					},
					"indices":24,
					"material":1
				}
			]
		},
		{
			"name":"Sphere.044",
			"primitives":[
				{
					"attributes":{
						"POSITION":25,
						"NORMAL":26,
						"TEXCOORD_0":27,
						"JOINTS_0":28,
						"WEIGHTS_0":29
					},
					"indices":30,
					"material":2
				}
			]
		},
		{
			"name":"Sphere.045",
			"primitives":[
				{
					"attributes":{
						"POSITION":31,
						"NORMAL":32,
						"TEXCOORD_0":33,
						"JOINTS_0":34,
						"WEIGHTS_0":35
					},
					"indices":36,
					"material":2
				}
			]
		},
		{
			"name":"Sphere.046",
			"primitives":[
				{
					"attributes":{
						"POSITION":37,
						"NORMAL":38,
						"TEXCOORD_0":39,
						"JOINTS_0":40,
						"WEIGHTS_0":41
					},
					"indices":42,
					"material":2
				}
			]
		},
		{
			"name":"Sphere.047",
			"primitives":[
				{
					"attributes":{
						"POSITION":43,
						"NORMAL":44,
						"TEXCOORD_0":45,
						"JOINTS_0":46,
						"WEIGHTS_0":47
					},
					"indices":48,
					"material":2
				}
			]
		},
		{
			"name":"Sphere.048",
			"primitives":[
				{
					"attributes":{
						"POSITION":49,
						"NORMAL":50,
						"TEXCOORD_0":51,
						"JOINTS_0":52,
						"WEIGHTS_0":53
					},
					"indices":54,
					"material":2
				}
			]
		},
		{
			"name":"Sphere.049",
			"primitives":[
				{
					"attributes":{
						"POSITION":55,
						"NORMAL":56,
						"TEXCOORD_0":57,
						"JOINTS_0":58,
						"WEIGHTS_0":59
					},
					"indices":60,
					"material":2
				}
			]
		},
		{
			"name":"Sphere.050",
			"primitives":[
				{
					"attributes":{
						"POSITION":61,
						"NORMAL":62,
						"TEXCOORD_0":63,
						"JOINTS_0":64,
						"WEIGHTS_0":65
					},
					"indices":66,
					"material":2
				}
			]
		},
		{
			"name":"Sphere.051",
			"primitives":[
				{
					"attributes":{
						"POSITION":67,
						"NORMAL":68,
						"TEXCOORD_0":69,
						"JOINTS_0":70,
						"WEIGHTS_0":71
					},
					"indices":54,
					"material":2
				}
			]
		},
		{
			"name":"Sphere.052",
			"primitives":[
				{
					"attributes":{
						"POSITION":72,
						"NORMAL":73,
						"TEXCOORD_0":74,
						"JOINTS_0":75,
						"WEIGHTS_0":76
					},
					"indices":77,
					"material":2
				}
			]
		},
		{
			"name":"Sphere.053",
			"primitives":[
				{
					"attributes":{
						"POSITION":78,
						"NORMAL":79,
						"TEXCOORD_0":80,
						"JOINTS_0":81,
						"WEIGHTS_0":82
					},
					"indices":83,
					"material":2
				}
			]
		},
		{
			"name":"Pectoral_-1.003",
			"primitives":[
				{
					"attributes":{
						"POSITION":84,
						"NORMAL":85,
						"JOINTS_0":86,
						"WEIGHTS_0":87
					},
					"indices":88,
					"material":3
				}
			]
		},
		{
			"name":"Pectoral_1.003",
			"primitives":[
				{
					"attributes":{
						"POSITION":89,
						"NORMAL":90,
						"JOINTS_0":91,
						"WEIGHTS_0":92
					},
					"indices":93,
					"material":3
				}
			]
		},
		{
			"name":"Pelvic_-1.002",
			"primitives":[
				{
					"attributes":{
						"POSITION":94,
						"NORMAL":95,
						"JOINTS_0":96,
						"WEIGHTS_0":97
					},
					"indices":98,
					"material":3
				}
			]
		},
		{
			"name":"Pelvic_1.002",
			"primitives":[
				{
					"attributes":{
						"POSITION":99,
						"NORMAL":100,
						"JOINTS_0":101,
						"WEIGHTS_0":102
					},
					"indices":103,
					"material":3
				}
			]
		},
		{
			"name":"Second_dorsal",
			"primitives":[
				{
					"attributes":{
						"POSITION":104,
						"NORMAL":105,
						"JOINTS_0":106,
						"WEIGHTS_0":107
					},
					"indices":108,
					"material":2
				}
			]
		},
		{
			"name":"Shark_Body",
			"primitives":[
				{
					"attributes":{
						"POSITION":109,
						"NORMAL":110,
						"JOINTS_0":111,
						"WEIGHTS_0":112
					},
					"indices":113,
					"material":2
				},
				{
					"attributes":{
						"POSITION":114,
						"NORMAL":115,
						"JOINTS_0":116,
						"WEIGHTS_0":117
					},
					"indices":118,
					"material":4
				},
				{
					"attributes":{
						"POSITION":119,
						"NORMAL":120,
						"JOINTS_0":121,
						"WEIGHTS_0":122
					},
					"indices":123,
					"material":5
				}
			]
		},
		{
			"name":"Shark_dorsal",
			"primitives":[
				{
					"attributes":{
						"POSITION":124,
						"NORMAL":125,
						"JOINTS_0":126,
						"WEIGHTS_0":127
					},
					"indices":108,
					"material":2
				}
			]
		},
		{
			"name":"Tail_lower.001",
			"primitives":[
				{
					"attributes":{
						"POSITION":128,
						"NORMAL":129,
						"JOINTS_0":130,
						"WEIGHTS_0":131
					},
					"indices":132,
					"material":3
				}
			]
		},
		{
			"name":"Tail_upper.001",
			"primitives":[
				{
					"attributes":{
						"POSITION":133,
						"NORMAL":134,
						"JOINTS_0":135,
						"WEIGHTS_0":136
					},
					"indices":137,
					"material":3
				}
			]
		}
	],
	"skins":[
		{
			"inverseBindMatrices":6,
			"joints":[
				3,
				2,
				1,
				0
			],
			"name":"shark_Rig"
		}
	],
	"accessors":[
		{
			"bufferView":0,
			"componentType":5126,
			"count":498,
			"max":[
				-1.3949999809265137,
				0.20499999821186066,
				0.38499999046325684
			],
			"min":[
				-1.5450000762939453,
				0.05499999225139618,
				0.29500001668930054
			],
			"type":"VEC3"
		},
		{
			"bufferView":1,
			"componentType":5126,
			"count":498,
			"type":"VEC3"
		},
		{
			"bufferView":2,
			"componentType":5126,
			"count":498,
			"type":"VEC2"
		},
		{
			"bufferView":3,
			"componentType":5121,
			"count":498,
			"type":"VEC4"
		},
		{
			"bufferView":4,
			"componentType":5126,
			"count":498,
			"type":"VEC4"
		},
		{
			"bufferView":5,
			"componentType":5123,
			"count":672,
			"type":"SCALAR"
		},
		{
			"bufferView":6,
			"componentType":5126,
			"count":4,
			"type":"MAT4"
		},
		{
			"bufferView":7,
			"componentType":5126,
			"count":498,
			"max":[
				-1.3949999809265137,
				0.20499999821186066,
				-0.29500001668930054
			],
			"min":[
				-1.5450000762939453,
				0.05499999225139618,
				-0.38499999046325684
			],
			"type":"VEC3"
		},
		{
			"bufferView":8,
			"componentType":5126,
			"count":498,
			"type":"VEC3"
		},
		{
			"bufferView":9,
			"componentType":5126,
			"count":498,
			"type":"VEC2"
		},
		{
			"bufferView":10,
			"componentType":5121,
			"count":498,
			"type":"VEC4"
		},
		{
			"bufferView":11,
			"componentType":5126,
			"count":498,
			"type":"VEC4"
		},
		{
			"bufferView":12,
			"componentType":5123,
			"count":672,
			"type":"SCALAR"
		},
		{
			"bufferView":13,
			"componentType":5126,
			"count":296,
			"max":[
				-1.4700000286102295,
				0.16974999010562897,
				0.38874998688697815
			],
			"min":[
				-1.5074999332427979,
				0.13224999606609344,
				0.36625000834465027
			],
			"type":"VEC3"
		},
		{
			"bufferView":14,
			"componentType":5126,
			"count":296,
			"type":"VEC3"
		},
		{
			"bufferView":15,
			"componentType":5126,
			"count":296,
			"type":"VEC2"
		},
		{
			"bufferView":16,
			"componentType":5121,
			"count":296,
			"type":"VEC4"
		},
		{
			"bufferView":17,
			"componentType":5126,
			"count":296,
			"type":"VEC4"
		},
		{
			"bufferView":18,
			"componentType":5123,
			"count":360,
			"type":"SCALAR"
		},
		{
			"bufferView":19,
			"componentType":5126,
			"count":296,
			"max":[
				-1.4700000286102295,
				0.16974999010562897,
				-0.36625000834465027
			],
			"min":[
				-1.5074999332427979,
				0.13224999606609344,
				-0.38874998688697815
			],
			"type":"VEC3"
		},
		{
			"bufferView":20,
			"componentType":5126,
			"count":296,
			"type":"VEC3"
		},
		{
			"bufferView":21,
			"componentType":5126,
			"count":296,
			"type":"VEC2"
		},
		{
			"bufferView":22,
			"componentType":5121,
			"count":296,
			"type":"VEC4"
		},
		{
			"bufferView":23,
			"componentType":5126,
			"count":296,
			"type":"VEC4"
		},
		{
			"bufferView":24,
			"componentType":5123,
			"count":360,
			"type":"SCALAR"
		},
		{
			"bufferView":25,
			"componentType":5126,
			"count":204,
			"max":[
				-1.1380000114440918,
				0.14499999582767487,
				0.4440000057220459
			],
			"min":[
				-1.1619999408721924,
				-0.17499999701976776,
				0.41600000858306885
			],
			"type":"VEC3"
		},
		{
			"bufferView":26,
			"componentType":5126,
			"count":204,
			"type":"VEC3"
		},
		{
			"bufferView":27,
			"componentType":5126,
			"count":204,
			"type":"VEC2"
		},
		{
			"bufferView":28,
			"componentType":5121,
			"count":204,
			"type":"VEC4"
		},
		{
			"bufferView":29,
			"componentType":5126,
			"count":204,
			"type":"VEC4"
		},
		{
			"bufferView":30,
			"componentType":5123,
			"count":240,
			"type":"SCALAR"
		},
		{
			"bufferView":31,
			"componentType":5126,
			"count":200,
			"max":[
				-1.0230000019073486,
				0.14499999582767487,
				0.45399999618530273
			],
			"min":[
				-1.0469999313354492,
				-0.17499999701976776,
				0.4259999990463257
			],
			"type":"VEC3"
		},
		{
			"bufferView":32,
			"componentType":5126,
			"count":200,
			"type":"VEC3"
		},
		{
			"bufferView":33,
			"componentType":5126,
			"count":200,
			"type":"VEC2"
		},
		{
			"bufferView":34,
			"componentType":5121,
			"count":200,
			"type":"VEC4"
		},
		{
			"bufferView":35,
			"componentType":5126,
			"count":200,
			"type":"VEC4"
		},
		{
			"bufferView":36,
			"componentType":5123,
			"count":240,
			"type":"SCALAR"
		},
		{
			"bufferView":37,
			"componentType":5126,
			"count":176,
			"max":[
				-0.9079999923706055,
				0.14499999582767487,
				0.46399998664855957
			],
			"min":[
				-0.9320000410079956,
				-0.17499999701976776,
				0.4359999895095825
			],
			"type":"VEC3"
		},
		{
			"bufferView":38,
			"componentType":5126,
			"count":176,
			"type":"VEC3"
		},
		{
			"bufferView":39,
			"componentType":5126,
			"count":176,
			"type":"VEC2"
		},
		{
			"bufferView":40,
			"componentType":5121,
			"count":176,
			"type":"VEC4"
		},
		{
			"bufferView":41,
			"componentType":5126,
			"count":176,
			"type":"VEC4"
		},
		{
			"bufferView":42,
			"componentType":5123,
			"count":240,
			"type":"SCALAR"
		},
		{
			"bufferView":43,
			"componentType":5126,
			"count":192,
			"max":[
				-0.7929999828338623,
				0.14499999582767487,
				0.4740000069141388
			],
			"min":[
				-0.8170000314712524,
				-0.17499999701976776,
				0.44600000977516174
			],
			"type":"VEC3"
		},
		{
			"bufferView":44,
			"componentType":5126,
			"count":192,
			"type":"VEC3"
		},
		{
			"bufferView":45,
			"componentType":5126,
			"count":192,
			"type":"VEC2"
		},
		{
			"bufferView":46,
			"componentType":5121,
			"count":192,
			"type":"VEC4"
		},
		{
			"bufferView":47,
			"componentType":5126,
			"count":192,
			"type":"VEC4"
		},
		{
			"bufferView":48,
			"componentType":5123,
			"count":240,
			"type":"SCALAR"
		},
		{
			"bufferView":49,
			"componentType":5126,
			"count":176,
			"max":[
				-0.6779999732971191,
				0.14499999582767487,
				0.48399999737739563
			],
			"min":[
				-0.7020000219345093,
				-0.17499999701976776,
				0.4560000002384186
			],
			"type":"VEC3"
		},
		{
			"bufferView":50,
			"componentType":5126,
			"count":176,
			"type":"VEC3"
		},
		{
			"bufferView":51,
			"componentType":5126,
			"count":176,
			"type":"VEC2"
		},
		{
			"bufferView":52,
			"componentType":5121,
			"count":176,
			"type":"VEC4"
		},
		{
			"bufferView":53,
			"componentType":5126,
			"count":176,
			"type":"VEC4"
		},
		{
			"bufferView":54,
			"componentType":5123,
			"count":240,
			"type":"SCALAR"
		},
		{
			"bufferView":55,
			"componentType":5126,
			"count":204,
			"max":[
				-1.1380000114440918,
				0.14499999582767487,
				-0.41600000858306885
			],
			"min":[
				-1.1619999408721924,
				-0.17499999701976776,
				-0.4440000057220459
			],
			"type":"VEC3"
		},
		{
			"bufferView":56,
			"componentType":5126,
			"count":204,
			"type":"VEC3"
		},
		{
			"bufferView":57,
			"componentType":5126,
			"count":204,
			"type":"VEC2"
		},
		{
			"bufferView":58,
			"componentType":5121,
			"count":204,
			"type":"VEC4"
		},
		{
			"bufferView":59,
			"componentType":5126,
			"count":204,
			"type":"VEC4"
		},
		{
			"bufferView":60,
			"componentType":5123,
			"count":240,
			"type":"SCALAR"
		},
		{
			"bufferView":61,
			"componentType":5126,
			"count":200,
			"max":[
				-1.0230000019073486,
				0.14499999582767487,
				-0.4259999990463257
			],
			"min":[
				-1.0469999313354492,
				-0.17499999701976776,
				-0.45399999618530273
			],
			"type":"VEC3"
		},
		{
			"bufferView":62,
			"componentType":5126,
			"count":200,
			"type":"VEC3"
		},
		{
			"bufferView":63,
			"componentType":5126,
			"count":200,
			"type":"VEC2"
		},
		{
			"bufferView":64,
			"componentType":5121,
			"count":200,
			"type":"VEC4"
		},
		{
			"bufferView":65,
			"componentType":5126,
			"count":200,
			"type":"VEC4"
		},
		{
			"bufferView":66,
			"componentType":5123,
			"count":240,
			"type":"SCALAR"
		},
		{
			"bufferView":67,
			"componentType":5126,
			"count":176,
			"max":[
				-0.9079999923706055,
				0.14499999582767487,
				-0.4359999895095825
			],
			"min":[
				-0.9320000410079956,
				-0.17499999701976776,
				-0.46399998664855957
			],
			"type":"VEC3"
		},
		{
			"bufferView":68,
			"componentType":5126,
			"count":176,
			"type":"VEC3"
		},
		{
			"bufferView":69,
			"componentType":5126,
			"count":176,
			"type":"VEC2"
		},
		{
			"bufferView":70,
			"componentType":5121,
			"count":176,
			"type":"VEC4"
		},
		{
			"bufferView":71,
			"componentType":5126,
			"count":176,
			"type":"VEC4"
		},
		{
			"bufferView":72,
			"componentType":5126,
			"count":192,
			"max":[
				-0.7929999828338623,
				0.14499999582767487,
				-0.44600000977516174
			],
			"min":[
				-0.8170000314712524,
				-0.17499999701976776,
				-0.4740000069141388
			],
			"type":"VEC3"
		},
		{
			"bufferView":73,
			"componentType":5126,
			"count":192,
			"type":"VEC3"
		},
		{
			"bufferView":74,
			"componentType":5126,
			"count":192,
			"type":"VEC2"
		},
		{
			"bufferView":75,
			"componentType":5121,
			"count":192,
			"type":"VEC4"
		},
		{
			"bufferView":76,
			"componentType":5126,
			"count":192,
			"type":"VEC4"
		},
		{
			"bufferView":77,
			"componentType":5123,
			"count":240,
			"type":"SCALAR"
		},
		{
			"bufferView":78,
			"componentType":5126,
			"count":176,
			"max":[
				-0.6779999732971191,
				0.14499999582767487,
				-0.4560000002384186
			],
			"min":[
				-0.7020000219345093,
				-0.17499999701976776,
				-0.48399999737739563
			],
			"type":"VEC3"
		},
		{
			"bufferView":79,
			"componentType":5126,
			"count":176,
			"type":"VEC3"
		},
		{
			"bufferView":80,
			"componentType":5126,
			"count":176,
			"type":"VEC2"
		},
		{
			"bufferView":81,
			"componentType":5121,
			"count":176,
			"type":"VEC4"
		},
		{
			"bufferView":82,
			"componentType":5126,
			"count":176,
			"type":"VEC4"
		},
		{
			"bufferView":83,
			"componentType":5123,
			"count":240,
			"type":"SCALAR"
		},
		{
			"bufferView":84,
			"componentType":5126,
			"count":24,
			"max":[
				0.35340848565101624,
				-0.08642971515655518,
				1.3107243776321411
			],
			"min":[
				-0.9534084796905518,
				-0.4935702681541443,
				0.32927560806274414
			],
			"type":"VEC3"
		},
		{
			"bufferView":85,
			"componentType":5126,
			"count":24,
			"type":"VEC3"
		},
		{
			"bufferView":86,
			"componentType":5121,
			"count":24,
			"type":"VEC4"
		},
		{
			"bufferView":87,
			"componentType":5126,
			"count":24,
			"type":"VEC4"
		},
		{
			"bufferView":88,
			"componentType":5123,
			"count":36,
			"type":"SCALAR"
		},
		{
			"bufferView":89,
			"componentType":5126,
			"count":24,
			"max":[
				0.35340848565101624,
				-0.08642971515655518,
				-0.32927560806274414
			],
			"min":[
				-0.9534084796905518,
				-0.4935702681541443,
				-1.3107243776321411
			],
			"type":"VEC3"
		},
		{
			"bufferView":90,
			"componentType":5126,
			"count":24,
			"type":"VEC3"
		},
		{
			"bufferView":91,
			"componentType":5121,
			"count":24,
			"type":"VEC4"
		},
		{
			"bufferView":92,
			"componentType":5126,
			"count":24,
			"type":"VEC4"
		},
		{
			"bufferView":93,
			"componentType":5123,
			"count":36,
			"type":"SCALAR"
		},
		{
			"bufferView":94,
			"componentType":5126,
			"count":18,
			"max":[
				1.1912039518356323,
				-0.14087167382240295,
				0.566051721572876
			],
			"min":[
				0.5987961292266846,
				-0.5091283321380615,
				0.13394826650619507
			],
			"type":"VEC3"
		},
		{
			"bufferView":95,
			"componentType":5126,
			"count":18,
			"type":"VEC3"
		},
		{
			"bufferView":96,
			"componentType":5121,
			"count":18,
			"type":"VEC4"
		},
		{
			"bufferView":97,
			"componentType":5126,
			"count":18,
			"type":"VEC4"
		},
		{
			"bufferView":98,
			"componentType":5123,
			"count":24,
			"type":"SCALAR"
		},
		{
			"bufferView":99,
			"componentType":5126,
			"count":18,
			"max":[
				1.1912039518356323,
				-0.14087167382240295,
				-0.13394826650619507
			],
			"min":[
				0.5987961292266846,
				-0.5091283321380615,
				-0.566051721572876
			],
			"type":"VEC3"
		},
		{
			"bufferView":100,
			"componentType":5126,
			"count":18,
			"type":"VEC3"
		},
		{
			"bufferView":101,
			"componentType":5121,
			"count":18,
			"type":"VEC4"
		},
		{
			"bufferView":102,
			"componentType":5126,
			"count":18,
			"type":"VEC4"
		},
		{
			"bufferView":103,
			"componentType":5123,
			"count":24,
			"type":"SCALAR"
		},
		{
			"bufferView":104,
			"componentType":5126,
			"count":18,
			"max":[
				1.4800000190734863,
				0.5600000023841858,
				0.03500000014901161
			],
			"min":[
				0.949999988079071,
				0.15000000596046448,
				-0.03500000014901161
			],
			"type":"VEC3"
		},
		{
			"bufferView":105,
			"componentType":5126,
			"count":18,
			"type":"VEC3"
		},
		{
			"bufferView":106,
			"componentType":5121,
			"count":18,
			"type":"VEC4"
		},
		{
			"bufferView":107,
			"componentType":5126,
			"count":18,
			"type":"VEC4"
		},
		{
			"bufferView":108,
			"componentType":5123,
			"count":24,
			"type":"SCALAR"
		},
		{
			"bufferView":109,
			"componentType":5126,
			"count":104,
			"max":[
				1.350000023841858,
				0.5799999833106995,
				0.45270097255706787
			],
			"min":[
				-1.899999976158142,
				0.1060660183429718,
				-0.45270097255706787
			],
			"type":"VEC3"
		},
		{
			"bufferView":110,
			"componentType":5126,
			"count":104,
			"type":"VEC3"
		},
		{
			"bufferView":111,
			"componentType":5121,
			"count":104,
			"type":"VEC4"
		},
		{
			"bufferView":112,
			"componentType":5126,
			"count":104,
			"type":"VEC4"
		},
		{
			"bufferView":113,
			"componentType":5123,
			"count":156,
			"type":"SCALAR"
		},
		{
			"bufferView":114,
			"componentType":5126,
			"count":176,
			"max":[
				1.7999999523162842,
				0.29698485136032104,
				0.49000000953674316
			],
			"min":[
				-1.899999976158142,
				-0.22195638716220856,
				-0.49000000953674316
			],
			"type":"VEC3"
		},
		{
			"bufferView":115,
			"componentType":5126,
			"count":176,
			"type":"VEC3"
		},
		{
			"bufferView":116,
			"componentType":5121,
			"count":176,
			"type":"VEC4"
		},
		{
			"bufferView":117,
			"componentType":5126,
			"count":176,
			"type":"VEC4"
		},
		{
			"bufferView":118,
			"componentType":5123,
			"count":300,
			"type":"SCALAR"
		},
		{
			"bufferView":119,
			"componentType":5126,
			"count":136,
			"max":[
				1.7999999523162842,
				-0.057402513921260834,
				0.45270097255706787
			],
			"min":[
				-1.899999976158142,
				-0.5799999833106995,
				-0.45270097255706787
			],
			"type":"VEC3"
		},
		{
			"bufferView":120,
			"componentType":5126,
			"count":136,
			"type":"VEC3"
		},
		{
			"bufferView":121,
			"componentType":5121,
			"count":136,
			"type":"VEC4"
		},
		{
			"bufferView":122,
			"componentType":5126,
			"count":136,
			"type":"VEC4"
		},
		{
			"bufferView":123,
			"componentType":5123,
			"count":204,
			"type":"SCALAR"
		},
		{
			"bufferView":124,
			"componentType":5126,
			"count":18,
			"max":[
				0.4000000059604645,
				1.3899999856948853,
				0.06499999016523361
			],
			"min":[
				-0.5,
				0.4000000059604645,
				-0.06499999016523361
			],
			"type":"VEC3"
		},
		{
			"bufferView":125,
			"componentType":5126,
			"count":18,
			"type":"VEC3"
		},
		{
			"bufferView":126,
			"componentType":5121,
			"count":18,
			"type":"VEC4"
		},
		{
			"bufferView":127,
			"componentType":5126,
			"count":18,
			"type":"VEC4"
		},
		{
			"bufferView":128,
			"componentType":5126,
			"count":24,
			"max":[
				2.259999990463257,
				0.029999999329447746,
				0.04500000178813934
			],
			"min":[
				1.5299999713897705,
				-0.8700000047683716,
				-0.04500000178813934
			],
			"type":"VEC3"
		},
		{
			"bufferView":129,
			"componentType":5126,
			"count":24,
			"type":"VEC3"
		},
		{
			"bufferView":130,
			"componentType":5121,
			"count":24,
			"type":"VEC4"
		},
		{
			"bufferView":131,
			"componentType":5126,
			"count":24,
			"type":"VEC4"
		},
		{
			"bufferView":132,
			"componentType":5123,
			"count":36,
			"type":"SCALAR"
		},
		{
			"bufferView":133,
			"componentType":5126,
			"count":26,
			"max":[
				2.2699999809265137,
				1.1200000047683716,
				0.04500000178813934
			],
			"min":[
				1.4800000190734863,
				-0.019999999552965164,
				-0.04500000178813934
			],
			"type":"VEC3"
		},
		{
			"bufferView":134,
			"componentType":5126,
			"count":26,
			"type":"VEC3"
		},
		{
			"bufferView":135,
			"componentType":5121,
			"count":26,
			"type":"VEC4"
		},
		{
			"bufferView":136,
			"componentType":5126,
			"count":26,
			"type":"VEC4"
		},
		{
			"bufferView":137,
			"componentType":5123,
			"count":36,
			"type":"SCALAR"
		},
		{
			"bufferView":138,
			"componentType":5126,
			"count":49,
			"max":[
				1.6333333333333333
			],
			"min":[
				0.03333333333333333
			],
			"type":"SCALAR"
		},
		{
			"bufferView":139,
			"componentType":5126,
			"count":49,
			"type":"VEC3"
		},
		{
			"bufferView":140,
			"componentType":5126,
			"count":2,
			"max":[
				1.6333333333333333
			],
			"min":[
				0.03333333333333333
			],
			"type":"SCALAR"
		},
		{
			"bufferView":141,
			"componentType":5126,
			"count":2,
			"type":"VEC4"
		},
		{
			"bufferView":142,
			"componentType":5126,
			"count":2,
			"type":"VEC3"
		},
		{
			"bufferView":143,
			"componentType":5126,
			"count":2,
			"type":"VEC3"
		},
		{
			"bufferView":144,
			"componentType":5126,
			"count":49,
			"type":"VEC4"
		},
		{
			"bufferView":145,
			"componentType":5126,
			"count":2,
			"type":"VEC3"
		},
		{
			"bufferView":146,
			"componentType":5126,
			"count":2,
			"type":"VEC3"
		},
		{
			"bufferView":147,
			"componentType":5126,
			"count":49,
			"type":"VEC4"
		},
		{
			"bufferView":148,
			"componentType":5126,
			"count":2,
			"type":"VEC3"
		},
		{
			"bufferView":149,
			"componentType":5126,
			"count":2,
			"type":"VEC3"
		},
		{
			"bufferView":150,
			"componentType":5126,
			"count":49,
			"type":"VEC4"
		},
		{
			"bufferView":151,
			"componentType":5126,
			"count":2,
			"type":"VEC3"
		}
	],
	"bufferViews":[
		{
			"buffer":0,
			"byteLength":5976,
			"byteOffset":0,
			"target":34962
		},
		{
			"buffer":0,
			"byteLength":5976,
			"byteOffset":5976,
			"target":34962
		},
		{
			"buffer":0,
			"byteLength":3984,
			"byteOffset":11952,
			"target":34962
		},
		{
			"buffer":0,
			"byteLength":1992,
			"byteOffset":15936,
			"target":34962
		},
		{
			"buffer":0,
			"byteLength":7968,
			"byteOffset":17928,
			"target":34962
		},
		{
			"buffer":0,
			"byteLength":1344,
			"byteOffset":25896,
			"target":34963
		},
		{
			"buffer":0,
			"byteLength":256,
			"byteOffset":27240
		},
		{
			"buffer":0,
			"byteLength":5976,
			"byteOffset":27496,
			"target":34962
		},
		{
			"buffer":0,
			"byteLength":5976,
			"byteOffset":33472,
			"target":34962
		},
		{
			"buffer":0,
			"byteLength":3984,
			"byteOffset":39448,
			"target":34962
		},
		{
			"buffer":0,
			"byteLength":1992,
			"byteOffset":43432,
			"target":34962
		},
		{
			"buffer":0,
			"byteLength":7968,
			"byteOffset":45424,
			"target":34962
		},
		{
			"buffer":0,
			"byteLength":1344,
			"byteOffset":53392,
			"target":34963
		},
		{
			"buffer":0,
			"byteLength":3552,
			"byteOffset":54736,
			"target":34962
		},
		{
			"buffer":0,
			"byteLength":3552,
			"byteOffset":58288,
			"target":34962
		},
		{
			"buffer":0,
			"byteLength":2368,
			"byteOffset":61840,
			"target":34962
		},
		{
			"buffer":0,
			"byteLength":1184,
			"byteOffset":64208,
			"target":34962
		},
		{
			"buffer":0,
			"byteLength":4736,
			"byteOffset":65392,
			"target":34962
		},
		{
			"buffer":0,
			"byteLength":720,
			"byteOffset":70128,
			"target":34963
		},
		{
			"buffer":0,
			"byteLength":3552,
			"byteOffset":70848,
			"target":34962
		},
		{
			"buffer":0,
			"byteLength":3552,
			"byteOffset":74400,
			"target":34962
		},
		{
			"buffer":0,
			"byteLength":2368,
			"byteOffset":77952,
			"target":34962
		},
		{
			"buffer":0,
			"byteLength":1184,
			"byteOffset":80320,
			"target":34962
		},
		{
			"buffer":0,
			"byteLength":4736,
			"byteOffset":81504,
			"target":34962
		},
		{
			"buffer":0,
			"byteLength":720,
			"byteOffset":86240,
			"target":34963
		},
		{
			"buffer":0,
			"byteLength":2448,
			"byteOffset":86960,
			"target":34962
		},
		{
			"buffer":0,
			"byteLength":2448,
			"byteOffset":89408,
			"target":34962
		},
		{
			"buffer":0,
			"byteLength":1632,
			"byteOffset":91856,
			"target":34962
		},
		{
			"buffer":0,
			"byteLength":816,
			"byteOffset":93488,
			"target":34962
		},
		{
			"buffer":0,
			"byteLength":3264,
			"byteOffset":94304,
			"target":34962
		},
		{
			"buffer":0,
			"byteLength":480,
			"byteOffset":97568,
			"target":34963
		},
		{
			"buffer":0,
			"byteLength":2400,
			"byteOffset":98048,
			"target":34962
		},
		{
			"buffer":0,
			"byteLength":2400,
			"byteOffset":100448,
			"target":34962
		},
		{
			"buffer":0,
			"byteLength":1600,
			"byteOffset":102848,
			"target":34962
		},
		{
			"buffer":0,
			"byteLength":800,
			"byteOffset":104448,
			"target":34962
		},
		{
			"buffer":0,
			"byteLength":3200,
			"byteOffset":105248,
			"target":34962
		},
		{
			"buffer":0,
			"byteLength":480,
			"byteOffset":108448,
			"target":34963
		},
		{
			"buffer":0,
			"byteLength":2112,
			"byteOffset":108928,
			"target":34962
		},
		{
			"buffer":0,
			"byteLength":2112,
			"byteOffset":111040,
			"target":34962
		},
		{
			"buffer":0,
			"byteLength":1408,
			"byteOffset":113152,
			"target":34962
		},
		{
			"buffer":0,
			"byteLength":704,
			"byteOffset":114560,
			"target":34962
		},
		{
			"buffer":0,
			"byteLength":2816,
			"byteOffset":115264,
			"target":34962
		},
		{
			"buffer":0,
			"byteLength":480,
			"byteOffset":118080,
			"target":34963
		},
		{
			"buffer":0,
			"byteLength":2304,
			"byteOffset":118560,
			"target":34962
		},
		{
			"buffer":0,
			"byteLength":2304,
			"byteOffset":120864,
			"target":34962
		},
		{
			"buffer":0,
			"byteLength":1536,
			"byteOffset":123168,
			"target":34962
		},
		{
			"buffer":0,
			"byteLength":768,
			"byteOffset":124704,
			"target":34962
		},
		{
			"buffer":0,
			"byteLength":3072,
			"byteOffset":125472,
			"target":34962
		},
		{
			"buffer":0,
			"byteLength":480,
			"byteOffset":128544,
			"target":34963
		},
		{
			"buffer":0,
			"byteLength":2112,
			"byteOffset":129024,
			"target":34962
		},
		{
			"buffer":0,
			"byteLength":2112,
			"byteOffset":131136,
			"target":34962
		},
		{
			"buffer":0,
			"byteLength":1408,
			"byteOffset":133248,
			"target":34962
		},
		{
			"buffer":0,
			"byteLength":704,
			"byteOffset":134656,
			"target":34962
		},
		{
			"buffer":0,
			"byteLength":2816,
			"byteOffset":135360,
			"target":34962
		},
		{
			"buffer":0,
			"byteLength":480,
			"byteOffset":138176,
			"target":34963
		},
		{
			"buffer":0,
			"byteLength":2448,
			"byteOffset":138656,
			"target":34962
		},
		{
			"buffer":0,
			"byteLength":2448,
			"byteOffset":141104,
			"target":34962
		},
		{
			"buffer":0,
			"byteLength":1632,
			"byteOffset":143552,
			"target":34962
		},
		{
			"buffer":0,
			"byteLength":816,
			"byteOffset":145184,
			"target":34962
		},
		{
			"buffer":0,
			"byteLength":3264,
			"byteOffset":146000,
			"target":34962
		},
		{
			"buffer":0,
			"byteLength":480,
			"byteOffset":149264,
			"target":34963
		},
		{
			"buffer":0,
			"byteLength":2400,
			"byteOffset":149744,
			"target":34962
		},
		{
			"buffer":0,
			"byteLength":2400,
			"byteOffset":152144,
			"target":34962
		},
		{
			"buffer":0,
			"byteLength":1600,
			"byteOffset":154544,
			"target":34962
		},
		{
			"buffer":0,
			"byteLength":800,
			"byteOffset":156144,
			"target":34962
		},
		{
			"buffer":0,
			"byteLength":3200,
			"byteOffset":156944,
			"target":34962
		},
		{
			"buffer":0,
			"byteLength":480,
			"byteOffset":160144,
			"target":34963
		},
		{
			"buffer":0,
			"byteLength":2112,
			"byteOffset":160624,
			"target":34962
		},
		{
			"buffer":0,
			"byteLength":2112,
			"byteOffset":162736,
			"target":34962
		},
		{
			"buffer":0,
			"byteLength":1408,
			"byteOffset":164848,
			"target":34962
		},
		{
			"buffer":0,
			"byteLength":704,
			"byteOffset":166256,
			"target":34962
		},
		{
			"buffer":0,
			"byteLength":2816,
			"byteOffset":166960,
			"target":34962
		},
		{
			"buffer":0,
			"byteLength":2304,
			"byteOffset":169776,
			"target":34962
		},
		{
			"buffer":0,
			"byteLength":2304,
			"byteOffset":172080,
			"target":34962
		},
		{
			"buffer":0,
			"byteLength":1536,
			"byteOffset":174384,
			"target":34962
		},
		{
			"buffer":0,
			"byteLength":768,
			"byteOffset":175920,
			"target":34962
		},
		{
			"buffer":0,
			"byteLength":3072,
			"byteOffset":176688,
			"target":34962
		},
		{
			"buffer":0,
			"byteLength":480,
			"byteOffset":179760,
			"target":34963
		},
		{
			"buffer":0,
			"byteLength":2112,
			"byteOffset":180240,
			"target":34962
		},
		{
			"buffer":0,
			"byteLength":2112,
			"byteOffset":182352,
			"target":34962
		},
		{
			"buffer":0,
			"byteLength":1408,
			"byteOffset":184464,
			"target":34962
		},
		{
			"buffer":0,
			"byteLength":704,
			"byteOffset":185872,
			"target":34962
		},
		{
			"buffer":0,
			"byteLength":2816,
			"byteOffset":186576,
			"target":34962
		},
		{
			"buffer":0,
			"byteLength":480,
			"byteOffset":189392,
			"target":34963
		},
		{
			"buffer":0,
			"byteLength":288,
			"byteOffset":189872,
			"target":34962
		},
		{
			"buffer":0,
			"byteLength":288,
			"byteOffset":190160,
			"target":34962
		},
		{
			"buffer":0,
			"byteLength":96,
			"byteOffset":190448,
			"target":34962
		},
		{
			"buffer":0,
			"byteLength":384,
			"byteOffset":190544,
			"target":34962
		},
		{
			"buffer":0,
			"byteLength":72,
			"byteOffset":190928,
			"target":34963
		},
		{
			"buffer":0,
			"byteLength":288,
			"byteOffset":191000,
			"target":34962
		},
		{
			"buffer":0,
			"byteLength":288,
			"byteOffset":191288,
			"target":34962
		},
		{
			"buffer":0,
			"byteLength":96,
			"byteOffset":191576,
			"target":34962
		},
		{
			"buffer":0,
			"byteLength":384,
			"byteOffset":191672,
			"target":34962
		},
		{
			"buffer":0,
			"byteLength":72,
			"byteOffset":192056,
			"target":34963
		},
		{
			"buffer":0,
			"byteLength":216,
			"byteOffset":192128,
			"target":34962
		},
		{
			"buffer":0,
			"byteLength":216,
			"byteOffset":192344,
			"target":34962
		},
		{
			"buffer":0,
			"byteLength":72,
			"byteOffset":192560,
			"target":34962
		},
		{
			"buffer":0,
			"byteLength":288,
			"byteOffset":192632,
			"target":34962
		},
		{
			"buffer":0,
			"byteLength":48,
			"byteOffset":192920,
			"target":34963
		},
		{
			"buffer":0,
			"byteLength":216,
			"byteOffset":192968,
			"target":34962
		},
		{
			"buffer":0,
			"byteLength":216,
			"byteOffset":193184,
			"target":34962
		},
		{
			"buffer":0,
			"byteLength":72,
			"byteOffset":193400,
			"target":34962
		},
		{
			"buffer":0,
			"byteLength":288,
			"byteOffset":193472,
			"target":34962
		},
		{
			"buffer":0,
			"byteLength":48,
			"byteOffset":193760,
			"target":34963
		},
		{
			"buffer":0,
			"byteLength":216,
			"byteOffset":193808,
			"target":34962
		},
		{
			"buffer":0,
			"byteLength":216,
			"byteOffset":194024,
			"target":34962
		},
		{
			"buffer":0,
			"byteLength":72,
			"byteOffset":194240,
			"target":34962
		},
		{
			"buffer":0,
			"byteLength":288,
			"byteOffset":194312,
			"target":34962
		},
		{
			"buffer":0,
			"byteLength":48,
			"byteOffset":194600,
			"target":34963
		},
		{
			"buffer":0,
			"byteLength":1248,
			"byteOffset":194648,
			"target":34962
		},
		{
			"buffer":0,
			"byteLength":1248,
			"byteOffset":195896,
			"target":34962
		},
		{
			"buffer":0,
			"byteLength":416,
			"byteOffset":197144,
			"target":34962
		},
		{
			"buffer":0,
			"byteLength":1664,
			"byteOffset":197560,
			"target":34962
		},
		{
			"buffer":0,
			"byteLength":312,
			"byteOffset":199224,
			"target":34963
		},
		{
			"buffer":0,
			"byteLength":2112,
			"byteOffset":199536,
			"target":34962
		},
		{
			"buffer":0,
			"byteLength":2112,
			"byteOffset":201648,
			"target":34962
		},
		{
			"buffer":0,
			"byteLength":704,
			"byteOffset":203760,
			"target":34962
		},
		{
			"buffer":0,
			"byteLength":2816,
			"byteOffset":204464,
			"target":34962
		},
		{
			"buffer":0,
			"byteLength":600,
			"byteOffset":207280,
			"target":34963
		},
		{
			"buffer":0,
			"byteLength":1632,
			"byteOffset":207880,
			"target":34962
		},
		{
			"buffer":0,
			"byteLength":1632,
			"byteOffset":209512,
			"target":34962
		},
		{
			"buffer":0,
			"byteLength":544,
			"byteOffset":211144,
			"target":34962
		},
		{
			"buffer":0,
			"byteLength":2176,
			"byteOffset":211688,
			"target":34962
		},
		{
			"buffer":0,
			"byteLength":408,
			"byteOffset":213864,
			"target":34963
		},
		{
			"buffer":0,
			"byteLength":216,
			"byteOffset":214272,
			"target":34962
		},
		{
			"buffer":0,
			"byteLength":216,
			"byteOffset":214488,
			"target":34962
		},
		{
			"buffer":0,
			"byteLength":72,
			"byteOffset":214704,
			"target":34962
		},
		{
			"buffer":0,
			"byteLength":288,
			"byteOffset":214776,
			"target":34962
		},
		{
			"buffer":0,
			"byteLength":288,
			"byteOffset":215064,
			"target":34962
		},
		{
			"buffer":0,
			"byteLength":288,
			"byteOffset":215352,
			"target":34962
		},
		{
			"buffer":0,
			"byteLength":96,
			"byteOffset":215640,
			"target":34962
		},
		{
			"buffer":0,
			"byteLength":384,
			"byteOffset":215736,
			"target":34962
		},
		{
			"buffer":0,
			"byteLength":72,
			"byteOffset":216120,
			"target":34963
		},
		{
			"buffer":0,
			"byteLength":312,
			"byteOffset":216192,
			"target":34962
		},
		{
			"buffer":0,
			"byteLength":312,
			"byteOffset":216504,
			"target":34962
		},
		{
			"buffer":0,
			"byteLength":104,
			"byteOffset":216816,
			"target":34962
		},
		{
			"buffer":0,
			"byteLength":416,
			"byteOffset":216920,
			"target":34962
		},
		{
			"buffer":0,
			"byteLength":72,
			"byteOffset":217336,
			"target":34963
		},
		{
			"buffer":0,
			"byteLength":196,
			"byteOffset":217408
		},
		{
			"buffer":0,
			"byteLength":588,
			"byteOffset":217604
		},
		{
			"buffer":0,
			"byteLength":8,
			"byteOffset":218192
		},
		{
			"buffer":0,
			"byteLength":32,
			"byteOffset":218200
		},
		{
			"buffer":0,
			"byteLength":24,
			"byteOffset":218232
		},
		{
			"buffer":0,
			"byteLength":24,
			"byteOffset":218256
		},
		{
			"buffer":0,
			"byteLength":784,
			"byteOffset":218280
		},
		{
			"buffer":0,
			"byteLength":24,
			"byteOffset":219064
		},
		{
			"buffer":0,
			"byteLength":24,
			"byteOffset":219088
		},
		{
			"buffer":0,
			"byteLength":784,
			"byteOffset":219112
		},
		{
			"buffer":0,
			"byteLength":24,
			"byteOffset":219896
		},
		{
			"buffer":0,
			"byteLength":24,
			"byteOffset":219920
		},
		{
			"buffer":0,
			"byteLength":784,
			"byteOffset":219944
		},
		{
			"buffer":0,
			"byteLength":24,
			"byteOffset":220728
		}
	],
	"buffers":[
		{
			"byteLength":220752,
			"uri":"shark.bin"
		}
	]
}
