{
	"asset":{
		"generator":"Khronos glTF Blender I/O v4.4.56",
		"version":"2.0"
	},
	"scene":0,
	"scenes":[
		{
			"name":"Scene",
			"nodes":[
				62
			]
		}
	],
	"nodes":[
		{
			"name":"Leg_00",
			"translation":[
				-0.6911453604698181,
				0.059530436992645264,
				0.2721898555755615
			]
		},
		{
			"name":"Leg_01",
			"translation":[
				-0.35114532709121704,
				0.05953042209148407,
				0.2721898555755615
			]
		},
		{
			"name":"Leg_02",
			"translation":[
				-0.011145319789648056,
				0.05953042209148407,
				0.2721898555755615
			]
		},
		{
			"name":"Leg_03",
			"translation":[
				0.32885468006134033,
				0.05953042209148407,
				0.2721898555755615
			]
		},
		{
			"name":"Leg_04",
			"translation":[
				0.6688547134399414,
				0.05953042209148407,
				0.2721898555755615
			]
		},
		{
			"name":"Leg_05",
			"translation":[
				-0.6911453604698181,
				0.05953045189380646,
				-0.2721898555755615
			]
		},
		{
			"name":"Leg_06",
			"translation":[
				-0.35114532709121704,
				0.059530556201934814,
				-0.2721898555755615
			]
		},
		{
			"name":"Leg_07",
			"translation":[
				-0.011145327240228653,
				0.059530556201934814,
				-0.2721898555755615
			]
		},
		{
			"name":"Leg_08",
			"translation":[
				0.32885468006134033,
				0.059530556201934814,
				-0.2721898555755615
			]
		},
		{
			"name":"Leg_09",
			"translation":[
				0.6688547134399414,
				0.059530556201934814,
				-0.2721898555755615
			]
		},
		{
			"name":"Claw_-1",
			"translation":[
				-1.100000023841858,
				0.20000000298023224,
				0.3499999940395355
			]
		},
		{
			"name":"Claw_1",
			"translation":[
				-1.100000023841858,
				0.20000000298023224,
				-0.3499999940395355
			]
		},
		{
			"children":[
				0,
				1,
				2,
				3,
				4,
				5,
				6,
				7,
				8,
				9,
				10,
				11
			],
			"name":"Root"
		},
		{
			"mesh":0,
			"name":"Abdomen_segment_0",
			"skin":0
		},
		{
			"mesh":1,
			"name":"Abdomen_segment_1",
			"skin":0
		},
		{
			"mesh":2,
			"name":"Abdomen_segment_2",
			"skin":0
		},
		{
			"mesh":3,
			"name":"Abdomen_segment_3",
			"skin":0
		},
		{
			"mesh":4,
			"name":"Abdomen_segment_4",
			"skin":0
		},
		{
			"mesh":5,
			"name":"Abdomen_segment_5",
			"skin":0
		},
		{
			"mesh":6,
			"name":"Antenna",
			"skin":0
		},
		{
			"mesh":7,
			"name":"Antenna.001",
			"skin":0
		},
		{
			"mesh":8,
			"name":"Eye_band",
			"skin":0
		},
		{
			"mesh":9,
			"name":"Eye_band.001",
			"skin":0
		},
		{
			"mesh":10,
			"name":"Eye_stalk",
			"skin":0
		},
		{
			"mesh":11,
			"name":"Eye_stalk.001",
			"skin":0
		},
		{
			"mesh":12,
			"name":"Folded_forearm",
			"skin":0
		},
		{
			"mesh":13,
			"name":"Folded_forearm.001",
			"skin":0
		},
		{
			"mesh":14,
			"name":"Foot",
			"skin":0
		},
		{
			"mesh":15,
			"name":"Foot.001",
			"skin":0
		},
		{
			"mesh":16,
			"name":"Foot.002",
			"skin":0
		},
		{
			"mesh":17,
			"name":"Foot.003",
			"skin":0
		},
		{
			"mesh":18,
			"name":"Foot.004",
			"skin":0
		},
		{
			"mesh":19,
			"name":"Foot.005",
			"skin":0
		},
		{
			"mesh":20,
			"name":"Foot.006",
			"skin":0
		},
		{
			"mesh":21,
			"name":"Foot.007",
			"skin":0
		},
		{
			"mesh":22,
			"name":"Foot.008",
			"skin":0
		},
		{
			"mesh":23,
			"name":"Foot.009",
			"skin":0
		},
		{
			"mesh":24,
			"name":"Mantis_eye",
			"skin":0
		},
		{
			"mesh":25,
			"name":"Mantis_eye.001",
			"skin":0
		},
		{
			"mesh":26,
			"name":"Raptorial_upper",
			"skin":0
		},
		{
			"mesh":27,
			"name":"Raptorial_upper.001",
			"skin":0
		},
		{
			"mesh":28,
			"name":"Segment_ridge_0",
			"skin":0
		},
		{
			"mesh":29,
			"name":"Segment_ridge_1",
			"skin":0
		},
		{
			"mesh":30,
			"name":"Segment_ridge_2",
			"skin":0
		},
		{
			"mesh":31,
			"name":"Segment_ridge_3",
			"skin":0
		},
		{
			"mesh":32,
			"name":"Segment_ridge_4",
			"skin":0
		},
		{
			"mesh":33,
			"name":"Segment_ridge_5",
			"skin":0
		},
		{
			"mesh":34,
			"name":"Smashing_club",
			"skin":0
		},
		{
			"mesh":35,
			"name":"Smashing_club.001",
			"skin":0
		},
		{
			"mesh":36,
			"name":"Tail_fan",
			"skin":0
		},
		{
			"mesh":37,
			"name":"Tail_fan.001",
			"skin":0
		},
		{
			"mesh":38,
			"name":"Thorax",
			"skin":0
		},
		{
			"mesh":39,
			"name":"Walking_leg",
			"skin":0
		},
		{
			"mesh":40,
			"name":"Walking_leg.001",
			"skin":0
		},
		{
			"mesh":41,
			"name":"Walking_leg.002",
			"skin":0
		},
		{
			"mesh":42,
			"name":"Walking_leg.003",
			"skin":0
		},
		{
			"mesh":43,
			"name":"Walking_leg.004",
			"skin":0
		},
		{
			"mesh":44,
			"name":"Walking_leg.005",
			"skin":0
		},
		{
			"mesh":45,
			"name":"Walking_leg.006",
			"skin":0
		},
		{
			"mesh":46,
			"name":"Walking_leg.007",
			"skin":0
		},
		{
			"mesh":47,
			"name":"Walking_leg.008",
			"skin":0
		},
		{
			"mesh":48,
			"name":"Walking_leg.009",
			"skin":0
		},
		{
			"children":[
				13,
				14,
				15,
				16,
				17,
				18,
				19,
				20,
				21,
				22,
				23,
				24,
				25,
				26,
				27,
				28,
				29,
				30,
				31,
				32,
				33,
				34,
				35,
				36,
				37,
				38,
				39,
				40,
				41,
				42,
				43,
				44,
				45,
				46,
				47,
				48,
				49,
				50,
				51,
				52,
				53,
				54,
				55,
				56,
				57,
				58,
				59,
				60,
				61,
				12
			],
			"name":"mantis_shrimp_Rig"
		}
	],
	"animations":[
		{
			"channels":[
				{
					"sampler":0,
					"target":{
						"node":12,
						"path":"translation"
					}
				},
				{
					"sampler":1,
					"target":{
						"node":12,
						"path":"rotation"
					}
				},
				{
					"sampler":2,
					"target":{
						"node":12,
						"path":"scale"
					}
				},
				{
					"sampler":3,
					"target":{
						"node":0,
						"path":"translation"
					}
				},
				{
					"sampler":4,
					"target":{
						"node":0,
						"path":"rotation"
					}
				},
				{
					"sampler":5,
					"target":{
						"node":0,
						"path":"scale"
					}
				},
				{
					"sampler":6,
					"target":{
						"node":1,
						"path":"translation"
					}
				},
				{
					"sampler":7,
					"target":{
						"node":1,
						"path":"rotation"
					}
				},
				{
					"sampler":8,
					"target":{
						"node":1,
						"path":"scale"
					}
				},
				{
					"sampler":9,
					"target":{
						"node":2,
						"path":"translation"
					}
				},
				{
					"sampler":10,
					"target":{
						"node":2,
						"path":"rotation"
					}
				},
				{
					"sampler":11,
					"target":{
						"node":2,
						"path":"scale"
					}
				},
				{
					"sampler":12,
					"target":{
						"node":3,
						"path":"translation"
					}
				},
				{
					"sampler":13,
					"target":{
						"node":3,
						"path":"rotation"
					}
				},
				{
					"sampler":14,
					"target":{
						"node":3,
						"path":"scale"
					}
				},
				{
					"sampler":15,
					"target":{
						"node":4,
						"path":"translation"
					}
				},
				{
					"sampler":16,
					"target":{
						"node":4,
						"path":"rotation"
					}
				},
				{
					"sampler":17,
					"target":{
						"node":4,
						"path":"scale"
					}
				},
				{
					"sampler":18,
					"target":{
						"node":5,
						"path":"translation"
					}
				},
				{
					"sampler":19,
					"target":{
						"node":5,
						"path":"rotation"
					}
				},
				{
					"sampler":20,
					"target":{
						"node":5,
						"path":"scale"
					}
				},
				{
					"sampler":21,
					"target":{
						"node":6,
						"path":"translation"
					}
				},
				{
					"sampler":22,
					"target":{
						"node":6,
						"path":"rotation"
					}
				},
				{
					"sampler":23,
					"target":{
						"node":6,
						"path":"scale"
					}
				},
				{
					"sampler":24,
					"target":{
						"node":7,
						"path":"translation"
					}
				},
				{
					"sampler":25,
					"target":{
						"node":7,
						"path":"rotation"
					}
				},
				{
					"sampler":26,
					"target":{
						"node":7,
						"path":"scale"
					}
				},
				{
					"sampler":27,
					"target":{
						"node":8,
						"path":"translation"
					}
				},
				{
					"sampler":28,
					"target":{
						"node":8,
						"path":"rotation"
					}
				},
				{
					"sampler":29,
					"target":{
						"node":8,
						"path":"scale"
					}
				},
				{
					"sampler":30,
					"target":{
						"node":9,
						"path":"translation"
					}
				},
				{
					"sampler":31,
					"target":{
						"node":9,
						"path":"rotation"
					}
				},
				{
					"sampler":32,
					"target":{
						"node":9,
						"path":"scale"
					}
				},
				{
					"sampler":33,
					"target":{
						"node":10,
						"path":"translation"
					}
				},
				{
					"sampler":34,
					"target":{
						"node":10,
						"path":"rotation"
					}
				},
				{
					"sampler":35,
					"target":{
						"node":10,
						"path":"scale"
					}
				},
				{
					"sampler":36,
					"target":{
						"node":11,
						"path":"translation"
					}
				},
				{
					"sampler":37,
					"target":{
						"node":11,
						"path":"rotation"
					}
				},
				{
					"sampler":38,
					"target":{
						"node":11,
						"path":"scale"
					}
				}
			],
			"name":"Walk",
			"samplers":[
				{
					"input":277,
					"interpolation":"LINEAR",
					"output":278
				},
				{
					"input":279,
					"interpolation":"STEP",
					"output":280
				},
				{
					"input":279,
					"interpolation":"STEP",
					"output":281
				},
				{
					"input":279,
					"interpolation":"STEP",
					"output":282
				},
				{
					"input":277,
					"interpolation":"LINEAR",
					"output":283
				},
				{
					"input":279,
					"interpolation":"STEP",
					"output":284
				},
				{
					"input":279,
					"interpolation":"STEP",
					"output":285
				},
				{
					"input":277,
					"interpolation":"LINEAR",
					"output":286
				},
				{
					"input":279,
					"interpolation":"STEP",
					"output":287
				},
				{
					"input":279,
					"interpolation":"STEP",
					"output":288
				},
				{
					"input":277,
					"interpolation":"LINEAR",
					"output":289
				},
				{
					"input":279,
					"interpolation":"STEP",
					"output":290
				},
				{
					"input":279,
					"interpolation":"STEP",
					"output":291
				},
				{
					"input":277,
					"interpolation":"LINEAR",
					"output":292
				},
				{
					"input":279,
					"interpolation":"STEP",
					"output":293
				},
				{
					"input":279,
					"interpolation":"STEP",
					"output":294
				},
				{
					"input":277,
					"interpolation":"LINEAR",
					"output":295
				},
				{
					"input":279,
					"interpolation":"STEP",
					"output":296
				},
				{
					"input":279,
					"interpolation":"STEP",
					"output":297
				},
				{
					"input":277,
					"interpolation":"LINEAR",
					"output":298
				},
				{
					"input":279,
					"interpolation":"STEP",
					"output":299
				},
				{
					"input":279,
					"interpolation":"STEP",
					"output":300
				},
				{
					"input":277,
					"interpolation":"LINEAR",
					"output":301
				},
				{
					"input":279,
					"interpolation":"STEP",
					"output":302
				},
				{
					"input":279,
					"interpolation":"STEP",
					"output":303
				},
				{
					"input":277,
					"interpolation":"LINEAR",
					"output":304
				},
				{
					"input":279,
					"interpolation":"STEP",
					"output":305
				},
				{
					"input":279,
					"interpolation":"STEP",
					"output":306
				},
				{
					"input":277,
					"interpolation":"LINEAR",
					"output":307
				},
				{
					"input":279,
					"interpolation":"STEP",
					"output":308
				},
				{
					"input":279,
					"interpolation":"STEP",
					"output":309
				},
				{
					"input":277,
					"interpolation":"LINEAR",
					"output":310
				},
				{
					"input":279,
					"interpolation":"STEP",
					"output":311
				},
				{
					"input":279,
					"interpolation":"STEP",
					"output":312
				},
				{
					"input":277,
					"interpolation":"LINEAR",
					"output":313
				},
				{
					"input":279,
					"interpolation":"STEP",
					"output":314
				},
				{
					"input":279,
					"interpolation":"STEP",
					"output":315
				},
				{
					"input":277,
					"interpolation":"LINEAR",
					"output":316
				},
				{
					"input":279,
					"interpolation":"STEP",
					"output":317
				}
			]
		}
	],
	"materials":[
		{
			"doubleSided":true,
			"name":"Mantis Jade Shell",
			"pbrMetallicRoughness":{
				"baseColorFactor":[
					0.12999999523162842,
					0.44999998807907104,
					0.3199999928474426,
					1
				],
				"metallicFactor":0,
				"roughnessFactor":0.5
			}
		},
		{
			"doubleSided":true,
			"name":"Shell Ridges",
			"pbrMetallicRoughness":{
				"baseColorFactor":[
					0.47999998927116394,
					0.6499999761581421,
					0.23999999463558197,
					1
				],
				"metallicFactor":0,
				"roughnessFactor":0.5
			}
		},
		{
			"doubleSided":true,
			"name":"Eye Black.004",
			"pbrMetallicRoughness":{
				"baseColorFactor":[
					0.006000000052154064,
					0.009999999776482582,
					0.013000000268220901,
					1
				],
				"metallicFactor":0,
				"roughnessFactor":0.20000000298023224
			}
		},
		{
			"doubleSided":true,
			"name":"Leg Sand",
			"pbrMetallicRoughness":{
				"baseColorFactor":[
					0.7400000095367432,
					0.6700000166893005,
					0.4099999964237213,
					1
				],
				"metallicFactor":0,
				"roughnessFactor":0.5
			}
		},
		{
			"doubleSided":true,
			"name":"Raptorial Coral",
			"pbrMetallicRoughness":{
				"baseColorFactor":[
					0.7900000214576721,
					0.28999999165534973,
					0.11999999731779099,
					1
				],
				"metallicFactor":0,
				"roughnessFactor":0.5
			}
		}
	],
	"meshes":[
		{
			"name":"Sphere.035",
			"primitives":[
				{
					"attributes":{
						"POSITION":0,
						"NORMAL":1,
						"TEXCOORD_0":2,
						"JOINTS_0":3,
						"WEIGHTS_0":4
					},
					"indices":5,
					"material":0
				}
			]
		},
		{
			"name":"Sphere.037",
			"primitives":[
				{
					"attributes":{
						"POSITION":7,
						"NORMAL":8,
						"TEXCOORD_0":9,
						"JOINTS_0":10,
						"WEIGHTS_0":11
					},
					"indices":12,
					"material":0
				}
			]
		},
		{
			"name":"Sphere.039",
			"primitives":[
				{
					"attributes":{
						"POSITION":13,
						"NORMAL":14,
						"TEXCOORD_0":15,
						"JOINTS_0":16,
						"WEIGHTS_0":17
					},
					"indices":18,
					"material":0
				}
			]
		},
		{
			"name":"Sphere.055",
			"primitives":[
				{
					"attributes":{
						"POSITION":19,
						"NORMAL":20,
						"TEXCOORD_0":21,
						"JOINTS_0":22,
						"WEIGHTS_0":23
					},
					"indices":24,
					"material":0
				}
			]
		},
		{
			"name":"Sphere.057",
			"primitives":[
				{
					"attributes":{
						"POSITION":25,
						"NORMAL":26,
						"TEXCOORD_0":27,
						"JOINTS_0":28,
						"WEIGHTS_0":29
					},
					"indices":30,
					"material":0
				}
			]
		},
		{
			"name":"Sphere.059",
			"primitives":[
				{
					"attributes":{
						"POSITION":31,
						"NORMAL":32,
						"TEXCOORD_0":33,
						"JOINTS_0":34,
						"WEIGHTS_0":35
					},
					"indices":36,
					"material":0
				}
			]
		},
		{
			"name":"Cone.034",
			"primitives":[
				{
					"attributes":{
						"POSITION":37,
						"NORMAL":38,
						"TEXCOORD_0":39,
						"JOINTS_0":40,
						"WEIGHTS_0":41
					},
					"indices":42,
					"material":1
				}
			]
		},
		{
			"name":"Cone.048",
			"primitives":[
				{
					"attributes":{
						"POSITION":43,
						"NORMAL":44,
						"TEXCOORD_0":45,
						"JOINTS_0":46,
						"WEIGHTS_0":47
					},
					"indices":48,
					"material":1
				}
			]
		},
		{
			"name":"Sphere.062",
			"primitives":[
				{
					"attributes":{
						"POSITION":49,
						"NORMAL":50,
						"TEXCOORD_0":51,
						"JOINTS_0":52,
						"WEIGHTS_0":53
					},
					"indices":54,
					"material":2
				}
			]
		},
		{
			"name":"Sphere.065",
			"primitives":[
				{
					"attributes":{
						"POSITION":55,
						"NORMAL":56,
						"TEXCOORD_0":57,
						"JOINTS_0":58,
						"WEIGHTS_0":59
					},
					"indices":60,
					"material":2
				}
			]
		},
		{
			"name":"Cone.031",
			"primitives":[
				{
					"attributes":{
						"POSITION":61,
						"NORMAL":62,
						"TEXCOORD_0":63,
						"JOINTS_0":64,
						"WEIGHTS_0":65
					},
					"indices":66,
					"material":1
				}
			]
		},
		{
			"name":"Cone.045",
			"primitives":[
				{
					"attributes":{
						"POSITION":67,
						"NORMAL":68,
						"TEXCOORD_0":69,
						"JOINTS_0":70,
						"WEIGHTS_0":71
					},
					"indices":66,
					"material":1
				}
			]
		},
		{
			"name":"Cone.033",
			"primitives":[
				{
					"attributes":{
						"POSITION":72,
						"NORMAL":73,
						"TEXCOORD_0":74,
						"JOINTS_0":75,
						"WEIGHTS_0":76
					},
					"indices":66,
					"material":1
				}
			]
		},
		{
			"name":"Cone.047",
			"primitives":[
				{
					"attributes":{
						"POSITION":77,
						"NORMAL":78,
						"TEXCOORD_0":79,
						"JOINTS_0":80,
						"WEIGHTS_0":81
					},
					"indices":66,
					"material":1
				}
			]
		},
		{
			"name":"Cone.022",
			"primitives":[
				{
					"attributes":{
						"POSITION":82,
						"NORMAL":83,
						"TEXCOORD_0":84,
						"JOINTS_0":85,
						"WEIGHTS_0":86
					},
					"indices":87,
					"material":3
				}
			]
		},
		{
			"name":"Cone.024",
			"primitives":[
				{
					"attributes":{
						"POSITION":88,
						"NORMAL":89,
						"TEXCOORD_0":90,
						"JOINTS_0":91,
						"WEIGHTS_0":92
					},
					"indices":87,
					"material":3
				}
			]
		},
		{
			"name":"Cone.026",
			"primitives":[
				{
					"attributes":{
						"POSITION":93,
						"NORMAL":94,
						"TEXCOORD_0":95,
						"JOINTS_0":96,
						"WEIGHTS_0":97
					},
					"indices":87,
					"material":3
				}
			]
		},
		{
			"name":"Cone.028",
			"primitives":[
				{
					"attributes":{
						"POSITION":98,
						"NORMAL":99,
						"TEXCOORD_0":100,
						"JOINTS_0":101,
						"WEIGHTS_0":102
					},
					"indices":87,
					"material":3
				}
			]
		},
		{
			"name":"Cone.030",
			"primitives":[
				{
					"attributes":{
						"POSITION":103,
						"NORMAL":104,
						"TEXCOORD_0":105,
						"JOINTS_0":106,
						"WEIGHTS_0":107
					},
					"indices":108,
					"material":3
				}
			]
		},
		{
			"name":"Cone.036",
			"primitives":[
				{
					"attributes":{
						"POSITION":109,
						"NORMAL":110,
						"TEXCOORD_0":111,
						"JOINTS_0":112,
						"WEIGHTS_0":113
					},
					"indices":114,
					"material":3
				}
			]
		},
		{
			"name":"Cone.038",
			"primitives":[
				{
					"attributes":{
						"POSITION":115,
						"NORMAL":116,
						"TEXCOORD_0":117,
						"JOINTS_0":118,
						"WEIGHTS_0":119
					},
					"indices":114,
					"material":3
				}
			]
		},
		{
			"name":"Cone.040",
			"primitives":[
				{
					"attributes":{
						"POSITION":120,
						"NORMAL":121,
						"TEXCOORD_0":122,
						"JOINTS_0":123,
						"WEIGHTS_0":124
					},
					"indices":87,
					"material":3
				}
			]
		},
		{
			"name":"Cone.042",
			"primitives":[
				{
					"attributes":{
						"POSITION":125,
						"NORMAL":126,
						"TEXCOORD_0":127,
						"JOINTS_0":128,
						"WEIGHTS_0":129
					},
					"indices":130,
					"material":3
				}
			]
		},
		{
			"name":"Cone.044",
			"primitives":[
				{
					"attributes":{
						"POSITION":131,
						"NORMAL":132,
						"TEXCOORD_0":133,
						"JOINTS_0":134,
						"WEIGHTS_0":135
					},
					"indices":136,
					"material":3
				}
			]
		},
		{
			"name":"Sphere.061",
			"primitives":[
				{
					"attributes":{
						"POSITION":137,
						"NORMAL":138,
						"TEXCOORD_0":139,
						"JOINTS_0":140,
						"WEIGHTS_0":141
					},
					"indices":142,
					"material":0
				}
			]
		},
		{
			"name":"Sphere.064",
			"primitives":[
				{
					"attributes":{
						"POSITION":143,
						"NORMAL":144,
						"TEXCOORD_0":145,
						"JOINTS_0":146,
						"WEIGHTS_0":147
					},
					"indices":148,
					"material":0
				}
			]
		},
		{
			"name":"Cone.032",
			"primitives":[
				{
					"attributes":{
						"POSITION":149,
						"NORMAL":150,
						"TEXCOORD_0":151,
						"JOINTS_0":152,
						"WEIGHTS_0":153
					},
					"indices":66,
					"material":4
				}
			]
		},
		{
			"name":"Cone.046",
			"primitives":[
				{
					"attributes":{
						"POSITION":154,
						"NORMAL":155,
						"TEXCOORD_0":156,
						"JOINTS_0":157,
						"WEIGHTS_0":158
					},
					"indices":66,
					"material":4
				}
			]
		},
		{
			"name":"Sphere.036",
			"primitives":[
				{
					"attributes":{
						"POSITION":159,
						"NORMAL":160,
						"TEXCOORD_0":161,
						"JOINTS_0":162,
						"WEIGHTS_0":163
					},
					"indices":164,
					"material":1
				}
			]
		},
		{
			"name":"Sphere.038",
			"primitives":[
				{
					"attributes":{
						"POSITION":165,
						"NORMAL":166,
						"TEXCOORD_0":167,
						"JOINTS_0":168,
						"WEIGHTS_0":169
					},
					"indices":170,
					"material":1
				}
			]
		},
		{
			"name":"Sphere.054",
			"primitives":[
				{
					"attributes":{
						"POSITION":171,
						"NORMAL":172,
						"TEXCOORD_0":173,
						"JOINTS_0":174,
						"WEIGHTS_0":175
					},
					"indices":176,
					"material":1
				}
			]
		},
		{
			"name":"Sphere.056",
			"primitives":[
				{
					"attributes":{
						"POSITION":177,
						"NORMAL":178,
						"TEXCOORD_0":179,
						"JOINTS_0":180,
						"WEIGHTS_0":181
					},
					"indices":182,
					"material":1
				}
			]
		},
		{
			"name":"Sphere.058",
			"primitives":[
				{
					"attributes":{
						"POSITION":183,
						"NORMAL":184,
						"TEXCOORD_0":185,
						"JOINTS_0":186,
						"WEIGHTS_0":187
					},
					"indices":188,
					"material":1
				}
			]
		},
		{
			"name":"Sphere.060",
			"primitives":[
				{
					"attributes":{
						"POSITION":189,
						"NORMAL":190,
						"TEXCOORD_0":191,
						"JOINTS_0":192,
						"WEIGHTS_0":193
					},
					"indices":194,
					"material":1
				}
			]
		},
		{
			"name":"Sphere.063",
			"primitives":[
				{
					"attributes":{
						"POSITION":195,
						"NORMAL":196,
						"TEXCOORD_0":197,
						"JOINTS_0":198,
						"WEIGHTS_0":199
					},
					"indices":200,
					"material":4
				}
			]
		},
		{
			"name":"Sphere.066",
			"primitives":[
				{
					"attributes":{
						"POSITION":201,
						"NORMAL":202,
						"TEXCOORD_0":203,
						"JOINTS_0":204,
						"WEIGHTS_0":205
					},
					"indices":206,
					"material":4
				}
			]
		},
		{
			"name":"Tail_fan",
			"primitives":[
				{
					"attributes":{
						"POSITION":207,
						"NORMAL":208,
						"JOINTS_0":209,
						"WEIGHTS_0":210
					},
					"indices":211,
					"material":4
				}
			]
		},
		{
			"name":"Tail_fan.001",
			"primitives":[
				{
					"attributes":{
						"POSITION":212,
						"NORMAL":213,
						"JOINTS_0":214,
						"WEIGHTS_0":215
					},
					"indices":216,
					"material":4
				}
			]
		},
		{
			"name":"Sphere.034",
			"primitives":[
				{
					"attributes":{
						"POSITION":217,
						"NORMAL":218,
						"TEXCOORD_0":219,
						"JOINTS_0":220,
						"WEIGHTS_0":221
					},
					"indices":222,
					"material":0
				}
			]
		},
		{
			"name":"Cone.021",
			"primitives":[
				{
					"attributes":{
						"POSITION":223,
						"NORMAL":224,
						"TEXCOORD_0":225,
						"JOINTS_0":226,
						"WEIGHTS_0":227
					},
					"indices":228,
					"material":3
				}
			]
		},
		{
			"name":"Cone.023",
			"primitives":[
				{
					"attributes":{
						"POSITION":229,
						"NORMAL":230,
						"TEXCOORD_0":231,
						"JOINTS_0":232,
						"WEIGHTS_0":233
					},
					"indices":234,
					"material":3
				}
			]
		},
		{
			"name":"Cone.025",
			"primitives":[
				{
					"attributes":{
						"POSITION":235,
						"NORMAL":236,
						"TEXCOORD_0":237,
						"JOINTS_0":238,
						"WEIGHTS_0":239
					},
					"indices":234,
					"material":3
				}
			]
		},
		{
			"name":"Cone.027",
			"primitives":[
				{
					"attributes":{
						"POSITION":240,
						"NORMAL":241,
						"TEXCOORD_0":242,
						"JOINTS_0":243,
						"WEIGHTS_0":244
					},
					"indices":87,
					"material":3
				}
			]
		},
		{
			"name":"Cone.029",
			"primitives":[
				{
					"attributes":{
						"POSITION":245,
						"NORMAL":246,
						"TEXCOORD_0":247,
						"JOINTS_0":248,
						"WEIGHTS_0":249
					},
					"indices":234,
					"material":3
				}
			]
		},
		{
			"name":"Cone.035",
			"primitives":[
				{
					"attributes":{
						"POSITION":250,
						"NORMAL":251,
						"TEXCOORD_0":252,
						"JOINTS_0":253,
						"WEIGHTS_0":254
					},
					"indices":87,
					"material":3
				}
			]
		},
		{
			"name":"Cone.037",
			"primitives":[
				{
					"attributes":{
						"POSITION":255,
						"NORMAL":256,
						"TEXCOORD_0":257,
						"JOINTS_0":258,
						"WEIGHTS_0":259
					},
					"indices":87,
					"material":3
				}
			]
		},
		{
			"name":"Cone.039",
			"primitives":[
				{
					"attributes":{
						"POSITION":260,
						"NORMAL":261,
						"TEXCOORD_0":262,
						"JOINTS_0":263,
						"WEIGHTS_0":264
					},
					"indices":265,
					"material":3
				}
			]
		},
		{
			"name":"Cone.041",
			"primitives":[
				{
					"attributes":{
						"POSITION":266,
						"NORMAL":267,
						"TEXCOORD_0":268,
						"JOINTS_0":269,
						"WEIGHTS_0":270
					},
					"indices":87,
					"material":3
				}
			]
		},
		{
			"name":"Cone.043",
			"primitives":[
				{
					"attributes":{
						"POSITION":271,
						"NORMAL":272,
						"TEXCOORD_0":273,
						"JOINTS_0":274,
						"WEIGHTS_0":275
					},
					"indices":276,
					"material":3
				}
			]
		}
	],
	"skins":[
		{
			"inverseBindMatrices":6,
			"joints":[
				12,
				0,
				1,
				2,
				3,
				4,
				5,
				6,
				7,
				8,
				9,
				10,
				11
			],
			"name":"mantis_shrimp_Rig"
		}
	],
	"accessors":[
		{
			"bufferView":0,
			"componentType":5126,
			"count":482,
			"max":[
				0.2800000011920929,
				0.4699999988079071,
				0.4000000059604645
			],
			"min":[
				-0.17999999225139618,
				-0.09000000357627869,
				-0.4000000059604645
			],
			"type":"VEC3"
		},
		{
			"bufferView":1,
			"componentType":5126,
			"count":482,
			"type":"VEC3"
		},
		{
			"bufferView":2,
			"componentType":5126,
			"count":482,
			"type":"VEC2"
		},
		{
			"bufferView":3,
			"componentType":5121,
			"count":482,
			"type":"VEC4"
		},
		{
			"bufferView":4,
			"componentType":5126,
			"count":482,
			"type":"VEC4"
		},
		{
			"bufferView":5,
			"componentType":5123,
			"count":672,
			"type":"SCALAR"
		},
		{
			"bufferView":6,
			"componentType":5126,
			"count":13,
			"type":"MAT4"
		},
		{
			"bufferView":7,
			"componentType":5126,
			"count":480,
			"max":[
				0.5699999928474426,
				0.4169999957084656,
				0.36500000953674316
			],
			"min":[
				0.11000001430511475,
				-0.10699999332427979,
				-0.36500000953674316
			],
			"type":"VEC3"
		},
		{
			"bufferView":8,
			"componentType":5126,
			"count":480,
			"type":"VEC3"
		},
		{
			"bufferView":9,
			"componentType":5126,
			"count":480,
			"type":"VEC2"
		},
		{
			"bufferView":10,
			"componentType":5121,
			"count":480,
			"type":"VEC4"
		},
		{
			"bufferView":11,
			"componentType":5126,
			"count":480,
			"type":"VEC4"
		},
		{
			"bufferView":12,
			"componentType":5123,
			"count":672,
			"type":"SCALAR"
		},
		{
			"bufferView":13,
			"componentType":5126,
			"count":482,
			"max":[
				0.8600000143051147,
				0.36399999260902405,
				0.33000001311302185
			],
			"min":[
				0.4000000059604645,
				-0.12400000542402267,
				-0.33000001311302185
			],
			"type":"VEC3"
		},
		{
			"bufferView":14,
			"componentType":5126,
			"count":482,
			"type":"VEC3"
		},
		{
			"bufferView":15,
			"componentType":5126,
			"count":482,
			"type":"VEC2"
		},
		{
			"bufferView":16,
			"componentType":5121,
			"count":482,
			"type":"VEC4"
		},
		{
			"bufferView":17,
			"componentType":5126,
			"count":482,
			"type":"VEC4"
		},
		{
			"bufferView":18,
			"componentType":5123,
			"count":672,
			"type":"SCALAR"
		},
		{
			"bufferView":19,
			"componentType":5126,
			"count":480,
			"max":[
				1.149999976158142,
				0.3109999895095825,
				0.29499998688697815
			],
			"min":[
				0.690000057220459,
				-0.14100000262260437,
				-0.29499998688697815
			],
			"type":"VEC3"
		},
		{
			"bufferView":20,
			"componentType":5126,
			"count":480,
			"type":"VEC3"
		},
		{
			"bufferView":21,
			"componentType":5126,
			"count":480,
			"type":"VEC2"
		},
		{
			"bufferView":22,
			"componentType":5121,
			"count":480,
			"type":"VEC4"
		},
		{
			"bufferView":23,
			"componentType":5126,
			"count":480,
			"type":"VEC4"
		},
		{
			"bufferView":24,
			"componentType":5123,
			"count":672,
			"type":"SCALAR"
		},
		{
			"bufferView":25,
			"componentType":5126,
			"count":488,
			"max":[
				1.440000057220459,
				0.2580000162124634,
				0.25999999046325684
			],
			"min":[
				0.9800000190734863,
				-0.15800000727176666,
				-0.25999999046325684
			],
			"type":"VEC3"
		},
		{
			"bufferView":26,
			"componentType":5126,
			"count":488,
			"type":"VEC3"
		},
		{
			"bufferView":27,
			"componentType":5126,
			"count":488,
			"type":"VEC2"
		},
		{
			"bufferView":28,
			"componentType":5121,
			"count":488,
			"type":"VEC4"
		},
		{
			"bufferView":29,
			"componentType":5126,
			"count":488,
			"type":"VEC4"
		},
		{
			"bufferView":30,
			"componentType":5123,
			"count":672,
			"type":"SCALAR"
		},
		{
			"bufferView":31,
			"componentType":5126,
			"count":498,
			"max":[
				1.7300000190734863,
				0.20499999821186066,
				0.22499999403953552
			],
			"min":[
				1.2699999809265137,
				-0.17499999701976776,
				-0.22499999403953552
			],
			"type":"VEC3"
		},
		{
			"bufferView":32,
			"componentType":5126,
			"count":498,
			"type":"VEC3"
		},
		{
			"bufferView":33,
			"componentType":5126,
			"count":498,
			"type":"VEC2"
		},
		{
			"bufferView":34,
			"componentType":5121,
			"count":498,
			"type":"VEC4"
		},
		{
			"bufferView":35,
			"componentType":5126,
			"count":498,
			"type":"VEC4"
		},
		{
			"bufferView":36,
			"componentType":5123,
			"count":672,
			"type":"SCALAR"
		},
		{
			"bufferView":37,
			"componentType":5126,
			"count":44,
			"max":[
				-1.2927634716033936,
				0.343995064496994,
				0.5032529830932617
			],
			"min":[
				-2.0513782501220703,
				0.27902573347091675,
				0.1829214096069336
			],
			"type":"VEC3"
		},
		{
			"bufferView":38,
			"componentType":5126,
			"count":44,
			"type":"VEC3"
		},
		{
			"bufferView":39,
			"componentType":5126,
			"count":44,
			"type":"VEC2"
		},
		{
			"bufferView":40,
			"componentType":5121,
			"count":44,
			"type":"VEC4"
		},
		{
			"bufferView":41,
			"componentType":5126,
			"count":44,
			"type":"VEC4"
		},
		{
			"bufferView":42,
			"componentType":5123,
			"count":60,
			"type":"SCALAR"
		},
		{
			"bufferView":43,
			"componentType":5126,
			"count":44,
			"max":[
				-1.2927634716033936,
				0.34399503469467163,
				-0.1829213798046112
			],
			"min":[
				-2.0513784885406494,
				0.27902576327323914,
				-0.5032530426979065
			],
			"type":"VEC3"
		},
		{
			"bufferView":44,
			"componentType":5126,
			"count":44,
			"type":"VEC3"
		},
		{
			"bufferView":45,
			"componentType":5126,
			"count":44,
			"type":"VEC2"
		},
		{
			"bufferView":46,
			"componentType":5121,
			"count":44,
			"type":"VEC4"
		},
		{
			"bufferView":47,
			"componentType":5126,
			"count":44,
			"type":"VEC4"
		},
		{
			"bufferView":48,
			"componentType":5123,
			"count":60,
			"type":"SCALAR"
		},
		{
			"bufferView":49,
			"componentType":5126,
			"count":522,
			"max":[
				-1.5049999952316284,
				0.8399999737739563,
				0.4749999940395355
			],
			"min":[
				-1.59499990940094,
				0.7199999690055847,
				0.22499999403953552
			],
			"type":"VEC3"
		},
		{
			"bufferView":50,
			"componentType":5126,
			"count":522,
			"type":"VEC3"
		},
		{
			"bufferView":51,
			"componentType":5126,
			"count":522,
			"type":"VEC2"
		},
		{
			"bufferView":52,
			"componentType":5121,
			"count":522,
			"type":"VEC4"
		},
		{
			"bufferView":53,
			"componentType":5126,
			"count":522,
			"type":"VEC4"
		},
		{
			"bufferView":54,
			"componentType":5123,
			"count":672,
			"type":"SCALAR"
		},
		{
			"bufferView":55,
			"componentType":5126,
			"count":524,
			"max":[
				-1.5049999952316284,
				0.8399999737739563,
				-0.22499999403953552
			],
			"min":[
				-1.59499990940094,
				0.7199999690055847,
				-0.4749999940395355
			],
			"type":"VEC3"
		},
		{
			"bufferView":56,
			"componentType":5126,
			"count":524,
			"type":"VEC3"
		},
		{
			"bufferView":57,
			"componentType":5126,
			"count":524,
			"type":"VEC2"
		},
		{
			"bufferView":58,
			"componentType":5121,
			"count":524,
			"type":"VEC4"
		},
		{
			"bufferView":59,
			"componentType":5126,
			"count":524,
			"type":"VEC4"
		},
		{
			"bufferView":60,
			"componentType":5123,
			"count":672,
			"type":"SCALAR"
		},
		{
			"bufferView":61,
			"componentType":5126,
			"count":48,
			"max":[
				-1.0858453512191772,
				0.7808178067207336,
				0.3824092149734497
			],
			"min":[
				-1.4824929237365723,
				0.3486369252204895,
				0.15931792557239532
			],
			"type":"VEC3"
		},
		{
			"bufferView":62,
			"componentType":5126,
			"count":48,
			"type":"VEC3"
		},
		{
			"bufferView":63,
			"componentType":5126,
			"count":48,
			"type":"VEC2"
		},
		{
			"bufferView":64,
			"componentType":5121,
			"count":48,
			"type":"VEC4"
		},
		{
			"bufferView":65,
			"componentType":5126,
			"count":48,
			"type":"VEC4"
		},
		{
			"bufferView":66,
			"componentType":5123,
			"count":84,
			"type":"SCALAR"
		},
		{
			"bufferView":67,
			"componentType":5126,
			"count":48,
			"max":[
				-1.0858453512191772,
				0.7808178663253784,
				-0.15931788086891174
			],
			"min":[
				-1.4824929237365723,
				0.3486369252204895,
				-0.3824092745780945
			],
			"type":"VEC3"
		},
		{
			"bufferView":68,
			"componentType":5126,
			"count":48,
			"type":"VEC3"
		},
		{
			"bufferView":69,
			"componentType":5126,
			"count":48,
			"type":"VEC2"
		},
		{
			"bufferView":70,
			"componentType":5121,
			"count":48,
			"type":"VEC4"
		},
		{
			"bufferView":71,
			"componentType":5126,
			"count":48,
			"type":"VEC4"
		},
		{
			"bufferView":72,
			"componentType":5126,
			"count":48,
			"max":[
				-1.132293701171875,
				0.3797002136707306,
				0.8789101243019104
			],
			"min":[
				-1.6315596103668213,
				-0.1131334900856018,
				0.5810899138450623
			],
			"type":"VEC3"
		},
		{
			"bufferView":73,
			"componentType":5126,
			"count":48,
			"type":"VEC3"
		},
		{
			"bufferView":74,
			"componentType":5126,
			"count":48,
			"type":"VEC2"
		},
		{
			"bufferView":75,
			"componentType":5121,
			"count":48,
			"type":"VEC4"
		},
		{
			"bufferView":76,
			"componentType":5126,
			"count":48,
			"type":"VEC4"
		},
		{
			"bufferView":77,
			"componentType":5126,
			"count":48,
			"max":[
				-1.132293701171875,
				0.3797002136707306,
				-0.581089973449707
			],
			"min":[
				-1.6315594911575317,
				-0.1131334900856018,
				-0.8789101243019104
			],
			"type":"VEC3"
		},
		{
			"bufferView":78,
			"componentType":5126,
			"count":48,
			"type":"VEC3"
		},
		{
			"bufferView":79,
			"componentType":5126,
			"count":48,
			"type":"VEC2"
		},
		{
			"bufferView":80,
			"componentType":5121,
			"count":48,
			"type":"VEC4"
		},
		{
			"bufferView":81,
			"componentType":5126,
			"count":48,
			"type":"VEC4"
		},
		{
			"bufferView":82,
			"componentType":5126,
			"count":36,
			"max":[
				-0.4927631616592407,
				-0.0816529393196106,
				0.7277145385742188
			],
			"min":[
				-0.706225574016571,
				-0.4241936206817627,
				0.6062489151954651
			],
			"type":"VEC3"
		},
		{
			"bufferView":83,
			"componentType":5126,
			"count":36,
			"type":"VEC3"
		},
		{
			"bufferView":84,
			"componentType":5126,
			"count":36,
			"type":"VEC2"
		},
		{
			"bufferView":85,
			"componentType":5121,
			"count":36,
			"type":"VEC4"
		},
		{
			"bufferView":86,
			"componentType":5126,
			"count":36,
			"type":"VEC4"
		},
		{
			"bufferView":87,
			"componentType":5123,
			"count":60,
			"type":"SCALAR"
		},
		{
			"bufferView":88,
			"componentType":5126,
			"count":36,
			"max":[
				-0.15276315808296204,
				-0.0816529393196106,
				0.7277145385742188
			],
			"min":[
				-0.36622557044029236,
				-0.4241936206817627,
				0.6062489151954651
			],
			"type":"VEC3"
		},
		{
			"bufferView":89,
			"componentType":5126,
			"count":36,
			"type":"VEC3"
		},
		{
			"bufferView":90,
			"componentType":5126,
			"count":36,
			"type":"VEC2"
		},
		{
			"bufferView":91,
			"componentType":5121,
			"count":36,
			"type":"VEC4"
		},
		{
			"bufferView":92,
			"componentType":5126,
			"count":36,
			"type":"VEC4"
		},
		{
			"bufferView":93,
			"componentType":5126,
			"count":36,
			"max":[
				0.18723690509796143,
				-0.08165290951728821,
				0.7277145981788635
			],
			"min":[
				-0.02622559666633606,
				-0.4241936206817627,
				0.6062488555908203
			],
			"type":"VEC3"
		},
		{
			"bufferView":94,
			"componentType":5126,
			"count":36,
			"type":"VEC3"
		},
		{
			"bufferView":95,
			"componentType":5126,
			"count":36,
			"type":"VEC2"
		},
		{
			"bufferView":96,
			"componentType":5121,
			"count":36,
			"type":"VEC4"
		},
		{
			"bufferView":97,
			"componentType":5126,
			"count":36,
			"type":"VEC4"
		},
		{
			"bufferView":98,
			"componentType":5126,
			"count":36,
			"max":[
				0.5272368788719177,
				-0.0816529393196106,
				0.7277145385742188
			],
			"min":[
				0.313774436712265,
				-0.4241936206817627,
				0.6062489151954651
			],
			"type":"VEC3"
		},
		{
			"bufferView":99,
			"componentType":5126,
			"count":36,
			"type":"VEC3"
		},
		{
			"bufferView":100,
			"componentType":5126,
			"count":36,
			"type":"VEC2"
		},
		{
			"bufferView":101,
			"componentType":5121,
			"count":36,
			"type":"VEC4"
		},
		{
			"bufferView":102,
			"componentType":5126,
			"count":36,
			"type":"VEC4"
		},
		{
			"bufferView":103,
			"componentType":5126,
			"count":38,
			"max":[
				0.867236852645874,
				-0.08165289461612701,
				0.7277145385742188
			],
			"min":[
				0.6537744998931885,
				-0.4241936504840851,
				0.6062489151954651
			],
			"type":"VEC3"
		},
		{
			"bufferView":104,
			"componentType":5126,
			"count":38,
			"type":"VEC3"
		},
		{
			"bufferView":105,
			"componentType":5126,
			"count":38,
			"type":"VEC2"
		},
		{
			"bufferView":106,
			"componentType":5121,
			"count":38,
			"type":"VEC4"
		},
		{
			"bufferView":107,
			"componentType":5126,
			"count":38,
			"type":"VEC4"
		},
		{
			"bufferView":108,
			"componentType":5123,
			"count":60,
			"type":"SCALAR"
		},
		{
			"bufferView":109,
			"componentType":5126,
			"count":40,
			"max":[
				-0.49276313185691833,
				-0.08165290951728821,
				-0.6062489151954651
			],
			"min":[
				-0.706225574016571,
				-0.4241936206817627,
				-0.7277145385742188
			],
			"type":"VEC3"
		},
		{
			"bufferView":110,
			"componentType":5126,
			"count":40,
			"type":"VEC3"
		},
		{
			"bufferView":111,
			"componentType":5126,
			"count":40,
			"type":"VEC2"
		},
		{
			"bufferView":112,
			"componentType":5121,
			"count":40,
			"type":"VEC4"
		},
		{
			"bufferView":113,
			"componentType":5126,
			"count":40,
			"type":"VEC4"
		},
		{
			"bufferView":114,
			"componentType":5123,
			"count":60,
			"type":"SCALAR"
		},
		{
			"bufferView":115,
			"componentType":5126,
			"count":40,
			"max":[
				-0.15276312828063965,
				-0.08165290951728821,
				-0.6062489151954651
			],
			"min":[
				-0.36622557044029236,
				-0.4241936206817627,
				-0.7277145385742188
			],
			"type":"VEC3"
		},
		{
			"bufferView":116,
			"componentType":5126,
			"count":40,
			"type":"VEC3"
		},
		{
			"bufferView":117,
			"componentType":5126,
			"count":40,
			"type":"VEC2"
		},
		{
			"bufferView":118,
			"componentType":5121,
			"count":40,
			"type":"VEC4"
		},
		{
			"bufferView":119,
			"componentType":5126,
			"count":40,
			"type":"VEC4"
		},
		{
			"bufferView":120,
			"componentType":5126,
			"count":36,
			"max":[
				0.18723687529563904,
				-0.08165290951728821,
				-0.6062489151954651
			],
			"min":[
				-0.026225566864013672,
				-0.4241936206817627,
				-0.7277145385742188
			],
			"type":"VEC3"
		},
		{
			"bufferView":121,
			"componentType":5126,
			"count":36,
			"type":"VEC3"
		},
		{
			"bufferView":122,
			"componentType":5126,
			"count":36,
			"type":"VEC2"
		},
		{
			"bufferView":123,
			"componentType":5121,
			"count":36,
			"type":"VEC4"
		},
		{
			"bufferView":124,
			"componentType":5126,
			"count":36,
			"type":"VEC4"
		},
		{
			"bufferView":125,
			"componentType":5126,
			"count":38,
			"max":[
				0.5272368788719177,
				-0.08165290951728821,
				-0.6062489151954651
			],
			"min":[
				0.313774436712265,
				-0.4241936206817627,
				-0.7277145385742188
			],
			"type":"VEC3"
		},
		{
			"bufferView":126,
			"componentType":5126,
			"count":38,
			"type":"VEC3"
		},
		{
			"bufferView":127,
			"componentType":5126,
			"count":38,
			"type":"VEC2"
		},
		{
			"bufferView":128,
			"componentType":5121,
			"count":38,
			"type":"VEC4"
		},
		{
			"bufferView":129,
			"componentType":5126,
			"count":38,
			"type":"VEC4"
		},
		{
			"bufferView":130,
			"componentType":5123,
			"count":60,
			"type":"SCALAR"
		},
		{
			"bufferView":131,
			"componentType":5126,
			"count":38,
			"max":[
				0.867236852645874,
				-0.0816529244184494,
				-0.6062489151954651
			],
			"min":[
				0.6537744998931885,
				-0.4241936206817627,
				-0.7277145385742188
			],
			"type":"VEC3"
		},
		{
			"bufferView":132,
			"componentType":5126,
			"count":38,
			"type":"VEC3"
		},
		{
			"bufferView":133,
			"componentType":5126,
			"count":38,
			"type":"VEC2"
		},
		{
			"bufferView":134,
			"componentType":5121,
			"count":38,
			"type":"VEC4"
		},
		{
			"bufferView":135,
			"componentType":5126,
			"count":38,
			"type":"VEC4"
		},
		{
			"bufferView":136,
			"componentType":5123,
			"count":60,
			"type":"SCALAR"
		},
		{
			"bufferView":137,
			"componentType":5126,
			"count":496,
			"max":[
				-1.350000023841858,
				0.8999999761581421,
				0.47999998927116394
			],
			"min":[
				-1.590000033378601,
				0.6399999856948853,
				0.2199999988079071
			],
			"type":"VEC3"
		},
		{
			"bufferView":138,
			"componentType":5126,
			"count":496,
			"type":"VEC3"
		},
		{
			"bufferView":139,
			"componentType":5126,
			"count":496,
			"type":"VEC2"
		},
		{
			"bufferView":140,
			"componentType":5121,
			"count":496,
			"type":"VEC4"
		},
		{
			"bufferView":141,
			"componentType":5126,
			"count":496,
			"type":"VEC4"
		},
		{
			"bufferView":142,
			"componentType":5123,
			"count":672,
			"type":"SCALAR"
		},
		{
			"bufferView":143,
			"componentType":5126,
			"count":496,
			"max":[
				-1.350000023841858,
				0.8999999761581421,
				-0.2199999988079071
			],
			"min":[
				-1.590000033378601,
				0.6399999856948853,
				-0.47999998927116394
			],
			"type":"VEC3"
		},
		{
			"bufferView":144,
			"componentType":5126,
			"count":496,
			"type":"VEC3"
		},
		{
			"bufferView":145,
			"componentType":5126,
			"count":496,
			"type":"VEC2"
		},
		{
			"bufferView":146,
			"componentType":5121,
			"count":496,
			"type":"VEC4"
		},
		{
			"bufferView":147,
			"componentType":5126,
			"count":496,
			"type":"VEC4"
		},
		{
			"bufferView":148,
			"componentType":5123,
			"count":672,
			"type":"SCALAR"
		},
		{
			"bufferView":149,
			"componentType":5126,
			"count":48,
			"max":[
				-1.0139143466949463,
				0.42882266640663147,
				0.8498926758766174
			],
			"min":[
				-1.6359517574310303,
				0.07095663249492645,
				0.252587229013443
			],
			"type":"VEC3"
		},
		{
			"bufferView":150,
			"componentType":5126,
			"count":48,
			"type":"VEC3"
		},
		{
			"bufferView":151,
			"componentType":5126,
			"count":48,
			"type":"VEC2"
		},
		{
			"bufferView":152,
			"componentType":5121,
			"count":48,
			"type":"VEC4"
		},
		{
			"bufferView":153,
			"componentType":5126,
			"count":48,
			"type":"VEC4"
		},
		{
			"bufferView":154,
			"componentType":5126,
			"count":48,
			"max":[
				-1.0139143466949463,
				0.42882272601127625,
				-0.2525871992111206
			],
			"min":[
				-1.6359517574310303,
				0.07095657289028168,
				-0.8498927354812622
			],
			"type":"VEC3"
		},
		{
			"bufferView":155,
			"componentType":5126,
			"count":48,
			"type":"VEC3"
		},
		{
			"bufferView":156,
			"componentType":5126,
			"count":48,
			"type":"VEC2"
		},
		{
			"bufferView":157,
			"componentType":5121,
			"count":48,
			"type":"VEC4"
		},
		{
			"bufferView":158,
			"componentType":5126,
			"count":48,
			"type":"VEC4"
		},
		{
			"bufferView":159,
			"componentType":5126,
			"count":480,
			"max":[
				0.125,
				0.5,
				0.36000001430511475
			],
			"min":[
				-0.024999994784593582,
				0.1600000113248825,
				-0.36000001430511475
			],
			"type":"VEC3"
		},
		{
			"bufferView":160,
			"componentType":5126,
			"count":480,
			"type":"VEC3"
		},
		{
			"bufferView":161,
			"componentType":5126,
			"count":480,
			"type":"VEC2"
		},
		{
			"bufferView":162,
			"componentType":5121,
			"count":480,
			"type":"VEC4"
		},
		{
			"bufferView":163,
			"componentType":5126,
			"count":480,
			"type":"VEC4"
		},
		{
			"bufferView":164,
			"componentType":5123,
			"count":672,
			"type":"SCALAR"
		},
		{
			"bufferView":165,
			"componentType":5126,
			"count":480,
			"max":[
				0.4150000214576721,
				0.4649999737739563,
				0.328000009059906
			],
			"min":[
				0.26500001549720764,
				0.1249999850988388,
				-0.328000009059906
			],
			"type":"VEC3"
		},
		{
			"bufferView":166,
			"componentType":5126,
			"count":480,
			"type":"VEC3"
		},
		{
			"bufferView":167,
			"componentType":5126,
			"count":480,
			"type":"VEC2"
		},
		{
			"bufferView":168,
			"componentType":5121,
			"count":480,
			"type":"VEC4"
		},
		{
			"bufferView":169,
			"componentType":5126,
			"count":480,
			"type":"VEC4"
		},
		{
			"bufferView":170,
			"componentType":5123,
			"count":672,
			"type":"SCALAR"
		},
		{
			"bufferView":171,
			"componentType":5126,
			"count":480,
			"max":[
				0.7049999833106995,
				0.4300000071525574,
				0.29600000381469727
			],
			"min":[
				0.5550000071525574,
				0.08999998867511749,
				-0.29600000381469727
			],
			"type":"VEC3"
		},
		{
			"bufferView":172,
			"componentType":5126,
			"count":480,
			"type":"VEC3"
		},
		{
			"bufferView":173,
			"componentType":5126,
			"count":480,
			"type":"VEC2"
		},
		{
			"bufferView":174,
			"componentType":5121,
			"count":480,
			"type":"VEC4"
		},
		{
			"bufferView":175,
			"componentType":5126,
			"count":480,
			"type":"VEC4"
		},
		{
			"bufferView":176,
			"componentType":5123,
			"count":672,
			"type":"SCALAR"
		},
		{
			"bufferView":177,
			"componentType":5126,
			"count":486,
			"max":[
				0.9950000047683716,
				0.39499998092651367,
				0.2639999985694885
			],
			"min":[
				0.8450000286102295,
				0.05499999225139618,
				-0.2639999985694885
			],
			"type":"VEC3"
		},
		{
			"bufferView":178,
			"componentType":5126,
			"count":486,
			"type":"VEC3"
		},
		{
			"bufferView":179,
			"componentType":5126,
			"count":486,
			"type":"VEC2"
		},
		{
			"bufferView":180,
			"componentType":5121,
			"count":486,
			"type":"VEC4"
		},
		{
			"bufferView":181,
			"componentType":5126,
			"count":486,
			"type":"VEC4"
		},
		{
			"bufferView":182,
			"componentType":5123,
			"count":672,
			"type":"SCALAR"
		},
		{
			"bufferView":183,
			"componentType":5126,
			"count":484,
			"max":[
				1.2850000858306885,
				0.36000001430511475,
				0.23199999332427979
			],
			"min":[
				1.1349999904632568,
				0.019999995827674866,
				-0.23199999332427979
			],
			"type":"VEC3"
		},
		{
			"bufferView":184,
			"componentType":5126,
			"count":484,
			"type":"VEC3"
		},
		{
			"bufferView":185,
			"componentType":5126,
			"count":484,
			"type":"VEC2"
		},
		{
			"bufferView":186,
			"componentType":5121,
			"count":484,
			"type":"VEC4"
		},
		{
			"bufferView":187,
			"componentType":5126,
			"count":484,
			"type":"VEC4"
		},
		{
			"bufferView":188,
			"componentType":5123,
			"count":672,
			"type":"SCALAR"
		},
		{
			"bufferView":189,
			"componentType":5126,
			"count":480,
			"max":[
				1.5750000476837158,
				0.32499998807907104,
				0.20000000298023224
			],
			"min":[
				1.4249999523162842,
				-0.015000000596046448,
				-0.20000000298023224
			],
			"type":"VEC3"
		},
		{
			"bufferView":190,
			"componentType":5126,
			"count":480,
			"type":"VEC3"
		},
		{
			"bufferView":191,
			"componentType":5126,
			"count":480,
			"type":"VEC2"
		},
		{
			"bufferView":192,
			"componentType":5121,
			"count":480,
			"type":"VEC4"
		},
		{
			"bufferView":193,
			"componentType":5126,
			"count":480,
			"type":"VEC4"
		},
		{
			"bufferView":194,
			"componentType":5123,
			"count":672,
			"type":"SCALAR"
		},
		{
			"bufferView":195,
			"componentType":5126,
			"count":484,
			"max":[
				-1.25,
				0.10000000149011612,
				0.7900000214576721
			],
			"min":[
				-1.7100000381469727,
				-0.18000000715255737,
				0.5300000309944153
			],
			"type":"VEC3"
		},
		{
			"bufferView":196,
			"componentType":5126,
			"count":484,
			"type":"VEC3"
		},
		{
			"bufferView":197,
			"componentType":5126,
			"count":484,
			"type":"VEC2"
		},
		{
			"bufferView":198,
			"componentType":5121,
			"count":484,
			"type":"VEC4"
		},
		{
			"bufferView":199,
			"componentType":5126,
			"count":484,
			"type":"VEC4"
		},
		{
			"bufferView":200,
			"componentType":5123,
			"count":672,
			"type":"SCALAR"
		},
		{
			"bufferView":201,
			"componentType":5126,
			"count":484,
			"max":[
				-1.25,
				0.10000000149011612,
				-0.5300000309944153
			],
			"min":[
				-1.7100000381469727,
				-0.18000000715255737,
				-0.7900000214576721
			],
			"type":"VEC3"
		},
		{
			"bufferView":202,
			"componentType":5126,
			"count":484,
			"type":"VEC3"
		},
		{
			"bufferView":203,
			"componentType":5126,
			"count":484,
			"type":"VEC2"
		},
		{
			"bufferView":204,
			"componentType":5121,
			"count":484,
			"type":"VEC4"
		},
		{
			"bufferView":205,
			"componentType":5126,
			"count":484,
			"type":"VEC4"
		},
		{
			"bufferView":206,
			"componentType":5123,
			"count":672,
			"type":"SCALAR"
		},
		{
			"bufferView":207,
			"componentType":5126,
			"count":24,
			"max":[
				2.146338701248169,
				0.094403937458992,
				0.5910906195640564
			],
			"min":[
				1.3936612606048584,
				-0.11440394073724747,
				-0.001090644276700914
			],
			"type":"VEC3"
		},
		{
			"bufferView":208,
			"componentType":5126,
			"count":24,
			"type":"VEC3"
		},
		{
			"bufferView":209,
			"componentType":5121,
			"count":24,
			"type":"VEC4"
		},
		{
			"bufferView":210,
			"componentType":5126,
			"count":24,
			"type":"VEC4"
		},
		{
			"bufferView":211,
			"componentType":5123,
			"count":36,
			"type":"SCALAR"
		},
		{
			"bufferView":212,
			"componentType":5126,
			"count":24,
			"max":[
				2.146338701248169,
				0.094403937458992,
				0.001090644276700914
			],
			"min":[
				1.3936612606048584,
				-0.11440394073724747,
				-0.5910906195640564
			],
			"type":"VEC3"
		},
		{
			"bufferView":213,
			"componentType":5126,
			"count":24,
			"type":"VEC3"
		},
		{
			"bufferView":214,
			"componentType":5121,
			"count":24,
			"type":"VEC4"
		},
		{
			"bufferView":215,
			"componentType":5126,
			"count":24,
			"type":"VEC4"
		},
		{
			"bufferView":216,
			"componentType":5123,
			"count":36,
			"type":"SCALAR"
		},
		{
			"bufferView":217,
			"componentType":5126,
			"count":488,
			"max":[
				0.12999999523162842,
				0.6499999761581421,
				0.4300000071525574
			],
			"min":[
				-1.429999828338623,
				-0.15000000596046448,
				-0.4300000071525574
			],
			"type":"VEC3"
		},
		{
			"bufferView":218,
			"componentType":5126,
			"count":488,
			"type":"VEC3"
		},
		{
			"bufferView":219,
			"componentType":5126,
			"count":488,
			"type":"VEC2"
		},
		{
			"bufferView":220,
			"componentType":5121,
			"count":488,
			"type":"VEC4"
		},
		{
			"bufferView":221,
			"componentType":5126,
			"count":488,
			"type":"VEC4"
		},
		{
			"bufferView":222,
			"componentType":5123,
			"count":672,
			"type":"SCALAR"
		},
		{
			"bufferView":223,
			"componentType":5126,
			"count":39,
			"max":[
				-0.4901905357837677,
				0.12093909084796906,
				0.6616300940513611
			],
			"min":[
				-0.7583264708518982,
				-0.1318415254354477,
				0.2721898555755615
			],
			"type":"VEC3"
		},
		{
			"bufferView":224,
			"componentType":5126,
			"count":39,
			"type":"VEC3"
		},
		{
			"bufferView":225,
			"componentType":5126,
			"count":39,
			"type":"VEC2"
		},
		{
			"bufferView":226,
			"componentType":5121,
			"count":39,
			"type":"VEC4"
		},
		{
			"bufferView":227,
			"componentType":5126,
			"count":39,
			"type":"VEC4"
		},
		{
			"bufferView":228,
			"componentType":5123,
			"count":60,
			"type":"SCALAR"
		},
		{
			"bufferView":229,
			"componentType":5126,
			"count":38,
			"max":[
				-0.1501905471086502,
				0.12093909084796906,
				0.6616300940513611
			],
			"min":[
				-0.4183264374732971,
				-0.1318415105342865,
				0.2721898555755615
			],
			"type":"VEC3"
		},
		{
			"bufferView":230,
			"componentType":5126,
			"count":38,
			"type":"VEC3"
		},
		{
			"bufferView":231,
			"componentType":5126,
			"count":38,
			"type":"VEC2"
		},
		{
			"bufferView":232,
			"componentType":5121,
			"count":38,
			"type":"VEC4"
		},
		{
			"bufferView":233,
			"componentType":5126,
			"count":38,
			"type":"VEC4"
		},
		{
			"bufferView":234,
			"componentType":5123,
			"count":60,
			"type":"SCALAR"
		},
		{
			"bufferView":235,
			"componentType":5126,
			"count":38,
			"max":[
				0.18980945646762848,
				0.12093909084796906,
				0.6616300940513611
			],
			"min":[
				-0.07832643389701843,
				-0.1318415105342865,
				0.2721898555755615
			],
			"type":"VEC3"
		},
		{
			"bufferView":236,
			"componentType":5126,
			"count":38,
			"type":"VEC3"
		},
		{
			"bufferView":237,
			"componentType":5126,
			"count":38,
			"type":"VEC2"
		},
		{
			"bufferView":238,
			"componentType":5121,
			"count":38,
			"type":"VEC4"
		},
		{
			"bufferView":239,
			"componentType":5126,
			"count":38,
			"type":"VEC4"
		},
		{
			"bufferView":240,
			"componentType":5126,
			"count":36,
			"max":[
				0.5298094749450684,
				0.12093909084796906,
				0.6616300940513611
			],
			"min":[
				0.26167356967926025,
				-0.1318415105342865,
				0.2721898555755615
			],
			"type":"VEC3"
		},
		{
			"bufferView":241,
			"componentType":5126,
			"count":36,
			"type":"VEC3"
		},
		{
			"bufferView":242,
			"componentType":5126,
			"count":36,
			"type":"VEC2"
		},
		{
			"bufferView":243,
			"componentType":5121,
			"count":36,
			"type":"VEC4"
		},
		{
			"bufferView":244,
			"componentType":5126,
			"count":36,
			"type":"VEC4"
		},
		{
			"bufferView":245,
			"componentType":5126,
			"count":38,
			"max":[
				0.8698094487190247,
				0.12093909084796906,
				0.6616300940513611
			],
			"min":[
				0.6016736030578613,
				-0.1318415105342865,
				0.2721898555755615
			],
			"type":"VEC3"
		},
		{
			"bufferView":246,
			"componentType":5126,
			"count":38,
			"type":"VEC3"
		},
		{
			"bufferView":247,
			"componentType":5126,
			"count":38,
			"type":"VEC2"
		},
		{
			"bufferView":248,
			"componentType":5121,
			"count":38,
			"type":"VEC4"
		},
		{
			"bufferView":249,
			"componentType":5126,
			"count":38,
			"type":"VEC4"
		},
		{
			"bufferView":250,
			"componentType":5126,
			"count":36,
			"max":[
				-0.4901905059814453,
				0.12093912065029144,
				-0.2721898555755615
			],
			"min":[
				-0.758326530456543,
				-0.1318415403366089,
				-0.6616300940513611
			],
			"type":"VEC3"
		},
		{
			"bufferView":251,
			"componentType":5126,
			"count":36,
			"type":"VEC3"
		},
		{
			"bufferView":252,
			"componentType":5126,
			"count":36,
			"type":"VEC2"
		},
		{
			"bufferView":253,
			"componentType":5121,
			"count":36,
			"type":"VEC4"
		},
		{
			"bufferView":254,
			"componentType":5126,
			"count":36,
			"type":"VEC4"
		},
		{
			"bufferView":255,
			"componentType":5126,
			"count":36,
			"max":[
				-0.15019051730632782,
				0.1209392249584198,
				-0.2721898555755615
			],
			"min":[
				-0.4183264970779419,
				-0.13184164464473724,
				-0.6616301536560059
			],
			"type":"VEC3"
		},
		{
			"bufferView":256,
			"componentType":5126,
			"count":36,
			"type":"VEC3"
		},
		{
			"bufferView":257,
			"componentType":5126,
			"count":36,
			"type":"VEC2"
		},
		{
			"bufferView":258,
			"componentType":5121,
			"count":36,
			"type":"VEC4"
		},
		{
			"bufferView":259,
			"componentType":5126,
			"count":36,
			"type":"VEC4"
		},
		{
			"bufferView":260,
			"componentType":5126,
			"count":38,
			"max":[
				0.18980948626995087,
				0.1209392249584198,
				-0.2721898555755615
			],
			"min":[
				-0.07832647860050201,
				-0.13184164464473724,
				-0.6616301536560059
			],
			"type":"VEC3"
		},
		{
			"bufferView":261,
			"componentType":5126,
			"count":38,
			"type":"VEC3"
		},
		{
			"bufferView":262,
			"componentType":5126,
			"count":38,
			"type":"VEC2"
		},
		{
			"bufferView":263,
			"componentType":5121,
			"count":38,
			"type":"VEC4"
		},
		{
			"bufferView":264,
			"componentType":5126,
			"count":38,
			"type":"VEC4"
		},
		{
			"bufferView":265,
			"componentType":5123,
			"count":60,
			"type":"SCALAR"
		},
		{
			"bufferView":266,
			"componentType":5126,
			"count":36,
			"max":[
				0.5298094749450684,
				0.1209392249584198,
				-0.2721898555755615
			],
			"min":[
				0.2616735100746155,
				-0.13184164464473724,
				-0.6616301536560059
			],
			"type":"VEC3"
		},
		{
			"bufferView":267,
			"componentType":5126,
			"count":36,
			"type":"VEC3"
		},
		{
			"bufferView":268,
			"componentType":5126,
			"count":36,
			"type":"VEC2"
		},
		{
			"bufferView":269,
			"componentType":5121,
			"count":36,
			"type":"VEC4"
		},
		{
			"bufferView":270,
			"componentType":5126,
			"count":36,
			"type":"VEC4"
		},
		{
			"bufferView":271,
			"componentType":5126,
			"count":40,
			"max":[
				0.8698095083236694,
				0.1209392249584198,
				-0.2721898555755615
			],
			"min":[
				0.6016735434532166,
				-0.13184164464473724,
				-0.6616301536560059
			],
			"type":"VEC3"
		},
		{
			"bufferView":272,
			"componentType":5126,
			"count":40,
			"type":"VEC3"
		},
		{
			"bufferView":273,
			"componentType":5126,
			"count":40,
			"type":"VEC2"
		},
		{
			"bufferView":274,
			"componentType":5121,
			"count":40,
			"type":"VEC4"
		},
		{
			"bufferView":275,
			"componentType":5126,
			"count":40,
			"type":"VEC4"
		},
		{
			"bufferView":276,
			"componentType":5123,
			"count":60,
			"type":"SCALAR"
		},
		{
			"bufferView":277,
			"componentType":5126,
			"count":49,
			"max":[
				1.6333333333333333
			],
			"min":[
				0.03333333333333333
			],
			"type":"SCALAR"
		},
		{
			"bufferView":278,
			"componentType":5126,
			"count":49,
			"type":"VEC3"
		},
		{
			"bufferView":279,
			"componentType":5126,
			"count":2,
			"max":[
				1.6333333333333333
			],
			"min":[
				0.03333333333333333
			],
			"type":"SCALAR"
		},
		{
			"bufferView":280,
			"componentType":5126,
			"count":2,
			"type":"VEC4"
		},
		{
			"bufferView":281,
			"componentType":5126,
			"count":2,
			"type":"VEC3"
		},
		{
			"bufferView":282,
			"componentType":5126,
			"count":2,
			"type":"VEC3"
		},
		{
			"bufferView":283,
			"componentType":5126,
			"count":49,
			"type":"VEC4"
		},
		{
			"bufferView":284,
			"componentType":5126,
			"count":2,
			"type":"VEC3"
		},
		{
			"bufferView":285,
			"componentType":5126,
			"count":2,
			"type":"VEC3"
		},
		{
			"bufferView":286,
			"componentType":5126,
			"count":49,
			"type":"VEC4"
		},
		{
			"bufferView":287,
			"componentType":5126,
			"count":2,
			"type":"VEC3"
		},
		{
			"bufferView":288,
			"componentType":5126,
			"count":2,
			"type":"VEC3"
		},
		{
			"bufferView":289,
			"componentType":5126,
			"count":49,
			"type":"VEC4"
		},
		{
			"bufferView":290,
			"componentType":5126,
			"count":2,
			"type":"VEC3"
		},
		{
			"bufferView":291,
			"componentType":5126,
			"count":2,
			"type":"VEC3"
		},
		{
			"bufferView":292,
			"componentType":5126,
			"count":49,
			"type":"VEC4"
		},
		{
			"bufferView":293,
			"componentType":5126,
			"count":2,
			"type":"VEC3"
		},
		{
			"bufferView":294,
			"componentType":5126,
			"count":2,
			"type":"VEC3"
		},
		{
			"bufferView":295,
			"componentType":5126,
			"count":49,
			"type":"VEC4"
		},
		{
			"bufferView":296,
			"componentType":5126,
			"count":2,
			"type":"VEC3"
		},
		{
			"bufferView":297,
			"componentType":5126,
			"count":2,
			"type":"VEC3"
		},
		{
			"bufferView":298,
			"componentType":5126,
			"count":49,
			"type":"VEC4"
		},
		{
			"bufferView":299,
			"componentType":5126,
			"count":2,
			"type":"VEC3"
		},
		{
			"bufferView":300,
			"componentType":5126,
			"count":2,
			"type":"VEC3"
		},
		{
			"bufferView":301,
			"componentType":5126,
			"count":49,
			"type":"VEC4"
		},
		{
			"bufferView":302,
			"componentType":5126,
			"count":2,
			"type":"VEC3"
		},
		{
			"bufferView":303,
			"componentType":5126,
			"count":2,
			"type":"VEC3"
		},
		{
			"bufferView":304,
			"componentType":5126,
			"count":49,
			"type":"VEC4"
		},
		{
			"bufferView":305,
			"componentType":5126,
			"count":2,
			"type":"VEC3"
		},
		{
			"bufferView":306,
			"componentType":5126,
			"count":2,
			"type":"VEC3"
		},
		{
			"bufferView":307,
			"componentType":5126,
			"count":49,
			"type":"VEC4"
		},
		{
			"bufferView":308,
			"componentType":5126,
			"count":2,
			"type":"VEC3"
		},
		{
			"bufferView":309,
			"componentType":5126,
			"count":2,
			"type":"VEC3"
		},
		{
			"bufferView":310,
			"componentType":5126,
			"count":49,
			"type":"VEC4"
		},
		{
			"bufferView":311,
			"componentType":5126,
			"count":2,
			"type":"VEC3"
		},
		{
			"bufferView":312,
			"componentType":5126,
			"count":2,
			"type":"VEC3"
		},
		{
			"bufferView":313,
			"componentType":5126,
			"count":49,
			"type":"VEC4"
		},
		{
			"bufferView":314,
			"componentType":5126,
			"count":2,
			"type":"VEC3"
		},
		{
			"bufferView":315,
			"componentType":5126,
			"count":2,
			"type":"VEC3"
		},
		{
			"bufferView":316,
			"componentType":5126,
			"count":49,
			"type":"VEC4"
		},
		{
			"bufferView":317,
			"componentType":5126,
			"count":2,
			"type":"VEC3"
		}
	],
	"bufferViews":[
		{
			"buffer":0,
			"byteLength":5784,
			"byteOffset":0,
			"target":34962
		},
		{
			"buffer":0,
			"byteLength":5784,
			"byteOffset":5784,
			"target":34962
		},
		{
			"buffer":0,
			"byteLength":3856,
			"byteOffset":11568,
			"target":34962
		},
		{
			"buffer":0,
			"byteLength":1928,
			"byteOffset":15424,
			"target":34962
		},
		{
			"buffer":0,
			"byteLength":7712,
			"byteOffset":17352,
			"target":34962
		},
		{
			"buffer":0,
			"byteLength":1344,
			"byteOffset":25064,
			"target":34963
		},
		{
			"buffer":0,
			"byteLength":832,
			"byteOffset":26408
		},
		{
			"buffer":0,
			"byteLength":5760,
			"byteOffset":27240,
			"target":34962
		},
		{
			"buffer":0,
			"byteLength":5760,
			"byteOffset":33000,
			"target":34962
		},
		{
			"buffer":0,
			"byteLength":3840,
			"byteOffset":38760,
			"target":34962
		},
		{
			"buffer":0,
			"byteLength":1920,
			"byteOffset":42600,
			"target":34962
		},
		{
			"buffer":0,
			"byteLength":7680,
			"byteOffset":44520,
			"target":34962
		},
		{
			"buffer":0,
			"byteLength":1344,
			"byteOffset":52200,
			"target":34963
		},
		{
			"buffer":0,
			"byteLength":5784,
			"byteOffset":53544,
			"target":34962
		},
		{
			"buffer":0,
			"byteLength":5784,
			"byteOffset":59328,
			"target":34962
		},
		{
			"buffer":0,
			"byteLength":3856,
			"byteOffset":65112,
			"target":34962
		},
		{
			"buffer":0,
			"byteLength":1928,
			"byteOffset":68968,
			"target":34962
		},
		{
			"buffer":0,
			"byteLength":7712,
			"byteOffset":70896,
			"target":34962
		},
		{
			"buffer":0,
			"byteLength":1344,
			"byteOffset":78608,
			"target":34963
		},
		{
			"buffer":0,
			"byteLength":5760,
			"byteOffset":79952,
			"target":34962
		},
		{
			"buffer":0,
			"byteLength":5760,
			"byteOffset":85712,
			"target":34962
		},
		{
			"buffer":0,
			"byteLength":3840,
			"byteOffset":91472,
			"target":34962
		},
		{
			"buffer":0,
			"byteLength":1920,
			"byteOffset":95312,
			"target":34962
		},
		{
			"buffer":0,
			"byteLength":7680,
			"byteOffset":97232,
			"target":34962
		},
		{
			"buffer":0,
			"byteLength":1344,
			"byteOffset":104912,
			"target":34963
		},
		{
			"buffer":0,
			"byteLength":5856,
			"byteOffset":106256,
			"target":34962
		},
		{
			"buffer":0,
			"byteLength":5856,
			"byteOffset":112112,
			"target":34962
		},
		{
			"buffer":0,
			"byteLength":3904,
			"byteOffset":117968,
			"target":34962
		},
		{
			"buffer":0,
			"byteLength":1952,
			"byteOffset":121872,
			"target":34962
		},
		{
			"buffer":0,
			"byteLength":7808,
			"byteOffset":123824,
			"target":34962
		},
		{
			"buffer":0,
			"byteLength":1344,
			"byteOffset":131632,
			"target":34963
		},
		{
			"buffer":0,
			"byteLength":5976,
			"byteOffset":132976,
			"target":34962
		},
		{
			"buffer":0,
			"byteLength":5976,
			"byteOffset":138952,
			"target":34962
		},
		{
			"buffer":0,
			"byteLength":3984,
			"byteOffset":144928,
			"target":34962
		},
		{
			"buffer":0,
			"byteLength":1992,
			"byteOffset":148912,
			"target":34962
		},
		{
			"buffer":0,
			"byteLength":7968,
			"byteOffset":150904,
			"target":34962
		},
		{
			"buffer":0,
			"byteLength":1344,
			"byteOffset":158872,
			"target":34963
		},
		{
			"buffer":0,
			"byteLength":528,
			"byteOffset":160216,
			"target":34962
		},
		{
			"buffer":0,
			"byteLength":528,
			"byteOffset":160744,
			"target":34962
		},
		{
			"buffer":0,
			"byteLength":352,
			"byteOffset":161272,
			"target":34962
		},
		{
			"buffer":0,
			"byteLength":176,
			"byteOffset":161624,
			"target":34962
		},
		{
			"buffer":0,
			"byteLength":704,
			"byteOffset":161800,
			"target":34962
		},
		{
			"buffer":0,
			"byteLength":120,
			"byteOffset":162504,
			"target":34963
		},
		{
			"buffer":0,
			"byteLength":528,
			"byteOffset":162624,
			"target":34962
		},
		{
			"buffer":0,
			"byteLength":528,
			"byteOffset":163152,
			"target":34962
		},
		{
			"buffer":0,
			"byteLength":352,
			"byteOffset":163680,
			"target":34962
		},
		{
			"buffer":0,
			"byteLength":176,
			"byteOffset":164032,
			"target":34962
		},
		{
			"buffer":0,
			"byteLength":704,
			"byteOffset":164208,
			"target":34962
		},
		{
			"buffer":0,
			"byteLength":120,
			"byteOffset":164912,
			"target":34963
		},
		{
			"buffer":0,
			"byteLength":6264,
			"byteOffset":165032,
			"target":34962
		},
		{
			"buffer":0,
			"byteLength":6264,
			"byteOffset":171296,
			"target":34962
		},
		{
			"buffer":0,
			"byteLength":4176,
			"byteOffset":177560,
			"target":34962
		},
		{
			"buffer":0,
			"byteLength":2088,
			"byteOffset":181736,
			"target":34962
		},
		{
			"buffer":0,
			"byteLength":8352,
			"byteOffset":183824,
			"target":34962
		},
		{
			"buffer":0,
			"byteLength":1344,
			"byteOffset":192176,
			"target":34963
		},
		{
			"buffer":0,
			"byteLength":6288,
			"byteOffset":193520,
			"target":34962
		},
		{
			"buffer":0,
			"byteLength":6288,
			"byteOffset":199808,
			"target":34962
		},
		{
			"buffer":0,
			"byteLength":4192,
			"byteOffset":206096,
			"target":34962
		},
		{
			"buffer":0,
			"byteLength":2096,
			"byteOffset":210288,
			"target":34962
		},
		{
			"buffer":0,
			"byteLength":8384,
			"byteOffset":212384,
			"target":34962
		},
		{
			"buffer":0,
			"byteLength":1344,
			"byteOffset":220768,
			"target":34963
		},
		{
			"buffer":0,
			"byteLength":576,
			"byteOffset":222112,
			"target":34962
		},
		{
			"buffer":0,
			"byteLength":576,
			"byteOffset":222688,
			"target":34962
		},
		{
			"buffer":0,
			"byteLength":384,
			"byteOffset":223264,
			"target":34962
		},
		{
			"buffer":0,
			"byteLength":192,
			"byteOffset":223648,
			"target":34962
		},
		{
			"buffer":0,
			"byteLength":768,
			"byteOffset":223840,
			"target":34962
		},
		{
			"buffer":0,
			"byteLength":168,
			"byteOffset":224608,
			"target":34963
		},
		{
			"buffer":0,
			"byteLength":576,
			"byteOffset":224776,
			"target":34962
		},
		{
			"buffer":0,
			"byteLength":576,
			"byteOffset":225352,
			"target":34962
		},
		{
			"buffer":0,
			"byteLength":384,
			"byteOffset":225928,
			"target":34962
		},
		{
			"buffer":0,
			"byteLength":192,
			"byteOffset":226312,
			"target":34962
		},
		{
			"buffer":0,
			"byteLength":768,
			"byteOffset":226504,
			"target":34962
		},
		{
			"buffer":0,
			"byteLength":576,
			"byteOffset":227272,
			"target":34962
		},
		{
			"buffer":0,
			"byteLength":576,
			"byteOffset":227848,
			"target":34962
		},
		{
			"buffer":0,
			"byteLength":384,
			"byteOffset":228424,
			"target":34962
		},
		{
			"buffer":0,
			"byteLength":192,
			"byteOffset":228808,
			"target":34962
		},
		{
			"buffer":0,
			"byteLength":768,
			"byteOffset":229000,
			"target":34962
		},
		{
			"buffer":0,
			"byteLength":576,
			"byteOffset":229768,
			"target":34962
		},
		{
			"buffer":0,
			"byteLength":576,
			"byteOffset":230344,
			"target":34962
		},
		{
			"buffer":0,
			"byteLength":384,
			"byteOffset":230920,
			"target":34962
		},
		{
			"buffer":0,
			"byteLength":192,
			"byteOffset":231304,
			"target":34962
		},
		{
			"buffer":0,
			"byteLength":768,
			"byteOffset":231496,
			"target":34962
		},
		{
			"buffer":0,
			"byteLength":432,
			"byteOffset":232264,
			"target":34962
		},
		{
			"buffer":0,
			"byteLength":432,
			"byteOffset":232696,
			"target":34962
		},
		{
			"buffer":0,
			"byteLength":288,
			"byteOffset":233128,
			"target":34962
		},
		{
			"buffer":0,
			"byteLength":144,
			"byteOffset":233416,
			"target":34962
		},
		{
			"buffer":0,
			"byteLength":576,
			"byteOffset":233560,
			"target":34962
		},
		{
			"buffer":0,
			"byteLength":120,
			"byteOffset":234136,
			"target":34963
		},
		{
			"buffer":0,
			"byteLength":432,
			"byteOffset":234256,
			"target":34962
		},
		{
			"buffer":0,
			"byteLength":432,
			"byteOffset":234688,
			"target":34962
		},
		{
			"buffer":0,
			"byteLength":288,
			"byteOffset":235120,
			"target":34962
		},
		{
			"buffer":0,
			"byteLength":144,
			"byteOffset":235408,
			"target":34962
		},
		{
			"buffer":0,
			"byteLength":576,
			"byteOffset":235552,
			"target":34962
		},
		{
			"buffer":0,
			"byteLength":432,
			"byteOffset":236128,
			"target":34962
		},
		{
			"buffer":0,
			"byteLength":432,
			"byteOffset":236560,
			"target":34962
		},
		{
			"buffer":0,
			"byteLength":288,
			"byteOffset":236992,
			"target":34962
		},
		{
			"buffer":0,
			"byteLength":144,
			"byteOffset":237280,
			"target":34962
		},
		{
			"buffer":0,
			"byteLength":576,
			"byteOffset":237424,
			"target":34962
		},
		{
			"buffer":0,
			"byteLength":432,
			"byteOffset":238000,
			"target":34962
		},
		{
			"buffer":0,
			"byteLength":432,
			"byteOffset":238432,
			"target":34962
		},
		{
			"buffer":0,
			"byteLength":288,
			"byteOffset":238864,
			"target":34962
		},
		{
			"buffer":0,
			"byteLength":144,
			"byteOffset":239152,
			"target":34962
		},
		{
			"buffer":0,
			"byteLength":576,
			"byteOffset":239296,
			"target":34962
		},
		{
			"buffer":0,
			"byteLength":456,
			"byteOffset":239872,
			"target":34962
		},
		{
			"buffer":0,
			"byteLength":456,
			"byteOffset":240328,
			"target":34962
		},
		{
			"buffer":0,
			"byteLength":304,
			"byteOffset":240784,
			"target":34962
		},
		{
			"buffer":0,
			"byteLength":152,
			"byteOffset":241088,
			"target":34962
		},
		{
			"buffer":0,
			"byteLength":608,
			"byteOffset":241240,
			"target":34962
		},
		{
			"buffer":0,
			"byteLength":120,
			"byteOffset":241848,
			"target":34963
		},
		{
			"buffer":0,
			"byteLength":480,
			"byteOffset":241968,
			"target":34962
		},
		{
			"buffer":0,
			"byteLength":480,
			"byteOffset":242448,
			"target":34962
		},
		{
			"buffer":0,
			"byteLength":320,
			"byteOffset":242928,
			"target":34962
		},
		{
			"buffer":0,
			"byteLength":160,
			"byteOffset":243248,
			"target":34962
		},
		{
			"buffer":0,
			"byteLength":640,
			"byteOffset":243408,
			"target":34962
		},
		{
			"buffer":0,
			"byteLength":120,
			"byteOffset":244048,
			"target":34963
		},
		{
			"buffer":0,
			"byteLength":480,
			"byteOffset":244168,
			"target":34962
		},
		{
			"buffer":0,
			"byteLength":480,
			"byteOffset":244648,
			"target":34962
		},
		{
			"buffer":0,
			"byteLength":320,
			"byteOffset":245128,
			"target":34962
		},
		{
			"buffer":0,
			"byteLength":160,
			"byteOffset":245448,
			"target":34962
		},
		{
			"buffer":0,
			"byteLength":640,
			"byteOffset":245608,
			"target":34962
		},
		{
			"buffer":0,
			"byteLength":432,
			"byteOffset":246248,
			"target":34962
		},
		{
			"buffer":0,
			"byteLength":432,
			"byteOffset":246680,
			"target":34962
		},
		{
			"buffer":0,
			"byteLength":288,
			"byteOffset":247112,
			"target":34962
		},
		{
			"buffer":0,
			"byteLength":144,
			"byteOffset":247400,
			"target":34962
		},
		{
			"buffer":0,
			"byteLength":576,
			"byteOffset":247544,
			"target":34962
		},
		{
			"buffer":0,
			"byteLength":456,
			"byteOffset":248120,
			"target":34962
		},
		{
			"buffer":0,
			"byteLength":456,
			"byteOffset":248576,
			"target":34962
		},
		{
			"buffer":0,
			"byteLength":304,
			"byteOffset":249032,
			"target":34962
		},
		{
			"buffer":0,
			"byteLength":152,
			"byteOffset":249336,
			"target":34962
		},
		{
			"buffer":0,
			"byteLength":608,
			"byteOffset":249488,
			"target":34962
		},
		{
			"buffer":0,
			"byteLength":120,
			"byteOffset":250096,
			"target":34963
		},
		{
			"buffer":0,
			"byteLength":456,
			"byteOffset":250216,
			"target":34962
		},
		{
			"buffer":0,
			"byteLength":456,
			"byteOffset":250672,
			"target":34962
		},
		{
			"buffer":0,
			"byteLength":304,
			"byteOffset":251128,
			"target":34962
		},
		{
			"buffer":0,
			"byteLength":152,
			"byteOffset":251432,
			"target":34962
		},
		{
			"buffer":0,
			"byteLength":608,
			"byteOffset":251584,
			"target":34962
		},
		{
			"buffer":0,
			"byteLength":120,
			"byteOffset":252192,
			"target":34963
		},
		{
			"buffer":0,
			"byteLength":5952,
			"byteOffset":252312,
			"target":34962
		},
		{
			"buffer":0,
			"byteLength":5952,
			"byteOffset":258264,
			"target":34962
		},
		{
			"buffer":0,
			"byteLength":3968,
			"byteOffset":264216,
			"target":34962
		},
		{
			"buffer":0,
			"byteLength":1984,
			"byteOffset":268184,
			"target":34962
		},
		{
			"buffer":0,
			"byteLength":7936,
			"byteOffset":270168,
			"target":34962
		},
		{
			"buffer":0,
			"byteLength":1344,
			"byteOffset":278104,
			"target":34963
		},
		{
			"buffer":0,
			"byteLength":5952,
			"byteOffset":279448,
			"target":34962
		},
		{
			"buffer":0,
			"byteLength":5952,
			"byteOffset":285400,
			"target":34962
		},
		{
			"buffer":0,
			"byteLength":3968,
			"byteOffset":291352,
			"target":34962
		},
		{
			"buffer":0,
			"byteLength":1984,
			"byteOffset":295320,
			"target":34962
		},
		{
			"buffer":0,
			"byteLength":7936,
			"byteOffset":297304,
			"target":34962
		},
		{
			"buffer":0,
			"byteLength":1344,
			"byteOffset":305240,
			"target":34963
		},
		{
			"buffer":0,
			"byteLength":576,
			"byteOffset":306584,
			"target":34962
		},
		{
			"buffer":0,
			"byteLength":576,
			"byteOffset":307160,
			"target":34962
		},
		{
			"buffer":0,
			"byteLength":384,
			"byteOffset":307736,
			"target":34962
		},
		{
			"buffer":0,
			"byteLength":192,
			"byteOffset":308120,
			"target":34962
		},
		{
			"buffer":0,
			"byteLength":768,
			"byteOffset":308312,
			"target":34962
		},
		{
			"buffer":0,
			"byteLength":576,
			"byteOffset":309080,
			"target":34962
		},
		{
			"buffer":0,
			"byteLength":576,
			"byteOffset":309656,
			"target":34962
		},
		{
			"buffer":0,
			"byteLength":384,
			"byteOffset":310232,
			"target":34962
		},
		{
			"buffer":0,
			"byteLength":192,
			"byteOffset":310616,
			"target":34962
		},
		{
			"buffer":0,
			"byteLength":768,
			"byteOffset":310808,
			"target":34962
		},
		{
			"buffer":0,
			"byteLength":5760,
			"byteOffset":311576,
			"target":34962
		},
		{
			"buffer":0,
			"byteLength":5760,
			"byteOffset":317336,
			"target":34962
		},
		{
			"buffer":0,
			"byteLength":3840,
			"byteOffset":323096,
			"target":34962
		},
		{
			"buffer":0,
			"byteLength":1920,
			"byteOffset":326936,
			"target":34962
		},
		{
			"buffer":0,
			"byteLength":7680,
			"byteOffset":328856,
			"target":34962
		},
		{
			"buffer":0,
			"byteLength":1344,
			"byteOffset":336536,
			"target":34963
		},
		{
			"buffer":0,
			"byteLength":5760,
			"byteOffset":337880,
			"target":34962
		},
		{
			"buffer":0,
			"byteLength":5760,
			"byteOffset":343640,
			"target":34962
		},
		{
			"buffer":0,
			"byteLength":3840,
			"byteOffset":349400,
			"target":34962
		},
		{
			"buffer":0,
			"byteLength":1920,
			"byteOffset":353240,
			"target":34962
		},
		{
			"buffer":0,
			"byteLength":7680,
			"byteOffset":355160,
			"target":34962
		},
		{
			"buffer":0,
			"byteLength":1344,
			"byteOffset":362840,
			"target":34963
		},
		{
			"buffer":0,
			"byteLength":5760,
			"byteOffset":364184,
			"target":34962
		},
		{
			"buffer":0,
			"byteLength":5760,
			"byteOffset":369944,
			"target":34962
		},
		{
			"buffer":0,
			"byteLength":3840,
			"byteOffset":375704,
			"target":34962
		},
		{
			"buffer":0,
			"byteLength":1920,
			"byteOffset":379544,
			"target":34962
		},
		{
			"buffer":0,
			"byteLength":7680,
			"byteOffset":381464,
			"target":34962
		},
		{
			"buffer":0,
			"byteLength":1344,
			"byteOffset":389144,
			"target":34963
		},
		{
			"buffer":0,
			"byteLength":5832,
			"byteOffset":390488,
			"target":34962
		},
		{
			"buffer":0,
			"byteLength":5832,
			"byteOffset":396320,
			"target":34962
		},
		{
			"buffer":0,
			"byteLength":3888,
			"byteOffset":402152,
			"target":34962
		},
		{
			"buffer":0,
			"byteLength":1944,
			"byteOffset":406040,
			"target":34962
		},
		{
			"buffer":0,
			"byteLength":7776,
			"byteOffset":407984,
			"target":34962
		},
		{
			"buffer":0,
			"byteLength":1344,
			"byteOffset":415760,
			"target":34963
		},
		{
			"buffer":0,
			"byteLength":5808,
			"byteOffset":417104,
			"target":34962
		},
		{
			"buffer":0,
			"byteLength":5808,
			"byteOffset":422912,
			"target":34962
		},
		{
			"buffer":0,
			"byteLength":3872,
			"byteOffset":428720,
			"target":34962
		},
		{
			"buffer":0,
			"byteLength":1936,
			"byteOffset":432592,
			"target":34962
		},
		{
			"buffer":0,
			"byteLength":7744,
			"byteOffset":434528,
			"target":34962
		},
		{
			"buffer":0,
			"byteLength":1344,
			"byteOffset":442272,
			"target":34963
		},
		{
			"buffer":0,
			"byteLength":5760,
			"byteOffset":443616,
			"target":34962
		},
		{
			"buffer":0,
			"byteLength":5760,
			"byteOffset":449376,
			"target":34962
		},
		{
			"buffer":0,
			"byteLength":3840,
			"byteOffset":455136,
			"target":34962
		},
		{
			"buffer":0,
			"byteLength":1920,
			"byteOffset":458976,
			"target":34962
		},
		{
			"buffer":0,
			"byteLength":7680,
			"byteOffset":460896,
			"target":34962
		},
		{
			"buffer":0,
			"byteLength":1344,
			"byteOffset":468576,
			"target":34963
		},
		{
			"buffer":0,
			"byteLength":5808,
			"byteOffset":469920,
			"target":34962
		},
		{
			"buffer":0,
			"byteLength":5808,
			"byteOffset":475728,
			"target":34962
		},
		{
			"buffer":0,
			"byteLength":3872,
			"byteOffset":481536,
			"target":34962
		},
		{
			"buffer":0,
			"byteLength":1936,
			"byteOffset":485408,
			"target":34962
		},
		{
			"buffer":0,
			"byteLength":7744,
			"byteOffset":487344,
			"target":34962
		},
		{
			"buffer":0,
			"byteLength":1344,
			"byteOffset":495088,
			"target":34963
		},
		{
			"buffer":0,
			"byteLength":5808,
			"byteOffset":496432,
			"target":34962
		},
		{
			"buffer":0,
			"byteLength":5808,
			"byteOffset":502240,
			"target":34962
		},
		{
			"buffer":0,
			"byteLength":3872,
			"byteOffset":508048,
			"target":34962
		},
		{
			"buffer":0,
			"byteLength":1936,
			"byteOffset":511920,
			"target":34962
		},
		{
			"buffer":0,
			"byteLength":7744,
			"byteOffset":513856,
			"target":34962
		},
		{
			"buffer":0,
			"byteLength":1344,
			"byteOffset":521600,
			"target":34963
		},
		{
			"buffer":0,
			"byteLength":288,
			"byteOffset":522944,
			"target":34962
		},
		{
			"buffer":0,
			"byteLength":288,
			"byteOffset":523232,
			"target":34962
		},
		{
			"buffer":0,
			"byteLength":96,
			"byteOffset":523520,
			"target":34962
		},
		{
			"buffer":0,
			"byteLength":384,
			"byteOffset":523616,
			"target":34962
		},
		{
			"buffer":0,
			"byteLength":72,
			"byteOffset":524000,
			"target":34963
		},
		{
			"buffer":0,
			"byteLength":288,
			"byteOffset":524072,
			"target":34962
		},
		{
			"buffer":0,
			"byteLength":288,
			"byteOffset":524360,
			"target":34962
		},
		{
			"buffer":0,
			"byteLength":96,
			"byteOffset":524648,
			"target":34962
		},
		{
			"buffer":0,
			"byteLength":384,
			"byteOffset":524744,
			"target":34962
		},
		{
			"buffer":0,
			"byteLength":72,
			"byteOffset":525128,
			"target":34963
		},
		{
			"buffer":0,
			"byteLength":5856,
			"byteOffset":525200,
			"target":34962
		},
		{
			"buffer":0,
			"byteLength":5856,
			"byteOffset":531056,
			"target":34962
		},
		{
			"buffer":0,
			"byteLength":3904,
			"byteOffset":536912,
			"target":34962
		},
		{
			"buffer":0,
			"byteLength":1952,
			"byteOffset":540816,
			"target":34962
		},
		{
			"buffer":0,
			"byteLength":7808,
			"byteOffset":542768,
			"target":34962
		},
		{
			"buffer":0,
			"byteLength":1344,
			"byteOffset":550576,
			"target":34963
		},
		{
			"buffer":0,
			"byteLength":468,
			"byteOffset":551920,
			"target":34962
		},
		{
			"buffer":0,
			"byteLength":468,
			"byteOffset":552388,
			"target":34962
		},
		{
			"buffer":0,
			"byteLength":312,
			"byteOffset":552856,
			"target":34962
		},
		{
			"buffer":0,
			"byteLength":156,
			"byteOffset":553168,
			"target":34962
		},
		{
			"buffer":0,
			"byteLength":624,
			"byteOffset":553324,
			"target":34962
		},
		{
			"buffer":0,
			"byteLength":120,
			"byteOffset":553948,
			"target":34963
		},
		{
			"buffer":0,
			"byteLength":456,
			"byteOffset":554068,
			"target":34962
		},
		{
			"buffer":0,
			"byteLength":456,
			"byteOffset":554524,
			"target":34962
		},
		{
			"buffer":0,
			"byteLength":304,
			"byteOffset":554980,
			"target":34962
		},
		{
			"buffer":0,
			"byteLength":152,
			"byteOffset":555284,
			"target":34962
		},
		{
			"buffer":0,
			"byteLength":608,
			"byteOffset":555436,
			"target":34962
		},
		{
			"buffer":0,
			"byteLength":120,
			"byteOffset":556044,
			"target":34963
		},
		{
			"buffer":0,
			"byteLength":456,
			"byteOffset":556164,
			"target":34962
		},
		{
			"buffer":0,
			"byteLength":456,
			"byteOffset":556620,
			"target":34962
		},
		{
			"buffer":0,
			"byteLength":304,
			"byteOffset":557076,
			"target":34962
		},
		{
			"buffer":0,
			"byteLength":152,
			"byteOffset":557380,
			"target":34962
		},
		{
			"buffer":0,
			"byteLength":608,
			"byteOffset":557532,
			"target":34962
		},
		{
			"buffer":0,
			"byteLength":432,
			"byteOffset":558140,
			"target":34962
		},
		{
			"buffer":0,
			"byteLength":432,
			"byteOffset":558572,
			"target":34962
		},
		{
			"buffer":0,
			"byteLength":288,
			"byteOffset":559004,
			"target":34962
		},
		{
			"buffer":0,
			"byteLength":144,
			"byteOffset":559292,
			"target":34962
		},
		{
			"buffer":0,
			"byteLength":576,
			"byteOffset":559436,
			"target":34962
		},
		{
			"buffer":0,
			"byteLength":456,
			"byteOffset":560012,
			"target":34962
		},
		{
			"buffer":0,
			"byteLength":456,
			"byteOffset":560468,
			"target":34962
		},
		{
			"buffer":0,
			"byteLength":304,
			"byteOffset":560924,
			"target":34962
		},
		{
			"buffer":0,
			"byteLength":152,
			"byteOffset":561228,
			"target":34962
		},
		{
			"buffer":0,
			"byteLength":608,
			"byteOffset":561380,
			"target":34962
		},
		{
			"buffer":0,
			"byteLength":432,
			"byteOffset":561988,
			"target":34962
		},
		{
			"buffer":0,
			"byteLength":432,
			"byteOffset":562420,
			"target":34962
		},
		{
			"buffer":0,
			"byteLength":288,
			"byteOffset":562852,
			"target":34962
		},
		{
			"buffer":0,
			"byteLength":144,
			"byteOffset":563140,
			"target":34962
		},
		{
			"buffer":0,
			"byteLength":576,
			"byteOffset":563284,
			"target":34962
		},
		{
			"buffer":0,
			"byteLength":432,
			"byteOffset":563860,
			"target":34962
		},
		{
			"buffer":0,
			"byteLength":432,
			"byteOffset":564292,
			"target":34962
		},
		{
			"buffer":0,
			"byteLength":288,
			"byteOffset":564724,
			"target":34962
		},
		{
			"buffer":0,
			"byteLength":144,
			"byteOffset":565012,
			"target":34962
		},
		{
			"buffer":0,
			"byteLength":576,
			"byteOffset":565156,
			"target":34962
		},
		{
			"buffer":0,
			"byteLength":456,
			"byteOffset":565732,
			"target":34962
		},
		{
			"buffer":0,
			"byteLength":456,
			"byteOffset":566188,
			"target":34962
		},
		{
			"buffer":0,
			"byteLength":304,
			"byteOffset":566644,
			"target":34962
		},
		{
			"buffer":0,
			"byteLength":152,
			"byteOffset":566948,
			"target":34962
		},
		{
			"buffer":0,
			"byteLength":608,
			"byteOffset":567100,
			"target":34962
		},
		{
			"buffer":0,
			"byteLength":120,
			"byteOffset":567708,
			"target":34963
		},
		{
			"buffer":0,
			"byteLength":432,
			"byteOffset":567828,
			"target":34962
		},
		{
			"buffer":0,
			"byteLength":432,
			"byteOffset":568260,
			"target":34962
		},
		{
			"buffer":0,
			"byteLength":288,
			"byteOffset":568692,
			"target":34962
		},
		{
			"buffer":0,
			"byteLength":144,
			"byteOffset":568980,
			"target":34962
		},
		{
			"buffer":0,
			"byteLength":576,
			"byteOffset":569124,
			"target":34962
		},
		{
			"buffer":0,
			"byteLength":480,
			"byteOffset":569700,
			"target":34962
		},
		{
			"buffer":0,
			"byteLength":480,
			"byteOffset":570180,
			"target":34962
		},
		{
			"buffer":0,
			"byteLength":320,
			"byteOffset":570660,
			"target":34962
		},
		{
			"buffer":0,
			"byteLength":160,
			"byteOffset":570980,
			"target":34962
		},
		{
			"buffer":0,
			"byteLength":640,
			"byteOffset":571140,
			"target":34962
		},
		{
			"buffer":0,
			"byteLength":120,
			"byteOffset":571780,
			"target":34963
		},
		{
			"buffer":0,
			"byteLength":196,
			"byteOffset":571900
		},
		{
			"buffer":0,
			"byteLength":588,
			"byteOffset":572096
		},
		{
			"buffer":0,
			"byteLength":8,
			"byteOffset":572684
		},
		{
			"buffer":0,
			"byteLength":32,
			"byteOffset":572692
		},
		{
			"buffer":0,
			"byteLength":24,
			"byteOffset":572724
		},
		{
			"buffer":0,
			"byteLength":24,
			"byteOffset":572748
		},
		{
			"buffer":0,
			"byteLength":784,
			"byteOffset":572772
		},
		{
			"buffer":0,
			"byteLength":24,
			"byteOffset":573556
		},
		{
			"buffer":0,
			"byteLength":24,
			"byteOffset":573580
		},
		{
			"buffer":0,
			"byteLength":784,
			"byteOffset":573604
		},
		{
			"buffer":0,
			"byteLength":24,
			"byteOffset":574388
		},
		{
			"buffer":0,
			"byteLength":24,
			"byteOffset":574412
		},
		{
			"buffer":0,
			"byteLength":784,
			"byteOffset":574436
		},
		{
			"buffer":0,
			"byteLength":24,
			"byteOffset":575220
		},
		{
			"buffer":0,
			"byteLength":24,
			"byteOffset":575244
		},
		{
			"buffer":0,
			"byteLength":784,
			"byteOffset":575268
		},
		{
			"buffer":0,
			"byteLength":24,
			"byteOffset":576052
		},
		{
			"buffer":0,
			"byteLength":24,
			"byteOffset":576076
		},
		{
			"buffer":0,
			"byteLength":784,
			"byteOffset":576100
		},
		{
			"buffer":0,
			"byteLength":24,
			"byteOffset":576884
		},
		{
			"buffer":0,
			"byteLength":24,
			"byteOffset":576908
		},
		{
			"buffer":0,
			"byteLength":784,
			"byteOffset":576932
		},
		{
			"buffer":0,
			"byteLength":24,
			"byteOffset":577716
		},
		{
			"buffer":0,
			"byteLength":24,
			"byteOffset":577740
		},
		{
			"buffer":0,
			"byteLength":784,
			"byteOffset":577764
		},
		{
			"buffer":0,
			"byteLength":24,
			"byteOffset":578548
		},
		{
			"buffer":0,
			"byteLength":24,
			"byteOffset":578572
		},
		{
			"buffer":0,
			"byteLength":784,
			"byteOffset":578596
		},
		{
			"buffer":0,
			"byteLength":24,
			"byteOffset":579380
		},
		{
			"buffer":0,
			"byteLength":24,
			"byteOffset":579404
		},
		{
			"buffer":0,
			"byteLength":784,
			"byteOffset":579428
		},
		{
			"buffer":0,
			"byteLength":24,
			"byteOffset":580212
		},
		{
			"buffer":0,
			"byteLength":24,
			"byteOffset":580236
		},
		{
			"buffer":0,
			"byteLength":784,
			"byteOffset":580260
		},
		{
			"buffer":0,
			"byteLength":24,
			"byteOffset":581044
		},
		{
			"buffer":0,
			"byteLength":24,
			"byteOffset":581068
		},
		{
			"buffer":0,
			"byteLength":784,
			"byteOffset":581092
		},
		{
			"buffer":0,
			"byteLength":24,
			"byteOffset":581876
		},
		{
			"buffer":0,
			"byteLength":24,
			"byteOffset":581900
		},
		{
			"buffer":0,
			"byteLength":784,
			"byteOffset":581924
		},
		{
			"buffer":0,
			"byteLength":24,
			"byteOffset":582708
		}
	],
	"buffers":[
		{
			"byteLength":582732,
			"uri":"mantis_shrimp.bin"
		}
	]
}
