{
	"asset":{
		"generator":"Khronos glTF Blender I/O v4.4.56",
		"version":"2.0"
	},
	"scene":0,
	"scenes":[
		{
			"name":"Scene",
			"nodes":[
				0,
				1
			]
		}
	],
	"nodes":[
		{
			"mesh":0,
			"name":"\u5186\u67f1",
			"scale":[
				1,
				0.5050148367881775,
				1
			]
		},
		{
			"mesh":1,
			"name":"\u7acb\u65b9\u4f53",
			"rotation":[
				0,
				0.9998188614845276,
				0,
				0.019032089039683342
			],
			"scale":[
				0.35241028666496277,
				0.02830110862851143,
				0.35241028666496277
			],
			"translation":[
				0.21366025507450104,
				0.4746628403663635,
				-0.022218383848667145
			]
		}
	],
	"materials":[
		{
			"doubleSided":true,
			"name":"\u30de\u30c6\u30ea\u30a2\u30eb",
			"pbrMetallicRoughness":{
				"baseColorTexture":{
					"index":0
				},
				"metallicFactor":0,
				"roughnessFactor":0.5
			}
		},
		{
			"doubleSided":true,
			"name":"\u30de\u30c6\u30ea\u30a2\u30eb.001",
			"pbrMetallicRoughness":{
				"baseColorTexture":{
					"index":1
				},
				"metallicFactor":0,
				"roughnessFactor":0.5
			}
		}
	],
	"meshes":[
		{
			"name":"\u5186\u67f1",
			"primitives":[
				{
					"attributes":{
						"POSITION":0,
						"NORMAL":1,
						"TEXCOORD_0":2
					},
					"indices":3,
					"material":0
				}
			]
		},
		{
			"name":"\u7acb\u65b9\u4f53",
			"primitives":[
				{
					"attributes":{
						"POSITION":4,
						"NORMAL":5,
						"TEXCOORD_0":6
					},
					"indices":7,
					"material":1
				}
			]
		}
	],
	"textures":[
		{
			"sampler":0,
			"source":0
		},
		{
			"sampler":0,
			"source":1
		}
	],
	"images":[
		{
			"mimeType":"image/png",
			"name":"tunaCan",
			"uri":"tunaCan.png"
		},
		{
			"mimeType":"image/png",
			"name":"tuna",
			"uri":"tuna.png"
		}
	],
	"accessors":[
		{
			"bufferView":0,
			"componentType":5126,
			"count":226,
			"max":[
				1,
				1,
				1
			],
			"min":[
				-1,
				-1,
				-1
			],
			"type":"VEC3"
		},
		{
			"bufferView":1,
			"componentType":5126,
			"count":226,
			"type":"VEC3"
		},
		{
			"bufferView":2,
			"componentType":5126,
			"count":226,
			"type":"VEC2"
		},
		{
			"bufferView":3,
			"componentType":5123,
			"count":756,
			"type":"SCALAR"
		},
		{
			"bufferView":4,
			"componentType":5126,
			"count":538,
			"max":[
				3.2217559814453125,
				1,
				2.5322370529174805
			],
			"min":[
				-2.0148677825927734,
				-25.796052932739258,
				-2.7043867111206055
			],
			"type":"VEC3"
		},
		{
			"bufferView":5,
			"componentType":5126,
			"count":538,
			"type":"VEC3"
		},
		{
			"bufferView":6,
			"componentType":5126,
			"count":538,
			"type":"VEC2"
		},
		{
			"bufferView":7,
			"componentType":5123,
			"count":1476,
			"type":"SCALAR"
		}
	],
	"bufferViews":[
		{
			"buffer":0,
			"byteLength":2712,
			"byteOffset":0,
			"target":34962
		},
		{
			"buffer":0,
			"byteLength":2712,
			"byteOffset":2712,
			"target":34962
		},
		{
			"buffer":0,
			"byteLength":1808,
			"byteOffset":5424,
			"target":34962
		},
		{
			"buffer":0,
			"byteLength":1512,
			"byteOffset":7232,
			"target":34963
		},
		{
			"buffer":0,
			"byteLength":6456,
			"byteOffset":8744,
			"target":34962
		},
		{
			"buffer":0,
			"byteLength":6456,
			"byteOffset":15200,
			"target":34962
		},
		{
			"buffer":0,
			"byteLength":4304,
			"byteOffset":21656,
			"target":34962
		},
		{
			"buffer":0,
			"byteLength":2952,
			"byteOffset":25960,
			"target":34963
		}
	],
	"samplers":[
		{
			"magFilter":9729,
			"minFilter":9987
		}
	],
	"buffers":[
		{
			"byteLength":28912,
			"uri":"tunaCan.bin"
		}
	]
}
