{
	"asset":{
		"generator":"Khronos glTF Blender I/O v4.4.56",
		"version":"2.0"
	},
	"scene":0,
	"scenes":[
		{
			"name":"Scene",
			"nodes":[
				0,
				1,
				2,
				3,
				4,
				5,
				6,
				7,
				8,
				9,
				10,
				11,
				12,
				13,
				14
			]
		}
	],
	"nodes":[
		{
			"mesh":0,
			"name":"shell_1",
			"rotation":[
				0,
				1,
				0,
				0
			],
			"scale":[
				-0.40832284092903137,
				-0.011803393252193928,
				-0.3804807662963867
			],
			"translation":[
				-0.04728814959526062,
				0.35740312933921814,
				1.2983784675598145
			]
		},
		{
			"mesh":1,
			"name":"shell_2",
			"rotation":[
				0,
				1,
				0,
				0
			],
			"scale":[
				-0.40832284092903137,
				-0.011803393252193928,
				-0.3804807662963867
			],
			"translation":[
				-0.039601653814315796,
				0.35740312933921814,
				2.007298707962036
			]
		},
		{
			"mesh":2,
			"name":"shell_3",
			"rotation":[
				0,
				1,
				0,
				0
			],
			"scale":[
				-0.40832284092903137,
				-0.011803393252193928,
				-0.3804807662963867
			],
			"translation":[
				-0.039601653814315796,
				0.35740312933921814,
				2.6844992637634277
			]
		},
		{
			"mesh":3,
			"name":"shell_4",
			"rotation":[
				0,
				1,
				0,
				0
			],
			"scale":[
				-0.40832284092903137,
				-0.011803393252193928,
				-0.3804807662963867
			],
			"translation":[
				-0.039601653814315796,
				0.35740312933921814,
				3.3472442626953125
			]
		},
		{
			"mesh":4,
			"name":"body",
			"rotation":[
				0.9998412728309631,
				-0.0178181491792202,
				0,
				0
			],
			"scale":[
				-0.3573458790779114,
				-0.01246647909283638,
				-1.4063607454299927
			],
			"translation":[
				-0.039601653814315796,
				-0.3064603805541992,
				2.321460247039795
			]
		},
		{
			"mesh":5,
			"name":"head",
			"rotation":[
				0.7071068286895752,
				0,
				0,
				0.7071068286895752
			],
			"scale":[
				0.3397689461708069,
				0.4675106406211853,
				0.45059630274772644
			],
			"translation":[
				-0.030697166919708252,
				0,
				0.48811519145965576
			]
		},
		{
			"mesh":6,
			"name":"eye_all",
			"scale":[
				0.07670480012893677,
				0.07670480012893677,
				0.07670480012893677
			],
			"translation":[
				0.10148918628692627,
				0.2641300857067108,
				-0.47847768664360046
			]
		},
		{
			"mesh":7,
			"name":"Bacl_Leg_ALL",
			"rotation":[
				-0.2641340494155884,
				0.03460884839296341,
				-0.1252225637435913,
				0.9556960463523865
			],
			"scale":[
				0.02857610397040844,
				0.25755807757377625,
				0.062052201479673386
			],
			"translation":[
				-0.2892736792564392,
				-0.4190213084220886,
				1.7988250255584717
			]
		},
		{
			"mesh":8,
			"name":"flont_Leg_Left_\"",
			"rotation":[
				0.5581052899360657,
				-0.07312719523906708,
				-0.10738188773393631,
				0.8195365071296692
			],
			"scale":[
				0.025055889040231705,
				0.28490352630615234,
				0.05143418908119202
			],
			"translation":[
				-0.2684287428855896,
				-0.29652857780456543,
				0.4671013355255127
			]
		},
		{
			"mesh":9,
			"name":"front_Leg_Right_2",
			"rotation":[
				0.5523424744606018,
				0.1083831787109375,
				0.15915271639823914,
				0.8110741972923279
			],
			"scale":[
				0.025055887177586555,
				0.28490352630615234,
				0.05143418908119202
			],
			"translation":[
				0.16877537965774536,
				-0.2929190695285797,
				0.4671013355255127
			]
		},
		{
			"mesh":10,
			"name":"front_Leg_Right",
			"rotation":[
				0.5523424744606018,
				0.1083831787109375,
				0.15915271639823914,
				0.8110741972923279
			],
			"scale":[
				0.025055887177586555,
				0.28490352630615234,
				0.05143418908119202
			],
			"translation":[
				0.07487165927886963,
				-0.4263286292552948,
				0.20679938793182373
			]
		},
		{
			"mesh":11,
			"name":"frontLeg_Left",
			"rotation":[
				0.5581052899360657,
				-0.07312719523906708,
				-0.10738188773393631,
				0.8195365071296692
			],
			"scale":[
				0.025055889040231705,
				0.28490352630615234,
				0.05143418908119202
			],
			"translation":[
				-0.1679629683494568,
				-0.41442224383354187,
				0.20679938793182373
			]
		},
		{
			"mesh":12,
			"name":"beaed_1",
			"rotation":[
				0.6293448805809021,
				0.09222501516342163,
				0.16902971267700195,
				0.7528934478759766
			],
			"scale":[
				0.018201269209384918,
				0.20696158707141876,
				0.03736317530274391
			],
			"translation":[
				0.21816807985305786,
				0.08528551459312439,
				-0.7001115083694458
			]
		},
		{
			"mesh":13,
			"name":"beard_2",
			"rotation":[
				0.6442152857780457,
				0.17520549893379211,
				0.09814607352018356,
				0.7380089163780212
			],
			"scale":[
				0.018201269209384918,
				0.20696158707141876,
				0.03736317530274391
			],
			"translation":[
				-0.23542237281799316,
				0.08528551459312439,
				-0.7001115083694458
			]
		},
		{
			"mesh":14,
			"name":"tail",
			"rotation":[
				0.35745713114738464,
				0.0713081806898117,
				0.027384532615542412,
				0.9308005571365356
			],
			"scale":[
				-0.46256378293037415,
				-0.025120658800005913,
				-0.462563693523407
			],
			"translation":[
				0.26657652854919434,
				-0.1787635087966919,
				4.766837120056152
			]
		}
	],
	"materials":[
		{
			"doubleSided":true,
			"name":"Material",
			"pbrMetallicRoughness":{
				"baseColorFactor":[
					0.25015705823898315,
					0,
					0.001517640077508986,
					1
				],
				"metallicFactor":0,
				"roughnessFactor":0.5
			}
		},
		{
			"doubleSided":true,
			"name":"Material.001",
			"pbrMetallicRoughness":{
				"baseColorFactor":[
					0.25015705823898315,
					0,
					0.001517640077508986,
					1
				],
				"metallicFactor":0,
				"roughnessFactor":0.5
			}
		},
		{
			"doubleSided":true,
			"name":"Material.002",
			"pbrMetallicRoughness":{
				"baseColorFactor":[
					0.25015705823898315,
					0,
					0.001517640077508986,
					1
				],
				"metallicFactor":0,
				"roughnessFactor":0.5
			}
		},
		{
			"doubleSided":true,
			"name":"Material.003",
			"pbrMetallicRoughness":{
				"baseColorFactor":[
					0.25015705823898315,
					0,
					0.001517640077508986,
					1
				],
				"metallicFactor":0,
				"roughnessFactor":0.5
			}
		},
		{
			"doubleSided":true,
			"name":"Material.004",
			"pbrMetallicRoughness":{
				"baseColorFactor":[
					0.25015705823898315,
					0,
					0.001517640077508986,
					1
				],
				"metallicFactor":0,
				"roughnessFactor":0.5
			}
		},
		{
			"doubleSided":true,
			"name":"\u30de\u30c6\u30ea\u30a2\u30eb.001",
			"pbrMetallicRoughness":{
				"baseColorFactor":[
					0.25015705823898315,
					0,
					0.001517640077508986,
					1
				],
				"metallicFactor":0,
				"roughnessFactor":0.5
			}
		},
		{
			"doubleSided":true,
			"name":"\u30de\u30c6\u30ea\u30a2\u30eb.012",
			"pbrMetallicRoughness":{
				"baseColorFactor":[
					0,
					0,
					0,
					1
				],
				"metallicFactor":0,
				"roughnessFactor":0.5
			}
		},
		{
			"doubleSided":true,
			"name":"\u30de\u30c6\u30ea\u30a2\u30eb.010",
			"pbrMetallicRoughness":{
				"baseColorFactor":[
					0.25015705823898315,
					0,
					0.001517640077508986,
					1
				],
				"metallicFactor":0,
				"roughnessFactor":0.5
			}
		},
		{
			"doubleSided":true,
			"name":"\u30de\u30c6\u30ea\u30a2\u30eb.011",
			"pbrMetallicRoughness":{
				"baseColorFactor":[
					0.25015705823898315,
					0,
					0.001517640077508986,
					1
				],
				"metallicFactor":0,
				"roughnessFactor":0.5
			}
		},
		{
			"doubleSided":true,
			"name":"\u30de\u30c6\u30ea\u30a2\u30eb.008",
			"pbrMetallicRoughness":{
				"baseColorFactor":[
					0.25015705823898315,
					0,
					0.001517640077508986,
					1
				],
				"metallicFactor":0,
				"roughnessFactor":0.5
			}
		},
		{
			"doubleSided":true,
			"name":"\u30de\u30c6\u30ea\u30a2\u30eb.007",
			"pbrMetallicRoughness":{
				"baseColorFactor":[
					0.25015705823898315,
					0,
					0.001517640077508986,
					1
				],
				"metallicFactor":0,
				"roughnessFactor":0.5
			}
		},
		{
			"doubleSided":true,
			"name":"\u30de\u30c6\u30ea\u30a2\u30eb.004",
			"pbrMetallicRoughness":{
				"baseColorFactor":[
					0.25015705823898315,
					0,
					0.001517640077508986,
					1
				],
				"metallicFactor":0,
				"roughnessFactor":0.5
			}
		},
		{
			"doubleSided":true,
			"name":"\u30de\u30c6\u30ea\u30a2\u30eb.005",
			"pbrMetallicRoughness":{
				"baseColorFactor":[
					0.30390986800193787,
					0,
					0.0016588966827839613,
					1
				],
				"metallicFactor":0,
				"roughnessFactor":0.5
			}
		},
		{
			"doubleSided":true,
			"name":"\u30de\u30c6\u30ea\u30a2\u30eb.003",
			"pbrMetallicRoughness":{
				"baseColorFactor":[
					0.25015705823898315,
					0,
					0.001517640077508986,
					1
				],
				"metallicFactor":0,
				"roughnessFactor":0.5
			}
		},
		{
			"doubleSided":true,
			"name":"\u30de\u30c6\u30ea\u30a2\u30eb.002",
			"pbrMetallicRoughness":{
				"baseColorFactor":[
					0.25015705823898315,
					0,
					0.001517640077508986,
					1
				],
				"metallicFactor":0,
				"roughnessFactor":0.5
			}
		},
		{
			"doubleSided":true,
			"name":"\u30de\u30c6\u30ea\u30a2\u30eb.006",
			"pbrMetallicRoughness":{
				"baseColorFactor":[
					0.25015705823898315,
					0,
					0.001517640077508986,
					1
				],
				"metallicFactor":0,
				"roughnessFactor":0.5
			}
		},
		{
			"doubleSided":true,
			"name":"\u30de\u30c6\u30ea\u30a2\u30eb",
			"pbrMetallicRoughness":{
				"baseColorFactor":[
					0.25015705823898315,
					0,
					0.001517640077508986,
					1
				],
				"metallicFactor":0,
				"roughnessFactor":0.5
			}
		}
	],
	"meshes":[
		{
			"name":"Cube",
			"primitives":[
				{
					"attributes":{
						"POSITION":0,
						"NORMAL":1,
						"TEXCOORD_0":2
					},
					"indices":3,
					"material":0
				}
			]
		},
		{
			"name":"Cube.001",
			"primitives":[
				{
					"attributes":{
						"POSITION":4,
						"NORMAL":5,
						"TEXCOORD_0":6
					},
					"indices":7,
					"material":1
				}
			]
		},
		{
			"name":"Cube.002",
			"primitives":[
				{
					"attributes":{
						"POSITION":8,
						"NORMAL":9,
						"TEXCOORD_0":10
					},
					"indices":11,
					"material":2
				}
			]
		},
		{
			"name":"Cube.003",
			"primitives":[
				{
					"attributes":{
						"POSITION":12,
						"NORMAL":13,
						"TEXCOORD_0":14
					},
					"indices":15,
					"material":3
				}
			]
		},
		{
			"name":"Cube.004",
			"primitives":[
				{
					"attributes":{
						"POSITION":16,
						"NORMAL":17,
						"TEXCOORD_0":18
					},
					"indices":19,
					"material":4
				}
			]
		},
		{
			"name":"\u5186\u67f1",
			"primitives":[
				{
					"attributes":{
						"POSITION":20,
						"NORMAL":21,
						"TEXCOORD_0":22
					},
					"indices":23,
					"material":5
				}
			]
		},
		{
			"name":"ICO\u7403.001",
			"primitives":[
				{
					"attributes":{
						"POSITION":24,
						"NORMAL":25,
						"TEXCOORD_0":26
					},
					"indices":27,
					"material":6
				}
			]
		},
		{
			"name":"\u5186\u67f1.004",
			"primitives":[
				{
					"attributes":{
						"POSITION":28,
						"NORMAL":29,
						"TEXCOORD_0":30
					},
					"indices":31,
					"material":7
				},
				{
					"attributes":{
						"POSITION":32,
						"NORMAL":33,
						"TEXCOORD_0":34
					},
					"indices":35,
					"material":8
				}
			]
		},
		{
			"name":"\u5186\u67f1.010",
			"primitives":[
				{
					"attributes":{
						"POSITION":36,
						"NORMAL":37,
						"TEXCOORD_0":38
					},
					"indices":39,
					"material":9
				}
			]
		},
		{
			"name":"\u5186\u67f1.011",
			"primitives":[
				{
					"attributes":{
						"POSITION":40,
						"NORMAL":41,
						"TEXCOORD_0":42
					},
					"indices":43,
					"material":10
				}
			]
		},
		{
			"name":"\u5186\u67f1.012",
			"primitives":[
				{
					"attributes":{
						"POSITION":44,
						"NORMAL":45,
						"TEXCOORD_0":46
					},
					"indices":43,
					"material":11
				}
			]
		},
		{
			"name":"\u5186\u67f1.013",
			"primitives":[
				{
					"attributes":{
						"POSITION":47,
						"NORMAL":48,
						"TEXCOORD_0":49
					},
					"indices":39,
					"material":12
				}
			]
		},
		{
			"name":"\u5186\u67f1.014",
			"primitives":[
				{
					"attributes":{
						"POSITION":50,
						"NORMAL":51,
						"TEXCOORD_0":52
					},
					"indices":53,
					"material":13
				}
			]
		},
		{
			"name":"\u5186\u67f1.015",
			"primitives":[
				{
					"attributes":{
						"POSITION":54,
						"NORMAL":55,
						"TEXCOORD_0":56
					},
					"indices":57,
					"material":14
				}
			]
		},
		{
			"name":"\u7acb\u65b9\u4f53",
			"primitives":[
				{
					"attributes":{
						"POSITION":58,
						"NORMAL":59,
						"TEXCOORD_0":60
					},
					"indices":61,
					"material":15
				},
				{
					"attributes":{
						"POSITION":62,
						"NORMAL":63,
						"TEXCOORD_0":64
					},
					"indices":65,
					"material":16
				}
			]
		}
	],
	"accessors":[
		{
			"bufferView":0,
			"componentType":5126,
			"count":196,
			"max":[
				1,
				33.89482879638672,
				1
			],
			"min":[
				-1,
				-9.347966194152832,
				-1
			],
			"type":"VEC3"
		},
		{
			"bufferView":1,
			"componentType":5126,
			"count":196,
			"type":"VEC3"
		},
		{
			"bufferView":2,
			"componentType":5126,
			"count":196,
			"type":"VEC2"
		},
		{
			"bufferView":3,
			"componentType":5123,
			"count":348,
			"type":"SCALAR"
		},
		{
			"bufferView":4,
			"componentType":5126,
			"count":196,
			"max":[
				1,
				33.89482879638672,
				1
			],
			"min":[
				-1,
				-9.651078224182129,
				-1
			],
			"type":"VEC3"
		},
		{
			"bufferView":5,
			"componentType":5126,
			"count":196,
			"type":"VEC3"
		},
		{
			"bufferView":6,
			"componentType":5126,
			"count":196,
			"type":"VEC2"
		},
		{
			"bufferView":7,
			"componentType":5123,
			"count":348,
			"type":"SCALAR"
		},
		{
			"bufferView":8,
			"componentType":5126,
			"count":196,
			"max":[
				1,
				33.89482879638672,
				1
			],
			"min":[
				-1,
				-10.834712982177734,
				-1
			],
			"type":"VEC3"
		},
		{
			"bufferView":9,
			"componentType":5126,
			"count":196,
			"type":"VEC3"
		},
		{
			"bufferView":10,
			"componentType":5126,
			"count":196,
			"type":"VEC2"
		},
		{
			"bufferView":11,
			"componentType":5123,
			"count":348,
			"type":"SCALAR"
		},
		{
			"bufferView":12,
			"componentType":5126,
			"count":660,
			"max":[
				1,
				50.15453338623047,
				3.907835006713867
			],
			"min":[
				-1,
				-9.258787155151367,
				-1
			],
			"type":"VEC3"
		},
		{
			"bufferView":13,
			"componentType":5126,
			"count":660,
			"type":"VEC3"
		},
		{
			"bufferView":14,
			"componentType":5126,
			"count":660,
			"type":"VEC2"
		},
		{
			"bufferView":15,
			"componentType":5123,
			"count":1068,
			"type":"SCALAR"
		},
		{
			"bufferView":16,
			"componentType":5126,
			"count":1368,
			"max":[
				1,
				37.860137939453125,
				1.544766902923584
			],
			"min":[
				-1,
				-4.413874626159668,
				-1
			],
			"type":"VEC3"
		},
		{
			"bufferView":17,
			"componentType":5126,
			"count":1368,
			"type":"VEC3"
		},
		{
			"bufferView":18,
			"componentType":5126,
			"count":1368,
			"type":"VEC2"
		},
		{
			"bufferView":19,
			"componentType":5123,
			"count":2268,
			"type":"SCALAR"
		},
		{
			"bufferView":20,
			"componentType":5126,
			"count":1082,
			"max":[
				1.0761879682540894,
				1.090048909187317,
				0.8061459064483643
			],
			"min":[
				-1.085911512374878,
				-3.155534029006958,
				-1
			],
			"type":"VEC3"
		},
		{
			"bufferView":21,
			"componentType":5126,
			"count":1082,
			"type":"VEC3"
		},
		{
			"bufferView":22,
			"componentType":5126,
			"count":1082,
			"type":"VEC2"
		},
		{
			"bufferView":23,
			"componentType":5123,
			"count":2100,
			"type":"SCALAR"
		},
		{
			"bufferView":24,
			"componentType":5126,
			"count":480,
			"max":[
				0.9510578513145447,
				1,
				0.9999999403953552
			],
			"min":[
				-4.347127437591553,
				-1,
				-1.0000004768371582
			],
			"type":"VEC3"
		},
		{
			"bufferView":25,
			"componentType":5126,
			"count":480,
			"type":"VEC3"
		},
		{
			"bufferView":26,
			"componentType":5126,
			"count":480,
			"type":"VEC2"
		},
		{
			"bufferView":27,
			"componentType":5123,
			"count":480,
			"type":"SCALAR"
		},
		{
			"bufferView":28,
			"componentType":5126,
			"count":2688,
			"max":[
				25.06368637084961,
				2.887769937515259,
				27.273944854736328
			],
			"min":[
				-1.173615574836731,
				-6.692529678344727,
				-14.092519760131836
			],
			"type":"VEC3"
		},
		{
			"bufferView":29,
			"componentType":5126,
			"count":2688,
			"type":"VEC3"
		},
		{
			"bufferView":30,
			"componentType":5126,
			"count":2688,
			"type":"VEC2"
		},
		{
			"bufferView":31,
			"componentType":5123,
			"count":5208,
			"type":"SCALAR"
		},
		{
			"bufferView":32,
			"componentType":5126,
			"count":384,
			"max":[
				25.063684463500977,
				3.2198472023010254,
				-9.228245735168457
			],
			"min":[
				10.556964874267578,
				-0.8371117115020752,
				-13.37617015838623
			],
			"type":"VEC3"
		},
		{
			"bufferView":33,
			"componentType":5126,
			"count":384,
			"type":"VEC3"
		},
		{
			"bufferView":34,
			"componentType":5126,
			"count":384,
			"type":"VEC2"
		},
		{
			"bufferView":35,
			"componentType":5123,
			"count":744,
			"type":"SCALAR"
		},
		{
			"bufferView":36,
			"componentType":5126,
			"count":384,
			"max":[
				8.786091804504395,
				1,
				10.29736614227295
			],
			"min":[
				-1.38277006149292,
				-2.6027321815490723,
				-1
			],
			"type":"VEC3"
		},
		{
			"bufferView":37,
			"componentType":5126,
			"count":384,
			"type":"VEC3"
		},
		{
			"bufferView":38,
			"componentType":5126,
			"count":384,
			"type":"VEC2"
		},
		{
			"bufferView":39,
			"componentType":5123,
			"count":744,
			"type":"SCALAR"
		},
		{
			"bufferView":40,
			"componentType":5126,
			"count":384,
			"max":[
				1.8853158950805664,
				1,
				10.109920501708984
			],
			"min":[
				-8.515277862548828,
				-2.589411973953247,
				-1
			],
			"type":"VEC3"
		},
		{
			"bufferView":41,
			"componentType":5126,
			"count":384,
			"type":"VEC3"
		},
		{
			"bufferView":42,
			"componentType":5126,
			"count":384,
			"type":"VEC2"
		},
		{
			"bufferView":43,
			"componentType":5123,
			"count":744,
			"type":"SCALAR"
		},
		{
			"bufferView":44,
			"componentType":5126,
			"count":384,
			"max":[
				1.021590232849121,
				1,
				9.178603172302246
			],
			"min":[
				-9.379003524780273,
				-2.5232160091400146,
				-1.3808512687683105
			],
			"type":"VEC3"
		},
		{
			"bufferView":45,
			"componentType":5126,
			"count":384,
			"type":"VEC3"
		},
		{
			"bufferView":46,
			"componentType":5126,
			"count":384,
			"type":"VEC2"
		},
		{
			"bufferView":47,
			"componentType":5126,
			"count":384,
			"max":[
				9.658916473388672,
				1,
				9.450016021728516
			],
			"min":[
				-1,
				-2.5425045490264893,
				-1.1466871500015259
			],
			"type":"VEC3"
		},
		{
			"bufferView":48,
			"componentType":5126,
			"count":384,
			"type":"VEC3"
		},
		{
			"bufferView":49,
			"componentType":5126,
			"count":384,
			"type":"VEC2"
		},
		{
			"bufferView":50,
			"componentType":5126,
			"count":384,
			"max":[
				1,
				1,
				2.747555732727051
			],
			"min":[
				-5.254693984985352,
				-3.4975388050079346,
				-1
			],
			"type":"VEC3"
		},
		{
			"bufferView":51,
			"componentType":5126,
			"count":384,
			"type":"VEC3"
		},
		{
			"bufferView":52,
			"componentType":5126,
			"count":384,
			"type":"VEC2"
		},
		{
			"bufferView":53,
			"componentType":5123,
			"count":744,
			"type":"SCALAR"
		},
		{
			"bufferView":54,
			"componentType":5126,
			"count":384,
			"max":[
				1,
				1,
				3.3390369415283203
			],
			"min":[
				-2.2856671810150146,
				-3.492330551147461,
				-1
			],
			"type":"VEC3"
		},
		{
			"bufferView":55,
			"componentType":5126,
			"count":384,
			"type":"VEC3"
		},
		{
			"bufferView":56,
			"componentType":5126,
			"count":384,
			"type":"VEC2"
		},
		{
			"bufferView":57,
			"componentType":5123,
			"count":744,
			"type":"SCALAR"
		},
		{
			"bufferView":58,
			"componentType":5126,
			"count":164,
			"max":[
				2.1536102294921875,
				8.808560371398926,
				1.0901042222976685
			],
			"min":[
				-0.5971762537956238,
				-4.504512786865234,
				-1.2773083448410034
			],
			"type":"VEC3"
		},
		{
			"bufferView":59,
			"componentType":5126,
			"count":164,
			"type":"VEC3"
		},
		{
			"bufferView":60,
			"componentType":5126,
			"count":164,
			"type":"VEC2"
		},
		{
			"bufferView":61,
			"componentType":5123,
			"count":264,
			"type":"SCALAR"
		},
		{
			"bufferView":62,
			"componentType":5126,
			"count":160,
			"max":[
				1.6175979375839233,
				1.2236042022705078,
				0.7872875332832336
			],
			"min":[
				-0.22270607948303223,
				-4.542738437652588,
				-0.7701180577278137
			],
			"type":"VEC3"
		},
		{
			"bufferView":63,
			"componentType":5126,
			"count":160,
			"type":"VEC3"
		},
		{
			"bufferView":64,
			"componentType":5126,
			"count":160,
			"type":"VEC2"
		},
		{
			"bufferView":65,
			"componentType":5123,
			"count":264,
			"type":"SCALAR"
		}
	],
	"bufferViews":[
		{
			"buffer":0,
			"byteLength":2352,
			"byteOffset":0,
			"target":34962
		},
		{
			"buffer":0,
			"byteLength":2352,
			"byteOffset":2352,
			"target":34962
		},
		{
			"buffer":0,
			"byteLength":1568,
			"byteOffset":4704,
			"target":34962
		},
		{
			"buffer":0,
			"byteLength":696,
			"byteOffset":6272,
			"target":34963
		},
		{
			"buffer":0,
			"byteLength":2352,
			"byteOffset":6968,
			"target":34962
		},
		{
			"buffer":0,
			"byteLength":2352,
			"byteOffset":9320,
			"target":34962
		},
		{
			"buffer":0,
			"byteLength":1568,
			"byteOffset":11672,
			"target":34962
		},
		{
			"buffer":0,
			"byteLength":696,
			"byteOffset":13240,
			"target":34963
		},
		{
			"buffer":0,
			"byteLength":2352,
			"byteOffset":13936,
			"target":34962
		},
		{
			"buffer":0,
			"byteLength":2352,
			"byteOffset":16288,
			"target":34962
		},
		{
			"buffer":0,
			"byteLength":1568,
			"byteOffset":18640,
			"target":34962
		},
		{
			"buffer":0,
			"byteLength":696,
			"byteOffset":20208,
			"target":34963
		},
		{
			"buffer":0,
			"byteLength":7920,
			"byteOffset":20904,
			"target":34962
		},
		{
			"buffer":0,
			"byteLength":7920,
			"byteOffset":28824,
			"target":34962
		},
		{
			"buffer":0,
			"byteLength":5280,
			"byteOffset":36744,
			"target":34962
		},
		{
			"buffer":0,
			"byteLength":2136,
			"byteOffset":42024,
			"target":34963
		},
		{
			"buffer":0,
			"byteLength":16416,
			"byteOffset":44160,
			"target":34962
		},
		{
			"buffer":0,
			"byteLength":16416,
			"byteOffset":60576,
			"target":34962
		},
		{
			"buffer":0,
			"byteLength":10944,
			"byteOffset":76992,
			"target":34962
		},
		{
			"buffer":0,
			"byteLength":4536,
			"byteOffset":87936,
			"target":34963
		},
		{
			"buffer":0,
			"byteLength":12984,
			"byteOffset":92472,
			"target":34962
		},
		{
			"buffer":0,
			"byteLength":12984,
			"byteOffset":105456,
			"target":34962
		},
		{
			"buffer":0,
			"byteLength":8656,
			"byteOffset":118440,
			"target":34962
		},
		{
			"buffer":0,
			"byteLength":4200,
			"byteOffset":127096,
			"target":34963
		},
		{
			"buffer":0,
			"byteLength":5760,
			"byteOffset":131296,
			"target":34962
		},
		{
			"buffer":0,
			"byteLength":5760,
			"byteOffset":137056,
			"target":34962
		},
		{
			"buffer":0,
			"byteLength":3840,
			"byteOffset":142816,
			"target":34962
		},
		{
			"buffer":0,
			"byteLength":960,
			"byteOffset":146656,
			"target":34963
		},
		{
			"buffer":0,
			"byteLength":32256,
			"byteOffset":147616,
			"target":34962
		},
		{
			"buffer":0,
			"byteLength":32256,
			"byteOffset":179872,
			"target":34962
		},
		{
			"buffer":0,
			"byteLength":21504,
			"byteOffset":212128,
			"target":34962
		},
		{
			"buffer":0,
			"byteLength":10416,
			"byteOffset":233632,
			"target":34963
		},
		{
			"buffer":0,
			"byteLength":4608,
			"byteOffset":244048,
			"target":34962
		},
		{
			"buffer":0,
			"byteLength":4608,
			"byteOffset":248656,
			"target":34962
		},
		{
			"buffer":0,
			"byteLength":3072,
			"byteOffset":253264,
			"target":34962
		},
		{
			"buffer":0,
			"byteLength":1488,
			"byteOffset":256336,
			"target":34963
		},
		{
			"buffer":0,
			"byteLength":4608,
			"byteOffset":257824,
			"target":34962
		},
		{
			"buffer":0,
			"byteLength":4608,
			"byteOffset":262432,
			"target":34962
		},
		{
			"buffer":0,
			"byteLength":3072,
			"byteOffset":267040,
			"target":34962
		},
		{
			"buffer":0,
			"byteLength":1488,
			"byteOffset":270112,
			"target":34963
		},
		{
			"buffer":0,
			"byteLength":4608,
			"byteOffset":271600,
			"target":34962
		},
		{
			"buffer":0,
			"byteLength":4608,
			"byteOffset":276208,
			"target":34962
		},
		{
			"buffer":0,
			"byteLength":3072,
			"byteOffset":280816,
			"target":34962
		},
		{
			"buffer":0,
			"byteLength":1488,
			"byteOffset":283888,
			"target":34963
		},
		{
			"buffer":0,
			"byteLength":4608,
			"byteOffset":285376,
			"target":34962
		},
		{
			"buffer":0,
			"byteLength":4608,
			"byteOffset":289984,
			"target":34962
		},
		{
			"buffer":0,
			"byteLength":3072,
			"byteOffset":294592,
			"target":34962
		},
		{
			"buffer":0,
			"byteLength":4608,
			"byteOffset":297664,
			"target":34962
		},
		{
			"buffer":0,
			"byteLength":4608,
			"byteOffset":302272,
			"target":34962
		},
		{
			"buffer":0,
			"byteLength":3072,
			"byteOffset":306880,
			"target":34962
		},
		{
			"buffer":0,
			"byteLength":4608,
			"byteOffset":309952,
			"target":34962
		},
		{
			"buffer":0,
			"byteLength":4608,
			"byteOffset":314560,
			"target":34962
		},
		{
			"buffer":0,
			"byteLength":3072,
			"byteOffset":319168,
			"target":34962
		},
		{
			"buffer":0,
			"byteLength":1488,
			"byteOffset":322240,
			"target":34963
		},
		{
			"buffer":0,
			"byteLength":4608,
			"byteOffset":323728,
			"target":34962
		},
		{
			"buffer":0,
			"byteLength":4608,
			"byteOffset":328336,
			"target":34962
		},
		{
			"buffer":0,
			"byteLength":3072,
			"byteOffset":332944,
			"target":34962
		},
		{
			"buffer":0,
			"byteLength":1488,
			"byteOffset":336016,
			"target":34963
		},
		{
			"buffer":0,
			"byteLength":1968,
			"byteOffset":337504,
			"target":34962
		},
		{
			"buffer":0,
			"byteLength":1968,
			"byteOffset":339472,
			"target":34962
		},
		{
			"buffer":0,
			"byteLength":1312,
			"byteOffset":341440,
			"target":34962
		},
		{
			"buffer":0,
			"byteLength":528,
			"byteOffset":342752,
			"target":34963
		},
		{
			"buffer":0,
			"byteLength":1920,
			"byteOffset":343280,
			"target":34962
		},
		{
			"buffer":0,
			"byteLength":1920,
			"byteOffset":345200,
			"target":34962
		},
		{
			"buffer":0,
			"byteLength":1280,
			"byteOffset":347120,
			"target":34962
		},
		{
			"buffer":0,
			"byteLength":528,
			"byteOffset":348400,
			"target":34963
		}
	],
	"buffers":[
		{
			"byteLength":348928,
			"uri":"shrimp.bin"
		}
	]
}
