{
	"asset":{
		"generator":"Khronos glTF Blender I/O v4.4.56",
		"version":"2.0"
	},
	"scene":0,
	"scenes":[
		{
			"name":"Scene",
			"nodes":[
				45
			]
		}
	],
	"nodes":[
		{
			"name":"shell_1_Joint",
			"translation":[
				-0.0472881980240345,
				0.2768857777118683,
				1.298380970954895
			]
		},
		{
			"name":"shell_2_Joint",
			"translation":[
				-0.0396016500890255,
				0.26209571957588196,
				2.0072975158691406
			]
		},
		{
			"name":"shell_3_Joint",
			"translation":[
				-0.03960166499018669,
				0.26751306653022766,
				2.6845030784606934
			]
		},
		{
			"name":"shell_4_Joint",
			"translation":[
				-0.03960171341896057,
				0.1372770369052887,
				3.9718239307403564
			]
		},
		{
			"name":"body_Joint",
			"translation":[
				-0.03398914262652397,
				-0.14904165267944336,
				2.4455783367156982
			]
		},
		{
			"name":"head_Joint",
			"translation":[
				-0.015735408291220665,
				0.10617516934871674,
				-0.32883161306381226
			]
		},
		{
			"name":"eye_all_Joint",
			"translation":[
				-0.028758300468325615,
				0.26412978768348694,
				-0.4784781336784363
			]
		},
		{
			"name":"RearLeg_01_Joint",
			"translation":[
				-0.23233619332313538,
				-0.20547854900360107,
				1.6665610074996948
			]
		},
		{
			"name":"flont_Leg_Left_\"_Joint",
			"translation":[
				-0.23901210725307465,
				-0.17969638109207153,
				0.7258615493774414
			]
		},
		{
			"name":"front_Leg_Right_2_Joint",
			"translation":[
				0.12480282783508301,
				-0.1807517409324646,
				0.7258615493774414
			]
		},
		{
			"name":"front_Leg_Right_Joint",
			"translation":[
				0.031352829188108444,
				-0.3122867941856384,
				0.46494394540786743
			]
		},
		{
			"name":"frontLeg_Left_Joint",
			"translation":[
				-0.13725699484348297,
				-0.2955847382545471,
				0.46466609835624695
			]
		},
		{
			"name":"beaed_1_Joint",
			"translation":[
				0.23680172860622406,
				-0.1522327959537506,
				-0.9174885153770447
			]
		},
		{
			"name":"beard_2_Joint",
			"translation":[
				-0.2511785924434662,
				-0.152329683303833,
				-0.9162451028823853
			]
		},
		{
			"name":"tail_Joint",
			"translation":[
				-0.03388840705156326,
				-0.2007617950439453,
				4.42030143737793
			]
		},
		{
			"name":"RearLeg_02_Joint",
			"translation":[
				-0.23233626782894135,
				-0.20547854900360107,
				3.3594532012939453
			]
		},
		{
			"name":"RearLeg_03_Joint",
			"translation":[
				-0.23233623802661896,
				-0.2054784893989563,
				2.5340611934661865
			]
		},
		{
			"name":"RearLeg_04_Joint",
			"translation":[
				0.10880225896835327,
				-0.21233195066452026,
				1.6665608882904053
			]
		},
		{
			"name":"RearLeg_05_Joint",
			"translation":[
				0.10880226641893387,
				-0.2123318910598755,
				2.5340616703033447
			]
		},
		{
			"name":"RearLeg_06_Joint",
			"translation":[
				0.10880225151777267,
				-0.21233195066452026,
				3.359452962875366
			]
		},
		{
			"name":"RearLeg_07_Joint",
			"translation":[
				-0.23233620822429657,
				-0.2054784893989563,
				0.7197630405426025
			]
		},
		{
			"name":"RearLeg_08_Joint",
			"translation":[
				0.10880225151777267,
				-0.21233195066452026,
				0.7197630405426025
			]
		},
		{
			"children":[
				0,
				1,
				2,
				3,
				4,
				5,
				6,
				7,
				8,
				9,
				10,
				11,
				12,
				13,
				14,
				15,
				16,
				17,
				18,
				19,
				20,
				21
			],
			"name":"Root"
		},
		{
			"mesh":0,
			"name":"beaed_1",
			"skin":0
		},
		{
			"mesh":1,
			"name":"beard_2",
			"skin":0
		},
		{
			"mesh":2,
			"name":"body",
			"skin":0
		},
		{
			"mesh":3,
			"name":"eye_all",
			"skin":0
		},
		{
			"mesh":4,
			"name":"flont_Leg_Left_\"",
			"skin":0
		},
		{
			"mesh":5,
			"name":"front_Leg_Right",
			"skin":0
		},
		{
			"mesh":6,
			"name":"front_Leg_Right_2",
			"skin":0
		},
		{
			"mesh":7,
			"name":"frontLeg_Left",
			"skin":0
		},
		{
			"mesh":8,
			"name":"head",
			"skin":0
		},
		{
			"mesh":9,
			"name":"RearLeg_01",
			"skin":0
		},
		{
			"mesh":10,
			"name":"RearLeg_02",
			"skin":0
		},
		{
			"mesh":11,
			"name":"RearLeg_03",
			"skin":0
		},
		{
			"mesh":12,
			"name":"RearLeg_04",
			"skin":0
		},
		{
			"mesh":13,
			"name":"RearLeg_05",
			"skin":0
		},
		{
			"mesh":14,
			"name":"RearLeg_06",
			"skin":0
		},
		{
			"mesh":15,
			"name":"RearLeg_07",
			"skin":0
		},
		{
			"mesh":16,
			"name":"RearLeg_08",
			"skin":0
		},
		{
			"mesh":17,
			"name":"shell_1",
			"skin":0
		},
		{
			"mesh":18,
			"name":"shell_2",
			"skin":0
		},
		{
			"mesh":19,
			"name":"shell_3",
			"skin":0
		},
		{
			"mesh":20,
			"name":"shell_4",
			"skin":0
		},
		{
			"mesh":21,
			"name":"tail",
			"skin":0
		},
		{
			"children":[
				23,
				24,
				25,
				26,
				27,
				28,
				29,
				30,
				31,
				32,
				33,
				34,
				35,
				36,
				37,
				38,
				39,
				40,
				41,
				42,
				43,
				44,
				22
			],
			"name":"ShrimpWalkRig"
		}
	],
	"animations":[
		{
			"channels":[
				{
					"sampler":0,
					"target":{
						"node":22,
						"path":"translation"
					}
				},
				{
					"sampler":1,
					"target":{
						"node":22,
						"path":"rotation"
					}
				},
				{
					"sampler":2,
					"target":{
						"node":22,
						"path":"scale"
					}
				},
				{
					"sampler":3,
					"target":{
						"node":0,
						"path":"translation"
					}
				},
				{
					"sampler":4,
					"target":{
						"node":0,
						"path":"rotation"
					}
				},
				{
					"sampler":5,
					"target":{
						"node":0,
						"path":"scale"
					}
				},
				{
					"sampler":6,
					"target":{
						"node":1,
						"path":"translation"
					}
				},
				{
					"sampler":7,
					"target":{
						"node":1,
						"path":"rotation"
					}
				},
				{
					"sampler":8,
					"target":{
						"node":1,
						"path":"scale"
					}
				},
				{
					"sampler":9,
					"target":{
						"node":2,
						"path":"translation"
					}
				},
				{
					"sampler":10,
					"target":{
						"node":2,
						"path":"rotation"
					}
				},
				{
					"sampler":11,
					"target":{
						"node":2,
						"path":"scale"
					}
				},
				{
					"sampler":12,
					"target":{
						"node":3,
						"path":"translation"
					}
				},
				{
					"sampler":13,
					"target":{
						"node":3,
						"path":"rotation"
					}
				},
				{
					"sampler":14,
					"target":{
						"node":3,
						"path":"scale"
					}
				},
				{
					"sampler":15,
					"target":{
						"node":4,
						"path":"translation"
					}
				},
				{
					"sampler":16,
					"target":{
						"node":4,
						"path":"rotation"
					}
				},
				{
					"sampler":17,
					"target":{
						"node":4,
						"path":"scale"
					}
				},
				{
					"sampler":18,
					"target":{
						"node":5,
						"path":"translation"
					}
				},
				{
					"sampler":19,
					"target":{
						"node":5,
						"path":"rotation"
					}
				},
				{
					"sampler":20,
					"target":{
						"node":5,
						"path":"scale"
					}
				},
				{
					"sampler":21,
					"target":{
						"node":6,
						"path":"translation"
					}
				},
				{
					"sampler":22,
					"target":{
						"node":6,
						"path":"rotation"
					}
				},
				{
					"sampler":23,
					"target":{
						"node":6,
						"path":"scale"
					}
				},
				{
					"sampler":24,
					"target":{
						"node":7,
						"path":"translation"
					}
				},
				{
					"sampler":25,
					"target":{
						"node":7,
						"path":"rotation"
					}
				},
				{
					"sampler":26,
					"target":{
						"node":7,
						"path":"scale"
					}
				},
				{
					"sampler":27,
					"target":{
						"node":8,
						"path":"translation"
					}
				},
				{
					"sampler":28,
					"target":{
						"node":8,
						"path":"rotation"
					}
				},
				{
					"sampler":29,
					"target":{
						"node":8,
						"path":"scale"
					}
				},
				{
					"sampler":30,
					"target":{
						"node":9,
						"path":"translation"
					}
				},
				{
					"sampler":31,
					"target":{
						"node":9,
						"path":"rotation"
					}
				},
				{
					"sampler":32,
					"target":{
						"node":9,
						"path":"scale"
					}
				},
				{
					"sampler":33,
					"target":{
						"node":10,
						"path":"translation"
					}
				},
				{
					"sampler":34,
					"target":{
						"node":10,
						"path":"rotation"
					}
				},
				{
					"sampler":35,
					"target":{
						"node":10,
						"path":"scale"
					}
				},
				{
					"sampler":36,
					"target":{
						"node":11,
						"path":"translation"
					}
				},
				{
					"sampler":37,
					"target":{
						"node":11,
						"path":"rotation"
					}
				},
				{
					"sampler":38,
					"target":{
						"node":11,
						"path":"scale"
					}
				},
				{
					"sampler":39,
					"target":{
						"node":12,
						"path":"translation"
					}
				},
				{
					"sampler":40,
					"target":{
						"node":12,
						"path":"rotation"
					}
				},
				{
					"sampler":41,
					"target":{
						"node":12,
						"path":"scale"
					}
				},
				{
					"sampler":42,
					"target":{
						"node":13,
						"path":"translation"
					}
				},
				{
					"sampler":43,
					"target":{
						"node":13,
						"path":"rotation"
					}
				},
				{
					"sampler":44,
					"target":{
						"node":13,
						"path":"scale"
					}
				},
				{
					"sampler":45,
					"target":{
						"node":14,
						"path":"translation"
					}
				},
				{
					"sampler":46,
					"target":{
						"node":14,
						"path":"rotation"
					}
				},
				{
					"sampler":47,
					"target":{
						"node":14,
						"path":"scale"
					}
				},
				{
					"sampler":48,
					"target":{
						"node":15,
						"path":"translation"
					}
				},
				{
					"sampler":49,
					"target":{
						"node":15,
						"path":"rotation"
					}
				},
				{
					"sampler":50,
					"target":{
						"node":15,
						"path":"scale"
					}
				},
				{
					"sampler":51,
					"target":{
						"node":16,
						"path":"translation"
					}
				},
				{
					"sampler":52,
					"target":{
						"node":16,
						"path":"rotation"
					}
				},
				{
					"sampler":53,
					"target":{
						"node":16,
						"path":"scale"
					}
				},
				{
					"sampler":54,
					"target":{
						"node":17,
						"path":"translation"
					}
				},
				{
					"sampler":55,
					"target":{
						"node":17,
						"path":"rotation"
					}
				},
				{
					"sampler":56,
					"target":{
						"node":17,
						"path":"scale"
					}
				},
				{
					"sampler":57,
					"target":{
						"node":18,
						"path":"translation"
					}
				},
				{
					"sampler":58,
					"target":{
						"node":18,
						"path":"rotation"
					}
				},
				{
					"sampler":59,
					"target":{
						"node":18,
						"path":"scale"
					}
				},
				{
					"sampler":60,
					"target":{
						"node":19,
						"path":"translation"
					}
				},
				{
					"sampler":61,
					"target":{
						"node":19,
						"path":"rotation"
					}
				},
				{
					"sampler":62,
					"target":{
						"node":19,
						"path":"scale"
					}
				},
				{
					"sampler":63,
					"target":{
						"node":20,
						"path":"translation"
					}
				},
				{
					"sampler":64,
					"target":{
						"node":20,
						"path":"rotation"
					}
				},
				{
					"sampler":65,
					"target":{
						"node":20,
						"path":"scale"
					}
				},
				{
					"sampler":66,
					"target":{
						"node":21,
						"path":"translation"
					}
				},
				{
					"sampler":67,
					"target":{
						"node":21,
						"path":"rotation"
					}
				},
				{
					"sampler":68,
					"target":{
						"node":21,
						"path":"scale"
					}
				}
			],
			"name":"Shrimp_Walk",
			"samplers":[
				{
					"input":139,
					"interpolation":"LINEAR",
					"output":140
				},
				{
					"input":141,
					"interpolation":"STEP",
					"output":142
				},
				{
					"input":141,
					"interpolation":"STEP",
					"output":143
				},
				{
					"input":141,
					"interpolation":"STEP",
					"output":144
				},
				{
					"input":141,
					"interpolation":"STEP",
					"output":145
				},
				{
					"input":141,
					"interpolation":"STEP",
					"output":146
				},
				{
					"input":141,
					"interpolation":"STEP",
					"output":147
				},
				{
					"input":141,
					"interpolation":"STEP",
					"output":148
				},
				{
					"input":141,
					"interpolation":"STEP",
					"output":149
				},
				{
					"input":141,
					"interpolation":"STEP",
					"output":150
				},
				{
					"input":141,
					"interpolation":"STEP",
					"output":151
				},
				{
					"input":141,
					"interpolation":"STEP",
					"output":152
				},
				{
					"input":141,
					"interpolation":"STEP",
					"output":153
				},
				{
					"input":141,
					"interpolation":"STEP",
					"output":154
				},
				{
					"input":141,
					"interpolation":"STEP",
					"output":155
				},
				{
					"input":141,
					"interpolation":"STEP",
					"output":156
				},
				{
					"input":141,
					"interpolation":"STEP",
					"output":157
				},
				{
					"input":141,
					"interpolation":"STEP",
					"output":158
				},
				{
					"input":141,
					"interpolation":"STEP",
					"output":159
				},
				{
					"input":141,
					"interpolation":"STEP",
					"output":160
				},
				{
					"input":141,
					"interpolation":"STEP",
					"output":161
				},
				{
					"input":141,
					"interpolation":"STEP",
					"output":162
				},
				{
					"input":141,
					"interpolation":"STEP",
					"output":163
				},
				{
					"input":141,
					"interpolation":"STEP",
					"output":164
				},
				{
					"input":141,
					"interpolation":"STEP",
					"output":165
				},
				{
					"input":139,
					"interpolation":"LINEAR",
					"output":166
				},
				{
					"input":141,
					"interpolation":"STEP",
					"output":167
				},
				{
					"input":141,
					"interpolation":"STEP",
					"output":168
				},
				{
					"input":139,
					"interpolation":"LINEAR",
					"output":169
				},
				{
					"input":141,
					"interpolation":"STEP",
					"output":170
				},
				{
					"input":141,
					"interpolation":"STEP",
					"output":171
				},
				{
					"input":139,
					"interpolation":"LINEAR",
					"output":172
				},
				{
					"input":141,
					"interpolation":"STEP",
					"output":173
				},
				{
					"input":141,
					"interpolation":"STEP",
					"output":174
				},
				{
					"input":139,
					"interpolation":"LINEAR",
					"output":175
				},
				{
					"input":141,
					"interpolation":"STEP",
					"output":176
				},
				{
					"input":141,
					"interpolation":"STEP",
					"output":177
				},
				{
					"input":139,
					"interpolation":"LINEAR",
					"output":178
				},
				{
					"input":141,
					"interpolation":"STEP",
					"output":179
				},
				{
					"input":141,
					"interpolation":"STEP",
					"output":180
				},
				{
					"input":139,
					"interpolation":"LINEAR",
					"output":181
				},
				{
					"input":141,
					"interpolation":"STEP",
					"output":182
				},
				{
					"input":141,
					"interpolation":"STEP",
					"output":183
				},
				{
					"input":139,
					"interpolation":"LINEAR",
					"output":184
				},
				{
					"input":141,
					"interpolation":"STEP",
					"output":185
				},
				{
					"input":141,
					"interpolation":"STEP",
					"output":186
				},
				{
					"input":139,
					"interpolation":"LINEAR",
					"output":187
				},
				{
					"input":141,
					"interpolation":"STEP",
					"output":188
				},
				{
					"input":141,
					"interpolation":"STEP",
					"output":189
				},
				{
					"input":139,
					"interpolation":"LINEAR",
					"output":190
				},
				{
					"input":141,
					"interpolation":"STEP",
					"output":191
				},
				{
					"input":141,
					"interpolation":"STEP",
					"output":192
				},
				{
					"input":139,
					"interpolation":"LINEAR",
					"output":193
				},
				{
					"input":141,
					"interpolation":"STEP",
					"output":194
				},
				{
					"input":141,
					"interpolation":"STEP",
					"output":195
				},
				{
					"input":139,
					"interpolation":"LINEAR",
					"output":196
				},
				{
					"input":141,
					"interpolation":"STEP",
					"output":197
				},
				{
					"input":141,
					"interpolation":"STEP",
					"output":198
				},
				{
					"input":139,
					"interpolation":"LINEAR",
					"output":199
				},
				{
					"input":141,
					"interpolation":"STEP",
					"output":200
				},
				{
					"input":141,
					"interpolation":"STEP",
					"output":201
				},
				{
					"input":139,
					"interpolation":"LINEAR",
					"output":202
				},
				{
					"input":141,
					"interpolation":"STEP",
					"output":203
				},
				{
					"input":141,
					"interpolation":"STEP",
					"output":204
				},
				{
					"input":139,
					"interpolation":"LINEAR",
					"output":205
				},
				{
					"input":141,
					"interpolation":"STEP",
					"output":206
				},
				{
					"input":141,
					"interpolation":"STEP",
					"output":207
				},
				{
					"input":139,
					"interpolation":"LINEAR",
					"output":208
				},
				{
					"input":141,
					"interpolation":"STEP",
					"output":209
				}
			]
		}
	],
	"materials":[
		{
			"doubleSided":true,
			"name":"\u30de\u30c6\u30ea\u30a2\u30eb.003",
			"pbrMetallicRoughness":{
				"baseColorFactor":[
					0.25015705823898315,
					0,
					0.001517640077508986,
					1
				],
				"metallicFactor":0,
				"roughnessFactor":0.5
			}
		},
		{
			"doubleSided":true,
			"name":"\u30de\u30c6\u30ea\u30a2\u30eb.002",
			"pbrMetallicRoughness":{
				"baseColorFactor":[
					0.25015705823898315,
					0,
					0.001517640077508986,
					1
				],
				"metallicFactor":0,
				"roughnessFactor":0.5
			}
		},
		{
			"doubleSided":true,
			"name":"Material.005",
			"pbrMetallicRoughness":{
				"baseColorFactor":[
					0.25015705823898315,
					0,
					0.001517640077508986,
					1
				],
				"metallicFactor":0,
				"roughnessFactor":0.5
			}
		},
		{
			"doubleSided":true,
			"name":"\u30de\u30c6\u30ea\u30a2\u30eb.012",
			"pbrMetallicRoughness":{
				"baseColorFactor":[
					0,
					0,
					0,
					1
				],
				"metallicFactor":0,
				"roughnessFactor":0.5
			}
		},
		{
			"doubleSided":true,
			"name":"\u30de\u30c6\u30ea\u30a2\u30eb.008",
			"pbrMetallicRoughness":{
				"baseColorFactor":[
					0.25015705823898315,
					0,
					0.001517640077508986,
					1
				],
				"metallicFactor":0,
				"roughnessFactor":0.5
			}
		},
		{
			"doubleSided":true,
			"name":"\u30de\u30c6\u30ea\u30a2\u30eb.004",
			"pbrMetallicRoughness":{
				"baseColorFactor":[
					0.25015705823898315,
					0,
					0.001517640077508986,
					1
				],
				"metallicFactor":0,
				"roughnessFactor":0.5
			}
		},
		{
			"doubleSided":true,
			"name":"\u30de\u30c6\u30ea\u30a2\u30eb.007",
			"pbrMetallicRoughness":{
				"baseColorFactor":[
					0.25015705823898315,
					0,
					0.001517640077508986,
					1
				],
				"metallicFactor":0,
				"roughnessFactor":0.5
			}
		},
		{
			"doubleSided":true,
			"name":"\u30de\u30c6\u30ea\u30a2\u30eb.005",
			"pbrMetallicRoughness":{
				"baseColorFactor":[
					0.30390986800193787,
					0,
					0.0016588966827839613,
					1
				],
				"metallicFactor":0,
				"roughnessFactor":0.5
			}
		},
		{
			"doubleSided":true,
			"name":"\u30de\u30c6\u30ea\u30a2\u30eb.001",
			"pbrMetallicRoughness":{
				"baseColorFactor":[
					0.25015705823898315,
					0,
					0.001517640077508986,
					1
				],
				"metallicFactor":0,
				"roughnessFactor":0.5
			}
		},
		{
			"doubleSided":true,
			"name":"\u30de\u30c6\u30ea\u30a2\u30eb.010",
			"pbrMetallicRoughness":{
				"baseColorFactor":[
					0.25015705823898315,
					0,
					0.001517640077508986,
					1
				],
				"metallicFactor":0,
				"roughnessFactor":0.5
			}
		},
		{
			"doubleSided":true,
			"name":"\u30de\u30c6\u30ea\u30a2\u30eb.011",
			"pbrMetallicRoughness":{
				"baseColorFactor":[
					0.25015705823898315,
					0,
					0.001517640077508986,
					1
				],
				"metallicFactor":0,
				"roughnessFactor":0.5
			}
		},
		{
			"doubleSided":true,
			"name":"Material.001",
			"pbrMetallicRoughness":{
				"baseColorFactor":[
					0.25015705823898315,
					0,
					0.001517640077508986,
					1
				],
				"metallicFactor":0,
				"roughnessFactor":0.5
			}
		},
		{
			"doubleSided":true,
			"name":"Material.002",
			"pbrMetallicRoughness":{
				"baseColorFactor":[
					0.25015705823898315,
					0,
					0.001517640077508986,
					1
				],
				"metallicFactor":0,
				"roughnessFactor":0.5
			}
		},
		{
			"doubleSided":true,
			"name":"Material.003",
			"pbrMetallicRoughness":{
				"baseColorFactor":[
					0.25015705823898315,
					0,
					0.001517640077508986,
					1
				],
				"metallicFactor":0,
				"roughnessFactor":0.5
			}
		},
		{
			"doubleSided":true,
			"name":"Material.004",
			"pbrMetallicRoughness":{
				"baseColorFactor":[
					0.25015705823898315,
					0,
					0.001517640077508986,
					1
				],
				"metallicFactor":0,
				"roughnessFactor":0.5
			}
		},
		{
			"doubleSided":true,
			"name":"\u30de\u30c6\u30ea\u30a2\u30eb.006",
			"pbrMetallicRoughness":{
				"baseColorFactor":[
					0.25015705823898315,
					0,
					0.001517640077508986,
					1
				],
				"metallicFactor":0,
				"roughnessFactor":0.5
			}
		},
		{
			"doubleSided":true,
			"name":"\u30de\u30c6\u30ea\u30a2\u30eb",
			"pbrMetallicRoughness":{
				"baseColorFactor":[
					0.25015705823898315,
					0,
					0.001517640077508986,
					1
				],
				"metallicFactor":0,
				"roughnessFactor":0.5
			}
		}
	],
	"meshes":[
		{
			"name":"\u5186\u67f1.014",
			"primitives":[
				{
					"attributes":{
						"POSITION":0,
						"NORMAL":1,
						"TEXCOORD_0":2,
						"JOINTS_0":3,
						"WEIGHTS_0":4
					},
					"indices":5,
					"material":0
				}
			]
		},
		{
			"name":"\u5186\u67f1.015",
			"primitives":[
				{
					"attributes":{
						"POSITION":7,
						"NORMAL":8,
						"TEXCOORD_0":9,
						"JOINTS_0":10,
						"WEIGHTS_0":11
					},
					"indices":12,
					"material":1
				}
			]
		},
		{
			"name":"Cube.005",
			"primitives":[
				{
					"attributes":{
						"POSITION":13,
						"NORMAL":14,
						"TEXCOORD_0":15,
						"JOINTS_0":16,
						"WEIGHTS_0":17
					},
					"indices":18,
					"material":2
				}
			]
		},
		{
			"name":"ICO\u7403.001",
			"primitives":[
				{
					"attributes":{
						"POSITION":19,
						"NORMAL":20,
						"TEXCOORD_0":21,
						"JOINTS_0":22,
						"WEIGHTS_0":23
					},
					"indices":24,
					"material":3
				}
			]
		},
		{
			"name":"\u5186\u67f1.010",
			"primitives":[
				{
					"attributes":{
						"POSITION":25,
						"NORMAL":26,
						"TEXCOORD_0":27,
						"JOINTS_0":28,
						"WEIGHTS_0":29
					},
					"indices":30,
					"material":4
				}
			]
		},
		{
			"name":"\u5186\u67f1.012",
			"primitives":[
				{
					"attributes":{
						"POSITION":31,
						"NORMAL":32,
						"TEXCOORD_0":33,
						"JOINTS_0":34,
						"WEIGHTS_0":35
					},
					"indices":36,
					"material":5
				}
			]
		},
		{
			"name":"\u5186\u67f1.011",
			"primitives":[
				{
					"attributes":{
						"POSITION":37,
						"NORMAL":38,
						"TEXCOORD_0":39,
						"JOINTS_0":40,
						"WEIGHTS_0":41
					},
					"indices":42,
					"material":6
				}
			]
		},
		{
			"name":"\u5186\u67f1.013",
			"primitives":[
				{
					"attributes":{
						"POSITION":43,
						"NORMAL":44,
						"TEXCOORD_0":45,
						"JOINTS_0":46,
						"WEIGHTS_0":47
					},
					"indices":48,
					"material":7
				}
			]
		},
		{
			"name":"\u5186\u67f1",
			"primitives":[
				{
					"attributes":{
						"POSITION":49,
						"NORMAL":50,
						"TEXCOORD_0":51,
						"JOINTS_0":52,
						"WEIGHTS_0":53
					},
					"indices":54,
					"material":8
				}
			]
		},
		{
			"name":"\u5186\u67f1.004",
			"primitives":[
				{
					"attributes":{
						"POSITION":55,
						"NORMAL":56,
						"TEXCOORD_0":57,
						"JOINTS_0":58,
						"WEIGHTS_0":59
					},
					"indices":60,
					"material":9
				}
			]
		},
		{
			"name":"\u5186\u67f1.002",
			"primitives":[
				{
					"attributes":{
						"POSITION":61,
						"NORMAL":62,
						"TEXCOORD_0":63,
						"JOINTS_0":64,
						"WEIGHTS_0":65
					},
					"indices":66,
					"material":9
				}
			]
		},
		{
			"name":"\u5186\u67f1.005",
			"primitives":[
				{
					"attributes":{
						"POSITION":67,
						"NORMAL":68,
						"TEXCOORD_0":69,
						"JOINTS_0":70,
						"WEIGHTS_0":71
					},
					"indices":72,
					"material":9
				}
			]
		},
		{
			"name":"\u5186\u67f1.007",
			"primitives":[
				{
					"attributes":{
						"POSITION":73,
						"NORMAL":74,
						"TEXCOORD_0":75,
						"JOINTS_0":76,
						"WEIGHTS_0":77
					},
					"indices":78,
					"material":9
				}
			]
		},
		{
			"name":"\u5186\u67f1.009",
			"primitives":[
				{
					"attributes":{
						"POSITION":79,
						"NORMAL":80,
						"TEXCOORD_0":81,
						"JOINTS_0":82,
						"WEIGHTS_0":83
					},
					"indices":84,
					"material":9
				}
			]
		},
		{
			"name":"\u5186\u67f1.017",
			"primitives":[
				{
					"attributes":{
						"POSITION":85,
						"NORMAL":86,
						"TEXCOORD_0":87,
						"JOINTS_0":88,
						"WEIGHTS_0":89
					},
					"indices":90,
					"material":9
				}
			]
		},
		{
			"name":"\u5186\u67f1.019",
			"primitives":[
				{
					"attributes":{
						"POSITION":91,
						"NORMAL":92,
						"TEXCOORD_0":93,
						"JOINTS_0":94,
						"WEIGHTS_0":95
					},
					"indices":96,
					"material":9
				}
			]
		},
		{
			"name":"\u5186\u67f1.021",
			"primitives":[
				{
					"attributes":{
						"POSITION":97,
						"NORMAL":98,
						"TEXCOORD_0":99,
						"JOINTS_0":100,
						"WEIGHTS_0":101
					},
					"indices":102,
					"material":10
				}
			]
		},
		{
			"name":"Cube.001",
			"primitives":[
				{
					"attributes":{
						"POSITION":103,
						"NORMAL":104,
						"TEXCOORD_0":105,
						"JOINTS_0":106,
						"WEIGHTS_0":107
					},
					"indices":108,
					"material":11
				}
			]
		},
		{
			"name":"Cube.002",
			"primitives":[
				{
					"attributes":{
						"POSITION":109,
						"NORMAL":110,
						"TEXCOORD_0":111,
						"JOINTS_0":112,
						"WEIGHTS_0":113
					},
					"indices":114,
					"material":12
				}
			]
		},
		{
			"name":"Cube.003",
			"primitives":[
				{
					"attributes":{
						"POSITION":115,
						"NORMAL":116,
						"TEXCOORD_0":117,
						"JOINTS_0":118,
						"WEIGHTS_0":119
					},
					"indices":120,
					"material":13
				}
			]
		},
		{
			"name":"Cube.004",
			"primitives":[
				{
					"attributes":{
						"POSITION":121,
						"NORMAL":122,
						"TEXCOORD_0":123,
						"JOINTS_0":124,
						"WEIGHTS_0":125
					},
					"indices":126,
					"material":14
				}
			]
		},
		{
			"name":"\u7acb\u65b9\u4f53",
			"primitives":[
				{
					"attributes":{
						"POSITION":127,
						"NORMAL":128,
						"TEXCOORD_0":129,
						"JOINTS_0":130,
						"WEIGHTS_0":131
					},
					"indices":132,
					"material":15
				},
				{
					"attributes":{
						"POSITION":133,
						"NORMAL":134,
						"TEXCOORD_0":135,
						"JOINTS_0":136,
						"WEIGHTS_0":137
					},
					"indices":138,
					"material":16
				}
			]
		}
	],
	"skins":[
		{
			"inverseBindMatrices":6,
			"joints":[
				22,
				0,
				1,
				2,
				3,
				4,
				5,
				6,
				7,
				8,
				9,
				10,
				11,
				12,
				13,
				14,
				15,
				16,
				17,
				18,
				19,
				20,
				21
			],
			"name":"ShrimpWalkRig"
		}
	],
	"accessors":[
		{
			"bufferView":0,
			"componentType":5126,
			"count":535,
			"max":[
				0.26873743534088135,
				0.15137696266174316,
				-0.49027419090270996
			],
			"min":[
				0.16820569336414337,
				-0.1522327959537506,
				-1.3974848985671997
			],
			"type":"VEC3"
		},
		{
			"bufferView":1,
			"componentType":5126,
			"count":535,
			"type":"VEC3"
		},
		{
			"bufferView":2,
			"componentType":5126,
			"count":535,
			"type":"VEC2"
		},
		{
			"bufferView":3,
			"componentType":5121,
			"count":535,
			"type":"VEC4"
		},
		{
			"bufferView":4,
			"componentType":5126,
			"count":535,
			"type":"VEC4"
		},
		{
			"bufferView":5,
			"componentType":5123,
			"count":744,
			"type":"SCALAR"
		},
		{
			"bufferView":6,
			"componentType":5126,
			"count":23,
			"type":"MAT4"
		},
		{
			"bufferView":7,
			"componentType":5126,
			"count":546,
			"max":[
				-0.19667905569076538,
				0.15137697756290436,
				-0.49149006605148315
			],
			"min":[
				-0.2854101359844208,
				-0.15232966840267181,
				-1.3946716785430908
			],
			"type":"VEC3"
		},
		{
			"bufferView":8,
			"componentType":5126,
			"count":546,
			"type":"VEC3"
		},
		{
			"bufferView":9,
			"componentType":5126,
			"count":546,
			"type":"VEC2"
		},
		{
			"bufferView":10,
			"componentType":5121,
			"count":546,
			"type":"VEC4"
		},
		{
			"bufferView":11,
			"componentType":5126,
			"count":546,
			"type":"VEC4"
		},
		{
			"bufferView":12,
			"componentType":5123,
			"count":744,
			"type":"SCALAR"
		},
		{
			"bufferView":13,
			"componentType":5126,
			"count":1404,
			"max":[
				0.3325729966163635,
				0.17693230509757996,
				4.493959903717041
			],
			"min":[
				-0.3825533092021942,
				-0.3632698357105255,
				0.9150993824005127
			],
			"type":"VEC3"
		},
		{
			"bufferView":14,
			"componentType":5126,
			"count":1404,
			"type":"VEC3"
		},
		{
			"bufferView":15,
			"componentType":5126,
			"count":1404,
			"type":"VEC2"
		},
		{
			"bufferView":16,
			"componentType":5121,
			"count":1404,
			"type":"VEC4"
		},
		{
			"bufferView":17,
			"componentType":5126,
			"count":1404,
			"type":"VEC4"
		},
		{
			"bufferView":18,
			"componentType":5123,
			"count":2268,
			"type":"SCALAR"
		},
		{
			"bufferView":19,
			"componentType":5126,
			"count":480,
			"max":[
				0.17443989217281342,
				0.3408348858356476,
				-0.4017728865146637
			],
			"min":[
				-0.2319563627243042,
				0.18742528557777405,
				-0.5551825165748596
			],
			"type":"VEC3"
		},
		{
			"bufferView":20,
			"componentType":5126,
			"count":480,
			"type":"VEC3"
		},
		{
			"bufferView":21,
			"componentType":5126,
			"count":480,
			"type":"VEC2"
		},
		{
			"bufferView":22,
			"componentType":5121,
			"count":480,
			"type":"VEC4"
		},
		{
			"bufferView":23,
			"componentType":5126,
			"count":480,
			"type":"VEC4"
		},
		{
			"bufferView":24,
			"componentType":5123,
			"count":480,
			"type":"SCALAR"
		},
		{
			"bufferView":25,
			"componentType":5126,
			"count":515,
			"max":[
				-0.21445350348949432,
				-0.1490660309791565,
				0.7510409355163574
			],
			"min":[
				-0.32514041662216187,
				-1.0871357917785645,
				-0.031502872705459595
			],
			"type":"VEC3"
		},
		{
			"bufferView":26,
			"componentType":5126,
			"count":515,
			"type":"VEC3"
		},
		{
			"bufferView":27,
			"componentType":5126,
			"count":515,
			"type":"VEC2"
		},
		{
			"bufferView":28,
			"componentType":5121,
			"count":515,
			"type":"VEC4"
		},
		{
			"bufferView":29,
			"componentType":5126,
			"count":515,
			"type":"VEC4"
		},
		{
			"bufferView":30,
			"componentType":5123,
			"count":744,
			"type":"SCALAR"
		},
		{
			"bufferView":31,
			"componentType":5126,
			"count":509,
			"max":[
				0.14364993572235107,
				-0.2843905985355377,
				0.49073901772499084
			],
			"min":[
				0.006093382835388184,
				-1.1607325077056885,
				-0.2918047308921814
			],
			"type":"VEC3"
		},
		{
			"bufferView":32,
			"componentType":5126,
			"count":509,
			"type":"VEC3"
		},
		{
			"bufferView":33,
			"componentType":5126,
			"count":509,
			"type":"VEC2"
		},
		{
			"bufferView":34,
			"componentType":5121,
			"count":509,
			"type":"VEC4"
		},
		{
			"bufferView":35,
			"componentType":5126,
			"count":509,
			"type":"VEC4"
		},
		{
			"bufferView":36,
			"componentType":5123,
			"count":744,
			"type":"SCALAR"
		},
		{
			"bufferView":37,
			"componentType":5126,
			"count":524,
			"max":[
				0.2600767910480499,
				-0.15098103880882263,
				0.7510409355163574
			],
			"min":[
				0.09999710321426392,
				-1.066807746887207,
				-0.03150284290313721
			],
			"type":"VEC3"
		},
		{
			"bufferView":38,
			"componentType":5126,
			"count":524,
			"type":"VEC3"
		},
		{
			"bufferView":39,
			"componentType":5126,
			"count":524,
			"type":"VEC2"
		},
		{
			"bufferView":40,
			"componentType":5121,
			"count":524,
			"type":"VEC4"
		},
		{
			"bufferView":41,
			"componentType":5126,
			"count":524,
			"type":"VEC4"
		},
		{
			"bufferView":42,
			"componentType":5123,
			"count":744,
			"type":"SCALAR"
		},
		{
			"bufferView":43,
			"componentType":5126,
			"count":505,
			"max":[
				-0.11398772895336151,
				-0.26695969700813293,
				0.49073901772499084
			],
			"min":[
				-0.22193820774555206,
				-1.1654058694839478,
				-0.29180485010147095
			],
			"type":"VEC3"
		},
		{
			"bufferView":44,
			"componentType":5126,
			"count":505,
			"type":"VEC3"
		},
		{
			"bufferView":45,
			"componentType":5126,
			"count":505,
			"type":"VEC2"
		},
		{
			"bufferView":46,
			"componentType":5121,
			"count":505,
			"type":"VEC4"
		},
		{
			"bufferView":47,
			"componentType":5126,
			"count":505,
			"type":"VEC4"
		},
		{
			"bufferView":48,
			"componentType":5123,
			"count":744,
			"type":"SCALAR"
		},
		{
			"bufferView":49,
			"componentType":5126,
			"count":1136,
			"max":[
				0.3349580764770508,
				0.450596421957016,
				0.997724711894989
			],
			"min":[
				-0.39965617656707764,
				-0.363246351480484,
				-0.9871307611465454
			],
			"type":"VEC3"
		},
		{
			"bufferView":50,
			"componentType":5126,
			"count":1136,
			"type":"VEC3"
		},
		{
			"bufferView":51,
			"componentType":5126,
			"count":1136,
			"type":"VEC2"
		},
		{
			"bufferView":52,
			"componentType":5121,
			"count":1136,
			"type":"VEC4"
		},
		{
			"bufferView":53,
			"componentType":5126,
			"count":1136,
			"type":"VEC4"
		},
		{
			"bufferView":54,
			"componentType":5123,
			"count":2100,
			"type":"SCALAR"
		},
		{
			"bufferView":55,
			"componentType":5126,
			"count":554,
			"max":[
				-0.20365364849567413,
				-0.1738438904285431,
				2.362959861755371
			],
			"min":[
				-0.3748937249183655,
				-1.092466115951538,
				1.6133157014846802
			],
			"type":"VEC3"
		},
		{
			"bufferView":56,
			"componentType":5126,
			"count":554,
			"type":"VEC3"
		},
		{
			"bufferView":57,
			"componentType":5126,
			"count":554,
			"type":"VEC2"
		},
		{
			"bufferView":58,
			"componentType":5121,
			"count":554,
			"type":"VEC4"
		},
		{
			"bufferView":59,
			"componentType":5126,
			"count":554,
			"type":"VEC4"
		},
		{
			"bufferView":60,
			"componentType":5123,
			"count":744,
			"type":"SCALAR"
		},
		{
			"bufferView":61,
			"componentType":5126,
			"count":605,
			"max":[
				-0.2036537081003189,
				-0.17384380102157593,
				4.055851936340332
			],
			"min":[
				-0.37489378452301025,
				-1.092466115951538,
				3.3062078952789307
			],
			"type":"VEC3"
		},
		{
			"bufferView":62,
			"componentType":5126,
			"count":605,
			"type":"VEC3"
		},
		{
			"bufferView":63,
			"componentType":5126,
			"count":605,
			"type":"VEC2"
		},
		{
			"bufferView":64,
			"componentType":5121,
			"count":605,
			"type":"VEC4"
		},
		{
			"bufferView":65,
			"componentType":5126,
			"count":605,
			"type":"VEC4"
		},
		{
			"bufferView":66,
			"componentType":5123,
			"count":744,
			"type":"SCALAR"
		},
		{
			"bufferView":67,
			"componentType":5126,
			"count":575,
			"max":[
				-0.2036537081003189,
				-0.17384377121925354,
				3.2304599285125732
			],
			"min":[
				-0.37489375472068787,
				-1.092466115951538,
				2.480815887451172
			],
			"type":"VEC3"
		},
		{
			"bufferView":68,
			"componentType":5126,
			"count":575,
			"type":"VEC3"
		},
		{
			"bufferView":69,
			"componentType":5126,
			"count":575,
			"type":"VEC2"
		},
		{
			"bufferView":70,
			"componentType":5121,
			"count":575,
			"type":"VEC4"
		},
		{
			"bufferView":71,
			"componentType":5126,
			"count":575,
			"type":"VEC4"
		},
		{
			"bufferView":72,
			"componentType":5123,
			"count":744,
			"type":"SCALAR"
		},
		{
			"bufferView":73,
			"componentType":5126,
			"count":560,
			"max":[
				0.3048872947692871,
				-0.1809423863887787,
				2.362959861755371
			],
			"min":[
				0.07975077629089355,
				-1.073153018951416,
				1.6133159399032593
			],
			"type":"VEC3"
		},
		{
			"bufferView":74,
			"componentType":5126,
			"count":560,
			"type":"VEC3"
		},
		{
			"bufferView":75,
			"componentType":5126,
			"count":560,
			"type":"VEC2"
		},
		{
			"bufferView":76,
			"componentType":5121,
			"count":560,
			"type":"VEC4"
		},
		{
			"bufferView":77,
			"componentType":5126,
			"count":560,
			"type":"VEC4"
		},
		{
			"bufferView":78,
			"componentType":5123,
			"count":744,
			"type":"SCALAR"
		},
		{
			"bufferView":79,
			"componentType":5126,
			"count":578,
			"max":[
				0.3048872947692871,
				-0.18094229698181152,
				3.2304601669311523
			],
			"min":[
				0.07975080609321594,
				-1.0731528997421265,
				2.480816125869751
			],
			"type":"VEC3"
		},
		{
			"bufferView":80,
			"componentType":5126,
			"count":578,
			"type":"VEC3"
		},
		{
			"bufferView":81,
			"componentType":5126,
			"count":578,
			"type":"VEC2"
		},
		{
			"bufferView":82,
			"componentType":5121,
			"count":578,
			"type":"VEC4"
		},
		{
			"bufferView":83,
			"componentType":5126,
			"count":578,
			"type":"VEC4"
		},
		{
			"bufferView":84,
			"componentType":5123,
			"count":744,
			"type":"SCALAR"
		},
		{
			"bufferView":85,
			"componentType":5126,
			"count":617,
			"max":[
				0.3048872947692871,
				-0.1809423267841339,
				4.055851936340332
			],
			"min":[
				0.07975080609321594,
				-1.0731528997421265,
				3.3062081336975098
			],
			"type":"VEC3"
		},
		{
			"bufferView":86,
			"componentType":5126,
			"count":617,
			"type":"VEC3"
		},
		{
			"bufferView":87,
			"componentType":5126,
			"count":617,
			"type":"VEC2"
		},
		{
			"bufferView":88,
			"componentType":5121,
			"count":617,
			"type":"VEC4"
		},
		{
			"bufferView":89,
			"componentType":5126,
			"count":617,
			"type":"VEC4"
		},
		{
			"bufferView":90,
			"componentType":5123,
			"count":744,
			"type":"SCALAR"
		},
		{
			"bufferView":91,
			"componentType":5126,
			"count":534,
			"max":[
				-0.20365366339683533,
				-0.17384377121925354,
				1.4161618947982788
			],
			"min":[
				-0.3748937249183655,
				-1.092465877532959,
				0.6665178537368774
			],
			"type":"VEC3"
		},
		{
			"bufferView":92,
			"componentType":5126,
			"count":534,
			"type":"VEC3"
		},
		{
			"bufferView":93,
			"componentType":5126,
			"count":534,
			"type":"VEC2"
		},
		{
			"bufferView":94,
			"componentType":5121,
			"count":534,
			"type":"VEC4"
		},
		{
			"bufferView":95,
			"componentType":5126,
			"count":534,
			"type":"VEC4"
		},
		{
			"bufferView":96,
			"componentType":5123,
			"count":744,
			"type":"SCALAR"
		},
		{
			"bufferView":97,
			"componentType":5126,
			"count":578,
			"max":[
				0.3048872947692871,
				-0.1809423267841339,
				1.4161620140075684
			],
			"min":[
				0.07975077629089355,
				-1.073153018951416,
				0.6665178537368774
			],
			"type":"VEC3"
		},
		{
			"bufferView":98,
			"componentType":5126,
			"count":578,
			"type":"VEC3"
		},
		{
			"bufferView":99,
			"componentType":5126,
			"count":578,
			"type":"VEC2"
		},
		{
			"bufferView":100,
			"componentType":5121,
			"count":578,
			"type":"VEC4"
		},
		{
			"bufferView":101,
			"componentType":5126,
			"count":578,
			"type":"VEC4"
		},
		{
			"bufferView":102,
			"componentType":5123,
			"count":744,
			"type":"SCALAR"
		},
		{
			"bufferView":103,
			"componentType":5126,
			"count":196,
			"max":[
				0.36103469133377075,
				0.46774083375930786,
				1.6788592338562012
			],
			"min":[
				-0.455610990524292,
				-0.042670875787734985,
				0.9178977012634277
			],
			"type":"VEC3"
		},
		{
			"bufferView":104,
			"componentType":5126,
			"count":196,
			"type":"VEC3"
		},
		{
			"bufferView":105,
			"componentType":5126,
			"count":196,
			"type":"VEC2"
		},
		{
			"bufferView":106,
			"componentType":5121,
			"count":196,
			"type":"VEC4"
		},
		{
			"bufferView":107,
			"componentType":5126,
			"count":196,
			"type":"VEC4"
		},
		{
			"bufferView":108,
			"componentType":5123,
			"count":348,
			"type":"SCALAR"
		},
		{
			"bufferView":109,
			"componentType":5126,
			"count":196,
			"max":[
				0.3687211871147156,
				0.4713186025619507,
				2.387779474258423
			],
			"min":[
				-0.44792449474334717,
				-0.042670875787734985,
				1.6268179416656494
			],
			"type":"VEC3"
		},
		{
			"bufferView":110,
			"componentType":5126,
			"count":196,
			"type":"VEC3"
		},
		{
			"bufferView":111,
			"componentType":5126,
			"count":196,
			"type":"VEC2"
		},
		{
			"bufferView":112,
			"componentType":5121,
			"count":196,
			"type":"VEC4"
		},
		{
			"bufferView":113,
			"componentType":5126,
			"count":196,
			"type":"VEC4"
		},
		{
			"bufferView":114,
			"componentType":5123,
			"count":348,
			"type":"SCALAR"
		},
		{
			"bufferView":115,
			"componentType":5126,
			"count":196,
			"max":[
				0.3687211871147156,
				0.4852895140647888,
				3.0649800300598145
			],
			"min":[
				-0.44792449474334717,
				-0.042670875787734985,
				2.304018497467041
			],
			"type":"VEC3"
		},
		{
			"bufferView":116,
			"componentType":5126,
			"count":196,
			"type":"VEC3"
		},
		{
			"bufferView":117,
			"componentType":5126,
			"count":196,
			"type":"VEC2"
		},
		{
			"bufferView":118,
			"componentType":5121,
			"count":196,
			"type":"VEC4"
		},
		{
			"bufferView":119,
			"componentType":5126,
			"count":196,
			"type":"VEC4"
		},
		{
			"bufferView":120,
			"componentType":5123,
			"count":348,
			"type":"SCALAR"
		},
		{
			"bufferView":121,
			"componentType":5126,
			"count":660,
			"max":[
				0.3687211871147156,
				0.46668824553489685,
				4.834100246429443
			],
			"min":[
				-0.44792449474334717,
				-0.2345905601978302,
				2.966763496398926
			],
			"type":"VEC3"
		},
		{
			"bufferView":122,
			"componentType":5126,
			"count":660,
			"type":"VEC3"
		},
		{
			"bufferView":123,
			"componentType":5126,
			"count":660,
			"type":"VEC2"
		},
		{
			"bufferView":124,
			"componentType":5121,
			"count":660,
			"type":"VEC4"
		},
		{
			"bufferView":125,
			"componentType":5126,
			"count":660,
			"type":"VEC4"
		},
		{
			"bufferView":126,
			"componentType":5123,
			"count":1068,
			"type":"SCALAR"
		},
		{
			"bufferView":127,
			"componentType":5126,
			"count":166,
			"max":[
				0.6145941019058228,
				0.13695698976516724,
				5.227960109710693
			],
			"min":[
				-0.6723938584327698,
				-0.6676150560379028,
				4.42030143737793
			],
			"type":"VEC3"
		},
		{
			"bufferView":128,
			"componentType":5126,
			"count":166,
			"type":"VEC3"
		},
		{
			"bufferView":129,
			"componentType":5126,
			"count":166,
			"type":"VEC2"
		},
		{
			"bufferView":130,
			"componentType":5121,
			"count":166,
			"type":"VEC4"
		},
		{
			"bufferView":131,
			"componentType":5126,
			"count":166,
			"type":"VEC4"
		},
		{
			"bufferView":132,
			"componentType":5123,
			"count":264,
			"type":"SCALAR"
		},
		{
			"bufferView":133,
			"componentType":5126,
			"count":176,
			"max":[
				0.3882087469100952,
				0.07471045851707458,
				5.11351203918457
			],
			"min":[
				-0.4521993398666382,
				-0.42203325033187866,
				4.557410717010498
			],
			"type":"VEC3"
		},
		{
			"bufferView":134,
			"componentType":5126,
			"count":176,
			"type":"VEC3"
		},
		{
			"bufferView":135,
			"componentType":5126,
			"count":176,
			"type":"VEC2"
		},
		{
			"bufferView":136,
			"componentType":5121,
			"count":176,
			"type":"VEC4"
		},
		{
			"bufferView":137,
			"componentType":5126,
			"count":176,
			"type":"VEC4"
		},
		{
			"bufferView":138,
			"componentType":5123,
			"count":264,
			"type":"SCALAR"
		},
		{
			"bufferView":139,
			"componentType":5126,
			"count":33,
			"max":[
				1.1
			],
			"min":[
				0.03333333333333333
			],
			"type":"SCALAR"
		},
		{
			"bufferView":140,
			"componentType":5126,
			"count":33,
			"type":"VEC3"
		},
		{
			"bufferView":141,
			"componentType":5126,
			"count":2,
			"max":[
				1.1
			],
			"min":[
				0.03333333333333333
			],
			"type":"SCALAR"
		},
		{
			"bufferView":142,
			"componentType":5126,
			"count":2,
			"type":"VEC4"
		},
		{
			"bufferView":143,
			"componentType":5126,
			"count":2,
			"type":"VEC3"
		},
		{
			"bufferView":144,
			"componentType":5126,
			"count":2,
			"type":"VEC3"
		},
		{
			"bufferView":145,
			"componentType":5126,
			"count":2,
			"type":"VEC4"
		},
		{
			"bufferView":146,
			"componentType":5126,
			"count":2,
			"type":"VEC3"
		},
		{
			"bufferView":147,
			"componentType":5126,
			"count":2,
			"type":"VEC3"
		},
		{
			"bufferView":148,
			"componentType":5126,
			"count":2,
			"type":"VEC4"
		},
		{
			"bufferView":149,
			"componentType":5126,
			"count":2,
			"type":"VEC3"
		},
		{
			"bufferView":150,
			"componentType":5126,
			"count":2,
			"type":"VEC3"
		},
		{
			"bufferView":151,
			"componentType":5126,
			"count":2,
			"type":"VEC4"
		},
		{
			"bufferView":152,
			"componentType":5126,
			"count":2,
			"type":"VEC3"
		},
		{
			"bufferView":153,
			"componentType":5126,
			"count":2,
			"type":"VEC3"
		},
		{
			"bufferView":154,
			"componentType":5126,
			"count":2,
			"type":"VEC4"
		},
		{
			"bufferView":155,
			"componentType":5126,
			"count":2,
			"type":"VEC3"
		},
		{
			"bufferView":156,
			"componentType":5126,
			"count":2,
			"type":"VEC3"
		},
		{
			"bufferView":157,
			"componentType":5126,
			"count":2,
			"type":"VEC4"
		},
		{
			"bufferView":158,
			"componentType":5126,
			"count":2,
			"type":"VEC3"
		},
		{
			"bufferView":159,
			"componentType":5126,
			"count":2,
			"type":"VEC3"
		},
		{
			"bufferView":160,
			"componentType":5126,
			"count":2,
			"type":"VEC4"
		},
		{
			"bufferView":161,
			"componentType":5126,
			"count":2,
			"type":"VEC3"
		},
		{
			"bufferView":162,
			"componentType":5126,
			"count":2,
			"type":"VEC3"
		},
		{
			"bufferView":163,
			"componentType":5126,
			"count":2,
			"type":"VEC4"
		},
		{
			"bufferView":164,
			"componentType":5126,
			"count":2,
			"type":"VEC3"
		},
		{
			"bufferView":165,
			"componentType":5126,
			"count":2,
			"type":"VEC3"
		},
		{
			"bufferView":166,
			"componentType":5126,
			"count":33,
			"type":"VEC4"
		},
		{
			"bufferView":167,
			"componentType":5126,
			"count":2,
			"type":"VEC3"
		},
		{
			"bufferView":168,
			"componentType":5126,
			"count":2,
			"type":"VEC3"
		},
		{
			"bufferView":169,
			"componentType":5126,
			"count":33,
			"type":"VEC4"
		},
		{
			"bufferView":170,
			"componentType":5126,
			"count":2,
			"type":"VEC3"
		},
		{
			"bufferView":171,
			"componentType":5126,
			"count":2,
			"type":"VEC3"
		},
		{
			"bufferView":172,
			"componentType":5126,
			"count":33,
			"type":"VEC4"
		},
		{
			"bufferView":173,
			"componentType":5126,
			"count":2,
			"type":"VEC3"
		},
		{
			"bufferView":174,
			"componentType":5126,
			"count":2,
			"type":"VEC3"
		},
		{
			"bufferView":175,
			"componentType":5126,
			"count":33,
			"type":"VEC4"
		},
		{
			"bufferView":176,
			"componentType":5126,
			"count":2,
			"type":"VEC3"
		},
		{
			"bufferView":177,
			"componentType":5126,
			"count":2,
			"type":"VEC3"
		},
		{
			"bufferView":178,
			"componentType":5126,
			"count":33,
			"type":"VEC4"
		},
		{
			"bufferView":179,
			"componentType":5126,
			"count":2,
			"type":"VEC3"
		},
		{
			"bufferView":180,
			"componentType":5126,
			"count":2,
			"type":"VEC3"
		},
		{
			"bufferView":181,
			"componentType":5126,
			"count":33,
			"type":"VEC4"
		},
		{
			"bufferView":182,
			"componentType":5126,
			"count":2,
			"type":"VEC3"
		},
		{
			"bufferView":183,
			"componentType":5126,
			"count":2,
			"type":"VEC3"
		},
		{
			"bufferView":184,
			"componentType":5126,
			"count":33,
			"type":"VEC4"
		},
		{
			"bufferView":185,
			"componentType":5126,
			"count":2,
			"type":"VEC3"
		},
		{
			"bufferView":186,
			"componentType":5126,
			"count":2,
			"type":"VEC3"
		},
		{
			"bufferView":187,
			"componentType":5126,
			"count":33,
			"type":"VEC4"
		},
		{
			"bufferView":188,
			"componentType":5126,
			"count":2,
			"type":"VEC3"
		},
		{
			"bufferView":189,
			"componentType":5126,
			"count":2,
			"type":"VEC3"
		},
		{
			"bufferView":190,
			"componentType":5126,
			"count":33,
			"type":"VEC4"
		},
		{
			"bufferView":191,
			"componentType":5126,
			"count":2,
			"type":"VEC3"
		},
		{
			"bufferView":192,
			"componentType":5126,
			"count":2,
			"type":"VEC3"
		},
		{
			"bufferView":193,
			"componentType":5126,
			"count":33,
			"type":"VEC4"
		},
		{
			"bufferView":194,
			"componentType":5126,
			"count":2,
			"type":"VEC3"
		},
		{
			"bufferView":195,
			"componentType":5126,
			"count":2,
			"type":"VEC3"
		},
		{
			"bufferView":196,
			"componentType":5126,
			"count":33,
			"type":"VEC4"
		},
		{
			"bufferView":197,
			"componentType":5126,
			"count":2,
			"type":"VEC3"
		},
		{
			"bufferView":198,
			"componentType":5126,
			"count":2,
			"type":"VEC3"
		},
		{
			"bufferView":199,
			"componentType":5126,
			"count":33,
			"type":"VEC4"
		},
		{
			"bufferView":200,
			"componentType":5126,
			"count":2,
			"type":"VEC3"
		},
		{
			"bufferView":201,
			"componentType":5126,
			"count":2,
			"type":"VEC3"
		},
		{
			"bufferView":202,
			"componentType":5126,
			"count":33,
			"type":"VEC4"
		},
		{
			"bufferView":203,
			"componentType":5126,
			"count":2,
			"type":"VEC3"
		},
		{
			"bufferView":204,
			"componentType":5126,
			"count":2,
			"type":"VEC3"
		},
		{
			"bufferView":205,
			"componentType":5126,
			"count":33,
			"type":"VEC4"
		},
		{
			"bufferView":206,
			"componentType":5126,
			"count":2,
			"type":"VEC3"
		},
		{
			"bufferView":207,
			"componentType":5126,
			"count":2,
			"type":"VEC3"
		},
		{
			"bufferView":208,
			"componentType":5126,
			"count":33,
			"type":"VEC4"
		},
		{
			"bufferView":209,
			"componentType":5126,
			"count":2,
			"type":"VEC3"
		}
	],
	"bufferViews":[
		{
			"buffer":0,
			"byteLength":6420,
			"byteOffset":0,
			"target":34962
		},
		{
			"buffer":0,
			"byteLength":6420,
			"byteOffset":6420,
			"target":34962
		},
		{
			"buffer":0,
			"byteLength":4280,
			"byteOffset":12840,
			"target":34962
		},
		{
			"buffer":0,
			"byteLength":2140,
			"byteOffset":17120,
			"target":34962
		},
		{
			"buffer":0,
			"byteLength":8560,
			"byteOffset":19260,
			"target":34962
		},
		{
			"buffer":0,
			"byteLength":1488,
			"byteOffset":27820,
			"target":34963
		},
		{
			"buffer":0,
			"byteLength":1472,
			"byteOffset":29308
		},
		{
			"buffer":0,
			"byteLength":6552,
			"byteOffset":30780,
			"target":34962
		},
		{
			"buffer":0,
			"byteLength":6552,
			"byteOffset":37332,
			"target":34962
		},
		{
			"buffer":0,
			"byteLength":4368,
			"byteOffset":43884,
			"target":34962
		},
		{
			"buffer":0,
			"byteLength":2184,
			"byteOffset":48252,
			"target":34962
		},
		{
			"buffer":0,
			"byteLength":8736,
			"byteOffset":50436,
			"target":34962
		},
		{
			"buffer":0,
			"byteLength":1488,
			"byteOffset":59172,
			"target":34963
		},
		{
			"buffer":0,
			"byteLength":16848,
			"byteOffset":60660,
			"target":34962
		},
		{
			"buffer":0,
			"byteLength":16848,
			"byteOffset":77508,
			"target":34962
		},
		{
			"buffer":0,
			"byteLength":11232,
			"byteOffset":94356,
			"target":34962
		},
		{
			"buffer":0,
			"byteLength":5616,
			"byteOffset":105588,
			"target":34962
		},
		{
			"buffer":0,
			"byteLength":22464,
			"byteOffset":111204,
			"target":34962
		},
		{
			"buffer":0,
			"byteLength":4536,
			"byteOffset":133668,
			"target":34963
		},
		{
			"buffer":0,
			"byteLength":5760,
			"byteOffset":138204,
			"target":34962
		},
		{
			"buffer":0,
			"byteLength":5760,
			"byteOffset":143964,
			"target":34962
		},
		{
			"buffer":0,
			"byteLength":3840,
			"byteOffset":149724,
			"target":34962
		},
		{
			"buffer":0,
			"byteLength":1920,
			"byteOffset":153564,
			"target":34962
		},
		{
			"buffer":0,
			"byteLength":7680,
			"byteOffset":155484,
			"target":34962
		},
		{
			"buffer":0,
			"byteLength":960,
			"byteOffset":163164,
			"target":34963
		},
		{
			"buffer":0,
			"byteLength":6180,
			"byteOffset":164124,
			"target":34962
		},
		{
			"buffer":0,
			"byteLength":6180,
			"byteOffset":170304,
			"target":34962
		},
		{
			"buffer":0,
			"byteLength":4120,
			"byteOffset":176484,
			"target":34962
		},
		{
			"buffer":0,
			"byteLength":2060,
			"byteOffset":180604,
			"target":34962
		},
		{
			"buffer":0,
			"byteLength":8240,
			"byteOffset":182664,
			"target":34962
		},
		{
			"buffer":0,
			"byteLength":1488,
			"byteOffset":190904,
			"target":34963
		},
		{
			"buffer":0,
			"byteLength":6108,
			"byteOffset":192392,
			"target":34962
		},
		{
			"buffer":0,
			"byteLength":6108,
			"byteOffset":198500,
			"target":34962
		},
		{
			"buffer":0,
			"byteLength":4072,
			"byteOffset":204608,
			"target":34962
		},
		{
			"buffer":0,
			"byteLength":2036,
			"byteOffset":208680,
			"target":34962
		},
		{
			"buffer":0,
			"byteLength":8144,
			"byteOffset":210716,
			"target":34962
		},
		{
			"buffer":0,
			"byteLength":1488,
			"byteOffset":218860,
			"target":34963
		},
		{
			"buffer":0,
			"byteLength":6288,
			"byteOffset":220348,
			"target":34962
		},
		{
			"buffer":0,
			"byteLength":6288,
			"byteOffset":226636,
			"target":34962
		},
		{
			"buffer":0,
			"byteLength":4192,
			"byteOffset":232924,
			"target":34962
		},
		{
			"buffer":0,
			"byteLength":2096,
			"byteOffset":237116,
			"target":34962
		},
		{
			"buffer":0,
			"byteLength":8384,
			"byteOffset":239212,
			"target":34962
		},
		{
			"buffer":0,
			"byteLength":1488,
			"byteOffset":247596,
			"target":34963
		},
		{
			"buffer":0,
			"byteLength":6060,
			"byteOffset":249084,
			"target":34962
		},
		{
			"buffer":0,
			"byteLength":6060,
			"byteOffset":255144,
			"target":34962
		},
		{
			"buffer":0,
			"byteLength":4040,
			"byteOffset":261204,
			"target":34962
		},
		{
			"buffer":0,
			"byteLength":2020,
			"byteOffset":265244,
			"target":34962
		},
		{
			"buffer":0,
			"byteLength":8080,
			"byteOffset":267264,
			"target":34962
		},
		{
			"buffer":0,
			"byteLength":1488,
			"byteOffset":275344,
			"target":34963
		},
		{
			"buffer":0,
			"byteLength":13632,
			"byteOffset":276832,
			"target":34962
		},
		{
			"buffer":0,
			"byteLength":13632,
			"byteOffset":290464,
			"target":34962
		},
		{
			"buffer":0,
			"byteLength":9088,
			"byteOffset":304096,
			"target":34962
		},
		{
			"buffer":0,
			"byteLength":4544,
			"byteOffset":313184,
			"target":34962
		},
		{
			"buffer":0,
			"byteLength":18176,
			"byteOffset":317728,
			"target":34962
		},
		{
			"buffer":0,
			"byteLength":4200,
			"byteOffset":335904,
			"target":34963
		},
		{
			"buffer":0,
			"byteLength":6648,
			"byteOffset":340104,
			"target":34962
		},
		{
			"buffer":0,
			"byteLength":6648,
			"byteOffset":346752,
			"target":34962
		},
		{
			"buffer":0,
			"byteLength":4432,
			"byteOffset":353400,
			"target":34962
		},
		{
			"buffer":0,
			"byteLength":2216,
			"byteOffset":357832,
			"target":34962
		},
		{
			"buffer":0,
			"byteLength":8864,
			"byteOffset":360048,
			"target":34962
		},
		{
			"buffer":0,
			"byteLength":1488,
			"byteOffset":368912,
			"target":34963
		},
		{
			"buffer":0,
			"byteLength":7260,
			"byteOffset":370400,
			"target":34962
		},
		{
			"buffer":0,
			"byteLength":7260,
			"byteOffset":377660,
			"target":34962
		},
		{
			"buffer":0,
			"byteLength":4840,
			"byteOffset":384920,
			"target":34962
		},
		{
			"buffer":0,
			"byteLength":2420,
			"byteOffset":389760,
			"target":34962
		},
		{
			"buffer":0,
			"byteLength":9680,
			"byteOffset":392180,
			"target":34962
		},
		{
			"buffer":0,
			"byteLength":1488,
			"byteOffset":401860,
			"target":34963
		},
		{
			"buffer":0,
			"byteLength":6900,
			"byteOffset":403348,
			"target":34962
		},
		{
			"buffer":0,
			"byteLength":6900,
			"byteOffset":410248,
			"target":34962
		},
		{
			"buffer":0,
			"byteLength":4600,
			"byteOffset":417148,
			"target":34962
		},
		{
			"buffer":0,
			"byteLength":2300,
			"byteOffset":421748,
			"target":34962
		},
		{
			"buffer":0,
			"byteLength":9200,
			"byteOffset":424048,
			"target":34962
		},
		{
			"buffer":0,
			"byteLength":1488,
			"byteOffset":433248,
			"target":34963
		},
		{
			"buffer":0,
			"byteLength":6720,
			"byteOffset":434736,
			"target":34962
		},
		{
			"buffer":0,
			"byteLength":6720,
			"byteOffset":441456,
			"target":34962
		},
		{
			"buffer":0,
			"byteLength":4480,
			"byteOffset":448176,
			"target":34962
		},
		{
			"buffer":0,
			"byteLength":2240,
			"byteOffset":452656,
			"target":34962
		},
		{
			"buffer":0,
			"byteLength":8960,
			"byteOffset":454896,
			"target":34962
		},
		{
			"buffer":0,
			"byteLength":1488,
			"byteOffset":463856,
			"target":34963
		},
		{
			"buffer":0,
			"byteLength":6936,
			"byteOffset":465344,
			"target":34962
		},
		{
			"buffer":0,
			"byteLength":6936,
			"byteOffset":472280,
			"target":34962
		},
		{
			"buffer":0,
			"byteLength":4624,
			"byteOffset":479216,
			"target":34962
		},
		{
			"buffer":0,
			"byteLength":2312,
			"byteOffset":483840,
			"target":34962
		},
		{
			"buffer":0,
			"byteLength":9248,
			"byteOffset":486152,
			"target":34962
		},
		{
			"buffer":0,
			"byteLength":1488,
			"byteOffset":495400,
			"target":34963
		},
		{
			"buffer":0,
			"byteLength":7404,
			"byteOffset":496888,
			"target":34962
		},
		{
			"buffer":0,
			"byteLength":7404,
			"byteOffset":504292,
			"target":34962
		},
		{
			"buffer":0,
			"byteLength":4936,
			"byteOffset":511696,
			"target":34962
		},
		{
			"buffer":0,
			"byteLength":2468,
			"byteOffset":516632,
			"target":34962
		},
		{
			"buffer":0,
			"byteLength":9872,
			"byteOffset":519100,
			"target":34962
		},
		{
			"buffer":0,
			"byteLength":1488,
			"byteOffset":528972,
			"target":34963
		},
		{
			"buffer":0,
			"byteLength":6408,
			"byteOffset":530460,
			"target":34962
		},
		{
			"buffer":0,
			"byteLength":6408,
			"byteOffset":536868,
			"target":34962
		},
		{
			"buffer":0,
			"byteLength":4272,
			"byteOffset":543276,
			"target":34962
		},
		{
			"buffer":0,
			"byteLength":2136,
			"byteOffset":547548,
			"target":34962
		},
		{
			"buffer":0,
			"byteLength":8544,
			"byteOffset":549684,
			"target":34962
		},
		{
			"buffer":0,
			"byteLength":1488,
			"byteOffset":558228,
			"target":34963
		},
		{
			"buffer":0,
			"byteLength":6936,
			"byteOffset":559716,
			"target":34962
		},
		{
			"buffer":0,
			"byteLength":6936,
			"byteOffset":566652,
			"target":34962
		},
		{
			"buffer":0,
			"byteLength":4624,
			"byteOffset":573588,
			"target":34962
		},
		{
			"buffer":0,
			"byteLength":2312,
			"byteOffset":578212,
			"target":34962
		},
		{
			"buffer":0,
			"byteLength":9248,
			"byteOffset":580524,
			"target":34962
		},
		{
			"buffer":0,
			"byteLength":1488,
			"byteOffset":589772,
			"target":34963
		},
		{
			"buffer":0,
			"byteLength":2352,
			"byteOffset":591260,
			"target":34962
		},
		{
			"buffer":0,
			"byteLength":2352,
			"byteOffset":593612,
			"target":34962
		},
		{
			"buffer":0,
			"byteLength":1568,
			"byteOffset":595964,
			"target":34962
		},
		{
			"buffer":0,
			"byteLength":784,
			"byteOffset":597532,
			"target":34962
		},
		{
			"buffer":0,
			"byteLength":3136,
			"byteOffset":598316,
			"target":34962
		},
		{
			"buffer":0,
			"byteLength":696,
			"byteOffset":601452,
			"target":34963
		},
		{
			"buffer":0,
			"byteLength":2352,
			"byteOffset":602148,
			"target":34962
		},
		{
			"buffer":0,
			"byteLength":2352,
			"byteOffset":604500,
			"target":34962
		},
		{
			"buffer":0,
			"byteLength":1568,
			"byteOffset":606852,
			"target":34962
		},
		{
			"buffer":0,
			"byteLength":784,
			"byteOffset":608420,
			"target":34962
		},
		{
			"buffer":0,
			"byteLength":3136,
			"byteOffset":609204,
			"target":34962
		},
		{
			"buffer":0,
			"byteLength":696,
			"byteOffset":612340,
			"target":34963
		},
		{
			"buffer":0,
			"byteLength":2352,
			"byteOffset":613036,
			"target":34962
		},
		{
			"buffer":0,
			"byteLength":2352,
			"byteOffset":615388,
			"target":34962
		},
		{
			"buffer":0,
			"byteLength":1568,
			"byteOffset":617740,
			"target":34962
		},
		{
			"buffer":0,
			"byteLength":784,
			"byteOffset":619308,
			"target":34962
		},
		{
			"buffer":0,
			"byteLength":3136,
			"byteOffset":620092,
			"target":34962
		},
		{
			"buffer":0,
			"byteLength":696,
			"byteOffset":623228,
			"target":34963
		},
		{
			"buffer":0,
			"byteLength":7920,
			"byteOffset":623924,
			"target":34962
		},
		{
			"buffer":0,
			"byteLength":7920,
			"byteOffset":631844,
			"target":34962
		},
		{
			"buffer":0,
			"byteLength":5280,
			"byteOffset":639764,
			"target":34962
		},
		{
			"buffer":0,
			"byteLength":2640,
			"byteOffset":645044,
			"target":34962
		},
		{
			"buffer":0,
			"byteLength":10560,
			"byteOffset":647684,
			"target":34962
		},
		{
			"buffer":0,
			"byteLength":2136,
			"byteOffset":658244,
			"target":34963
		},
		{
			"buffer":0,
			"byteLength":1992,
			"byteOffset":660380,
			"target":34962
		},
		{
			"buffer":0,
			"byteLength":1992,
			"byteOffset":662372,
			"target":34962
		},
		{
			"buffer":0,
			"byteLength":1328,
			"byteOffset":664364,
			"target":34962
		},
		{
			"buffer":0,
			"byteLength":664,
			"byteOffset":665692,
			"target":34962
		},
		{
			"buffer":0,
			"byteLength":2656,
			"byteOffset":666356,
			"target":34962
		},
		{
			"buffer":0,
			"byteLength":528,
			"byteOffset":669012,
			"target":34963
		},
		{
			"buffer":0,
			"byteLength":2112,
			"byteOffset":669540,
			"target":34962
		},
		{
			"buffer":0,
			"byteLength":2112,
			"byteOffset":671652,
			"target":34962
		},
		{
			"buffer":0,
			"byteLength":1408,
			"byteOffset":673764,
			"target":34962
		},
		{
			"buffer":0,
			"byteLength":704,
			"byteOffset":675172,
			"target":34962
		},
		{
			"buffer":0,
			"byteLength":2816,
			"byteOffset":675876,
			"target":34962
		},
		{
			"buffer":0,
			"byteLength":528,
			"byteOffset":678692,
			"target":34963
		},
		{
			"buffer":0,
			"byteLength":132,
			"byteOffset":679220
		},
		{
			"buffer":0,
			"byteLength":396,
			"byteOffset":679352
		},
		{
			"buffer":0,
			"byteLength":8,
			"byteOffset":679748
		},
		{
			"buffer":0,
			"byteLength":32,
			"byteOffset":679756
		},
		{
			"buffer":0,
			"byteLength":24,
			"byteOffset":679788
		},
		{
			"buffer":0,
			"byteLength":24,
			"byteOffset":679812
		},
		{
			"buffer":0,
			"byteLength":32,
			"byteOffset":679836
		},
		{
			"buffer":0,
			"byteLength":24,
			"byteOffset":679868
		},
		{
			"buffer":0,
			"byteLength":24,
			"byteOffset":679892
		},
		{
			"buffer":0,
			"byteLength":32,
			"byteOffset":679916
		},
		{
			"buffer":0,
			"byteLength":24,
			"byteOffset":679948
		},
		{
			"buffer":0,
			"byteLength":24,
			"byteOffset":679972
		},
		{
			"buffer":0,
			"byteLength":32,
			"byteOffset":679996
		},
		{
			"buffer":0,
			"byteLength":24,
			"byteOffset":680028
		},
		{
			"buffer":0,
			"byteLength":24,
			"byteOffset":680052
		},
		{
			"buffer":0,
			"byteLength":32,
			"byteOffset":680076
		},
		{
			"buffer":0,
			"byteLength":24,
			"byteOffset":680108
		},
		{
			"buffer":0,
			"byteLength":24,
			"byteOffset":680132
		},
		{
			"buffer":0,
			"byteLength":32,
			"byteOffset":680156
		},
		{
			"buffer":0,
			"byteLength":24,
			"byteOffset":680188
		},
		{
			"buffer":0,
			"byteLength":24,
			"byteOffset":680212
		},
		{
			"buffer":0,
			"byteLength":32,
			"byteOffset":680236
		},
		{
			"buffer":0,
			"byteLength":24,
			"byteOffset":680268
		},
		{
			"buffer":0,
			"byteLength":24,
			"byteOffset":680292
		},
		{
			"buffer":0,
			"byteLength":32,
			"byteOffset":680316
		},
		{
			"buffer":0,
			"byteLength":24,
			"byteOffset":680348
		},
		{
			"buffer":0,
			"byteLength":24,
			"byteOffset":680372
		},
		{
			"buffer":0,
			"byteLength":528,
			"byteOffset":680396
		},
		{
			"buffer":0,
			"byteLength":24,
			"byteOffset":680924
		},
		{
			"buffer":0,
			"byteLength":24,
			"byteOffset":680948
		},
		{
			"buffer":0,
			"byteLength":528,
			"byteOffset":680972
		},
		{
			"buffer":0,
			"byteLength":24,
			"byteOffset":681500
		},
		{
			"buffer":0,
			"byteLength":24,
			"byteOffset":681524
		},
		{
			"buffer":0,
			"byteLength":528,
			"byteOffset":681548
		},
		{
			"buffer":0,
			"byteLength":24,
			"byteOffset":682076
		},
		{
			"buffer":0,
			"byteLength":24,
			"byteOffset":682100
		},
		{
			"buffer":0,
			"byteLength":528,
			"byteOffset":682124
		},
		{
			"buffer":0,
			"byteLength":24,
			"byteOffset":682652
		},
		{
			"buffer":0,
			"byteLength":24,
			"byteOffset":682676
		},
		{
			"buffer":0,
			"byteLength":528,
			"byteOffset":682700
		},
		{
			"buffer":0,
			"byteLength":24,
			"byteOffset":683228
		},
		{
			"buffer":0,
			"byteLength":24,
			"byteOffset":683252
		},
		{
			"buffer":0,
			"byteLength":528,
			"byteOffset":683276
		},
		{
			"buffer":0,
			"byteLength":24,
			"byteOffset":683804
		},
		{
			"buffer":0,
			"byteLength":24,
			"byteOffset":683828
		},
		{
			"buffer":0,
			"byteLength":528,
			"byteOffset":683852
		},
		{
			"buffer":0,
			"byteLength":24,
			"byteOffset":684380
		},
		{
			"buffer":0,
			"byteLength":24,
			"byteOffset":684404
		},
		{
			"buffer":0,
			"byteLength":528,
			"byteOffset":684428
		},
		{
			"buffer":0,
			"byteLength":24,
			"byteOffset":684956
		},
		{
			"buffer":0,
			"byteLength":24,
			"byteOffset":684980
		},
		{
			"buffer":0,
			"byteLength":528,
			"byteOffset":685004
		},
		{
			"buffer":0,
			"byteLength":24,
			"byteOffset":685532
		},
		{
			"buffer":0,
			"byteLength":24,
			"byteOffset":685556
		},
		{
			"buffer":0,
			"byteLength":528,
			"byteOffset":685580
		},
		{
			"buffer":0,
			"byteLength":24,
			"byteOffset":686108
		},
		{
			"buffer":0,
			"byteLength":24,
			"byteOffset":686132
		},
		{
			"buffer":0,
			"byteLength":528,
			"byteOffset":686156
		},
		{
			"buffer":0,
			"byteLength":24,
			"byteOffset":686684
		},
		{
			"buffer":0,
			"byteLength":24,
			"byteOffset":686708
		},
		{
			"buffer":0,
			"byteLength":528,
			"byteOffset":686732
		},
		{
			"buffer":0,
			"byteLength":24,
			"byteOffset":687260
		},
		{
			"buffer":0,
			"byteLength":24,
			"byteOffset":687284
		},
		{
			"buffer":0,
			"byteLength":528,
			"byteOffset":687308
		},
		{
			"buffer":0,
			"byteLength":24,
			"byteOffset":687836
		},
		{
			"buffer":0,
			"byteLength":24,
			"byteOffset":687860
		},
		{
			"buffer":0,
			"byteLength":528,
			"byteOffset":687884
		},
		{
			"buffer":0,
			"byteLength":24,
			"byteOffset":688412
		},
		{
			"buffer":0,
			"byteLength":24,
			"byteOffset":688436
		},
		{
			"buffer":0,
			"byteLength":528,
			"byteOffset":688460
		},
		{
			"buffer":0,
			"byteLength":24,
			"byteOffset":688988
		}
	],
	"buffers":[
		{
			"byteLength":689012,
			"uri":"shrimp_walk.bin"
		}
	]
}
