{
	"asset":{
		"generator":"Khronos glTF Blender I/O v4.4.56",
		"version":"2.0"
	},
	"scene":0,
	"scenes":[
		{
			"name":"Scene",
			"nodes":[
				0,
				1
			]
		}
	],
	"nodes":[
		{
			"mesh":0,
			"name":"ICO\u7403"
		},
		{
			"mesh":1,
			"name":"\u30c8\u30fc\u30e9\u30b9.002",
			"rotation":[
				0,
				0,
				-0.4241621792316437,
				0.9055862426757812
			],
			"scale":[
				0.2869309186935425,
				0.2869309186935425,
				0.2869309186935425
			],
			"translation":[
				0.6792101263999939,
				0.6285921931266785,
				-0.009425454773008823
			]
		}
	],
	"materials":[
		{
			"doubleSided":true,
			"name":"\u30de\u30c6\u30ea\u30a2\u30eb",
			"pbrMetallicRoughness":{
				"baseColorFactor":[
					0.8014277219772339,
					0.07427944988012314,
					0,
					1
				],
				"metallicFactor":0,
				"roughnessFactor":0.5
			}
		},
		{
			"doubleSided":true,
			"name":"\u30de\u30c6\u30ea\u30a2\u30eb.001",
			"pbrMetallicRoughness":{
				"baseColorFactor":[
					0.08848551660776138,
					0.08848551660776138,
					0.08848551660776138,
					1
				],
				"metallicFactor":0,
				"roughnessFactor":0.5
			}
		}
	],
	"meshes":[
		{
			"name":"ICO\u7403",
			"primitives":[
				{
					"attributes":{
						"POSITION":0,
						"NORMAL":1,
						"TEXCOORD_0":2
					},
					"indices":3,
					"material":0
				}
			]
		},
		{
			"name":"\u30c8\u30fc\u30e9\u30b9.002",
			"primitives":[
				{
					"attributes":{
						"POSITION":4,
						"NORMAL":5,
						"TEXCOORD_0":6
					},
					"indices":7,
					"material":1
				}
			]
		}
	],
	"accessors":[
		{
			"bufferView":0,
			"componentType":5126,
			"count":713,
			"max":[
				1.1466679573059082,
				1.4278861284255981,
				1.2371788024902344
			],
			"min":[
				-1.1466679573059082,
				-1.4278861284255981,
				-1.2371788024902344
			],
			"type":"VEC3"
		},
		{
			"bufferView":1,
			"componentType":5126,
			"count":713,
			"type":"VEC3"
		},
		{
			"bufferView":2,
			"componentType":5126,
			"count":713,
			"type":"VEC2"
		},
		{
			"bufferView":3,
			"componentType":5123,
			"count":2100,
			"type":"SCALAR"
		},
		{
			"bufferView":4,
			"componentType":5126,
			"count":7007,
			"max":[
				3.8166916370391846,
				0.25,
				3.937192440032959
			],
			"min":[
				-3.6147775650024414,
				-6.999876499176025,
				-3.8714938163757324
			],
			"type":"VEC3"
		},
		{
			"bufferView":5,
			"componentType":5126,
			"count":7007,
			"type":"VEC3"
		},
		{
			"bufferView":6,
			"componentType":5126,
			"count":7007,
			"type":"VEC2"
		},
		{
			"bufferView":7,
			"componentType":5123,
			"count":38016,
			"type":"SCALAR"
		}
	],
	"bufferViews":[
		{
			"buffer":0,
			"byteLength":8556,
			"byteOffset":0,
			"target":34962
		},
		{
			"buffer":0,
			"byteLength":8556,
			"byteOffset":8556,
			"target":34962
		},
		{
			"buffer":0,
			"byteLength":5704,
			"byteOffset":17112,
			"target":34962
		},
		{
			"buffer":0,
			"byteLength":4200,
			"byteOffset":22816,
			"target":34963
		},
		{
			"buffer":0,
			"byteLength":84084,
			"byteOffset":27016,
			"target":34962
		},
		{
			"buffer":0,
			"byteLength":84084,
			"byteOffset":111100,
			"target":34962
		},
		{
			"buffer":0,
			"byteLength":56056,
			"byteOffset":195184,
			"target":34962
		},
		{
			"buffer":0,
			"byteLength":76032,
			"byteOffset":251240,
			"target":34963
		}
	],
	"buffers":[
		{
			"byteLength":327272,
			"uri":"Bomb.bin"
		}
	]
}
