# Blender 4.4.1
# www.blender.org
mtllib Screw.mtl
o 球
v 0.000000 2.184775 -0.592530
v 0.000000 1.459820 -0.886784
v 0.000000 0.512621 -1.046033
v 0.000000 0.000000 -1.066526
v 0.000000 -0.512621 -1.046033
v 0.000000 -1.459820 -0.886784
v 0.040592 2.577117 -0.204071
v 0.079625 2.427592 -0.400300
v 0.115597 2.184775 -0.581145
v 0.147127 1.857998 -0.739657
v 0.173003 1.459820 -0.869745
v 0.192231 1.005541 -0.966409
v 0.204071 0.512621 -1.025934
v 0.208069 0.000000 -1.046033
v 0.204071 -0.512621 -1.025934
v 0.192231 -1.005541 -0.966409
v 0.173003 -1.459820 -0.869745
v 0.147127 -1.857998 -0.739657
v 0.115597 -2.184775 -0.581145
v 0.079625 -2.427592 -0.400300
v 0.040592 -2.577117 -0.204071
v 0.079625 2.577117 -0.192231
v 0.156189 2.427592 -0.377074
v 0.226751 2.184775 -0.547426
v 0.288600 1.857998 -0.696742
v 0.339358 1.459820 -0.819282
v 0.377074 1.005541 -0.910337
v 0.400300 0.512621 -0.966409
v 0.408142 0.000000 -0.985342
v 0.400300 -0.512621 -0.966409
v 0.377074 -1.005541 -0.910337
v 0.339358 -1.459820 -0.819282
v 0.288600 -1.857998 -0.696742
v 0.226751 -2.184775 -0.547426
v 0.156189 -2.427592 -0.377074
v 0.079625 -2.577117 -0.192231
v 0.115597 2.577117 -0.173003
v 0.226751 2.427592 -0.339358
v 0.329192 2.184775 -0.492671
v 0.418982 1.857998 -0.627051
v 0.492671 1.459820 -0.737334
v 0.547426 1.005541 -0.819282
v 0.581145 0.512621 -0.869745
v 0.592530 0.000000 -0.886784
v 0.581145 -0.512621 -0.869745
v 0.547426 -1.005541 -0.819282
v 0.492671 -1.459820 -0.737334
v 0.418982 -1.857998 -0.627051
v 0.329192 -2.184775 -0.492671
v 0.226751 -2.427592 -0.339358
v 0.115597 -2.577117 -0.173003
v 0.147127 2.577117 -0.147127
v 0.288600 2.427592 -0.288600
v 0.418982 2.184775 -0.418982
v 0.533263 1.857998 -0.533263
v 0.627051 1.459820 -0.627051
v 0.696742 1.005541 -0.696742
v 0.739657 0.512621 -0.739657
v 0.754148 0.000000 -0.754148
v 0.739657 -0.512621 -0.739657
v 0.696742 -1.005541 -0.696742
v 0.627051 -1.459820 -0.627051
v 0.533263 -1.857998 -0.533263
v 0.418982 -2.184775 -0.418982
v 0.288600 -2.427592 -0.288600
v 0.147127 -2.577117 -0.147127
v 0.173003 2.577117 -0.115597
v 0.339358 2.427592 -0.226751
v 0.492671 2.184775 -0.329192
v 0.627051 1.857998 -0.418982
v 0.737334 1.459820 -0.492671
v 0.819282 1.005541 -0.547427
v 0.869745 0.512621 -0.581145
v 0.886784 0.000000 -0.592530
v 0.869745 -0.512621 -0.581145
v 0.819282 -1.005541 -0.547427
v 0.737334 -1.459820 -0.492671
v 0.627051 -1.857998 -0.418982
v 0.492671 -2.184775 -0.329192
v 0.339358 -2.427592 -0.226751
v 0.173003 -2.577117 -0.115597
v 0.000000 2.627606 0.000000
v 0.192231 2.577117 -0.079625
v 0.377074 2.427592 -0.156189
v 0.547426 2.184775 -0.226751
v 0.696742 1.857998 -0.288600
v 0.819282 1.459820 -0.339357
v 0.910337 1.005541 -0.377074
v 0.966408 0.512621 -0.400299
v 0.985342 0.000000 -0.408142
v 0.966408 -0.512621 -0.400299
v 0.910337 -1.005541 -0.377074
v 0.819282 -1.459820 -0.339357
v 0.696742 -1.857998 -0.288600
v 0.547426 -2.184775 -0.226751
v 0.377074 -2.427592 -0.156189
v 0.192231 -2.577117 -0.079625
v 0.204071 2.577117 -0.040592
v 0.400300 2.427592 -0.079625
v 0.581145 2.184775 -0.115597
v 0.739657 1.857998 -0.147127
v 0.869745 1.459820 -0.173003
v 0.966408 1.005541 -0.192231
v 1.025934 0.512621 -0.204071
v 1.046033 0.000000 -0.208069
v 1.025934 -0.512621 -0.204071
v 0.966408 -1.005541 -0.192231
v 0.869745 -1.459820 -0.173003
v 0.739657 -1.857998 -0.147127
v 0.581145 -2.184775 -0.115597
v 0.400300 -2.427592 -0.079625
v 0.204071 -2.577117 -0.040592
v 0.208069 2.577117 0.000000
v 0.408142 2.427592 0.000000
v 0.592530 2.184775 0.000000
v 0.754148 1.857998 -0.000000
v 0.886784 1.459820 0.000000
v 0.985342 1.005541 -0.000000
v 1.046033 0.512621 0.000000
v 1.066526 0.000000 0.000000
v 1.046033 -0.512621 0.000000
v 0.985342 -1.005541 -0.000000
v 0.886784 -1.459820 0.000000
v 0.754148 -1.857998 -0.000000
v 0.592530 -2.184775 0.000000
v 0.408142 -2.427592 0.000000
v 0.208069 -2.577117 0.000000
v 0.204071 2.577117 0.040592
v 0.400300 2.427592 0.079625
v 0.581145 2.184775 0.115597
v 0.739657 1.857998 0.147127
v 0.869745 1.459820 0.173003
v 0.966408 1.005541 0.192231
v 1.025934 0.512621 0.204071
v 1.046033 0.000000 0.208069
v 1.025934 -0.512621 0.204071
v 0.966408 -1.005541 0.192231
v 0.869745 -1.459820 0.173003
v 0.739657 -1.857998 0.147127
v 0.581145 -2.184775 0.115597
v 0.400300 -2.427592 0.079625
v 0.204071 -2.577117 0.040592
v 0.192231 2.577117 0.079625
v 0.377074 2.427592 0.156189
v 0.547426 2.184775 0.226751
v 0.696742 1.857998 0.288600
v 0.819281 1.459820 0.339358
v 0.910337 1.005541 0.377074
v 0.966408 0.512621 0.400300
v 0.985341 0.000000 0.408142
v 0.966408 -0.512621 0.400300
v 0.910337 -1.005541 0.377074
v 0.819281 -1.459820 0.339358
v 0.696742 -1.857998 0.288600
v 0.547426 -2.184775 0.226751
v 0.377074 -2.427592 0.156189
v 0.192231 -2.577117 0.079625
v 0.173003 2.577117 0.115597
v 0.339358 2.427592 0.226751
v 0.492671 2.184775 0.329192
v 0.627051 1.857998 0.418982
v 0.737334 1.459820 0.492671
v 0.819282 1.005541 0.547426
v 0.869745 0.512621 0.581145
v 0.886784 0.000000 0.592530
v 0.869745 -0.512621 0.581145
v 0.819282 -1.005541 0.547426
v 0.737334 -1.459820 0.492671
v 0.627051 -1.857998 0.418982
v 0.492671 -2.184775 0.329192
v 0.339358 -2.427592 0.226751
v 0.173003 -2.577117 0.115597
v 0.147127 2.577117 0.147127
v 0.288600 2.427592 0.288600
v 0.418982 2.184775 0.418982
v 0.533263 1.857998 0.533263
v 0.627051 1.459820 0.627051
v 0.696742 1.005541 0.696742
v 0.739657 0.512621 0.739657
v 0.754147 0.000000 0.754148
v 0.739657 -0.512621 0.739657
v 0.696742 -1.005541 0.696742
v 0.627051 -1.459820 0.627051
v 0.533263 -1.857998 0.533263
v 0.418982 -2.184775 0.418982
v 0.288600 -2.427592 0.288600
v 0.147127 -2.577117 0.147127
v 0.115597 2.577117 0.173003
v 0.226751 2.427592 0.339358
v 0.329192 2.184775 0.492671
v 0.418982 1.857998 0.627051
v 0.492671 1.459820 0.737334
v 0.547426 1.005541 0.819281
v 0.581145 0.512621 0.869745
v 0.592530 0.000000 0.886784
v 0.581145 -0.512621 0.869745
v 0.547426 -1.005541 0.819281
v 0.492671 -1.459820 0.737334
v 0.418982 -1.857998 0.627051
v 0.329192 -2.184775 0.492671
v 0.226751 -2.427592 0.339358
v 0.115597 -2.577117 0.173003
v 0.079624 2.577117 0.192231
v 0.156189 2.427592 0.377074
v 0.226751 2.184775 0.547426
v 0.288600 1.857998 0.696742
v 0.339357 1.459820 0.819281
v 0.377074 1.005541 0.910337
v 0.400299 0.512621 0.966408
v 0.408141 0.000000 0.985341
v 0.400299 -0.512621 0.966408
v 0.377074 -1.005541 0.910337
v 0.339357 -1.459820 0.819281
v 0.288600 -1.857998 0.696742
v 0.226751 -2.184775 0.547426
v 0.156189 -2.427592 0.377074
v 0.079624 -2.577117 0.192231
v 0.040592 2.577117 0.204071
v 0.079624 2.427592 0.400299
v 0.115597 2.184775 0.581145
v 0.147127 1.857998 0.739657
v 0.173003 1.459820 0.869744
v 0.192231 1.005541 0.966408
v 0.204071 0.512621 1.025934
v 0.208068 0.000000 1.046033
v 0.204071 -0.512621 1.025934
v 0.192231 -1.005541 0.966408
v 0.173003 -1.459820 0.869744
v 0.147127 -1.857998 0.739657
v 0.115597 -2.184775 0.581145
v 0.079624 -2.427592 0.400299
v 0.040592 -2.577117 0.204071
v -0.000000 2.577117 0.208069
v -0.000000 2.427592 0.408142
v -0.000000 2.184775 0.592530
v -0.000000 1.857998 0.754148
v -0.000000 1.459820 0.886784
v 0.000000 1.005541 0.985341
v -0.000000 0.512621 1.046033
v -0.000000 0.000000 1.066525
v -0.000000 -0.512621 1.046033
v 0.000000 -1.005541 0.985341
v -0.000000 -1.459820 0.886784
v -0.000000 -1.857998 0.754148
v -0.000000 -2.184775 0.592530
v -0.000000 -2.427592 0.408142
v -0.000000 -2.577117 0.208069
v -0.040592 2.577117 0.204071
v -0.079625 2.427592 0.400299
v -0.115597 2.184775 0.581145
v -0.147127 1.857998 0.739657
v -0.173003 1.459820 0.869744
v -0.192231 1.005541 0.966408
v -0.204071 0.512621 1.025934
v -0.208069 0.000000 1.046032
v -0.204071 -0.512621 1.025934
v -0.192231 -1.005541 0.966408
v -0.173003 -1.459820 0.869744
v -0.147127 -1.857998 0.739657
v -0.115597 -2.184775 0.581145
v -0.079625 -2.427592 0.400299
v -0.040592 -2.577117 0.204071
v -0.079624 2.577117 0.192230
v -0.156189 2.427592 0.377074
v -0.226751 2.184775 0.547426
v -0.288600 1.857998 0.696742
v -0.339358 1.459820 0.819281
v -0.377074 1.005541 0.910337
v -0.400300 0.512621 0.966408
v -0.408142 0.000000 0.985341
v -0.400300 -0.512621 0.966408
v -0.377074 -1.005541 0.910337
v -0.339358 -1.459820 0.819281
v -0.288600 -1.857998 0.696742
v -0.226751 -2.184775 0.547426
v -0.156189 -2.427592 0.377074
v -0.079624 -2.577117 0.192230
v -0.115597 2.577117 0.173003
v -0.226751 2.427592 0.339357
v -0.329192 2.184775 0.492670
v -0.418982 1.857998 0.627051
v -0.492671 1.459820 0.737334
v -0.547426 1.005541 0.819281
v -0.581145 0.512621 0.869744
v -0.592530 0.000000 0.886783
v -0.581145 -0.512621 0.869744
v -0.547426 -1.005541 0.819281
v -0.492671 -1.459820 0.737334
v -0.418982 -1.857998 0.627051
v -0.329192 -2.184775 0.492670
v -0.226751 -2.427592 0.339357
v -0.115597 -2.577117 0.173003
v -0.147127 2.577117 0.147127
v -0.288600 2.427592 0.288600
v -0.418982 2.184775 0.418982
v -0.533263 1.857998 0.533263
v -0.627051 1.459820 0.627051
v -0.696742 1.005541 0.696742
v -0.739657 0.512621 0.739657
v -0.754148 0.000000 0.754147
v -0.739657 -0.512621 0.739657
v -0.696742 -1.005541 0.696742
v -0.627051 -1.459820 0.627051
v -0.533263 -1.857998 0.533263
v -0.418982 -2.184775 0.418982
v -0.288600 -2.427592 0.288600
v -0.147127 -2.577117 0.147127
v 0.000000 -2.627606 0.000000
v -0.173003 2.577117 0.115597
v -0.339357 2.427592 0.226751
v -0.492671 2.184775 0.329192
v -0.627051 1.857998 0.418982
v -0.737334 1.459820 0.492670
v -0.819281 1.005541 0.547426
v -0.869745 0.512621 0.581144
v -0.886784 0.000000 0.592529
v -0.869745 -0.512621 0.581144
v -0.819281 -1.005541 0.547426
v -0.737334 -1.459820 0.492670
v -0.627051 -1.857998 0.418982
v -0.492671 -2.184775 0.329192
v -0.339357 -2.427592 0.226751
v -0.173003 -2.577117 0.115597
v -0.192230 2.577117 0.079624
v -0.377074 2.427592 0.156189
v -0.547426 2.184775 0.226751
v -0.696742 1.857998 0.288600
v -0.819281 1.459820 0.339357
v -0.910337 1.005541 0.377074
v -0.966408 0.512621 0.400299
v -0.985341 0.000000 0.408141
v -0.966408 -0.512621 0.400299
v -0.910337 -1.005541 0.377074
v -0.819281 -1.459820 0.339357
v -0.696742 -1.857998 0.288600
v -0.547426 -2.184775 0.226751
v -0.377074 -2.427592 0.156189
v -0.192230 -2.577117 0.079624
v -0.204071 2.577117 0.040592
v -0.400299 2.427592 0.079624
v -0.581144 2.184775 0.115597
v -0.739657 1.857998 0.147127
v -0.869744 1.459820 0.173003
v -0.966408 1.005541 0.192231
v -1.025934 0.512621 0.204071
v -1.046032 0.000000 0.208068
v -1.025934 -0.512621 0.204071
v -0.966408 -1.005541 0.192231
v -0.869744 -1.459820 0.173003
v -0.739657 -1.857998 0.147127
v -0.581144 -2.184775 0.115597
v -0.400299 -2.427592 0.079624
v -0.204071 -2.577117 0.040592
v -0.208069 2.577117 -0.000000
v -0.408142 2.427592 -0.000000
v -0.592530 2.184775 -0.000000
v -0.754148 1.857998 -0.000000
v -0.886784 1.459820 -0.000000
v -0.985341 1.005541 -0.000000
v -1.046033 0.512621 -0.000000
v -1.066525 0.000000 -0.000000
v -1.046033 -0.512621 -0.000000
v -0.985341 -1.005541 -0.000000
v -0.886784 -1.459820 -0.000000
v -0.754148 -1.857998 -0.000000
v -0.592530 -2.184775 -0.000000
v -0.408142 -2.427592 -0.000000
v -0.208069 -2.577117 -0.000000
v -0.204071 2.577117 -0.040592
v -0.400299 2.427592 -0.079625
v -0.581144 2.184775 -0.115597
v -0.739657 1.857998 -0.147127
v -0.869744 1.459820 -0.173003
v -0.966408 1.005541 -0.192231
v -1.025933 0.512621 -0.204071
v -1.046032 0.000000 -0.208069
v -1.025933 -0.512621 -0.204071
v -0.966408 -1.005541 -0.192231
v -0.869744 -1.459820 -0.173003
v -0.739657 -1.857998 -0.147127
v -0.581144 -2.184775 -0.115597
v -0.400299 -2.427592 -0.079625
v -0.204071 -2.577117 -0.040592
v -0.192230 2.577117 -0.079624
v -0.377074 2.427592 -0.156189
v -0.547426 2.184775 -0.226751
v -0.696742 1.857998 -0.288600
v -0.819281 1.459820 -0.339358
v -0.910337 1.005541 -0.377074
v -0.966408 0.512621 -0.400300
v -0.985341 0.000000 -0.408142
v -0.966408 -0.512621 -0.400300
v -0.910337 -1.005541 -0.377074
v -0.819281 -1.459820 -0.339358
v -0.696742 -1.857998 -0.288600
v -0.547426 -2.184775 -0.226751
v -0.377074 -2.427592 -0.156189
v -0.192230 -2.577117 -0.079624
v -0.173003 2.577117 -0.115597
v -0.339357 2.427592 -0.226751
v -0.492670 2.184775 -0.329192
v -0.627051 1.857998 -0.418982
v -0.737333 1.459820 -0.492671
v -0.819281 1.005541 -0.547426
v -0.869744 0.512621 -0.581145
v -0.886783 0.000000 -0.592530
v -0.869744 -0.512621 -0.581145
v -0.819281 -1.005541 -0.547426
v -0.737333 -1.459820 -0.492671
v -0.627051 -1.857998 -0.418982
v -0.492670 -2.184775 -0.329192
v -0.339357 -2.427592 -0.226751
v -0.173003 -2.577117 -0.115597
v -0.147127 2.577117 -0.147127
v -0.288600 2.427592 -0.288600
v -0.418982 2.184775 -0.418982
v -0.533263 1.857998 -0.533263
v -0.627050 1.459820 -0.627051
v -0.696741 1.005541 -0.696741
v -0.739657 0.512621 -0.739657
v -0.754147 0.000000 -0.754147
v -0.739657 -0.512621 -0.739657
v -0.696741 -1.005541 -0.696741
v -0.627050 -1.459820 -0.627051
v -0.533263 -1.857998 -0.533263
v -0.418982 -2.184775 -0.418982
v -0.288600 -2.427592 -0.288600
v -0.147127 -2.577117 -0.147127
v -0.115597 2.577117 -0.173003
v -0.226751 2.427592 -0.339357
v -0.329192 2.184775 -0.492670
v -0.418982 1.857998 -0.627051
v -0.492670 1.459820 -0.737334
v -0.547426 1.005541 -0.819281
v -0.581144 0.512621 -0.869744
v -0.592529 0.000000 -0.886783
v -0.581144 -0.512621 -0.869744
v -0.547426 -1.005541 -0.819281
v -0.492670 -1.459820 -0.737334
v -0.418982 -1.857998 -0.627051
v -0.329192 -2.184775 -0.492670
v -0.226751 -2.427592 -0.339357
v -0.115597 -2.577117 -0.173003
v -0.079624 2.577117 -0.192230
v -0.156189 2.427592 -0.377074
v -0.226751 2.184775 -0.547426
v -0.288600 1.857998 -0.696742
v -0.339357 1.459820 -0.819281
v -0.377074 1.005541 -0.910337
v -0.400299 0.512621 -0.966408
v -0.408141 0.000000 -0.985341
v -0.400299 -0.512621 -0.966408
v -0.377074 -1.005541 -0.910337
v -0.339357 -1.459820 -0.819281
v -0.288600 -1.857998 -0.696742
v -0.226751 -2.184775 -0.547426
v -0.156189 -2.427592 -0.377074
v -0.079624 -2.577117 -0.192230
v -0.040592 2.577117 -0.204071
v -0.079624 2.427592 -0.400299
v -0.115597 2.184775 -0.581144
v -0.147127 1.857998 -0.739657
v -0.173003 1.459820 -0.869744
v -0.192230 1.005541 -0.966408
v -0.204071 0.512621 -1.025933
v -0.208068 0.000000 -1.046032
v -0.204071 -0.512621 -1.025933
v -0.192230 -1.005541 -0.966408
v -0.173003 -1.459820 -0.869744
v -0.147127 -1.857998 -0.739657
v -0.115597 -2.184775 -0.581144
v -0.079624 -2.427592 -0.400299
v -0.040592 -2.577117 -0.204071
v 0.000000 2.577117 -0.208069
v 0.000000 2.427592 -0.408142
v 0.000000 1.857998 -0.754148
v 0.000000 1.005541 -0.985341
v 0.000000 -1.005541 -0.985341
v 0.000000 -1.857998 -0.754148
v 0.000000 -2.184775 -0.592529
v 0.000000 -2.427592 -0.408142
v 0.000000 -2.577117 -0.208069
v -3.064906 0.709637 -0.560516
v -0.415831 0.970376 0.044008
v -3.064906 -1.584235 -1.392132
v -0.645585 -0.301547 -0.858834
v -3.064906 -0.508113 -0.870780
v -0.530708 0.263600 -0.301869
v -3.064906 0.060767 -0.624302
v -0.473270 0.576993 -0.037585
v -0.588147 -0.027655 -0.576352
v -3.064906 -1.054856 -1.127456
v 2.644423 0.623595 -2.004313
v -0.644376 0.852720 0.088315
v 3.502473 -1.392150 -1.159481
v 0.518305 -0.264985 0.770747
v 2.964549 -0.446506 -1.689118
v -0.171934 0.231639 0.322310
v 2.710237 0.053399 -1.939513
v -0.502404 0.507034 0.112515
v 0.169059 -0.024302 0.542465
v 3.229385 -0.926957 -1.428363
v 1.425700 0.722821 2.429944
v -0.214663 0.988404 0.200789
v 0.872243 -1.613667 3.071198
v -0.638360 -0.307149 1.049870
v 1.219213 -0.517553 2.669187
v -0.356270 0.268497 0.543945
v 1.383248 0.061896 2.479130
v -0.224675 0.587713 0.301931
v -0.494653 -0.028169 0.793824
v 1.048390 -1.074453 2.867109
vn -0.0000 -0.8925 -0.4511
vn -0.0000 -0.6942 -0.7198
vn 0.1404 -0.6942 -0.7059
vn 0.0880 -0.8925 -0.4424
vn -0.0000 -0.0000 -1.0000
vn -0.0000 0.0800 -0.9968
vn 0.1945 0.0800 -0.9776
vn 0.1951 -0.0000 -0.9808
vn -0.0000 0.8925 -0.4511
vn -0.0000 1.0000 -0.0000
vn 0.0880 0.8925 -0.4424
vn -0.0000 -1.0000 -0.0000
vn -0.0000 -0.0800 -0.9968
vn 0.1945 -0.0800 -0.9776
vn -0.0000 0.6942 -0.7198
vn 0.1404 0.6942 -0.7059
vn -0.0000 -0.1647 -0.9863
vn 0.1924 -0.1647 -0.9674
vn -0.0000 0.5150 -0.8572
vn 0.1672 0.5150 -0.8407
vn -0.0000 -0.2600 -0.9656
vn 0.1884 -0.2600 -0.9471
vn -0.0000 0.3733 -0.9277
vn 0.1810 0.3733 -0.9099
vn -0.0000 -0.3733 -0.9277
vn 0.1810 -0.3733 -0.9099
vn -0.0000 0.2600 -0.9656
vn 0.1884 0.2600 -0.9471
vn -0.0000 -0.5150 -0.8572
vn 0.1672 -0.5150 -0.8407
vn -0.0000 0.1647 -0.9863
vn 0.1924 0.1647 -0.9674
vn 0.3695 0.2600 -0.8921
vn 0.3775 0.1647 -0.9113
vn 0.3280 -0.5150 -0.7919
vn 0.2754 -0.6942 -0.6650
vn 0.3815 0.0800 -0.9209
vn 0.1726 -0.8925 -0.4168
vn 0.3827 -0.0000 -0.9239
vn 0.1726 0.8925 -0.4168
vn 0.3815 -0.0800 -0.9209
vn 0.2754 0.6942 -0.6650
vn 0.3775 -0.1647 -0.9113
vn 0.3280 0.5150 -0.7919
vn 0.3695 -0.2600 -0.8921
vn 0.3550 0.3733 -0.8571
vn 0.3550 -0.3733 -0.8571
vn 0.5538 -0.0800 -0.8288
vn 0.5480 -0.1647 -0.8201
vn 0.3999 0.6942 -0.5985
vn 0.4762 0.5150 -0.7127
vn 0.5365 -0.2600 -0.8029
vn 0.5154 0.3733 -0.7714
vn 0.5154 -0.3733 -0.7714
vn 0.5365 0.2600 -0.8029
vn 0.4762 -0.5150 -0.7127
vn 0.5480 0.1647 -0.8201
vn 0.3999 -0.6942 -0.5985
vn 0.5538 0.0800 -0.8288
vn 0.2506 -0.8925 -0.3751
vn 0.5556 -0.0000 -0.8315
vn 0.2506 0.8925 -0.3751
vn 0.6061 -0.5150 -0.6061
vn 0.5090 -0.6942 -0.5090
vn 0.6974 0.1647 -0.6974
vn 0.7048 0.0800 -0.7048
vn 0.3190 -0.8925 -0.3190
vn 0.7071 -0.0000 -0.7071
vn 0.3190 0.8925 -0.3190
vn 0.7048 -0.0800 -0.7048
vn 0.5090 0.6942 -0.5090
vn 0.6974 -0.1647 -0.6974
vn 0.6061 0.5150 -0.6061
vn 0.6828 -0.2600 -0.6828
vn 0.6560 0.3733 -0.6560
vn 0.6560 -0.3733 -0.6560
vn 0.6828 0.2600 -0.6828
vn 0.8201 -0.1647 -0.5480
vn 0.8029 -0.2600 -0.5365
vn 0.7127 0.5150 -0.4762
vn 0.7714 0.3733 -0.5154
vn 0.7714 -0.3733 -0.5154
vn 0.8029 0.2600 -0.5365
vn 0.7127 -0.5150 -0.4762
vn 0.8201 0.1647 -0.5480
vn 0.5985 -0.6942 -0.3999
vn 0.8288 0.0800 -0.5538
vn 0.3751 -0.8925 -0.2506
vn 0.8315 -0.0000 -0.5556
vn 0.3751 0.8925 -0.2506
vn 0.8288 -0.0800 -0.5538
vn 0.5985 0.6942 -0.3999
vn 0.6650 -0.6942 -0.2754
vn 0.4168 -0.8925 -0.1726
vn 0.9209 0.0800 -0.3815
vn 0.9239 -0.0000 -0.3827
vn 0.4168 0.8925 -0.1726
vn 0.9209 -0.0800 -0.3815
vn 0.6650 0.6942 -0.2754
vn 0.9113 -0.1647 -0.3775
vn 0.7919 0.5150 -0.3280
vn 0.8921 -0.2600 -0.3695
vn 0.8571 0.3733 -0.3550
vn 0.8571 -0.3733 -0.3550
vn 0.8921 0.2600 -0.3695
vn 0.7919 -0.5150 -0.3280
vn 0.9113 0.1647 -0.3775
vn 0.8407 0.5150 -0.1672
vn 0.9099 0.3733 -0.1810
vn 0.9471 -0.2600 -0.1884
vn 0.9099 -0.3733 -0.1810
vn 0.9471 0.2600 -0.1884
vn 0.8407 -0.5150 -0.1672
vn 0.9674 0.1647 -0.1924
vn 0.7059 -0.6942 -0.1404
vn 0.9776 0.0800 -0.1945
vn 0.4424 -0.8925 -0.0880
vn 0.9808 -0.0000 -0.1951
vn 0.4424 0.8925 -0.0880
vn 0.9776 -0.0800 -0.1945
vn 0.7059 0.6942 -0.1404
vn 0.9674 -0.1647 -0.1924
vn 0.9968 0.0800 -0.0000
vn 1.0000 -0.0000 -0.0000
vn 0.4511 0.8925 -0.0000
vn 0.4511 -0.8925 -0.0000
vn 0.9968 -0.0800 -0.0000
vn 0.7198 0.6942 -0.0000
vn 0.9863 -0.1647 -0.0000
vn 0.8572 0.5150 -0.0000
vn 0.9656 -0.2600 -0.0000
vn 0.9277 0.3733 -0.0000
vn 0.9277 -0.3733 -0.0000
vn 0.9656 0.2600 -0.0000
vn 0.8572 -0.5150 -0.0000
vn 0.9863 0.1647 -0.0000
vn 0.7198 -0.6942 -0.0000
vn 0.9471 -0.2600 0.1884
vn 0.9099 -0.3733 0.1810
vn 0.9099 0.3733 0.1810
vn 0.9471 0.2600 0.1884
vn 0.8407 -0.5150 0.1672
vn 0.9674 0.1647 0.1924
vn 0.7059 -0.6942 0.1404
vn 0.9776 0.0800 0.1945
vn 0.4424 -0.8925 0.0880
vn 0.9808 -0.0000 0.1951
vn 0.4424 0.8925 0.0880
vn 0.9776 -0.0800 0.1945
vn 0.7059 0.6942 0.1404
vn 0.9674 -0.1647 0.1924
vn 0.8407 0.5150 0.1672
vn 0.4168 0.8925 0.1726
vn 0.4168 -0.8925 0.1726
vn 0.9239 -0.0000 0.3827
vn 0.9209 -0.0800 0.3815
vn 0.6650 0.6942 0.2754
vn 0.9113 -0.1647 0.3775
vn 0.7919 0.5150 0.3280
vn 0.8921 -0.2600 0.3695
vn 0.8571 0.3733 0.3550
vn 0.8571 -0.3733 0.3550
vn 0.8921 0.2600 0.3695
vn 0.7919 -0.5150 0.3280
vn 0.9113 0.1647 0.3775
vn 0.6650 -0.6942 0.2754
vn 0.9209 0.0800 0.3815
vn 0.7714 0.3733 0.5154
vn 0.8029 0.2600 0.5365
vn 0.7714 -0.3733 0.5154
vn 0.7127 -0.5150 0.4762
vn 0.8201 0.1647 0.5480
vn 0.5985 -0.6942 0.3999
vn 0.8288 0.0800 0.5538
vn 0.3751 -0.8925 0.2506
vn 0.8315 -0.0000 0.5556
vn 0.3751 0.8925 0.2506
vn 0.8288 -0.0800 0.5538
vn 0.5985 0.6942 0.3999
vn 0.8201 -0.1647 0.5480
vn 0.7127 0.5150 0.4762
vn 0.8029 -0.2600 0.5365
vn 0.7071 -0.0000 0.7071
vn 0.7048 -0.0800 0.7048
vn 0.3190 0.8925 0.3190
vn 0.5090 0.6942 0.5090
vn 0.6974 -0.1647 0.6974
vn 0.6061 0.5150 0.6061
vn 0.6828 -0.2600 0.6828
vn 0.6560 0.3733 0.6560
vn 0.6560 -0.3733 0.6560
vn 0.6828 0.2600 0.6828
vn 0.6061 -0.5150 0.6061
vn 0.6974 0.1647 0.6974
vn 0.5090 -0.6942 0.5090
vn 0.7048 0.0800 0.7048
vn 0.3190 -0.8925 0.3190
vn 0.5154 -0.3733 0.7714
vn 0.4762 -0.5150 0.7127
vn 0.5365 0.2600 0.8029
vn 0.5480 0.1647 0.8201
vn 0.3999 -0.6942 0.5985
vn 0.5538 0.0800 0.8288
vn 0.2506 -0.8925 0.3751
vn 0.5556 -0.0000 0.8315
vn 0.2506 0.8925 0.3751
vn 0.5538 -0.0800 0.8288
vn 0.3999 0.6942 0.5985
vn 0.5480 -0.1647 0.8201
vn 0.4762 0.5150 0.7127
vn 0.5365 -0.2600 0.8029
vn 0.5154 0.3733 0.7714
vn 0.3815 -0.0800 0.9209
vn 0.3775 -0.1647 0.9113
vn 0.2754 0.6942 0.6650
vn 0.3280 0.5150 0.7919
vn 0.3695 -0.2600 0.8921
vn 0.3550 0.3733 0.8571
vn 0.3550 -0.3733 0.8571
vn 0.3695 0.2600 0.8921
vn 0.3280 -0.5150 0.7919
vn 0.3775 0.1647 0.9113
vn 0.2754 -0.6942 0.6650
vn 0.3815 0.0800 0.9209
vn 0.1726 -0.8925 0.4168
vn 0.3827 -0.0000 0.9239
vn 0.1726 0.8925 0.4168
vn 0.1672 -0.5150 0.8407
vn 0.1404 -0.6942 0.7059
vn 0.1924 0.1647 0.9674
vn 0.1945 0.0800 0.9776
vn 0.0880 -0.8925 0.4424
vn 0.1951 -0.0000 0.9808
vn 0.0880 0.8925 0.4424
vn 0.1945 -0.0800 0.9776
vn 0.1404 0.6942 0.7059
vn 0.1924 -0.1647 0.9674
vn 0.1672 0.5150 0.8407
vn 0.1884 -0.2600 0.9471
vn 0.1810 0.3733 0.9099
vn 0.1810 -0.3733 0.9099
vn 0.1884 0.2600 0.9471
vn -0.0000 0.6942 0.7198
vn -0.0000 0.5150 0.8572
vn -0.0000 -0.1647 0.9863
vn -0.0000 -0.2600 0.9656
vn -0.0000 0.3733 0.9277
vn -0.0000 -0.3733 0.9277
vn -0.0000 0.2600 0.9656
vn -0.0000 -0.5150 0.8572
vn -0.0000 0.1647 0.9863
vn -0.0000 -0.6942 0.7198
vn -0.0000 0.0800 0.9968
vn -0.0000 -0.8925 0.4511
vn -0.0000 -0.0000 1.0000
vn -0.0000 0.8925 0.4511
vn -0.0000 -0.0800 0.9968
vn -0.1924 0.1647 0.9674
vn -0.1945 0.0800 0.9776
vn -0.1404 -0.6942 0.7059
vn -0.0880 -0.8925 0.4424
vn -0.1951 -0.0000 0.9808
vn -0.0880 0.8925 0.4424
vn -0.1945 -0.0800 0.9776
vn -0.1404 0.6942 0.7059
vn -0.1924 -0.1647 0.9674
vn -0.1672 0.5150 0.8407
vn -0.1884 -0.2600 0.9471
vn -0.1810 0.3733 0.9099
vn -0.1810 -0.3733 0.9099
vn -0.1884 0.2600 0.9471
vn -0.1672 -0.5150 0.8407
vn -0.3775 -0.1647 0.9113
vn -0.3695 -0.2600 0.8921
vn -0.3280 0.5150 0.7919
vn -0.3550 0.3733 0.8571
vn -0.3550 -0.3733 0.8571
vn -0.3695 0.2600 0.8921
vn -0.3280 -0.5150 0.7919
vn -0.3775 0.1647 0.9113
vn -0.2754 -0.6942 0.6650
vn -0.3815 0.0800 0.9209
vn -0.1726 -0.8925 0.4168
vn -0.3827 -0.0000 0.9239
vn -0.1726 0.8925 0.4168
vn -0.3815 -0.0800 0.9209
vn -0.2754 0.6942 0.6650
vn -0.3999 -0.6942 0.5985
vn -0.2506 -0.8925 0.3751
vn -0.5538 0.0800 0.8288
vn -0.5556 -0.0000 0.8315
vn -0.2506 0.8925 0.3751
vn -0.5538 -0.0800 0.8288
vn -0.3999 0.6942 0.5985
vn -0.5480 -0.1647 0.8201
vn -0.4762 0.5150 0.7127
vn -0.5365 -0.2600 0.8029
vn -0.5154 0.3733 0.7714
vn -0.5154 -0.3733 0.7714
vn -0.5365 0.2600 0.8029
vn -0.4762 -0.5150 0.7127
vn -0.5480 0.1647 0.8201
vn -0.6061 0.5150 0.6061
vn -0.6560 0.3733 0.6560
vn -0.6828 -0.2600 0.6828
vn -0.6560 -0.3733 0.6560
vn -0.6828 0.2600 0.6828
vn -0.6061 -0.5150 0.6061
vn -0.6974 0.1647 0.6974
vn -0.5090 -0.6942 0.5090
vn -0.7048 0.0800 0.7048
vn -0.3190 -0.8925 0.3190
vn -0.7071 -0.0000 0.7071
vn -0.3190 0.8925 0.3190
vn -0.7048 -0.0800 0.7048
vn -0.5090 0.6942 0.5090
vn -0.6974 -0.1647 0.6974
vn -0.8288 0.0800 0.5538
vn -0.8315 -0.0000 0.5556
vn -0.3751 0.8925 0.2506
vn -0.3751 -0.8925 0.2506
vn -0.8288 -0.0800 0.5538
vn -0.5985 0.6942 0.3999
vn -0.8201 -0.1647 0.5480
vn -0.7127 0.5150 0.4762
vn -0.8029 -0.2600 0.5365
vn -0.7714 0.3733 0.5154
vn -0.7714 -0.3733 0.5154
vn -0.8029 0.2600 0.5365
vn -0.7127 -0.5150 0.4762
vn -0.8201 0.1647 0.5480
vn -0.5985 -0.6942 0.3999
vn -0.8921 -0.2600 0.3695
vn -0.8571 -0.3733 0.3550
vn -0.8571 0.3733 0.3550
vn -0.8921 0.2600 0.3695
vn -0.7919 -0.5150 0.3280
vn -0.9113 0.1647 0.3775
vn -0.6650 -0.6942 0.2754
vn -0.9209 0.0800 0.3815
vn -0.4168 -0.8925 0.1726
vn -0.9239 -0.0000 0.3827
vn -0.4168 0.8925 0.1726
vn -0.9209 -0.0800 0.3815
vn -0.6650 0.6942 0.2754
vn -0.9113 -0.1647 0.3775
vn -0.7919 0.5150 0.3280
vn -0.4424 -0.8925 0.0880
vn -0.9808 -0.0000 0.1951
vn -0.9776 -0.0800 0.1945
vn -0.4424 0.8925 0.0880
vn -0.7059 0.6942 0.1404
vn -0.9674 -0.1647 0.1924
vn -0.8407 0.5150 0.1672
vn -0.9471 -0.2600 0.1884
vn -0.9099 0.3733 0.1810
vn -0.9099 -0.3733 0.1810
vn -0.9471 0.2600 0.1884
vn -0.8407 -0.5150 0.1672
vn -0.9674 0.1647 0.1924
vn -0.7059 -0.6942 0.1404
vn -0.9776 0.0800 0.1945
vn -0.9277 -0.3733 -0.0000
vn -0.8572 -0.5150 -0.0000
vn -0.9656 0.2600 -0.0000
vn -0.9863 0.1647 -0.0000
vn -0.7198 -0.6942 -0.0000
vn -0.9968 0.0800 -0.0000
vn -0.4511 -0.8925 -0.0000
vn -1.0000 -0.0000 -0.0000
vn -0.4511 0.8925 -0.0000
vn -0.9968 -0.0800 -0.0000
vn -0.7198 0.6942 -0.0000
vn -0.9863 -0.1647 -0.0000
vn -0.8572 0.5150 -0.0000
vn -0.9656 -0.2600 -0.0000
vn -0.9277 0.3733 -0.0000
vn -0.4424 0.8925 -0.0880
vn -0.7059 0.6942 -0.1404
vn -0.9776 -0.0800 -0.1945
vn -0.9674 -0.1647 -0.1924
vn -0.8407 0.5150 -0.1672
vn -0.9471 -0.2600 -0.1884
vn -0.9099 0.3733 -0.1810
vn -0.9099 -0.3733 -0.1810
vn -0.9471 0.2600 -0.1884
vn -0.8407 -0.5150 -0.1672
vn -0.9674 0.1647 -0.1924
vn -0.7059 -0.6942 -0.1404
vn -0.9776 0.0800 -0.1945
vn -0.4424 -0.8925 -0.0880
vn -0.9808 -0.0000 -0.1951
vn -0.8921 0.2600 -0.3695
vn -0.9113 0.1647 -0.3775
vn -0.7919 -0.5150 -0.3280
vn -0.6650 -0.6942 -0.2754
vn -0.9209 0.0800 -0.3815
vn -0.4168 -0.8925 -0.1726
vn -0.9239 -0.0000 -0.3827
vn -0.4168 0.8925 -0.1726
vn -0.9209 -0.0800 -0.3815
vn -0.6650 0.6942 -0.2754
vn -0.9113 -0.1647 -0.3775
vn -0.7919 0.5150 -0.3280
vn -0.8921 -0.2600 -0.3695
vn -0.8571 0.3733 -0.3550
vn -0.8571 -0.3733 -0.3550
vn -0.8288 -0.0800 -0.5538
vn -0.8201 -0.1647 -0.5480
vn -0.5985 0.6942 -0.3999
vn -0.7127 0.5150 -0.4762
vn -0.8029 -0.2600 -0.5365
vn -0.7714 0.3733 -0.5154
vn -0.7714 -0.3733 -0.5154
vn -0.8029 0.2600 -0.5365
vn -0.7127 -0.5150 -0.4762
vn -0.8201 0.1647 -0.5480
vn -0.5985 -0.6942 -0.3999
vn -0.8288 0.0800 -0.5538
vn -0.3751 -0.8925 -0.2506
vn -0.8315 -0.0000 -0.5556
vn -0.3751 0.8925 -0.2506
vn -0.6061 -0.5150 -0.6061
vn -0.5090 -0.6942 -0.5090
vn -0.6974 0.1647 -0.6974
vn -0.7048 0.0800 -0.7048
vn -0.3190 -0.8925 -0.3190
vn -0.7071 -0.0000 -0.7071
vn -0.3190 0.8925 -0.3190
vn -0.7048 -0.0800 -0.7048
vn -0.5090 0.6942 -0.5090
vn -0.6974 -0.1647 -0.6974
vn -0.6061 0.5150 -0.6061
vn -0.6828 -0.2600 -0.6828
vn -0.6560 0.3733 -0.6560
vn -0.6560 -0.3733 -0.6560
vn -0.6828 0.2600 -0.6828
vn -0.3999 0.6942 -0.5985
vn -0.4762 0.5150 -0.7127
vn -0.5480 -0.1647 -0.8201
vn -0.5365 -0.2600 -0.8029
vn -0.5154 0.3733 -0.7714
vn -0.5154 -0.3733 -0.7714
vn -0.5365 0.2600 -0.8029
vn -0.4762 -0.5150 -0.7127
vn -0.5480 0.1647 -0.8201
vn -0.3999 -0.6942 -0.5985
vn -0.5538 0.0800 -0.8288
vn -0.2506 -0.8925 -0.3751
vn -0.5556 -0.0000 -0.8315
vn -0.2506 0.8925 -0.3751
vn -0.5538 -0.0800 -0.8288
vn -0.3775 0.1647 -0.9113
vn -0.3815 0.0800 -0.9209
vn -0.2754 -0.6942 -0.6650
vn -0.1726 -0.8925 -0.4168
vn -0.3827 -0.0000 -0.9239
vn -0.1726 0.8925 -0.4168
vn -0.3815 -0.0800 -0.9209
vn -0.2754 0.6942 -0.6650
vn -0.3775 -0.1647 -0.9113
vn -0.3280 0.5150 -0.7919
vn -0.3695 -0.2600 -0.8921
vn -0.3550 0.3733 -0.8571
vn -0.3550 -0.3733 -0.8571
vn -0.3695 0.2600 -0.8921
vn -0.3280 -0.5150 -0.7919
vn -0.1924 -0.1647 -0.9674
vn -0.1884 -0.2600 -0.9471
vn -0.1672 0.5150 -0.8407
vn -0.1810 0.3733 -0.9099
vn -0.1810 -0.3733 -0.9099
vn -0.1884 0.2600 -0.9471
vn -0.1672 -0.5150 -0.8407
vn -0.1924 0.1647 -0.9674
vn -0.1404 -0.6942 -0.7059
vn -0.1945 0.0800 -0.9776
vn -0.0880 -0.8925 -0.4424
vn -0.1951 -0.0000 -0.9808
vn -0.0880 0.8925 -0.4424
vn -0.1945 -0.0800 -0.9776
vn -0.1404 0.6942 -0.7059
vn -0.0506 0.5532 -0.8315
vn -0.0319 0.5463 -0.8369
vn -0.0848 0.5651 -0.8207
vn 0.0704 0.4963 -0.8653
vn 0.0446 0.5105 -0.8587
vn 0.0285 0.5190 -0.8543
vn 0.2024 0.1243 -0.9714
vn 0.5086 0.7378 0.4438
vn 0.5035 0.7322 0.4587
vn 0.5184 0.7484 0.4137
vn 0.4751 0.6857 0.5514
vn 0.4824 0.6992 0.5277
vn 0.4866 0.7070 0.5132
vn 0.5415 0.2021 0.8161
vn -0.5050 0.5532 0.6626
vn -0.5227 0.5463 0.6545
vn -0.4720 0.5651 0.6767
vn -0.6186 0.4963 0.6091
vn -0.5948 0.5105 0.6210
vn -0.5798 0.5190 0.6281
vn -0.7879 0.1243 0.6031
vt 0.039088 0.129479
vt 0.069218 0.129479
vt 0.069219 0.144544
vt 0.039088 0.144544
vt 0.250000 0.129479
vt 0.280130 0.129479
vt 0.280130 0.144544
vt 0.250000 0.144544
vt 0.460912 0.129479
vt 0.491042 0.137012
vt 0.460912 0.144544
vt 0.008958 0.137012
vt 0.219870 0.129479
vt 0.219870 0.144544
vt 0.430782 0.129479
vt 0.430781 0.144544
vt 0.189739 0.129479
vt 0.189739 0.144544
vt 0.400651 0.129479
vt 0.400651 0.144544
vt 0.159609 0.129479
vt 0.159609 0.144544
vt 0.370521 0.129479
vt 0.370521 0.144544
vt 0.129479 0.129479
vt 0.129479 0.144544
vt 0.340391 0.129479
vt 0.340391 0.144544
vt 0.099349 0.129479
vt 0.099349 0.144544
vt 0.310261 0.129479
vt 0.310261 0.144544
vt 0.340391 0.159609
vt 0.310261 0.159609
vt 0.099349 0.159609
vt 0.069219 0.159609
vt 0.280130 0.159609
vt 0.039088 0.159609
vt 0.250000 0.159609
vt 0.491042 0.152077
vt 0.460912 0.159609
vt 0.008958 0.152077
vt 0.219870 0.159609
vt 0.430781 0.159609
vt 0.189739 0.159609
vt 0.400651 0.159609
vt 0.159609 0.159609
vt 0.370521 0.159609
vt 0.129479 0.159609
vt 0.219870 0.174674
vt 0.189739 0.174674
vt 0.430781 0.174674
vt 0.400651 0.174674
vt 0.159609 0.174674
vt 0.370521 0.174674
vt 0.129479 0.174674
vt 0.340391 0.174674
vt 0.099349 0.174674
vt 0.310261 0.174674
vt 0.069219 0.174674
vt 0.280130 0.174674
vt 0.039088 0.174674
vt 0.250000 0.174674
vt 0.491042 0.167142
vt 0.460912 0.174674
vt 0.008958 0.167142
vt 0.099349 0.189740
vt 0.069218 0.189740
vt 0.310261 0.189740
vt 0.280130 0.189740
vt 0.039088 0.189740
vt 0.250000 0.189740
vt 0.491042 0.182207
vt 0.460912 0.189740
vt 0.008958 0.182207
vt 0.219870 0.189740
vt 0.430782 0.189740
vt 0.189739 0.189740
vt 0.400651 0.189740
vt 0.159609 0.189740
vt 0.370521 0.189740
vt 0.129479 0.189740
vt 0.340391 0.189740
vt 0.189739 0.204805
vt 0.159609 0.204805
vt 0.400651 0.204805
vt 0.370521 0.204805
vt 0.129479 0.204805
vt 0.340391 0.204805
vt 0.099349 0.204805
vt 0.310261 0.204805
vt 0.069218 0.204805
vt 0.280130 0.204805
vt 0.039088 0.204805
vt 0.250000 0.204805
vt 0.491042 0.197272
vt 0.460912 0.204805
vt 0.008958 0.197272
vt 0.219870 0.204805
vt 0.430782 0.204805
vt 0.069218 0.219870
vt 0.039088 0.219870
vt 0.280130 0.219870
vt 0.250000 0.219870
vt 0.491042 0.212337
vt 0.460912 0.219870
vt 0.008958 0.212337
vt 0.219870 0.219870
vt 0.430782 0.219870
vt 0.189739 0.219870
vt 0.400651 0.219870
vt 0.159609 0.219870
vt 0.370521 0.219870
vt 0.129479 0.219870
vt 0.340391 0.219870
vt 0.099349 0.219870
vt 0.310261 0.219870
vt 0.400651 0.234935
vt 0.370521 0.234935
vt 0.159609 0.234935
vt 0.129479 0.234935
vt 0.340391 0.234935
vt 0.099349 0.234935
vt 0.310261 0.234935
vt 0.069218 0.234935
vt 0.280130 0.234935
vt 0.039088 0.234935
vt 0.250000 0.234935
vt 0.491042 0.227402
vt 0.460912 0.234935
vt 0.008958 0.227402
vt 0.219870 0.234935
vt 0.430782 0.234935
vt 0.189739 0.234935
vt 0.280130 0.250000
vt 0.250000 0.250000
vt 0.491042 0.242467
vt 0.460912 0.250000
vt 0.008958 0.242467
vt 0.039088 0.250000
vt 0.219870 0.250000
vt 0.430782 0.250000
vt 0.189739 0.250000
vt 0.400651 0.250000
vt 0.159609 0.250000
vt 0.370521 0.250000
vt 0.129479 0.250000
vt 0.340391 0.250000
vt 0.099349 0.250000
vt 0.310261 0.250000
vt 0.069218 0.250000
vt 0.159609 0.265065
vt 0.129479 0.265065
vt 0.370521 0.265065
vt 0.340391 0.265065
vt 0.099349 0.265065
vt 0.310261 0.265065
vt 0.069218 0.265065
vt 0.280130 0.265065
vt 0.039088 0.265065
vt 0.250000 0.265065
vt 0.491042 0.257533
vt 0.460912 0.265065
vt 0.008958 0.257533
vt 0.219870 0.265065
vt 0.430782 0.265065
vt 0.189739 0.265065
vt 0.400651 0.265065
vt 0.491042 0.272598
vt 0.460912 0.280130
vt 0.008958 0.272598
vt 0.039088 0.280130
vt 0.250000 0.280130
vt 0.219870 0.280130
vt 0.430782 0.280130
vt 0.189739 0.280130
vt 0.400651 0.280130
vt 0.159609 0.280130
vt 0.370521 0.280130
vt 0.129479 0.280130
vt 0.340391 0.280130
vt 0.099349 0.280130
vt 0.310261 0.280130
vt 0.069219 0.280130
vt 0.280130 0.280130
vt 0.370521 0.295195
vt 0.340391 0.295195
vt 0.129479 0.295195
vt 0.099349 0.295195
vt 0.310261 0.295195
vt 0.069219 0.295195
vt 0.280130 0.295195
vt 0.039088 0.295195
vt 0.250000 0.295195
vt 0.491042 0.287663
vt 0.460912 0.295195
vt 0.008958 0.287663
vt 0.219870 0.295195
vt 0.430782 0.295195
vt 0.189739 0.295195
vt 0.400651 0.295195
vt 0.159609 0.295195
vt 0.250000 0.310261
vt 0.219870 0.310261
vt 0.460912 0.310261
vt 0.430782 0.310261
vt 0.189739 0.310261
vt 0.400651 0.310261
vt 0.159609 0.310261
vt 0.370521 0.310261
vt 0.129479 0.310261
vt 0.340391 0.310261
vt 0.099349 0.310261
vt 0.310261 0.310261
vt 0.069219 0.310261
vt 0.280130 0.310261
vt 0.039088 0.310261
vt 0.491042 0.302728
vt 0.008958 0.302728
vt 0.129479 0.325326
vt 0.099349 0.325326
vt 0.340391 0.325326
vt 0.310261 0.325326
vt 0.069219 0.325326
vt 0.280130 0.325326
vt 0.039088 0.325326
vt 0.250000 0.325326
vt 0.491042 0.317793
vt 0.460912 0.325326
vt 0.008958 0.317793
vt 0.219870 0.325326
vt 0.430782 0.325326
vt 0.189739 0.325326
vt 0.400651 0.325326
vt 0.159609 0.325326
vt 0.370521 0.325326
vt 0.219870 0.340391
vt 0.189739 0.340391
vt 0.430782 0.340391
vt 0.400651 0.340391
vt 0.159609 0.340391
vt 0.370521 0.340391
vt 0.129479 0.340391
vt 0.340391 0.340391
vt 0.099349 0.340391
vt 0.310261 0.340391
vt 0.069219 0.340391
vt 0.280130 0.340391
vt 0.039088 0.340391
vt 0.250000 0.340391
vt 0.491042 0.332858
vt 0.460912 0.340391
vt 0.008958 0.332858
vt 0.099349 0.355456
vt 0.069219 0.355456
vt 0.310261 0.355456
vt 0.280130 0.355456
vt 0.039088 0.355456
vt 0.250000 0.355456
vt 0.491042 0.347923
vt 0.460912 0.355456
vt 0.008958 0.347923
vt 0.219870 0.355456
vt 0.430782 0.355456
vt 0.189739 0.355456
vt 0.400651 0.355456
vt 0.159609 0.355456
vt 0.370521 0.355456
vt 0.129479 0.355456
vt 0.340391 0.355456
vt 0.430782 0.370521
vt 0.400651 0.370521
vt 0.189740 0.370521
vt 0.159609 0.370521
vt 0.370521 0.370521
vt 0.129479 0.370521
vt 0.340391 0.370521
vt 0.099349 0.370521
vt 0.310261 0.370521
vt 0.069219 0.370521
vt 0.280130 0.370521
vt 0.039088 0.370521
vt 0.250000 0.370521
vt 0.491042 0.362988
vt 0.460912 0.370521
vt 0.008958 0.362988
vt 0.219870 0.370521
vt 0.310261 0.385586
vt 0.280130 0.385586
vt 0.069219 0.385586
vt 0.039088 0.385586
vt 0.250000 0.385586
vt 0.491042 0.378054
vt 0.460912 0.385586
vt 0.008958 0.378054
vt 0.219870 0.385586
vt 0.430782 0.385586
vt 0.189740 0.385586
vt 0.400651 0.385586
vt 0.159609 0.385586
vt 0.370521 0.385586
vt 0.129479 0.385586
vt 0.340391 0.385586
vt 0.099349 0.385586
vt 0.189739 0.400651
vt 0.159609 0.400651
vt 0.400651 0.400651
vt 0.370521 0.400651
vt 0.129479 0.400651
vt 0.340391 0.400651
vt 0.099349 0.400651
vt 0.310261 0.400651
vt 0.069219 0.400651
vt 0.280130 0.400651
vt 0.039088 0.400651
vt 0.250000 0.400651
vt 0.491042 0.393119
vt 0.460912 0.400651
vt 0.008958 0.393119
vt 0.219870 0.400651
vt 0.430782 0.400651
vt 0.069219 0.415716
vt 0.039088 0.415716
vt 0.280130 0.415716
vt 0.250000 0.415716
vt 0.491042 0.408184
vt 0.460912 0.415716
vt 0.008958 0.408184
vt 0.219870 0.415716
vt 0.430782 0.415716
vt 0.189739 0.415716
vt 0.400651 0.415716
vt 0.159609 0.415716
vt 0.370521 0.415716
vt 0.129479 0.415716
vt 0.340391 0.415716
vt 0.099349 0.415716
vt 0.310261 0.415716
vt 0.400651 0.430782
vt 0.370521 0.430782
vt 0.159609 0.430782
vt 0.129479 0.430782
vt 0.340391 0.430782
vt 0.099349 0.430782
vt 0.310261 0.430782
vt 0.069219 0.430782
vt 0.280130 0.430782
vt 0.039088 0.430782
vt 0.250000 0.430782
vt 0.491042 0.423249
vt 0.460912 0.430782
vt 0.008958 0.423249
vt 0.219870 0.430782
vt 0.430782 0.430782
vt 0.189739 0.430782
vt 0.280130 0.445847
vt 0.250000 0.445847
vt 0.491042 0.438314
vt 0.460912 0.445847
vt 0.008958 0.438314
vt 0.039088 0.445847
vt 0.219870 0.445847
vt 0.430782 0.445847
vt 0.189739 0.445847
vt 0.400651 0.445847
vt 0.159609 0.445847
vt 0.370521 0.445847
vt 0.129479 0.445847
vt 0.340391 0.445847
vt 0.099349 0.445847
vt 0.310261 0.445847
vt 0.069219 0.445847
vt 0.159609 0.460912
vt 0.129479 0.460912
vt 0.370521 0.460912
vt 0.340391 0.460912
vt 0.099349 0.460912
vt 0.310261 0.460912
vt 0.069219 0.460912
vt 0.280130 0.460912
vt 0.039088 0.460912
vt 0.250000 0.460912
vt 0.491042 0.453379
vt 0.460912 0.460912
vt 0.008958 0.453379
vt 0.219870 0.460912
vt 0.430782 0.460912
vt 0.189739 0.460912
vt 0.400651 0.460912
vt 0.008958 0.468444
vt 0.039088 0.475977
vt 0.250000 0.475977
vt 0.219870 0.475977
vt 0.460912 0.475977
vt 0.430782 0.475977
vt 0.189739 0.475977
vt 0.400651 0.475977
vt 0.159609 0.475977
vt 0.370521 0.475977
vt 0.129479 0.475977
vt 0.340391 0.475977
vt 0.099349 0.475977
vt 0.310261 0.475977
vt 0.069219 0.475977
vt 0.280130 0.475977
vt 0.491042 0.468444
vt 0.129479 0.491042
vt 0.099349 0.491042
vt 0.340391 0.491042
vt 0.310261 0.491042
vt 0.069219 0.491042
vt 0.280130 0.491042
vt 0.039088 0.491042
vt 0.250000 0.491042
vt 0.491042 0.483509
vt 0.460912 0.491042
vt 0.008958 0.483509
vt 0.219870 0.491042
vt 0.430782 0.491042
vt 0.189739 0.491042
vt 0.400651 0.491042
vt 0.159609 0.491042
vt 0.370521 0.491042
vt 0.430782 0.008958
vt 0.460912 0.008958
vt 0.460912 0.024023
vt 0.430782 0.024023
vt 0.189739 0.008958
vt 0.219870 0.008958
vt 0.219870 0.024023
vt 0.189739 0.024023
vt 0.400651 0.008958
vt 0.400651 0.024023
vt 0.159609 0.008958
vt 0.159609 0.024023
vt 0.370521 0.008958
vt 0.370521 0.024023
vt 0.129479 0.008958
vt 0.129479 0.024023
vt 0.340391 0.008958
vt 0.340391 0.024023
vt 0.099349 0.008958
vt 0.099349 0.024023
vt 0.310261 0.008958
vt 0.310261 0.024023
vt 0.069218 0.008958
vt 0.069218 0.024023
vt 0.280130 0.008958
vt 0.280130 0.024023
vt 0.039088 0.008958
vt 0.039088 0.024023
vt 0.250000 0.008958
vt 0.250000 0.024023
vt 0.491042 0.016491
vt 0.008958 0.016491
vt 0.340391 0.039088
vt 0.310261 0.039088
vt 0.099349 0.039088
vt 0.069218 0.039088
vt 0.280130 0.039088
vt 0.039088 0.039088
vt 0.250000 0.039088
vt 0.491042 0.031556
vt 0.460912 0.039088
vt 0.008958 0.031556
vt 0.219870 0.039088
vt 0.430782 0.039088
vt 0.189739 0.039088
vt 0.400651 0.039088
vt 0.159609 0.039088
vt 0.370521 0.039088
vt 0.129479 0.039088
vt 0.219870 0.054153
vt 0.189739 0.054153
vt 0.430782 0.054153
vt 0.400651 0.054153
vt 0.159609 0.054153
vt 0.370521 0.054153
vt 0.129479 0.054153
vt 0.340391 0.054153
vt 0.099349 0.054153
vt 0.310261 0.054153
vt 0.069218 0.054153
vt 0.280130 0.054153
vt 0.039088 0.054153
vt 0.250000 0.054153
vt 0.491042 0.046621
vt 0.460912 0.054153
vt 0.008958 0.046621
vt 0.099349 0.069219
vt 0.069218 0.069219
vt 0.310261 0.069219
vt 0.280130 0.069219
vt 0.039088 0.069219
vt 0.250000 0.069219
vt 0.491042 0.061686
vt 0.460912 0.069219
vt 0.008958 0.061686
vt 0.219870 0.069219
vt 0.430782 0.069219
vt 0.189739 0.069219
vt 0.400651 0.069219
vt 0.159609 0.069219
vt 0.370521 0.069219
vt 0.129479 0.069219
vt 0.340391 0.069219
vt 0.430782 0.084284
vt 0.400651 0.084284
vt 0.189739 0.084284
vt 0.159609 0.084284
vt 0.370521 0.084284
vt 0.129479 0.084284
vt 0.340391 0.084284
vt 0.099349 0.084284
vt 0.310261 0.084284
vt 0.069218 0.084284
vt 0.280130 0.084284
vt 0.039088 0.084284
vt 0.250000 0.084284
vt 0.491042 0.076751
vt 0.460912 0.084284
vt 0.008958 0.076751
vt 0.219870 0.084284
vt 0.310261 0.099349
vt 0.280130 0.099349
vt 0.069218 0.099349
vt 0.039088 0.099349
vt 0.250000 0.099349
vt 0.491042 0.091816
vt 0.460912 0.099349
vt 0.008958 0.091816
vt 0.219870 0.099349
vt 0.430782 0.099349
vt 0.189739 0.099349
vt 0.400651 0.099349
vt 0.159609 0.099349
vt 0.370521 0.099349
vt 0.129479 0.099349
vt 0.340391 0.099349
vt 0.099349 0.099349
vt 0.189739 0.114414
vt 0.159609 0.114414
vt 0.400651 0.114414
vt 0.370521 0.114414
vt 0.129479 0.114414
vt 0.340391 0.114414
vt 0.099349 0.114414
vt 0.310261 0.114414
vt 0.069218 0.114414
vt 0.280130 0.114414
vt 0.039088 0.114414
vt 0.250000 0.114414
vt 0.491042 0.106881
vt 0.460912 0.114414
vt 0.008958 0.106881
vt 0.219870 0.114414
vt 0.430782 0.114414
vt 0.491042 0.121946
vt 0.008958 0.121946
vt 0.370521 0.991042
vt 0.370521 0.508958
vt 0.491042 0.508958
vt 0.491042 0.991042
vt 0.129479 0.991042
vt 0.129479 0.508958
vt 0.250000 0.508958
vt 0.250000 0.991042
vt 0.008958 0.991042
vt 0.008958 0.508958
vt 0.991042 0.129479
vt 0.508958 0.129479
vt 0.508958 0.008958
vt 0.991042 0.008958
vt 0.991042 0.370521
vt 0.508958 0.370521
vt 0.508958 0.250000
vt 0.991042 0.250000
vt 0.991042 0.491042
vt 0.508958 0.491042
vt 0.991042 0.629479
vt 0.508958 0.629479
vt 0.508958 0.508958
vt 0.991042 0.508958
vt 0.991042 0.870521
vt 0.508958 0.870521
vt 0.508958 0.750000
vt 0.991042 0.750000
vt 0.991042 0.991042
vt 0.508958 0.991042
s 1
usemtl マテリアル
f 482/1/1 481/2/2 20/3/3 21/4/4
f 4/5/5 3/6/6 13/7/7 14/8/8
f 474/9/9 82/10/10 7/11/11
f 308/12/12 482/1/1 21/4/4
f 5/13/13 4/5/5 14/8/8 15/14/14
f 475/15/15 474/9/9 7/11/11 8/16/16
f 478/17/17 5/13/13 15/14/14 16/18/18
f 1/19/19 475/15/15 8/16/16 9/20/20
f 6/21/21 478/17/17 16/18/18 17/22/22
f 476/23/23 1/19/19 9/20/20 10/24/24
f 479/25/25 6/21/21 17/22/22 18/26/26
f 2/27/27 476/23/23 10/24/24 11/28/28
f 480/29/29 479/25/25 18/26/26 19/30/30
f 477/31/31 2/27/27 11/28/28 12/32/32
f 481/2/2 480/29/29 19/30/30 20/3/3
f 3/6/6 477/31/31 12/32/32 13/7/7
f 12/32/32 11/28/28 26/33/33 27/34/34
f 20/3/3 19/30/30 34/35/35 35/36/36
f 13/7/7 12/32/32 27/34/34 28/37/37
f 21/4/4 20/3/3 35/36/36 36/38/38
f 14/8/8 13/7/7 28/37/37 29/39/39
f 7/11/11 82/40/10 22/41/40
f 308/42/12 21/4/4 36/38/38
f 15/14/14 14/8/8 29/39/39 30/43/41
f 8/16/16 7/11/11 22/41/40 23/44/42
f 16/18/18 15/14/14 30/43/41 31/45/43
f 9/20/20 8/16/16 23/44/42 24/46/44
f 17/22/22 16/18/18 31/45/43 32/47/45
f 10/24/24 9/20/20 24/46/44 25/48/46
f 18/26/26 17/22/22 32/47/45 33/49/47
f 11/28/28 10/24/24 25/48/46 26/33/33
f 19/30/30 18/26/26 33/49/47 34/35/35
f 31/45/43 30/43/41 45/50/48 46/51/49
f 24/46/44 23/44/42 38/52/50 39/53/51
f 32/47/45 31/45/43 46/51/49 47/54/52
f 25/48/46 24/46/44 39/53/51 40/55/53
f 33/49/47 32/47/45 47/54/52 48/56/54
f 26/33/33 25/48/46 40/55/53 41/57/55
f 34/35/35 33/49/47 48/56/54 49/58/56
f 27/34/34 26/33/33 41/57/55 42/59/57
f 35/36/36 34/35/35 49/58/56 50/60/58
f 28/37/37 27/34/34 42/59/57 43/61/59
f 36/38/38 35/36/36 50/60/58 51/62/60
f 29/39/39 28/37/37 43/61/59 44/63/61
f 22/41/40 82/64/10 37/65/62
f 308/66/12 36/38/38 51/62/60
f 30/43/41 29/39/39 44/63/61 45/50/48
f 23/44/42 22/41/40 37/65/62 38/52/50
f 50/60/58 49/58/56 64/67/63 65/68/64
f 43/61/59 42/59/57 57/69/65 58/70/66
f 51/62/60 50/60/58 65/68/64 66/71/67
f 44/63/61 43/61/59 58/70/66 59/72/68
f 37/65/62 82/73/10 52/74/69
f 308/75/12 51/62/60 66/71/67
f 45/50/48 44/63/61 59/72/68 60/76/70
f 38/52/50 37/65/62 52/74/69 53/77/71
f 46/51/49 45/50/48 60/76/70 61/78/72
f 39/53/51 38/52/50 53/77/71 54/79/73
f 47/54/52 46/51/49 61/78/72 62/80/74
f 40/55/53 39/53/51 54/79/73 55/81/75
f 48/56/54 47/54/52 62/80/74 63/82/76
f 41/57/55 40/55/53 55/81/75 56/83/77
f 49/58/56 48/56/54 63/82/76 64/67/63
f 42/59/57 41/57/55 56/83/77 57/69/65
f 62/80/74 61/78/72 76/84/78 77/85/79
f 55/81/75 54/79/73 69/86/80 70/87/81
f 63/82/76 62/80/74 77/85/79 78/88/82
f 56/83/77 55/81/75 70/87/81 71/89/83
f 64/67/63 63/82/76 78/88/82 79/90/84
f 57/69/65 56/83/77 71/89/83 72/91/85
f 65/68/64 64/67/63 79/90/84 80/92/86
f 58/70/66 57/69/65 72/91/85 73/93/87
f 66/71/67 65/68/64 80/92/86 81/94/88
f 59/72/68 58/70/66 73/93/87 74/95/89
f 52/74/69 82/96/10 67/97/90
f 308/98/12 66/71/67 81/94/88
f 60/76/70 59/72/68 74/95/89 75/99/91
f 53/77/71 52/74/69 67/97/90 68/100/92
f 61/78/72 60/76/70 75/99/91 76/84/78
f 54/79/73 53/77/71 68/100/92 69/86/80
f 81/94/88 80/92/86 96/101/93 97/102/94
f 74/95/89 73/93/87 89/103/95 90/104/96
f 67/97/90 82/105/10 83/106/97
f 308/107/12 81/94/88 97/102/94
f 75/99/91 74/95/89 90/104/96 91/108/98
f 68/100/92 67/97/90 83/106/97 84/109/99
f 76/84/78 75/99/91 91/108/98 92/110/100
f 69/86/80 68/100/92 84/109/99 85/111/101
f 77/85/79 76/84/78 92/110/100 93/112/102
f 70/87/81 69/86/80 85/111/101 86/113/103
f 78/88/82 77/85/79 93/112/102 94/114/104
f 71/89/83 70/87/81 86/113/103 87/115/105
f 79/90/84 78/88/82 94/114/104 95/116/106
f 72/91/85 71/89/83 87/115/105 88/117/107
f 80/92/86 79/90/84 95/116/106 96/101/93
f 73/93/87 72/91/85 88/117/107 89/103/95
f 86/113/103 85/111/101 100/118/108 101/119/109
f 94/114/104 93/112/102 108/120/110 109/121/111
f 87/115/105 86/113/103 101/119/109 102/122/112
f 95/116/106 94/114/104 109/121/111 110/123/113
f 88/117/107 87/115/105 102/122/112 103/124/114
f 96/101/93 95/116/106 110/123/113 111/125/115
f 89/103/95 88/117/107 103/124/114 104/126/116
f 97/102/94 96/101/93 111/125/115 112/127/117
f 90/104/96 89/103/95 104/126/116 105/128/118
f 83/106/97 82/129/10 98/130/119
f 308/131/12 97/102/94 112/127/117
f 91/108/98 90/104/96 105/128/118 106/132/120
f 84/109/99 83/106/97 98/130/119 99/133/121
f 92/110/100 91/108/98 106/132/120 107/134/122
f 85/111/101 84/109/99 99/133/121 100/118/108
f 93/112/102 92/110/100 107/134/122 108/120/110
f 105/128/118 104/126/116 119/135/123 120/136/124
f 98/130/119 82/137/10 113/138/125
f 308/139/12 112/127/117 127/140/126
f 106/132/120 105/128/118 120/136/124 121/141/127
f 99/133/121 98/130/119 113/138/125 114/142/128
f 107/134/122 106/132/120 121/141/127 122/143/129
f 100/118/108 99/133/121 114/142/128 115/144/130
f 108/120/110 107/134/122 122/143/129 123/145/131
f 101/119/109 100/118/108 115/144/130 116/146/132
f 109/121/111 108/120/110 123/145/131 124/147/133
f 102/122/112 101/119/109 116/146/132 117/148/134
f 110/123/113 109/121/111 124/147/133 125/149/135
f 103/124/114 102/122/112 117/148/134 118/150/136
f 111/125/115 110/123/113 125/149/135 126/151/137
f 104/126/116 103/124/114 118/150/136 119/135/123
f 112/127/117 111/125/115 126/151/137 127/140/126
f 124/147/133 123/145/131 138/152/138 139/153/139
f 117/148/134 116/146/132 131/154/140 132/155/141
f 125/149/135 124/147/133 139/153/139 140/156/142
f 118/150/136 117/148/134 132/155/141 133/157/143
f 126/151/137 125/149/135 140/156/142 141/158/144
f 119/135/123 118/150/136 133/157/143 134/159/145
f 127/140/126 126/151/137 141/158/144 142/160/146
f 120/136/124 119/135/123 134/159/145 135/161/147
f 113/138/125 82/162/10 128/163/148
f 308/164/12 127/140/126 142/160/146
f 121/141/127 120/136/124 135/161/147 136/165/149
f 114/142/128 113/138/125 128/163/148 129/166/150
f 122/143/129 121/141/127 136/165/149 137/167/151
f 115/144/130 114/142/128 129/166/150 130/168/152
f 123/145/131 122/143/129 137/167/151 138/152/138
f 116/146/132 115/144/130 130/168/152 131/154/140
f 128/163/148 82/169/10 143/170/153
f 308/171/12 142/160/146 157/172/154
f 136/165/149 135/161/147 150/173/155 151/174/156
f 129/166/150 128/163/148 143/170/153 144/175/157
f 137/167/151 136/165/149 151/174/156 152/176/158
f 130/168/152 129/166/150 144/175/157 145/177/159
f 138/152/138 137/167/151 152/176/158 153/178/160
f 131/154/140 130/168/152 145/177/159 146/179/161
f 139/153/139 138/152/138 153/178/160 154/180/162
f 132/155/141 131/154/140 146/179/161 147/181/163
f 140/156/142 139/153/139 154/180/162 155/182/164
f 133/157/143 132/155/141 147/181/163 148/183/165
f 141/158/144 140/156/142 155/182/164 156/184/166
f 134/159/145 133/157/143 148/183/165 149/185/167
f 142/160/146 141/158/144 156/184/166 157/172/154
f 135/161/147 134/159/145 149/185/167 150/173/155
f 147/181/163 146/179/161 161/186/168 162/187/169
f 155/182/164 154/180/162 169/188/170 170/189/171
f 148/183/165 147/181/163 162/187/169 163/190/172
f 156/184/166 155/182/164 170/189/171 171/191/173
f 149/185/167 148/183/165 163/190/172 164/192/174
f 157/172/154 156/184/166 171/191/173 172/193/175
f 150/173/155 149/185/167 164/192/174 165/194/176
f 143/170/153 82/195/10 158/196/177
f 308/197/12 157/172/154 172/193/175
f 151/174/156 150/173/155 165/194/176 166/198/178
f 144/175/157 143/170/153 158/196/177 159/199/179
f 152/176/158 151/174/156 166/198/178 167/200/180
f 145/177/159 144/175/157 159/199/179 160/201/181
f 153/178/160 152/176/158 167/200/180 168/202/182
f 146/179/161 145/177/159 160/201/181 161/186/168
f 154/180/162 153/178/160 168/202/182 169/188/170
f 166/198/178 165/194/176 180/203/183 181/204/184
f 159/199/179 158/196/177 173/205/185 174/206/186
f 167/200/180 166/198/178 181/204/184 182/207/187
f 160/201/181 159/199/179 174/206/186 175/208/188
f 168/202/182 167/200/180 182/207/187 183/209/189
f 161/186/168 160/201/181 175/208/188 176/210/190
f 169/188/170 168/202/182 183/209/189 184/211/191
f 162/187/169 161/186/168 176/210/190 177/212/192
f 170/189/171 169/188/170 184/211/191 185/213/193
f 163/190/172 162/187/169 177/212/192 178/214/194
f 171/191/173 170/189/171 185/213/193 186/215/195
f 164/192/174 163/190/172 178/214/194 179/216/196
f 172/193/175 171/191/173 186/215/195 187/217/197
f 165/194/176 164/192/174 179/216/196 180/203/183
f 158/196/177 82/218/10 173/205/185
f 308/219/12 172/193/175 187/217/197
f 185/213/193 184/211/191 199/220/198 200/221/199
f 178/214/194 177/212/192 192/222/200 193/223/201
f 186/215/195 185/213/193 200/221/199 201/224/202
f 179/216/196 178/214/194 193/223/201 194/225/203
f 187/217/197 186/215/195 201/224/202 202/226/204
f 180/203/183 179/216/196 194/225/203 195/227/205
f 173/205/185 82/228/10 188/229/206
f 308/230/12 187/217/197 202/226/204
f 181/204/184 180/203/183 195/227/205 196/231/207
f 174/206/186 173/205/185 188/229/206 189/232/208
f 182/207/187 181/204/184 196/231/207 197/233/209
f 175/208/188 174/206/186 189/232/208 190/234/210
f 183/209/189 182/207/187 197/233/209 198/235/211
f 176/210/190 175/208/188 190/234/210 191/236/212
f 184/211/191 183/209/189 198/235/211 199/220/198
f 177/212/192 176/210/190 191/236/212 192/222/200
f 197/233/209 196/231/207 211/237/213 212/238/214
f 190/234/210 189/232/208 204/239/215 205/240/216
f 198/235/211 197/233/209 212/238/214 213/241/217
f 191/236/212 190/234/210 205/240/216 206/242/218
f 199/220/198 198/235/211 213/241/217 214/243/219
f 192/222/200 191/236/212 206/242/218 207/244/220
f 200/221/199 199/220/198 214/243/219 215/245/221
f 193/223/201 192/222/200 207/244/220 208/246/222
f 201/224/202 200/221/199 215/245/221 216/247/223
f 194/225/203 193/223/201 208/246/222 209/248/224
f 202/226/204 201/224/202 216/247/223 217/249/225
f 195/227/205 194/225/203 209/248/224 210/250/226
f 188/229/206 82/251/10 203/252/227
f 308/253/12 202/226/204 217/249/225
f 196/231/207 195/227/205 210/250/226 211/237/213
f 189/232/208 188/229/206 203/252/227 204/239/215
f 216/247/223 215/245/221 230/254/228 231/255/229
f 209/248/224 208/246/222 223/256/230 224/257/231
f 217/249/225 216/247/223 231/255/229 232/258/232
f 210/250/226 209/248/224 224/257/231 225/259/233
f 203/252/227 82/260/10 218/261/234
f 308/262/12 217/249/225 232/258/232
f 211/237/213 210/250/226 225/259/233 226/263/235
f 204/239/215 203/252/227 218/261/234 219/264/236
f 212/238/214 211/237/213 226/263/235 227/265/237
f 205/240/216 204/239/215 219/264/236 220/266/238
f 213/241/217 212/238/214 227/265/237 228/267/239
f 206/242/218 205/240/216 220/266/238 221/268/240
f 214/243/219 213/241/217 228/267/239 229/269/241
f 207/244/220 206/242/218 221/268/240 222/270/242
f 215/245/221 214/243/219 229/269/241 230/254/228
f 208/246/222 207/244/220 222/270/242 223/256/230
f 220/266/238 219/264/236 234/271/243 235/272/244
f 228/267/239 227/265/237 242/273/245 243/274/246
f 221/268/240 220/266/238 235/272/244 236/275/247
f 229/269/241 228/267/239 243/274/246 244/276/248
f 222/270/242 221/268/240 236/275/247 237/277/249
f 230/254/228 229/269/241 244/276/248 245/278/250
f 223/256/230 222/270/242 237/277/249 238/279/251
f 231/255/229 230/254/228 245/278/250 246/280/252
f 224/257/231 223/256/230 238/279/251 239/281/253
f 232/258/232 231/255/229 246/280/252 247/282/254
f 225/259/233 224/257/231 239/281/253 240/283/255
f 218/261/234 82/284/10 233/285/256
f 308/286/12 232/258/232 247/282/254
f 226/263/235 225/259/233 240/283/255 241/287/257
f 219/264/236 218/261/234 233/285/256 234/271/243
f 227/265/237 226/263/235 241/287/257 242/273/245
f 239/281/253 238/279/251 253/288/258 254/289/259
f 247/282/254 246/280/252 261/290/260 262/291/261
f 240/283/255 239/281/253 254/289/259 255/292/262
f 233/285/256 82/293/10 248/294/263
f 308/295/12 247/282/254 262/291/261
f 241/287/257 240/283/255 255/292/262 256/296/264
f 234/271/243 233/285/256 248/294/263 249/297/265
f 242/273/245 241/287/257 256/296/264 257/298/266
f 235/272/244 234/271/243 249/297/265 250/299/267
f 243/274/246 242/273/245 257/298/266 258/300/268
f 236/275/247 235/272/244 250/299/267 251/301/269
f 244/276/248 243/274/246 258/300/268 259/302/270
f 237/277/249 236/275/247 251/301/269 252/303/271
f 245/278/250 244/276/248 259/302/270 260/304/272
f 238/279/251 237/277/249 252/303/271 253/288/258
f 246/280/252 245/278/250 260/304/272 261/290/260
f 258/300/268 257/298/266 272/305/273 273/306/274
f 251/301/269 250/299/267 265/307/275 266/308/276
f 259/302/270 258/300/268 273/306/274 274/309/277
f 252/303/271 251/301/269 266/308/276 267/310/278
f 260/304/272 259/302/270 274/309/277 275/311/279
f 253/288/258 252/303/271 267/310/278 268/312/280
f 261/290/260 260/304/272 275/311/279 276/313/281
f 254/289/259 253/288/258 268/312/280 269/314/282
f 262/291/261 261/290/260 276/313/281 277/315/283
f 255/292/262 254/289/259 269/314/282 270/316/284
f 248/294/263 82/317/10 263/318/285
f 308/319/12 262/291/261 277/315/283
f 256/296/264 255/292/262 270/316/284 271/320/286
f 249/297/265 248/294/263 263/318/285 264/321/287
f 257/298/266 256/296/264 271/320/286 272/305/273
f 250/299/267 249/297/265 264/321/287 265/307/275
f 277/315/283 276/313/281 291/322/288 292/323/289
f 270/316/284 269/314/282 284/324/290 285/325/291
f 263/318/285 82/326/10 278/327/292
f 308/328/12 277/315/283 292/323/289
f 271/320/286 270/316/284 285/325/291 286/329/293
f 264/321/287 263/318/285 278/327/292 279/330/294
f 272/305/273 271/320/286 286/329/293 287/331/295
f 265/307/275 264/321/287 279/330/294 280/332/296
f 273/306/274 272/305/273 287/331/295 288/333/297
f 266/308/276 265/307/275 280/332/296 281/334/298
f 274/309/277 273/306/274 288/333/297 289/335/299
f 267/310/278 266/308/276 281/334/298 282/336/300
f 275/311/279 274/309/277 289/335/299 290/337/301
f 268/312/280 267/310/278 282/336/300 283/338/302
f 276/313/281 275/311/279 290/337/301 291/322/288
f 269/314/282 268/312/280 283/338/302 284/324/290
f 281/334/298 280/332/296 295/339/303 296/340/304
f 289/335/299 288/333/297 303/341/305 304/342/306
f 282/336/300 281/334/298 296/340/304 297/343/307
f 290/337/301 289/335/299 304/342/306 305/344/308
f 283/338/302 282/336/300 297/343/307 298/345/309
f 291/322/288 290/337/301 305/344/308 306/346/310
f 284/324/290 283/338/302 298/345/309 299/347/311
f 292/323/289 291/322/288 306/346/310 307/348/312
f 285/325/291 284/324/290 299/347/311 300/349/313
f 278/327/292 82/350/10 293/351/314
f 308/352/12 292/323/289 307/348/312
f 286/329/293 285/325/291 300/349/313 301/353/315
f 279/330/294 278/327/292 293/351/314 294/354/316
f 287/331/295 286/329/293 301/353/315 302/355/317
f 280/332/296 279/330/294 294/354/316 295/339/303
f 288/333/297 287/331/295 302/355/317 303/341/305
f 300/349/313 299/347/311 315/356/318 316/357/319
f 293/351/314 82/358/10 309/359/320
f 308/360/12 307/348/312 323/361/321
f 301/353/315 300/349/313 316/357/319 317/362/322
f 294/354/316 293/351/314 309/359/320 310/363/323
f 302/355/317 301/353/315 317/362/322 318/364/324
f 295/339/303 294/354/316 310/363/323 311/365/325
f 303/341/305 302/355/317 318/364/324 319/366/326
f 296/340/304 295/339/303 311/365/325 312/367/327
f 304/342/306 303/341/305 319/366/326 320/368/328
f 297/343/307 296/340/304 312/367/327 313/369/329
f 305/344/308 304/342/306 320/368/328 321/370/330
f 298/345/309 297/343/307 313/369/329 314/371/331
f 306/346/310 305/344/308 321/370/330 322/372/332
f 299/347/311 298/345/309 314/371/331 315/356/318
f 307/348/312 306/346/310 322/372/332 323/361/321
f 320/368/328 319/366/326 334/373/333 335/374/334
f 313/369/329 312/367/327 327/375/335 328/376/336
f 321/370/330 320/368/328 335/374/334 336/377/337
f 314/371/331 313/369/329 328/376/336 329/378/338
f 322/372/332 321/370/330 336/377/337 337/379/339
f 315/356/318 314/371/331 329/378/338 330/380/340
f 323/361/321 322/372/332 337/379/339 338/381/341
f 316/357/319 315/356/318 330/380/340 331/382/342
f 309/359/320 82/383/10 324/384/343
f 308/385/12 323/361/321 338/381/341
f 317/362/322 316/357/319 331/382/342 332/386/344
f 310/363/323 309/359/320 324/384/343 325/387/345
f 318/364/324 317/362/322 332/386/344 333/388/346
f 311/365/325 310/363/323 325/387/345 326/389/347
f 319/366/326 318/364/324 333/388/346 334/373/333
f 312/367/327 311/365/325 326/389/347 327/375/335
f 308/390/12 338/381/341 353/391/348
f 332/386/344 331/382/342 346/392/349 347/393/350
f 325/387/345 324/384/343 339/394/351 340/395/352
f 333/388/346 332/386/344 347/393/350 348/396/353
f 326/389/347 325/387/345 340/395/352 341/397/354
f 334/373/333 333/388/346 348/396/353 349/398/355
f 327/375/335 326/389/347 341/397/354 342/399/356
f 335/374/334 334/373/333 349/398/355 350/400/357
f 328/376/336 327/375/335 342/399/356 343/401/358
f 336/377/337 335/374/334 350/400/357 351/402/359
f 329/378/338 328/376/336 343/401/358 344/403/360
f 337/379/339 336/377/337 351/402/359 352/404/361
f 330/380/340 329/378/338 344/403/360 345/405/362
f 338/381/341 337/379/339 352/404/361 353/391/348
f 331/382/342 330/380/340 345/405/362 346/392/349
f 324/384/343 82/406/10 339/394/351
f 351/402/359 350/400/357 365/407/363 366/408/364
f 344/403/360 343/401/358 358/409/365 359/410/366
f 352/404/361 351/402/359 366/408/364 367/411/367
f 345/405/362 344/403/360 359/410/366 360/412/368
f 353/391/348 352/404/361 367/411/367 368/413/369
f 346/392/349 345/405/362 360/412/368 361/414/370
f 339/394/351 82/415/10 354/416/371
f 308/417/12 353/391/348 368/413/369
f 347/393/350 346/392/349 361/414/370 362/418/372
f 340/395/352 339/394/351 354/416/371 355/419/373
f 348/396/353 347/393/350 362/418/372 363/420/374
f 341/397/354 340/395/352 355/419/373 356/421/375
f 349/398/355 348/396/353 363/420/374 364/422/376
f 342/399/356 341/397/354 356/421/375 357/423/377
f 350/400/357 349/398/355 364/422/376 365/407/363
f 343/401/358 342/399/356 357/423/377 358/409/365
f 355/424/373 354/425/371 369/426/378 370/427/379
f 363/428/374 362/429/372 377/430/380 378/431/381
f 356/432/375 355/424/373 370/427/379 371/433/382
f 364/434/376 363/428/374 378/431/381 379/435/383
f 357/436/377 356/432/375 371/433/382 372/437/384
f 365/438/363 364/434/376 379/435/383 380/439/385
f 358/440/365 357/436/377 372/437/384 373/441/386
f 366/442/364 365/438/363 380/439/385 381/443/387
f 359/444/366 358/440/365 373/441/386 374/445/388
f 367/446/367 366/442/364 381/443/387 382/447/389
f 360/448/368 359/444/366 374/445/388 375/449/390
f 368/450/369 367/446/367 382/447/389 383/451/391
f 361/452/370 360/448/368 375/449/390 376/453/392
f 354/425/371 82/454/10 369/426/378
f 308/455/12 368/450/369 383/451/391
f 362/429/372 361/452/370 376/453/392 377/430/380
f 374/445/388 373/441/386 388/456/393 389/457/394
f 382/447/389 381/443/387 396/458/395 397/459/396
f 375/449/390 374/445/388 389/457/394 390/460/397
f 383/451/391 382/447/389 397/459/396 398/461/398
f 376/453/392 375/449/390 390/460/397 391/462/399
f 369/426/378 82/463/10 384/464/400
f 308/465/12 383/451/391 398/461/398
f 377/430/380 376/453/392 391/462/399 392/466/401
f 370/427/379 369/426/378 384/464/400 385/467/402
f 378/431/381 377/430/380 392/466/401 393/468/403
f 371/433/382 370/427/379 385/467/402 386/469/404
f 379/435/383 378/431/381 393/468/403 394/470/405
f 372/437/384 371/433/382 386/469/404 387/471/406
f 380/439/385 379/435/383 394/470/405 395/472/407
f 373/441/386 372/437/384 387/471/406 388/456/393
f 381/443/387 380/439/385 395/472/407 396/458/395
f 393/468/403 392/466/401 407/473/408 408/474/409
f 386/469/404 385/467/402 400/475/410 401/476/411
f 394/470/405 393/468/403 408/474/409 409/477/412
f 387/471/406 386/469/404 401/476/411 402/478/413
f 395/472/407 394/470/405 409/477/412 410/479/414
f 388/456/393 387/471/406 402/478/413 403/480/415
f 396/458/395 395/472/407 410/479/414 411/481/416
f 389/457/394 388/456/393 403/480/415 404/482/417
f 397/459/396 396/458/395 411/481/416 412/483/418
f 390/460/397 389/457/394 404/482/417 405/484/419
f 398/461/398 397/459/396 412/483/418 413/485/420
f 391/462/399 390/460/397 405/484/419 406/486/421
f 384/464/400 82/487/10 399/488/422
f 308/489/12 398/461/398 413/485/420
f 392/466/401 391/462/399 406/486/421 407/473/408
f 385/467/402 384/464/400 399/488/422 400/475/410
f 412/483/418 411/481/416 426/490/423 427/491/424
f 405/484/419 404/482/417 419/492/425 420/493/426
f 413/485/420 412/483/418 427/491/424 428/494/427
f 406/486/421 405/484/419 420/493/426 421/495/428
f 399/488/422 82/496/10 414/497/429
f 308/498/12 413/485/420 428/494/427
f 407/473/408 406/486/421 421/495/428 422/499/430
f 400/475/410 399/488/422 414/497/429 415/500/431
f 408/474/409 407/473/408 422/499/430 423/501/432
f 401/476/411 400/475/410 415/500/431 416/502/433
f 409/477/412 408/474/409 423/501/432 424/503/434
f 402/478/413 401/476/411 416/502/433 417/504/435
f 410/479/414 409/477/412 424/503/434 425/505/436
f 403/480/415 402/478/413 417/504/435 418/506/437
f 411/481/416 410/479/414 425/505/436 426/490/423
f 404/482/417 403/480/415 418/506/437 419/492/425
f 416/502/433 415/500/431 430/507/438 431/508/439
f 424/503/434 423/501/432 438/509/440 439/510/441
f 417/504/435 416/502/433 431/508/439 432/511/442
f 425/505/436 424/503/434 439/510/441 440/512/443
f 418/506/437 417/504/435 432/511/442 433/513/444
f 426/490/423 425/505/436 440/512/443 441/514/445
f 419/492/425 418/506/437 433/513/444 434/515/446
f 427/491/424 426/490/423 441/514/445 442/516/447
f 420/493/426 419/492/425 434/515/446 435/517/448
f 428/494/427 427/491/424 442/516/447 443/518/449
f 421/495/428 420/493/426 435/517/448 436/519/450
f 414/497/429 82/520/10 429/521/451
f 308/522/12 428/494/427 443/518/449
f 422/499/430 421/495/428 436/519/450 437/523/452
f 415/500/431 414/497/429 429/521/451 430/507/438
f 423/501/432 422/499/430 437/523/452 438/509/440
f 435/517/448 434/515/446 449/524/453 450/525/454
f 443/518/449 442/516/447 457/526/455 458/527/456
f 436/519/450 435/517/448 450/525/454 451/528/457
f 429/521/451 82/529/10 444/530/458
f 308/531/12 443/518/449 458/527/456
f 437/523/452 436/519/450 451/528/457 452/532/459
f 430/507/438 429/521/451 444/530/458 445/533/460
f 438/509/440 437/523/452 452/532/459 453/534/461
f 431/508/439 430/507/438 445/533/460 446/535/462
f 439/510/441 438/509/440 453/534/461 454/536/463
f 432/511/442 431/508/439 446/535/462 447/537/464
f 440/512/443 439/510/441 454/536/463 455/538/465
f 433/513/444 432/511/442 447/537/464 448/539/466
f 441/514/445 440/512/443 455/538/465 456/540/467
f 434/515/446 433/513/444 448/539/466 449/524/453
f 442/516/447 441/514/445 456/540/467 457/526/455
f 454/536/463 453/534/461 468/541/468 469/542/469
f 447/537/464 446/535/462 461/543/470 462/544/471
f 455/538/465 454/536/463 469/542/469 470/545/472
f 448/539/466 447/537/464 462/544/471 463/546/473
f 456/540/467 455/538/465 470/545/472 471/547/474
f 449/524/453 448/539/466 463/546/473 464/548/475
f 457/526/455 456/540/467 471/547/474 472/549/476
f 450/525/454 449/524/453 464/548/475 465/550/477
f 458/527/456 457/526/455 472/549/476 473/551/478
f 451/528/457 450/525/454 465/550/477 466/552/479
f 444/530/458 82/553/10 459/554/480
f 308/555/12 458/527/456 473/551/478
f 452/532/459 451/528/457 466/552/479 467/556/481
f 445/533/460 444/530/458 459/554/480 460/557/482
f 453/534/461 452/532/459 467/556/481 468/541/468
f 446/535/462 445/533/460 460/557/482 461/543/470
f 473/551/478 472/549/476 481/2/2 482/1/1
f 466/552/479 465/550/477 3/6/6 4/5/5
f 459/554/480 82/558/10 474/9/9
f 308/559/12 473/551/478 482/1/1
f 467/556/481 466/552/479 4/5/5 5/13/13
f 460/557/482 459/554/480 474/9/9 475/15/15
f 468/541/468 467/556/481 5/13/13 478/17/17
f 461/543/470 460/557/482 475/15/15 1/19/19
f 469/542/469 468/541/468 478/17/17 6/21/21
f 462/544/471 461/543/470 1/19/19 476/23/23
f 470/545/472 469/542/469 6/21/21 479/25/25
f 463/546/473 462/544/471 476/23/23 2/27/27
f 471/547/474 470/545/472 479/25/25 480/29/29
f 464/548/475 463/546/473 2/27/27 477/31/31
f 472/549/476 471/547/474 480/29/29 481/2/2
f 465/550/477 464/548/475 477/31/31 3/6/6
f 492/560/483 491/561/484 486/562/485 485/563/485
f 489/564/486 490/565/486 488/566/487 487/567/488
f 483/568/489 484/569/489 490/565/489 489/564/489
f 487/567/488 488/566/487 491/561/484 492/560/483
f 502/570/490 501/571/491 496/572/492 495/573/492
f 499/574/493 500/575/493 498/576/494 497/577/495
f 493/578/496 494/579/496 500/575/496 499/574/496
f 497/577/495 498/576/494 501/571/491 502/570/490
f 512/580/497 511/581/498 506/582/499 505/583/499
f 509/584/500 510/585/500 508/586/501 507/587/502
f 503/588/503 504/589/503 510/585/503 509/584/503
f 507/587/502 508/586/501 511/581/498 512/580/497
