{
	"asset":{
		"generator":"Khronos glTF Blender I/O v4.4.56",
		"version":"2.0"
	},
	"scene":0,
	"scenes":[
		{
			"name":"Scene",
			"nodes":[
				4
			]
		}
	],
	"nodes":[
		{
			"name":"Valve_-1",
			"translation":[
				0.0032745003700256348,
				0,
				-0.5397870540618896
			]
		},
		{
			"name":"Valve_1",
			"translation":[
				0.0032745003700256348,
				0,
				-0.5397870540618896
			]
		},
		{
			"children":[
				0,
				1
			],
			"name":"Root"
		},
		{
			"mesh":0,
			"name":"\u7acb\u65b9\u4f53",
			"skin":0
		},
		{
			"children":[
				3,
				2
			],
			"name":"shell_Rig"
		}
	],
	"animations":[
		{
			"channels":[
				{
					"sampler":0,
					"target":{
						"node":2,
						"path":"translation"
					}
				},
				{
					"sampler":1,
					"target":{
						"node":2,
						"path":"rotation"
					}
				},
				{
					"sampler":2,
					"target":{
						"node":2,
						"path":"scale"
					}
				},
				{
					"sampler":3,
					"target":{
						"node":0,
						"path":"translation"
					}
				},
				{
					"sampler":4,
					"target":{
						"node":0,
						"path":"rotation"
					}
				},
				{
					"sampler":5,
					"target":{
						"node":0,
						"path":"scale"
					}
				},
				{
					"sampler":6,
					"target":{
						"node":1,
						"path":"translation"
					}
				},
				{
					"sampler":7,
					"target":{
						"node":1,
						"path":"rotation"
					}
				},
				{
					"sampler":8,
					"target":{
						"node":1,
						"path":"scale"
					}
				}
			],
			"name":"OpenClose",
			"samplers":[
				{
					"input":7,
					"interpolation":"STEP",
					"output":8
				},
				{
					"input":7,
					"interpolation":"STEP",
					"output":9
				},
				{
					"input":7,
					"interpolation":"STEP",
					"output":10
				},
				{
					"input":7,
					"interpolation":"STEP",
					"output":11
				},
				{
					"input":12,
					"interpolation":"LINEAR",
					"output":13
				},
				{
					"input":7,
					"interpolation":"STEP",
					"output":14
				},
				{
					"input":7,
					"interpolation":"STEP",
					"output":15
				},
				{
					"input":12,
					"interpolation":"LINEAR",
					"output":16
				},
				{
					"input":7,
					"interpolation":"STEP",
					"output":17
				}
			]
		}
	],
	"materials":[
		{
			"doubleSided":true,
			"name":"\u30de\u30c6\u30ea\u30a2\u30eb",
			"pbrMetallicRoughness":{
				"baseColorFactor":[
					0.1319810450077057,
					0.1319810450077057,
					0.1319810450077057,
					1
				],
				"metallicFactor":0,
				"roughnessFactor":0.5
			}
		}
	],
	"meshes":[
		{
			"name":"\u7acb\u65b9\u4f53.010",
			"primitives":[
				{
					"attributes":{
						"POSITION":0,
						"NORMAL":1,
						"TEXCOORD_0":2,
						"JOINTS_0":3,
						"WEIGHTS_0":4
					},
					"indices":5,
					"material":0
				}
			]
		}
	],
	"skins":[
		{
			"inverseBindMatrices":6,
			"joints":[
				2,
				0,
				1
			],
			"name":"shell_Rig"
		}
	],
	"accessors":[
		{
			"bufferView":0,
			"componentType":5126,
			"count":1822,
			"max":[
				1.15928053855896,
				0.5522384643554688,
				1.0679702758789062
			],
			"min":[
				-1.1527315378189087,
				-0.5522384643554688,
				-0.5397870540618896
			],
			"type":"VEC3"
		},
		{
			"bufferView":1,
			"componentType":5126,
			"count":1822,
			"type":"VEC3"
		},
		{
			"bufferView":2,
			"componentType":5126,
			"count":1822,
			"type":"VEC2"
		},
		{
			"bufferView":3,
			"componentType":5121,
			"count":1822,
			"type":"VEC4"
		},
		{
			"bufferView":4,
			"componentType":5126,
			"count":1822,
			"type":"VEC4"
		},
		{
			"bufferView":5,
			"componentType":5123,
			"count":3000,
			"type":"SCALAR"
		},
		{
			"bufferView":6,
			"componentType":5126,
			"count":3,
			"type":"MAT4"
		},
		{
			"bufferView":7,
			"componentType":5126,
			"count":2,
			"max":[
				1.6333333333333333
			],
			"min":[
				0.03333333333333333
			],
			"type":"SCALAR"
		},
		{
			"bufferView":8,
			"componentType":5126,
			"count":2,
			"type":"VEC3"
		},
		{
			"bufferView":9,
			"componentType":5126,
			"count":2,
			"type":"VEC4"
		},
		{
			"bufferView":10,
			"componentType":5126,
			"count":2,
			"type":"VEC3"
		},
		{
			"bufferView":11,
			"componentType":5126,
			"count":2,
			"type":"VEC3"
		},
		{
			"bufferView":12,
			"componentType":5126,
			"count":49,
			"max":[
				1.6333333333333333
			],
			"min":[
				0.03333333333333333
			],
			"type":"SCALAR"
		},
		{
			"bufferView":13,
			"componentType":5126,
			"count":49,
			"type":"VEC4"
		},
		{
			"bufferView":14,
			"componentType":5126,
			"count":2,
			"type":"VEC3"
		},
		{
			"bufferView":15,
			"componentType":5126,
			"count":2,
			"type":"VEC3"
		},
		{
			"bufferView":16,
			"componentType":5126,
			"count":49,
			"type":"VEC4"
		},
		{
			"bufferView":17,
			"componentType":5126,
			"count":2,
			"type":"VEC3"
		}
	],
	"bufferViews":[
		{
			"buffer":0,
			"byteLength":21864,
			"byteOffset":0,
			"target":34962
		},
		{
			"buffer":0,
			"byteLength":21864,
			"byteOffset":21864,
			"target":34962
		},
		{
			"buffer":0,
			"byteLength":14576,
			"byteOffset":43728,
			"target":34962
		},
		{
			"buffer":0,
			"byteLength":7288,
			"byteOffset":58304,
			"target":34962
		},
		{
			"buffer":0,
			"byteLength":29152,
			"byteOffset":65592,
			"target":34962
		},
		{
			"buffer":0,
			"byteLength":6000,
			"byteOffset":94744,
			"target":34963
		},
		{
			"buffer":0,
			"byteLength":192,
			"byteOffset":100744
		},
		{
			"buffer":0,
			"byteLength":8,
			"byteOffset":100936
		},
		{
			"buffer":0,
			"byteLength":24,
			"byteOffset":100944
		},
		{
			"buffer":0,
			"byteLength":32,
			"byteOffset":100968
		},
		{
			"buffer":0,
			"byteLength":24,
			"byteOffset":101000
		},
		{
			"buffer":0,
			"byteLength":24,
			"byteOffset":101024
		},
		{
			"buffer":0,
			"byteLength":196,
			"byteOffset":101048
		},
		{
			"buffer":0,
			"byteLength":784,
			"byteOffset":101244
		},
		{
			"buffer":0,
			"byteLength":24,
			"byteOffset":102028
		},
		{
			"buffer":0,
			"byteLength":24,
			"byteOffset":102052
		},
		{
			"buffer":0,
			"byteLength":784,
			"byteOffset":102076
		},
		{
			"buffer":0,
			"byteLength":24,
			"byteOffset":102860
		}
	],
	"buffers":[
		{
			"byteLength":102884,
			"uri":"shell.bin"
		}
	]
}
