{
	"asset":{
		"generator":"Khronos glTF Blender I/O v4.4.56",
		"version":"2.0"
	},
	"scene":0,
	"scenes":[
		{
			"name":"Scene",
			"nodes":[
				0
			]
		}
	],
	"nodes":[
		{
			"mesh":0,
			"name":"\u30c8\u30fc\u30e9\u30b9.003",
			"scale":[
				0.8277561068534851,
				0.1851624697446823,
				0.8595290184020996
			],
			"translation":[
				0,
				1.607224702835083,
				0
			]
		}
	],
	"materials":[
		{
			"doubleSided":true,
			"name":"\u30de\u30c6\u30ea\u30a2\u30eb.001",
			"pbrMetallicRoughness":{
				"baseColorFactor":[
					0.8002121448516846,
					0,
					0.001762206549756229,
					1
				],
				"metallicFactor":0,
				"roughnessFactor":0.5
			}
		},
		{
			"doubleSided":true,
			"name":"\u30de\u30c6\u30ea\u30a2\u30eb",
			"pbrMetallicRoughness":{
				"baseColorFactor":[
					0.7990989089012146,
					0,
					0.0027317593339830637,
					1
				],
				"metallicFactor":0,
				"roughnessFactor":0.5
			}
		},
		{
			"doubleSided":true,
			"name":"\u30de\u30c6\u30ea\u30a2\u30eb.003",
			"pbrMetallicRoughness":{
				"baseColorFactor":[
					0.7990989089012146,
					0,
					0.0027317593339830637,
					1
				],
				"metallicFactor":0,
				"roughnessFactor":0.5
			}
		},
		{
			"doubleSided":true,
			"name":"\u30de\u30c6\u30ea\u30a2\u30eb.002",
			"pbrMetallicRoughness":{
				"baseColorFactor":[
					0.7990989089012146,
					0,
					0.0027317593339830637,
					1
				],
				"metallicFactor":0,
				"roughnessFactor":0.5
			}
		},
		{
			"doubleSided":true,
			"name":"\u30de\u30c6\u30ea\u30a2\u30eb.004",
			"pbrMetallicRoughness":{
				"baseColorFactor":[
					0.7990989089012146,
					0,
					0.0027317593339830637,
					1
				],
				"metallicFactor":0,
				"roughnessFactor":0.5
			}
		}
	],
	"meshes":[
		{
			"name":"\u30c8\u30fc\u30e9\u30b9.003",
			"primitives":[
				{
					"attributes":{
						"POSITION":0,
						"NORMAL":1,
						"TEXCOORD_0":2,
						"TEXCOORD_1":3
					},
					"indices":4,
					"material":0
				},
				{
					"attributes":{
						"POSITION":5,
						"NORMAL":6,
						"TEXCOORD_0":7,
						"TEXCOORD_1":8
					},
					"indices":9,
					"material":1
				},
				{
					"attributes":{
						"POSITION":10,
						"NORMAL":11,
						"TEXCOORD_0":12,
						"TEXCOORD_1":13
					},
					"indices":4,
					"material":2
				},
				{
					"attributes":{
						"POSITION":14,
						"NORMAL":15,
						"TEXCOORD_0":16,
						"TEXCOORD_1":17
					},
					"indices":4,
					"material":3
				},
				{
					"attributes":{
						"POSITION":18,
						"NORMAL":19,
						"TEXCOORD_0":20,
						"TEXCOORD_1":21
					},
					"indices":4,
					"material":4
				}
			]
		}
	],
	"accessors":[
		{
			"bufferView":0,
			"componentType":5126,
			"count":637,
			"max":[
				1.25,
				0.25,
				1.25
			],
			"min":[
				-1.25,
				-0.25,
				-1.25
			],
			"type":"VEC3"
		},
		{
			"bufferView":1,
			"componentType":5126,
			"count":637,
			"type":"VEC3"
		},
		{
			"bufferView":2,
			"componentType":5126,
			"count":637,
			"type":"VEC2"
		},
		{
			"bufferView":3,
			"componentType":5126,
			"count":637,
			"type":"VEC2"
		},
		{
			"bufferView":4,
			"componentType":5123,
			"count":3456,
			"type":"SCALAR"
		},
		{
			"bufferView":5,
			"componentType":5126,
			"count":130,
			"max":[
				1.2080854177474976,
				0.1247568130493164,
				1.1634278297424316
			],
			"min":[
				-1.2080854177474976,
				-17.484912872314453,
				-1.1634278297424316
			],
			"type":"VEC3"
		},
		{
			"bufferView":6,
			"componentType":5126,
			"count":130,
			"type":"VEC3"
		},
		{
			"bufferView":7,
			"componentType":5126,
			"count":130,
			"type":"VEC2"
		},
		{
			"bufferView":8,
			"componentType":5126,
			"count":130,
			"type":"VEC2"
		},
		{
			"bufferView":9,
			"componentType":5123,
			"count":372,
			"type":"SCALAR"
		},
		{
			"bufferView":10,
			"componentType":5126,
			"count":637,
			"max":[
				1.326550841331482,
				-10.9921293258667,
				1.261667013168335
			],
			"min":[
				-1.326550841331482,
				-12.614550590515137,
				-1.261667013168335
			],
			"type":"VEC3"
		},
		{
			"bufferView":11,
			"componentType":5126,
			"count":637,
			"type":"VEC3"
		},
		{
			"bufferView":12,
			"componentType":5126,
			"count":637,
			"type":"VEC2"
		},
		{
			"bufferView":13,
			"componentType":5126,
			"count":637,
			"type":"VEC2"
		},
		{
			"bufferView":14,
			"componentType":5126,
			"count":637,
			"max":[
				1.326550841331482,
				-3.407754421234131,
				1.261667013168335
			],
			"min":[
				-1.326550841331482,
				-5.030174732208252,
				-1.261667013168335
			],
			"type":"VEC3"
		},
		{
			"bufferView":15,
			"componentType":5126,
			"count":637,
			"type":"VEC3"
		},
		{
			"bufferView":16,
			"componentType":5126,
			"count":637,
			"type":"VEC2"
		},
		{
			"bufferView":17,
			"componentType":5126,
			"count":637,
			"type":"VEC2"
		},
		{
			"bufferView":18,
			"componentType":5126,
			"count":637,
			"max":[
				1.326550841331482,
				-16.77761459350586,
				1.261667013168335
			],
			"min":[
				-1.326550841331482,
				-17.62027359008789,
				-1.261667013168335
			],
			"type":"VEC3"
		},
		{
			"bufferView":19,
			"componentType":5126,
			"count":637,
			"type":"VEC3"
		},
		{
			"bufferView":20,
			"componentType":5126,
			"count":637,
			"type":"VEC2"
		},
		{
			"bufferView":21,
			"componentType":5126,
			"count":637,
			"type":"VEC2"
		}
	],
	"bufferViews":[
		{
			"buffer":0,
			"byteLength":7644,
			"byteOffset":0,
			"target":34962
		},
		{
			"buffer":0,
			"byteLength":7644,
			"byteOffset":7644,
			"target":34962
		},
		{
			"buffer":0,
			"byteLength":5096,
			"byteOffset":15288,
			"target":34962
		},
		{
			"buffer":0,
			"byteLength":5096,
			"byteOffset":20384,
			"target":34962
		},
		{
			"buffer":0,
			"byteLength":6912,
			"byteOffset":25480,
			"target":34963
		},
		{
			"buffer":0,
			"byteLength":1560,
			"byteOffset":32392,
			"target":34962
		},
		{
			"buffer":0,
			"byteLength":1560,
			"byteOffset":33952,
			"target":34962
		},
		{
			"buffer":0,
			"byteLength":1040,
			"byteOffset":35512,
			"target":34962
		},
		{
			"buffer":0,
			"byteLength":1040,
			"byteOffset":36552,
			"target":34962
		},
		{
			"buffer":0,
			"byteLength":744,
			"byteOffset":37592,
			"target":34963
		},
		{
			"buffer":0,
			"byteLength":7644,
			"byteOffset":38336,
			"target":34962
		},
		{
			"buffer":0,
			"byteLength":7644,
			"byteOffset":45980,
			"target":34962
		},
		{
			"buffer":0,
			"byteLength":5096,
			"byteOffset":53624,
			"target":34962
		},
		{
			"buffer":0,
			"byteLength":5096,
			"byteOffset":58720,
			"target":34962
		},
		{
			"buffer":0,
			"byteLength":7644,
			"byteOffset":63816,
			"target":34962
		},
		{
			"buffer":0,
			"byteLength":7644,
			"byteOffset":71460,
			"target":34962
		},
		{
			"buffer":0,
			"byteLength":5096,
			"byteOffset":79104,
			"target":34962
		},
		{
			"buffer":0,
			"byteLength":5096,
			"byteOffset":84200,
			"target":34962
		},
		{
			"buffer":0,
			"byteLength":7644,
			"byteOffset":89296,
			"target":34962
		},
		{
			"buffer":0,
			"byteLength":7644,
			"byteOffset":96940,
			"target":34962
		},
		{
			"buffer":0,
			"byteLength":5096,
			"byteOffset":104584,
			"target":34962
		},
		{
			"buffer":0,
			"byteLength":5096,
			"byteOffset":109680,
			"target":34962
		}
	],
	"buffers":[
		{
			"byteLength":114776,
			"uri":"drumCan.bin"
		}
	]
}
