{
	"asset":{
		"generator":"Khronos glTF Blender I/O v4.4.56",
		"version":"2.0"
	},
	"scene":0,
	"scenes":[
		{
			"name":"Scene",
			"nodes":[
				35
			]
		}
	],
	"nodes":[
		{
			"name":"Tendril_01",
			"translation":[
				1.2387449741363525,
				0.02810877561569214,
				0
			]
		},
		{
			"name":"Tendril_02",
			"translation":[
				1.149864912033081,
				0.020777523517608643,
				-0.6945130825042725
			]
		},
		{
			"name":"Tendril_03",
			"translation":[
				0.6891615390777588,
				0.011322736740112305,
				-1.1036245822906494
			]
		},
		{
			"name":"Tendril_04",
			"translation":[
				-0.025821838527917862,
				0.02116018533706665,
				-1.206099033355713
			]
		},
		{
			"name":"Tendril_05",
			"translation":[
				-0.5383682250976562,
				0.019359588623046875,
				-0.9326659440994263
			]
		},
		{
			"name":"Tendril_06",
			"translation":[
				-0.9638840556144714,
				0.01416391134262085,
				-0.5265728831291199
			]
		},
		{
			"name":"Tendril_07",
			"translation":[
				-1.1320652961730957,
				0.02336782217025757,
				-1.2611576783809724e-16
			]
		},
		{
			"name":"Tendril_08",
			"translation":[
				-1.0833221673965454,
				0.0214959979057312,
				0.5961769819259644
			]
		},
		{
			"name":"Tendril_09",
			"translation":[
				-0.676145613193512,
				0.017990529537200928,
				1.1713547706604004
			]
		},
		{
			"name":"Tendril_10",
			"translation":[
				-0.025997847318649292,
				0.013052046298980713,
				1.280853509902954
			]
		},
		{
			"name":"Tendril_11",
			"translation":[
				0.5991625785827637,
				0.02064603567123413,
				1.0360254049301147
			]
		},
		{
			"name":"Tendril_12",
			"translation":[
				0.9245438575744629,
				0.022181272506713867,
				0.5629724860191345
			]
		},
		{
			"name":"Tendril_13",
			"translation":[
				0.3712310791015625,
				0.43184995651245117,
				-0.346231073141098
			]
		},
		{
			"name":"Tendril_14",
			"translation":[
				-0.43073204159736633,
				0.43184995651245117,
				-0.40573203563690186
			]
		},
		{
			"name":"Tendril_15",
			"translation":[
				-0.43552809953689575,
				0.43184995651245117,
				0.46052810549736023
			]
		},
		{
			"name":"Tendril_16",
			"translation":[
				0.38120976090431213,
				0.43184995651245117,
				0.4062097668647766
			]
		},
		{
			"children":[
				0,
				1,
				2,
				3,
				4,
				5,
				6,
				7,
				8,
				9,
				10,
				11,
				12,
				13,
				14,
				15
			],
			"name":"Bell",
			"translation":[
				0,
				0.7200000286102295,
				0
			]
		},
		{
			"children":[
				16
			],
			"name":"Root"
		},
		{
			"mesh":0,
			"name":"Jellyfish_Bell",
			"skin":0
		},
		{
			"mesh":1,
			"name":"Jellyfish_OralArm_01",
			"skin":0
		},
		{
			"mesh":2,
			"name":"Jellyfish_OralArm_02",
			"skin":0
		},
		{
			"mesh":3,
			"name":"Jellyfish_OralArm_03",
			"skin":0
		},
		{
			"mesh":4,
			"name":"Jellyfish_OralArm_04",
			"skin":0
		},
		{
			"mesh":5,
			"name":"Jellyfish_Tentacle_01",
			"skin":0
		},
		{
			"mesh":6,
			"name":"Jellyfish_Tentacle_02",
			"skin":0
		},
		{
			"mesh":7,
			"name":"Jellyfish_Tentacle_03",
			"skin":0
		},
		{
			"mesh":8,
			"name":"Jellyfish_Tentacle_04",
			"skin":0
		},
		{
			"mesh":9,
			"name":"Jellyfish_Tentacle_05",
			"skin":0
		},
		{
			"mesh":10,
			"name":"Jellyfish_Tentacle_06",
			"skin":0
		},
		{
			"mesh":11,
			"name":"Jellyfish_Tentacle_07",
			"skin":0
		},
		{
			"mesh":12,
			"name":"Jellyfish_Tentacle_08",
			"skin":0
		},
		{
			"mesh":13,
			"name":"Jellyfish_Tentacle_09",
			"skin":0
		},
		{
			"mesh":14,
			"name":"Jellyfish_Tentacle_10",
			"skin":0
		},
		{
			"mesh":15,
			"name":"Jellyfish_Tentacle_11",
			"skin":0
		},
		{
			"mesh":16,
			"name":"Jellyfish_Tentacle_12",
			"skin":0
		},
		{
			"children":[
				18,
				19,
				20,
				21,
				22,
				23,
				24,
				25,
				26,
				27,
				28,
				29,
				30,
				31,
				32,
				33,
				34,
				17
			],
			"name":"jellyfish_Rig"
		}
	],
	"animations":[
		{
			"channels":[
				{
					"sampler":0,
					"target":{
						"node":17,
						"path":"translation"
					}
				},
				{
					"sampler":1,
					"target":{
						"node":17,
						"path":"rotation"
					}
				},
				{
					"sampler":2,
					"target":{
						"node":17,
						"path":"scale"
					}
				},
				{
					"sampler":3,
					"target":{
						"node":16,
						"path":"translation"
					}
				},
				{
					"sampler":4,
					"target":{
						"node":16,
						"path":"rotation"
					}
				},
				{
					"sampler":5,
					"target":{
						"node":16,
						"path":"scale"
					}
				},
				{
					"sampler":6,
					"target":{
						"node":0,
						"path":"translation"
					}
				},
				{
					"sampler":7,
					"target":{
						"node":0,
						"path":"rotation"
					}
				},
				{
					"sampler":8,
					"target":{
						"node":0,
						"path":"scale"
					}
				},
				{
					"sampler":9,
					"target":{
						"node":1,
						"path":"translation"
					}
				},
				{
					"sampler":10,
					"target":{
						"node":1,
						"path":"rotation"
					}
				},
				{
					"sampler":11,
					"target":{
						"node":1,
						"path":"scale"
					}
				},
				{
					"sampler":12,
					"target":{
						"node":2,
						"path":"translation"
					}
				},
				{
					"sampler":13,
					"target":{
						"node":2,
						"path":"rotation"
					}
				},
				{
					"sampler":14,
					"target":{
						"node":2,
						"path":"scale"
					}
				},
				{
					"sampler":15,
					"target":{
						"node":3,
						"path":"translation"
					}
				},
				{
					"sampler":16,
					"target":{
						"node":3,
						"path":"rotation"
					}
				},
				{
					"sampler":17,
					"target":{
						"node":3,
						"path":"scale"
					}
				},
				{
					"sampler":18,
					"target":{
						"node":4,
						"path":"translation"
					}
				},
				{
					"sampler":19,
					"target":{
						"node":4,
						"path":"rotation"
					}
				},
				{
					"sampler":20,
					"target":{
						"node":4,
						"path":"scale"
					}
				},
				{
					"sampler":21,
					"target":{
						"node":5,
						"path":"translation"
					}
				},
				{
					"sampler":22,
					"target":{
						"node":5,
						"path":"rotation"
					}
				},
				{
					"sampler":23,
					"target":{
						"node":5,
						"path":"scale"
					}
				},
				{
					"sampler":24,
					"target":{
						"node":6,
						"path":"translation"
					}
				},
				{
					"sampler":25,
					"target":{
						"node":6,
						"path":"rotation"
					}
				},
				{
					"sampler":26,
					"target":{
						"node":6,
						"path":"scale"
					}
				},
				{
					"sampler":27,
					"target":{
						"node":7,
						"path":"translation"
					}
				},
				{
					"sampler":28,
					"target":{
						"node":7,
						"path":"rotation"
					}
				},
				{
					"sampler":29,
					"target":{
						"node":7,
						"path":"scale"
					}
				},
				{
					"sampler":30,
					"target":{
						"node":8,
						"path":"translation"
					}
				},
				{
					"sampler":31,
					"target":{
						"node":8,
						"path":"rotation"
					}
				},
				{
					"sampler":32,
					"target":{
						"node":8,
						"path":"scale"
					}
				},
				{
					"sampler":33,
					"target":{
						"node":9,
						"path":"translation"
					}
				},
				{
					"sampler":34,
					"target":{
						"node":9,
						"path":"rotation"
					}
				},
				{
					"sampler":35,
					"target":{
						"node":9,
						"path":"scale"
					}
				},
				{
					"sampler":36,
					"target":{
						"node":10,
						"path":"translation"
					}
				},
				{
					"sampler":37,
					"target":{
						"node":10,
						"path":"rotation"
					}
				},
				{
					"sampler":38,
					"target":{
						"node":10,
						"path":"scale"
					}
				},
				{
					"sampler":39,
					"target":{
						"node":11,
						"path":"translation"
					}
				},
				{
					"sampler":40,
					"target":{
						"node":11,
						"path":"rotation"
					}
				},
				{
					"sampler":41,
					"target":{
						"node":11,
						"path":"scale"
					}
				},
				{
					"sampler":42,
					"target":{
						"node":12,
						"path":"translation"
					}
				},
				{
					"sampler":43,
					"target":{
						"node":12,
						"path":"rotation"
					}
				},
				{
					"sampler":44,
					"target":{
						"node":12,
						"path":"scale"
					}
				},
				{
					"sampler":45,
					"target":{
						"node":13,
						"path":"translation"
					}
				},
				{
					"sampler":46,
					"target":{
						"node":13,
						"path":"rotation"
					}
				},
				{
					"sampler":47,
					"target":{
						"node":13,
						"path":"scale"
					}
				},
				{
					"sampler":48,
					"target":{
						"node":14,
						"path":"translation"
					}
				},
				{
					"sampler":49,
					"target":{
						"node":14,
						"path":"rotation"
					}
				},
				{
					"sampler":50,
					"target":{
						"node":14,
						"path":"scale"
					}
				},
				{
					"sampler":51,
					"target":{
						"node":15,
						"path":"translation"
					}
				},
				{
					"sampler":52,
					"target":{
						"node":15,
						"path":"rotation"
					}
				},
				{
					"sampler":53,
					"target":{
						"node":15,
						"path":"scale"
					}
				}
			],
			"name":"Pulse",
			"samplers":[
				{
					"input":181,
					"interpolation":"STEP",
					"output":182
				},
				{
					"input":181,
					"interpolation":"STEP",
					"output":183
				},
				{
					"input":181,
					"interpolation":"STEP",
					"output":184
				},
				{
					"input":181,
					"interpolation":"STEP",
					"output":185
				},
				{
					"input":181,
					"interpolation":"STEP",
					"output":186
				},
				{
					"input":187,
					"interpolation":"LINEAR",
					"output":188
				},
				{
					"input":181,
					"interpolation":"STEP",
					"output":189
				},
				{
					"input":187,
					"interpolation":"LINEAR",
					"output":190
				},
				{
					"input":181,
					"interpolation":"STEP",
					"output":191
				},
				{
					"input":181,
					"interpolation":"STEP",
					"output":192
				},
				{
					"input":187,
					"interpolation":"LINEAR",
					"output":193
				},
				{
					"input":181,
					"interpolation":"STEP",
					"output":194
				},
				{
					"input":181,
					"interpolation":"STEP",
					"output":195
				},
				{
					"input":187,
					"interpolation":"LINEAR",
					"output":196
				},
				{
					"input":181,
					"interpolation":"STEP",
					"output":197
				},
				{
					"input":181,
					"interpolation":"STEP",
					"output":198
				},
				{
					"input":187,
					"interpolation":"LINEAR",
					"output":199
				},
				{
					"input":181,
					"interpolation":"STEP",
					"output":200
				},
				{
					"input":181,
					"interpolation":"STEP",
					"output":201
				},
				{
					"input":187,
					"interpolation":"LINEAR",
					"output":202
				},
				{
					"input":181,
					"interpolation":"STEP",
					"output":203
				},
				{
					"input":181,
					"interpolation":"STEP",
					"output":204
				},
				{
					"input":187,
					"interpolation":"LINEAR",
					"output":205
				},
				{
					"input":181,
					"interpolation":"STEP",
					"output":206
				},
				{
					"input":181,
					"interpolation":"STEP",
					"output":207
				},
				{
					"input":187,
					"interpolation":"LINEAR",
					"output":208
				},
				{
					"input":181,
					"interpolation":"STEP",
					"output":209
				},
				{
					"input":181,
					"interpolation":"STEP",
					"output":210
				},
				{
					"input":187,
					"interpolation":"LINEAR",
					"output":211
				},
				{
					"input":181,
					"interpolation":"STEP",
					"output":212
				},
				{
					"input":181,
					"interpolation":"STEP",
					"output":213
				},
				{
					"input":187,
					"interpolation":"LINEAR",
					"output":214
				},
				{
					"input":181,
					"interpolation":"STEP",
					"output":215
				},
				{
					"input":181,
					"interpolation":"STEP",
					"output":216
				},
				{
					"input":187,
					"interpolation":"LINEAR",
					"output":217
				},
				{
					"input":181,
					"interpolation":"STEP",
					"output":218
				},
				{
					"input":181,
					"interpolation":"STEP",
					"output":219
				},
				{
					"input":187,
					"interpolation":"LINEAR",
					"output":220
				},
				{
					"input":181,
					"interpolation":"STEP",
					"output":221
				},
				{
					"input":181,
					"interpolation":"STEP",
					"output":222
				},
				{
					"input":187,
					"interpolation":"LINEAR",
					"output":223
				},
				{
					"input":181,
					"interpolation":"STEP",
					"output":224
				},
				{
					"input":181,
					"interpolation":"STEP",
					"output":225
				},
				{
					"input":187,
					"interpolation":"LINEAR",
					"output":226
				},
				{
					"input":181,
					"interpolation":"STEP",
					"output":227
				},
				{
					"input":181,
					"interpolation":"STEP",
					"output":228
				},
				{
					"input":187,
					"interpolation":"LINEAR",
					"output":229
				},
				{
					"input":181,
					"interpolation":"STEP",
					"output":230
				},
				{
					"input":181,
					"interpolation":"STEP",
					"output":231
				},
				{
					"input":187,
					"interpolation":"LINEAR",
					"output":232
				},
				{
					"input":181,
					"interpolation":"STEP",
					"output":233
				},
				{
					"input":181,
					"interpolation":"STEP",
					"output":234
				},
				{
					"input":187,
					"interpolation":"LINEAR",
					"output":235
				},
				{
					"input":181,
					"interpolation":"STEP",
					"output":236
				}
			]
		}
	],
	"materials":[
		{
			"doubleSided":true,
			"name":"Pearl Lavender",
			"pbrMetallicRoughness":{
				"baseColorFactor":[
					0.6000000238418579,
					0.5099999904632568,
					0.7799999713897705,
					1
				],
				"metallicFactor":0,
				"roughnessFactor":0.4000000059604645
			}
		},
		{
			"doubleSided":true,
			"name":"Soft Periwinkle",
			"pbrMetallicRoughness":{
				"baseColorFactor":[
					0.38999998569488525,
					0.5699999928474426,
					0.7900000214576721,
					1
				],
				"metallicFactor":0,
				"roughnessFactor":0.4000000059604645
			}
		},
		{
			"doubleSided":true,
			"name":"Aqua Rim",
			"pbrMetallicRoughness":{
				"baseColorFactor":[
					0.36000001430511475,
					0.7200000286102295,
					0.7799999713897705,
					1
				],
				"metallicFactor":0,
				"roughnessFactor":0.4000000059604645
			}
		},
		{
			"doubleSided":true,
			"name":"Bell Interior",
			"pbrMetallicRoughness":{
				"baseColorFactor":[
					0.3199999928474426,
					0.4000000059604645,
					0.6600000262260437,
					1
				],
				"metallicFactor":0,
				"roughnessFactor":0.4000000059604645
			}
		},
		{
			"doubleSided":true,
			"name":"Oral Arms Lavender",
			"pbrMetallicRoughness":{
				"baseColorFactor":[
					0.6800000071525574,
					0.49000000953674316,
					0.7300000190734863,
					1
				],
				"metallicFactor":0,
				"roughnessFactor":0.4000000059604645
			}
		},
		{
			"doubleSided":true,
			"name":"Oral Arms Pearl",
			"pbrMetallicRoughness":{
				"baseColorFactor":[
					0.7900000214576721,
					0.6899999976158142,
					0.8299999833106995,
					1
				],
				"metallicFactor":0,
				"roughnessFactor":0.4000000059604645
			}
		},
		{
			"doubleSided":true,
			"name":"Tentacles Aqua",
			"pbrMetallicRoughness":{
				"baseColorFactor":[
					0.3400000035762787,
					0.6700000166893005,
					0.7200000286102295,
					1
				],
				"metallicFactor":0,
				"roughnessFactor":0.4000000059604645
			}
		},
		{
			"doubleSided":true,
			"name":"Tentacle Tips",
			"pbrMetallicRoughness":{
				"baseColorFactor":[
					0.5799999833106995,
					0.47999998927116394,
					0.7699999809265137,
					1
				],
				"metallicFactor":0,
				"roughnessFactor":0.4000000059604645
			}
		}
	],
	"meshes":[
		{
			"name":"Jellyfish_Bell",
			"primitives":[
				{
					"attributes":{
						"POSITION":0,
						"NORMAL":1,
						"JOINTS_0":2,
						"WEIGHTS_0":3
					},
					"indices":4,
					"material":0
				},
				{
					"attributes":{
						"POSITION":5,
						"NORMAL":6,
						"JOINTS_0":7,
						"WEIGHTS_0":8
					},
					"indices":9,
					"material":1
				},
				{
					"attributes":{
						"POSITION":10,
						"NORMAL":11,
						"JOINTS_0":12,
						"WEIGHTS_0":13
					},
					"indices":14,
					"material":2
				},
				{
					"attributes":{
						"POSITION":15,
						"NORMAL":16,
						"JOINTS_0":17,
						"WEIGHTS_0":18
					},
					"indices":19,
					"material":3
				}
			]
		},
		{
			"name":"Jellyfish_OralArm_01",
			"primitives":[
				{
					"attributes":{
						"POSITION":21,
						"NORMAL":22,
						"JOINTS_0":23,
						"WEIGHTS_0":24
					},
					"indices":25,
					"material":4
				},
				{
					"attributes":{
						"POSITION":26,
						"NORMAL":27,
						"JOINTS_0":28,
						"WEIGHTS_0":29
					},
					"indices":30,
					"material":5
				}
			]
		},
		{
			"name":"Jellyfish_OralArm_02",
			"primitives":[
				{
					"attributes":{
						"POSITION":31,
						"NORMAL":32,
						"JOINTS_0":33,
						"WEIGHTS_0":34
					},
					"indices":35,
					"material":4
				},
				{
					"attributes":{
						"POSITION":36,
						"NORMAL":37,
						"JOINTS_0":38,
						"WEIGHTS_0":39
					},
					"indices":40,
					"material":5
				}
			]
		},
		{
			"name":"Jellyfish_OralArm_03",
			"primitives":[
				{
					"attributes":{
						"POSITION":41,
						"NORMAL":42,
						"JOINTS_0":43,
						"WEIGHTS_0":44
					},
					"indices":45,
					"material":4
				},
				{
					"attributes":{
						"POSITION":46,
						"NORMAL":47,
						"JOINTS_0":48,
						"WEIGHTS_0":49
					},
					"indices":50,
					"material":5
				}
			]
		},
		{
			"name":"Jellyfish_OralArm_04",
			"primitives":[
				{
					"attributes":{
						"POSITION":51,
						"NORMAL":52,
						"JOINTS_0":53,
						"WEIGHTS_0":54
					},
					"indices":55,
					"material":4
				},
				{
					"attributes":{
						"POSITION":56,
						"NORMAL":57,
						"JOINTS_0":58,
						"WEIGHTS_0":59
					},
					"indices":60,
					"material":5
				}
			]
		},
		{
			"name":"Jellyfish_Tentacle_01",
			"primitives":[
				{
					"attributes":{
						"POSITION":61,
						"NORMAL":62,
						"JOINTS_0":63,
						"WEIGHTS_0":64
					},
					"indices":65,
					"material":6
				},
				{
					"attributes":{
						"POSITION":66,
						"NORMAL":67,
						"JOINTS_0":68,
						"WEIGHTS_0":69
					},
					"indices":70,
					"material":7
				}
			]
		},
		{
			"name":"Jellyfish_Tentacle_02",
			"primitives":[
				{
					"attributes":{
						"POSITION":71,
						"NORMAL":72,
						"JOINTS_0":73,
						"WEIGHTS_0":74
					},
					"indices":75,
					"material":6
				},
				{
					"attributes":{
						"POSITION":76,
						"NORMAL":77,
						"JOINTS_0":78,
						"WEIGHTS_0":79
					},
					"indices":80,
					"material":7
				}
			]
		},
		{
			"name":"Jellyfish_Tentacle_03",
			"primitives":[
				{
					"attributes":{
						"POSITION":81,
						"NORMAL":82,
						"JOINTS_0":83,
						"WEIGHTS_0":84
					},
					"indices":85,
					"material":6
				},
				{
					"attributes":{
						"POSITION":86,
						"NORMAL":87,
						"JOINTS_0":88,
						"WEIGHTS_0":89
					},
					"indices":90,
					"material":7
				}
			]
		},
		{
			"name":"Jellyfish_Tentacle_04",
			"primitives":[
				{
					"attributes":{
						"POSITION":91,
						"NORMAL":92,
						"JOINTS_0":93,
						"WEIGHTS_0":94
					},
					"indices":95,
					"material":6
				},
				{
					"attributes":{
						"POSITION":96,
						"NORMAL":97,
						"JOINTS_0":98,
						"WEIGHTS_0":99
					},
					"indices":100,
					"material":7
				}
			]
		},
		{
			"name":"Jellyfish_Tentacle_05",
			"primitives":[
				{
					"attributes":{
						"POSITION":101,
						"NORMAL":102,
						"JOINTS_0":103,
						"WEIGHTS_0":104
					},
					"indices":105,
					"material":6
				},
				{
					"attributes":{
						"POSITION":106,
						"NORMAL":107,
						"JOINTS_0":108,
						"WEIGHTS_0":109
					},
					"indices":110,
					"material":7
				}
			]
		},
		{
			"name":"Jellyfish_Tentacle_06",
			"primitives":[
				{
					"attributes":{
						"POSITION":111,
						"NORMAL":112,
						"JOINTS_0":113,
						"WEIGHTS_0":114
					},
					"indices":115,
					"material":6
				},
				{
					"attributes":{
						"POSITION":116,
						"NORMAL":117,
						"JOINTS_0":118,
						"WEIGHTS_0":119
					},
					"indices":120,
					"material":7
				}
			]
		},
		{
			"name":"Jellyfish_Tentacle_07",
			"primitives":[
				{
					"attributes":{
						"POSITION":121,
						"NORMAL":122,
						"JOINTS_0":123,
						"WEIGHTS_0":124
					},
					"indices":125,
					"material":6
				},
				{
					"attributes":{
						"POSITION":126,
						"NORMAL":127,
						"JOINTS_0":128,
						"WEIGHTS_0":129
					},
					"indices":130,
					"material":7
				}
			]
		},
		{
			"name":"Jellyfish_Tentacle_08",
			"primitives":[
				{
					"attributes":{
						"POSITION":131,
						"NORMAL":132,
						"JOINTS_0":133,
						"WEIGHTS_0":134
					},
					"indices":135,
					"material":6
				},
				{
					"attributes":{
						"POSITION":136,
						"NORMAL":137,
						"JOINTS_0":138,
						"WEIGHTS_0":139
					},
					"indices":140,
					"material":7
				}
			]
		},
		{
			"name":"Jellyfish_Tentacle_09",
			"primitives":[
				{
					"attributes":{
						"POSITION":141,
						"NORMAL":142,
						"JOINTS_0":143,
						"WEIGHTS_0":144
					},
					"indices":145,
					"material":6
				},
				{
					"attributes":{
						"POSITION":146,
						"NORMAL":147,
						"JOINTS_0":148,
						"WEIGHTS_0":149
					},
					"indices":150,
					"material":7
				}
			]
		},
		{
			"name":"Jellyfish_Tentacle_10",
			"primitives":[
				{
					"attributes":{
						"POSITION":151,
						"NORMAL":152,
						"JOINTS_0":153,
						"WEIGHTS_0":154
					},
					"indices":155,
					"material":6
				},
				{
					"attributes":{
						"POSITION":156,
						"NORMAL":157,
						"JOINTS_0":158,
						"WEIGHTS_0":159
					},
					"indices":160,
					"material":7
				}
			]
		},
		{
			"name":"Jellyfish_Tentacle_11",
			"primitives":[
				{
					"attributes":{
						"POSITION":161,
						"NORMAL":162,
						"JOINTS_0":163,
						"WEIGHTS_0":164
					},
					"indices":165,
					"material":6
				},
				{
					"attributes":{
						"POSITION":166,
						"NORMAL":167,
						"JOINTS_0":168,
						"WEIGHTS_0":169
					},
					"indices":170,
					"material":7
				}
			]
		},
		{
			"name":"Jellyfish_Tentacle_12",
			"primitives":[
				{
					"attributes":{
						"POSITION":171,
						"NORMAL":172,
						"JOINTS_0":173,
						"WEIGHTS_0":174
					},
					"indices":175,
					"material":6
				},
				{
					"attributes":{
						"POSITION":176,
						"NORMAL":177,
						"JOINTS_0":178,
						"WEIGHTS_0":179
					},
					"indices":180,
					"material":7
				}
			]
		}
	],
	"skins":[
		{
			"inverseBindMatrices":20,
			"joints":[
				17,
				16,
				0,
				1,
				2,
				3,
				4,
				5,
				6,
				7,
				8,
				9,
				10,
				11,
				12,
				13,
				14,
				15
			],
			"name":"jellyfish_Rig"
		}
	],
	"accessors":[
		{
			"bufferView":0,
			"componentType":5126,
			"count":192,
			"max":[
				0.800000011920929,
				1.7999999523162842,
				0.800000011920929
			],
			"min":[
				-0.800000011920929,
				1.590000033378601,
				-0.800000011920929
			],
			"type":"VEC3"
		},
		{
			"bufferView":1,
			"componentType":5126,
			"count":192,
			"type":"VEC3"
		},
		{
			"bufferView":2,
			"componentType":5121,
			"count":192,
			"type":"VEC4"
		},
		{
			"bufferView":3,
			"componentType":5126,
			"count":192,
			"type":"VEC4"
		},
		{
			"bufferView":4,
			"componentType":5123,
			"count":288,
			"type":"SCALAR"
		},
		{
			"bufferView":5,
			"componentType":5126,
			"count":192,
			"max":[
				1.2899999618530273,
				1.590000033378601,
				1.2899999618530273
			],
			"min":[
				-1.2899999618530273,
				0.8949999809265137,
				-1.2899999618530273
			],
			"type":"VEC3"
		},
		{
			"bufferView":6,
			"componentType":5126,
			"count":192,
			"type":"VEC3"
		},
		{
			"bufferView":7,
			"componentType":5121,
			"count":192,
			"type":"VEC4"
		},
		{
			"bufferView":8,
			"componentType":5126,
			"count":192,
			"type":"VEC4"
		},
		{
			"bufferView":9,
			"componentType":5123,
			"count":288,
			"type":"SCALAR"
		},
		{
			"bufferView":10,
			"componentType":5126,
			"count":192,
			"max":[
				1.3200000524520874,
				1.0049999952316284,
				1.3200000524520874
			],
			"min":[
				-1.3200000524520874,
				0.6349999904632568,
				-1.3200000524520874
			],
			"type":"VEC3"
		},
		{
			"bufferView":11,
			"componentType":5126,
			"count":192,
			"type":"VEC3"
		},
		{
			"bufferView":12,
			"componentType":5121,
			"count":192,
			"type":"VEC4"
		},
		{
			"bufferView":13,
			"componentType":5126,
			"count":192,
			"type":"VEC4"
		},
		{
			"bufferView":14,
			"componentType":5123,
			"count":288,
			"type":"SCALAR"
		},
		{
			"bufferView":15,
			"componentType":5126,
			"count":400,
			"max":[
				1.2300000190734863,
				1.399999976158142,
				1.2300000190734863
			],
			"min":[
				-1.2300000190734863,
				0.6349999904632568,
				-1.2300000190734863
			],
			"type":"VEC3"
		},
		{
			"bufferView":16,
			"componentType":5126,
			"count":400,
			"type":"VEC3"
		},
		{
			"bufferView":17,
			"componentType":5121,
			"count":400,
			"type":"VEC4"
		},
		{
			"bufferView":18,
			"componentType":5126,
			"count":400,
			"type":"VEC4"
		},
		{
			"bufferView":19,
			"componentType":5123,
			"count":576,
			"type":"SCALAR"
		},
		{
			"bufferView":20,
			"componentType":5126,
			"count":18,
			"type":"MAT4"
		},
		{
			"bufferView":21,
			"componentType":5126,
			"count":152,
			"max":[
				0.4610849618911743,
				1.1518499851226807,
				0.00025127269327640533
			],
			"min":[
				0.024748727679252625,
				-1.4840530157089233,
				-0.5147280693054199
			],
			"type":"VEC3"
		},
		{
			"bufferView":22,
			"componentType":5126,
			"count":152,
			"type":"VEC3"
		},
		{
			"bufferView":23,
			"componentType":5121,
			"count":152,
			"type":"VEC4"
		},
		{
			"bufferView":24,
			"componentType":5126,
			"count":152,
			"type":"VEC4"
		},
		{
			"bufferView":25,
			"componentType":5123,
			"count":228,
			"type":"SCALAR"
		},
		{
			"bufferView":26,
			"componentType":5126,
			"count":144,
			"max":[
				0.4610849618911743,
				0.9805142879486084,
				-0.06453824788331985
			],
			"min":[
				0.09096050262451172,
				-1.4840530157089233,
				-0.5147280693054199
			],
			"type":"VEC3"
		},
		{
			"bufferView":27,
			"componentType":5126,
			"count":144,
			"type":"VEC3"
		},
		{
			"bufferView":28,
			"componentType":5121,
			"count":144,
			"type":"VEC4"
		},
		{
			"bufferView":29,
			"componentType":5126,
			"count":144,
			"type":"VEC4"
		},
		{
			"bufferView":30,
			"componentType":5123,
			"count":216,
			"type":"SCALAR"
		},
		{
			"bufferView":31,
			"componentType":5126,
			"count":152,
			"max":[
				-0.029074251651763916,
				1.1518499851226807,
				-0.05924970656633377
			],
			"min":[
				-0.4516269564628601,
				-1.4840530157089233,
				-0.4920499920845032
			],
			"type":"VEC3"
		},
		{
			"bufferView":32,
			"componentType":5126,
			"count":152,
			"type":"VEC3"
		},
		{
			"bufferView":33,
			"componentType":5121,
			"count":152,
			"type":"VEC4"
		},
		{
			"bufferView":34,
			"componentType":5126,
			"count":152,
			"type":"VEC4"
		},
		{
			"bufferView":35,
			"componentType":5123,
			"count":228,
			"type":"SCALAR"
		},
		{
			"bufferView":36,
			"componentType":5126,
			"count":144,
			"max":[
				-0.029074251651763916,
				0.9805142879486084,
				-0.09421300143003464
			],
			"min":[
				-0.4516269564628601,
				-1.4840530157089233,
				-0.4920499920845032
			],
			"type":"VEC3"
		},
		{
			"bufferView":37,
			"componentType":5126,
			"count":144,
			"type":"VEC3"
		},
		{
			"bufferView":38,
			"componentType":5121,
			"count":144,
			"type":"VEC4"
		},
		{
			"bufferView":39,
			"componentType":5126,
			"count":144,
			"type":"VEC4"
		},
		{
			"bufferView":40,
			"componentType":5123,
			"count":216,
			"type":"SCALAR"
		},
		{
			"bufferView":41,
			"componentType":5126,
			"count":152,
			"max":[
				-0.08904576301574707,
				1.1518499851226807,
				0.46052810549736023
			],
			"min":[
				-0.47311103343963623,
				-1.4840530157089233,
				-0.03184708207845688
			],
			"type":"VEC3"
		},
		{
			"bufferView":42,
			"componentType":5126,
			"count":152,
			"type":"VEC3"
		},
		{
			"bufferView":43,
			"componentType":5121,
			"count":152,
			"type":"VEC4"
		},
		{
			"bufferView":44,
			"componentType":5126,
			"count":152,
			"type":"VEC4"
		},
		{
			"bufferView":45,
			"componentType":5123,
			"count":228,
			"type":"SCALAR"
		},
		{
			"bufferView":46,
			"componentType":5126,
			"count":144,
			"max":[
				-0.11978763341903687,
				0.9805142879486084,
				0.414238840341568
			],
			"min":[
				-0.47311103343963623,
				-1.4840530157089233,
				-0.03184708207845688
			],
			"type":"VEC3"
		},
		{
			"bufferView":47,
			"componentType":5126,
			"count":144,
			"type":"VEC3"
		},
		{
			"bufferView":48,
			"componentType":5121,
			"count":144,
			"type":"VEC4"
		},
		{
			"bufferView":49,
			"componentType":5126,
			"count":144,
			"type":"VEC4"
		},
		{
			"bufferView":50,
			"componentType":5123,
			"count":216,
			"type":"SCALAR"
		},
		{
			"bufferView":51,
			"componentType":5126,
			"count":152,
			"max":[
				0.4196479916572571,
				1.1518499851226807,
				0.4952806830406189
			],
			"min":[
				-0.035395219922065735,
				-1.4840530157089233,
				0.009727424010634422
			],
			"type":"VEC3"
		},
		{
			"bufferView":52,
			"componentType":5126,
			"count":152,
			"type":"VEC3"
		},
		{
			"bufferView":53,
			"componentType":5121,
			"count":152,
			"type":"VEC4"
		},
		{
			"bufferView":54,
			"componentType":5126,
			"count":152,
			"type":"VEC4"
		},
		{
			"bufferView":55,
			"componentType":5123,
			"count":228,
			"type":"SCALAR"
		},
		{
			"bufferView":56,
			"componentType":5126,
			"count":144,
			"max":[
				0.4196479916572571,
				0.9805142879486084,
				0.4952806830406189
			],
			"min":[
				-0.035395219922065735,
				-1.4840530157089233,
				0.06531638652086258
			],
			"type":"VEC3"
		},
		{
			"bufferView":57,
			"componentType":5126,
			"count":144,
			"type":"VEC3"
		},
		{
			"bufferView":58,
			"componentType":5121,
			"count":144,
			"type":"VEC4"
		},
		{
			"bufferView":59,
			"componentType":5126,
			"count":144,
			"type":"VEC4"
		},
		{
			"bufferView":60,
			"componentType":5123,
			"count":216,
			"type":"SCALAR"
		},
		{
			"bufferView":61,
			"componentType":5126,
			"count":336,
			"max":[
				1.439810037612915,
				0.7481088042259216,
				0.0963616669178009
			],
			"min":[
				1.0950696468353271,
				-1.160901427268982,
				-0.06374894082546234
			],
			"type":"VEC3"
		},
		{
			"bufferView":62,
			"componentType":5126,
			"count":336,
			"type":"VEC3"
		},
		{
			"bufferView":63,
			"componentType":5121,
			"count":336,
			"type":"VEC4"
		},
		{
			"bufferView":64,
			"componentType":5126,
			"count":336,
			"type":"VEC4"
		},
		{
			"bufferView":65,
			"componentType":5123,
			"count":480,
			"type":"SCALAR"
		},
		{
			"bufferView":66,
			"componentType":5126,
			"count":78,
			"max":[
				1.2711997032165527,
				-1.1572235822677612,
				0.0963616669178009
			],
			"min":[
				1.0981783866882324,
				-1.5994924306869507,
				0.01857372373342514
			],
			"type":"VEC3"
		},
		{
			"bufferView":67,
			"componentType":5126,
			"count":78,
			"type":"VEC3"
		},
		{
			"bufferView":68,
			"componentType":5121,
			"count":78,
			"type":"VEC4"
		},
		{
			"bufferView":69,
			"componentType":5126,
			"count":78,
			"type":"VEC4"
		},
		{
			"bufferView":70,
			"componentType":5123,
			"count":120,
			"type":"SCALAR"
		},
		{
			"bufferView":71,
			"componentType":5126,
			"count":322,
			"max":[
				1.2292768955230713,
				0.7407775521278381,
				-0.48750925064086914
			],
			"min":[
				0.9113823771476746,
				-1.358469009399414,
				-0.7280941605567932
			],
			"type":"VEC3"
		},
		{
			"bufferView":72,
			"componentType":5126,
			"count":322,
			"type":"VEC3"
		},
		{
			"bufferView":73,
			"componentType":5121,
			"count":322,
			"type":"VEC4"
		},
		{
			"bufferView":74,
			"componentType":5126,
			"count":322,
			"type":"VEC4"
		},
		{
			"bufferView":75,
			"componentType":5123,
			"count":480,
			"type":"SCALAR"
		},
		{
			"bufferView":76,
			"componentType":5126,
			"count":80,
			"max":[
				1.2282657623291016,
				-1.345402717590332,
				-0.5278049111366272
			],
			"min":[
				1.0215801000595093,
				-1.8369488716125488,
				-0.7035530805587769
			],
			"type":"VEC3"
		},
		{
			"bufferView":77,
			"componentType":5126,
			"count":80,
			"type":"VEC3"
		},
		{
			"bufferView":78,
			"componentType":5121,
			"count":80,
			"type":"VEC4"
		},
		{
			"bufferView":79,
			"componentType":5126,
			"count":80,
			"type":"VEC4"
		},
		{
			"bufferView":80,
			"componentType":5123,
			"count":120,
			"type":"SCALAR"
		},
		{
			"bufferView":81,
			"componentType":5126,
			"count":322,
			"max":[
				0.7372655272483826,
				0.7313227653503418,
				-0.8962885141372681
			],
			"min":[
				0.48144665360450745,
				-0.9739336967468262,
				-1.1936614513397217
			],
			"type":"VEC3"
		},
		{
			"bufferView":82,
			"componentType":5126,
			"count":322,
			"type":"VEC3"
		},
		{
			"bufferView":83,
			"componentType":5121,
			"count":322,
			"type":"VEC4"
		},
		{
			"bufferView":84,
			"componentType":5126,
			"count":322,
			"type":"VEC4"
		},
		{
			"bufferView":85,
			"componentType":5123,
			"count":480,
			"type":"SCALAR"
		},
		{
			"bufferView":86,
			"componentType":5126,
			"count":78,
			"max":[
				0.7715541124343872,
				-0.9547058343887329,
				-1.0963695049285889
			],
			"min":[
				0.7013896107673645,
				-1.359276533126831,
				-1.3022513389587402
			],
			"type":"VEC3"
		},
		{
			"bufferView":87,
			"componentType":5126,
			"count":78,
			"type":"VEC3"
		},
		{
			"bufferView":88,
			"componentType":5121,
			"count":78,
			"type":"VEC4"
		},
		{
			"bufferView":89,
			"componentType":5126,
			"count":78,
			"type":"VEC4"
		},
		{
			"bufferView":90,
			"componentType":5123,
			"count":120,
			"type":"SCALAR"
		},
		{
			"bufferView":91,
			"componentType":5126,
			"count":326,
			"max":[
				0.11306601762771606,
				0.7411602139472961,
				-1.0324008464813232
			],
			"min":[
				-0.0753113180398941,
				-1.1697510480880737,
				-1.4486039876937866
			],
			"type":"VEC3"
		},
		{
			"bufferView":92,
			"componentType":5126,
			"count":326,
			"type":"VEC3"
		},
		{
			"bufferView":93,
			"componentType":5121,
			"count":326,
			"type":"VEC4"
		},
		{
			"bufferView":94,
			"componentType":5126,
			"count":326,
			"type":"VEC4"
		},
		{
			"bufferView":95,
			"componentType":5123,
			"count":480,
			"type":"SCALAR"
		},
		{
			"bufferView":96,
			"componentType":5126,
			"count":84,
			"max":[
				0.08935607969760895,
				-1.1558877229690552,
				-1.4179879426956177
			],
			"min":[
				-0.08103649318218231,
				-1.6034482717514038,
				-1.5065125226974487
			],
			"type":"VEC3"
		},
		{
			"bufferView":97,
			"componentType":5126,
			"count":84,
			"type":"VEC3"
		},
		{
			"bufferView":98,
			"componentType":5121,
			"count":84,
			"type":"VEC4"
		},
		{
			"bufferView":99,
			"componentType":5126,
			"count":84,
			"type":"VEC4"
		},
		{
			"bufferView":100,
			"componentType":5123,
			"count":120,
			"type":"SCALAR"
		},
		{
			"bufferView":101,
			"componentType":5126,
			"count":350,
			"max":[
				-0.5083703994750977,
				0.7393596172332764,
				-0.8751144409179688
			],
			"min":[
				-0.7576429843902588,
				-1.35588538646698,
				-1.2929198741912842
			],
			"type":"VEC3"
		},
		{
			"bufferView":102,
			"componentType":5126,
			"count":350,
			"type":"VEC3"
		},
		{
			"bufferView":103,
			"componentType":5121,
			"count":350,
			"type":"VEC4"
		},
		{
			"bufferView":104,
			"componentType":5126,
			"count":350,
			"type":"VEC4"
		},
		{
			"bufferView":105,
			"componentType":5123,
			"count":480,
			"type":"SCALAR"
		},
		{
			"bufferView":106,
			"componentType":5126,
			"count":78,
			"max":[
				-0.7221620082855225,
				-1.344138503074646,
				-1.1600415706634521
			],
			"min":[
				-0.8473805785179138,
				-1.8332335948944092,
				-1.2926504611968994
			],
			"type":"VEC3"
		},
		{
			"bufferView":107,
			"componentType":5126,
			"count":78,
			"type":"VEC3"
		},
		{
			"bufferView":108,
			"componentType":5121,
			"count":78,
			"type":"VEC4"
		},
		{
			"bufferView":109,
			"componentType":5126,
			"count":78,
			"type":"VEC4"
		},
		{
			"bufferView":110,
			"componentType":5123,
			"count":120,
			"type":"SCALAR"
		},
		{
			"bufferView":111,
			"componentType":5126,
			"count":334,
			"max":[
				-0.8602179884910583,
				0.7341639399528503,
				-0.48136821389198303
			],
			"min":[
				-1.3264063596725464,
				-0.967413067817688,
				-0.7625409960746765
			],
			"type":"VEC3"
		},
		{
			"bufferView":112,
			"componentType":5126,
			"count":334,
			"type":"VEC3"
		},
		{
			"bufferView":113,
			"componentType":5121,
			"count":334,
			"type":"VEC4"
		},
		{
			"bufferView":114,
			"componentType":5126,
			"count":334,
			"type":"VEC4"
		},
		{
			"bufferView":115,
			"componentType":5123,
			"count":480,
			"type":"SCALAR"
		},
		{
			"bufferView":116,
			"componentType":5126,
			"count":80,
			"max":[
				-1.1852695941925049,
				-0.9575978517532349,
				-0.5404186844825745
			],
			"min":[
				-1.3264063596725464,
				-1.3579466342926025,
				-0.6770301461219788
			],
			"type":"VEC3"
		},
		{
			"bufferView":117,
			"componentType":5126,
			"count":80,
			"type":"VEC3"
		},
		{
			"bufferView":118,
			"componentType":5121,
			"count":80,
			"type":"VEC4"
		},
		{
			"bufferView":119,
			"componentType":5126,
			"count":80,
			"type":"VEC4"
		},
		{
			"bufferView":120,
			"componentType":5123,
			"count":120,
			"type":"SCALAR"
		},
		{
			"bufferView":121,
			"componentType":5126,
			"count":386,
			"max":[
				-1.0315606594085693,
				0.7433678507804871,
				0.09681536257266998
			],
			"min":[
				-1.467093825340271,
				-1.1735196113586426,
				-0.06631583720445633
			],
			"type":"VEC3"
		},
		{
			"bufferView":122,
			"componentType":5126,
			"count":386,
			"type":"VEC3"
		},
		{
			"bufferView":123,
			"componentType":5121,
			"count":386,
			"type":"VEC4"
		},
		{
			"bufferView":124,
			"componentType":5126,
			"count":386,
			"type":"VEC4"
		},
		{
			"bufferView":125,
			"componentType":5123,
			"count":480,
			"type":"SCALAR"
		},
		{
			"bufferView":126,
			"componentType":5126,
			"count":92,
			"max":[
				-1.129764199256897,
				-1.1596307754516602,
				0.09864630550146103
			],
			"min":[
				-1.380902647972107,
				-1.6093991994857788,
				0.044215403497219086
			],
			"type":"VEC3"
		},
		{
			"bufferView":127,
			"componentType":5126,
			"count":92,
			"type":"VEC3"
		},
		{
			"bufferView":128,
			"componentType":5121,
			"count":92,
			"type":"VEC4"
		},
		{
			"bufferView":129,
			"componentType":5126,
			"count":92,
			"type":"VEC4"
		},
		{
			"bufferView":130,
			"componentType":5123,
			"count":120,
			"type":"SCALAR"
		},
		{
			"bufferView":131,
			"componentType":5126,
			"count":348,
			"max":[
				-0.9818955659866333,
				0.7414960265159607,
				0.7210783958435059
			],
			"min":[
				-1.2421187162399292,
				-1.3546843528747559,
				0.551464319229126
			],
			"type":"VEC3"
		},
		{
			"bufferView":132,
			"componentType":5126,
			"count":348,
			"type":"VEC3"
		},
		{
			"bufferView":133,
			"componentType":5121,
			"count":348,
			"type":"VEC4"
		},
		{
			"bufferView":134,
			"componentType":5126,
			"count":348,
			"type":"VEC4"
		},
		{
			"bufferView":135,
			"componentType":5123,
			"count":480,
			"type":"SCALAR"
		},
		{
			"bufferView":136,
			"componentType":5126,
			"count":78,
			"max":[
				-0.8790900707244873,
				-1.341383695602417,
				0.6550878882408142
			],
			"min":[
				-1.021960735321045,
				-1.8297926187515259,
				0.5368332266807556
			],
			"type":"VEC3"
		},
		{
			"bufferView":137,
			"componentType":5126,
			"count":78,
			"type":"VEC3"
		},
		{
			"bufferView":138,
			"componentType":5121,
			"count":78,
			"type":"VEC4"
		},
		{
			"bufferView":139,
			"componentType":5126,
			"count":78,
			"type":"VEC4"
		},
		{
			"bufferView":140,
			"componentType":5123,
			"count":120,
			"type":"SCALAR"
		},
		{
			"bufferView":141,
			"componentType":5126,
			"count":366,
			"max":[
				-0.4625677764415741,
				0.7379905581474304,
				1.1992967128753662
			],
			"min":[
				-0.7240275740623474,
				-0.9636129140853882,
				0.9572828412055969
			],
			"type":"VEC3"
		},
		{
			"bufferView":142,
			"componentType":5126,
			"count":366,
			"type":"VEC3"
		},
		{
			"bufferView":143,
			"componentType":5121,
			"count":366,
			"type":"VEC4"
		},
		{
			"bufferView":144,
			"componentType":5126,
			"count":366,
			"type":"VEC4"
		},
		{
			"bufferView":145,
			"componentType":5123,
			"count":480,
			"type":"SCALAR"
		},
		{
			"bufferView":146,
			"componentType":5126,
			"count":81,
			"max":[
				-0.4590863883495331,
				-0.9578806161880493,
				1.0014102458953857
			],
			"min":[
				-0.5556774139404297,
				-1.3548046350479126,
				0.9508194923400879
			],
			"type":"VEC3"
		},
		{
			"bufferView":147,
			"componentType":5126,
			"count":81,
			"type":"VEC3"
		},
		{
			"bufferView":148,
			"componentType":5121,
			"count":81,
			"type":"VEC4"
		},
		{
			"bufferView":149,
			"componentType":5126,
			"count":81,
			"type":"VEC4"
		},
		{
			"bufferView":150,
			"componentType":5123,
			"count":120,
			"type":"SCALAR"
		},
		{
			"bufferView":151,
			"componentType":5126,
			"count":332,
			"max":[
				0.11812648177146912,
				0.7330520749092102,
				1.370715618133545
			],
			"min":[
				-0.07905232906341553,
				-1.1750088930130005,
				1.0944347381591797
			],
			"type":"VEC3"
		},
		{
			"bufferView":152,
			"componentType":5126,
			"count":332,
			"type":"VEC3"
		},
		{
			"bufferView":153,
			"componentType":5121,
			"count":332,
			"type":"VEC4"
		},
		{
			"bufferView":154,
			"componentType":5126,
			"count":332,
			"type":"VEC4"
		},
		{
			"bufferView":155,
			"componentType":5123,
			"count":480,
			"type":"SCALAR"
		},
		{
			"bufferView":156,
			"componentType":5126,
			"count":78,
			"max":[
				0.10858999937772751,
				-1.1656488180160522,
				1.3249632120132446
			],
			"min":[
				-0.04772064834833145,
				-1.6142657995224,
				1.1382344961166382
			],
			"type":"VEC3"
		},
		{
			"bufferView":157,
			"componentType":5126,
			"count":78,
			"type":"VEC3"
		},
		{
			"bufferView":158,
			"componentType":5121,
			"count":78,
			"type":"VEC4"
		},
		{
			"bufferView":159,
			"componentType":5126,
			"count":78,
			"type":"VEC4"
		},
		{
			"bufferView":160,
			"componentType":5123,
			"count":120,
			"type":"SCALAR"
		},
		{
			"bufferView":161,
			"componentType":5126,
			"count":342,
			"max":[
				0.7207996845245361,
				0.7406460642814636,
				1.1279205083847046
			],
			"min":[
				0.4931771159172058,
				-1.3524501323699951,
				0.9249607920646667
			],
			"type":"VEC3"
		},
		{
			"bufferView":162,
			"componentType":5126,
			"count":342,
			"type":"VEC3"
		},
		{
			"bufferView":163,
			"componentType":5121,
			"count":342,
			"type":"VEC4"
		},
		{
			"bufferView":164,
			"componentType":5126,
			"count":342,
			"type":"VEC4"
		},
		{
			"bufferView":165,
			"componentType":5123,
			"count":480,
			"type":"SCALAR"
		},
		{
			"bufferView":166,
			"componentType":5126,
			"count":78,
			"max":[
				0.697746992111206,
				-1.339555263519287,
				1.2924226522445679
			],
			"min":[
				0.5884732007980347,
				-1.8288555145263672,
				1.097286581993103
			],
			"type":"VEC3"
		},
		{
			"bufferView":167,
			"componentType":5126,
			"count":78,
			"type":"VEC3"
		},
		{
			"bufferView":168,
			"componentType":5121,
			"count":78,
			"type":"VEC4"
		},
		{
			"bufferView":169,
			"componentType":5126,
			"count":78,
			"type":"VEC4"
		},
		{
			"bufferView":170,
			"componentType":5123,
			"count":120,
			"type":"SCALAR"
		},
		{
			"bufferView":171,
			"componentType":5126,
			"count":338,
			"max":[
				1.20205557346344,
				0.7421813011169434,
				0.7417446374893188
			],
			"min":[
				0.8783919811248779,
				-0.9647706747055054,
				0.5063374042510986
			],
			"type":"VEC3"
		},
		{
			"bufferView":172,
			"componentType":5126,
			"count":338,
			"type":"VEC3"
		},
		{
			"bufferView":173,
			"componentType":5121,
			"count":338,
			"type":"VEC4"
		},
		{
			"bufferView":174,
			"componentType":5126,
			"count":338,
			"type":"VEC4"
		},
		{
			"bufferView":175,
			"componentType":5123,
			"count":480,
			"type":"SCALAR"
		},
		{
			"bufferView":176,
			"componentType":5126,
			"count":81,
			"max":[
				1.1652215719223022,
				-0.9533175230026245,
				0.8112200498580933
			],
			"min":[
				1.106591820716858,
				-1.349958896636963,
				0.7106425762176514
			],
			"type":"VEC3"
		},
		{
			"bufferView":177,
			"componentType":5126,
			"count":81,
			"type":"VEC3"
		},
		{
			"bufferView":178,
			"componentType":5121,
			"count":81,
			"type":"VEC4"
		},
		{
			"bufferView":179,
			"componentType":5126,
			"count":81,
			"type":"VEC4"
		},
		{
			"bufferView":180,
			"componentType":5123,
			"count":120,
			"type":"SCALAR"
		},
		{
			"bufferView":181,
			"componentType":5126,
			"count":2,
			"max":[
				1.6333333333333333
			],
			"min":[
				0.03333333333333333
			],
			"type":"SCALAR"
		},
		{
			"bufferView":182,
			"componentType":5126,
			"count":2,
			"type":"VEC3"
		},
		{
			"bufferView":183,
			"componentType":5126,
			"count":2,
			"type":"VEC4"
		},
		{
			"bufferView":184,
			"componentType":5126,
			"count":2,
			"type":"VEC3"
		},
		{
			"bufferView":185,
			"componentType":5126,
			"count":2,
			"type":"VEC3"
		},
		{
			"bufferView":186,
			"componentType":5126,
			"count":2,
			"type":"VEC4"
		},
		{
			"bufferView":187,
			"componentType":5126,
			"count":49,
			"max":[
				1.6333333333333333
			],
			"min":[
				0.03333333333333333
			],
			"type":"SCALAR"
		},
		{
			"bufferView":188,
			"componentType":5126,
			"count":49,
			"type":"VEC3"
		},
		{
			"bufferView":189,
			"componentType":5126,
			"count":2,
			"type":"VEC3"
		},
		{
			"bufferView":190,
			"componentType":5126,
			"count":49,
			"type":"VEC4"
		},
		{
			"bufferView":191,
			"componentType":5126,
			"count":2,
			"type":"VEC3"
		},
		{
			"bufferView":192,
			"componentType":5126,
			"count":2,
			"type":"VEC3"
		},
		{
			"bufferView":193,
			"componentType":5126,
			"count":49,
			"type":"VEC4"
		},
		{
			"bufferView":194,
			"componentType":5126,
			"count":2,
			"type":"VEC3"
		},
		{
			"bufferView":195,
			"componentType":5126,
			"count":2,
			"type":"VEC3"
		},
		{
			"bufferView":196,
			"componentType":5126,
			"count":49,
			"type":"VEC4"
		},
		{
			"bufferView":197,
			"componentType":5126,
			"count":2,
			"type":"VEC3"
		},
		{
			"bufferView":198,
			"componentType":5126,
			"count":2,
			"type":"VEC3"
		},
		{
			"bufferView":199,
			"componentType":5126,
			"count":49,
			"type":"VEC4"
		},
		{
			"bufferView":200,
			"componentType":5126,
			"count":2,
			"type":"VEC3"
		},
		{
			"bufferView":201,
			"componentType":5126,
			"count":2,
			"type":"VEC3"
		},
		{
			"bufferView":202,
			"componentType":5126,
			"count":49,
			"type":"VEC4"
		},
		{
			"bufferView":203,
			"componentType":5126,
			"count":2,
			"type":"VEC3"
		},
		{
			"bufferView":204,
			"componentType":5126,
			"count":2,
			"type":"VEC3"
		},
		{
			"bufferView":205,
			"componentType":5126,
			"count":49,
			"type":"VEC4"
		},
		{
			"bufferView":206,
			"componentType":5126,
			"count":2,
			"type":"VEC3"
		},
		{
			"bufferView":207,
			"componentType":5126,
			"count":2,
			"type":"VEC3"
		},
		{
			"bufferView":208,
			"componentType":5126,
			"count":49,
			"type":"VEC4"
		},
		{
			"bufferView":209,
			"componentType":5126,
			"count":2,
			"type":"VEC3"
		},
		{
			"bufferView":210,
			"componentType":5126,
			"count":2,
			"type":"VEC3"
		},
		{
			"bufferView":211,
			"componentType":5126,
			"count":49,
			"type":"VEC4"
		},
		{
			"bufferView":212,
			"componentType":5126,
			"count":2,
			"type":"VEC3"
		},
		{
			"bufferView":213,
			"componentType":5126,
			"count":2,
			"type":"VEC3"
		},
		{
			"bufferView":214,
			"componentType":5126,
			"count":49,
			"type":"VEC4"
		},
		{
			"bufferView":215,
			"componentType":5126,
			"count":2,
			"type":"VEC3"
		},
		{
			"bufferView":216,
			"componentType":5126,
			"count":2,
			"type":"VEC3"
		},
		{
			"bufferView":217,
			"componentType":5126,
			"count":49,
			"type":"VEC4"
		},
		{
			"bufferView":218,
			"componentType":5126,
			"count":2,
			"type":"VEC3"
		},
		{
			"bufferView":219,
			"componentType":5126,
			"count":2,
			"type":"VEC3"
		},
		{
			"bufferView":220,
			"componentType":5126,
			"count":49,
			"type":"VEC4"
		},
		{
			"bufferView":221,
			"componentType":5126,
			"count":2,
			"type":"VEC3"
		},
		{
			"bufferView":222,
			"componentType":5126,
			"count":2,
			"type":"VEC3"
		},
		{
			"bufferView":223,
			"componentType":5126,
			"count":49,
			"type":"VEC4"
		},
		{
			"bufferView":224,
			"componentType":5126,
			"count":2,
			"type":"VEC3"
		},
		{
			"bufferView":225,
			"componentType":5126,
			"count":2,
			"type":"VEC3"
		},
		{
			"bufferView":226,
			"componentType":5126,
			"count":49,
			"type":"VEC4"
		},
		{
			"bufferView":227,
			"componentType":5126,
			"count":2,
			"type":"VEC3"
		},
		{
			"bufferView":228,
			"componentType":5126,
			"count":2,
			"type":"VEC3"
		},
		{
			"bufferView":229,
			"componentType":5126,
			"count":49,
			"type":"VEC4"
		},
		{
			"bufferView":230,
			"componentType":5126,
			"count":2,
			"type":"VEC3"
		},
		{
			"bufferView":231,
			"componentType":5126,
			"count":2,
			"type":"VEC3"
		},
		{
			"bufferView":232,
			"componentType":5126,
			"count":49,
			"type":"VEC4"
		},
		{
			"bufferView":233,
			"componentType":5126,
			"count":2,
			"type":"VEC3"
		},
		{
			"bufferView":234,
			"componentType":5126,
			"count":2,
			"type":"VEC3"
		},
		{
			"bufferView":235,
			"componentType":5126,
			"count":49,
			"type":"VEC4"
		},
		{
			"bufferView":236,
			"componentType":5126,
			"count":2,
			"type":"VEC3"
		}
	],
	"bufferViews":[
		{
			"buffer":0,
			"byteLength":2304,
			"byteOffset":0,
			"target":34962
		},
		{
			"buffer":0,
			"byteLength":2304,
			"byteOffset":2304,
			"target":34962
		},
		{
			"buffer":0,
			"byteLength":768,
			"byteOffset":4608,
			"target":34962
		},
		{
			"buffer":0,
			"byteLength":3072,
			"byteOffset":5376,
			"target":34962
		},
		{
			"buffer":0,
			"byteLength":576,
			"byteOffset":8448,
			"target":34963
		},
		{
			"buffer":0,
			"byteLength":2304,
			"byteOffset":9024,
			"target":34962
		},
		{
			"buffer":0,
			"byteLength":2304,
			"byteOffset":11328,
			"target":34962
		},
		{
			"buffer":0,
			"byteLength":768,
			"byteOffset":13632,
			"target":34962
		},
		{
			"buffer":0,
			"byteLength":3072,
			"byteOffset":14400,
			"target":34962
		},
		{
			"buffer":0,
			"byteLength":576,
			"byteOffset":17472,
			"target":34963
		},
		{
			"buffer":0,
			"byteLength":2304,
			"byteOffset":18048,
			"target":34962
		},
		{
			"buffer":0,
			"byteLength":2304,
			"byteOffset":20352,
			"target":34962
		},
		{
			"buffer":0,
			"byteLength":768,
			"byteOffset":22656,
			"target":34962
		},
		{
			"buffer":0,
			"byteLength":3072,
			"byteOffset":23424,
			"target":34962
		},
		{
			"buffer":0,
			"byteLength":576,
			"byteOffset":26496,
			"target":34963
		},
		{
			"buffer":0,
			"byteLength":4800,
			"byteOffset":27072,
			"target":34962
		},
		{
			"buffer":0,
			"byteLength":4800,
			"byteOffset":31872,
			"target":34962
		},
		{
			"buffer":0,
			"byteLength":1600,
			"byteOffset":36672,
			"target":34962
		},
		{
			"buffer":0,
			"byteLength":6400,
			"byteOffset":38272,
			"target":34962
		},
		{
			"buffer":0,
			"byteLength":1152,
			"byteOffset":44672,
			"target":34963
		},
		{
			"buffer":0,
			"byteLength":1152,
			"byteOffset":45824
		},
		{
			"buffer":0,
			"byteLength":1824,
			"byteOffset":46976,
			"target":34962
		},
		{
			"buffer":0,
			"byteLength":1824,
			"byteOffset":48800,
			"target":34962
		},
		{
			"buffer":0,
			"byteLength":608,
			"byteOffset":50624,
			"target":34962
		},
		{
			"buffer":0,
			"byteLength":2432,
			"byteOffset":51232,
			"target":34962
		},
		{
			"buffer":0,
			"byteLength":456,
			"byteOffset":53664,
			"target":34963
		},
		{
			"buffer":0,
			"byteLength":1728,
			"byteOffset":54120,
			"target":34962
		},
		{
			"buffer":0,
			"byteLength":1728,
			"byteOffset":55848,
			"target":34962
		},
		{
			"buffer":0,
			"byteLength":576,
			"byteOffset":57576,
			"target":34962
		},
		{
			"buffer":0,
			"byteLength":2304,
			"byteOffset":58152,
			"target":34962
		},
		{
			"buffer":0,
			"byteLength":432,
			"byteOffset":60456,
			"target":34963
		},
		{
			"buffer":0,
			"byteLength":1824,
			"byteOffset":60888,
			"target":34962
		},
		{
			"buffer":0,
			"byteLength":1824,
			"byteOffset":62712,
			"target":34962
		},
		{
			"buffer":0,
			"byteLength":608,
			"byteOffset":64536,
			"target":34962
		},
		{
			"buffer":0,
			"byteLength":2432,
			"byteOffset":65144,
			"target":34962
		},
		{
			"buffer":0,
			"byteLength":456,
			"byteOffset":67576,
			"target":34963
		},
		{
			"buffer":0,
			"byteLength":1728,
			"byteOffset":68032,
			"target":34962
		},
		{
			"buffer":0,
			"byteLength":1728,
			"byteOffset":69760,
			"target":34962
		},
		{
			"buffer":0,
			"byteLength":576,
			"byteOffset":71488,
			"target":34962
		},
		{
			"buffer":0,
			"byteLength":2304,
			"byteOffset":72064,
			"target":34962
		},
		{
			"buffer":0,
			"byteLength":432,
			"byteOffset":74368,
			"target":34963
		},
		{
			"buffer":0,
			"byteLength":1824,
			"byteOffset":74800,
			"target":34962
		},
		{
			"buffer":0,
			"byteLength":1824,
			"byteOffset":76624,
			"target":34962
		},
		{
			"buffer":0,
			"byteLength":608,
			"byteOffset":78448,
			"target":34962
		},
		{
			"buffer":0,
			"byteLength":2432,
			"byteOffset":79056,
			"target":34962
		},
		{
			"buffer":0,
			"byteLength":456,
			"byteOffset":81488,
			"target":34963
		},
		{
			"buffer":0,
			"byteLength":1728,
			"byteOffset":81944,
			"target":34962
		},
		{
			"buffer":0,
			"byteLength":1728,
			"byteOffset":83672,
			"target":34962
		},
		{
			"buffer":0,
			"byteLength":576,
			"byteOffset":85400,
			"target":34962
		},
		{
			"buffer":0,
			"byteLength":2304,
			"byteOffset":85976,
			"target":34962
		},
		{
			"buffer":0,
			"byteLength":432,
			"byteOffset":88280,
			"target":34963
		},
		{
			"buffer":0,
			"byteLength":1824,
			"byteOffset":88712,
			"target":34962
		},
		{
			"buffer":0,
			"byteLength":1824,
			"byteOffset":90536,
			"target":34962
		},
		{
			"buffer":0,
			"byteLength":608,
			"byteOffset":92360,
			"target":34962
		},
		{
			"buffer":0,
			"byteLength":2432,
			"byteOffset":92968,
			"target":34962
		},
		{
			"buffer":0,
			"byteLength":456,
			"byteOffset":95400,
			"target":34963
		},
		{
			"buffer":0,
			"byteLength":1728,
			"byteOffset":95856,
			"target":34962
		},
		{
			"buffer":0,
			"byteLength":1728,
			"byteOffset":97584,
			"target":34962
		},
		{
			"buffer":0,
			"byteLength":576,
			"byteOffset":99312,
			"target":34962
		},
		{
			"buffer":0,
			"byteLength":2304,
			"byteOffset":99888,
			"target":34962
		},
		{
			"buffer":0,
			"byteLength":432,
			"byteOffset":102192,
			"target":34963
		},
		{
			"buffer":0,
			"byteLength":4032,
			"byteOffset":102624,
			"target":34962
		},
		{
			"buffer":0,
			"byteLength":4032,
			"byteOffset":106656,
			"target":34962
		},
		{
			"buffer":0,
			"byteLength":1344,
			"byteOffset":110688,
			"target":34962
		},
		{
			"buffer":0,
			"byteLength":5376,
			"byteOffset":112032,
			"target":34962
		},
		{
			"buffer":0,
			"byteLength":960,
			"byteOffset":117408,
			"target":34963
		},
		{
			"buffer":0,
			"byteLength":936,
			"byteOffset":118368,
			"target":34962
		},
		{
			"buffer":0,
			"byteLength":936,
			"byteOffset":119304,
			"target":34962
		},
		{
			"buffer":0,
			"byteLength":312,
			"byteOffset":120240,
			"target":34962
		},
		{
			"buffer":0,
			"byteLength":1248,
			"byteOffset":120552,
			"target":34962
		},
		{
			"buffer":0,
			"byteLength":240,
			"byteOffset":121800,
			"target":34963
		},
		{
			"buffer":0,
			"byteLength":3864,
			"byteOffset":122040,
			"target":34962
		},
		{
			"buffer":0,
			"byteLength":3864,
			"byteOffset":125904,
			"target":34962
		},
		{
			"buffer":0,
			"byteLength":1288,
			"byteOffset":129768,
			"target":34962
		},
		{
			"buffer":0,
			"byteLength":5152,
			"byteOffset":131056,
			"target":34962
		},
		{
			"buffer":0,
			"byteLength":960,
			"byteOffset":136208,
			"target":34963
		},
		{
			"buffer":0,
			"byteLength":960,
			"byteOffset":137168,
			"target":34962
		},
		{
			"buffer":0,
			"byteLength":960,
			"byteOffset":138128,
			"target":34962
		},
		{
			"buffer":0,
			"byteLength":320,
			"byteOffset":139088,
			"target":34962
		},
		{
			"buffer":0,
			"byteLength":1280,
			"byteOffset":139408,
			"target":34962
		},
		{
			"buffer":0,
			"byteLength":240,
			"byteOffset":140688,
			"target":34963
		},
		{
			"buffer":0,
			"byteLength":3864,
			"byteOffset":140928,
			"target":34962
		},
		{
			"buffer":0,
			"byteLength":3864,
			"byteOffset":144792,
			"target":34962
		},
		{
			"buffer":0,
			"byteLength":1288,
			"byteOffset":148656,
			"target":34962
		},
		{
			"buffer":0,
			"byteLength":5152,
			"byteOffset":149944,
			"target":34962
		},
		{
			"buffer":0,
			"byteLength":960,
			"byteOffset":155096,
			"target":34963
		},
		{
			"buffer":0,
			"byteLength":936,
			"byteOffset":156056,
			"target":34962
		},
		{
			"buffer":0,
			"byteLength":936,
			"byteOffset":156992,
			"target":34962
		},
		{
			"buffer":0,
			"byteLength":312,
			"byteOffset":157928,
			"target":34962
		},
		{
			"buffer":0,
			"byteLength":1248,
			"byteOffset":158240,
			"target":34962
		},
		{
			"buffer":0,
			"byteLength":240,
			"byteOffset":159488,
			"target":34963
		},
		{
			"buffer":0,
			"byteLength":3912,
			"byteOffset":159728,
			"target":34962
		},
		{
			"buffer":0,
			"byteLength":3912,
			"byteOffset":163640,
			"target":34962
		},
		{
			"buffer":0,
			"byteLength":1304,
			"byteOffset":167552,
			"target":34962
		},
		{
			"buffer":0,
			"byteLength":5216,
			"byteOffset":168856,
			"target":34962
		},
		{
			"buffer":0,
			"byteLength":960,
			"byteOffset":174072,
			"target":34963
		},
		{
			"buffer":0,
			"byteLength":1008,
			"byteOffset":175032,
			"target":34962
		},
		{
			"buffer":0,
			"byteLength":1008,
			"byteOffset":176040,
			"target":34962
		},
		{
			"buffer":0,
			"byteLength":336,
			"byteOffset":177048,
			"target":34962
		},
		{
			"buffer":0,
			"byteLength":1344,
			"byteOffset":177384,
			"target":34962
		},
		{
			"buffer":0,
			"byteLength":240,
			"byteOffset":178728,
			"target":34963
		},
		{
			"buffer":0,
			"byteLength":4200,
			"byteOffset":178968,
			"target":34962
		},
		{
			"buffer":0,
			"byteLength":4200,
			"byteOffset":183168,
			"target":34962
		},
		{
			"buffer":0,
			"byteLength":1400,
			"byteOffset":187368,
			"target":34962
		},
		{
			"buffer":0,
			"byteLength":5600,
			"byteOffset":188768,
			"target":34962
		},
		{
			"buffer":0,
			"byteLength":960,
			"byteOffset":194368,
			"target":34963
		},
		{
			"buffer":0,
			"byteLength":936,
			"byteOffset":195328,
			"target":34962
		},
		{
			"buffer":0,
			"byteLength":936,
			"byteOffset":196264,
			"target":34962
		},
		{
			"buffer":0,
			"byteLength":312,
			"byteOffset":197200,
			"target":34962
		},
		{
			"buffer":0,
			"byteLength":1248,
			"byteOffset":197512,
			"target":34962
		},
		{
			"buffer":0,
			"byteLength":240,
			"byteOffset":198760,
			"target":34963
		},
		{
			"buffer":0,
			"byteLength":4008,
			"byteOffset":199000,
			"target":34962
		},
		{
			"buffer":0,
			"byteLength":4008,
			"byteOffset":203008,
			"target":34962
		},
		{
			"buffer":0,
			"byteLength":1336,
			"byteOffset":207016,
			"target":34962
		},
		{
			"buffer":0,
			"byteLength":5344,
			"byteOffset":208352,
			"target":34962
		},
		{
			"buffer":0,
			"byteLength":960,
			"byteOffset":213696,
			"target":34963
		},
		{
			"buffer":0,
			"byteLength":960,
			"byteOffset":214656,
			"target":34962
		},
		{
			"buffer":0,
			"byteLength":960,
			"byteOffset":215616,
			"target":34962
		},
		{
			"buffer":0,
			"byteLength":320,
			"byteOffset":216576,
			"target":34962
		},
		{
			"buffer":0,
			"byteLength":1280,
			"byteOffset":216896,
			"target":34962
		},
		{
			"buffer":0,
			"byteLength":240,
			"byteOffset":218176,
			"target":34963
		},
		{
			"buffer":0,
			"byteLength":4632,
			"byteOffset":218416,
			"target":34962
		},
		{
			"buffer":0,
			"byteLength":4632,
			"byteOffset":223048,
			"target":34962
		},
		{
			"buffer":0,
			"byteLength":1544,
			"byteOffset":227680,
			"target":34962
		},
		{
			"buffer":0,
			"byteLength":6176,
			"byteOffset":229224,
			"target":34962
		},
		{
			"buffer":0,
			"byteLength":960,
			"byteOffset":235400,
			"target":34963
		},
		{
			"buffer":0,
			"byteLength":1104,
			"byteOffset":236360,
			"target":34962
		},
		{
			"buffer":0,
			"byteLength":1104,
			"byteOffset":237464,
			"target":34962
		},
		{
			"buffer":0,
			"byteLength":368,
			"byteOffset":238568,
			"target":34962
		},
		{
			"buffer":0,
			"byteLength":1472,
			"byteOffset":238936,
			"target":34962
		},
		{
			"buffer":0,
			"byteLength":240,
			"byteOffset":240408,
			"target":34963
		},
		{
			"buffer":0,
			"byteLength":4176,
			"byteOffset":240648,
			"target":34962
		},
		{
			"buffer":0,
			"byteLength":4176,
			"byteOffset":244824,
			"target":34962
		},
		{
			"buffer":0,
			"byteLength":1392,
			"byteOffset":249000,
			"target":34962
		},
		{
			"buffer":0,
			"byteLength":5568,
			"byteOffset":250392,
			"target":34962
		},
		{
			"buffer":0,
			"byteLength":960,
			"byteOffset":255960,
			"target":34963
		},
		{
			"buffer":0,
			"byteLength":936,
			"byteOffset":256920,
			"target":34962
		},
		{
			"buffer":0,
			"byteLength":936,
			"byteOffset":257856,
			"target":34962
		},
		{
			"buffer":0,
			"byteLength":312,
			"byteOffset":258792,
			"target":34962
		},
		{
			"buffer":0,
			"byteLength":1248,
			"byteOffset":259104,
			"target":34962
		},
		{
			"buffer":0,
			"byteLength":240,
			"byteOffset":260352,
			"target":34963
		},
		{
			"buffer":0,
			"byteLength":4392,
			"byteOffset":260592,
			"target":34962
		},
		{
			"buffer":0,
			"byteLength":4392,
			"byteOffset":264984,
			"target":34962
		},
		{
			"buffer":0,
			"byteLength":1464,
			"byteOffset":269376,
			"target":34962
		},
		{
			"buffer":0,
			"byteLength":5856,
			"byteOffset":270840,
			"target":34962
		},
		{
			"buffer":0,
			"byteLength":960,
			"byteOffset":276696,
			"target":34963
		},
		{
			"buffer":0,
			"byteLength":972,
			"byteOffset":277656,
			"target":34962
		},
		{
			"buffer":0,
			"byteLength":972,
			"byteOffset":278628,
			"target":34962
		},
		{
			"buffer":0,
			"byteLength":324,
			"byteOffset":279600,
			"target":34962
		},
		{
			"buffer":0,
			"byteLength":1296,
			"byteOffset":279924,
			"target":34962
		},
		{
			"buffer":0,
			"byteLength":240,
			"byteOffset":281220,
			"target":34963
		},
		{
			"buffer":0,
			"byteLength":3984,
			"byteOffset":281460,
			"target":34962
		},
		{
			"buffer":0,
			"byteLength":3984,
			"byteOffset":285444,
			"target":34962
		},
		{
			"buffer":0,
			"byteLength":1328,
			"byteOffset":289428,
			"target":34962
		},
		{
			"buffer":0,
			"byteLength":5312,
			"byteOffset":290756,
			"target":34962
		},
		{
			"buffer":0,
			"byteLength":960,
			"byteOffset":296068,
			"target":34963
		},
		{
			"buffer":0,
			"byteLength":936,
			"byteOffset":297028,
			"target":34962
		},
		{
			"buffer":0,
			"byteLength":936,
			"byteOffset":297964,
			"target":34962
		},
		{
			"buffer":0,
			"byteLength":312,
			"byteOffset":298900,
			"target":34962
		},
		{
			"buffer":0,
			"byteLength":1248,
			"byteOffset":299212,
			"target":34962
		},
		{
			"buffer":0,
			"byteLength":240,
			"byteOffset":300460,
			"target":34963
		},
		{
			"buffer":0,
			"byteLength":4104,
			"byteOffset":300700,
			"target":34962
		},
		{
			"buffer":0,
			"byteLength":4104,
			"byteOffset":304804,
			"target":34962
		},
		{
			"buffer":0,
			"byteLength":1368,
			"byteOffset":308908,
			"target":34962
		},
		{
			"buffer":0,
			"byteLength":5472,
			"byteOffset":310276,
			"target":34962
		},
		{
			"buffer":0,
			"byteLength":960,
			"byteOffset":315748,
			"target":34963
		},
		{
			"buffer":0,
			"byteLength":936,
			"byteOffset":316708,
			"target":34962
		},
		{
			"buffer":0,
			"byteLength":936,
			"byteOffset":317644,
			"target":34962
		},
		{
			"buffer":0,
			"byteLength":312,
			"byteOffset":318580,
			"target":34962
		},
		{
			"buffer":0,
			"byteLength":1248,
			"byteOffset":318892,
			"target":34962
		},
		{
			"buffer":0,
			"byteLength":240,
			"byteOffset":320140,
			"target":34963
		},
		{
			"buffer":0,
			"byteLength":4056,
			"byteOffset":320380,
			"target":34962
		},
		{
			"buffer":0,
			"byteLength":4056,
			"byteOffset":324436,
			"target":34962
		},
		{
			"buffer":0,
			"byteLength":1352,
			"byteOffset":328492,
			"target":34962
		},
		{
			"buffer":0,
			"byteLength":5408,
			"byteOffset":329844,
			"target":34962
		},
		{
			"buffer":0,
			"byteLength":960,
			"byteOffset":335252,
			"target":34963
		},
		{
			"buffer":0,
			"byteLength":972,
			"byteOffset":336212,
			"target":34962
		},
		{
			"buffer":0,
			"byteLength":972,
			"byteOffset":337184,
			"target":34962
		},
		{
			"buffer":0,
			"byteLength":324,
			"byteOffset":338156,
			"target":34962
		},
		{
			"buffer":0,
			"byteLength":1296,
			"byteOffset":338480,
			"target":34962
		},
		{
			"buffer":0,
			"byteLength":240,
			"byteOffset":339776,
			"target":34963
		},
		{
			"buffer":0,
			"byteLength":8,
			"byteOffset":340016
		},
		{
			"buffer":0,
			"byteLength":24,
			"byteOffset":340024
		},
		{
			"buffer":0,
			"byteLength":32,
			"byteOffset":340048
		},
		{
			"buffer":0,
			"byteLength":24,
			"byteOffset":340080
		},
		{
			"buffer":0,
			"byteLength":24,
			"byteOffset":340104
		},
		{
			"buffer":0,
			"byteLength":32,
			"byteOffset":340128
		},
		{
			"buffer":0,
			"byteLength":196,
			"byteOffset":340160
		},
		{
			"buffer":0,
			"byteLength":588,
			"byteOffset":340356
		},
		{
			"buffer":0,
			"byteLength":24,
			"byteOffset":340944
		},
		{
			"buffer":0,
			"byteLength":784,
			"byteOffset":340968
		},
		{
			"buffer":0,
			"byteLength":24,
			"byteOffset":341752
		},
		{
			"buffer":0,
			"byteLength":24,
			"byteOffset":341776
		},
		{
			"buffer":0,
			"byteLength":784,
			"byteOffset":341800
		},
		{
			"buffer":0,
			"byteLength":24,
			"byteOffset":342584
		},
		{
			"buffer":0,
			"byteLength":24,
			"byteOffset":342608
		},
		{
			"buffer":0,
			"byteLength":784,
			"byteOffset":342632
		},
		{
			"buffer":0,
			"byteLength":24,
			"byteOffset":343416
		},
		{
			"buffer":0,
			"byteLength":24,
			"byteOffset":343440
		},
		{
			"buffer":0,
			"byteLength":784,
			"byteOffset":343464
		},
		{
			"buffer":0,
			"byteLength":24,
			"byteOffset":344248
		},
		{
			"buffer":0,
			"byteLength":24,
			"byteOffset":344272
		},
		{
			"buffer":0,
			"byteLength":784,
			"byteOffset":344296
		},
		{
			"buffer":0,
			"byteLength":24,
			"byteOffset":345080
		},
		{
			"buffer":0,
			"byteLength":24,
			"byteOffset":345104
		},
		{
			"buffer":0,
			"byteLength":784,
			"byteOffset":345128
		},
		{
			"buffer":0,
			"byteLength":24,
			"byteOffset":345912
		},
		{
			"buffer":0,
			"byteLength":24,
			"byteOffset":345936
		},
		{
			"buffer":0,
			"byteLength":784,
			"byteOffset":345960
		},
		{
			"buffer":0,
			"byteLength":24,
			"byteOffset":346744
		},
		{
			"buffer":0,
			"byteLength":24,
			"byteOffset":346768
		},
		{
			"buffer":0,
			"byteLength":784,
			"byteOffset":346792
		},
		{
			"buffer":0,
			"byteLength":24,
			"byteOffset":347576
		},
		{
			"buffer":0,
			"byteLength":24,
			"byteOffset":347600
		},
		{
			"buffer":0,
			"byteLength":784,
			"byteOffset":347624
		},
		{
			"buffer":0,
			"byteLength":24,
			"byteOffset":348408
		},
		{
			"buffer":0,
			"byteLength":24,
			"byteOffset":348432
		},
		{
			"buffer":0,
			"byteLength":784,
			"byteOffset":348456
		},
		{
			"buffer":0,
			"byteLength":24,
			"byteOffset":349240
		},
		{
			"buffer":0,
			"byteLength":24,
			"byteOffset":349264
		},
		{
			"buffer":0,
			"byteLength":784,
			"byteOffset":349288
		},
		{
			"buffer":0,
			"byteLength":24,
			"byteOffset":350072
		},
		{
			"buffer":0,
			"byteLength":24,
			"byteOffset":350096
		},
		{
			"buffer":0,
			"byteLength":784,
			"byteOffset":350120
		},
		{
			"buffer":0,
			"byteLength":24,
			"byteOffset":350904
		},
		{
			"buffer":0,
			"byteLength":24,
			"byteOffset":350928
		},
		{
			"buffer":0,
			"byteLength":784,
			"byteOffset":350952
		},
		{
			"buffer":0,
			"byteLength":24,
			"byteOffset":351736
		},
		{
			"buffer":0,
			"byteLength":24,
			"byteOffset":351760
		},
		{
			"buffer":0,
			"byteLength":784,
			"byteOffset":351784
		},
		{
			"buffer":0,
			"byteLength":24,
			"byteOffset":352568
		},
		{
			"buffer":0,
			"byteLength":24,
			"byteOffset":352592
		},
		{
			"buffer":0,
			"byteLength":784,
			"byteOffset":352616
		},
		{
			"buffer":0,
			"byteLength":24,
			"byteOffset":353400
		},
		{
			"buffer":0,
			"byteLength":24,
			"byteOffset":353424
		},
		{
			"buffer":0,
			"byteLength":784,
			"byteOffset":353448
		},
		{
			"buffer":0,
			"byteLength":24,
			"byteOffset":354232
		}
	],
	"buffers":[
		{
			"byteLength":354256,
			"uri":"jellyfish.bin"
		}
	]
}
