{
	"asset":{
		"generator":"Khronos glTF Blender I/O v4.4.56",
		"version":"2.0"
	},
	"scene":0,
	"scenes":[
		{
			"name":"Scene",
			"nodes":[
				10
			]
		}
	],
	"nodes":[
		{
			"name":"Fin_0",
			"rotation":[
				-3.552713678800501e-15,
				0,
				0,
				1
			],
			"translation":[
				-0.7075014710426331,
				0.10488753020763397,
				-0.12058871984481812
			]
		},
		{
			"name":"Fin_1",
			"rotation":[
				-3.552713678800501e-15,
				0,
				0,
				1
			],
			"translation":[
				-0.015141850337386131,
				0.11315920203924179,
				-1.3118547201156616
			]
		},
		{
			"name":"Fin_2",
			"rotation":[
				-3.552713678800501e-15,
				0,
				0,
				1
			],
			"translation":[
				0.7654342651367188,
				0.15012742578983307,
				-0.05041881650686264
			]
		},
		{
			"children":[
				0,
				1,
				2
			],
			"name":"Root",
			"rotation":[
				-2.980232594040899e-08,
				0,
				0,
				1
			],
			"scale":[
				1,
				0.9999999403953552,
				0.9999999403953552
			]
		},
		{
			"mesh":0,
			"name":"ICO\u7403",
			"skin":0
		},
		{
			"mesh":1,
			"name":"ICO\u7403.001",
			"skin":0
		},
		{
			"mesh":2,
			"name":"\u7403.001",
			"skin":0
		},
		{
			"mesh":3,
			"name":"\u7acb\u65b9\u4f53.001",
			"skin":0
		},
		{
			"mesh":4,
			"name":"\u7acb\u65b9\u4f53.002",
			"skin":0
		},
		{
			"mesh":5,
			"name":"\u7acb\u65b9\u4f53.003",
			"skin":0
		},
		{
			"children":[
				4,
				5,
				6,
				7,
				8,
				9,
				3
			],
			"name":"pufferfish_Rig"
		}
	],
	"animations":[
		{
			"channels":[
				{
					"sampler":0,
					"target":{
						"node":3,
						"path":"translation"
					}
				},
				{
					"sampler":1,
					"target":{
						"node":3,
						"path":"rotation"
					}
				},
				{
					"sampler":2,
					"target":{
						"node":3,
						"path":"scale"
					}
				},
				{
					"sampler":3,
					"target":{
						"node":0,
						"path":"translation"
					}
				},
				{
					"sampler":4,
					"target":{
						"node":0,
						"path":"rotation"
					}
				},
				{
					"sampler":5,
					"target":{
						"node":0,
						"path":"scale"
					}
				},
				{
					"sampler":6,
					"target":{
						"node":1,
						"path":"translation"
					}
				},
				{
					"sampler":7,
					"target":{
						"node":1,
						"path":"rotation"
					}
				},
				{
					"sampler":8,
					"target":{
						"node":1,
						"path":"scale"
					}
				},
				{
					"sampler":9,
					"target":{
						"node":2,
						"path":"translation"
					}
				},
				{
					"sampler":10,
					"target":{
						"node":2,
						"path":"rotation"
					}
				},
				{
					"sampler":11,
					"target":{
						"node":2,
						"path":"scale"
					}
				}
			],
			"name":"Swim",
			"samplers":[
				{
					"input":36,
					"interpolation":"LINEAR",
					"output":37
				},
				{
					"input":38,
					"interpolation":"STEP",
					"output":39
				},
				{
					"input":38,
					"interpolation":"STEP",
					"output":40
				},
				{
					"input":38,
					"interpolation":"STEP",
					"output":41
				},
				{
					"input":36,
					"interpolation":"LINEAR",
					"output":42
				},
				{
					"input":38,
					"interpolation":"STEP",
					"output":43
				},
				{
					"input":38,
					"interpolation":"STEP",
					"output":44
				},
				{
					"input":36,
					"interpolation":"LINEAR",
					"output":45
				},
				{
					"input":38,
					"interpolation":"STEP",
					"output":46
				},
				{
					"input":38,
					"interpolation":"STEP",
					"output":47
				},
				{
					"input":36,
					"interpolation":"LINEAR",
					"output":48
				},
				{
					"input":38,
					"interpolation":"STEP",
					"output":49
				}
			]
		}
	],
	"materials":[
		{
			"doubleSided":true,
			"name":"\u30de\u30c6\u30ea\u30a2\u30eb.002",
			"pbrMetallicRoughness":{
				"baseColorTexture":{
					"index":0
				},
				"metallicFactor":0,
				"roughnessFactor":0.5
			}
		},
		{
			"doubleSided":true,
			"name":"\u30de\u30c6\u30ea\u30a2\u30eb.004",
			"pbrMetallicRoughness":{
				"baseColorTexture":{
					"index":1
				},
				"metallicFactor":0,
				"roughnessFactor":0.5
			}
		},
		{
			"doubleSided":true,
			"name":"\u30de\u30c6\u30ea\u30a2\u30eb.003",
			"pbrMetallicRoughness":{
				"baseColorTexture":{
					"index":2
				},
				"metallicFactor":0,
				"roughnessFactor":0.5
			}
		},
		{
			"doubleSided":true,
			"name":"\u30de\u30c6\u30ea\u30a2\u30eb.005",
			"pbrMetallicRoughness":{
				"baseColorTexture":{
					"index":3
				},
				"metallicFactor":0,
				"roughnessFactor":0.5
			}
		},
		{
			"doubleSided":true,
			"name":"\u30de\u30c6\u30ea\u30a2\u30eb.006",
			"pbrMetallicRoughness":{
				"baseColorTexture":{
					"index":4
				},
				"metallicFactor":0,
				"roughnessFactor":0.5
			}
		},
		{
			"doubleSided":true,
			"name":"\u30de\u30c6\u30ea\u30a2\u30eb.007",
			"pbrMetallicRoughness":{
				"baseColorTexture":{
					"index":5
				},
				"metallicFactor":0,
				"roughnessFactor":0.5
			}
		}
	],
	"meshes":[
		{
			"name":"ICO\u7403.002",
			"primitives":[
				{
					"attributes":{
						"POSITION":0,
						"NORMAL":1,
						"TEXCOORD_0":2,
						"JOINTS_0":3,
						"WEIGHTS_0":4
					},
					"indices":5,
					"material":0
				}
			]
		},
		{
			"name":"ICO\u7403.003",
			"primitives":[
				{
					"attributes":{
						"POSITION":7,
						"NORMAL":8,
						"TEXCOORD_0":9,
						"JOINTS_0":10,
						"WEIGHTS_0":11
					},
					"indices":5,
					"material":1
				}
			]
		},
		{
			"name":"Spikes",
			"primitives":[
				{
					"attributes":{
						"POSITION":12,
						"NORMAL":13,
						"TEXCOORD_0":14,
						"JOINTS_0":15,
						"WEIGHTS_0":16
					},
					"indices":17,
					"material":2
				}
			]
		},
		{
			"name":"\u7acb\u65b9\u4f53.006",
			"primitives":[
				{
					"attributes":{
						"POSITION":18,
						"NORMAL":19,
						"TEXCOORD_0":20,
						"JOINTS_0":21,
						"WEIGHTS_0":22
					},
					"indices":23,
					"material":3
				}
			]
		},
		{
			"name":"\u7acb\u65b9\u4f53.008",
			"primitives":[
				{
					"attributes":{
						"POSITION":24,
						"NORMAL":25,
						"TEXCOORD_0":26,
						"JOINTS_0":27,
						"WEIGHTS_0":28
					},
					"indices":29,
					"material":4
				}
			]
		},
		{
			"name":"\u7acb\u65b9\u4f53.007",
			"primitives":[
				{
					"attributes":{
						"POSITION":30,
						"NORMAL":31,
						"TEXCOORD_0":32,
						"JOINTS_0":33,
						"WEIGHTS_0":34
					},
					"indices":35,
					"material":5
				}
			]
		}
	],
	"textures":[
		{
			"sampler":0,
			"source":0
		},
		{
			"sampler":0,
			"source":1
		},
		{
			"sampler":0,
			"source":2
		},
		{
			"sampler":0,
			"source":3
		},
		{
			"sampler":0,
			"source":3
		},
		{
			"sampler":0,
			"source":4
		}
	],
	"images":[
		{
			"mimeType":"image/png",
			"name":"eye2",
			"uri":"eye2.png"
		},
		{
			"mimeType":"image/png",
			"name":"eye1",
			"uri":"eye1.png"
		},
		{
			"mimeType":"image/png",
			"name":"hari",
			"uri":"hari.png"
		},
		{
			"mimeType":"image/png",
			"name":"hire1",
			"uri":"hire1.png"
		},
		{
			"mimeType":"image/png",
			"name":"hire2",
			"uri":"hire2.png"
		}
	],
	"skins":[
		{
			"inverseBindMatrices":6,
			"joints":[
				3,
				0,
				1,
				2
			],
			"name":"pufferfish_Rig"
		}
	],
	"accessors":[
		{
			"bufferView":0,
			"componentType":5126,
			"count":72,
			"max":[
				-0.2556171417236328,
				0.8721854090690613,
				1.3352737426757812
			],
			"min":[
				-0.6270409226417542,
				0.48164790868759155,
				0.9447362422943115
			],
			"type":"VEC3"
		},
		{
			"bufferView":1,
			"componentType":5126,
			"count":72,
			"type":"VEC3"
		},
		{
			"bufferView":2,
			"componentType":5126,
			"count":72,
			"type":"VEC2"
		},
		{
			"bufferView":3,
			"componentType":5121,
			"count":72,
			"type":"VEC4"
		},
		{
			"bufferView":4,
			"componentType":5126,
			"count":72,
			"type":"VEC4"
		},
		{
			"bufferView":5,
			"componentType":5123,
			"count":240,
			"type":"SCALAR"
		},
		{
			"bufferView":6,
			"componentType":5126,
			"count":4,
			"type":"MAT4"
		},
		{
			"bufferView":7,
			"componentType":5126,
			"count":72,
			"max":[
				0.6550791263580322,
				0.8721854090690613,
				1.3352737426757812
			],
			"min":[
				0.2836553454399109,
				0.48164790868759155,
				0.9447362422943115
			],
			"type":"VEC3"
		},
		{
			"bufferView":8,
			"componentType":5126,
			"count":72,
			"type":"VEC3"
		},
		{
			"bufferView":9,
			"componentType":5126,
			"count":72,
			"type":"VEC2"
		},
		{
			"bufferView":10,
			"componentType":5121,
			"count":72,
			"type":"VEC4"
		},
		{
			"bufferView":11,
			"componentType":5126,
			"count":72,
			"type":"VEC4"
		},
		{
			"bufferView":12,
			"componentType":5126,
			"count":609,
			"max":[
				0.9999997019767761,
				1,
				1.9355671405792236
			],
			"min":[
				-0.9999990463256836,
				-1,
				-1.9734878540039062
			],
			"type":"VEC3"
		},
		{
			"bufferView":13,
			"componentType":5126,
			"count":609,
			"type":"VEC3"
		},
		{
			"bufferView":14,
			"componentType":5126,
			"count":609,
			"type":"VEC2"
		},
		{
			"bufferView":15,
			"componentType":5121,
			"count":609,
			"type":"VEC4"
		},
		{
			"bufferView":16,
			"componentType":5126,
			"count":609,
			"type":"VEC4"
		},
		{
			"bufferView":17,
			"componentType":5123,
			"count":2880,
			"type":"SCALAR"
		},
		{
			"bufferView":18,
			"componentType":5126,
			"count":120,
			"max":[
				-0.6967495679855347,
				0.660258412361145,
				0.36514097452163696
			],
			"min":[
				-1.5273261070251465,
				-0.31672245264053345,
				-0.7941702604293823
			],
			"type":"VEC3"
		},
		{
			"bufferView":19,
			"componentType":5126,
			"count":120,
			"type":"VEC3"
		},
		{
			"bufferView":20,
			"componentType":5126,
			"count":120,
			"type":"VEC2"
		},
		{
			"bufferView":21,
			"componentType":5121,
			"count":120,
			"type":"VEC4"
		},
		{
			"bufferView":22,
			"componentType":5126,
			"count":120,
			"type":"VEC4"
		},
		{
			"bufferView":23,
			"componentType":5123,
			"count":180,
			"type":"SCALAR"
		},
		{
			"bufferView":24,
			"componentType":5126,
			"count":130,
			"max":[
				1.7334750890731812,
				0.6704005599021912,
				0.406197726726532
			],
			"min":[
				0.6903815269470215,
				-0.2849181890487671,
				-0.6200096607208252
			],
			"type":"VEC3"
		},
		{
			"bufferView":25,
			"componentType":5126,
			"count":130,
			"type":"VEC3"
		},
		{
			"bufferView":26,
			"componentType":5126,
			"count":130,
			"type":"VEC2"
		},
		{
			"bufferView":27,
			"componentType":5121,
			"count":130,
			"type":"VEC4"
		},
		{
			"bufferView":28,
			"componentType":5126,
			"count":130,
			"type":"VEC4"
		},
		{
			"bufferView":29,
			"componentType":5123,
			"count":180,
			"type":"SCALAR"
		},
		{
			"bufferView":30,
			"componentType":5126,
			"count":110,
			"max":[
				0.02421022579073906,
				0.660258412361145,
				-1.3352240324020386
			],
			"min":[
				-0.06700116395950317,
				-0.31672245264053345,
				-2.6917202472686768
			],
			"type":"VEC3"
		},
		{
			"bufferView":31,
			"componentType":5126,
			"count":110,
			"type":"VEC3"
		},
		{
			"bufferView":32,
			"componentType":5126,
			"count":110,
			"type":"VEC2"
		},
		{
			"bufferView":33,
			"componentType":5121,
			"count":110,
			"type":"VEC4"
		},
		{
			"bufferView":34,
			"componentType":5126,
			"count":110,
			"type":"VEC4"
		},
		{
			"bufferView":35,
			"componentType":5123,
			"count":180,
			"type":"SCALAR"
		},
		{
			"bufferView":36,
			"componentType":5126,
			"count":49,
			"max":[
				1.6333333333333333
			],
			"min":[
				0.03333333333333333
			],
			"type":"SCALAR"
		},
		{
			"bufferView":37,
			"componentType":5126,
			"count":49,
			"type":"VEC3"
		},
		{
			"bufferView":38,
			"componentType":5126,
			"count":2,
			"max":[
				1.6333333333333333
			],
			"min":[
				0.03333333333333333
			],
			"type":"SCALAR"
		},
		{
			"bufferView":39,
			"componentType":5126,
			"count":2,
			"type":"VEC4"
		},
		{
			"bufferView":40,
			"componentType":5126,
			"count":2,
			"type":"VEC3"
		},
		{
			"bufferView":41,
			"componentType":5126,
			"count":2,
			"type":"VEC3"
		},
		{
			"bufferView":42,
			"componentType":5126,
			"count":49,
			"type":"VEC4"
		},
		{
			"bufferView":43,
			"componentType":5126,
			"count":2,
			"type":"VEC3"
		},
		{
			"bufferView":44,
			"componentType":5126,
			"count":2,
			"type":"VEC3"
		},
		{
			"bufferView":45,
			"componentType":5126,
			"count":49,
			"type":"VEC4"
		},
		{
			"bufferView":46,
			"componentType":5126,
			"count":2,
			"type":"VEC3"
		},
		{
			"bufferView":47,
			"componentType":5126,
			"count":2,
			"type":"VEC3"
		},
		{
			"bufferView":48,
			"componentType":5126,
			"count":49,
			"type":"VEC4"
		},
		{
			"bufferView":49,
			"componentType":5126,
			"count":2,
			"type":"VEC3"
		}
	],
	"bufferViews":[
		{
			"buffer":0,
			"byteLength":864,
			"byteOffset":0,
			"target":34962
		},
		{
			"buffer":0,
			"byteLength":864,
			"byteOffset":864,
			"target":34962
		},
		{
			"buffer":0,
			"byteLength":576,
			"byteOffset":1728,
			"target":34962
		},
		{
			"buffer":0,
			"byteLength":288,
			"byteOffset":2304,
			"target":34962
		},
		{
			"buffer":0,
			"byteLength":1152,
			"byteOffset":2592,
			"target":34962
		},
		{
			"buffer":0,
			"byteLength":480,
			"byteOffset":3744,
			"target":34963
		},
		{
			"buffer":0,
			"byteLength":256,
			"byteOffset":4224
		},
		{
			"buffer":0,
			"byteLength":864,
			"byteOffset":4480,
			"target":34962
		},
		{
			"buffer":0,
			"byteLength":864,
			"byteOffset":5344,
			"target":34962
		},
		{
			"buffer":0,
			"byteLength":576,
			"byteOffset":6208,
			"target":34962
		},
		{
			"buffer":0,
			"byteLength":288,
			"byteOffset":6784,
			"target":34962
		},
		{
			"buffer":0,
			"byteLength":1152,
			"byteOffset":7072,
			"target":34962
		},
		{
			"buffer":0,
			"byteLength":7308,
			"byteOffset":8224,
			"target":34962
		},
		{
			"buffer":0,
			"byteLength":7308,
			"byteOffset":15532,
			"target":34962
		},
		{
			"buffer":0,
			"byteLength":4872,
			"byteOffset":22840,
			"target":34962
		},
		{
			"buffer":0,
			"byteLength":2436,
			"byteOffset":27712,
			"target":34962
		},
		{
			"buffer":0,
			"byteLength":9744,
			"byteOffset":30148,
			"target":34962
		},
		{
			"buffer":0,
			"byteLength":5760,
			"byteOffset":39892,
			"target":34963
		},
		{
			"buffer":0,
			"byteLength":1440,
			"byteOffset":45652,
			"target":34962
		},
		{
			"buffer":0,
			"byteLength":1440,
			"byteOffset":47092,
			"target":34962
		},
		{
			"buffer":0,
			"byteLength":960,
			"byteOffset":48532,
			"target":34962
		},
		{
			"buffer":0,
			"byteLength":480,
			"byteOffset":49492,
			"target":34962
		},
		{
			"buffer":0,
			"byteLength":1920,
			"byteOffset":49972,
			"target":34962
		},
		{
			"buffer":0,
			"byteLength":360,
			"byteOffset":51892,
			"target":34963
		},
		{
			"buffer":0,
			"byteLength":1560,
			"byteOffset":52252,
			"target":34962
		},
		{
			"buffer":0,
			"byteLength":1560,
			"byteOffset":53812,
			"target":34962
		},
		{
			"buffer":0,
			"byteLength":1040,
			"byteOffset":55372,
			"target":34962
		},
		{
			"buffer":0,
			"byteLength":520,
			"byteOffset":56412,
			"target":34962
		},
		{
			"buffer":0,
			"byteLength":2080,
			"byteOffset":56932,
			"target":34962
		},
		{
			"buffer":0,
			"byteLength":360,
			"byteOffset":59012,
			"target":34963
		},
		{
			"buffer":0,
			"byteLength":1320,
			"byteOffset":59372,
			"target":34962
		},
		{
			"buffer":0,
			"byteLength":1320,
			"byteOffset":60692,
			"target":34962
		},
		{
			"buffer":0,
			"byteLength":880,
			"byteOffset":62012,
			"target":34962
		},
		{
			"buffer":0,
			"byteLength":440,
			"byteOffset":62892,
			"target":34962
		},
		{
			"buffer":0,
			"byteLength":1760,
			"byteOffset":63332,
			"target":34962
		},
		{
			"buffer":0,
			"byteLength":360,
			"byteOffset":65092,
			"target":34963
		},
		{
			"buffer":0,
			"byteLength":196,
			"byteOffset":65452
		},
		{
			"buffer":0,
			"byteLength":588,
			"byteOffset":65648
		},
		{
			"buffer":0,
			"byteLength":8,
			"byteOffset":66236
		},
		{
			"buffer":0,
			"byteLength":32,
			"byteOffset":66244
		},
		{
			"buffer":0,
			"byteLength":24,
			"byteOffset":66276
		},
		{
			"buffer":0,
			"byteLength":24,
			"byteOffset":66300
		},
		{
			"buffer":0,
			"byteLength":784,
			"byteOffset":66324
		},
		{
			"buffer":0,
			"byteLength":24,
			"byteOffset":67108
		},
		{
			"buffer":0,
			"byteLength":24,
			"byteOffset":67132
		},
		{
			"buffer":0,
			"byteLength":784,
			"byteOffset":67156
		},
		{
			"buffer":0,
			"byteLength":24,
			"byteOffset":67940
		},
		{
			"buffer":0,
			"byteLength":24,
			"byteOffset":67964
		},
		{
			"buffer":0,
			"byteLength":784,
			"byteOffset":67988
		},
		{
			"buffer":0,
			"byteLength":24,
			"byteOffset":68772
		}
	],
	"samplers":[
		{
			"magFilter":9729,
			"minFilter":9987
		}
	],
	"buffers":[
		{
			"byteLength":68796,
			"uri":"pufferfish.bin"
		}
	]
}
