{
	"asset":{
		"generator":"Khronos glTF Blender I/O v4.4.56",
		"version":"2.0"
	},
	"scene":0,
	"scenes":[
		{
			"name":"Scene",
			"nodes":[
				16
			]
		}
	],
	"nodes":[
		{
			"name":"Spine_2",
			"translation":[
				0.9110751748085022,
				0,
				0
			]
		},
		{
			"children":[
				0
			],
			"name":"Spine_1",
			"translation":[
				0.9110751748085022,
				0,
				0
			]
		},
		{
			"children":[
				1
			],
			"name":"Spine_0",
			"translation":[
				-0.13674211502075195,
				0,
				0
			]
		},
		{
			"children":[
				2
			],
			"name":"Root"
		},
		{
			"mesh":0,
			"name":"Eye_-1",
			"skin":0
		},
		{
			"mesh":1,
			"name":"Eye_1",
			"skin":0
		},
		{
			"mesh":2,
			"name":"Eye_glint_-1",
			"skin":0
		},
		{
			"mesh":3,
			"name":"Eye_glint_1",
			"skin":0
		},
		{
			"mesh":4,
			"name":"Flipper_-1",
			"skin":0
		},
		{
			"mesh":5,
			"name":"Flipper_1",
			"skin":0
		},
		{
			"mesh":6,
			"name":"Fluke_-1",
			"skin":0
		},
		{
			"mesh":7,
			"name":"Fluke_1",
			"skin":0
		},
		{
			"mesh":8,
			"name":"Orca_Body",
			"skin":0
		},
		{
			"mesh":9,
			"name":"Tall_dorsal",
			"skin":0
		},
		{
			"mesh":10,
			"name":"White_eye_patch_-1",
			"skin":0
		},
		{
			"mesh":11,
			"name":"White_eye_patch_1",
			"skin":0
		},
		{
			"children":[
				4,
				5,
				6,
				7,
				8,
				9,
				10,
				11,
				12,
				13,
				14,
				15,
				3
			],
			"name":"orca_Rig"
		}
	],
	"animations":[
		{
			"channels":[
				{
					"sampler":0,
					"target":{
						"node":3,
						"path":"translation"
					}
				},
				{
					"sampler":1,
					"target":{
						"node":3,
						"path":"rotation"
					}
				},
				{
					"sampler":2,
					"target":{
						"node":3,
						"path":"scale"
					}
				},
				{
					"sampler":3,
					"target":{
						"node":2,
						"path":"translation"
					}
				},
				{
					"sampler":4,
					"target":{
						"node":2,
						"path":"rotation"
					}
				},
				{
					"sampler":5,
					"target":{
						"node":2,
						"path":"scale"
					}
				},
				{
					"sampler":6,
					"target":{
						"node":1,
						"path":"translation"
					}
				},
				{
					"sampler":7,
					"target":{
						"node":1,
						"path":"rotation"
					}
				},
				{
					"sampler":8,
					"target":{
						"node":1,
						"path":"scale"
					}
				},
				{
					"sampler":9,
					"target":{
						"node":0,
						"path":"translation"
					}
				},
				{
					"sampler":10,
					"target":{
						"node":0,
						"path":"rotation"
					}
				},
				{
					"sampler":11,
					"target":{
						"node":0,
						"path":"scale"
					}
				}
			],
			"name":"Swim",
			"samplers":[
				{
					"input":72,
					"interpolation":"LINEAR",
					"output":73
				},
				{
					"input":74,
					"interpolation":"STEP",
					"output":75
				},
				{
					"input":74,
					"interpolation":"STEP",
					"output":76
				},
				{
					"input":74,
					"interpolation":"STEP",
					"output":77
				},
				{
					"input":72,
					"interpolation":"LINEAR",
					"output":78
				},
				{
					"input":74,
					"interpolation":"STEP",
					"output":79
				},
				{
					"input":74,
					"interpolation":"LINEAR",
					"output":80
				},
				{
					"input":72,
					"interpolation":"LINEAR",
					"output":81
				},
				{
					"input":74,
					"interpolation":"STEP",
					"output":82
				},
				{
					"input":74,
					"interpolation":"STEP",
					"output":83
				},
				{
					"input":72,
					"interpolation":"LINEAR",
					"output":84
				},
				{
					"input":74,
					"interpolation":"STEP",
					"output":85
				}
			]
		}
	],
	"materials":[
		{
			"doubleSided":true,
			"name":"Eye Black.002",
			"pbrMetallicRoughness":{
				"baseColorFactor":[
					0.006000000052154064,
					0.009999999776482582,
					0.013000000268220901,
					1
				],
				"metallicFactor":0,
				"roughnessFactor":0.20000000298023224
			}
		},
		{
			"doubleSided":true,
			"name":"Eye White.002",
			"pbrMetallicRoughness":{
				"baseColorFactor":[
					0.9599999785423279,
					0.9800000190734863,
					1,
					1
				],
				"metallicFactor":0,
				"roughnessFactor":0.25
			}
		},
		{
			"doubleSided":true,
			"name":"Orca Black",
			"pbrMetallicRoughness":{
				"baseColorFactor":[
					0.017999999225139618,
					0.026000000536441803,
					0.03500000014901161,
					1
				],
				"metallicFactor":0,
				"roughnessFactor":0.5
			}
		},
		{
			"doubleSided":true,
			"name":"Orca White",
			"pbrMetallicRoughness":{
				"baseColorFactor":[
					0.8500000238418579,
					0.8899999856948853,
					0.8700000047683716,
					1
				],
				"metallicFactor":0,
				"roughnessFactor":0.5
			}
		}
	],
	"meshes":[
		{
			"name":"Sphere.022",
			"primitives":[
				{
					"attributes":{
						"POSITION":0,
						"NORMAL":1,
						"TEXCOORD_0":2,
						"JOINTS_0":3,
						"WEIGHTS_0":4
					},
					"indices":5,
					"material":0
				}
			]
		},
		{
			"name":"Sphere.024",
			"primitives":[
				{
					"attributes":{
						"POSITION":7,
						"NORMAL":8,
						"TEXCOORD_0":9,
						"JOINTS_0":10,
						"WEIGHTS_0":11
					},
					"indices":12,
					"material":0
				}
			]
		},
		{
			"name":"Sphere.023",
			"primitives":[
				{
					"attributes":{
						"POSITION":13,
						"NORMAL":14,
						"TEXCOORD_0":15,
						"JOINTS_0":16,
						"WEIGHTS_0":17
					},
					"indices":18,
					"material":1
				}
			]
		},
		{
			"name":"Sphere.025",
			"primitives":[
				{
					"attributes":{
						"POSITION":19,
						"NORMAL":20,
						"TEXCOORD_0":21,
						"JOINTS_0":22,
						"WEIGHTS_0":23
					},
					"indices":24,
					"material":1
				}
			]
		},
		{
			"name":"Flipper_-1",
			"primitives":[
				{
					"attributes":{
						"POSITION":25,
						"NORMAL":26,
						"JOINTS_0":27,
						"WEIGHTS_0":28
					},
					"indices":29,
					"material":2
				}
			]
		},
		{
			"name":"Flipper_1",
			"primitives":[
				{
					"attributes":{
						"POSITION":30,
						"NORMAL":31,
						"JOINTS_0":32,
						"WEIGHTS_0":33
					},
					"indices":34,
					"material":2
				}
			]
		},
		{
			"name":"Fluke_-1",
			"primitives":[
				{
					"attributes":{
						"POSITION":35,
						"NORMAL":36,
						"JOINTS_0":37,
						"WEIGHTS_0":38
					},
					"indices":39,
					"material":2
				}
			]
		},
		{
			"name":"Fluke_1",
			"primitives":[
				{
					"attributes":{
						"POSITION":40,
						"NORMAL":41,
						"JOINTS_0":42,
						"WEIGHTS_0":43
					},
					"indices":44,
					"material":2
				}
			]
		},
		{
			"name":"Orca_Body",
			"primitives":[
				{
					"attributes":{
						"POSITION":45,
						"NORMAL":46,
						"JOINTS_0":47,
						"WEIGHTS_0":48
					},
					"indices":49,
					"material":2
				},
				{
					"attributes":{
						"POSITION":50,
						"NORMAL":51,
						"JOINTS_0":52,
						"WEIGHTS_0":53
					},
					"indices":54,
					"material":3
				}
			]
		},
		{
			"name":"Tall_dorsal",
			"primitives":[
				{
					"attributes":{
						"POSITION":55,
						"NORMAL":56,
						"JOINTS_0":57,
						"WEIGHTS_0":58
					},
					"indices":59,
					"material":2
				}
			]
		},
		{
			"name":"Sphere.026",
			"primitives":[
				{
					"attributes":{
						"POSITION":60,
						"NORMAL":61,
						"TEXCOORD_0":62,
						"JOINTS_0":63,
						"WEIGHTS_0":64
					},
					"indices":65,
					"material":3
				}
			]
		},
		{
			"name":"Sphere.027",
			"primitives":[
				{
					"attributes":{
						"POSITION":66,
						"NORMAL":67,
						"TEXCOORD_0":68,
						"JOINTS_0":69,
						"WEIGHTS_0":70
					},
					"indices":71,
					"material":3
				}
			]
		}
	],
	"skins":[
		{
			"inverseBindMatrices":6,
			"joints":[
				3,
				2,
				1,
				0
			],
			"name":"orca_Rig"
		}
	],
	"accessors":[
		{
			"bufferView":0,
			"componentType":5126,
			"count":502,
			"max":[
				-1.565000057220459,
				0.20499999821186066,
				0.5489999651908875
			],
			"min":[
				-1.6949999332427979,
				0.07500000298023224,
				0.47099998593330383
			],
			"type":"VEC3"
		},
		{
			"bufferView":1,
			"componentType":5126,
			"count":502,
			"type":"VEC3"
		},
		{
			"bufferView":2,
			"componentType":5126,
			"count":502,
			"type":"VEC2"
		},
		{
			"bufferView":3,
			"componentType":5121,
			"count":502,
			"type":"VEC4"
		},
		{
			"bufferView":4,
			"componentType":5126,
			"count":502,
			"type":"VEC4"
		},
		{
			"bufferView":5,
			"componentType":5123,
			"count":672,
			"type":"SCALAR"
		},
		{
			"bufferView":6,
			"componentType":5126,
			"count":4,
			"type":"MAT4"
		},
		{
			"bufferView":7,
			"componentType":5126,
			"count":500,
			"max":[
				-1.565000057220459,
				0.20499999821186066,
				-0.47099998593330383
			],
			"min":[
				-1.6949999332427979,
				0.07500000298023224,
				-0.5489999651908875
			],
			"type":"VEC3"
		},
		{
			"bufferView":8,
			"componentType":5126,
			"count":500,
			"type":"VEC3"
		},
		{
			"bufferView":9,
			"componentType":5126,
			"count":500,
			"type":"VEC2"
		},
		{
			"bufferView":10,
			"componentType":5121,
			"count":500,
			"type":"VEC4"
		},
		{
			"bufferView":11,
			"componentType":5126,
			"count":500,
			"type":"VEC4"
		},
		{
			"bufferView":12,
			"componentType":5123,
			"count":672,
			"type":"SCALAR"
		},
		{
			"bufferView":13,
			"componentType":5126,
			"count":314,
			"max":[
				-1.6299999952316284,
				0.17444999516010284,
				0.5522500276565552
			],
			"min":[
				-1.662500023841858,
				0.14194999635219574,
				0.5327500104904175
			],
			"type":"VEC3"
		},
		{
			"bufferView":14,
			"componentType":5126,
			"count":314,
			"type":"VEC3"
		},
		{
			"bufferView":15,
			"componentType":5126,
			"count":314,
			"type":"VEC2"
		},
		{
			"bufferView":16,
			"componentType":5121,
			"count":314,
			"type":"VEC4"
		},
		{
			"bufferView":17,
			"componentType":5126,
			"count":314,
			"type":"VEC4"
		},
		{
			"bufferView":18,
			"componentType":5123,
			"count":360,
			"type":"SCALAR"
		},
		{
			"bufferView":19,
			"componentType":5126,
			"count":314,
			"max":[
				-1.6299999952316284,
				0.17444999516010284,
				-0.5327500104904175
			],
			"min":[
				-1.662500023841858,
				0.14194999635219574,
				-0.5522500276565552
			],
			"type":"VEC3"
		},
		{
			"bufferView":20,
			"componentType":5126,
			"count":314,
			"type":"VEC3"
		},
		{
			"bufferView":21,
			"componentType":5126,
			"count":314,
			"type":"VEC2"
		},
		{
			"bufferView":22,
			"componentType":5121,
			"count":314,
			"type":"VEC4"
		},
		{
			"bufferView":23,
			"componentType":5126,
			"count":314,
			"type":"VEC4"
		},
		{
			"bufferView":24,
			"componentType":5123,
			"count":360,
			"type":"SCALAR"
		},
		{
			"bufferView":25,
			"componentType":5126,
			"count":24,
			"max":[
				0.10332024097442627,
				-0.14881548285484314,
				1.351130723953247
			],
			"min":[
				-1.12332022190094,
				-0.7311845421791077,
				0.418869286775589
			],
			"type":"VEC3"
		},
		{
			"bufferView":26,
			"componentType":5126,
			"count":24,
			"type":"VEC3"
		},
		{
			"bufferView":27,
			"componentType":5121,
			"count":24,
			"type":"VEC4"
		},
		{
			"bufferView":28,
			"componentType":5126,
			"count":24,
			"type":"VEC4"
		},
		{
			"bufferView":29,
			"componentType":5123,
			"count":36,
			"type":"SCALAR"
		},
		{
			"bufferView":30,
			"componentType":5126,
			"count":24,
			"max":[
				0.10332024097442627,
				-0.14881548285484314,
				-0.418869286775589
			],
			"min":[
				-1.12332022190094,
				-0.7311845421791077,
				-1.351130723953247
			],
			"type":"VEC3"
		},
		{
			"bufferView":31,
			"componentType":5126,
			"count":24,
			"type":"VEC3"
		},
		{
			"bufferView":32,
			"componentType":5121,
			"count":24,
			"type":"VEC4"
		},
		{
			"bufferView":33,
			"componentType":5126,
			"count":24,
			"type":"VEC4"
		},
		{
			"bufferView":34,
			"componentType":5123,
			"count":36,
			"type":"SCALAR"
		},
		{
			"bufferView":35,
			"componentType":5126,
			"count":24,
			"max":[
				2.505375862121582,
				0.2042320966720581,
				1.2062946557998657
			],
			"min":[
				1.5946241617202759,
				-0.08423209190368652,
				-0.00629456527531147
			],
			"type":"VEC3"
		},
		{
			"bufferView":36,
			"componentType":5126,
			"count":24,
			"type":"VEC3"
		},
		{
			"bufferView":37,
			"componentType":5121,
			"count":24,
			"type":"VEC4"
		},
		{
			"bufferView":38,
			"componentType":5126,
			"count":24,
			"type":"VEC4"
		},
		{
			"bufferView":39,
			"componentType":5123,
			"count":36,
			"type":"SCALAR"
		},
		{
			"bufferView":40,
			"componentType":5126,
			"count":24,
			"max":[
				2.505375862121582,
				0.2042320966720581,
				0.00629456527531147
			],
			"min":[
				1.5946241617202759,
				-0.08423209190368652,
				-1.2062946557998657
			],
			"type":"VEC3"
		},
		{
			"bufferView":41,
			"componentType":5126,
			"count":24,
			"type":"VEC3"
		},
		{
			"bufferView":42,
			"componentType":5121,
			"count":24,
			"type":"VEC4"
		},
		{
			"bufferView":43,
			"componentType":5126,
			"count":24,
			"type":"VEC4"
		},
		{
			"bufferView":44,
			"componentType":5123,
			"count":36,
			"type":"SCALAR"
		},
		{
			"bufferView":45,
			"componentType":5126,
			"count":260,
			"max":[
				2,
				0.7799999713897705,
				0.699999988079071
			],
			"min":[
				-2.049999952316284,
				-0.25,
				-0.699999988079071
			],
			"type":"VEC3"
		},
		{
			"bufferView":46,
			"componentType":5126,
			"count":260,
			"type":"VEC3"
		},
		{
			"bufferView":47,
			"componentType":5121,
			"count":260,
			"type":"VEC4"
		},
		{
			"bufferView":48,
			"componentType":5126,
			"count":260,
			"type":"VEC4"
		},
		{
			"bufferView":49,
			"componentType":5123,
			"count":420,
			"type":"SCALAR"
		},
		{
			"bufferView":50,
			"componentType":5126,
			"count":164,
			"max":[
				2,
				9.552245317815411e-17,
				0.699999988079071
			],
			"min":[
				-2.049999952316284,
				-0.7799999713897705,
				-0.699999988079071
			],
			"type":"VEC3"
		},
		{
			"bufferView":51,
			"componentType":5126,
			"count":164,
			"type":"VEC3"
		},
		{
			"bufferView":52,
			"componentType":5121,
			"count":164,
			"type":"VEC4"
		},
		{
			"bufferView":53,
			"componentType":5126,
			"count":164,
			"type":"VEC4"
		},
		{
			"bufferView":54,
			"componentType":5123,
			"count":240,
			"type":"SCALAR"
		},
		{
			"bufferView":55,
			"componentType":5126,
			"count":24,
			"max":[
				0.6000000238418579,
				2.049999952316284,
				0.07000000029802322
			],
			"min":[
				-0.44999998807907104,
				0.550000011920929,
				-0.07000000029802322
			],
			"type":"VEC3"
		},
		{
			"bufferView":56,
			"componentType":5126,
			"count":24,
			"type":"VEC3"
		},
		{
			"bufferView":57,
			"componentType":5121,
			"count":24,
			"type":"VEC4"
		},
		{
			"bufferView":58,
			"componentType":5126,
			"count":24,
			"type":"VEC4"
		},
		{
			"bufferView":59,
			"componentType":5123,
			"count":36,
			"type":"SCALAR"
		},
		{
			"bufferView":60,
			"componentType":5126,
			"count":486,
			"max":[
				-0.9100000262260437,
				0.44999998807907104,
				0.6650000214576721
			],
			"min":[
				-1.5299999713897705,
				0.10999999940395355,
				0.5550000071525574
			],
			"type":"VEC3"
		},
		{
			"bufferView":61,
			"componentType":5126,
			"count":486,
			"type":"VEC3"
		},
		{
			"bufferView":62,
			"componentType":5126,
			"count":486,
			"type":"VEC2"
		},
		{
			"bufferView":63,
			"componentType":5121,
			"count":486,
			"type":"VEC4"
		},
		{
			"bufferView":64,
			"componentType":5126,
			"count":486,
			"type":"VEC4"
		},
		{
			"bufferView":65,
			"componentType":5123,
			"count":672,
			"type":"SCALAR"
		},
		{
			"bufferView":66,
			"componentType":5126,
			"count":484,
			"max":[
				-0.9100000262260437,
				0.44999998807907104,
				-0.5550000071525574
			],
			"min":[
				-1.5299999713897705,
				0.10999999940395355,
				-0.6650000214576721
			],
			"type":"VEC3"
		},
		{
			"bufferView":67,
			"componentType":5126,
			"count":484,
			"type":"VEC3"
		},
		{
			"bufferView":68,
			"componentType":5126,
			"count":484,
			"type":"VEC2"
		},
		{
			"bufferView":69,
			"componentType":5121,
			"count":484,
			"type":"VEC4"
		},
		{
			"bufferView":70,
			"componentType":5126,
			"count":484,
			"type":"VEC4"
		},
		{
			"bufferView":71,
			"componentType":5123,
			"count":672,
			"type":"SCALAR"
		},
		{
			"bufferView":72,
			"componentType":5126,
			"count":49,
			"max":[
				1.6333333333333333
			],
			"min":[
				0.03333333333333333
			],
			"type":"SCALAR"
		},
		{
			"bufferView":73,
			"componentType":5126,
			"count":49,
			"type":"VEC3"
		},
		{
			"bufferView":74,
			"componentType":5126,
			"count":2,
			"max":[
				1.6333333333333333
			],
			"min":[
				0.03333333333333333
			],
			"type":"SCALAR"
		},
		{
			"bufferView":75,
			"componentType":5126,
			"count":2,
			"type":"VEC4"
		},
		{
			"bufferView":76,
			"componentType":5126,
			"count":2,
			"type":"VEC3"
		},
		{
			"bufferView":77,
			"componentType":5126,
			"count":2,
			"type":"VEC3"
		},
		{
			"bufferView":78,
			"componentType":5126,
			"count":49,
			"type":"VEC4"
		},
		{
			"bufferView":79,
			"componentType":5126,
			"count":2,
			"type":"VEC3"
		},
		{
			"bufferView":80,
			"componentType":5126,
			"count":2,
			"type":"VEC3"
		},
		{
			"bufferView":81,
			"componentType":5126,
			"count":49,
			"type":"VEC4"
		},
		{
			"bufferView":82,
			"componentType":5126,
			"count":2,
			"type":"VEC3"
		},
		{
			"bufferView":83,
			"componentType":5126,
			"count":2,
			"type":"VEC3"
		},
		{
			"bufferView":84,
			"componentType":5126,
			"count":49,
			"type":"VEC4"
		},
		{
			"bufferView":85,
			"componentType":5126,
			"count":2,
			"type":"VEC3"
		}
	],
	"bufferViews":[
		{
			"buffer":0,
			"byteLength":6024,
			"byteOffset":0,
			"target":34962
		},
		{
			"buffer":0,
			"byteLength":6024,
			"byteOffset":6024,
			"target":34962
		},
		{
			"buffer":0,
			"byteLength":4016,
			"byteOffset":12048,
			"target":34962
		},
		{
			"buffer":0,
			"byteLength":2008,
			"byteOffset":16064,
			"target":34962
		},
		{
			"buffer":0,
			"byteLength":8032,
			"byteOffset":18072,
			"target":34962
		},
		{
			"buffer":0,
			"byteLength":1344,
			"byteOffset":26104,
			"target":34963
		},
		{
			"buffer":0,
			"byteLength":256,
			"byteOffset":27448
		},
		{
			"buffer":0,
			"byteLength":6000,
			"byteOffset":27704,
			"target":34962
		},
		{
			"buffer":0,
			"byteLength":6000,
			"byteOffset":33704,
			"target":34962
		},
		{
			"buffer":0,
			"byteLength":4000,
			"byteOffset":39704,
			"target":34962
		},
		{
			"buffer":0,
			"byteLength":2000,
			"byteOffset":43704,
			"target":34962
		},
		{
			"buffer":0,
			"byteLength":8000,
			"byteOffset":45704,
			"target":34962
		},
		{
			"buffer":0,
			"byteLength":1344,
			"byteOffset":53704,
			"target":34963
		},
		{
			"buffer":0,
			"byteLength":3768,
			"byteOffset":55048,
			"target":34962
		},
		{
			"buffer":0,
			"byteLength":3768,
			"byteOffset":58816,
			"target":34962
		},
		{
			"buffer":0,
			"byteLength":2512,
			"byteOffset":62584,
			"target":34962
		},
		{
			"buffer":0,
			"byteLength":1256,
			"byteOffset":65096,
			"target":34962
		},
		{
			"buffer":0,
			"byteLength":5024,
			"byteOffset":66352,
			"target":34962
		},
		{
			"buffer":0,
			"byteLength":720,
			"byteOffset":71376,
			"target":34963
		},
		{
			"buffer":0,
			"byteLength":3768,
			"byteOffset":72096,
			"target":34962
		},
		{
			"buffer":0,
			"byteLength":3768,
			"byteOffset":75864,
			"target":34962
		},
		{
			"buffer":0,
			"byteLength":2512,
			"byteOffset":79632,
			"target":34962
		},
		{
			"buffer":0,
			"byteLength":1256,
			"byteOffset":82144,
			"target":34962
		},
		{
			"buffer":0,
			"byteLength":5024,
			"byteOffset":83400,
			"target":34962
		},
		{
			"buffer":0,
			"byteLength":720,
			"byteOffset":88424,
			"target":34963
		},
		{
			"buffer":0,
			"byteLength":288,
			"byteOffset":89144,
			"target":34962
		},
		{
			"buffer":0,
			"byteLength":288,
			"byteOffset":89432,
			"target":34962
		},
		{
			"buffer":0,
			"byteLength":96,
			"byteOffset":89720,
			"target":34962
		},
		{
			"buffer":0,
			"byteLength":384,
			"byteOffset":89816,
			"target":34962
		},
		{
			"buffer":0,
			"byteLength":72,
			"byteOffset":90200,
			"target":34963
		},
		{
			"buffer":0,
			"byteLength":288,
			"byteOffset":90272,
			"target":34962
		},
		{
			"buffer":0,
			"byteLength":288,
			"byteOffset":90560,
			"target":34962
		},
		{
			"buffer":0,
			"byteLength":96,
			"byteOffset":90848,
			"target":34962
		},
		{
			"buffer":0,
			"byteLength":384,
			"byteOffset":90944,
			"target":34962
		},
		{
			"buffer":0,
			"byteLength":72,
			"byteOffset":91328,
			"target":34963
		},
		{
			"buffer":0,
			"byteLength":288,
			"byteOffset":91400,
			"target":34962
		},
		{
			"buffer":0,
			"byteLength":288,
			"byteOffset":91688,
			"target":34962
		},
		{
			"buffer":0,
			"byteLength":96,
			"byteOffset":91976,
			"target":34962
		},
		{
			"buffer":0,
			"byteLength":384,
			"byteOffset":92072,
			"target":34962
		},
		{
			"buffer":0,
			"byteLength":72,
			"byteOffset":92456,
			"target":34963
		},
		{
			"buffer":0,
			"byteLength":288,
			"byteOffset":92528,
			"target":34962
		},
		{
			"buffer":0,
			"byteLength":288,
			"byteOffset":92816,
			"target":34962
		},
		{
			"buffer":0,
			"byteLength":96,
			"byteOffset":93104,
			"target":34962
		},
		{
			"buffer":0,
			"byteLength":384,
			"byteOffset":93200,
			"target":34962
		},
		{
			"buffer":0,
			"byteLength":72,
			"byteOffset":93584,
			"target":34963
		},
		{
			"buffer":0,
			"byteLength":3120,
			"byteOffset":93656,
			"target":34962
		},
		{
			"buffer":0,
			"byteLength":3120,
			"byteOffset":96776,
			"target":34962
		},
		{
			"buffer":0,
			"byteLength":1040,
			"byteOffset":99896,
			"target":34962
		},
		{
			"buffer":0,
			"byteLength":4160,
			"byteOffset":100936,
			"target":34962
		},
		{
			"buffer":0,
			"byteLength":840,
			"byteOffset":105096,
			"target":34963
		},
		{
			"buffer":0,
			"byteLength":1968,
			"byteOffset":105936,
			"target":34962
		},
		{
			"buffer":0,
			"byteLength":1968,
			"byteOffset":107904,
			"target":34962
		},
		{
			"buffer":0,
			"byteLength":656,
			"byteOffset":109872,
			"target":34962
		},
		{
			"buffer":0,
			"byteLength":2624,
			"byteOffset":110528,
			"target":34962
		},
		{
			"buffer":0,
			"byteLength":480,
			"byteOffset":113152,
			"target":34963
		},
		{
			"buffer":0,
			"byteLength":288,
			"byteOffset":113632,
			"target":34962
		},
		{
			"buffer":0,
			"byteLength":288,
			"byteOffset":113920,
			"target":34962
		},
		{
			"buffer":0,
			"byteLength":96,
			"byteOffset":114208,
			"target":34962
		},
		{
			"buffer":0,
			"byteLength":384,
			"byteOffset":114304,
			"target":34962
		},
		{
			"buffer":0,
			"byteLength":72,
			"byteOffset":114688,
			"target":34963
		},
		{
			"buffer":0,
			"byteLength":5832,
			"byteOffset":114760,
			"target":34962
		},
		{
			"buffer":0,
			"byteLength":5832,
			"byteOffset":120592,
			"target":34962
		},
		{
			"buffer":0,
			"byteLength":3888,
			"byteOffset":126424,
			"target":34962
		},
		{
			"buffer":0,
			"byteLength":1944,
			"byteOffset":130312,
			"target":34962
		},
		{
			"buffer":0,
			"byteLength":7776,
			"byteOffset":132256,
			"target":34962
		},
		{
			"buffer":0,
			"byteLength":1344,
			"byteOffset":140032,
			"target":34963
		},
		{
			"buffer":0,
			"byteLength":5808,
			"byteOffset":141376,
			"target":34962
		},
		{
			"buffer":0,
			"byteLength":5808,
			"byteOffset":147184,
			"target":34962
		},
		{
			"buffer":0,
			"byteLength":3872,
			"byteOffset":152992,
			"target":34962
		},
		{
			"buffer":0,
			"byteLength":1936,
			"byteOffset":156864,
			"target":34962
		},
		{
			"buffer":0,
			"byteLength":7744,
			"byteOffset":158800,
			"target":34962
		},
		{
			"buffer":0,
			"byteLength":1344,
			"byteOffset":166544,
			"target":34963
		},
		{
			"buffer":0,
			"byteLength":196,
			"byteOffset":167888
		},
		{
			"buffer":0,
			"byteLength":588,
			"byteOffset":168084
		},
		{
			"buffer":0,
			"byteLength":8,
			"byteOffset":168672
		},
		{
			"buffer":0,
			"byteLength":32,
			"byteOffset":168680
		},
		{
			"buffer":0,
			"byteLength":24,
			"byteOffset":168712
		},
		{
			"buffer":0,
			"byteLength":24,
			"byteOffset":168736
		},
		{
			"buffer":0,
			"byteLength":784,
			"byteOffset":168760
		},
		{
			"buffer":0,
			"byteLength":24,
			"byteOffset":169544
		},
		{
			"buffer":0,
			"byteLength":24,
			"byteOffset":169568
		},
		{
			"buffer":0,
			"byteLength":784,
			"byteOffset":169592
		},
		{
			"buffer":0,
			"byteLength":24,
			"byteOffset":170376
		},
		{
			"buffer":0,
			"byteLength":24,
			"byteOffset":170400
		},
		{
			"buffer":0,
			"byteLength":784,
			"byteOffset":170424
		},
		{
			"buffer":0,
			"byteLength":24,
			"byteOffset":171208
		}
	],
	"buffers":[
		{
			"byteLength":171232,
			"uri":"orca.bin"
		}
	]
}
