{
	"asset":{
		"generator":"Khronos glTF Blender I/O v4.4.56",
		"version":"2.0"
	},
	"scene":0,
	"scenes":[
		{
			"name":"Scene",
			"nodes":[
				5
			]
		}
	],
	"nodes":[
		{
			"name":"Spine_2",
			"translation":[
				-0.45132699608802795,
				0,
				0
			]
		},
		{
			"children":[
				0
			],
			"name":"Spine_1",
			"translation":[
				-0.45132702589035034,
				0,
				0
			]
		},
		{
			"children":[
				1
			],
			"name":"Spine_0",
			"translation":[
				1.0034658908843994,
				0,
				0
			]
		},
		{
			"children":[
				2
			],
			"name":"Root"
		},
		{
			"mesh":0,
			"name":"Cube",
			"skin":0
		},
		{
			"children":[
				4,
				3
			],
			"name":"Archerfish_Rig"
		}
	],
	"animations":[
		{
			"channels":[
				{
					"sampler":0,
					"target":{
						"node":3,
						"path":"translation"
					}
				},
				{
					"sampler":1,
					"target":{
						"node":3,
						"path":"rotation"
					}
				},
				{
					"sampler":2,
					"target":{
						"node":3,
						"path":"scale"
					}
				},
				{
					"sampler":3,
					"target":{
						"node":2,
						"path":"translation"
					}
				},
				{
					"sampler":4,
					"target":{
						"node":2,
						"path":"rotation"
					}
				},
				{
					"sampler":5,
					"target":{
						"node":2,
						"path":"scale"
					}
				},
				{
					"sampler":6,
					"target":{
						"node":1,
						"path":"translation"
					}
				},
				{
					"sampler":7,
					"target":{
						"node":1,
						"path":"rotation"
					}
				},
				{
					"sampler":8,
					"target":{
						"node":1,
						"path":"scale"
					}
				},
				{
					"sampler":9,
					"target":{
						"node":0,
						"path":"translation"
					}
				},
				{
					"sampler":10,
					"target":{
						"node":0,
						"path":"rotation"
					}
				},
				{
					"sampler":11,
					"target":{
						"node":0,
						"path":"scale"
					}
				}
			],
			"name":"Swim",
			"samplers":[
				{
					"input":7,
					"interpolation":"LINEAR",
					"output":8
				},
				{
					"input":9,
					"interpolation":"STEP",
					"output":10
				},
				{
					"input":9,
					"interpolation":"STEP",
					"output":11
				},
				{
					"input":9,
					"interpolation":"STEP",
					"output":12
				},
				{
					"input":7,
					"interpolation":"LINEAR",
					"output":13
				},
				{
					"input":9,
					"interpolation":"STEP",
					"output":14
				},
				{
					"input":9,
					"interpolation":"LINEAR",
					"output":15
				},
				{
					"input":7,
					"interpolation":"LINEAR",
					"output":16
				},
				{
					"input":9,
					"interpolation":"STEP",
					"output":17
				},
				{
					"input":9,
					"interpolation":"STEP",
					"output":18
				},
				{
					"input":7,
					"interpolation":"LINEAR",
					"output":19
				},
				{
					"input":9,
					"interpolation":"STEP",
					"output":20
				}
			]
		}
	],
	"materials":[
		{
			"doubleSided":true,
			"name":"\u30de\u30c6\u30ea\u30a2\u30eb.001",
			"pbrMetallicRoughness":{
				"baseColorTexture":{
					"index":0
				},
				"metallicFactor":0,
				"roughnessFactor":0.5
			}
		}
	],
	"meshes":[
		{
			"name":"Cube.001",
			"primitives":[
				{
					"attributes":{
						"POSITION":0,
						"NORMAL":1,
						"TEXCOORD_0":2,
						"JOINTS_0":3,
						"WEIGHTS_0":4
					},
					"indices":5,
					"material":0
				}
			]
		}
	],
	"textures":[
		{
			"sampler":0,
			"source":0
		}
	],
	"images":[
		{
			"mimeType":"image/png",
			"name":"Archerfish_Texture",
			"uri":"Archerfish_Texture.png"
		}
	],
	"skins":[
		{
			"inverseBindMatrices":6,
			"joints":[
				3,
				2,
				1,
				0
			],
			"name":"Archerfish_Rig"
		}
	],
	"accessors":[
		{
			"bufferView":0,
			"componentType":5126,
			"count":413,
			"max":[
				1.9512525796890259,
				0.5712935328483582,
				0.09141871333122253
			],
			"min":[
				-0.3053824305534363,
				-0.47291120886802673,
				-0.2401796281337738
			],
			"type":"VEC3"
		},
		{
			"bufferView":1,
			"componentType":5126,
			"count":413,
			"type":"VEC3"
		},
		{
			"bufferView":2,
			"componentType":5126,
			"count":413,
			"type":"VEC2"
		},
		{
			"bufferView":3,
			"componentType":5121,
			"count":413,
			"type":"VEC4"
		},
		{
			"bufferView":4,
			"componentType":5126,
			"count":413,
			"type":"VEC4"
		},
		{
			"bufferView":5,
			"componentType":5123,
			"count":864,
			"type":"SCALAR"
		},
		{
			"bufferView":6,
			"componentType":5126,
			"count":4,
			"type":"MAT4"
		},
		{
			"bufferView":7,
			"componentType":5126,
			"count":49,
			"max":[
				1.6333333333333333
			],
			"min":[
				0.03333333333333333
			],
			"type":"SCALAR"
		},
		{
			"bufferView":8,
			"componentType":5126,
			"count":49,
			"type":"VEC3"
		},
		{
			"bufferView":9,
			"componentType":5126,
			"count":2,
			"max":[
				1.6333333333333333
			],
			"min":[
				0.03333333333333333
			],
			"type":"SCALAR"
		},
		{
			"bufferView":10,
			"componentType":5126,
			"count":2,
			"type":"VEC4"
		},
		{
			"bufferView":11,
			"componentType":5126,
			"count":2,
			"type":"VEC3"
		},
		{
			"bufferView":12,
			"componentType":5126,
			"count":2,
			"type":"VEC3"
		},
		{
			"bufferView":13,
			"componentType":5126,
			"count":49,
			"type":"VEC4"
		},
		{
			"bufferView":14,
			"componentType":5126,
			"count":2,
			"type":"VEC3"
		},
		{
			"bufferView":15,
			"componentType":5126,
			"count":2,
			"type":"VEC3"
		},
		{
			"bufferView":16,
			"componentType":5126,
			"count":49,
			"type":"VEC4"
		},
		{
			"bufferView":17,
			"componentType":5126,
			"count":2,
			"type":"VEC3"
		},
		{
			"bufferView":18,
			"componentType":5126,
			"count":2,
			"type":"VEC3"
		},
		{
			"bufferView":19,
			"componentType":5126,
			"count":49,
			"type":"VEC4"
		},
		{
			"bufferView":20,
			"componentType":5126,
			"count":2,
			"type":"VEC3"
		}
	],
	"bufferViews":[
		{
			"buffer":0,
			"byteLength":4956,
			"byteOffset":0,
			"target":34962
		},
		{
			"buffer":0,
			"byteLength":4956,
			"byteOffset":4956,
			"target":34962
		},
		{
			"buffer":0,
			"byteLength":3304,
			"byteOffset":9912,
			"target":34962
		},
		{
			"buffer":0,
			"byteLength":1652,
			"byteOffset":13216,
			"target":34962
		},
		{
			"buffer":0,
			"byteLength":6608,
			"byteOffset":14868,
			"target":34962
		},
		{
			"buffer":0,
			"byteLength":1728,
			"byteOffset":21476,
			"target":34963
		},
		{
			"buffer":0,
			"byteLength":256,
			"byteOffset":23204
		},
		{
			"buffer":0,
			"byteLength":196,
			"byteOffset":23460
		},
		{
			"buffer":0,
			"byteLength":588,
			"byteOffset":23656
		},
		{
			"buffer":0,
			"byteLength":8,
			"byteOffset":24244
		},
		{
			"buffer":0,
			"byteLength":32,
			"byteOffset":24252
		},
		{
			"buffer":0,
			"byteLength":24,
			"byteOffset":24284
		},
		{
			"buffer":0,
			"byteLength":24,
			"byteOffset":24308
		},
		{
			"buffer":0,
			"byteLength":784,
			"byteOffset":24332
		},
		{
			"buffer":0,
			"byteLength":24,
			"byteOffset":25116
		},
		{
			"buffer":0,
			"byteLength":24,
			"byteOffset":25140
		},
		{
			"buffer":0,
			"byteLength":784,
			"byteOffset":25164
		},
		{
			"buffer":0,
			"byteLength":24,
			"byteOffset":25948
		},
		{
			"buffer":0,
			"byteLength":24,
			"byteOffset":25972
		},
		{
			"buffer":0,
			"byteLength":784,
			"byteOffset":25996
		},
		{
			"buffer":0,
			"byteLength":24,
			"byteOffset":26780
		}
	],
	"samplers":[
		{
			"magFilter":9729,
			"minFilter":9987
		}
	],
	"buffers":[
		{
			"byteLength":26804,
			"uri":"Archerfish.bin"
		}
	]
}
