{
	"asset":{
		"generator":"Khronos glTF Blender I/O v4.4.56",
		"version":"2.0"
	},
	"scene":0,
	"scenes":[
		{
			"name":"Scene",
			"nodes":[
				17
			]
		}
	],
	"nodes":[
		{
			"name":"Spine_2",
			"translation":[
				0.9529323577880859,
				0,
				0
			]
		},
		{
			"children":[
				0
			],
			"name":"Spine_1",
			"translation":[
				0.9529323577880859,
				-1.4901161193847656e-08,
				0
			]
		},
		{
			"children":[
				1
			],
			"name":"Spine_0",
			"rotation":[
				-3.552713678800501e-15,
				0,
				0,
				1
			],
			"translation":[
				-2.1381046772003174,
				0,
				0
			]
		},
		{
			"children":[
				2
			],
			"name":"Root",
			"rotation":[
				-2.980232594040899e-08,
				0,
				0,
				1
			],
			"scale":[
				1,
				0.9999999403953552,
				0.9999999403953552
			]
		},
		{
			"mesh":0,
			"name":"Halfbeak_Body",
			"skin":0
		},
		{
			"mesh":1,
			"name":"Halfbeak_Eye_Left",
			"skin":0
		},
		{
			"mesh":2,
			"name":"Halfbeak_Eye_Right",
			"skin":0
		},
		{
			"mesh":3,
			"name":"Halfbeak_EyeGlint_0",
			"skin":0
		},
		{
			"mesh":4,
			"name":"Halfbeak_EyeGlint_1",
			"skin":0
		},
		{
			"mesh":5,
			"name":"Halfbeak_EyeRing_0",
			"skin":0
		},
		{
			"mesh":6,
			"name":"Halfbeak_EyeRing_1",
			"skin":0
		},
		{
			"mesh":7,
			"name":"Halfbeak_Fin_01",
			"skin":0
		},
		{
			"mesh":8,
			"name":"Halfbeak_Fin_02",
			"skin":0
		},
		{
			"mesh":9,
			"name":"Halfbeak_Fin_03",
			"skin":0
		},
		{
			"mesh":10,
			"name":"Halfbeak_Fin_04",
			"skin":0
		},
		{
			"mesh":11,
			"name":"Halfbeak_Gill_-1",
			"skin":0
		},
		{
			"mesh":12,
			"name":"Halfbeak_Gill_1",
			"skin":0
		},
		{
			"children":[
				4,
				5,
				6,
				7,
				8,
				9,
				10,
				11,
				12,
				13,
				14,
				15,
				16,
				3
			],
			"name":"halfbeak_Rig"
		}
	],
	"animations":[
		{
			"channels":[
				{
					"sampler":0,
					"target":{
						"node":3,
						"path":"translation"
					}
				},
				{
					"sampler":1,
					"target":{
						"node":3,
						"path":"rotation"
					}
				},
				{
					"sampler":2,
					"target":{
						"node":3,
						"path":"scale"
					}
				},
				{
					"sampler":3,
					"target":{
						"node":2,
						"path":"translation"
					}
				},
				{
					"sampler":4,
					"target":{
						"node":2,
						"path":"rotation"
					}
				},
				{
					"sampler":5,
					"target":{
						"node":2,
						"path":"scale"
					}
				},
				{
					"sampler":6,
					"target":{
						"node":1,
						"path":"translation"
					}
				},
				{
					"sampler":7,
					"target":{
						"node":1,
						"path":"rotation"
					}
				},
				{
					"sampler":8,
					"target":{
						"node":1,
						"path":"scale"
					}
				},
				{
					"sampler":9,
					"target":{
						"node":0,
						"path":"translation"
					}
				},
				{
					"sampler":10,
					"target":{
						"node":0,
						"path":"rotation"
					}
				},
				{
					"sampler":11,
					"target":{
						"node":0,
						"path":"scale"
					}
				}
			],
			"name":"Swim",
			"samplers":[
				{
					"input":126,
					"interpolation":"LINEAR",
					"output":127
				},
				{
					"input":128,
					"interpolation":"STEP",
					"output":129
				},
				{
					"input":128,
					"interpolation":"STEP",
					"output":130
				},
				{
					"input":128,
					"interpolation":"LINEAR",
					"output":131
				},
				{
					"input":126,
					"interpolation":"LINEAR",
					"output":132
				},
				{
					"input":128,
					"interpolation":"STEP",
					"output":133
				},
				{
					"input":128,
					"interpolation":"LINEAR",
					"output":134
				},
				{
					"input":126,
					"interpolation":"LINEAR",
					"output":135
				},
				{
					"input":128,
					"interpolation":"STEP",
					"output":136
				},
				{
					"input":128,
					"interpolation":"STEP",
					"output":137
				},
				{
					"input":126,
					"interpolation":"LINEAR",
					"output":138
				},
				{
					"input":128,
					"interpolation":"STEP",
					"output":139
				}
			]
		}
	],
	"materials":[
		{
			"doubleSided":true,
			"name":"Deep Teal Back",
			"pbrMetallicRoughness":{
				"baseColorFactor":[
					0.054999999701976776,
					0.23999999463558197,
					0.28999999165534973,
					1
				],
				"metallicFactor":0,
				"roughnessFactor":0.44999998807907104
			}
		},
		{
			"doubleSided":true,
			"name":"Silver Blue Flank",
			"pbrMetallicRoughness":{
				"baseColorFactor":[
					0.47999998927116394,
					0.6700000166893005,
					0.699999988079071,
					1
				],
				"metallicFactor":0.15000000596046448,
				"roughnessFactor":0.3499999940395355
			}
		},
		{
			"doubleSided":true,
			"name":"Pearl Belly",
			"pbrMetallicRoughness":{
				"baseColorFactor":[
					0.7900000214576721,
					0.8399999737739563,
					0.7799999713897705,
					1
				],
				"metallicFactor":0,
				"roughnessFactor":0.44999998807907104
			}
		},
		{
			"doubleSided":true,
			"name":"Sea Glass Fins",
			"pbrMetallicRoughness":{
				"baseColorFactor":[
					0.25999999046325684,
					0.5,
					0.5199999809265137,
					1
				],
				"metallicFactor":0,
				"roughnessFactor":0.44999998807907104
			}
		},
		{
			"doubleSided":true,
			"name":"Lower Jaw Coral Tip",
			"pbrMetallicRoughness":{
				"baseColorFactor":[
					0.6899999976158142,
					0.2199999988079071,
					0.1599999964237213,
					1
				],
				"metallicFactor":0,
				"roughnessFactor":0.44999998807907104
			}
		},
		{
			"doubleSided":true,
			"name":"Glossy Black Eyes",
			"pbrMetallicRoughness":{
				"baseColorFactor":[
					0.004000000189989805,
					0.008999999612569809,
					0.012000000104308128,
					1
				],
				"metallicFactor":0,
				"roughnessFactor":0.1599999964237213
			}
		},
		{
			"doubleSided":true,
			"name":"Eye Catchlight",
			"pbrMetallicRoughness":{
				"baseColorFactor":[
					0.949999988079071,
					0.9900000095367432,
					1,
					1
				],
				"metallicFactor":0,
				"roughnessFactor":0.20000000298023224
			}
		},
		{
			"doubleSided":true,
			"name":"Silver Eye Ring",
			"pbrMetallicRoughness":{
				"baseColorFactor":[
					0.6800000071525574,
					0.7599999904632568,
					0.6100000143051147,
					1
				],
				"metallicFactor":0,
				"roughnessFactor":0.30000001192092896
			}
		},
		{
			"doubleSided":true,
			"name":"Fin Highlights",
			"pbrMetallicRoughness":{
				"baseColorFactor":[
					0.550000011920929,
					0.7300000190734863,
					0.6899999976158142,
					1
				],
				"metallicFactor":0,
				"roughnessFactor":0.44999998807907104
			}
		},
		{
			"doubleSided":true,
			"name":"Gill Shadow",
			"pbrMetallicRoughness":{
				"baseColorFactor":[
					0.054999999701976776,
					0.1599999964237213,
					0.18000000715255737,
					1
				],
				"metallicFactor":0,
				"roughnessFactor":0.44999998807907104
			}
		}
	],
	"meshes":[
		{
			"name":"\u7acb\u65b9\u4f53.001",
			"primitives":[
				{
					"attributes":{
						"POSITION":0,
						"NORMAL":1,
						"TEXCOORD_0":2,
						"JOINTS_0":3,
						"WEIGHTS_0":4
					},
					"indices":5,
					"material":0
				},
				{
					"attributes":{
						"POSITION":6,
						"NORMAL":7,
						"TEXCOORD_0":8,
						"JOINTS_0":9,
						"WEIGHTS_0":10
					},
					"indices":11,
					"material":1
				},
				{
					"attributes":{
						"POSITION":12,
						"NORMAL":13,
						"TEXCOORD_0":14,
						"JOINTS_0":15,
						"WEIGHTS_0":16
					},
					"indices":17,
					"material":2
				},
				{
					"attributes":{
						"POSITION":18,
						"NORMAL":19,
						"TEXCOORD_0":20,
						"JOINTS_0":21,
						"WEIGHTS_0":22
					},
					"indices":23,
					"material":3
				},
				{
					"attributes":{
						"POSITION":24,
						"NORMAL":25,
						"TEXCOORD_0":26,
						"JOINTS_0":27,
						"WEIGHTS_0":28
					},
					"indices":29,
					"material":4
				}
			]
		},
		{
			"name":"ICO\u7403.001",
			"primitives":[
				{
					"attributes":{
						"POSITION":31,
						"NORMAL":32,
						"TEXCOORD_0":33,
						"JOINTS_0":34,
						"WEIGHTS_0":35
					},
					"indices":36,
					"material":5
				}
			]
		},
		{
			"name":"ICO\u7403",
			"primitives":[
				{
					"attributes":{
						"POSITION":37,
						"NORMAL":38,
						"TEXCOORD_0":39,
						"JOINTS_0":40,
						"WEIGHTS_0":41
					},
					"indices":36,
					"material":5
				}
			]
		},
		{
			"name":"Sphere.001",
			"primitives":[
				{
					"attributes":{
						"POSITION":42,
						"NORMAL":43,
						"TEXCOORD_0":44,
						"JOINTS_0":45,
						"WEIGHTS_0":46
					},
					"indices":47,
					"material":6
				}
			]
		},
		{
			"name":"Sphere.003",
			"primitives":[
				{
					"attributes":{
						"POSITION":48,
						"NORMAL":49,
						"TEXCOORD_0":50,
						"JOINTS_0":51,
						"WEIGHTS_0":52
					},
					"indices":53,
					"material":6
				}
			]
		},
		{
			"name":"Sphere",
			"primitives":[
				{
					"attributes":{
						"POSITION":54,
						"NORMAL":55,
						"TEXCOORD_0":56,
						"JOINTS_0":57,
						"WEIGHTS_0":58
					},
					"indices":59,
					"material":7
				}
			]
		},
		{
			"name":"Sphere.002",
			"primitives":[
				{
					"attributes":{
						"POSITION":60,
						"NORMAL":61,
						"TEXCOORD_0":62,
						"JOINTS_0":63,
						"WEIGHTS_0":64
					},
					"indices":65,
					"material":7
				}
			]
		},
		{
			"name":"\u7acb\u65b9\u4f53.002",
			"primitives":[
				{
					"attributes":{
						"POSITION":66,
						"NORMAL":67,
						"TEXCOORD_0":68,
						"JOINTS_0":69,
						"WEIGHTS_0":70
					},
					"indices":71,
					"material":3
				},
				{
					"attributes":{
						"POSITION":72,
						"NORMAL":73,
						"TEXCOORD_0":74,
						"JOINTS_0":75,
						"WEIGHTS_0":76
					},
					"indices":77,
					"material":8
				}
			]
		},
		{
			"name":"\u7acb\u65b9\u4f53.003",
			"primitives":[
				{
					"attributes":{
						"POSITION":78,
						"NORMAL":79,
						"TEXCOORD_0":80,
						"JOINTS_0":81,
						"WEIGHTS_0":82
					},
					"indices":83,
					"material":3
				},
				{
					"attributes":{
						"POSITION":84,
						"NORMAL":85,
						"TEXCOORD_0":86,
						"JOINTS_0":87,
						"WEIGHTS_0":88
					},
					"indices":89,
					"material":8
				}
			]
		},
		{
			"name":"\u7acb\u65b9\u4f53.004",
			"primitives":[
				{
					"attributes":{
						"POSITION":90,
						"NORMAL":91,
						"TEXCOORD_0":92,
						"JOINTS_0":93,
						"WEIGHTS_0":94
					},
					"indices":95,
					"material":3
				},
				{
					"attributes":{
						"POSITION":96,
						"NORMAL":97,
						"TEXCOORD_0":98,
						"JOINTS_0":99,
						"WEIGHTS_0":100
					},
					"indices":101,
					"material":8
				}
			]
		},
		{
			"name":"\u7acb\u65b9\u4f53.005",
			"primitives":[
				{
					"attributes":{
						"POSITION":102,
						"NORMAL":103,
						"TEXCOORD_0":104,
						"JOINTS_0":105,
						"WEIGHTS_0":106
					},
					"indices":107,
					"material":3
				},
				{
					"attributes":{
						"POSITION":108,
						"NORMAL":109,
						"TEXCOORD_0":110,
						"JOINTS_0":111,
						"WEIGHTS_0":112
					},
					"indices":113,
					"material":8
				}
			]
		},
		{
			"name":"Sphere.004",
			"primitives":[
				{
					"attributes":{
						"POSITION":114,
						"NORMAL":115,
						"TEXCOORD_0":116,
						"JOINTS_0":117,
						"WEIGHTS_0":118
					},
					"indices":119,
					"material":9
				}
			]
		},
		{
			"name":"Sphere.005",
			"primitives":[
				{
					"attributes":{
						"POSITION":120,
						"NORMAL":121,
						"TEXCOORD_0":122,
						"JOINTS_0":123,
						"WEIGHTS_0":124
					},
					"indices":125,
					"material":9
				}
			]
		}
	],
	"skins":[
		{
			"inverseBindMatrices":30,
			"joints":[
				3,
				2,
				1,
				0
			],
			"name":"halfbeak_Rig"
		}
	],
	"accessors":[
		{
			"bufferView":0,
			"componentType":5126,
			"count":55,
			"max":[
				-0.11288437992334366,
				0.21207933127880096,
				0.16013360023498535
			],
			"min":[
				-4.139262676239014,
				0.0033583366312086582,
				-0.16013360023498535
			],
			"type":"VEC3"
		},
		{
			"bufferView":1,
			"componentType":5126,
			"count":55,
			"type":"VEC3"
		},
		{
			"bufferView":2,
			"componentType":5126,
			"count":55,
			"type":"VEC2"
		},
		{
			"bufferView":3,
			"componentType":5121,
			"count":55,
			"type":"VEC4"
		},
		{
			"bufferView":4,
			"componentType":5126,
			"count":55,
			"type":"VEC4"
		},
		{
			"bufferView":5,
			"componentType":5123,
			"count":90,
			"type":"SCALAR"
		},
		{
			"bufferView":6,
			"componentType":5126,
			"count":68,
			"max":[
				-0.11288437992334366,
				0.1508691906929016,
				0.16013360023498535
			],
			"min":[
				-4.139262676239014,
				-0.08802628517150879,
				-0.16013360023498535
			],
			"type":"VEC3"
		},
		{
			"bufferView":7,
			"componentType":5126,
			"count":68,
			"type":"VEC3"
		},
		{
			"bufferView":8,
			"componentType":5126,
			"count":68,
			"type":"VEC2"
		},
		{
			"bufferView":9,
			"componentType":5121,
			"count":68,
			"type":"VEC4"
		},
		{
			"bufferView":10,
			"componentType":5126,
			"count":68,
			"type":"VEC4"
		},
		{
			"bufferView":11,
			"componentType":5123,
			"count":180,
			"type":"SCALAR"
		},
		{
			"bufferView":12,
			"componentType":5126,
			"count":56,
			"max":[
				-0.11288437992334366,
				-0.0033583366312086582,
				0.16013360023498535
			],
			"min":[
				-4.139262676239014,
				-0.21207933127880096,
				-0.16013360023498535
			],
			"type":"VEC3"
		},
		{
			"bufferView":13,
			"componentType":5126,
			"count":56,
			"type":"VEC3"
		},
		{
			"bufferView":14,
			"componentType":5126,
			"count":56,
			"type":"VEC2"
		},
		{
			"bufferView":15,
			"componentType":5121,
			"count":56,
			"type":"VEC4"
		},
		{
			"bufferView":16,
			"componentType":5126,
			"count":56,
			"type":"VEC4"
		},
		{
			"bufferView":17,
			"componentType":5123,
			"count":90,
			"type":"SCALAR"
		},
		{
			"bufferView":18,
			"componentType":5126,
			"count":330,
			"max":[
				0.6253991723060608,
				0.35742950439453125,
				0.16013360023498535
			],
			"min":[
				-0.11288437992334366,
				-0.3599681556224823,
				-0.16013360023498535
			],
			"type":"VEC3"
		},
		{
			"bufferView":19,
			"componentType":5126,
			"count":330,
			"type":"VEC3"
		},
		{
			"bufferView":20,
			"componentType":5126,
			"count":330,
			"type":"VEC2"
		},
		{
			"bufferView":21,
			"componentType":5121,
			"count":330,
			"type":"VEC4"
		},
		{
			"bufferView":22,
			"componentType":5126,
			"count":330,
			"type":"VEC4"
		},
		{
			"bufferView":23,
			"componentType":5123,
			"count":504,
			"type":"SCALAR"
		},
		{
			"bufferView":24,
			"componentType":5126,
			"count":124,
			"max":[
				-3.426255702972412,
				0.04689327999949455,
				0.16013360023498535
			],
			"min":[
				-4.139262676239014,
				-0.04689327999949455,
				-0.16013360023498535
			],
			"type":"VEC3"
		},
		{
			"bufferView":25,
			"componentType":5126,
			"count":124,
			"type":"VEC3"
		},
		{
			"bufferView":26,
			"componentType":5126,
			"count":124,
			"type":"VEC2"
		},
		{
			"bufferView":27,
			"componentType":5121,
			"count":124,
			"type":"VEC4"
		},
		{
			"bufferView":28,
			"componentType":5126,
			"count":124,
			"type":"VEC4"
		},
		{
			"bufferView":29,
			"componentType":5123,
			"count":288,
			"type":"SCALAR"
		},
		{
			"bufferView":30,
			"componentType":5126,
			"count":4,
			"type":"MAT4"
		},
		{
			"bufferView":31,
			"componentType":5126,
			"count":240,
			"max":[
				-3.075505495071411,
				0.15676741302013397,
				-0.11592170596122742
			],
			"min":[
				-3.1566460132598877,
				0.07145117223262787,
				-0.20123794674873352
			],
			"type":"VEC3"
		},
		{
			"bufferView":32,
			"componentType":5126,
			"count":240,
			"type":"VEC3"
		},
		{
			"bufferView":33,
			"componentType":5126,
			"count":240,
			"type":"VEC2"
		},
		{
			"bufferView":34,
			"componentType":5121,
			"count":240,
			"type":"VEC4"
		},
		{
			"bufferView":35,
			"componentType":5126,
			"count":240,
			"type":"VEC4"
		},
		{
			"bufferView":36,
			"componentType":5123,
			"count":240,
			"type":"SCALAR"
		},
		{
			"bufferView":37,
			"componentType":5126,
			"count":240,
			"max":[
				-3.075505495071411,
				0.15676741302013397,
				0.1823696494102478
			],
			"min":[
				-3.1566460132598877,
				0.07145117223262787,
				0.0970534086227417
			],
			"type":"VEC3"
		},
		{
			"bufferView":38,
			"componentType":5126,
			"count":240,
			"type":"VEC3"
		},
		{
			"bufferView":39,
			"componentType":5126,
			"count":240,
			"type":"VEC2"
		},
		{
			"bufferView":40,
			"componentType":5121,
			"count":240,
			"type":"VEC4"
		},
		{
			"bufferView":41,
			"componentType":5126,
			"count":240,
			"type":"VEC4"
		},
		{
			"bufferView":42,
			"componentType":5126,
			"count":608,
			"max":[
				-3.1180777549743652,
				0.1381092369556427,
				0.1807115375995636
			],
			"min":[
				-3.138077735900879,
				0.11810923367738724,
				0.16871154308319092
			],
			"type":"VEC3"
		},
		{
			"bufferView":43,
			"componentType":5126,
			"count":608,
			"type":"VEC3"
		},
		{
			"bufferView":44,
			"componentType":5126,
			"count":608,
			"type":"VEC2"
		},
		{
			"bufferView":45,
			"componentType":5121,
			"count":608,
			"type":"VEC4"
		},
		{
			"bufferView":46,
			"componentType":5126,
			"count":608,
			"type":"VEC4"
		},
		{
			"bufferView":47,
			"componentType":5123,
			"count":672,
			"type":"SCALAR"
		},
		{
			"bufferView":48,
			"componentType":5126,
			"count":608,
			"max":[
				-3.1180777549743652,
				0.1381092369556427,
				-0.1875799298286438
			],
			"min":[
				-3.138077735900879,
				0.11810923367738724,
				-0.19957992434501648
			],
			"type":"VEC3"
		},
		{
			"bufferView":49,
			"componentType":5126,
			"count":608,
			"type":"VEC3"
		},
		{
			"bufferView":50,
			"componentType":5126,
			"count":608,
			"type":"VEC2"
		},
		{
			"bufferView":51,
			"componentType":5121,
			"count":608,
			"type":"VEC4"
		},
		{
			"bufferView":52,
			"componentType":5126,
			"count":608,
			"type":"VEC4"
		},
		{
			"bufferView":53,
			"componentType":5123,
			"count":672,
			"type":"SCALAR"
		},
		{
			"bufferView":54,
			"componentType":5126,
			"count":518,
			"max":[
				-3.068077564239502,
				0.16210922598838806,
				0.15671154856681824
			],
			"min":[
				-3.1640777587890625,
				0.06610923260450363,
				0.0947115421295166
			],
			"type":"VEC3"
		},
		{
			"bufferView":55,
			"componentType":5126,
			"count":518,
			"type":"VEC3"
		},
		{
			"bufferView":56,
			"componentType":5126,
			"count":518,
			"type":"VEC2"
		},
		{
			"bufferView":57,
			"componentType":5121,
			"count":518,
			"type":"VEC4"
		},
		{
			"bufferView":58,
			"componentType":5126,
			"count":518,
			"type":"VEC4"
		},
		{
			"bufferView":59,
			"componentType":5123,
			"count":672,
			"type":"SCALAR"
		},
		{
			"bufferView":60,
			"componentType":5126,
			"count":518,
			"max":[
				-3.068077564239502,
				0.16210922598838806,
				-0.11357992887496948
			],
			"min":[
				-3.1640777587890625,
				0.06610923260450363,
				-0.17557993531227112
			],
			"type":"VEC3"
		},
		{
			"bufferView":61,
			"componentType":5126,
			"count":518,
			"type":"VEC3"
		},
		{
			"bufferView":62,
			"componentType":5126,
			"count":518,
			"type":"VEC2"
		},
		{
			"bufferView":63,
			"componentType":5121,
			"count":518,
			"type":"VEC4"
		},
		{
			"bufferView":64,
			"componentType":5126,
			"count":518,
			"type":"VEC4"
		},
		{
			"bufferView":65,
			"componentType":5123,
			"count":672,
			"type":"SCALAR"
		},
		{
			"bufferView":66,
			"componentType":5126,
			"count":44,
			"max":[
				-0.9132055044174194,
				-0.0017381906509399414,
				0.2512251138687134
			],
			"min":[
				-1.1241505146026611,
				-0.26255911588668823,
				0.1314825713634491
			],
			"type":"VEC3"
		},
		{
			"bufferView":67,
			"componentType":5126,
			"count":44,
			"type":"VEC3"
		},
		{
			"bufferView":68,
			"componentType":5126,
			"count":44,
			"type":"VEC2"
		},
		{
			"bufferView":69,
			"componentType":5121,
			"count":44,
			"type":"VEC4"
		},
		{
			"bufferView":70,
			"componentType":5126,
			"count":44,
			"type":"VEC4"
		},
		{
			"bufferView":71,
			"componentType":5123,
			"count":78,
			"type":"SCALAR"
		},
		{
			"bufferView":72,
			"componentType":5126,
			"count":16,
			"max":[
				-0.9132055044174194,
				-0.0017381906509399414,
				0.2000233381986618
			],
			"min":[
				-1.1241505146026611,
				-0.13841775059700012,
				0.1314825713634491
			],
			"type":"VEC3"
		},
		{
			"bufferView":73,
			"componentType":5126,
			"count":16,
			"type":"VEC3"
		},
		{
			"bufferView":74,
			"componentType":5126,
			"count":16,
			"type":"VEC2"
		},
		{
			"bufferView":75,
			"componentType":5121,
			"count":16,
			"type":"VEC4"
		},
		{
			"bufferView":76,
			"componentType":5126,
			"count":16,
			"type":"VEC4"
		},
		{
			"bufferView":77,
			"componentType":5123,
			"count":30,
			"type":"SCALAR"
		},
		{
			"bufferView":78,
			"componentType":5126,
			"count":53,
			"max":[
				-0.8913992047309875,
				-0.07223707437515259,
				-0.11057519912719727
			],
			"min":[
				-1.1425178050994873,
				-0.2901051640510559,
				-0.21734049916267395
			],
			"type":"VEC3"
		},
		{
			"bufferView":79,
			"componentType":5126,
			"count":53,
			"type":"VEC3"
		},
		{
			"bufferView":80,
			"componentType":5126,
			"count":53,
			"type":"VEC2"
		},
		{
			"bufferView":81,
			"componentType":5121,
			"count":53,
			"type":"VEC4"
		},
		{
			"bufferView":82,
			"componentType":5126,
			"count":53,
			"type":"VEC4"
		},
		{
			"bufferView":83,
			"componentType":5123,
			"count":78,
			"type":"SCALAR"
		},
		{
			"bufferView":84,
			"componentType":5126,
			"count":14,
			"max":[
				-0.8913992047309875,
				-0.07223707437515259,
				-0.11057519912719727
			],
			"min":[
				-1.1425178050994873,
				-0.20894382894039154,
				-0.2096634805202484
			],
			"type":"VEC3"
		},
		{
			"bufferView":85,
			"componentType":5126,
			"count":14,
			"type":"VEC3"
		},
		{
			"bufferView":86,
			"componentType":5126,
			"count":14,
			"type":"VEC2"
		},
		{
			"bufferView":87,
			"componentType":5121,
			"count":14,
			"type":"VEC4"
		},
		{
			"bufferView":88,
			"componentType":5126,
			"count":14,
			"type":"VEC4"
		},
		{
			"bufferView":89,
			"componentType":5123,
			"count":30,
			"type":"SCALAR"
		},
		{
			"bufferView":90,
			"componentType":5126,
			"count":42,
			"max":[
				-2.786344051361084,
				0.10200029611587524,
				0.2512251138687134
			],
			"min":[
				-3.052273750305176,
				-0.09121629595756531,
				0.1314825415611267
			],
			"type":"VEC3"
		},
		{
			"bufferView":91,
			"componentType":5126,
			"count":42,
			"type":"VEC3"
		},
		{
			"bufferView":92,
			"componentType":5126,
			"count":42,
			"type":"VEC2"
		},
		{
			"bufferView":93,
			"componentType":5121,
			"count":42,
			"type":"VEC4"
		},
		{
			"bufferView":94,
			"componentType":5126,
			"count":42,
			"type":"VEC4"
		},
		{
			"bufferView":95,
			"componentType":5123,
			"count":84,
			"type":"SCALAR"
		},
		{
			"bufferView":96,
			"componentType":5126,
			"count":18,
			"max":[
				-2.794074296951294,
				0.10200029611587524,
				0.24433934688568115
			],
			"min":[
				-3.052273750305176,
				-0.038171276450157166,
				0.1314825415611267
			],
			"type":"VEC3"
		},
		{
			"bufferView":97,
			"componentType":5126,
			"count":18,
			"type":"VEC3"
		},
		{
			"bufferView":98,
			"componentType":5126,
			"count":18,
			"type":"VEC2"
		},
		{
			"bufferView":99,
			"componentType":5121,
			"count":18,
			"type":"VEC4"
		},
		{
			"bufferView":100,
			"componentType":5126,
			"count":18,
			"type":"VEC4"
		},
		{
			"bufferView":101,
			"componentType":5123,
			"count":24,
			"type":"SCALAR"
		},
		{
			"bufferView":102,
			"componentType":5126,
			"count":55,
			"max":[
				-2.8180792331695557,
				0.10965164005756378,
				-0.12473493814468384
			],
			"min":[
				-3.0901906490325928,
				-0.07968184351921082,
				-0.24960440397262573
			],
			"type":"VEC3"
		},
		{
			"bufferView":103,
			"componentType":5126,
			"count":55,
			"type":"VEC3"
		},
		{
			"bufferView":104,
			"componentType":5126,
			"count":55,
			"type":"VEC2"
		},
		{
			"bufferView":105,
			"componentType":5121,
			"count":55,
			"type":"VEC4"
		},
		{
			"bufferView":106,
			"componentType":5126,
			"count":55,
			"type":"VEC4"
		},
		{
			"bufferView":107,
			"componentType":5123,
			"count":84,
			"type":"SCALAR"
		},
		{
			"bufferView":108,
			"componentType":5126,
			"count":16,
			"max":[
				-2.835108518600464,
				0.10965164005756378,
				-0.13193866610527039
			],
			"min":[
				-3.0901906490325928,
				-0.033205796033144,
				-0.24960440397262573
			],
			"type":"VEC3"
		},
		{
			"bufferView":109,
			"componentType":5126,
			"count":16,
			"type":"VEC3"
		},
		{
			"bufferView":110,
			"componentType":5126,
			"count":16,
			"type":"VEC2"
		},
		{
			"bufferView":111,
			"componentType":5121,
			"count":16,
			"type":"VEC4"
		},
		{
			"bufferView":112,
			"componentType":5126,
			"count":16,
			"type":"VEC4"
		},
		{
			"bufferView":113,
			"componentType":5123,
			"count":24,
			"type":"SCALAR"
		},
		{
			"bufferView":114,
			"componentType":5126,
			"count":618,
			"max":[
				-2.947999954223633,
				0.125,
				0.17113348841667175
			],
			"min":[
				-2.9720001220703125,
				-0.004999998956918716,
				0.15513348579406738
			],
			"type":"VEC3"
		},
		{
			"bufferView":115,
			"componentType":5126,
			"count":618,
			"type":"VEC3"
		},
		{
			"bufferView":116,
			"componentType":5126,
			"count":618,
			"type":"VEC2"
		},
		{
			"bufferView":117,
			"componentType":5121,
			"count":618,
			"type":"VEC4"
		},
		{
			"bufferView":118,
			"componentType":5126,
			"count":618,
			"type":"VEC4"
		},
		{
			"bufferView":119,
			"componentType":5123,
			"count":672,
			"type":"SCALAR"
		},
		{
			"bufferView":120,
			"componentType":5126,
			"count":618,
			"max":[
				-2.947999954223633,
				0.125,
				-0.15513336658477783
			],
			"min":[
				-2.9720001220703125,
				-0.004999998956918716,
				-0.1711333692073822
			],
			"type":"VEC3"
		},
		{
			"bufferView":121,
			"componentType":5126,
			"count":618,
			"type":"VEC3"
		},
		{
			"bufferView":122,
			"componentType":5126,
			"count":618,
			"type":"VEC2"
		},
		{
			"bufferView":123,
			"componentType":5121,
			"count":618,
			"type":"VEC4"
		},
		{
			"bufferView":124,
			"componentType":5126,
			"count":618,
			"type":"VEC4"
		},
		{
			"bufferView":125,
			"componentType":5123,
			"count":672,
			"type":"SCALAR"
		},
		{
			"bufferView":126,
			"componentType":5126,
			"count":49,
			"max":[
				1.6333333333333333
			],
			"min":[
				0.03333333333333333
			],
			"type":"SCALAR"
		},
		{
			"bufferView":127,
			"componentType":5126,
			"count":49,
			"type":"VEC3"
		},
		{
			"bufferView":128,
			"componentType":5126,
			"count":2,
			"max":[
				1.6333333333333333
			],
			"min":[
				0.03333333333333333
			],
			"type":"SCALAR"
		},
		{
			"bufferView":129,
			"componentType":5126,
			"count":2,
			"type":"VEC4"
		},
		{
			"bufferView":130,
			"componentType":5126,
			"count":2,
			"type":"VEC3"
		},
		{
			"bufferView":131,
			"componentType":5126,
			"count":2,
			"type":"VEC3"
		},
		{
			"bufferView":132,
			"componentType":5126,
			"count":49,
			"type":"VEC4"
		},
		{
			"bufferView":133,
			"componentType":5126,
			"count":2,
			"type":"VEC3"
		},
		{
			"bufferView":134,
			"componentType":5126,
			"count":2,
			"type":"VEC3"
		},
		{
			"bufferView":135,
			"componentType":5126,
			"count":49,
			"type":"VEC4"
		},
		{
			"bufferView":136,
			"componentType":5126,
			"count":2,
			"type":"VEC3"
		},
		{
			"bufferView":137,
			"componentType":5126,
			"count":2,
			"type":"VEC3"
		},
		{
			"bufferView":138,
			"componentType":5126,
			"count":49,
			"type":"VEC4"
		},
		{
			"bufferView":139,
			"componentType":5126,
			"count":2,
			"type":"VEC3"
		}
	],
	"bufferViews":[
		{
			"buffer":0,
			"byteLength":660,
			"byteOffset":0,
			"target":34962
		},
		{
			"buffer":0,
			"byteLength":660,
			"byteOffset":660,
			"target":34962
		},
		{
			"buffer":0,
			"byteLength":440,
			"byteOffset":1320,
			"target":34962
		},
		{
			"buffer":0,
			"byteLength":220,
			"byteOffset":1760,
			"target":34962
		},
		{
			"buffer":0,
			"byteLength":880,
			"byteOffset":1980,
			"target":34962
		},
		{
			"buffer":0,
			"byteLength":180,
			"byteOffset":2860,
			"target":34963
		},
		{
			"buffer":0,
			"byteLength":816,
			"byteOffset":3040,
			"target":34962
		},
		{
			"buffer":0,
			"byteLength":816,
			"byteOffset":3856,
			"target":34962
		},
		{
			"buffer":0,
			"byteLength":544,
			"byteOffset":4672,
			"target":34962
		},
		{
			"buffer":0,
			"byteLength":272,
			"byteOffset":5216,
			"target":34962
		},
		{
			"buffer":0,
			"byteLength":1088,
			"byteOffset":5488,
			"target":34962
		},
		{
			"buffer":0,
			"byteLength":360,
			"byteOffset":6576,
			"target":34963
		},
		{
			"buffer":0,
			"byteLength":672,
			"byteOffset":6936,
			"target":34962
		},
		{
			"buffer":0,
			"byteLength":672,
			"byteOffset":7608,
			"target":34962
		},
		{
			"buffer":0,
			"byteLength":448,
			"byteOffset":8280,
			"target":34962
		},
		{
			"buffer":0,
			"byteLength":224,
			"byteOffset":8728,
			"target":34962
		},
		{
			"buffer":0,
			"byteLength":896,
			"byteOffset":8952,
			"target":34962
		},
		{
			"buffer":0,
			"byteLength":180,
			"byteOffset":9848,
			"target":34963
		},
		{
			"buffer":0,
			"byteLength":3960,
			"byteOffset":10028,
			"target":34962
		},
		{
			"buffer":0,
			"byteLength":3960,
			"byteOffset":13988,
			"target":34962
		},
		{
			"buffer":0,
			"byteLength":2640,
			"byteOffset":17948,
			"target":34962
		},
		{
			"buffer":0,
			"byteLength":1320,
			"byteOffset":20588,
			"target":34962
		},
		{
			"buffer":0,
			"byteLength":5280,
			"byteOffset":21908,
			"target":34962
		},
		{
			"buffer":0,
			"byteLength":1008,
			"byteOffset":27188,
			"target":34963
		},
		{
			"buffer":0,
			"byteLength":1488,
			"byteOffset":28196,
			"target":34962
		},
		{
			"buffer":0,
			"byteLength":1488,
			"byteOffset":29684,
			"target":34962
		},
		{
			"buffer":0,
			"byteLength":992,
			"byteOffset":31172,
			"target":34962
		},
		{
			"buffer":0,
			"byteLength":496,
			"byteOffset":32164,
			"target":34962
		},
		{
			"buffer":0,
			"byteLength":1984,
			"byteOffset":32660,
			"target":34962
		},
		{
			"buffer":0,
			"byteLength":576,
			"byteOffset":34644,
			"target":34963
		},
		{
			"buffer":0,
			"byteLength":256,
			"byteOffset":35220
		},
		{
			"buffer":0,
			"byteLength":2880,
			"byteOffset":35476,
			"target":34962
		},
		{
			"buffer":0,
			"byteLength":2880,
			"byteOffset":38356,
			"target":34962
		},
		{
			"buffer":0,
			"byteLength":1920,
			"byteOffset":41236,
			"target":34962
		},
		{
			"buffer":0,
			"byteLength":960,
			"byteOffset":43156,
			"target":34962
		},
		{
			"buffer":0,
			"byteLength":3840,
			"byteOffset":44116,
			"target":34962
		},
		{
			"buffer":0,
			"byteLength":480,
			"byteOffset":47956,
			"target":34963
		},
		{
			"buffer":0,
			"byteLength":2880,
			"byteOffset":48436,
			"target":34962
		},
		{
			"buffer":0,
			"byteLength":2880,
			"byteOffset":51316,
			"target":34962
		},
		{
			"buffer":0,
			"byteLength":1920,
			"byteOffset":54196,
			"target":34962
		},
		{
			"buffer":0,
			"byteLength":960,
			"byteOffset":56116,
			"target":34962
		},
		{
			"buffer":0,
			"byteLength":3840,
			"byteOffset":57076,
			"target":34962
		},
		{
			"buffer":0,
			"byteLength":7296,
			"byteOffset":60916,
			"target":34962
		},
		{
			"buffer":0,
			"byteLength":7296,
			"byteOffset":68212,
			"target":34962
		},
		{
			"buffer":0,
			"byteLength":4864,
			"byteOffset":75508,
			"target":34962
		},
		{
			"buffer":0,
			"byteLength":2432,
			"byteOffset":80372,
			"target":34962
		},
		{
			"buffer":0,
			"byteLength":9728,
			"byteOffset":82804,
			"target":34962
		},
		{
			"buffer":0,
			"byteLength":1344,
			"byteOffset":92532,
			"target":34963
		},
		{
			"buffer":0,
			"byteLength":7296,
			"byteOffset":93876,
			"target":34962
		},
		{
			"buffer":0,
			"byteLength":7296,
			"byteOffset":101172,
			"target":34962
		},
		{
			"buffer":0,
			"byteLength":4864,
			"byteOffset":108468,
			"target":34962
		},
		{
			"buffer":0,
			"byteLength":2432,
			"byteOffset":113332,
			"target":34962
		},
		{
			"buffer":0,
			"byteLength":9728,
			"byteOffset":115764,
			"target":34962
		},
		{
			"buffer":0,
			"byteLength":1344,
			"byteOffset":125492,
			"target":34963
		},
		{
			"buffer":0,
			"byteLength":6216,
			"byteOffset":126836,
			"target":34962
		},
		{
			"buffer":0,
			"byteLength":6216,
			"byteOffset":133052,
			"target":34962
		},
		{
			"buffer":0,
			"byteLength":4144,
			"byteOffset":139268,
			"target":34962
		},
		{
			"buffer":0,
			"byteLength":2072,
			"byteOffset":143412,
			"target":34962
		},
		{
			"buffer":0,
			"byteLength":8288,
			"byteOffset":145484,
			"target":34962
		},
		{
			"buffer":0,
			"byteLength":1344,
			"byteOffset":153772,
			"target":34963
		},
		{
			"buffer":0,
			"byteLength":6216,
			"byteOffset":155116,
			"target":34962
		},
		{
			"buffer":0,
			"byteLength":6216,
			"byteOffset":161332,
			"target":34962
		},
		{
			"buffer":0,
			"byteLength":4144,
			"byteOffset":167548,
			"target":34962
		},
		{
			"buffer":0,
			"byteLength":2072,
			"byteOffset":171692,
			"target":34962
		},
		{
			"buffer":0,
			"byteLength":8288,
			"byteOffset":173764,
			"target":34962
		},
		{
			"buffer":0,
			"byteLength":1344,
			"byteOffset":182052,
			"target":34963
		},
		{
			"buffer":0,
			"byteLength":528,
			"byteOffset":183396,
			"target":34962
		},
		{
			"buffer":0,
			"byteLength":528,
			"byteOffset":183924,
			"target":34962
		},
		{
			"buffer":0,
			"byteLength":352,
			"byteOffset":184452,
			"target":34962
		},
		{
			"buffer":0,
			"byteLength":176,
			"byteOffset":184804,
			"target":34962
		},
		{
			"buffer":0,
			"byteLength":704,
			"byteOffset":184980,
			"target":34962
		},
		{
			"buffer":0,
			"byteLength":156,
			"byteOffset":185684,
			"target":34963
		},
		{
			"buffer":0,
			"byteLength":192,
			"byteOffset":185840,
			"target":34962
		},
		{
			"buffer":0,
			"byteLength":192,
			"byteOffset":186032,
			"target":34962
		},
		{
			"buffer":0,
			"byteLength":128,
			"byteOffset":186224,
			"target":34962
		},
		{
			"buffer":0,
			"byteLength":64,
			"byteOffset":186352,
			"target":34962
		},
		{
			"buffer":0,
			"byteLength":256,
			"byteOffset":186416,
			"target":34962
		},
		{
			"buffer":0,
			"byteLength":60,
			"byteOffset":186672,
			"target":34963
		},
		{
			"buffer":0,
			"byteLength":636,
			"byteOffset":186732,
			"target":34962
		},
		{
			"buffer":0,
			"byteLength":636,
			"byteOffset":187368,
			"target":34962
		},
		{
			"buffer":0,
			"byteLength":424,
			"byteOffset":188004,
			"target":34962
		},
		{
			"buffer":0,
			"byteLength":212,
			"byteOffset":188428,
			"target":34962
		},
		{
			"buffer":0,
			"byteLength":848,
			"byteOffset":188640,
			"target":34962
		},
		{
			"buffer":0,
			"byteLength":156,
			"byteOffset":189488,
			"target":34963
		},
		{
			"buffer":0,
			"byteLength":168,
			"byteOffset":189644,
			"target":34962
		},
		{
			"buffer":0,
			"byteLength":168,
			"byteOffset":189812,
			"target":34962
		},
		{
			"buffer":0,
			"byteLength":112,
			"byteOffset":189980,
			"target":34962
		},
		{
			"buffer":0,
			"byteLength":56,
			"byteOffset":190092,
			"target":34962
		},
		{
			"buffer":0,
			"byteLength":224,
			"byteOffset":190148,
			"target":34962
		},
		{
			"buffer":0,
			"byteLength":60,
			"byteOffset":190372,
			"target":34963
		},
		{
			"buffer":0,
			"byteLength":504,
			"byteOffset":190432,
			"target":34962
		},
		{
			"buffer":0,
			"byteLength":504,
			"byteOffset":190936,
			"target":34962
		},
		{
			"buffer":0,
			"byteLength":336,
			"byteOffset":191440,
			"target":34962
		},
		{
			"buffer":0,
			"byteLength":168,
			"byteOffset":191776,
			"target":34962
		},
		{
			"buffer":0,
			"byteLength":672,
			"byteOffset":191944,
			"target":34962
		},
		{
			"buffer":0,
			"byteLength":168,
			"byteOffset":192616,
			"target":34963
		},
		{
			"buffer":0,
			"byteLength":216,
			"byteOffset":192784,
			"target":34962
		},
		{
			"buffer":0,
			"byteLength":216,
			"byteOffset":193000,
			"target":34962
		},
		{
			"buffer":0,
			"byteLength":144,
			"byteOffset":193216,
			"target":34962
		},
		{
			"buffer":0,
			"byteLength":72,
			"byteOffset":193360,
			"target":34962
		},
		{
			"buffer":0,
			"byteLength":288,
			"byteOffset":193432,
			"target":34962
		},
		{
			"buffer":0,
			"byteLength":48,
			"byteOffset":193720,
			"target":34963
		},
		{
			"buffer":0,
			"byteLength":660,
			"byteOffset":193768,
			"target":34962
		},
		{
			"buffer":0,
			"byteLength":660,
			"byteOffset":194428,
			"target":34962
		},
		{
			"buffer":0,
			"byteLength":440,
			"byteOffset":195088,
			"target":34962
		},
		{
			"buffer":0,
			"byteLength":220,
			"byteOffset":195528,
			"target":34962
		},
		{
			"buffer":0,
			"byteLength":880,
			"byteOffset":195748,
			"target":34962
		},
		{
			"buffer":0,
			"byteLength":168,
			"byteOffset":196628,
			"target":34963
		},
		{
			"buffer":0,
			"byteLength":192,
			"byteOffset":196796,
			"target":34962
		},
		{
			"buffer":0,
			"byteLength":192,
			"byteOffset":196988,
			"target":34962
		},
		{
			"buffer":0,
			"byteLength":128,
			"byteOffset":197180,
			"target":34962
		},
		{
			"buffer":0,
			"byteLength":64,
			"byteOffset":197308,
			"target":34962
		},
		{
			"buffer":0,
			"byteLength":256,
			"byteOffset":197372,
			"target":34962
		},
		{
			"buffer":0,
			"byteLength":48,
			"byteOffset":197628,
			"target":34963
		},
		{
			"buffer":0,
			"byteLength":7416,
			"byteOffset":197676,
			"target":34962
		},
		{
			"buffer":0,
			"byteLength":7416,
			"byteOffset":205092,
			"target":34962
		},
		{
			"buffer":0,
			"byteLength":4944,
			"byteOffset":212508,
			"target":34962
		},
		{
			"buffer":0,
			"byteLength":2472,
			"byteOffset":217452,
			"target":34962
		},
		{
			"buffer":0,
			"byteLength":9888,
			"byteOffset":219924,
			"target":34962
		},
		{
			"buffer":0,
			"byteLength":1344,
			"byteOffset":229812,
			"target":34963
		},
		{
			"buffer":0,
			"byteLength":7416,
			"byteOffset":231156,
			"target":34962
		},
		{
			"buffer":0,
			"byteLength":7416,
			"byteOffset":238572,
			"target":34962
		},
		{
			"buffer":0,
			"byteLength":4944,
			"byteOffset":245988,
			"target":34962
		},
		{
			"buffer":0,
			"byteLength":2472,
			"byteOffset":250932,
			"target":34962
		},
		{
			"buffer":0,
			"byteLength":9888,
			"byteOffset":253404,
			"target":34962
		},
		{
			"buffer":0,
			"byteLength":1344,
			"byteOffset":263292,
			"target":34963
		},
		{
			"buffer":0,
			"byteLength":196,
			"byteOffset":264636
		},
		{
			"buffer":0,
			"byteLength":588,
			"byteOffset":264832
		},
		{
			"buffer":0,
			"byteLength":8,
			"byteOffset":265420
		},
		{
			"buffer":0,
			"byteLength":32,
			"byteOffset":265428
		},
		{
			"buffer":0,
			"byteLength":24,
			"byteOffset":265460
		},
		{
			"buffer":0,
			"byteLength":24,
			"byteOffset":265484
		},
		{
			"buffer":0,
			"byteLength":784,
			"byteOffset":265508
		},
		{
			"buffer":0,
			"byteLength":24,
			"byteOffset":266292
		},
		{
			"buffer":0,
			"byteLength":24,
			"byteOffset":266316
		},
		{
			"buffer":0,
			"byteLength":784,
			"byteOffset":266340
		},
		{
			"buffer":0,
			"byteLength":24,
			"byteOffset":267124
		},
		{
			"buffer":0,
			"byteLength":24,
			"byteOffset":267148
		},
		{
			"buffer":0,
			"byteLength":784,
			"byteOffset":267172
		},
		{
			"buffer":0,
			"byteLength":24,
			"byteOffset":267956
		}
	],
	"buffers":[
		{
			"byteLength":267980,
			"uri":"halfbeak.bin"
		}
	]
}
