{
	"asset":{
		"generator":"Khronos glTF Blender I/O v4.4.56",
		"version":"2.0"
	},
	"scene":0,
	"scenes":[
		{
			"name":"Scene",
			"nodes":[
				0,
				1,
				2,
				3,
				4,
				5,
				6,
				7,
				8,
				9,
				10,
				11,
				12,
				13,
				14,
				15,
				16,
				17,
				18,
				19,
				20,
				21,
				22,
				23,
				24,
				25,
				26,
				27,
				28,
				29,
				30,
				31,
				32,
				33,
				34,
				35,
				36,
				37,
				38,
				39,
				40,
				41,
				42,
				43,
				44,
				45,
				46,
				47,
				48,
				49,
				50,
				51,
				52,
				53,
				54,
				55,
				56,
				57,
				58,
				59,
				60,
				61,
				62,
				63,
				64
			]
		}
	],
	"nodes":[
		{
			"mesh":0,
			"name":"\u7acb\u65b9\u4f53",
			"rotation":[
				0,
				0,
				-0.33158326148986816,
				0.9434259533882141
			],
			"translation":[
				-0.023555167019367218,
				-1.0061920881271362,
				0
			]
		},
		{
			"mesh":1,
			"name":"\u5186\u67f1.002",
			"rotation":[
				0,
				0,
				-0.33158326148986816,
				0.9434259533882141
			],
			"translation":[
				-0.023555167019367218,
				-1.0061920881271362,
				0
			]
		},
		{
			"mesh":2,
			"name":"\u5186\u67f1.004",
			"rotation":[
				0,
				0,
				-0.33158326148986816,
				0.9434259533882141
			],
			"translation":[
				-0.023555167019367218,
				-1.0061920881271362,
				0
			]
		},
		{
			"mesh":3,
			"name":"beam_cargeBall1",
			"rotation":[
				0,
				0,
				-0.33158326148986816,
				0.9434259533882141
			],
			"translation":[
				-0.023555167019367218,
				-1.0061920881271362,
				0
			]
		},
		{
			"mesh":4,
			"name":"beam_canon1",
			"rotation":[
				0,
				0,
				-0.33158326148986816,
				0.9434259533882141
			],
			"translation":[
				-0.023555167019367218,
				-1.0061920881271362,
				0
			]
		},
		{
			"mesh":5,
			"name":"beam_canon2",
			"rotation":[
				0,
				0,
				-0.33158326148986816,
				0.9434259533882141
			],
			"translation":[
				-0.023555167019367218,
				-1.0061920881271362,
				0
			]
		},
		{
			"mesh":6,
			"name":"beam_canon4",
			"rotation":[
				0,
				0,
				-0.33158326148986816,
				0.9434259533882141
			],
			"translation":[
				-0.023555167019367218,
				-1.0061920881271362,
				0
			]
		},
		{
			"mesh":7,
			"name":"beam_canon3",
			"rotation":[
				0,
				0,
				-0.33158326148986816,
				0.9434259533882141
			],
			"translation":[
				-0.023555167019367218,
				-1.0061920881271362,
				0
			]
		},
		{
			"mesh":8,
			"name":"beam_chaegeBall2",
			"rotation":[
				0,
				0,
				-0.33158326148986816,
				0.9434259533882141
			],
			"translation":[
				-0.023555167019367218,
				-1.0061920881271362,
				0
			]
		},
		{
			"mesh":9,
			"name":"\u5186\u67f1.005",
			"rotation":[
				0,
				0,
				-0.33158326148986816,
				0.9434259533882141
			],
			"translation":[
				-0.023555167019367218,
				-1.0061920881271362,
				0
			]
		},
		{
			"mesh":10,
			"name":"\u5186\u67f1.006",
			"rotation":[
				0,
				0,
				-0.33158326148986816,
				0.9434259533882141
			],
			"translation":[
				-0.023555167019367218,
				-1.0061920881271362,
				0
			]
		},
		{
			"mesh":11,
			"name":"MainShip_Face_0039.001",
			"rotation":[
				0,
				0,
				-0.33158326148986816,
				0.9434259533882141
			],
			"translation":[
				-0.023555167019367218,
				-1.0061920881271362,
				0
			]
		},
		{
			"mesh":12,
			"name":"\u7acb\u65b9\u4f53.004",
			"rotation":[
				-0.7085168957710266,
				-0.0871826782822609,
				-0.40753284096717834,
				0.5694909691810608
			],
			"translation":[
				-0.4657236337661743,
				0.8761809468269348,
				2.2247021198272705
			]
		},
		{
			"mesh":13,
			"name":"\u7acb\u65b9\u4f53.002",
			"rotation":[
				0,
				0,
				-0.33158326148986816,
				0.9434259533882141
			],
			"translation":[
				-0.023555167019367218,
				-1.0061920881271362,
				0
			]
		},
		{
			"mesh":14,
			"name":"\u7acb\u65b9\u4f53.003",
			"rotation":[
				0,
				0,
				-0.33158326148986816,
				0.9434259533882141
			],
			"translation":[
				-0.023555167019367218,
				-1.0061920881271362,
				0
			]
		},
		{
			"mesh":15,
			"name":"\u7acb\u65b9\u4f53.005",
			"rotation":[
				0,
				0,
				0.25124937295913696,
				0.9679223895072937
			],
			"scale":[
				2.2784535884857178,
				1,
				0.06205788999795914
			],
			"translation":[
				4.584691047668457,
				0.45240920782089233,
				1.4025368690490723
			]
		},
		{
			"mesh":16,
			"name":"\u7acb\u65b9\u4f53.006",
			"rotation":[
				0,
				0,
				0.25124937295913696,
				0.9679223895072937
			],
			"scale":[
				2.2784535884857178,
				1,
				0.06205788999795914
			],
			"translation":[
				4.584691047668457,
				0.45240920782089233,
				-1.364556074142456
			]
		},
		{
			"mesh":17,
			"name":"\u7acb\u65b9\u4f53.007",
			"rotation":[
				-0.17766013741493225,
				0.6844245195388794,
				0.17766013741493225,
				0.6844244599342346
			],
			"scale":[
				1.4597833156585693,
				1,
				0.06204035133123398
			],
			"translation":[
				6.510092258453369,
				1.5242018699645996,
				-0.004288792610168457
			]
		},
		{
			"mesh":18,
			"name":"\u7acb\u65b9\u4f53.008",
			"rotation":[
				0.6844245195388794,
				0.17766013741493225,
				0.17766015231609344,
				0.6844244599342346
			],
			"scale":[
				2.2784535884857178,
				1.3832224607467651,
				0.06205788999795914
			],
			"translation":[
				4.147545337677002,
				1.237710952758789,
				-0.00531160831451416
			]
		},
		{
			"mesh":19,
			"name":"\u7acb\u65b9\u4f53.009",
			"rotation":[
				0.6844245195388794,
				0.17766013741493225,
				0.17766015231609344,
				0.6844244599342346
			],
			"scale":[
				2.2784535884857178,
				1.3832224607467651,
				0.06205788999795914
			],
			"translation":[
				5.046431541442871,
				-0.3770756721496582,
				-0.00531160831451416
			]
		},
		{
			"mesh":20,
			"name":"MainShip_Face_0003",
			"rotation":[
				0,
				0,
				-0.33158326148986816,
				0.9434259533882141
			],
			"translation":[
				-0.023555167019367218,
				-1.0061920881271362,
				0
			]
		},
		{
			"mesh":21,
			"name":"MainShip_Face_0004",
			"rotation":[
				0,
				0,
				-0.33158326148986816,
				0.9434259533882141
			],
			"translation":[
				-0.023555167019367218,
				-1.0061920881271362,
				0
			]
		},
		{
			"mesh":22,
			"name":"MainShip_Face_0007",
			"rotation":[
				0,
				0,
				-0.33158326148986816,
				0.9434259533882141
			],
			"translation":[
				-0.023555167019367218,
				-1.0061920881271362,
				0
			]
		},
		{
			"mesh":23,
			"name":"MainShip_Face_0008",
			"rotation":[
				0,
				0,
				-0.33158326148986816,
				0.9434259533882141
			],
			"translation":[
				-0.023555167019367218,
				-1.0061920881271362,
				0
			]
		},
		{
			"mesh":24,
			"name":"MainShip_Face_0009",
			"rotation":[
				0,
				0,
				-0.33158326148986816,
				0.9434259533882141
			],
			"translation":[
				-0.023555167019367218,
				-1.0061920881271362,
				0
			]
		},
		{
			"mesh":25,
			"name":"MainShip_Face_0010",
			"rotation":[
				0,
				0,
				-0.33158326148986816,
				0.9434259533882141
			],
			"translation":[
				-0.023555167019367218,
				-1.0061920881271362,
				0
			]
		},
		{
			"mesh":26,
			"name":"MainShip_Face_0012",
			"rotation":[
				0,
				0,
				-0.33158326148986816,
				0.9434259533882141
			],
			"translation":[
				-0.023555167019367218,
				-1.0061920881271362,
				0
			]
		},
		{
			"mesh":27,
			"name":"MainShip_Face_0016",
			"rotation":[
				0,
				0,
				-0.33158326148986816,
				0.9434259533882141
			],
			"translation":[
				-0.023555167019367218,
				-1.0061920881271362,
				0
			]
		},
		{
			"mesh":28,
			"name":"MainShip_Face_0017",
			"rotation":[
				0,
				0,
				-0.33158326148986816,
				0.9434259533882141
			],
			"translation":[
				-0.023555167019367218,
				-1.0061920881271362,
				0
			]
		},
		{
			"mesh":29,
			"name":"MainShip_Face_0019",
			"rotation":[
				0,
				0,
				-0.33158326148986816,
				0.9434259533882141
			],
			"translation":[
				-0.023555167019367218,
				-1.0061920881271362,
				0
			]
		},
		{
			"mesh":30,
			"name":"MainShip_Face_0021",
			"rotation":[
				0,
				0,
				-0.33158326148986816,
				0.9434259533882141
			],
			"translation":[
				-0.023555167019367218,
				-1.0061920881271362,
				0
			]
		},
		{
			"mesh":31,
			"name":"MainShip_Face_0022",
			"rotation":[
				0,
				0,
				-0.33158326148986816,
				0.9434259533882141
			],
			"translation":[
				-0.023555167019367218,
				-1.0061920881271362,
				0
			]
		},
		{
			"mesh":32,
			"name":"MainShip_Face_0023",
			"rotation":[
				0,
				0,
				-0.33158326148986816,
				0.9434259533882141
			],
			"translation":[
				-0.023555167019367218,
				-1.0061920881271362,
				0
			]
		},
		{
			"mesh":33,
			"name":"MainShip_Face_0026",
			"rotation":[
				0,
				0,
				-0.33158326148986816,
				0.9434259533882141
			],
			"translation":[
				-0.023555167019367218,
				-1.0061920881271362,
				0
			]
		},
		{
			"mesh":34,
			"name":"MainShip_Face_0027",
			"rotation":[
				0,
				0,
				-0.33158326148986816,
				0.9434259533882141
			],
			"translation":[
				-0.023555167019367218,
				-1.0061920881271362,
				0
			]
		},
		{
			"mesh":35,
			"name":"MainShip_Face_0028",
			"rotation":[
				0,
				0,
				-0.33158326148986816,
				0.9434259533882141
			],
			"translation":[
				-0.023555167019367218,
				-1.0061920881271362,
				0
			]
		},
		{
			"mesh":36,
			"name":"MainShip_Face_0031",
			"rotation":[
				0,
				0,
				-0.33158326148986816,
				0.9434259533882141
			],
			"translation":[
				-0.023555167019367218,
				-1.0061920881271362,
				0
			]
		},
		{
			"mesh":37,
			"name":"MainShip_Face_0032",
			"rotation":[
				0,
				0,
				-0.33158326148986816,
				0.9434259533882141
			],
			"translation":[
				-0.023555167019367218,
				-1.0061920881271362,
				0
			]
		},
		{
			"mesh":38,
			"name":"MainShip_Face_0033",
			"rotation":[
				0,
				0,
				-0.33158326148986816,
				0.9434259533882141
			],
			"translation":[
				-0.023555167019367218,
				-1.0061920881271362,
				0
			]
		},
		{
			"mesh":39,
			"name":"MainShip_Face_0039",
			"rotation":[
				0,
				0,
				-0.33158326148986816,
				0.9434259533882141
			],
			"translation":[
				-0.023555167019367218,
				-1.0061920881271362,
				0
			]
		},
		{
			"mesh":40,
			"name":"MainShip_Face_0045",
			"rotation":[
				0,
				0,
				-0.33158326148986816,
				0.9434259533882141
			],
			"translation":[
				-0.023555167019367218,
				-1.0061920881271362,
				0
			]
		},
		{
			"mesh":41,
			"name":"MainShip_Face_0046",
			"rotation":[
				0,
				0,
				-0.33158326148986816,
				0.9434259533882141
			],
			"translation":[
				-0.023555167019367218,
				-1.0061920881271362,
				0
			]
		},
		{
			"mesh":42,
			"name":"MainShip_Face_0047",
			"rotation":[
				0,
				0,
				-0.33158326148986816,
				0.9434259533882141
			],
			"translation":[
				-0.023555167019367218,
				-1.0061920881271362,
				0
			]
		},
		{
			"mesh":43,
			"name":"MainShip_Face_0049",
			"rotation":[
				0,
				0,
				-0.33158326148986816,
				0.9434259533882141
			],
			"translation":[
				-0.023555167019367218,
				-1.0061920881271362,
				0
			]
		},
		{
			"mesh":44,
			"name":"MainShip_Face_0052",
			"rotation":[
				0,
				0,
				-0.33158326148986816,
				0.9434259533882141
			],
			"translation":[
				-0.023555167019367218,
				-1.0061920881271362,
				0
			]
		},
		{
			"mesh":45,
			"name":"MainShip_Face_0053",
			"rotation":[
				0,
				0,
				-0.33158326148986816,
				0.9434259533882141
			],
			"translation":[
				-0.023555167019367218,
				-1.0061920881271362,
				0
			]
		},
		{
			"mesh":46,
			"name":"MainShip_Face_0055",
			"rotation":[
				0,
				0,
				-0.33158326148986816,
				0.9434259533882141
			],
			"translation":[
				-0.023555167019367218,
				-1.0061920881271362,
				0
			]
		},
		{
			"mesh":47,
			"name":"MainShip_Face_0056",
			"rotation":[
				0,
				0,
				-0.33158326148986816,
				0.9434259533882141
			],
			"translation":[
				-0.023555167019367218,
				-1.0061920881271362,
				0
			]
		},
		{
			"mesh":48,
			"name":"MainShip_Face_0058",
			"rotation":[
				0,
				0,
				-0.33158326148986816,
				0.9434259533882141
			],
			"translation":[
				-0.023555167019367218,
				-1.0061920881271362,
				0
			]
		},
		{
			"mesh":49,
			"name":"MainShip_Face_0060",
			"rotation":[
				0,
				0,
				-0.33158326148986816,
				0.9434259533882141
			],
			"translation":[
				-0.023555167019367218,
				-1.0061920881271362,
				0
			]
		},
		{
			"mesh":50,
			"name":"MainShip_Face_0061",
			"rotation":[
				0,
				0,
				-0.33158326148986816,
				0.9434259533882141
			],
			"translation":[
				-0.023555167019367218,
				-1.0061920881271362,
				0
			]
		},
		{
			"mesh":51,
			"name":"MainShip_Face_0064",
			"rotation":[
				0,
				0,
				-0.33158326148986816,
				0.9434259533882141
			],
			"translation":[
				-0.023555167019367218,
				-1.0061920881271362,
				0
			]
		},
		{
			"mesh":52,
			"name":"MainShip_Face_0069",
			"rotation":[
				0,
				0,
				-0.33158326148986816,
				0.9434259533882141
			],
			"translation":[
				-0.023555167019367218,
				-1.0061920881271362,
				0
			]
		},
		{
			"mesh":53,
			"name":"MainShip_Face_0070",
			"rotation":[
				0,
				0,
				-0.33158326148986816,
				0.9434259533882141
			],
			"translation":[
				-0.023555167019367218,
				-1.0061920881271362,
				0
			]
		},
		{
			"mesh":54,
			"name":"MainShip_Face_0071",
			"rotation":[
				0,
				0,
				-0.33158326148986816,
				0.9434259533882141
			],
			"translation":[
				-0.023555167019367218,
				-1.0061920881271362,
				0
			]
		},
		{
			"mesh":55,
			"name":"MainShip_Face_0072",
			"rotation":[
				0,
				0,
				-0.33158326148986816,
				0.9434259533882141
			],
			"translation":[
				-0.023555167019367218,
				-1.0061920881271362,
				0
			]
		},
		{
			"mesh":56,
			"name":"MainShip_Face_0073",
			"rotation":[
				0,
				0,
				-0.33158326148986816,
				0.9434259533882141
			],
			"translation":[
				-0.023555167019367218,
				-1.0061920881271362,
				0
			]
		},
		{
			"mesh":57,
			"name":"MainShip_Face_0077",
			"rotation":[
				0,
				0,
				-0.33158326148986816,
				0.9434259533882141
			],
			"translation":[
				-0.023555167019367218,
				-1.0061920881271362,
				0
			]
		},
		{
			"mesh":58,
			"name":"MainShip_Face_0078",
			"rotation":[
				0,
				0,
				-0.33158326148986816,
				0.9434259533882141
			],
			"translation":[
				-0.023555167019367218,
				-1.0061920881271362,
				0
			]
		},
		{
			"mesh":59,
			"name":"\u7acb\u65b9\u4f53_Face_0001",
			"rotation":[
				0,
				0,
				-0.33158326148986816,
				0.9434259533882141
			],
			"translation":[
				-0.023555167019367218,
				-1.0061920881271362,
				0
			]
		},
		{
			"mesh":60,
			"name":"\u7acb\u65b9\u4f53_Face_0002",
			"rotation":[
				0,
				0,
				-0.33158326148986816,
				0.9434259533882141
			],
			"translation":[
				-0.023555167019367218,
				-1.0061920881271362,
				0
			]
		},
		{
			"mesh":61,
			"name":"\u7acb\u65b9\u4f53_Face_0003",
			"rotation":[
				0,
				0,
				-0.33158326148986816,
				0.9434259533882141
			],
			"translation":[
				-0.023555167019367218,
				-1.0061920881271362,
				0
			]
		},
		{
			"mesh":62,
			"name":"\u7acb\u65b9\u4f53_Face_0004",
			"rotation":[
				0,
				0,
				-0.33158326148986816,
				0.9434259533882141
			],
			"translation":[
				-0.023555167019367218,
				-1.0061920881271362,
				0
			]
		},
		{
			"mesh":63,
			"name":"\u7acb\u65b9\u4f53_Face_0005",
			"rotation":[
				0,
				0,
				-0.33158326148986816,
				0.9434259533882141
			],
			"translation":[
				-0.023555167019367218,
				-1.0061920881271362,
				0
			]
		},
		{
			"mesh":64,
			"name":"\u7acb\u65b9\u4f53_Face_0006",
			"rotation":[
				0,
				0,
				-0.33158326148986816,
				0.9434259533882141
			],
			"translation":[
				-0.023555167019367218,
				-1.0061920881271362,
				0
			]
		}
	],
	"materials":[
		{
			"doubleSided":true,
			"name":"Dark Oxidized Metal.001",
			"pbrMetallicRoughness":{
				"baseColorFactor":[
					0.07500000298023224,
					0.11500000208616257,
					0.10999999940395355,
					1
				],
				"metallicFactor":0,
				"roughnessFactor":0.8799999952316284
			}
		},
		{
			"doubleSided":true,
			"name":"Old Bronze.001",
			"pbrMetallicRoughness":{
				"baseColorFactor":[
					0.36000001430511475,
					0.27000001072883606,
					0.10499999672174454,
					1
				],
				"metallicFactor":0,
				"roughnessFactor":0.8799999952316284
			}
		},
		{
			"doubleSided":true,
			"name":"Faded Petrol Paint.001",
			"pbrMetallicRoughness":{
				"baseColorFactor":[
					0.11500000208616257,
					0.24500000476837158,
					0.23499999940395355,
					1
				],
				"metallicFactor":0,
				"roughnessFactor":0.8799999952316284
			}
		},
		{
			"doubleSided":true,
			"name":"Aged Deck Timber.001",
			"pbrMetallicRoughness":{
				"baseColorFactor":[
					0.3400000035762787,
					0.28999999165534973,
					0.1899999976158142,
					1
				],
				"metallicFactor":0,
				"roughnessFactor":0.8799999952316284
			}
		},
		{
			"doubleSided":true,
			"name":"Rust Highlights.001",
			"pbrMetallicRoughness":{
				"baseColorFactor":[
					0.4300000071525574,
					0.20000000298023224,
					0.08500000089406967,
					1
				],
				"metallicFactor":0,
				"roughnessFactor":0.8799999952316284
			}
		},
		{
			"doubleSided":true,
			"name":"Oxide Rust.001",
			"pbrMetallicRoughness":{
				"baseColorFactor":[
					0.30000001192092896,
					0.11500000208616257,
					0.04500000178813934,
					1
				],
				"metallicFactor":0,
				"roughnessFactor":0.8799999952316284
			}
		},
		{
			"doubleSided":true,
			"name":"Pale Weathered Cabin.001",
			"pbrMetallicRoughness":{
				"baseColorFactor":[
					0.5,
					0.5299999713897705,
					0.4300000071525574,
					1
				],
				"metallicFactor":0,
				"roughnessFactor":0.8799999952316284
			}
		}
	],
	"meshes":[
		{
			"name":"\u7acb\u65b9\u4f53.001",
			"primitives":[
				{
					"attributes":{
						"POSITION":0,
						"NORMAL":1,
						"TEXCOORD_0":2
					},
					"indices":3,
					"material":0
				},
				{
					"attributes":{
						"POSITION":4,
						"NORMAL":5,
						"TEXCOORD_0":6
					},
					"indices":7,
					"material":1
				}
			]
		},
		{
			"name":"\u5186\u67f1.005",
			"primitives":[
				{
					"attributes":{
						"POSITION":8,
						"NORMAL":9,
						"TEXCOORD_0":10,
						"TEXCOORD_1":11
					},
					"indices":12,
					"material":0
				}
			]
		},
		{
			"name":"\u5186\u67f1.006",
			"primitives":[
				{
					"attributes":{
						"POSITION":13,
						"NORMAL":14,
						"TEXCOORD_0":15
					},
					"indices":16,
					"material":0
				}
			]
		},
		{
			"name":"\u7403.001",
			"primitives":[
				{
					"attributes":{
						"POSITION":17,
						"NORMAL":18,
						"TEXCOORD_0":19
					},
					"indices":20,
					"material":1
				}
			]
		},
		{
			"name":"\u7acb\u65b9\u4f53.002",
			"primitives":[
				{
					"attributes":{
						"POSITION":21,
						"NORMAL":22,
						"TEXCOORD_0":23
					},
					"indices":24,
					"material":0
				}
			]
		},
		{
			"name":"\u7acb\u65b9\u4f53.003",
			"primitives":[
				{
					"attributes":{
						"POSITION":25,
						"NORMAL":26,
						"TEXCOORD_0":27
					},
					"indices":28,
					"material":0
				}
			]
		},
		{
			"name":"\u7acb\u65b9\u4f53.004",
			"primitives":[
				{
					"attributes":{
						"POSITION":29,
						"NORMAL":30,
						"TEXCOORD_0":31
					},
					"indices":28,
					"material":0
				}
			]
		},
		{
			"name":"\u7acb\u65b9\u4f53.005",
			"primitives":[
				{
					"attributes":{
						"POSITION":32,
						"NORMAL":33,
						"TEXCOORD_0":34
					},
					"indices":24,
					"material":0
				}
			]
		},
		{
			"name":"\u7403.002",
			"primitives":[
				{
					"attributes":{
						"POSITION":35,
						"NORMAL":36,
						"TEXCOORD_0":37
					},
					"indices":20,
					"material":1
				}
			]
		},
		{
			"name":"\u5186\u67f1.007",
			"primitives":[
				{
					"attributes":{
						"POSITION":38,
						"NORMAL":39,
						"TEXCOORD_0":40
					},
					"indices":16,
					"material":0
				}
			]
		},
		{
			"name":"\u5186\u67f1.008",
			"primitives":[
				{
					"attributes":{
						"POSITION":41,
						"NORMAL":42,
						"TEXCOORD_0":43,
						"TEXCOORD_1":44
					},
					"indices":45,
					"material":0
				}
			]
		},
		{
			"name":"MainShip_Face_0039.001",
			"primitives":[
				{
					"attributes":{
						"POSITION":46,
						"NORMAL":47,
						"TEXCOORD_0":48
					},
					"indices":49,
					"material":2
				},
				{
					"attributes":{
						"POSITION":50,
						"NORMAL":51,
						"TEXCOORD_0":52
					},
					"indices":53,
					"material":3
				}
			]
		},
		{
			"name":"\u7acb\u65b9\u4f53.006",
			"primitives":[
				{
					"attributes":{
						"POSITION":54,
						"NORMAL":55,
						"TEXCOORD_0":56
					},
					"indices":57,
					"material":0
				},
				{
					"attributes":{
						"POSITION":58,
						"NORMAL":59,
						"TEXCOORD_0":60
					},
					"indices":61,
					"material":1
				}
			]
		},
		{
			"name":"\u7acb\u65b9\u4f53.007",
			"primitives":[
				{
					"attributes":{
						"POSITION":62,
						"NORMAL":63,
						"TEXCOORD_0":64
					},
					"indices":3,
					"material":0
				},
				{
					"attributes":{
						"POSITION":65,
						"NORMAL":66,
						"TEXCOORD_0":67
					},
					"indices":7,
					"material":1
				}
			]
		},
		{
			"name":"\u7acb\u65b9\u4f53.008",
			"primitives":[
				{
					"attributes":{
						"POSITION":68,
						"NORMAL":69,
						"TEXCOORD_0":70
					},
					"indices":3,
					"material":0
				},
				{
					"attributes":{
						"POSITION":71,
						"NORMAL":72,
						"TEXCOORD_0":73
					},
					"indices":7,
					"material":1
				}
			]
		},
		{
			"name":"\u7acb\u65b9\u4f53.009",
			"primitives":[
				{
					"attributes":{
						"POSITION":74,
						"NORMAL":75,
						"TEXCOORD_0":76
					},
					"indices":77,
					"material":3
				}
			]
		},
		{
			"name":"\u7acb\u65b9\u4f53.010",
			"primitives":[
				{
					"attributes":{
						"POSITION":78,
						"NORMAL":79,
						"TEXCOORD_0":80
					},
					"indices":77,
					"material":3
				}
			]
		},
		{
			"name":"\u7acb\u65b9\u4f53.014",
			"primitives":[
				{
					"attributes":{
						"POSITION":81,
						"NORMAL":82,
						"TEXCOORD_0":83
					},
					"indices":77,
					"material":3
				}
			]
		},
		{
			"name":"\u7acb\u65b9\u4f53.015",
			"primitives":[
				{
					"attributes":{
						"POSITION":84,
						"NORMAL":85,
						"TEXCOORD_0":86
					},
					"indices":77,
					"material":3
				}
			]
		},
		{
			"name":"\u7acb\u65b9\u4f53.026",
			"primitives":[
				{
					"attributes":{
						"POSITION":87,
						"NORMAL":88,
						"TEXCOORD_0":89
					},
					"indices":77,
					"material":3
				}
			]
		},
		{
			"name":"MainShip_Face_0003.002",
			"primitives":[
				{
					"attributes":{
						"POSITION":90,
						"NORMAL":91,
						"TEXCOORD_0":92
					},
					"indices":93,
					"material":3
				}
			]
		},
		{
			"name":"MainShip_Face_0004.002",
			"primitives":[
				{
					"attributes":{
						"POSITION":94,
						"NORMAL":95,
						"TEXCOORD_0":96
					},
					"indices":93,
					"material":3
				}
			]
		},
		{
			"name":"MainShip_Face_0007.002",
			"primitives":[
				{
					"attributes":{
						"POSITION":97,
						"NORMAL":98,
						"TEXCOORD_0":99
					},
					"indices":93,
					"material":3
				}
			]
		},
		{
			"name":"MainShip_Face_0008.002",
			"primitives":[
				{
					"attributes":{
						"POSITION":100,
						"NORMAL":101,
						"TEXCOORD_0":102
					},
					"indices":103,
					"material":2
				}
			]
		},
		{
			"name":"MainShip_Face_0009.002",
			"primitives":[
				{
					"attributes":{
						"POSITION":104,
						"NORMAL":105,
						"TEXCOORD_0":106
					},
					"indices":93,
					"material":3
				}
			]
		},
		{
			"name":"MainShip_Face_0010.002",
			"primitives":[
				{
					"attributes":{
						"POSITION":107,
						"NORMAL":108,
						"TEXCOORD_0":109
					},
					"indices":93,
					"material":3
				}
			]
		},
		{
			"name":"MainShip_Face_0012.002",
			"primitives":[
				{
					"attributes":{
						"POSITION":110,
						"NORMAL":111,
						"TEXCOORD_0":112
					},
					"indices":113,
					"material":2
				}
			]
		},
		{
			"name":"MainShip_Face_0016.002",
			"primitives":[
				{
					"attributes":{
						"POSITION":114,
						"NORMAL":115,
						"TEXCOORD_0":116
					},
					"indices":117,
					"material":2
				},
				{
					"attributes":{
						"POSITION":118,
						"NORMAL":119,
						"TEXCOORD_0":120
					},
					"indices":117,
					"material":3
				}
			]
		},
		{
			"name":"MainShip_Face_0017.002",
			"primitives":[
				{
					"attributes":{
						"POSITION":121,
						"NORMAL":122,
						"TEXCOORD_0":123
					},
					"indices":93,
					"material":3
				}
			]
		},
		{
			"name":"MainShip_Face_0019.002",
			"primitives":[
				{
					"attributes":{
						"POSITION":124,
						"NORMAL":125,
						"TEXCOORD_0":126
					},
					"indices":103,
					"material":4
				}
			]
		},
		{
			"name":"MainShip_Face_0021.002",
			"primitives":[
				{
					"attributes":{
						"POSITION":127,
						"NORMAL":128,
						"TEXCOORD_0":129
					},
					"indices":93,
					"material":2
				}
			]
		},
		{
			"name":"MainShip_Face_0022.002",
			"primitives":[
				{
					"attributes":{
						"POSITION":130,
						"NORMAL":131,
						"TEXCOORD_0":132
					},
					"indices":93,
					"material":2
				}
			]
		},
		{
			"name":"MainShip_Face_0023.002",
			"primitives":[
				{
					"attributes":{
						"POSITION":133,
						"NORMAL":134,
						"TEXCOORD_0":135
					},
					"indices":93,
					"material":5
				}
			]
		},
		{
			"name":"MainShip_Face_0026.002",
			"primitives":[
				{
					"attributes":{
						"POSITION":136,
						"NORMAL":137,
						"TEXCOORD_0":138
					},
					"indices":93,
					"material":3
				}
			]
		},
		{
			"name":"MainShip_Face_0027.002",
			"primitives":[
				{
					"attributes":{
						"POSITION":139,
						"NORMAL":140,
						"TEXCOORD_0":141
					},
					"indices":93,
					"material":3
				}
			]
		},
		{
			"name":"MainShip_Face_0028.002",
			"primitives":[
				{
					"attributes":{
						"POSITION":142,
						"NORMAL":143,
						"TEXCOORD_0":144
					},
					"indices":93,
					"material":3
				}
			]
		},
		{
			"name":"MainShip_Face_0031.002",
			"primitives":[
				{
					"attributes":{
						"POSITION":145,
						"NORMAL":146,
						"TEXCOORD_0":147
					},
					"indices":93,
					"material":3
				}
			]
		},
		{
			"name":"MainShip_Face_0032.002",
			"primitives":[
				{
					"attributes":{
						"POSITION":148,
						"NORMAL":149,
						"TEXCOORD_0":150
					},
					"indices":93,
					"material":2
				}
			]
		},
		{
			"name":"MainShip_Face_0033.002",
			"primitives":[
				{
					"attributes":{
						"POSITION":151,
						"NORMAL":152,
						"TEXCOORD_0":153
					},
					"indices":93,
					"material":3
				}
			]
		},
		{
			"name":"MainShip_Face_0039.004",
			"primitives":[
				{
					"attributes":{
						"POSITION":154,
						"NORMAL":155,
						"TEXCOORD_0":156
					},
					"indices":157,
					"material":2
				}
			]
		},
		{
			"name":"MainShip_Face_0045.002",
			"primitives":[
				{
					"attributes":{
						"POSITION":158,
						"NORMAL":159,
						"TEXCOORD_0":160
					},
					"indices":93,
					"material":3
				}
			]
		},
		{
			"name":"MainShip_Face_0046.002",
			"primitives":[
				{
					"attributes":{
						"POSITION":161,
						"NORMAL":162,
						"TEXCOORD_0":163
					},
					"indices":103,
					"material":5
				}
			]
		},
		{
			"name":"MainShip_Face_0047.002",
			"primitives":[
				{
					"attributes":{
						"POSITION":164,
						"NORMAL":165,
						"TEXCOORD_0":166
					},
					"indices":93,
					"material":3
				}
			]
		},
		{
			"name":"MainShip_Face_0049.002",
			"primitives":[
				{
					"attributes":{
						"POSITION":167,
						"NORMAL":168,
						"TEXCOORD_0":169
					},
					"indices":93,
					"material":3
				}
			]
		},
		{
			"name":"MainShip_Face_0052.002",
			"primitives":[
				{
					"attributes":{
						"POSITION":170,
						"NORMAL":171,
						"TEXCOORD_0":172
					},
					"indices":93,
					"material":2
				}
			]
		},
		{
			"name":"MainShip_Face_0053.002",
			"primitives":[
				{
					"attributes":{
						"POSITION":173,
						"NORMAL":174,
						"TEXCOORD_0":175
					},
					"indices":93,
					"material":2
				}
			]
		},
		{
			"name":"MainShip_Face_0055.002",
			"primitives":[
				{
					"attributes":{
						"POSITION":176,
						"NORMAL":177,
						"TEXCOORD_0":178
					},
					"indices":103,
					"material":4
				}
			]
		},
		{
			"name":"MainShip_Face_0056.002",
			"primitives":[
				{
					"attributes":{
						"POSITION":179,
						"NORMAL":180,
						"TEXCOORD_0":181
					},
					"indices":103,
					"material":5
				}
			]
		},
		{
			"name":"MainShip_Face_0058.002",
			"primitives":[
				{
					"attributes":{
						"POSITION":182,
						"NORMAL":183,
						"TEXCOORD_0":184
					},
					"indices":93,
					"material":3
				}
			]
		},
		{
			"name":"MainShip_Face_0060.002",
			"primitives":[
				{
					"attributes":{
						"POSITION":185,
						"NORMAL":186,
						"TEXCOORD_0":187
					},
					"indices":117,
					"material":5
				},
				{
					"attributes":{
						"POSITION":188,
						"NORMAL":189,
						"TEXCOORD_0":190
					},
					"indices":117,
					"material":3
				}
			]
		},
		{
			"name":"MainShip_Face_0061.002",
			"primitives":[
				{
					"attributes":{
						"POSITION":191,
						"NORMAL":192,
						"TEXCOORD_0":193
					},
					"indices":93,
					"material":2
				}
			]
		},
		{
			"name":"MainShip_Face_0064.002",
			"primitives":[
				{
					"attributes":{
						"POSITION":194,
						"NORMAL":195,
						"TEXCOORD_0":196
					},
					"indices":93,
					"material":3
				}
			]
		},
		{
			"name":"MainShip_Face_0069.002",
			"primitives":[
				{
					"attributes":{
						"POSITION":197,
						"NORMAL":198,
						"TEXCOORD_0":199
					},
					"indices":103,
					"material":5
				}
			]
		},
		{
			"name":"MainShip_Face_0070.002",
			"primitives":[
				{
					"attributes":{
						"POSITION":200,
						"NORMAL":201,
						"TEXCOORD_0":202
					},
					"indices":103,
					"material":5
				}
			]
		},
		{
			"name":"MainShip_Face_0071.002",
			"primitives":[
				{
					"attributes":{
						"POSITION":203,
						"NORMAL":204,
						"TEXCOORD_0":205
					},
					"indices":206,
					"material":5
				}
			]
		},
		{
			"name":"MainShip_Face_0072.002",
			"primitives":[
				{
					"attributes":{
						"POSITION":207,
						"NORMAL":208,
						"TEXCOORD_0":209
					},
					"indices":93,
					"material":5
				}
			]
		},
		{
			"name":"MainShip_Face_0073.002",
			"primitives":[
				{
					"attributes":{
						"POSITION":210,
						"NORMAL":211,
						"TEXCOORD_0":212
					},
					"indices":113,
					"material":2
				}
			]
		},
		{
			"name":"MainShip_Face_0077.002",
			"primitives":[
				{
					"attributes":{
						"POSITION":213,
						"NORMAL":214,
						"TEXCOORD_0":215
					},
					"indices":216,
					"material":2
				}
			]
		},
		{
			"name":"MainShip_Face_0078.002",
			"primitives":[
				{
					"attributes":{
						"POSITION":217,
						"NORMAL":218,
						"TEXCOORD_0":219
					},
					"indices":93,
					"material":2
				}
			]
		},
		{
			"name":"\u7acb\u65b9\u4f53_Face_0001.002",
			"primitives":[
				{
					"attributes":{
						"POSITION":220,
						"NORMAL":221,
						"TEXCOORD_0":222
					},
					"indices":93,
					"material":3
				}
			]
		},
		{
			"name":"\u7acb\u65b9\u4f53_Face_0002.002",
			"primitives":[
				{
					"attributes":{
						"POSITION":223,
						"NORMAL":224,
						"TEXCOORD_0":225
					},
					"indices":93,
					"material":6
				}
			]
		},
		{
			"name":"\u7acb\u65b9\u4f53_Face_0003.002",
			"primitives":[
				{
					"attributes":{
						"POSITION":226,
						"NORMAL":227,
						"TEXCOORD_0":228
					},
					"indices":93,
					"material":3
				}
			]
		},
		{
			"name":"\u7acb\u65b9\u4f53_Face_0004.002",
			"primitives":[
				{
					"attributes":{
						"POSITION":229,
						"NORMAL":230,
						"TEXCOORD_0":231
					},
					"indices":93,
					"material":6
				}
			]
		},
		{
			"name":"\u7acb\u65b9\u4f53_Face_0005.002",
			"primitives":[
				{
					"attributes":{
						"POSITION":232,
						"NORMAL":233,
						"TEXCOORD_0":234
					},
					"indices":93,
					"material":3
				}
			]
		},
		{
			"name":"\u7acb\u65b9\u4f53_Face_0006.002",
			"primitives":[
				{
					"attributes":{
						"POSITION":235,
						"NORMAL":236,
						"TEXCOORD_0":237
					},
					"indices":93,
					"material":6
				}
			]
		}
	],
	"accessors":[
		{
			"bufferView":0,
			"componentType":5126,
			"count":16,
			"max":[
				-0.282323956489563,
				3.257542133331299,
				0.6133182644844055
			],
			"min":[
				-2.7092442512512207,
				1.6429088115692139,
				-0.6133182644844055
			],
			"type":"VEC3"
		},
		{
			"bufferView":1,
			"componentType":5126,
			"count":16,
			"type":"VEC3"
		},
		{
			"bufferView":2,
			"componentType":5126,
			"count":16,
			"type":"VEC2"
		},
		{
			"bufferView":3,
			"componentType":5123,
			"count":24,
			"type":"SCALAR"
		},
		{
			"bufferView":4,
			"componentType":5126,
			"count":8,
			"max":[
				-0.282323956489563,
				3.257542133331299,
				0.6133182644844055
			],
			"min":[
				-2.7092442512512207,
				1.6429088115692139,
				-0.6133182644844055
			],
			"type":"VEC3"
		},
		{
			"bufferView":5,
			"componentType":5126,
			"count":8,
			"type":"VEC3"
		},
		{
			"bufferView":6,
			"componentType":5126,
			"count":8,
			"type":"VEC2"
		},
		{
			"bufferView":7,
			"componentType":5123,
			"count":12,
			"type":"SCALAR"
		},
		{
			"bufferView":8,
			"componentType":5126,
			"count":2952,
			"max":[
				-2.638716220855713,
				0.019651569426059723,
				1.0329092741012573
			],
			"min":[
				-3.4764223098754883,
				-0.16634921729564667,
				0.19520330429077148
			],
			"type":"VEC3"
		},
		{
			"bufferView":9,
			"componentType":5126,
			"count":2952,
			"type":"VEC3"
		},
		{
			"bufferView":10,
			"componentType":5126,
			"count":2952,
			"type":"VEC2"
		},
		{
			"bufferView":11,
			"componentType":5126,
			"count":2952,
			"type":"VEC2"
		},
		{
			"bufferView":12,
			"componentType":5123,
			"count":4200,
			"type":"SCALAR"
		},
		{
			"bufferView":13,
			"componentType":5126,
			"count":192,
			"max":[
				-2.989565372467041,
				0.0650123655796051,
				0.6787768602371216
			],
			"min":[
				-3.1275620460510254,
				-0.24387651681900024,
				0.5407803058624268
			],
			"type":"VEC3"
		},
		{
			"bufferView":14,
			"componentType":5126,
			"count":192,
			"type":"VEC3"
		},
		{
			"bufferView":15,
			"componentType":5126,
			"count":192,
			"type":"VEC2"
		},
		{
			"bufferView":16,
			"componentType":5123,
			"count":372,
			"type":"SCALAR"
		},
		{
			"bufferView":17,
			"componentType":5126,
			"count":559,
			"max":[
				-2.9644782543182373,
				-0.2940606474876404,
				0.6954466104507446
			],
			"min":[
				-3.1543753147125244,
				-0.4839579463005066,
				0.5055493712425232
			],
			"type":"VEC3"
		},
		{
			"bufferView":18,
			"componentType":5126,
			"count":559,
			"type":"VEC3"
		},
		{
			"bufferView":19,
			"componentType":5126,
			"count":559,
			"type":"VEC2"
		},
		{
			"bufferView":20,
			"componentType":5123,
			"count":2880,
			"type":"SCALAR"
		},
		{
			"bufferView":21,
			"componentType":5126,
			"count":24,
			"max":[
				-3.1711230278015137,
				-0.17008250951766968,
				0.6606035232543945
			],
			"min":[
				-3.9218716621398926,
				-0.3657206892967224,
				0.48531198501586914
			],
			"type":"VEC3"
		},
		{
			"bufferView":22,
			"componentType":5126,
			"count":24,
			"type":"VEC3"
		},
		{
			"bufferView":23,
			"componentType":5126,
			"count":24,
			"type":"VEC2"
		},
		{
			"bufferView":24,
			"componentType":5123,
			"count":36,
			"type":"SCALAR"
		},
		{
			"bufferView":25,
			"componentType":5126,
			"count":24,
			"max":[
				-3.1711230278015137,
				-0.49073725938796997,
				0.6606035232543945
			],
			"min":[
				-3.9218716621398926,
				-0.6697463989257812,
				0.48531198501586914
			],
			"type":"VEC3"
		},
		{
			"bufferView":26,
			"componentType":5126,
			"count":24,
			"type":"VEC3"
		},
		{
			"bufferView":27,
			"componentType":5126,
			"count":24,
			"type":"VEC2"
		},
		{
			"bufferView":28,
			"componentType":5123,
			"count":36,
			"type":"SCALAR"
		},
		{
			"bufferView":29,
			"componentType":5126,
			"count":24,
			"max":[
				-3.1711230278015137,
				-0.49073725938796997,
				-0.622137188911438
			],
			"min":[
				-3.9218716621398926,
				-0.6697463989257812,
				-0.7974287271499634
			],
			"type":"VEC3"
		},
		{
			"bufferView":30,
			"componentType":5126,
			"count":24,
			"type":"VEC3"
		},
		{
			"bufferView":31,
			"componentType":5126,
			"count":24,
			"type":"VEC2"
		},
		{
			"bufferView":32,
			"componentType":5126,
			"count":24,
			"max":[
				-3.1711230278015137,
				-0.17008250951766968,
				-0.622137188911438
			],
			"min":[
				-3.9218716621398926,
				-0.3657206892967224,
				-0.7974287271499634
			],
			"type":"VEC3"
		},
		{
			"bufferView":33,
			"componentType":5126,
			"count":24,
			"type":"VEC3"
		},
		{
			"bufferView":34,
			"componentType":5126,
			"count":24,
			"type":"VEC2"
		},
		{
			"bufferView":35,
			"componentType":5126,
			"count":559,
			"max":[
				-2.9644782543182373,
				-0.2940606474876404,
				-0.5872941613197327
			],
			"min":[
				-3.1543753147125244,
				-0.4839579463005066,
				-0.7771914005279541
			],
			"type":"VEC3"
		},
		{
			"bufferView":36,
			"componentType":5126,
			"count":559,
			"type":"VEC3"
		},
		{
			"bufferView":37,
			"componentType":5126,
			"count":559,
			"type":"VEC2"
		},
		{
			"bufferView":38,
			"componentType":5126,
			"count":192,
			"max":[
				-2.989565372467041,
				0.0650123655796051,
				-0.6039639115333557
			],
			"min":[
				-3.1275620460510254,
				-0.24387651681900024,
				-0.7419604659080505
			],
			"type":"VEC3"
		},
		{
			"bufferView":39,
			"componentType":5126,
			"count":192,
			"type":"VEC3"
		},
		{
			"bufferView":40,
			"componentType":5126,
			"count":192,
			"type":"VEC2"
		},
		{
			"bufferView":41,
			"componentType":5126,
			"count":2958,
			"max":[
				-2.6387157440185547,
				0.0352916456758976,
				-0.24983128905296326
			],
			"min":[
				-3.47642183303833,
				-0.16530632972717285,
				-1.0875372886657715
			],
			"type":"VEC3"
		},
		{
			"bufferView":42,
			"componentType":5126,
			"count":2958,
			"type":"VEC3"
		},
		{
			"bufferView":43,
			"componentType":5126,
			"count":2958,
			"type":"VEC2"
		},
		{
			"bufferView":44,
			"componentType":5126,
			"count":2958,
			"type":"VEC2"
		},
		{
			"bufferView":45,
			"componentType":5123,
			"count":4200,
			"type":"SCALAR"
		},
		{
			"bufferView":46,
			"componentType":5126,
			"count":3,
			"max":[
				-3.876648426055908,
				1.9602123498916626,
				-0.03370767831802368
			],
			"min":[
				-5.749913215637207,
				1.6686840057373047,
				-1.5109829902648926
			],
			"type":"VEC3"
		},
		{
			"bufferView":47,
			"componentType":5126,
			"count":3,
			"type":"VEC3"
		},
		{
			"bufferView":48,
			"componentType":5126,
			"count":3,
			"type":"VEC2"
		},
		{
			"bufferView":49,
			"componentType":5123,
			"count":3,
			"type":"SCALAR"
		},
		{
			"bufferView":50,
			"componentType":5126,
			"count":4,
			"max":[
				-3.890842914581299,
				1.9602123498916626,
				-0.013783037662506104
			],
			"min":[
				-6.0505690574646,
				1.6686840057373047,
				-1.5109829902648926
			],
			"type":"VEC3"
		},
		{
			"bufferView":51,
			"componentType":5126,
			"count":4,
			"type":"VEC3"
		},
		{
			"bufferView":52,
			"componentType":5126,
			"count":4,
			"type":"VEC2"
		},
		{
			"bufferView":53,
			"componentType":5123,
			"count":6,
			"type":"SCALAR"
		},
		{
			"bufferView":54,
			"componentType":5126,
			"count":56,
			"max":[
				-1.763582468032837,
				2.911308765411377,
				0.6735076308250427
			],
			"min":[
				-2.3888540267944336,
				2.3000845909118652,
				0.5650916695594788
			],
			"type":"VEC3"
		},
		{
			"bufferView":55,
			"componentType":5126,
			"count":56,
			"type":"VEC3"
		},
		{
			"bufferView":56,
			"componentType":5126,
			"count":56,
			"type":"VEC2"
		},
		{
			"bufferView":57,
			"componentType":5123,
			"count":84,
			"type":"SCALAR"
		},
		{
			"bufferView":58,
			"componentType":5126,
			"count":112,
			"max":[
				-1.763582468032837,
				2.911308765411377,
				0.6735076308250427
			],
			"min":[
				-2.3888540267944336,
				2.3000845909118652,
				0.5650916695594788
			],
			"type":"VEC3"
		},
		{
			"bufferView":59,
			"componentType":5126,
			"count":112,
			"type":"VEC3"
		},
		{
			"bufferView":60,
			"componentType":5126,
			"count":112,
			"type":"VEC2"
		},
		{
			"bufferView":61,
			"componentType":5123,
			"count":168,
			"type":"SCALAR"
		},
		{
			"bufferView":62,
			"componentType":5126,
			"count":16,
			"max":[
				-2.6933891773223877,
				2.4663963317871094,
				0.28013312816619873
			],
			"min":[
				-2.751957654953003,
				1.7842440605163574,
				-0.22039270401000977
			],
			"type":"VEC3"
		},
		{
			"bufferView":63,
			"componentType":5126,
			"count":16,
			"type":"VEC3"
		},
		{
			"bufferView":64,
			"componentType":5126,
			"count":16,
			"type":"VEC2"
		},
		{
			"bufferView":65,
			"componentType":5126,
			"count":8,
			"max":[
				-2.6933891773223877,
				2.4663963317871094,
				0.28013312816619873
			],
			"min":[
				-2.751957654953003,
				1.7842440605163574,
				-0.22039270401000977
			],
			"type":"VEC3"
		},
		{
			"bufferView":66,
			"componentType":5126,
			"count":8,
			"type":"VEC3"
		},
		{
			"bufferView":67,
			"componentType":5126,
			"count":8,
			"type":"VEC2"
		},
		{
			"bufferView":68,
			"componentType":5126,
			"count":16,
			"max":[
				-2.748699426651001,
				2.1496095657348633,
				0.24922099709510803
			],
			"min":[
				-2.807267904281616,
				2.1010308265686035,
				0.09678486734628677
			],
			"type":"VEC3"
		},
		{
			"bufferView":69,
			"componentType":5126,
			"count":16,
			"type":"VEC3"
		},
		{
			"bufferView":70,
			"componentType":5126,
			"count":16,
			"type":"VEC2"
		},
		{
			"bufferView":71,
			"componentType":5126,
			"count":8,
			"max":[
				-2.748699426651001,
				2.1496095657348633,
				0.24922099709510803
			],
			"min":[
				-2.807267904281616,
				2.1010308265686035,
				0.09678486734628677
			],
			"type":"VEC3"
		},
		{
			"bufferView":72,
			"componentType":5126,
			"count":8,
			"type":"VEC3"
		},
		{
			"bufferView":73,
			"componentType":5126,
			"count":8,
			"type":"VEC2"
		},
		{
			"bufferView":74,
			"componentType":5126,
			"count":24,
			"max":[
				1,
				1,
				1
			],
			"min":[
				-1,
				-1,
				-1
			],
			"type":"VEC3"
		},
		{
			"bufferView":75,
			"componentType":5126,
			"count":24,
			"type":"VEC3"
		},
		{
			"bufferView":76,
			"componentType":5126,
			"count":24,
			"type":"VEC2"
		},
		{
			"bufferView":77,
			"componentType":5123,
			"count":36,
			"type":"SCALAR"
		},
		{
			"bufferView":78,
			"componentType":5126,
			"count":24,
			"max":[
				1,
				1,
				1
			],
			"min":[
				-1,
				-1,
				-1
			],
			"type":"VEC3"
		},
		{
			"bufferView":79,
			"componentType":5126,
			"count":24,
			"type":"VEC3"
		},
		{
			"bufferView":80,
			"componentType":5126,
			"count":24,
			"type":"VEC2"
		},
		{
			"bufferView":81,
			"componentType":5126,
			"count":24,
			"max":[
				1,
				1,
				1
			],
			"min":[
				-1,
				-1,
				-1
			],
			"type":"VEC3"
		},
		{
			"bufferView":82,
			"componentType":5126,
			"count":24,
			"type":"VEC3"
		},
		{
			"bufferView":83,
			"componentType":5126,
			"count":24,
			"type":"VEC2"
		},
		{
			"bufferView":84,
			"componentType":5126,
			"count":24,
			"max":[
				1,
				1,
				1
			],
			"min":[
				-1,
				-1,
				-1
			],
			"type":"VEC3"
		},
		{
			"bufferView":85,
			"componentType":5126,
			"count":24,
			"type":"VEC3"
		},
		{
			"bufferView":86,
			"componentType":5126,
			"count":24,
			"type":"VEC2"
		},
		{
			"bufferView":87,
			"componentType":5126,
			"count":24,
			"max":[
				1,
				1,
				1
			],
			"min":[
				-1,
				-1,
				-1
			],
			"type":"VEC3"
		},
		{
			"bufferView":88,
			"componentType":5126,
			"count":24,
			"type":"VEC3"
		},
		{
			"bufferView":89,
			"componentType":5126,
			"count":24,
			"type":"VEC2"
		},
		{
			"bufferView":90,
			"componentType":5126,
			"count":4,
			"max":[
				-2.35475754737854,
				0,
				-1.4507681131362915
			],
			"min":[
				-3.2882821559906006,
				0,
				-1.4507681131362915
			],
			"type":"VEC3"
		},
		{
			"bufferView":91,
			"componentType":5126,
			"count":4,
			"type":"VEC3"
		},
		{
			"bufferView":92,
			"componentType":5126,
			"count":4,
			"type":"VEC2"
		},
		{
			"bufferView":93,
			"componentType":5123,
			"count":6,
			"type":"SCALAR"
		},
		{
			"bufferView":94,
			"componentType":5126,
			"count":4,
			"max":[
				-2.35475754737854,
				0,
				0.7253840565681458
			],
			"min":[
				-3.2991294860839844,
				0,
				0
			],
			"type":"VEC3"
		},
		{
			"bufferView":95,
			"componentType":5126,
			"count":4,
			"type":"VEC3"
		},
		{
			"bufferView":96,
			"componentType":5126,
			"count":4,
			"type":"VEC2"
		},
		{
			"bufferView":97,
			"componentType":5126,
			"count":4,
			"max":[
				-3.2951560020446777,
				1.7080165147781372,
				-1.4507681131362915
			],
			"min":[
				-3.9009957313537598,
				0,
				-1.4841047525405884
			],
			"type":"VEC3"
		},
		{
			"bufferView":98,
			"componentType":5126,
			"count":4,
			"type":"VEC3"
		},
		{
			"bufferView":99,
			"componentType":5126,
			"count":4,
			"type":"VEC2"
		},
		{
			"bufferView":100,
			"componentType":5126,
			"count":6,
			"max":[
				-4.681893348693848,
				1.705931305885315,
				0.7071731090545654
			],
			"min":[
				-6.068631172180176,
				0.8529657125473022,
				-0.03409796953201294
			],
			"type":"VEC3"
		},
		{
			"bufferView":101,
			"componentType":5126,
			"count":6,
			"type":"VEC3"
		},
		{
			"bufferView":102,
			"componentType":5126,
			"count":6,
			"type":"VEC2"
		},
		{
			"bufferView":103,
			"componentType":5123,
			"count":6,
			"type":"SCALAR"
		},
		{
			"bufferView":104,
			"componentType":5126,
			"count":4,
			"max":[
				-3.278036594390869,
				0,
				0.7253840565681458
			],
			"min":[
				-5.471080780029297,
				0,
				0
			],
			"type":"VEC3"
		},
		{
			"bufferView":105,
			"componentType":5126,
			"count":4,
			"type":"VEC3"
		},
		{
			"bufferView":106,
			"componentType":5126,
			"count":4,
			"type":"VEC2"
		},
		{
			"bufferView":107,
			"componentType":5126,
			"count":4,
			"max":[
				-3.2882823944091797,
				0,
				-1.4507681131362915
			],
			"min":[
				-3.2951560020446777,
				0,
				-1.4507681131362915
			],
			"type":"VEC3"
		},
		{
			"bufferView":108,
			"componentType":5126,
			"count":4,
			"type":"VEC3"
		},
		{
			"bufferView":109,
			"componentType":5126,
			"count":4,
			"type":"VEC2"
		},
		{
			"bufferView":110,
			"componentType":5126,
			"count":5,
			"max":[
				-1.0064241886138916,
				1.7158997058868408,
				-1.4507681131362915
			],
			"min":[
				-3.9009957313537598,
				0,
				-1.4841046333312988
			],
			"type":"VEC3"
		},
		{
			"bufferView":111,
			"componentType":5126,
			"count":5,
			"type":"VEC3"
		},
		{
			"bufferView":112,
			"componentType":5126,
			"count":5,
			"type":"VEC2"
		},
		{
			"bufferView":113,
			"componentType":5123,
			"count":9,
			"type":"SCALAR"
		},
		{
			"bufferView":114,
			"componentType":5126,
			"count":3,
			"max":[
				-3.9122867584228516,
				1.9333378076553345,
				1.4064807891845703
			],
			"min":[
				-6.062503814697266,
				1.69902503490448,
				-0.03508394956588745
			],
			"type":"VEC3"
		},
		{
			"bufferView":115,
			"componentType":5126,
			"count":3,
			"type":"VEC3"
		},
		{
			"bufferView":116,
			"componentType":5126,
			"count":3,
			"type":"VEC2"
		},
		{
			"bufferView":117,
			"componentType":5123,
			"count":3,
			"type":"SCALAR"
		},
		{
			"bufferView":118,
			"componentType":5126,
			"count":3,
			"max":[
				-3.9220807552337646,
				1.9523465633392334,
				1.4064807891845703
			],
			"min":[
				-6.062503814697266,
				1.69902503490448,
				-0.04207545518875122
			],
			"type":"VEC3"
		},
		{
			"bufferView":119,
			"componentType":5126,
			"count":3,
			"type":"VEC3"
		},
		{
			"bufferView":120,
			"componentType":5126,
			"count":3,
			"type":"VEC2"
		},
		{
			"bufferView":121,
			"componentType":5126,
			"count":4,
			"max":[
				-3.9009957313537598,
				1.9982216358184814,
				-1.4810714721679688
			],
			"min":[
				-3.901097297668457,
				1.7080166339874268,
				-1.4841046333312988
			],
			"type":"VEC3"
		},
		{
			"bufferView":122,
			"componentType":5126,
			"count":4,
			"type":"VEC3"
		},
		{
			"bufferView":123,
			"componentType":5126,
			"count":4,
			"type":"VEC2"
		},
		{
			"bufferView":124,
			"componentType":5126,
			"count":6,
			"max":[
				-2.073315382003784,
				1.987905740737915,
				1.4225471019744873
			],
			"min":[
				-3.904057025909424,
				1.705931305885315,
				1.4110137224197388
			],
			"type":"VEC3"
		},
		{
			"bufferView":125,
			"componentType":5126,
			"count":6,
			"type":"VEC3"
		},
		{
			"bufferView":126,
			"componentType":5126,
			"count":6,
			"type":"VEC2"
		},
		{
			"bufferView":127,
			"componentType":5126,
			"count":4,
			"max":[
				-0.08437347412109375,
				1.7191064357757568,
				1.4390190839767456
			],
			"min":[
				-2.0733156204223633,
				0.8572758436203003,
				1.4195197820663452
			],
			"type":"VEC3"
		},
		{
			"bufferView":128,
			"componentType":5126,
			"count":4,
			"type":"VEC3"
		},
		{
			"bufferView":129,
			"componentType":5126,
			"count":4,
			"type":"VEC2"
		},
		{
			"bufferView":130,
			"componentType":5126,
			"count":4,
			"max":[
				-1.8391520977020264,
				1.7125189304351807,
				1.4352070093154907
			],
			"min":[
				-3.892704963684082,
				0.8529657125473022,
				1.4120221138000488
			],
			"type":"VEC3"
		},
		{
			"bufferView":131,
			"componentType":5126,
			"count":4,
			"type":"VEC3"
		},
		{
			"bufferView":132,
			"componentType":5126,
			"count":4,
			"type":"VEC2"
		},
		{
			"bufferView":133,
			"componentType":5126,
			"count":4,
			"max":[
				-0.2539259195327759,
				1.9825406074523926,
				1.4340804815292358
			],
			"min":[
				-2.084667682647705,
				1.7125189304351807,
				1.4195197820663452
			],
			"type":"VEC3"
		},
		{
			"bufferView":134,
			"componentType":5126,
			"count":4,
			"type":"VEC3"
		},
		{
			"bufferView":135,
			"componentType":5126,
			"count":4,
			"type":"VEC2"
		},
		{
			"bufferView":136,
			"componentType":5126,
			"count":4,
			"max":[
				0.13069748878479004,
				0,
				0.7253840565681458
			],
			"min":[
				-2.35475754737854,
				0,
				0
			],
			"type":"VEC3"
		},
		{
			"bufferView":137,
			"componentType":5126,
			"count":4,
			"type":"VEC3"
		},
		{
			"bufferView":138,
			"componentType":5126,
			"count":4,
			"type":"VEC2"
		},
		{
			"bufferView":139,
			"componentType":5126,
			"count":4,
			"max":[
				0.13069748878479004,
				0,
				-1.4507681131362915
			],
			"min":[
				-2.35475754737854,
				0,
				-1.4507681131362915
			],
			"type":"VEC3"
		},
		{
			"bufferView":140,
			"componentType":5126,
			"count":4,
			"type":"VEC3"
		},
		{
			"bufferView":141,
			"componentType":5126,
			"count":4,
			"type":"VEC2"
		},
		{
			"bufferView":142,
			"componentType":5126,
			"count":4,
			"max":[
				0.13069748878479004,
				0,
				-0.7253841161727905
			],
			"min":[
				-2.35475754737854,
				0,
				-1.4507681131362915
			],
			"type":"VEC3"
		},
		{
			"bufferView":143,
			"componentType":5126,
			"count":4,
			"type":"VEC3"
		},
		{
			"bufferView":144,
			"componentType":5126,
			"count":4,
			"type":"VEC2"
		},
		{
			"bufferView":145,
			"componentType":5126,
			"count":4,
			"max":[
				-3.2831594944000244,
				0,
				-0.7253841161727905
			],
			"min":[
				-4.383118629455566,
				0,
				-1.4507681131362915
			],
			"type":"VEC3"
		},
		{
			"bufferView":146,
			"componentType":5126,
			"count":4,
			"type":"VEC3"
		},
		{
			"bufferView":147,
			"componentType":5126,
			"count":4,
			"type":"VEC2"
		},
		{
			"bufferView":148,
			"componentType":5126,
			"count":4,
			"max":[
				-3.2951557636260986,
				1.7080165147781372,
				-0.725383996963501
			],
			"min":[
				-4.98895788192749,
				0,
				-1.4841046333312988
			],
			"type":"VEC3"
		},
		{
			"bufferView":149,
			"componentType":5126,
			"count":4,
			"type":"VEC3"
		},
		{
			"bufferView":150,
			"componentType":5126,
			"count":4,
			"type":"VEC2"
		},
		{
			"bufferView":151,
			"componentType":5126,
			"count":4,
			"max":[
				-2.35475754737854,
				0,
				-0.7253841161727905
			],
			"min":[
				-3.2882823944091797,
				0,
				-1.4507681131362915
			],
			"type":"VEC3"
		},
		{
			"bufferView":152,
			"componentType":5126,
			"count":4,
			"type":"VEC3"
		},
		{
			"bufferView":153,
			"componentType":5126,
			"count":4,
			"type":"VEC2"
		},
		{
			"bufferView":154,
			"componentType":5126,
			"count":7,
			"max":[
				-0.9975370168685913,
				1.9835901260375977,
				-1.4584261178970337
			],
			"min":[
				-3.9009957313537598,
				1.7080165147781372,
				-1.4841046333312988
			],
			"type":"VEC3"
		},
		{
			"bufferView":155,
			"componentType":5126,
			"count":7,
			"type":"VEC3"
		},
		{
			"bufferView":156,
			"componentType":5126,
			"count":7,
			"type":"VEC2"
		},
		{
			"bufferView":157,
			"componentType":5123,
			"count":9,
			"type":"SCALAR"
		},
		{
			"bufferView":158,
			"componentType":5126,
			"count":4,
			"max":[
				-2.35475754737854,
				0,
				0
			],
			"min":[
				-3.2831594944000244,
				0,
				-0.7253840565681458
			],
			"type":"VEC3"
		},
		{
			"bufferView":159,
			"componentType":5126,
			"count":4,
			"type":"VEC3"
		},
		{
			"bufferView":160,
			"componentType":5126,
			"count":4,
			"type":"VEC2"
		},
		{
			"bufferView":161,
			"componentType":5126,
			"count":6,
			"max":[
				-4.383118629455566,
				1.7080165147781372,
				0
			],
			"min":[
				-6.076920509338379,
				0,
				-0.7587205767631531
			],
			"type":"VEC3"
		},
		{
			"bufferView":162,
			"componentType":5126,
			"count":6,
			"type":"VEC3"
		},
		{
			"bufferView":163,
			"componentType":5126,
			"count":6,
			"type":"VEC2"
		},
		{
			"bufferView":164,
			"componentType":5126,
			"count":4,
			"max":[
				-3.2780370712280273,
				0,
				0
			],
			"min":[
				-5.471081256866455,
				0,
				-0.7253840565681458
			],
			"type":"VEC3"
		},
		{
			"bufferView":165,
			"componentType":5126,
			"count":4,
			"type":"VEC3"
		},
		{
			"bufferView":166,
			"componentType":5126,
			"count":4,
			"type":"VEC2"
		},
		{
			"bufferView":167,
			"componentType":5126,
			"count":4,
			"max":[
				0.13069748878479004,
				0,
				0
			],
			"min":[
				-2.35475754737854,
				0,
				-0.7253840565681458
			],
			"type":"VEC3"
		},
		{
			"bufferView":168,
			"componentType":5126,
			"count":4,
			"type":"VEC3"
		},
		{
			"bufferView":169,
			"componentType":5126,
			"count":4,
			"type":"VEC2"
		},
		{
			"bufferView":170,
			"componentType":5126,
			"count":4,
			"max":[
				-1.6049885749816895,
				0.8572758436203003,
				1.4508943557739258
			],
			"min":[
				-3.593930721282959,
				0,
				1.4313950538635254
			],
			"type":"VEC3"
		},
		{
			"bufferView":171,
			"componentType":5126,
			"count":4,
			"type":"VEC3"
		},
		{
			"bufferView":172,
			"componentType":5126,
			"count":4,
			"type":"VEC2"
		},
		{
			"bufferView":173,
			"componentType":5126,
			"count":4,
			"max":[
				0.08517909049987793,
				0.8615860939025879,
				1.45102059841156
			],
			"min":[
				-1.8391520977020264,
				0.0020328760147094727,
				1.4352070093154907
			],
			"type":"VEC3"
		},
		{
			"bufferView":174,
			"componentType":5126,
			"count":4,
			"type":"VEC3"
		},
		{
			"bufferView":175,
			"componentType":5126,
			"count":4,
			"type":"VEC2"
		},
		{
			"bufferView":176,
			"componentType":5126,
			"count":6,
			"max":[
				-4.383118629455566,
				0.8529656529426575,
				0.7253840565681458
			],
			"min":[
				-5.769855976104736,
				0,
				-0.017048954963684082
			],
			"type":"VEC3"
		},
		{
			"bufferView":177,
			"componentType":5126,
			"count":6,
			"type":"VEC3"
		},
		{
			"bufferView":178,
			"componentType":5126,
			"count":6,
			"type":"VEC2"
		},
		{
			"bufferView":179,
			"componentType":5126,
			"count":6,
			"max":[
				-3.2951560020446777,
				0.8529656529426575,
				1.4507681131362915
			],
			"min":[
				-4.681893348693848,
				0,
				0.7071731090545654
			],
			"type":"VEC3"
		},
		{
			"bufferView":180,
			"componentType":5126,
			"count":6,
			"type":"VEC3"
		},
		{
			"bufferView":181,
			"componentType":5126,
			"count":6,
			"type":"VEC2"
		},
		{
			"bufferView":182,
			"componentType":5126,
			"count":4,
			"max":[
				0.13069748878479004,
				0,
				1.4507681131362915
			],
			"min":[
				-2.35475754737854,
				0,
				0.7253841161727905
			],
			"type":"VEC3"
		},
		{
			"bufferView":183,
			"componentType":5126,
			"count":4,
			"type":"VEC3"
		},
		{
			"bufferView":184,
			"componentType":5126,
			"count":4,
			"type":"VEC2"
		},
		{
			"bufferView":185,
			"componentType":5126,
			"count":3,
			"max":[
				-3.2951560020446777,
				0,
				1.4507681131362915
			],
			"min":[
				-4.383118629455566,
				0,
				0.7253841161727905
			],
			"type":"VEC3"
		},
		{
			"bufferView":186,
			"componentType":5126,
			"count":3,
			"type":"VEC3"
		},
		{
			"bufferView":187,
			"componentType":5126,
			"count":3,
			"type":"VEC2"
		},
		{
			"bufferView":188,
			"componentType":5126,
			"count":3,
			"max":[
				-3.2991297245025635,
				0,
				1.4507681131362915
			],
			"min":[
				-4.383118629455566,
				0,
				0.7253841161727905
			],
			"type":"VEC3"
		},
		{
			"bufferView":189,
			"componentType":5126,
			"count":3,
			"type":"VEC3"
		},
		{
			"bufferView":190,
			"componentType":5126,
			"count":3,
			"type":"VEC2"
		},
		{
			"bufferView":191,
			"componentType":5126,
			"count":4,
			"max":[
				-3.593930244445801,
				1.705931305885315,
				1.431395173072815
			],
			"min":[
				-4.980667591094971,
				0.8529657125473022,
				0.6889621019363403
			],
			"type":"VEC3"
		},
		{
			"bufferView":192,
			"componentType":5126,
			"count":4,
			"type":"VEC3"
		},
		{
			"bufferView":193,
			"componentType":5126,
			"count":4,
			"type":"VEC2"
		},
		{
			"bufferView":194,
			"componentType":5126,
			"count":4,
			"max":[
				-2.35475754737854,
				0,
				1.4507681131362915
			],
			"min":[
				-3.320222854614258,
				0,
				0.7253841161727905
			],
			"type":"VEC3"
		},
		{
			"bufferView":195,
			"componentType":5126,
			"count":4,
			"type":"VEC3"
		},
		{
			"bufferView":196,
			"componentType":5126,
			"count":4,
			"type":"VEC2"
		},
		{
			"bufferView":197,
			"componentType":5126,
			"count":6,
			"max":[
				-1.0064241886138916,
				1.7158998250961304,
				-0.030073344707489014
			],
			"min":[
				-2.34086275100708,
				1.7113441228866577,
				-1.4767663478851318
			],
			"type":"VEC3"
		},
		{
			"bufferView":198,
			"componentType":5126,
			"count":6,
			"type":"VEC3"
		},
		{
			"bufferView":199,
			"componentType":5126,
			"count":6,
			"type":"VEC2"
		},
		{
			"bufferView":200,
			"componentType":5126,
			"count":6,
			"max":[
				-1.0416319370269775,
				1.7148747444152832,
				1.4161628484725952
			],
			"min":[
				-2.33929181098938,
				1.710416555404663,
				-0.03882479667663574
			],
			"type":"VEC3"
		},
		{
			"bufferView":201,
			"componentType":5126,
			"count":6,
			"type":"VEC3"
		},
		{
			"bufferView":202,
			"componentType":5126,
			"count":6,
			"type":"VEC2"
		},
		{
			"bufferView":203,
			"componentType":5126,
			"count":8,
			"max":[
				0.14302778244018555,
				1.7189383506774902,
				-0.022083938121795654
			],
			"min":[
				-1.0416319370269775,
				1.7148747444152832,
				-1.4704899787902832
			],
			"type":"VEC3"
		},
		{
			"bufferView":204,
			"componentType":5126,
			"count":8,
			"type":"VEC3"
		},
		{
			"bufferView":205,
			"componentType":5126,
			"count":8,
			"type":"VEC2"
		},
		{
			"bufferView":206,
			"componentType":5123,
			"count":9,
			"type":"SCALAR"
		},
		{
			"bufferView":207,
			"componentType":5126,
			"count":4,
			"max":[
				0.17685264348983765,
				1.7180979251861572,
				1.423959493637085
			],
			"min":[
				-1.0769822597503662,
				1.7138454914093018,
				-0.03007328510284424
			],
			"type":"VEC3"
		},
		{
			"bufferView":208,
			"componentType":5126,
			"count":4,
			"type":"VEC3"
		},
		{
			"bufferView":209,
			"componentType":5126,
			"count":4,
			"type":"VEC2"
		},
		{
			"bufferView":210,
			"componentType":5126,
			"count":5,
			"max":[
				-3.9066154956817627,
				1.7070796489715576,
				1.3985323905944824
			],
			"min":[
				-6.062504291534424,
				1.69902503490448,
				-0.05055241286754608
			],
			"type":"VEC3"
		},
		{
			"bufferView":211,
			"componentType":5126,
			"count":5,
			"type":"VEC3"
		},
		{
			"bufferView":212,
			"componentType":5126,
			"count":5,
			"type":"VEC2"
		},
		{
			"bufferView":213,
			"componentType":5126,
			"count":4,
			"max":[
				-3.9009957313537598,
				1.790724754333496,
				-0.009779274463653564
			],
			"min":[
				-5.864713191986084,
				1.701477289199829,
				-1.4841046333312988
			],
			"type":"VEC3"
		},
		{
			"bufferView":214,
			"componentType":5126,
			"count":4,
			"type":"VEC3"
		},
		{
			"bufferView":215,
			"componentType":5126,
			"count":4,
			"type":"VEC2"
		},
		{
			"bufferView":216,
			"componentType":5123,
			"count":6,
			"type":"SCALAR"
		},
		{
			"bufferView":217,
			"componentType":5126,
			"count":4,
			"max":[
				-2.33929181098938,
				1.7122654914855957,
				-0.03882479667663574
			],
			"min":[
				-3.9066152572631836,
				1.707079529762268,
				-1.4841046333312988
			],
			"type":"VEC3"
		},
		{
			"bufferView":218,
			"componentType":5126,
			"count":4,
			"type":"VEC3"
		},
		{
			"bufferView":219,
			"componentType":5126,
			"count":4,
			"type":"VEC2"
		},
		{
			"bufferView":220,
			"componentType":5126,
			"count":4,
			"max":[
				-2.7092442512512207,
				3.257542371749878,
				0.6133182644844055
			],
			"min":[
				-2.7092442512512207,
				1.6429088115692139,
				-0.6133182644844055
			],
			"type":"VEC3"
		},
		{
			"bufferView":221,
			"componentType":5126,
			"count":4,
			"type":"VEC3"
		},
		{
			"bufferView":222,
			"componentType":5126,
			"count":4,
			"type":"VEC2"
		},
		{
			"bufferView":223,
			"componentType":5126,
			"count":4,
			"max":[
				-0.282323956489563,
				3.257542133331299,
				-0.6133182644844055
			],
			"min":[
				-2.7092442512512207,
				1.6429086923599243,
				-0.6133182644844055
			],
			"type":"VEC3"
		},
		{
			"bufferView":224,
			"componentType":5126,
			"count":4,
			"type":"VEC3"
		},
		{
			"bufferView":225,
			"componentType":5126,
			"count":4,
			"type":"VEC2"
		},
		{
			"bufferView":226,
			"componentType":5126,
			"count":4,
			"max":[
				-0.282323956489563,
				2.566234827041626,
				0.6133182644844055
			],
			"min":[
				-0.282323956489563,
				1.6429088115692139,
				-0.6133182644844055
			],
			"type":"VEC3"
		},
		{
			"bufferView":227,
			"componentType":5126,
			"count":4,
			"type":"VEC3"
		},
		{
			"bufferView":228,
			"componentType":5126,
			"count":4,
			"type":"VEC2"
		},
		{
			"bufferView":229,
			"componentType":5126,
			"count":4,
			"max":[
				-0.282323956489563,
				3.257542133331299,
				0.6133182644844055
			],
			"min":[
				-2.7092442512512207,
				1.6429086923599243,
				0.6133182644844055
			],
			"type":"VEC3"
		},
		{
			"bufferView":230,
			"componentType":5126,
			"count":4,
			"type":"VEC3"
		},
		{
			"bufferView":231,
			"componentType":5126,
			"count":4,
			"type":"VEC2"
		},
		{
			"bufferView":232,
			"componentType":5126,
			"count":4,
			"max":[
				-0.282323956489563,
				1.6429088115692139,
				0.6133182644844055
			],
			"min":[
				-2.7092442512512207,
				1.6429088115692139,
				-0.6133182644844055
			],
			"type":"VEC3"
		},
		{
			"bufferView":233,
			"componentType":5126,
			"count":4,
			"type":"VEC3"
		},
		{
			"bufferView":234,
			"componentType":5126,
			"count":4,
			"type":"VEC2"
		},
		{
			"bufferView":235,
			"componentType":5126,
			"count":4,
			"max":[
				-0.282323956489563,
				3.257542371749878,
				0.6133182644844055
			],
			"min":[
				-2.7092442512512207,
				2.566234827041626,
				-0.6133182644844055
			],
			"type":"VEC3"
		},
		{
			"bufferView":236,
			"componentType":5126,
			"count":4,
			"type":"VEC3"
		},
		{
			"bufferView":237,
			"componentType":5126,
			"count":4,
			"type":"VEC2"
		}
	],
	"bufferViews":[
		{
			"buffer":0,
			"byteLength":192,
			"byteOffset":0,
			"target":34962
		},
		{
			"buffer":0,
			"byteLength":192,
			"byteOffset":192,
			"target":34962
		},
		{
			"buffer":0,
			"byteLength":128,
			"byteOffset":384,
			"target":34962
		},
		{
			"buffer":0,
			"byteLength":48,
			"byteOffset":512,
			"target":34963
		},
		{
			"buffer":0,
			"byteLength":96,
			"byteOffset":560,
			"target":34962
		},
		{
			"buffer":0,
			"byteLength":96,
			"byteOffset":656,
			"target":34962
		},
		{
			"buffer":0,
			"byteLength":64,
			"byteOffset":752,
			"target":34962
		},
		{
			"buffer":0,
			"byteLength":24,
			"byteOffset":816,
			"target":34963
		},
		{
			"buffer":0,
			"byteLength":35424,
			"byteOffset":840,
			"target":34962
		},
		{
			"buffer":0,
			"byteLength":35424,
			"byteOffset":36264,
			"target":34962
		},
		{
			"buffer":0,
			"byteLength":23616,
			"byteOffset":71688,
			"target":34962
		},
		{
			"buffer":0,
			"byteLength":23616,
			"byteOffset":95304,
			"target":34962
		},
		{
			"buffer":0,
			"byteLength":8400,
			"byteOffset":118920,
			"target":34963
		},
		{
			"buffer":0,
			"byteLength":2304,
			"byteOffset":127320,
			"target":34962
		},
		{
			"buffer":0,
			"byteLength":2304,
			"byteOffset":129624,
			"target":34962
		},
		{
			"buffer":0,
			"byteLength":1536,
			"byteOffset":131928,
			"target":34962
		},
		{
			"buffer":0,
			"byteLength":744,
			"byteOffset":133464,
			"target":34963
		},
		{
			"buffer":0,
			"byteLength":6708,
			"byteOffset":134208,
			"target":34962
		},
		{
			"buffer":0,
			"byteLength":6708,
			"byteOffset":140916,
			"target":34962
		},
		{
			"buffer":0,
			"byteLength":4472,
			"byteOffset":147624,
			"target":34962
		},
		{
			"buffer":0,
			"byteLength":5760,
			"byteOffset":152096,
			"target":34963
		},
		{
			"buffer":0,
			"byteLength":288,
			"byteOffset":157856,
			"target":34962
		},
		{
			"buffer":0,
			"byteLength":288,
			"byteOffset":158144,
			"target":34962
		},
		{
			"buffer":0,
			"byteLength":192,
			"byteOffset":158432,
			"target":34962
		},
		{
			"buffer":0,
			"byteLength":72,
			"byteOffset":158624,
			"target":34963
		},
		{
			"buffer":0,
			"byteLength":288,
			"byteOffset":158696,
			"target":34962
		},
		{
			"buffer":0,
			"byteLength":288,
			"byteOffset":158984,
			"target":34962
		},
		{
			"buffer":0,
			"byteLength":192,
			"byteOffset":159272,
			"target":34962
		},
		{
			"buffer":0,
			"byteLength":72,
			"byteOffset":159464,
			"target":34963
		},
		{
			"buffer":0,
			"byteLength":288,
			"byteOffset":159536,
			"target":34962
		},
		{
			"buffer":0,
			"byteLength":288,
			"byteOffset":159824,
			"target":34962
		},
		{
			"buffer":0,
			"byteLength":192,
			"byteOffset":160112,
			"target":34962
		},
		{
			"buffer":0,
			"byteLength":288,
			"byteOffset":160304,
			"target":34962
		},
		{
			"buffer":0,
			"byteLength":288,
			"byteOffset":160592,
			"target":34962
		},
		{
			"buffer":0,
			"byteLength":192,
			"byteOffset":160880,
			"target":34962
		},
		{
			"buffer":0,
			"byteLength":6708,
			"byteOffset":161072,
			"target":34962
		},
		{
			"buffer":0,
			"byteLength":6708,
			"byteOffset":167780,
			"target":34962
		},
		{
			"buffer":0,
			"byteLength":4472,
			"byteOffset":174488,
			"target":34962
		},
		{
			"buffer":0,
			"byteLength":2304,
			"byteOffset":178960,
			"target":34962
		},
		{
			"buffer":0,
			"byteLength":2304,
			"byteOffset":181264,
			"target":34962
		},
		{
			"buffer":0,
			"byteLength":1536,
			"byteOffset":183568,
			"target":34962
		},
		{
			"buffer":0,
			"byteLength":35496,
			"byteOffset":185104,
			"target":34962
		},
		{
			"buffer":0,
			"byteLength":35496,
			"byteOffset":220600,
			"target":34962
		},
		{
			"buffer":0,
			"byteLength":23664,
			"byteOffset":256096,
			"target":34962
		},
		{
			"buffer":0,
			"byteLength":23664,
			"byteOffset":279760,
			"target":34962
		},
		{
			"buffer":0,
			"byteLength":8400,
			"byteOffset":303424,
			"target":34963
		},
		{
			"buffer":0,
			"byteLength":36,
			"byteOffset":311824,
			"target":34962
		},
		{
			"buffer":0,
			"byteLength":36,
			"byteOffset":311860,
			"target":34962
		},
		{
			"buffer":0,
			"byteLength":24,
			"byteOffset":311896,
			"target":34962
		},
		{
			"buffer":0,
			"byteLength":6,
			"byteOffset":311920,
			"target":34963
		},
		{
			"buffer":0,
			"byteLength":48,
			"byteOffset":311928,
			"target":34962
		},
		{
			"buffer":0,
			"byteLength":48,
			"byteOffset":311976,
			"target":34962
		},
		{
			"buffer":0,
			"byteLength":32,
			"byteOffset":312024,
			"target":34962
		},
		{
			"buffer":0,
			"byteLength":12,
			"byteOffset":312056,
			"target":34963
		},
		{
			"buffer":0,
			"byteLength":672,
			"byteOffset":312068,
			"target":34962
		},
		{
			"buffer":0,
			"byteLength":672,
			"byteOffset":312740,
			"target":34962
		},
		{
			"buffer":0,
			"byteLength":448,
			"byteOffset":313412,
			"target":34962
		},
		{
			"buffer":0,
			"byteLength":168,
			"byteOffset":313860,
			"target":34963
		},
		{
			"buffer":0,
			"byteLength":1344,
			"byteOffset":314028,
			"target":34962
		},
		{
			"buffer":0,
			"byteLength":1344,
			"byteOffset":315372,
			"target":34962
		},
		{
			"buffer":0,
			"byteLength":896,
			"byteOffset":316716,
			"target":34962
		},
		{
			"buffer":0,
			"byteLength":336,
			"byteOffset":317612,
			"target":34963
		},
		{
			"buffer":0,
			"byteLength":192,
			"byteOffset":317948,
			"target":34962
		},
		{
			"buffer":0,
			"byteLength":192,
			"byteOffset":318140,
			"target":34962
		},
		{
			"buffer":0,
			"byteLength":128,
			"byteOffset":318332,
			"target":34962
		},
		{
			"buffer":0,
			"byteLength":96,
			"byteOffset":318460,
			"target":34962
		},
		{
			"buffer":0,
			"byteLength":96,
			"byteOffset":318556,
			"target":34962
		},
		{
			"buffer":0,
			"byteLength":64,
			"byteOffset":318652,
			"target":34962
		},
		{
			"buffer":0,
			"byteLength":192,
			"byteOffset":318716,
			"target":34962
		},
		{
			"buffer":0,
			"byteLength":192,
			"byteOffset":318908,
			"target":34962
		},
		{
			"buffer":0,
			"byteLength":128,
			"byteOffset":319100,
			"target":34962
		},
		{
			"buffer":0,
			"byteLength":96,
			"byteOffset":319228,
			"target":34962
		},
		{
			"buffer":0,
			"byteLength":96,
			"byteOffset":319324,
			"target":34962
		},
		{
			"buffer":0,
			"byteLength":64,
			"byteOffset":319420,
			"target":34962
		},
		{
			"buffer":0,
			"byteLength":288,
			"byteOffset":319484,
			"target":34962
		},
		{
			"buffer":0,
			"byteLength":288,
			"byteOffset":319772,
			"target":34962
		},
		{
			"buffer":0,
			"byteLength":192,
			"byteOffset":320060,
			"target":34962
		},
		{
			"buffer":0,
			"byteLength":72,
			"byteOffset":320252,
			"target":34963
		},
		{
			"buffer":0,
			"byteLength":288,
			"byteOffset":320324,
			"target":34962
		},
		{
			"buffer":0,
			"byteLength":288,
			"byteOffset":320612,
			"target":34962
		},
		{
			"buffer":0,
			"byteLength":192,
			"byteOffset":320900,
			"target":34962
		},
		{
			"buffer":0,
			"byteLength":288,
			"byteOffset":321092,
			"target":34962
		},
		{
			"buffer":0,
			"byteLength":288,
			"byteOffset":321380,
			"target":34962
		},
		{
			"buffer":0,
			"byteLength":192,
			"byteOffset":321668,
			"target":34962
		},
		{
			"buffer":0,
			"byteLength":288,
			"byteOffset":321860,
			"target":34962
		},
		{
			"buffer":0,
			"byteLength":288,
			"byteOffset":322148,
			"target":34962
		},
		{
			"buffer":0,
			"byteLength":192,
			"byteOffset":322436,
			"target":34962
		},
		{
			"buffer":0,
			"byteLength":288,
			"byteOffset":322628,
			"target":34962
		},
		{
			"buffer":0,
			"byteLength":288,
			"byteOffset":322916,
			"target":34962
		},
		{
			"buffer":0,
			"byteLength":192,
			"byteOffset":323204,
			"target":34962
		},
		{
			"buffer":0,
			"byteLength":48,
			"byteOffset":323396,
			"target":34962
		},
		{
			"buffer":0,
			"byteLength":48,
			"byteOffset":323444,
			"target":34962
		},
		{
			"buffer":0,
			"byteLength":32,
			"byteOffset":323492,
			"target":34962
		},
		{
			"buffer":0,
			"byteLength":12,
			"byteOffset":323524,
			"target":34963
		},
		{
			"buffer":0,
			"byteLength":48,
			"byteOffset":323536,
			"target":34962
		},
		{
			"buffer":0,
			"byteLength":48,
			"byteOffset":323584,
			"target":34962
		},
		{
			"buffer":0,
			"byteLength":32,
			"byteOffset":323632,
			"target":34962
		},
		{
			"buffer":0,
			"byteLength":48,
			"byteOffset":323664,
			"target":34962
		},
		{
			"buffer":0,
			"byteLength":48,
			"byteOffset":323712,
			"target":34962
		},
		{
			"buffer":0,
			"byteLength":32,
			"byteOffset":323760,
			"target":34962
		},
		{
			"buffer":0,
			"byteLength":72,
			"byteOffset":323792,
			"target":34962
		},
		{
			"buffer":0,
			"byteLength":72,
			"byteOffset":323864,
			"target":34962
		},
		{
			"buffer":0,
			"byteLength":48,
			"byteOffset":323936,
			"target":34962
		},
		{
			"buffer":0,
			"byteLength":12,
			"byteOffset":323984,
			"target":34963
		},
		{
			"buffer":0,
			"byteLength":48,
			"byteOffset":323996,
			"target":34962
		},
		{
			"buffer":0,
			"byteLength":48,
			"byteOffset":324044,
			"target":34962
		},
		{
			"buffer":0,
			"byteLength":32,
			"byteOffset":324092,
			"target":34962
		},
		{
			"buffer":0,
			"byteLength":48,
			"byteOffset":324124,
			"target":34962
		},
		{
			"buffer":0,
			"byteLength":48,
			"byteOffset":324172,
			"target":34962
		},
		{
			"buffer":0,
			"byteLength":32,
			"byteOffset":324220,
			"target":34962
		},
		{
			"buffer":0,
			"byteLength":60,
			"byteOffset":324252,
			"target":34962
		},
		{
			"buffer":0,
			"byteLength":60,
			"byteOffset":324312,
			"target":34962
		},
		{
			"buffer":0,
			"byteLength":40,
			"byteOffset":324372,
			"target":34962
		},
		{
			"buffer":0,
			"byteLength":18,
			"byteOffset":324412,
			"target":34963
		},
		{
			"buffer":0,
			"byteLength":36,
			"byteOffset":324432,
			"target":34962
		},
		{
			"buffer":0,
			"byteLength":36,
			"byteOffset":324468,
			"target":34962
		},
		{
			"buffer":0,
			"byteLength":24,
			"byteOffset":324504,
			"target":34962
		},
		{
			"buffer":0,
			"byteLength":6,
			"byteOffset":324528,
			"target":34963
		},
		{
			"buffer":0,
			"byteLength":36,
			"byteOffset":324536,
			"target":34962
		},
		{
			"buffer":0,
			"byteLength":36,
			"byteOffset":324572,
			"target":34962
		},
		{
			"buffer":0,
			"byteLength":24,
			"byteOffset":324608,
			"target":34962
		},
		{
			"buffer":0,
			"byteLength":48,
			"byteOffset":324632,
			"target":34962
		},
		{
			"buffer":0,
			"byteLength":48,
			"byteOffset":324680,
			"target":34962
		},
		{
			"buffer":0,
			"byteLength":32,
			"byteOffset":324728,
			"target":34962
		},
		{
			"buffer":0,
			"byteLength":72,
			"byteOffset":324760,
			"target":34962
		},
		{
			"buffer":0,
			"byteLength":72,
			"byteOffset":324832,
			"target":34962
		},
		{
			"buffer":0,
			"byteLength":48,
			"byteOffset":324904,
			"target":34962
		},
		{
			"buffer":0,
			"byteLength":48,
			"byteOffset":324952,
			"target":34962
		},
		{
			"buffer":0,
			"byteLength":48,
			"byteOffset":325000,
			"target":34962
		},
		{
			"buffer":0,
			"byteLength":32,
			"byteOffset":325048,
			"target":34962
		},
		{
			"buffer":0,
			"byteLength":48,
			"byteOffset":325080,
			"target":34962
		},
		{
			"buffer":0,
			"byteLength":48,
			"byteOffset":325128,
			"target":34962
		},
		{
			"buffer":0,
			"byteLength":32,
			"byteOffset":325176,
			"target":34962
		},
		{
			"buffer":0,
			"byteLength":48,
			"byteOffset":325208,
			"target":34962
		},
		{
			"buffer":0,
			"byteLength":48,
			"byteOffset":325256,
			"target":34962
		},
		{
			"buffer":0,
			"byteLength":32,
			"byteOffset":325304,
			"target":34962
		},
		{
			"buffer":0,
			"byteLength":48,
			"byteOffset":325336,
			"target":34962
		},
		{
			"buffer":0,
			"byteLength":48,
			"byteOffset":325384,
			"target":34962
		},
		{
			"buffer":0,
			"byteLength":32,
			"byteOffset":325432,
			"target":34962
		},
		{
			"buffer":0,
			"byteLength":48,
			"byteOffset":325464,
			"target":34962
		},
		{
			"buffer":0,
			"byteLength":48,
			"byteOffset":325512,
			"target":34962
		},
		{
			"buffer":0,
			"byteLength":32,
			"byteOffset":325560,
			"target":34962
		},
		{
			"buffer":0,
			"byteLength":48,
			"byteOffset":325592,
			"target":34962
		},
		{
			"buffer":0,
			"byteLength":48,
			"byteOffset":325640,
			"target":34962
		},
		{
			"buffer":0,
			"byteLength":32,
			"byteOffset":325688,
			"target":34962
		},
		{
			"buffer":0,
			"byteLength":48,
			"byteOffset":325720,
			"target":34962
		},
		{
			"buffer":0,
			"byteLength":48,
			"byteOffset":325768,
			"target":34962
		},
		{
			"buffer":0,
			"byteLength":32,
			"byteOffset":325816,
			"target":34962
		},
		{
			"buffer":0,
			"byteLength":48,
			"byteOffset":325848,
			"target":34962
		},
		{
			"buffer":0,
			"byteLength":48,
			"byteOffset":325896,
			"target":34962
		},
		{
			"buffer":0,
			"byteLength":32,
			"byteOffset":325944,
			"target":34962
		},
		{
			"buffer":0,
			"byteLength":48,
			"byteOffset":325976,
			"target":34962
		},
		{
			"buffer":0,
			"byteLength":48,
			"byteOffset":326024,
			"target":34962
		},
		{
			"buffer":0,
			"byteLength":32,
			"byteOffset":326072,
			"target":34962
		},
		{
			"buffer":0,
			"byteLength":84,
			"byteOffset":326104,
			"target":34962
		},
		{
			"buffer":0,
			"byteLength":84,
			"byteOffset":326188,
			"target":34962
		},
		{
			"buffer":0,
			"byteLength":56,
			"byteOffset":326272,
			"target":34962
		},
		{
			"buffer":0,
			"byteLength":18,
			"byteOffset":326328,
			"target":34963
		},
		{
			"buffer":0,
			"byteLength":48,
			"byteOffset":326348,
			"target":34962
		},
		{
			"buffer":0,
			"byteLength":48,
			"byteOffset":326396,
			"target":34962
		},
		{
			"buffer":0,
			"byteLength":32,
			"byteOffset":326444,
			"target":34962
		},
		{
			"buffer":0,
			"byteLength":72,
			"byteOffset":326476,
			"target":34962
		},
		{
			"buffer":0,
			"byteLength":72,
			"byteOffset":326548,
			"target":34962
		},
		{
			"buffer":0,
			"byteLength":48,
			"byteOffset":326620,
			"target":34962
		},
		{
			"buffer":0,
			"byteLength":48,
			"byteOffset":326668,
			"target":34962
		},
		{
			"buffer":0,
			"byteLength":48,
			"byteOffset":326716,
			"target":34962
		},
		{
			"buffer":0,
			"byteLength":32,
			"byteOffset":326764,
			"target":34962
		},
		{
			"buffer":0,
			"byteLength":48,
			"byteOffset":326796,
			"target":34962
		},
		{
			"buffer":0,
			"byteLength":48,
			"byteOffset":326844,
			"target":34962
		},
		{
			"buffer":0,
			"byteLength":32,
			"byteOffset":326892,
			"target":34962
		},
		{
			"buffer":0,
			"byteLength":48,
			"byteOffset":326924,
			"target":34962
		},
		{
			"buffer":0,
			"byteLength":48,
			"byteOffset":326972,
			"target":34962
		},
		{
			"buffer":0,
			"byteLength":32,
			"byteOffset":327020,
			"target":34962
		},
		{
			"buffer":0,
			"byteLength":48,
			"byteOffset":327052,
			"target":34962
		},
		{
			"buffer":0,
			"byteLength":48,
			"byteOffset":327100,
			"target":34962
		},
		{
			"buffer":0,
			"byteLength":32,
			"byteOffset":327148,
			"target":34962
		},
		{
			"buffer":0,
			"byteLength":72,
			"byteOffset":327180,
			"target":34962
		},
		{
			"buffer":0,
			"byteLength":72,
			"byteOffset":327252,
			"target":34962
		},
		{
			"buffer":0,
			"byteLength":48,
			"byteOffset":327324,
			"target":34962
		},
		{
			"buffer":0,
			"byteLength":72,
			"byteOffset":327372,
			"target":34962
		},
		{
			"buffer":0,
			"byteLength":72,
			"byteOffset":327444,
			"target":34962
		},
		{
			"buffer":0,
			"byteLength":48,
			"byteOffset":327516,
			"target":34962
		},
		{
			"buffer":0,
			"byteLength":48,
			"byteOffset":327564,
			"target":34962
		},
		{
			"buffer":0,
			"byteLength":48,
			"byteOffset":327612,
			"target":34962
		},
		{
			"buffer":0,
			"byteLength":32,
			"byteOffset":327660,
			"target":34962
		},
		{
			"buffer":0,
			"byteLength":36,
			"byteOffset":327692,
			"target":34962
		},
		{
			"buffer":0,
			"byteLength":36,
			"byteOffset":327728,
			"target":34962
		},
		{
			"buffer":0,
			"byteLength":24,
			"byteOffset":327764,
			"target":34962
		},
		{
			"buffer":0,
			"byteLength":36,
			"byteOffset":327788,
			"target":34962
		},
		{
			"buffer":0,
			"byteLength":36,
			"byteOffset":327824,
			"target":34962
		},
		{
			"buffer":0,
			"byteLength":24,
			"byteOffset":327860,
			"target":34962
		},
		{
			"buffer":0,
			"byteLength":48,
			"byteOffset":327884,
			"target":34962
		},
		{
			"buffer":0,
			"byteLength":48,
			"byteOffset":327932,
			"target":34962
		},
		{
			"buffer":0,
			"byteLength":32,
			"byteOffset":327980,
			"target":34962
		},
		{
			"buffer":0,
			"byteLength":48,
			"byteOffset":328012,
			"target":34962
		},
		{
			"buffer":0,
			"byteLength":48,
			"byteOffset":328060,
			"target":34962
		},
		{
			"buffer":0,
			"byteLength":32,
			"byteOffset":328108,
			"target":34962
		},
		{
			"buffer":0,
			"byteLength":72,
			"byteOffset":328140,
			"target":34962
		},
		{
			"buffer":0,
			"byteLength":72,
			"byteOffset":328212,
			"target":34962
		},
		{
			"buffer":0,
			"byteLength":48,
			"byteOffset":328284,
			"target":34962
		},
		{
			"buffer":0,
			"byteLength":72,
			"byteOffset":328332,
			"target":34962
		},
		{
			"buffer":0,
			"byteLength":72,
			"byteOffset":328404,
			"target":34962
		},
		{
			"buffer":0,
			"byteLength":48,
			"byteOffset":328476,
			"target":34962
		},
		{
			"buffer":0,
			"byteLength":96,
			"byteOffset":328524,
			"target":34962
		},
		{
			"buffer":0,
			"byteLength":96,
			"byteOffset":328620,
			"target":34962
		},
		{
			"buffer":0,
			"byteLength":64,
			"byteOffset":328716,
			"target":34962
		},
		{
			"buffer":0,
			"byteLength":18,
			"byteOffset":328780,
			"target":34963
		},
		{
			"buffer":0,
			"byteLength":48,
			"byteOffset":328800,
			"target":34962
		},
		{
			"buffer":0,
			"byteLength":48,
			"byteOffset":328848,
			"target":34962
		},
		{
			"buffer":0,
			"byteLength":32,
			"byteOffset":328896,
			"target":34962
		},
		{
			"buffer":0,
			"byteLength":60,
			"byteOffset":328928,
			"target":34962
		},
		{
			"buffer":0,
			"byteLength":60,
			"byteOffset":328988,
			"target":34962
		},
		{
			"buffer":0,
			"byteLength":40,
			"byteOffset":329048,
			"target":34962
		},
		{
			"buffer":0,
			"byteLength":48,
			"byteOffset":329088,
			"target":34962
		},
		{
			"buffer":0,
			"byteLength":48,
			"byteOffset":329136,
			"target":34962
		},
		{
			"buffer":0,
			"byteLength":32,
			"byteOffset":329184,
			"target":34962
		},
		{
			"buffer":0,
			"byteLength":12,
			"byteOffset":329216,
			"target":34963
		},
		{
			"buffer":0,
			"byteLength":48,
			"byteOffset":329228,
			"target":34962
		},
		{
			"buffer":0,
			"byteLength":48,
			"byteOffset":329276,
			"target":34962
		},
		{
			"buffer":0,
			"byteLength":32,
			"byteOffset":329324,
			"target":34962
		},
		{
			"buffer":0,
			"byteLength":48,
			"byteOffset":329356,
			"target":34962
		},
		{
			"buffer":0,
			"byteLength":48,
			"byteOffset":329404,
			"target":34962
		},
		{
			"buffer":0,
			"byteLength":32,
			"byteOffset":329452,
			"target":34962
		},
		{
			"buffer":0,
			"byteLength":48,
			"byteOffset":329484,
			"target":34962
		},
		{
			"buffer":0,
			"byteLength":48,
			"byteOffset":329532,
			"target":34962
		},
		{
			"buffer":0,
			"byteLength":32,
			"byteOffset":329580,
			"target":34962
		},
		{
			"buffer":0,
			"byteLength":48,
			"byteOffset":329612,
			"target":34962
		},
		{
			"buffer":0,
			"byteLength":48,
			"byteOffset":329660,
			"target":34962
		},
		{
			"buffer":0,
			"byteLength":32,
			"byteOffset":329708,
			"target":34962
		},
		{
			"buffer":0,
			"byteLength":48,
			"byteOffset":329740,
			"target":34962
		},
		{
			"buffer":0,
			"byteLength":48,
			"byteOffset":329788,
			"target":34962
		},
		{
			"buffer":0,
			"byteLength":32,
			"byteOffset":329836,
			"target":34962
		},
		{
			"buffer":0,
			"byteLength":48,
			"byteOffset":329868,
			"target":34962
		},
		{
			"buffer":0,
			"byteLength":48,
			"byteOffset":329916,
			"target":34962
		},
		{
			"buffer":0,
			"byteLength":32,
			"byteOffset":329964,
			"target":34962
		},
		{
			"buffer":0,
			"byteLength":48,
			"byteOffset":329996,
			"target":34962
		},
		{
			"buffer":0,
			"byteLength":48,
			"byteOffset":330044,
			"target":34962
		},
		{
			"buffer":0,
			"byteLength":32,
			"byteOffset":330092,
			"target":34962
		}
	],
	"buffers":[
		{
			"byteLength":330124,
			"uri":"Break_Ship.bin"
		}
	]
}
