{
	"asset":{
		"generator":"Khronos glTF Blender I/O v4.4.56",
		"version":"2.0"
	},
	"scene":0,
	"scenes":[
		{
			"name":"Scene",
			"nodes":[
				4
			]
		}
	],
	"nodes":[
		{
			"name":"Sway"
		},
		{
			"children":[
				0
			],
			"name":"Root"
		},
		{
			"mesh":0,
			"name":"Urchin_Spines",
			"skin":0
		},
		{
			"mesh":1,
			"name":"Urchin_Test",
			"skin":0
		},
		{
			"children":[
				2,
				3,
				1
			],
			"name":"sea_urchin_Rig"
		}
	],
	"animations":[
		{
			"channels":[
				{
					"sampler":0,
					"target":{
						"node":1,
						"path":"translation"
					}
				},
				{
					"sampler":1,
					"target":{
						"node":1,
						"path":"rotation"
					}
				},
				{
					"sampler":2,
					"target":{
						"node":1,
						"path":"scale"
					}
				},
				{
					"sampler":3,
					"target":{
						"node":0,
						"path":"translation"
					}
				},
				{
					"sampler":4,
					"target":{
						"node":0,
						"path":"rotation"
					}
				},
				{
					"sampler":5,
					"target":{
						"node":0,
						"path":"scale"
					}
				}
			],
			"name":"Idle",
			"samplers":[
				{
					"input":19,
					"interpolation":"STEP",
					"output":20
				},
				{
					"input":19,
					"interpolation":"STEP",
					"output":21
				},
				{
					"input":19,
					"interpolation":"STEP",
					"output":22
				},
				{
					"input":19,
					"interpolation":"STEP",
					"output":23
				},
				{
					"input":24,
					"interpolation":"LINEAR",
					"output":25
				},
				{
					"input":19,
					"interpolation":"STEP",
					"output":26
				}
			]
		}
	],
	"materials":[
		{
			"doubleSided":true,
			"name":"Purple Spines",
			"pbrMetallicRoughness":{
				"baseColorFactor":[
					0.2199999988079071,
					0.10000000149011612,
					0.30000001192092896,
					1
				],
				"metallicFactor":0,
				"roughnessFactor":0.5
			}
		},
		{
			"doubleSided":true,
			"name":"Lilac Tips",
			"pbrMetallicRoughness":{
				"baseColorFactor":[
					0.44999998807907104,
					0.25,
					0.5299999713897705,
					1
				],
				"metallicFactor":0,
				"roughnessFactor":0.5
			}
		},
		{
			"doubleSided":true,
			"name":"Urchin Plum",
			"pbrMetallicRoughness":{
				"baseColorFactor":[
					0.17000000178813934,
					0.054999999701976776,
					0.20999999344348907,
					1
				],
				"metallicFactor":0,
				"roughnessFactor":0.5
			}
		}
	],
	"meshes":[
		{
			"name":"Cone.049",
			"primitives":[
				{
					"attributes":{
						"POSITION":0,
						"NORMAL":1,
						"TEXCOORD_0":2,
						"JOINTS_0":3,
						"WEIGHTS_0":4
					},
					"indices":5,
					"material":0
				},
				{
					"attributes":{
						"POSITION":6,
						"NORMAL":7,
						"TEXCOORD_0":8,
						"JOINTS_0":9,
						"WEIGHTS_0":10
					},
					"indices":11,
					"material":1
				}
			]
		},
		{
			"name":"Sphere.067",
			"primitives":[
				{
					"attributes":{
						"POSITION":13,
						"NORMAL":14,
						"TEXCOORD_0":15,
						"JOINTS_0":16,
						"WEIGHTS_0":17
					},
					"indices":18,
					"material":2
				}
			]
		}
	],
	"skins":[
		{
			"inverseBindMatrices":12,
			"joints":[
				1,
				0
			],
			"name":"sea_urchin_Rig"
		}
	],
	"accessors":[
		{
			"bufferView":0,
			"componentType":5126,
			"count":3377,
			"max":[
				1.1102689504623413,
				0.9849370121955872,
				1.084180235862732
			],
			"min":[
				-1.1145533323287964,
				-0.990380048751831,
				-1.0991500616073608
			],
			"type":"VEC3"
		},
		{
			"bufferView":1,
			"componentType":5126,
			"count":3377,
			"type":"VEC3"
		},
		{
			"bufferView":2,
			"componentType":5126,
			"count":3377,
			"type":"VEC2"
		},
		{
			"bufferView":3,
			"componentType":5121,
			"count":3377,
			"type":"VEC4"
		},
		{
			"bufferView":4,
			"componentType":5126,
			"count":3377,
			"type":"VEC4"
		},
		{
			"bufferView":5,
			"componentType":5123,
			"count":5280,
			"type":"SCALAR"
		},
		{
			"bufferView":6,
			"componentType":5126,
			"count":4204,
			"max":[
				1.2513329982757568,
				1.1213089227676392,
				1.2141268253326416
			],
			"min":[
				-1.2538063526153564,
				-1.1247717142105103,
				-1.2369667291641235
			],
			"type":"VEC3"
		},
		{
			"bufferView":7,
			"componentType":5126,
			"count":4204,
			"type":"VEC3"
		},
		{
			"bufferView":8,
			"componentType":5126,
			"count":4204,
			"type":"VEC2"
		},
		{
			"bufferView":9,
			"componentType":5121,
			"count":4204,
			"type":"VEC4"
		},
		{
			"bufferView":10,
			"componentType":5126,
			"count":4204,
			"type":"VEC4"
		},
		{
			"bufferView":11,
			"componentType":5123,
			"count":5280,
			"type":"SCALAR"
		},
		{
			"bufferView":12,
			"componentType":5126,
			"count":2,
			"type":"MAT4"
		},
		{
			"bufferView":13,
			"componentType":5126,
			"count":920,
			"max":[
				0.7200000882148743,
				0.6100000143051147,
				0.7200002074241638
			],
			"min":[
				-0.7200003862380981,
				-0.6100000143051147,
				-0.7200000286102295
			],
			"type":"VEC3"
		},
		{
			"bufferView":14,
			"componentType":5126,
			"count":920,
			"type":"VEC3"
		},
		{
			"bufferView":15,
			"componentType":5126,
			"count":920,
			"type":"VEC2"
		},
		{
			"bufferView":16,
			"componentType":5121,
			"count":920,
			"type":"VEC4"
		},
		{
			"bufferView":17,
			"componentType":5126,
			"count":920,
			"type":"VEC4"
		},
		{
			"bufferView":18,
			"componentType":5123,
			"count":1320,
			"type":"SCALAR"
		},
		{
			"bufferView":19,
			"componentType":5126,
			"count":2,
			"max":[
				1.6333333333333333
			],
			"min":[
				0.03333333333333333
			],
			"type":"SCALAR"
		},
		{
			"bufferView":20,
			"componentType":5126,
			"count":2,
			"type":"VEC3"
		},
		{
			"bufferView":21,
			"componentType":5126,
			"count":2,
			"type":"VEC4"
		},
		{
			"bufferView":22,
			"componentType":5126,
			"count":2,
			"type":"VEC3"
		},
		{
			"bufferView":23,
			"componentType":5126,
			"count":2,
			"type":"VEC3"
		},
		{
			"bufferView":24,
			"componentType":5126,
			"count":49,
			"max":[
				1.6333333333333333
			],
			"min":[
				0.03333333333333333
			],
			"type":"SCALAR"
		},
		{
			"bufferView":25,
			"componentType":5126,
			"count":49,
			"type":"VEC4"
		},
		{
			"bufferView":26,
			"componentType":5126,
			"count":2,
			"type":"VEC3"
		}
	],
	"bufferViews":[
		{
			"buffer":0,
			"byteLength":40524,
			"byteOffset":0,
			"target":34962
		},
		{
			"buffer":0,
			"byteLength":40524,
			"byteOffset":40524,
			"target":34962
		},
		{
			"buffer":0,
			"byteLength":27016,
			"byteOffset":81048,
			"target":34962
		},
		{
			"buffer":0,
			"byteLength":13508,
			"byteOffset":108064,
			"target":34962
		},
		{
			"buffer":0,
			"byteLength":54032,
			"byteOffset":121572,
			"target":34962
		},
		{
			"buffer":0,
			"byteLength":10560,
			"byteOffset":175604,
			"target":34963
		},
		{
			"buffer":0,
			"byteLength":50448,
			"byteOffset":186164,
			"target":34962
		},
		{
			"buffer":0,
			"byteLength":50448,
			"byteOffset":236612,
			"target":34962
		},
		{
			"buffer":0,
			"byteLength":33632,
			"byteOffset":287060,
			"target":34962
		},
		{
			"buffer":0,
			"byteLength":16816,
			"byteOffset":320692,
			"target":34962
		},
		{
			"buffer":0,
			"byteLength":67264,
			"byteOffset":337508,
			"target":34962
		},
		{
			"buffer":0,
			"byteLength":10560,
			"byteOffset":404772,
			"target":34963
		},
		{
			"buffer":0,
			"byteLength":128,
			"byteOffset":415332
		},
		{
			"buffer":0,
			"byteLength":11040,
			"byteOffset":415460,
			"target":34962
		},
		{
			"buffer":0,
			"byteLength":11040,
			"byteOffset":426500,
			"target":34962
		},
		{
			"buffer":0,
			"byteLength":7360,
			"byteOffset":437540,
			"target":34962
		},
		{
			"buffer":0,
			"byteLength":3680,
			"byteOffset":444900,
			"target":34962
		},
		{
			"buffer":0,
			"byteLength":14720,
			"byteOffset":448580,
			"target":34962
		},
		{
			"buffer":0,
			"byteLength":2640,
			"byteOffset":463300,
			"target":34963
		},
		{
			"buffer":0,
			"byteLength":8,
			"byteOffset":465940
		},
		{
			"buffer":0,
			"byteLength":24,
			"byteOffset":465948
		},
		{
			"buffer":0,
			"byteLength":32,
			"byteOffset":465972
		},
		{
			"buffer":0,
			"byteLength":24,
			"byteOffset":466004
		},
		{
			"buffer":0,
			"byteLength":24,
			"byteOffset":466028
		},
		{
			"buffer":0,
			"byteLength":196,
			"byteOffset":466052
		},
		{
			"buffer":0,
			"byteLength":784,
			"byteOffset":466248
		},
		{
			"buffer":0,
			"byteLength":24,
			"byteOffset":467032
		}
	],
	"buffers":[
		{
			"byteLength":467056,
			"uri":"sea_urchin.bin"
		}
	]
}
