{
	"asset":{
		"generator":"Khronos glTF Blender I/O v4.4.56",
		"version":"2.0"
	},
	"scene":0,
	"scenes":[
		{
			"name":"Scene",
			"nodes":[
				44
			]
		}
	],
	"nodes":[
		{
			"name":"Spine_2",
			"translation":[
				4.027073860168457,
				0,
				0
			]
		},
		{
			"children":[
				0
			],
			"name":"Spine_1",
			"translation":[
				4.027073383331299,
				0,
				0
			]
		},
		{
			"children":[
				1
			],
			"name":"Spine_0",
			"translation":[
				-2.68178653717041,
				0,
				0
			]
		},
		{
			"children":[
				2
			],
			"name":"Root"
		},
		{
			"mesh":0,
			"name":"Anal_Fin",
			"skin":0
		},
		{
			"mesh":1,
			"name":"DiscLamella_00_-1",
			"skin":0
		},
		{
			"mesh":2,
			"name":"DiscLamella_00_1",
			"skin":0
		},
		{
			"mesh":3,
			"name":"DiscLamella_01_-1",
			"skin":0
		},
		{
			"mesh":4,
			"name":"DiscLamella_01_1",
			"skin":0
		},
		{
			"mesh":5,
			"name":"DiscLamella_02_-1",
			"skin":0
		},
		{
			"mesh":6,
			"name":"DiscLamella_02_1",
			"skin":0
		},
		{
			"mesh":7,
			"name":"DiscLamella_03_-1",
			"skin":0
		},
		{
			"mesh":8,
			"name":"DiscLamella_03_1",
			"skin":0
		},
		{
			"mesh":9,
			"name":"DiscLamella_04_-1",
			"skin":0
		},
		{
			"mesh":10,
			"name":"DiscLamella_04_1",
			"skin":0
		},
		{
			"mesh":11,
			"name":"DiscLamella_05_-1",
			"skin":0
		},
		{
			"mesh":12,
			"name":"DiscLamella_05_1",
			"skin":0
		},
		{
			"mesh":13,
			"name":"DiscLamella_06_-1",
			"skin":0
		},
		{
			"mesh":14,
			"name":"DiscLamella_06_1",
			"skin":0
		},
		{
			"mesh":15,
			"name":"DiscLamella_07_-1",
			"skin":0
		},
		{
			"mesh":16,
			"name":"DiscLamella_07_1",
			"skin":0
		},
		{
			"mesh":17,
			"name":"DiscLamella_08_-1",
			"skin":0
		},
		{
			"mesh":18,
			"name":"DiscLamella_08_1",
			"skin":0
		},
		{
			"mesh":19,
			"name":"DiscLamella_09_-1",
			"skin":0
		},
		{
			"mesh":20,
			"name":"DiscLamella_09_1",
			"skin":0
		},
		{
			"mesh":21,
			"name":"DiscLamella_10_-1",
			"skin":0
		},
		{
			"mesh":22,
			"name":"DiscLamella_10_1",
			"skin":0
		},
		{
			"mesh":23,
			"name":"DiscLamella_11_-1",
			"skin":0
		},
		{
			"mesh":24,
			"name":"DiscLamella_11_1",
			"skin":0
		},
		{
			"mesh":25,
			"name":"Dorsal_Fin",
			"skin":0
		},
		{
			"mesh":26,
			"name":"Eye_-1",
			"skin":0
		},
		{
			"mesh":27,
			"name":"Eye_1",
			"skin":0
		},
		{
			"mesh":28,
			"name":"EyeHighlight_-1",
			"skin":0
		},
		{
			"mesh":29,
			"name":"EyeHighlight_1",
			"skin":0
		},
		{
			"mesh":30,
			"name":"EyeSocket_-1",
			"skin":0
		},
		{
			"mesh":31,
			"name":"EyeSocket_1",
			"skin":0
		},
		{
			"mesh":32,
			"name":"Gill_-1",
			"skin":0
		},
		{
			"mesh":33,
			"name":"Gill_1",
			"skin":0
		},
		{
			"mesh":34,
			"name":"Pectoral_-1",
			"skin":0
		},
		{
			"mesh":35,
			"name":"Pectoral_1",
			"skin":0
		},
		{
			"mesh":36,
			"name":"Pelvic_-1",
			"skin":0
		},
		{
			"mesh":37,
			"name":"Pelvic_1",
			"skin":0
		},
		{
			"mesh":38,
			"name":"Remora_Body",
			"skin":0
		},
		{
			"mesh":39,
			"name":"Remora_SuctionDisc",
			"skin":0
		},
		{
			"children":[
				4,
				5,
				6,
				7,
				8,
				9,
				10,
				11,
				12,
				13,
				14,
				15,
				16,
				17,
				18,
				19,
				20,
				21,
				22,
				23,
				24,
				25,
				26,
				27,
				28,
				29,
				30,
				31,
				32,
				33,
				34,
				35,
				36,
				37,
				38,
				39,
				40,
				41,
				42,
				43,
				3
			],
			"name":"suckfish_Rig"
		}
	],
	"animations":[
		{
			"channels":[
				{
					"sampler":0,
					"target":{
						"node":3,
						"path":"translation"
					}
				},
				{
					"sampler":1,
					"target":{
						"node":3,
						"path":"rotation"
					}
				},
				{
					"sampler":2,
					"target":{
						"node":3,
						"path":"scale"
					}
				},
				{
					"sampler":3,
					"target":{
						"node":2,
						"path":"translation"
					}
				},
				{
					"sampler":4,
					"target":{
						"node":2,
						"path":"rotation"
					}
				},
				{
					"sampler":5,
					"target":{
						"node":2,
						"path":"scale"
					}
				},
				{
					"sampler":6,
					"target":{
						"node":1,
						"path":"translation"
					}
				},
				{
					"sampler":7,
					"target":{
						"node":1,
						"path":"rotation"
					}
				},
				{
					"sampler":8,
					"target":{
						"node":1,
						"path":"scale"
					}
				},
				{
					"sampler":9,
					"target":{
						"node":0,
						"path":"translation"
					}
				},
				{
					"sampler":10,
					"target":{
						"node":0,
						"path":"rotation"
					}
				},
				{
					"sampler":11,
					"target":{
						"node":0,
						"path":"scale"
					}
				}
			],
			"name":"Swim",
			"samplers":[
				{
					"input":334,
					"interpolation":"LINEAR",
					"output":335
				},
				{
					"input":336,
					"interpolation":"STEP",
					"output":337
				},
				{
					"input":336,
					"interpolation":"STEP",
					"output":338
				},
				{
					"input":336,
					"interpolation":"STEP",
					"output":339
				},
				{
					"input":334,
					"interpolation":"LINEAR",
					"output":340
				},
				{
					"input":336,
					"interpolation":"STEP",
					"output":341
				},
				{
					"input":336,
					"interpolation":"LINEAR",
					"output":342
				},
				{
					"input":334,
					"interpolation":"LINEAR",
					"output":343
				},
				{
					"input":336,
					"interpolation":"STEP",
					"output":344
				},
				{
					"input":336,
					"interpolation":"LINEAR",
					"output":345
				},
				{
					"input":334,
					"interpolation":"LINEAR",
					"output":346
				},
				{
					"input":336,
					"interpolation":"STEP",
					"output":347
				}
			]
		}
	],
	"materials":[
		{
			"doubleSided":true,
			"name":"Fin slate",
			"pbrMetallicRoughness":{
				"baseColorFactor":[
					0.12999999523162842,
					0.25999999046325684,
					0.3100000023841858,
					1
				],
				"metallicFactor":0,
				"roughnessFactor":0.699999988079071
			}
		},
		{
			"doubleSided":true,
			"name":"Fin edge",
			"pbrMetallicRoughness":{
				"baseColorFactor":[
					0.25999999046325684,
					0.41999998688697815,
					0.44999998807907104,
					1
				],
				"metallicFactor":0,
				"roughnessFactor":0.699999988079071
			}
		},
		{
			"doubleSided":true,
			"name":"Disc ridges",
			"pbrMetallicRoughness":{
				"baseColorFactor":[
					0.20999999344348907,
					0.3499999940395355,
					0.36000001430511475,
					1
				],
				"metallicFactor":0,
				"roughnessFactor":0.699999988079071
			}
		},
		{
			"doubleSided":true,
			"name":"Black eyes",
			"pbrMetallicRoughness":{
				"baseColorFactor":[
					0.00800000037997961,
					0.013000000268220901,
					0.01600000075995922,
					1
				],
				"metallicFactor":0,
				"roughnessFactor":0.20000000298023224
			}
		},
		{
			"doubleSided":true,
			"name":"Eye glint",
			"pbrMetallicRoughness":{
				"baseColorFactor":[
					0.9200000166893005,
					0.9700000286102295,
					0.9599999785423279,
					1
				],
				"metallicFactor":0,
				"roughnessFactor":0.18000000715255737
			}
		},
		{
			"doubleSided":true,
			"name":"Eye rim",
			"pbrMetallicRoughness":{
				"baseColorFactor":[
					0.4300000071525574,
					0.550000011920929,
					0.5299999713897705,
					1
				],
				"metallicFactor":0,
				"roughnessFactor":0.4000000059604645
			}
		},
		{
			"doubleSided":true,
			"name":"Deep side stripe",
			"pbrMetallicRoughness":{
				"baseColorFactor":[
					0.04500000178813934,
					0.09000000357627869,
					0.11999999731779099,
					1
				],
				"metallicFactor":0,
				"roughnessFactor":0.699999988079071
			}
		},
		{
			"doubleSided":true,
			"name":"Slate blue back",
			"pbrMetallicRoughness":{
				"baseColorFactor":[
					0.10000000149011612,
					0.20000000298023224,
					0.25999999046325684,
					1
				],
				"metallicFactor":0,
				"roughnessFactor":0.699999988079071
			}
		},
		{
			"doubleSided":true,
			"name":"Blue grey flank",
			"pbrMetallicRoughness":{
				"baseColorFactor":[
					0.25,
					0.38999998569488525,
					0.4399999976158142,
					1
				],
				"metallicFactor":0,
				"roughnessFactor":0.699999988079071
			}
		},
		{
			"doubleSided":true,
			"name":"Warm pale belly",
			"pbrMetallicRoughness":{
				"baseColorFactor":[
					0.6499999761581421,
					0.7200000286102295,
					0.6899999976158142,
					1
				],
				"metallicFactor":0,
				"roughnessFactor":0.699999988079071
			}
		},
		{
			"doubleSided":true,
			"name":"Disc rim",
			"pbrMetallicRoughness":{
				"baseColorFactor":[
					0.3400000035762787,
					0.4699999988079071,
					0.47999998927116394,
					1
				],
				"metallicFactor":0,
				"roughnessFactor":0.699999988079071
			}
		}
	],
	"meshes":[
		{
			"name":"Anal_Fin",
			"primitives":[
				{
					"attributes":{
						"POSITION":0,
						"NORMAL":1,
						"JOINTS_0":2,
						"WEIGHTS_0":3
					},
					"indices":4,
					"material":0
				},
				{
					"attributes":{
						"POSITION":5,
						"NORMAL":6,
						"JOINTS_0":7,
						"WEIGHTS_0":8
					},
					"indices":9,
					"material":1
				}
			]
		},
		{
			"name":"DiscLamella_00_-1",
			"primitives":[
				{
					"attributes":{
						"POSITION":11,
						"NORMAL":12,
						"JOINTS_0":13,
						"WEIGHTS_0":14
					},
					"indices":15,
					"material":2
				},
				{
					"attributes":{
						"POSITION":16,
						"NORMAL":17,
						"JOINTS_0":18,
						"WEIGHTS_0":19
					},
					"indices":20,
					"material":1
				}
			]
		},
		{
			"name":"DiscLamella_00_1",
			"primitives":[
				{
					"attributes":{
						"POSITION":21,
						"NORMAL":22,
						"JOINTS_0":23,
						"WEIGHTS_0":24
					},
					"indices":4,
					"material":2
				},
				{
					"attributes":{
						"POSITION":25,
						"NORMAL":26,
						"JOINTS_0":27,
						"WEIGHTS_0":28
					},
					"indices":29,
					"material":1
				}
			]
		},
		{
			"name":"DiscLamella_01_-1",
			"primitives":[
				{
					"attributes":{
						"POSITION":30,
						"NORMAL":31,
						"JOINTS_0":32,
						"WEIGHTS_0":33
					},
					"indices":15,
					"material":2
				},
				{
					"attributes":{
						"POSITION":34,
						"NORMAL":35,
						"JOINTS_0":36,
						"WEIGHTS_0":37
					},
					"indices":20,
					"material":1
				}
			]
		},
		{
			"name":"DiscLamella_01_1",
			"primitives":[
				{
					"attributes":{
						"POSITION":38,
						"NORMAL":39,
						"JOINTS_0":40,
						"WEIGHTS_0":41
					},
					"indices":4,
					"material":2
				},
				{
					"attributes":{
						"POSITION":42,
						"NORMAL":43,
						"JOINTS_0":44,
						"WEIGHTS_0":45
					},
					"indices":29,
					"material":1
				}
			]
		},
		{
			"name":"DiscLamella_02_-1",
			"primitives":[
				{
					"attributes":{
						"POSITION":46,
						"NORMAL":47,
						"JOINTS_0":48,
						"WEIGHTS_0":49
					},
					"indices":15,
					"material":2
				},
				{
					"attributes":{
						"POSITION":50,
						"NORMAL":51,
						"JOINTS_0":52,
						"WEIGHTS_0":53
					},
					"indices":20,
					"material":1
				}
			]
		},
		{
			"name":"DiscLamella_02_1",
			"primitives":[
				{
					"attributes":{
						"POSITION":54,
						"NORMAL":55,
						"JOINTS_0":56,
						"WEIGHTS_0":57
					},
					"indices":4,
					"material":2
				},
				{
					"attributes":{
						"POSITION":58,
						"NORMAL":59,
						"JOINTS_0":60,
						"WEIGHTS_0":61
					},
					"indices":29,
					"material":1
				}
			]
		},
		{
			"name":"DiscLamella_03_-1",
			"primitives":[
				{
					"attributes":{
						"POSITION":62,
						"NORMAL":63,
						"JOINTS_0":64,
						"WEIGHTS_0":65
					},
					"indices":15,
					"material":2
				},
				{
					"attributes":{
						"POSITION":66,
						"NORMAL":67,
						"JOINTS_0":68,
						"WEIGHTS_0":69
					},
					"indices":20,
					"material":1
				}
			]
		},
		{
			"name":"DiscLamella_03_1",
			"primitives":[
				{
					"attributes":{
						"POSITION":70,
						"NORMAL":71,
						"JOINTS_0":72,
						"WEIGHTS_0":73
					},
					"indices":4,
					"material":2
				},
				{
					"attributes":{
						"POSITION":74,
						"NORMAL":75,
						"JOINTS_0":76,
						"WEIGHTS_0":77
					},
					"indices":29,
					"material":1
				}
			]
		},
		{
			"name":"DiscLamella_04_-1",
			"primitives":[
				{
					"attributes":{
						"POSITION":78,
						"NORMAL":79,
						"JOINTS_0":80,
						"WEIGHTS_0":81
					},
					"indices":15,
					"material":2
				},
				{
					"attributes":{
						"POSITION":82,
						"NORMAL":83,
						"JOINTS_0":84,
						"WEIGHTS_0":85
					},
					"indices":20,
					"material":1
				}
			]
		},
		{
			"name":"DiscLamella_04_1",
			"primitives":[
				{
					"attributes":{
						"POSITION":86,
						"NORMAL":87,
						"JOINTS_0":88,
						"WEIGHTS_0":89
					},
					"indices":4,
					"material":2
				},
				{
					"attributes":{
						"POSITION":90,
						"NORMAL":91,
						"JOINTS_0":92,
						"WEIGHTS_0":93
					},
					"indices":29,
					"material":1
				}
			]
		},
		{
			"name":"DiscLamella_05_-1",
			"primitives":[
				{
					"attributes":{
						"POSITION":94,
						"NORMAL":95,
						"JOINTS_0":96,
						"WEIGHTS_0":97
					},
					"indices":15,
					"material":2
				},
				{
					"attributes":{
						"POSITION":98,
						"NORMAL":99,
						"JOINTS_0":100,
						"WEIGHTS_0":101
					},
					"indices":20,
					"material":1
				}
			]
		},
		{
			"name":"DiscLamella_05_1",
			"primitives":[
				{
					"attributes":{
						"POSITION":102,
						"NORMAL":103,
						"JOINTS_0":104,
						"WEIGHTS_0":105
					},
					"indices":4,
					"material":2
				},
				{
					"attributes":{
						"POSITION":106,
						"NORMAL":107,
						"JOINTS_0":108,
						"WEIGHTS_0":109
					},
					"indices":29,
					"material":1
				}
			]
		},
		{
			"name":"DiscLamella_06_-1",
			"primitives":[
				{
					"attributes":{
						"POSITION":110,
						"NORMAL":111,
						"JOINTS_0":112,
						"WEIGHTS_0":113
					},
					"indices":15,
					"material":2
				},
				{
					"attributes":{
						"POSITION":114,
						"NORMAL":115,
						"JOINTS_0":116,
						"WEIGHTS_0":117
					},
					"indices":20,
					"material":1
				}
			]
		},
		{
			"name":"DiscLamella_06_1",
			"primitives":[
				{
					"attributes":{
						"POSITION":118,
						"NORMAL":119,
						"JOINTS_0":120,
						"WEIGHTS_0":121
					},
					"indices":4,
					"material":2
				},
				{
					"attributes":{
						"POSITION":122,
						"NORMAL":123,
						"JOINTS_0":124,
						"WEIGHTS_0":125
					},
					"indices":29,
					"material":1
				}
			]
		},
		{
			"name":"DiscLamella_07_-1",
			"primitives":[
				{
					"attributes":{
						"POSITION":126,
						"NORMAL":127,
						"JOINTS_0":128,
						"WEIGHTS_0":129
					},
					"indices":15,
					"material":2
				},
				{
					"attributes":{
						"POSITION":130,
						"NORMAL":131,
						"JOINTS_0":132,
						"WEIGHTS_0":133
					},
					"indices":20,
					"material":1
				}
			]
		},
		{
			"name":"DiscLamella_07_1",
			"primitives":[
				{
					"attributes":{
						"POSITION":134,
						"NORMAL":135,
						"JOINTS_0":136,
						"WEIGHTS_0":137
					},
					"indices":4,
					"material":2
				},
				{
					"attributes":{
						"POSITION":138,
						"NORMAL":139,
						"JOINTS_0":140,
						"WEIGHTS_0":141
					},
					"indices":29,
					"material":1
				}
			]
		},
		{
			"name":"DiscLamella_08_-1",
			"primitives":[
				{
					"attributes":{
						"POSITION":142,
						"NORMAL":143,
						"JOINTS_0":144,
						"WEIGHTS_0":145
					},
					"indices":15,
					"material":2
				},
				{
					"attributes":{
						"POSITION":146,
						"NORMAL":147,
						"JOINTS_0":148,
						"WEIGHTS_0":149
					},
					"indices":20,
					"material":1
				}
			]
		},
		{
			"name":"DiscLamella_08_1",
			"primitives":[
				{
					"attributes":{
						"POSITION":150,
						"NORMAL":151,
						"JOINTS_0":152,
						"WEIGHTS_0":153
					},
					"indices":4,
					"material":2
				},
				{
					"attributes":{
						"POSITION":154,
						"NORMAL":155,
						"JOINTS_0":156,
						"WEIGHTS_0":157
					},
					"indices":29,
					"material":1
				}
			]
		},
		{
			"name":"DiscLamella_09_-1",
			"primitives":[
				{
					"attributes":{
						"POSITION":158,
						"NORMAL":159,
						"JOINTS_0":160,
						"WEIGHTS_0":161
					},
					"indices":15,
					"material":2
				},
				{
					"attributes":{
						"POSITION":162,
						"NORMAL":163,
						"JOINTS_0":164,
						"WEIGHTS_0":165
					},
					"indices":20,
					"material":1
				}
			]
		},
		{
			"name":"DiscLamella_09_1",
			"primitives":[
				{
					"attributes":{
						"POSITION":166,
						"NORMAL":167,
						"JOINTS_0":168,
						"WEIGHTS_0":169
					},
					"indices":4,
					"material":2
				},
				{
					"attributes":{
						"POSITION":170,
						"NORMAL":171,
						"JOINTS_0":172,
						"WEIGHTS_0":173
					},
					"indices":29,
					"material":1
				}
			]
		},
		{
			"name":"DiscLamella_10_-1",
			"primitives":[
				{
					"attributes":{
						"POSITION":174,
						"NORMAL":175,
						"JOINTS_0":176,
						"WEIGHTS_0":177
					},
					"indices":15,
					"material":2
				},
				{
					"attributes":{
						"POSITION":178,
						"NORMAL":179,
						"JOINTS_0":180,
						"WEIGHTS_0":181
					},
					"indices":20,
					"material":1
				}
			]
		},
		{
			"name":"DiscLamella_10_1",
			"primitives":[
				{
					"attributes":{
						"POSITION":182,
						"NORMAL":183,
						"JOINTS_0":184,
						"WEIGHTS_0":185
					},
					"indices":4,
					"material":2
				},
				{
					"attributes":{
						"POSITION":186,
						"NORMAL":187,
						"JOINTS_0":188,
						"WEIGHTS_0":189
					},
					"indices":29,
					"material":1
				}
			]
		},
		{
			"name":"DiscLamella_11_-1",
			"primitives":[
				{
					"attributes":{
						"POSITION":190,
						"NORMAL":191,
						"JOINTS_0":192,
						"WEIGHTS_0":193
					},
					"indices":15,
					"material":2
				},
				{
					"attributes":{
						"POSITION":194,
						"NORMAL":195,
						"JOINTS_0":196,
						"WEIGHTS_0":197
					},
					"indices":20,
					"material":1
				}
			]
		},
		{
			"name":"DiscLamella_11_1",
			"primitives":[
				{
					"attributes":{
						"POSITION":198,
						"NORMAL":199,
						"JOINTS_0":200,
						"WEIGHTS_0":201
					},
					"indices":4,
					"material":2
				},
				{
					"attributes":{
						"POSITION":202,
						"NORMAL":203,
						"JOINTS_0":204,
						"WEIGHTS_0":205
					},
					"indices":29,
					"material":1
				}
			]
		},
		{
			"name":"Dorsal_Fin",
			"primitives":[
				{
					"attributes":{
						"POSITION":206,
						"NORMAL":207,
						"JOINTS_0":208,
						"WEIGHTS_0":209
					},
					"indices":4,
					"material":0
				},
				{
					"attributes":{
						"POSITION":210,
						"NORMAL":211,
						"JOINTS_0":212,
						"WEIGHTS_0":213
					},
					"indices":9,
					"material":1
				}
			]
		},
		{
			"name":"Sphere.007",
			"primitives":[
				{
					"attributes":{
						"POSITION":214,
						"NORMAL":215,
						"TEXCOORD_0":216,
						"JOINTS_0":217,
						"WEIGHTS_0":218
					},
					"indices":219,
					"material":3
				}
			]
		},
		{
			"name":"Sphere.011",
			"primitives":[
				{
					"attributes":{
						"POSITION":220,
						"NORMAL":221,
						"TEXCOORD_0":222,
						"JOINTS_0":223,
						"WEIGHTS_0":224
					},
					"indices":225,
					"material":3
				}
			]
		},
		{
			"name":"Sphere.008",
			"primitives":[
				{
					"attributes":{
						"POSITION":226,
						"NORMAL":227,
						"TEXCOORD_0":228,
						"JOINTS_0":229,
						"WEIGHTS_0":230
					},
					"indices":231,
					"material":4
				}
			]
		},
		{
			"name":"Sphere.012",
			"primitives":[
				{
					"attributes":{
						"POSITION":232,
						"NORMAL":233,
						"TEXCOORD_0":234,
						"JOINTS_0":235,
						"WEIGHTS_0":236
					},
					"indices":237,
					"material":4
				}
			]
		},
		{
			"name":"Sphere.006",
			"primitives":[
				{
					"attributes":{
						"POSITION":238,
						"NORMAL":239,
						"TEXCOORD_0":240,
						"JOINTS_0":241,
						"WEIGHTS_0":242
					},
					"indices":243,
					"material":5
				}
			]
		},
		{
			"name":"Sphere.010",
			"primitives":[
				{
					"attributes":{
						"POSITION":244,
						"NORMAL":245,
						"TEXCOORD_0":246,
						"JOINTS_0":247,
						"WEIGHTS_0":248
					},
					"indices":249,
					"material":5
				}
			]
		},
		{
			"name":"Sphere.009",
			"primitives":[
				{
					"attributes":{
						"POSITION":250,
						"NORMAL":251,
						"TEXCOORD_0":252,
						"JOINTS_0":253,
						"WEIGHTS_0":254
					},
					"indices":255,
					"material":6
				}
			]
		},
		{
			"name":"Sphere.013",
			"primitives":[
				{
					"attributes":{
						"POSITION":256,
						"NORMAL":257,
						"TEXCOORD_0":258,
						"JOINTS_0":259,
						"WEIGHTS_0":260
					},
					"indices":261,
					"material":6
				}
			]
		},
		{
			"name":"Pectoral_-1",
			"primitives":[
				{
					"attributes":{
						"POSITION":262,
						"NORMAL":263,
						"JOINTS_0":264,
						"WEIGHTS_0":265
					},
					"indices":4,
					"material":0
				},
				{
					"attributes":{
						"POSITION":266,
						"NORMAL":267,
						"JOINTS_0":268,
						"WEIGHTS_0":269
					},
					"indices":270,
					"material":1
				}
			]
		},
		{
			"name":"Pectoral_1",
			"primitives":[
				{
					"attributes":{
						"POSITION":271,
						"NORMAL":272,
						"JOINTS_0":273,
						"WEIGHTS_0":274
					},
					"indices":15,
					"material":0
				},
				{
					"attributes":{
						"POSITION":275,
						"NORMAL":276,
						"JOINTS_0":277,
						"WEIGHTS_0":278
					},
					"indices":270,
					"material":1
				}
			]
		},
		{
			"name":"Pelvic_-1",
			"primitives":[
				{
					"attributes":{
						"POSITION":279,
						"NORMAL":280,
						"JOINTS_0":281,
						"WEIGHTS_0":282
					},
					"indices":283,
					"material":0
				},
				{
					"attributes":{
						"POSITION":284,
						"NORMAL":285,
						"JOINTS_0":286,
						"WEIGHTS_0":287
					},
					"indices":288,
					"material":1
				}
			]
		},
		{
			"name":"Pelvic_1",
			"primitives":[
				{
					"attributes":{
						"POSITION":289,
						"NORMAL":290,
						"JOINTS_0":291,
						"WEIGHTS_0":292
					},
					"indices":293,
					"material":0
				},
				{
					"attributes":{
						"POSITION":294,
						"NORMAL":295,
						"JOINTS_0":296,
						"WEIGHTS_0":297
					},
					"indices":288,
					"material":1
				}
			]
		},
		{
			"name":"Cube.002",
			"primitives":[
				{
					"attributes":{
						"POSITION":298,
						"NORMAL":299,
						"TEXCOORD_0":300,
						"JOINTS_0":301,
						"WEIGHTS_0":302
					},
					"indices":303,
					"material":7
				},
				{
					"attributes":{
						"POSITION":304,
						"NORMAL":305,
						"TEXCOORD_0":306,
						"JOINTS_0":307,
						"WEIGHTS_0":308
					},
					"indices":309,
					"material":8
				},
				{
					"attributes":{
						"POSITION":310,
						"NORMAL":311,
						"TEXCOORD_0":312,
						"JOINTS_0":313,
						"WEIGHTS_0":314
					},
					"indices":315,
					"material":9
				},
				{
					"attributes":{
						"POSITION":316,
						"NORMAL":317,
						"TEXCOORD_0":318,
						"JOINTS_0":319,
						"WEIGHTS_0":320
					},
					"indices":321,
					"material":6
				},
				{
					"attributes":{
						"POSITION":322,
						"NORMAL":323,
						"TEXCOORD_0":324,
						"JOINTS_0":325,
						"WEIGHTS_0":326
					},
					"indices":327,
					"material":0
				}
			]
		},
		{
			"name":"\u7acb\u65b9\u4f53",
			"primitives":[
				{
					"attributes":{
						"POSITION":328,
						"NORMAL":329,
						"TEXCOORD_0":330,
						"JOINTS_0":331,
						"WEIGHTS_0":332
					},
					"indices":333,
					"material":10
				}
			]
		}
	],
	"skins":[
		{
			"inverseBindMatrices":10,
			"joints":[
				3,
				2,
				1,
				0
			],
			"name":"suckfish_Rig"
		}
	],
	"accessors":[
		{
			"bufferView":0,
			"componentType":5126,
			"count":12,
			"max":[
				5.300000190734863,
				-0.2775265872478485,
				0.03999999910593033
			],
			"min":[
				0.699999988079071,
				-1.2329028844833374,
				-0.03999999910593033
			],
			"type":"VEC3"
		},
		{
			"bufferView":1,
			"componentType":5126,
			"count":12,
			"type":"VEC3"
		},
		{
			"bufferView":2,
			"componentType":5121,
			"count":12,
			"type":"VEC4"
		},
		{
			"bufferView":3,
			"componentType":5126,
			"count":12,
			"type":"VEC4"
		},
		{
			"bufferView":4,
			"componentType":5123,
			"count":18,
			"type":"SCALAR"
		},
		{
			"bufferView":5,
			"componentType":5126,
			"count":12,
			"max":[
				5.300000190734863,
				-0.2775265872478485,
				0.03999999910593033
			],
			"min":[
				0.699999988079071,
				-1.2329028844833374,
				-0.03999999910593033
			],
			"type":"VEC3"
		},
		{
			"bufferView":6,
			"componentType":5126,
			"count":12,
			"type":"VEC3"
		},
		{
			"bufferView":7,
			"componentType":5121,
			"count":12,
			"type":"VEC4"
		},
		{
			"bufferView":8,
			"componentType":5126,
			"count":12,
			"type":"VEC4"
		},
		{
			"bufferView":9,
			"componentType":5123,
			"count":18,
			"type":"SCALAR"
		},
		{
			"bufferView":10,
			"componentType":5126,
			"count":4,
			"type":"MAT4"
		},
		{
			"bufferView":11,
			"componentType":5126,
			"count":12,
			"max":[
				-9.720000267028809,
				1.079514741897583,
				0.43068304657936096
			],
			"min":[
				-9.904999732971191,
				0.9985407590866089,
				0.03431694954633713
			],
			"type":"VEC3"
		},
		{
			"bufferView":12,
			"componentType":5126,
			"count":12,
			"type":"VEC3"
		},
		{
			"bufferView":13,
			"componentType":5121,
			"count":12,
			"type":"VEC4"
		},
		{
			"bufferView":14,
			"componentType":5126,
			"count":12,
			"type":"VEC4"
		},
		{
			"bufferView":15,
			"componentType":5123,
			"count":18,
			"type":"SCALAR"
		},
		{
			"bufferView":16,
			"componentType":5126,
			"count":12,
			"max":[
				-9.720000267028809,
				1.079514741897583,
				0.43068304657936096
			],
			"min":[
				-9.904999732971191,
				0.9985407590866089,
				0.03431694954633713
			],
			"type":"VEC3"
		},
		{
			"bufferView":17,
			"componentType":5126,
			"count":12,
			"type":"VEC3"
		},
		{
			"bufferView":18,
			"componentType":5121,
			"count":12,
			"type":"VEC4"
		},
		{
			"bufferView":19,
			"componentType":5126,
			"count":12,
			"type":"VEC4"
		},
		{
			"bufferView":20,
			"componentType":5123,
			"count":18,
			"type":"SCALAR"
		},
		{
			"bufferView":21,
			"componentType":5126,
			"count":12,
			"max":[
				-9.720000267028809,
				1.079514741897583,
				-0.03431694954633713
			],
			"min":[
				-9.904999732971191,
				0.9985407590866089,
				-0.43068304657936096
			],
			"type":"VEC3"
		},
		{
			"bufferView":22,
			"componentType":5126,
			"count":12,
			"type":"VEC3"
		},
		{
			"bufferView":23,
			"componentType":5121,
			"count":12,
			"type":"VEC4"
		},
		{
			"bufferView":24,
			"componentType":5126,
			"count":12,
			"type":"VEC4"
		},
		{
			"bufferView":25,
			"componentType":5126,
			"count":12,
			"max":[
				-9.720000267028809,
				1.079514741897583,
				-0.03431694954633713
			],
			"min":[
				-9.904999732971191,
				0.9985407590866089,
				-0.43068304657936096
			],
			"type":"VEC3"
		},
		{
			"bufferView":26,
			"componentType":5126,
			"count":12,
			"type":"VEC3"
		},
		{
			"bufferView":27,
			"componentType":5121,
			"count":12,
			"type":"VEC4"
		},
		{
			"bufferView":28,
			"componentType":5126,
			"count":12,
			"type":"VEC4"
		},
		{
			"bufferView":29,
			"componentType":5123,
			"count":18,
			"type":"SCALAR"
		},
		{
			"bufferView":30,
			"componentType":5126,
			"count":12,
			"max":[
				-9.40999984741211,
				1.0578420162200928,
				0.43068304657936096
			],
			"min":[
				-9.595000267028809,
				0.9768680334091187,
				0.03431694954633713
			],
			"type":"VEC3"
		},
		{
			"bufferView":31,
			"componentType":5126,
			"count":12,
			"type":"VEC3"
		},
		{
			"bufferView":32,
			"componentType":5121,
			"count":12,
			"type":"VEC4"
		},
		{
			"bufferView":33,
			"componentType":5126,
			"count":12,
			"type":"VEC4"
		},
		{
			"bufferView":34,
			"componentType":5126,
			"count":12,
			"max":[
				-9.40999984741211,
				1.0578420162200928,
				0.43068304657936096
			],
			"min":[
				-9.595000267028809,
				0.9768680334091187,
				0.03431694954633713
			],
			"type":"VEC3"
		},
		{
			"bufferView":35,
			"componentType":5126,
			"count":12,
			"type":"VEC3"
		},
		{
			"bufferView":36,
			"componentType":5121,
			"count":12,
			"type":"VEC4"
		},
		{
			"bufferView":37,
			"componentType":5126,
			"count":12,
			"type":"VEC4"
		},
		{
			"bufferView":38,
			"componentType":5126,
			"count":12,
			"max":[
				-9.40999984741211,
				1.0578420162200928,
				-0.03431694954633713
			],
			"min":[
				-9.595000267028809,
				0.9768680334091187,
				-0.43068304657936096
			],
			"type":"VEC3"
		},
		{
			"bufferView":39,
			"componentType":5126,
			"count":12,
			"type":"VEC3"
		},
		{
			"bufferView":40,
			"componentType":5121,
			"count":12,
			"type":"VEC4"
		},
		{
			"bufferView":41,
			"componentType":5126,
			"count":12,
			"type":"VEC4"
		},
		{
			"bufferView":42,
			"componentType":5126,
			"count":12,
			"max":[
				-9.40999984741211,
				1.0578420162200928,
				-0.03431694954633713
			],
			"min":[
				-9.595000267028809,
				0.9768680334091187,
				-0.43068304657936096
			],
			"type":"VEC3"
		},
		{
			"bufferView":43,
			"componentType":5126,
			"count":12,
			"type":"VEC3"
		},
		{
			"bufferView":44,
			"componentType":5121,
			"count":12,
			"type":"VEC4"
		},
		{
			"bufferView":45,
			"componentType":5126,
			"count":12,
			"type":"VEC4"
		},
		{
			"bufferView":46,
			"componentType":5126,
			"count":12,
			"max":[
				-9.100000381469727,
				1.0505096912384033,
				0.43068304657936096
			],
			"min":[
				-9.28499984741211,
				0.9695357084274292,
				0.03431694954633713
			],
			"type":"VEC3"
		},
		{
			"bufferView":47,
			"componentType":5126,
			"count":12,
			"type":"VEC3"
		},
		{
			"bufferView":48,
			"componentType":5121,
			"count":12,
			"type":"VEC4"
		},
		{
			"bufferView":49,
			"componentType":5126,
			"count":12,
			"type":"VEC4"
		},
		{
			"bufferView":50,
			"componentType":5126,
			"count":12,
			"max":[
				-9.100000381469727,
				1.0505096912384033,
				0.43068304657936096
			],
			"min":[
				-9.28499984741211,
				0.9695357084274292,
				0.03431694954633713
			],
			"type":"VEC3"
		},
		{
			"bufferView":51,
			"componentType":5126,
			"count":12,
			"type":"VEC3"
		},
		{
			"bufferView":52,
			"componentType":5121,
			"count":12,
			"type":"VEC4"
		},
		{
			"bufferView":53,
			"componentType":5126,
			"count":12,
			"type":"VEC4"
		},
		{
			"bufferView":54,
			"componentType":5126,
			"count":12,
			"max":[
				-9.100000381469727,
				1.0505096912384033,
				-0.03431694954633713
			],
			"min":[
				-9.28499984741211,
				0.9695357084274292,
				-0.43068304657936096
			],
			"type":"VEC3"
		},
		{
			"bufferView":55,
			"componentType":5126,
			"count":12,
			"type":"VEC3"
		},
		{
			"bufferView":56,
			"componentType":5121,
			"count":12,
			"type":"VEC4"
		},
		{
			"bufferView":57,
			"componentType":5126,
			"count":12,
			"type":"VEC4"
		},
		{
			"bufferView":58,
			"componentType":5126,
			"count":12,
			"max":[
				-9.100000381469727,
				1.0505096912384033,
				-0.03431694954633713
			],
			"min":[
				-9.28499984741211,
				0.9695357084274292,
				-0.43068304657936096
			],
			"type":"VEC3"
		},
		{
			"bufferView":59,
			"componentType":5126,
			"count":12,
			"type":"VEC3"
		},
		{
			"bufferView":60,
			"componentType":5121,
			"count":12,
			"type":"VEC4"
		},
		{
			"bufferView":61,
			"componentType":5126,
			"count":12,
			"type":"VEC4"
		},
		{
			"bufferView":62,
			"componentType":5126,
			"count":12,
			"max":[
				-8.789999961853027,
				1.0452535152435303,
				0.43068304657936096
			],
			"min":[
				-8.975000381469727,
				0.9642795324325562,
				0.03431694954633713
			],
			"type":"VEC3"
		},
		{
			"bufferView":63,
			"componentType":5126,
			"count":12,
			"type":"VEC3"
		},
		{
			"bufferView":64,
			"componentType":5121,
			"count":12,
			"type":"VEC4"
		},
		{
			"bufferView":65,
			"componentType":5126,
			"count":12,
			"type":"VEC4"
		},
		{
			"bufferView":66,
			"componentType":5126,
			"count":12,
			"max":[
				-8.789999961853027,
				1.0452535152435303,
				0.43068304657936096
			],
			"min":[
				-8.975000381469727,
				0.9642795324325562,
				0.03431694954633713
			],
			"type":"VEC3"
		},
		{
			"bufferView":67,
			"componentType":5126,
			"count":12,
			"type":"VEC3"
		},
		{
			"bufferView":68,
			"componentType":5121,
			"count":12,
			"type":"VEC4"
		},
		{
			"bufferView":69,
			"componentType":5126,
			"count":12,
			"type":"VEC4"
		},
		{
			"bufferView":70,
			"componentType":5126,
			"count":12,
			"max":[
				-8.789999961853027,
				1.0452535152435303,
				-0.03431694954633713
			],
			"min":[
				-8.975000381469727,
				0.9642795324325562,
				-0.43068304657936096
			],
			"type":"VEC3"
		},
		{
			"bufferView":71,
			"componentType":5126,
			"count":12,
			"type":"VEC3"
		},
		{
			"bufferView":72,
			"componentType":5121,
			"count":12,
			"type":"VEC4"
		},
		{
			"bufferView":73,
			"componentType":5126,
			"count":12,
			"type":"VEC4"
		},
		{
			"bufferView":74,
			"componentType":5126,
			"count":12,
			"max":[
				-8.789999961853027,
				1.0452535152435303,
				-0.03431694954633713
			],
			"min":[
				-8.975000381469727,
				0.9642795324325562,
				-0.43068304657936096
			],
			"type":"VEC3"
		},
		{
			"bufferView":75,
			"componentType":5126,
			"count":12,
			"type":"VEC3"
		},
		{
			"bufferView":76,
			"componentType":5121,
			"count":12,
			"type":"VEC4"
		},
		{
			"bufferView":77,
			"componentType":5126,
			"count":12,
			"type":"VEC4"
		},
		{
			"bufferView":78,
			"componentType":5126,
			"count":12,
			"max":[
				-8.479999542236328,
				1.036059856414795,
				0.43068304657936096
			],
			"min":[
				-8.664999961853027,
				0.9550858736038208,
				0.03431694954633713
			],
			"type":"VEC3"
		},
		{
			"bufferView":79,
			"componentType":5126,
			"count":12,
			"type":"VEC3"
		},
		{
			"bufferView":80,
			"componentType":5121,
			"count":12,
			"type":"VEC4"
		},
		{
			"bufferView":81,
			"componentType":5126,
			"count":12,
			"type":"VEC4"
		},
		{
			"bufferView":82,
			"componentType":5126,
			"count":12,
			"max":[
				-8.479999542236328,
				1.036059856414795,
				0.43068304657936096
			],
			"min":[
				-8.664999961853027,
				0.9550858736038208,
				0.03431694954633713
			],
			"type":"VEC3"
		},
		{
			"bufferView":83,
			"componentType":5126,
			"count":12,
			"type":"VEC3"
		},
		{
			"bufferView":84,
			"componentType":5121,
			"count":12,
			"type":"VEC4"
		},
		{
			"bufferView":85,
			"componentType":5126,
			"count":12,
			"type":"VEC4"
		},
		{
			"bufferView":86,
			"componentType":5126,
			"count":12,
			"max":[
				-8.479999542236328,
				1.036059856414795,
				-0.03431694954633713
			],
			"min":[
				-8.664999961853027,
				0.9550858736038208,
				-0.43068304657936096
			],
			"type":"VEC3"
		},
		{
			"bufferView":87,
			"componentType":5126,
			"count":12,
			"type":"VEC3"
		},
		{
			"bufferView":88,
			"componentType":5121,
			"count":12,
			"type":"VEC4"
		},
		{
			"bufferView":89,
			"componentType":5126,
			"count":12,
			"type":"VEC4"
		},
		{
			"bufferView":90,
			"componentType":5126,
			"count":12,
			"max":[
				-8.479999542236328,
				1.036059856414795,
				-0.03431694954633713
			],
			"min":[
				-8.664999961853027,
				0.9550858736038208,
				-0.43068304657936096
			],
			"type":"VEC3"
		},
		{
			"bufferView":91,
			"componentType":5126,
			"count":12,
			"type":"VEC3"
		},
		{
			"bufferView":92,
			"componentType":5121,
			"count":12,
			"type":"VEC4"
		},
		{
			"bufferView":93,
			"componentType":5126,
			"count":12,
			"type":"VEC4"
		},
		{
			"bufferView":94,
			"componentType":5126,
			"count":12,
			"max":[
				-8.170000076293945,
				1.0289111137390137,
				0.43068304657936096
			],
			"min":[
				-8.354999542236328,
				0.9479371309280396,
				0.03431694954633713
			],
			"type":"VEC3"
		},
		{
			"bufferView":95,
			"componentType":5126,
			"count":12,
			"type":"VEC3"
		},
		{
			"bufferView":96,
			"componentType":5121,
			"count":12,
			"type":"VEC4"
		},
		{
			"bufferView":97,
			"componentType":5126,
			"count":12,
			"type":"VEC4"
		},
		{
			"bufferView":98,
			"componentType":5126,
			"count":12,
			"max":[
				-8.170000076293945,
				1.0289111137390137,
				0.43068304657936096
			],
			"min":[
				-8.354999542236328,
				0.9479371309280396,
				0.03431694954633713
			],
			"type":"VEC3"
		},
		{
			"bufferView":99,
			"componentType":5126,
			"count":12,
			"type":"VEC3"
		},
		{
			"bufferView":100,
			"componentType":5121,
			"count":12,
			"type":"VEC4"
		},
		{
			"bufferView":101,
			"componentType":5126,
			"count":12,
			"type":"VEC4"
		},
		{
			"bufferView":102,
			"componentType":5126,
			"count":12,
			"max":[
				-8.170000076293945,
				1.0289111137390137,
				-0.03431694954633713
			],
			"min":[
				-8.354999542236328,
				0.9479371309280396,
				-0.43068304657936096
			],
			"type":"VEC3"
		},
		{
			"bufferView":103,
			"componentType":5126,
			"count":12,
			"type":"VEC3"
		},
		{
			"bufferView":104,
			"componentType":5121,
			"count":12,
			"type":"VEC4"
		},
		{
			"bufferView":105,
			"componentType":5126,
			"count":12,
			"type":"VEC4"
		},
		{
			"bufferView":106,
			"componentType":5126,
			"count":12,
			"max":[
				-8.170000076293945,
				1.0289111137390137,
				-0.03431694954633713
			],
			"min":[
				-8.354999542236328,
				0.9479371309280396,
				-0.43068304657936096
			],
			"type":"VEC3"
		},
		{
			"bufferView":107,
			"componentType":5126,
			"count":12,
			"type":"VEC3"
		},
		{
			"bufferView":108,
			"componentType":5121,
			"count":12,
			"type":"VEC4"
		},
		{
			"bufferView":109,
			"componentType":5126,
			"count":12,
			"type":"VEC4"
		},
		{
			"bufferView":110,
			"componentType":5126,
			"count":12,
			"max":[
				-7.860000133514404,
				1.0302774906158447,
				0.43068304657936096
			],
			"min":[
				-8.045000076293945,
				0.9493035078048706,
				0.03431694954633713
			],
			"type":"VEC3"
		},
		{
			"bufferView":111,
			"componentType":5126,
			"count":12,
			"type":"VEC3"
		},
		{
			"bufferView":112,
			"componentType":5121,
			"count":12,
			"type":"VEC4"
		},
		{
			"bufferView":113,
			"componentType":5126,
			"count":12,
			"type":"VEC4"
		},
		{
			"bufferView":114,
			"componentType":5126,
			"count":12,
			"max":[
				-7.860000133514404,
				1.0302774906158447,
				0.43068304657936096
			],
			"min":[
				-8.045000076293945,
				0.9493035078048706,
				0.03431694954633713
			],
			"type":"VEC3"
		},
		{
			"bufferView":115,
			"componentType":5126,
			"count":12,
			"type":"VEC3"
		},
		{
			"bufferView":116,
			"componentType":5121,
			"count":12,
			"type":"VEC4"
		},
		{
			"bufferView":117,
			"componentType":5126,
			"count":12,
			"type":"VEC4"
		},
		{
			"bufferView":118,
			"componentType":5126,
			"count":12,
			"max":[
				-7.860000133514404,
				1.0302774906158447,
				-0.03431694954633713
			],
			"min":[
				-8.045000076293945,
				0.9493035078048706,
				-0.43068304657936096
			],
			"type":"VEC3"
		},
		{
			"bufferView":119,
			"componentType":5126,
			"count":12,
			"type":"VEC3"
		},
		{
			"bufferView":120,
			"componentType":5121,
			"count":12,
			"type":"VEC4"
		},
		{
			"bufferView":121,
			"componentType":5126,
			"count":12,
			"type":"VEC4"
		},
		{
			"bufferView":122,
			"componentType":5126,
			"count":12,
			"max":[
				-7.860000133514404,
				1.0302774906158447,
				-0.03431694954633713
			],
			"min":[
				-8.045000076293945,
				0.9493035078048706,
				-0.43068304657936096
			],
			"type":"VEC3"
		},
		{
			"bufferView":123,
			"componentType":5126,
			"count":12,
			"type":"VEC3"
		},
		{
			"bufferView":124,
			"componentType":5121,
			"count":12,
			"type":"VEC4"
		},
		{
			"bufferView":125,
			"componentType":5126,
			"count":12,
			"type":"VEC4"
		},
		{
			"bufferView":126,
			"componentType":5126,
			"count":12,
			"max":[
				-7.550000190734863,
				1.0308713912963867,
				0.43068304657936096
			],
			"min":[
				-7.735000133514404,
				0.9498974084854126,
				0.03431694954633713
			],
			"type":"VEC3"
		},
		{
			"bufferView":127,
			"componentType":5126,
			"count":12,
			"type":"VEC3"
		},
		{
			"bufferView":128,
			"componentType":5121,
			"count":12,
			"type":"VEC4"
		},
		{
			"bufferView":129,
			"componentType":5126,
			"count":12,
			"type":"VEC4"
		},
		{
			"bufferView":130,
			"componentType":5126,
			"count":12,
			"max":[
				-7.550000190734863,
				1.0308713912963867,
				0.43068304657936096
			],
			"min":[
				-7.735000133514404,
				0.9498974084854126,
				0.03431694954633713
			],
			"type":"VEC3"
		},
		{
			"bufferView":131,
			"componentType":5126,
			"count":12,
			"type":"VEC3"
		},
		{
			"bufferView":132,
			"componentType":5121,
			"count":12,
			"type":"VEC4"
		},
		{
			"bufferView":133,
			"componentType":5126,
			"count":12,
			"type":"VEC4"
		},
		{
			"bufferView":134,
			"componentType":5126,
			"count":12,
			"max":[
				-7.550000190734863,
				1.0308713912963867,
				-0.03431694954633713
			],
			"min":[
				-7.735000133514404,
				0.9498974084854126,
				-0.43068304657936096
			],
			"type":"VEC3"
		},
		{
			"bufferView":135,
			"componentType":5126,
			"count":12,
			"type":"VEC3"
		},
		{
			"bufferView":136,
			"componentType":5121,
			"count":12,
			"type":"VEC4"
		},
		{
			"bufferView":137,
			"componentType":5126,
			"count":12,
			"type":"VEC4"
		},
		{
			"bufferView":138,
			"componentType":5126,
			"count":12,
			"max":[
				-7.550000190734863,
				1.0308713912963867,
				-0.03431694954633713
			],
			"min":[
				-7.735000133514404,
				0.9498974084854126,
				-0.43068304657936096
			],
			"type":"VEC3"
		},
		{
			"bufferView":139,
			"componentType":5126,
			"count":12,
			"type":"VEC3"
		},
		{
			"bufferView":140,
			"componentType":5121,
			"count":12,
			"type":"VEC4"
		},
		{
			"bufferView":141,
			"componentType":5126,
			"count":12,
			"type":"VEC4"
		},
		{
			"bufferView":142,
			"componentType":5126,
			"count":12,
			"max":[
				-7.239999771118164,
				1.0299527645111084,
				0.43068304657936096
			],
			"min":[
				-7.425000190734863,
				0.9489787817001343,
				0.03431694954633713
			],
			"type":"VEC3"
		},
		{
			"bufferView":143,
			"componentType":5126,
			"count":12,
			"type":"VEC3"
		},
		{
			"bufferView":144,
			"componentType":5121,
			"count":12,
			"type":"VEC4"
		},
		{
			"bufferView":145,
			"componentType":5126,
			"count":12,
			"type":"VEC4"
		},
		{
			"bufferView":146,
			"componentType":5126,
			"count":12,
			"max":[
				-7.239999771118164,
				1.0299527645111084,
				0.43068304657936096
			],
			"min":[
				-7.425000190734863,
				0.9489787817001343,
				0.03431694954633713
			],
			"type":"VEC3"
		},
		{
			"bufferView":147,
			"componentType":5126,
			"count":12,
			"type":"VEC3"
		},
		{
			"bufferView":148,
			"componentType":5121,
			"count":12,
			"type":"VEC4"
		},
		{
			"bufferView":149,
			"componentType":5126,
			"count":12,
			"type":"VEC4"
		},
		{
			"bufferView":150,
			"componentType":5126,
			"count":12,
			"max":[
				-7.239999771118164,
				1.0299527645111084,
				-0.03431694954633713
			],
			"min":[
				-7.425000190734863,
				0.9489787817001343,
				-0.43068304657936096
			],
			"type":"VEC3"
		},
		{
			"bufferView":151,
			"componentType":5126,
			"count":12,
			"type":"VEC3"
		},
		{
			"bufferView":152,
			"componentType":5121,
			"count":12,
			"type":"VEC4"
		},
		{
			"bufferView":153,
			"componentType":5126,
			"count":12,
			"type":"VEC4"
		},
		{
			"bufferView":154,
			"componentType":5126,
			"count":12,
			"max":[
				-7.239999771118164,
				1.0299527645111084,
				-0.03431694954633713
			],
			"min":[
				-7.425000190734863,
				0.9489787817001343,
				-0.43068304657936096
			],
			"type":"VEC3"
		},
		{
			"bufferView":155,
			"componentType":5126,
			"count":12,
			"type":"VEC3"
		},
		{
			"bufferView":156,
			"componentType":5121,
			"count":12,
			"type":"VEC4"
		},
		{
			"bufferView":157,
			"componentType":5126,
			"count":12,
			"type":"VEC4"
		},
		{
			"bufferView":158,
			"componentType":5126,
			"count":12,
			"max":[
				-6.929999828338623,
				1.0249519348144531,
				0.43068304657936096
			],
			"min":[
				-7.114999771118164,
				0.943977952003479,
				0.03431694954633713
			],
			"type":"VEC3"
		},
		{
			"bufferView":159,
			"componentType":5126,
			"count":12,
			"type":"VEC3"
		},
		{
			"bufferView":160,
			"componentType":5121,
			"count":12,
			"type":"VEC4"
		},
		{
			"bufferView":161,
			"componentType":5126,
			"count":12,
			"type":"VEC4"
		},
		{
			"bufferView":162,
			"componentType":5126,
			"count":12,
			"max":[
				-6.929999828338623,
				1.0249519348144531,
				0.43068304657936096
			],
			"min":[
				-7.114999771118164,
				0.943977952003479,
				0.03431694954633713
			],
			"type":"VEC3"
		},
		{
			"bufferView":163,
			"componentType":5126,
			"count":12,
			"type":"VEC3"
		},
		{
			"bufferView":164,
			"componentType":5121,
			"count":12,
			"type":"VEC4"
		},
		{
			"bufferView":165,
			"componentType":5126,
			"count":12,
			"type":"VEC4"
		},
		{
			"bufferView":166,
			"componentType":5126,
			"count":12,
			"max":[
				-6.929999828338623,
				1.0249519348144531,
				-0.03431694954633713
			],
			"min":[
				-7.114999771118164,
				0.943977952003479,
				-0.43068304657936096
			],
			"type":"VEC3"
		},
		{
			"bufferView":167,
			"componentType":5126,
			"count":12,
			"type":"VEC3"
		},
		{
			"bufferView":168,
			"componentType":5121,
			"count":12,
			"type":"VEC4"
		},
		{
			"bufferView":169,
			"componentType":5126,
			"count":12,
			"type":"VEC4"
		},
		{
			"bufferView":170,
			"componentType":5126,
			"count":12,
			"max":[
				-6.929999828338623,
				1.0249519348144531,
				-0.03431694954633713
			],
			"min":[
				-7.114999771118164,
				0.943977952003479,
				-0.43068304657936096
			],
			"type":"VEC3"
		},
		{
			"bufferView":171,
			"componentType":5126,
			"count":12,
			"type":"VEC3"
		},
		{
			"bufferView":172,
			"componentType":5121,
			"count":12,
			"type":"VEC4"
		},
		{
			"bufferView":173,
			"componentType":5126,
			"count":12,
			"type":"VEC4"
		},
		{
			"bufferView":174,
			"componentType":5126,
			"count":12,
			"max":[
				-6.619999885559082,
				1.0156203508377075,
				0.43068304657936096
			],
			"min":[
				-6.804999828338623,
				0.9346462488174438,
				0.03431694954633713
			],
			"type":"VEC3"
		},
		{
			"bufferView":175,
			"componentType":5126,
			"count":12,
			"type":"VEC3"
		},
		{
			"bufferView":176,
			"componentType":5121,
			"count":12,
			"type":"VEC4"
		},
		{
			"bufferView":177,
			"componentType":5126,
			"count":12,
			"type":"VEC4"
		},
		{
			"bufferView":178,
			"componentType":5126,
			"count":12,
			"max":[
				-6.619999885559082,
				1.0156203508377075,
				0.43068304657936096
			],
			"min":[
				-6.804999828338623,
				0.9346462488174438,
				0.03431694954633713
			],
			"type":"VEC3"
		},
		{
			"bufferView":179,
			"componentType":5126,
			"count":12,
			"type":"VEC3"
		},
		{
			"bufferView":180,
			"componentType":5121,
			"count":12,
			"type":"VEC4"
		},
		{
			"bufferView":181,
			"componentType":5126,
			"count":12,
			"type":"VEC4"
		},
		{
			"bufferView":182,
			"componentType":5126,
			"count":12,
			"max":[
				-6.619999885559082,
				1.0156203508377075,
				-0.03431694954633713
			],
			"min":[
				-6.804999828338623,
				0.9346462488174438,
				-0.43068304657936096
			],
			"type":"VEC3"
		},
		{
			"bufferView":183,
			"componentType":5126,
			"count":12,
			"type":"VEC3"
		},
		{
			"bufferView":184,
			"componentType":5121,
			"count":12,
			"type":"VEC4"
		},
		{
			"bufferView":185,
			"componentType":5126,
			"count":12,
			"type":"VEC4"
		},
		{
			"bufferView":186,
			"componentType":5126,
			"count":12,
			"max":[
				-6.619999885559082,
				1.0156203508377075,
				-0.03431694954633713
			],
			"min":[
				-6.804999828338623,
				0.9346462488174438,
				-0.43068304657936096
			],
			"type":"VEC3"
		},
		{
			"bufferView":187,
			"componentType":5126,
			"count":12,
			"type":"VEC3"
		},
		{
			"bufferView":188,
			"componentType":5121,
			"count":12,
			"type":"VEC4"
		},
		{
			"bufferView":189,
			"componentType":5126,
			"count":12,
			"type":"VEC4"
		},
		{
			"bufferView":190,
			"componentType":5126,
			"count":12,
			"max":[
				-6.309999942779541,
				1.0065137147903442,
				0.43068304657936096
			],
			"min":[
				-6.494999885559082,
				0.9255396127700806,
				0.03431694954633713
			],
			"type":"VEC3"
		},
		{
			"bufferView":191,
			"componentType":5126,
			"count":12,
			"type":"VEC3"
		},
		{
			"bufferView":192,
			"componentType":5121,
			"count":12,
			"type":"VEC4"
		},
		{
			"bufferView":193,
			"componentType":5126,
			"count":12,
			"type":"VEC4"
		},
		{
			"bufferView":194,
			"componentType":5126,
			"count":12,
			"max":[
				-6.309999942779541,
				1.0065137147903442,
				0.43068304657936096
			],
			"min":[
				-6.494999885559082,
				0.9255396127700806,
				0.03431694954633713
			],
			"type":"VEC3"
		},
		{
			"bufferView":195,
			"componentType":5126,
			"count":12,
			"type":"VEC3"
		},
		{
			"bufferView":196,
			"componentType":5121,
			"count":12,
			"type":"VEC4"
		},
		{
			"bufferView":197,
			"componentType":5126,
			"count":12,
			"type":"VEC4"
		},
		{
			"bufferView":198,
			"componentType":5126,
			"count":12,
			"max":[
				-6.309999942779541,
				1.0065137147903442,
				-0.03431694954633713
			],
			"min":[
				-6.494999885559082,
				0.9255396127700806,
				-0.43068304657936096
			],
			"type":"VEC3"
		},
		{
			"bufferView":199,
			"componentType":5126,
			"count":12,
			"type":"VEC3"
		},
		{
			"bufferView":200,
			"componentType":5121,
			"count":12,
			"type":"VEC4"
		},
		{
			"bufferView":201,
			"componentType":5126,
			"count":12,
			"type":"VEC4"
		},
		{
			"bufferView":202,
			"componentType":5126,
			"count":12,
			"max":[
				-6.309999942779541,
				1.0065137147903442,
				-0.03431694954633713
			],
			"min":[
				-6.494999885559082,
				0.9255396127700806,
				-0.43068304657936096
			],
			"type":"VEC3"
		},
		{
			"bufferView":203,
			"componentType":5126,
			"count":12,
			"type":"VEC3"
		},
		{
			"bufferView":204,
			"componentType":5121,
			"count":12,
			"type":"VEC4"
		},
		{
			"bufferView":205,
			"componentType":5126,
			"count":12,
			"type":"VEC4"
		},
		{
			"bufferView":206,
			"componentType":5126,
			"count":12,
			"max":[
				5.5,
				1.4676382541656494,
				0.03999999910593033
			],
			"min":[
				0,
				0.24243208765983582,
				-0.03999999910593033
			],
			"type":"VEC3"
		},
		{
			"bufferView":207,
			"componentType":5126,
			"count":12,
			"type":"VEC3"
		},
		{
			"bufferView":208,
			"componentType":5121,
			"count":12,
			"type":"VEC4"
		},
		{
			"bufferView":209,
			"componentType":5126,
			"count":12,
			"type":"VEC4"
		},
		{
			"bufferView":210,
			"componentType":5126,
			"count":12,
			"max":[
				5.5,
				1.4676382541656494,
				0.03999999910593033
			],
			"min":[
				0,
				0.24243208765983582,
				-0.03999999910593033
			],
			"type":"VEC3"
		},
		{
			"bufferView":211,
			"componentType":5126,
			"count":12,
			"type":"VEC3"
		},
		{
			"bufferView":212,
			"componentType":5121,
			"count":12,
			"type":"VEC4"
		},
		{
			"bufferView":213,
			"componentType":5126,
			"count":12,
			"type":"VEC4"
		},
		{
			"bufferView":214,
			"componentType":5126,
			"count":562,
			"max":[
				-9.469999313354492,
				0.6986459493637085,
				0.9560993313789368
			],
			"min":[
				-9.829999923706055,
				0.37864598631858826,
				0.756099283695221
			],
			"type":"VEC3"
		},
		{
			"bufferView":215,
			"componentType":5126,
			"count":562,
			"type":"VEC3"
		},
		{
			"bufferView":216,
			"componentType":5126,
			"count":562,
			"type":"VEC2"
		},
		{
			"bufferView":217,
			"componentType":5121,
			"count":562,
			"type":"VEC4"
		},
		{
			"bufferView":218,
			"componentType":5126,
			"count":562,
			"type":"VEC4"
		},
		{
			"bufferView":219,
			"componentType":5123,
			"count":672,
			"type":"SCALAR"
		},
		{
			"bufferView":220,
			"componentType":5126,
			"count":564,
			"max":[
				-9.469999313354492,
				0.6986459493637085,
				-0.6964860558509827
			],
			"min":[
				-9.829999923706055,
				0.37864598631858826,
				-0.8964861035346985
			],
			"type":"VEC3"
		},
		{
			"bufferView":221,
			"componentType":5126,
			"count":564,
			"type":"VEC3"
		},
		{
			"bufferView":222,
			"componentType":5126,
			"count":564,
			"type":"VEC2"
		},
		{
			"bufferView":223,
			"componentType":5121,
			"count":564,
			"type":"VEC4"
		},
		{
			"bufferView":224,
			"componentType":5126,
			"count":564,
			"type":"VEC4"
		},
		{
			"bufferView":225,
			"componentType":5123,
			"count":672,
			"type":"SCALAR"
		},
		{
			"bufferView":226,
			"componentType":5126,
			"count":622,
			"max":[
				-9.654999732971191,
				0.6286460161209106,
				0.9660992622375488
			],
			"min":[
				-9.734999656677246,
				0.5486459732055664,
				0.9160993099212646
			],
			"type":"VEC3"
		},
		{
			"bufferView":227,
			"componentType":5126,
			"count":622,
			"type":"VEC3"
		},
		{
			"bufferView":228,
			"componentType":5126,
			"count":622,
			"type":"VEC2"
		},
		{
			"bufferView":229,
			"componentType":5121,
			"count":622,
			"type":"VEC4"
		},
		{
			"bufferView":230,
			"componentType":5126,
			"count":622,
			"type":"VEC4"
		},
		{
			"bufferView":231,
			"componentType":5123,
			"count":672,
			"type":"SCALAR"
		},
		{
			"bufferView":232,
			"componentType":5126,
			"count":620,
			"max":[
				-9.654999732971191,
				0.6286460161209106,
				-0.8564860820770264
			],
			"min":[
				-9.734999656677246,
				0.5486459732055664,
				-0.9064860343933105
			],
			"type":"VEC3"
		},
		{
			"bufferView":233,
			"componentType":5126,
			"count":620,
			"type":"VEC3"
		},
		{
			"bufferView":234,
			"componentType":5126,
			"count":620,
			"type":"VEC2"
		},
		{
			"bufferView":235,
			"componentType":5121,
			"count":620,
			"type":"VEC4"
		},
		{
			"bufferView":236,
			"componentType":5126,
			"count":620,
			"type":"VEC4"
		},
		{
			"bufferView":237,
			"componentType":5123,
			"count":672,
			"type":"SCALAR"
		},
		{
			"bufferView":238,
			"componentType":5126,
			"count":520,
			"max":[
				-9.420000076293945,
				0.7286459803581238,
				0.8810993432998657
			],
			"min":[
				-9.879999160766602,
				0.34864598512649536,
				0.6810992956161499
			],
			"type":"VEC3"
		},
		{
			"bufferView":239,
			"componentType":5126,
			"count":520,
			"type":"VEC3"
		},
		{
			"bufferView":240,
			"componentType":5126,
			"count":520,
			"type":"VEC2"
		},
		{
			"bufferView":241,
			"componentType":5121,
			"count":520,
			"type":"VEC4"
		},
		{
			"bufferView":242,
			"componentType":5126,
			"count":520,
			"type":"VEC4"
		},
		{
			"bufferView":243,
			"componentType":5123,
			"count":672,
			"type":"SCALAR"
		},
		{
			"bufferView":244,
			"componentType":5126,
			"count":516,
			"max":[
				-9.420000076293945,
				0.7286459803581238,
				-0.6214860677719116
			],
			"min":[
				-9.879999160766602,
				0.34864598512649536,
				-0.8214861154556274
			],
			"type":"VEC3"
		},
		{
			"bufferView":245,
			"componentType":5126,
			"count":516,
			"type":"VEC3"
		},
		{
			"bufferView":246,
			"componentType":5126,
			"count":516,
			"type":"VEC2"
		},
		{
			"bufferView":247,
			"componentType":5121,
			"count":516,
			"type":"VEC4"
		},
		{
			"bufferView":248,
			"componentType":5126,
			"count":516,
			"type":"VEC4"
		},
		{
			"bufferView":249,
			"componentType":5123,
			"count":672,
			"type":"SCALAR"
		},
		{
			"bufferView":250,
			"componentType":5126,
			"count":588,
			"max":[
				-8.654999732971191,
				0.5172709226608276,
				0.9047215580940247
			],
			"min":[
				-8.744999885559082,
				0.1972709596157074,
				0.8547216057777405
			],
			"type":"VEC3"
		},
		{
			"bufferView":251,
			"componentType":5126,
			"count":588,
			"type":"VEC3"
		},
		{
			"bufferView":252,
			"componentType":5126,
			"count":588,
			"type":"VEC2"
		},
		{
			"bufferView":253,
			"componentType":5121,
			"count":588,
			"type":"VEC4"
		},
		{
			"bufferView":254,
			"componentType":5126,
			"count":588,
			"type":"VEC4"
		},
		{
			"bufferView":255,
			"componentType":5123,
			"count":672,
			"type":"SCALAR"
		},
		{
			"bufferView":256,
			"componentType":5126,
			"count":588,
			"max":[
				-8.654999732971191,
				0.5172709226608276,
				-0.7867060303688049
			],
			"min":[
				-8.744999885559082,
				0.1972709596157074,
				-0.8367059826850891
			],
			"type":"VEC3"
		},
		{
			"bufferView":257,
			"componentType":5126,
			"count":588,
			"type":"VEC3"
		},
		{
			"bufferView":258,
			"componentType":5126,
			"count":588,
			"type":"VEC2"
		},
		{
			"bufferView":259,
			"componentType":5121,
			"count":588,
			"type":"VEC4"
		},
		{
			"bufferView":260,
			"componentType":5126,
			"count":588,
			"type":"VEC4"
		},
		{
			"bufferView":261,
			"componentType":5123,
			"count":672,
			"type":"SCALAR"
		},
		{
			"bufferView":262,
			"componentType":5126,
			"count":12,
			"max":[
				-3.3996002674102783,
				-0.1412990689277649,
				2.940978527069092
			],
			"min":[
				-6.100399494171143,
				-0.7687009572982788,
				0.9207718968391418
			],
			"type":"VEC3"
		},
		{
			"bufferView":263,
			"componentType":5126,
			"count":12,
			"type":"VEC3"
		},
		{
			"bufferView":264,
			"componentType":5121,
			"count":12,
			"type":"VEC4"
		},
		{
			"bufferView":265,
			"componentType":5126,
			"count":12,
			"type":"VEC4"
		},
		{
			"bufferView":266,
			"componentType":5126,
			"count":12,
			"max":[
				-3.3996002674102783,
				-0.1412990689277649,
				2.940978527069092
			],
			"min":[
				-6.100399494171143,
				-0.7687009572982788,
				0.9207718968391418
			],
			"type":"VEC3"
		},
		{
			"bufferView":267,
			"componentType":5126,
			"count":12,
			"type":"VEC3"
		},
		{
			"bufferView":268,
			"componentType":5121,
			"count":12,
			"type":"VEC4"
		},
		{
			"bufferView":269,
			"componentType":5126,
			"count":12,
			"type":"VEC4"
		},
		{
			"bufferView":270,
			"componentType":5123,
			"count":18,
			"type":"SCALAR"
		},
		{
			"bufferView":271,
			"componentType":5126,
			"count":12,
			"max":[
				-3.3996002674102783,
				-0.1412990689277649,
				-0.9207718968391418
			],
			"min":[
				-6.100399494171143,
				-0.7687009572982788,
				-2.940978527069092
			],
			"type":"VEC3"
		},
		{
			"bufferView":272,
			"componentType":5126,
			"count":12,
			"type":"VEC3"
		},
		{
			"bufferView":273,
			"componentType":5121,
			"count":12,
			"type":"VEC4"
		},
		{
			"bufferView":274,
			"componentType":5126,
			"count":12,
			"type":"VEC4"
		},
		{
			"bufferView":275,
			"componentType":5126,
			"count":12,
			"max":[
				-3.3996002674102783,
				-0.1412990689277649,
				-0.9207718968391418
			],
			"min":[
				-6.100399494171143,
				-0.7687009572982788,
				-2.940978527069092
			],
			"type":"VEC3"
		},
		{
			"bufferView":276,
			"componentType":5126,
			"count":12,
			"type":"VEC3"
		},
		{
			"bufferView":277,
			"componentType":5121,
			"count":12,
			"type":"VEC4"
		},
		{
			"bufferView":278,
			"componentType":5126,
			"count":12,
			"type":"VEC4"
		},
		{
			"bufferView":279,
			"componentType":5126,
			"count":11,
			"max":[
				1.25,
				-0.31464847922325134,
				1.477228045463562
			],
			"min":[
				-0.4000000059604645,
				-0.8353514671325684,
				0.5897970795631409
			],
			"type":"VEC3"
		},
		{
			"bufferView":280,
			"componentType":5126,
			"count":11,
			"type":"VEC3"
		},
		{
			"bufferView":281,
			"componentType":5121,
			"count":11,
			"type":"VEC4"
		},
		{
			"bufferView":282,
			"componentType":5126,
			"count":11,
			"type":"VEC4"
		},
		{
			"bufferView":283,
			"componentType":5123,
			"count":15,
			"type":"SCALAR"
		},
		{
			"bufferView":284,
			"componentType":5126,
			"count":7,
			"max":[
				1.25,
				-0.31464847922325134,
				1.477228045463562
			],
			"min":[
				-0.4000000059604645,
				-0.8353514671325684,
				0.5897970795631409
			],
			"type":"VEC3"
		},
		{
			"bufferView":285,
			"componentType":5126,
			"count":7,
			"type":"VEC3"
		},
		{
			"bufferView":286,
			"componentType":5121,
			"count":7,
			"type":"VEC4"
		},
		{
			"bufferView":287,
			"componentType":5126,
			"count":7,
			"type":"VEC4"
		},
		{
			"bufferView":288,
			"componentType":5123,
			"count":9,
			"type":"SCALAR"
		},
		{
			"bufferView":289,
			"componentType":5126,
			"count":11,
			"max":[
				1.25,
				-0.31464847922325134,
				-0.5698438286781311
			],
			"min":[
				-0.4000000059604645,
				-0.8353514671325684,
				-1.4572747945785522
			],
			"type":"VEC3"
		},
		{
			"bufferView":290,
			"componentType":5126,
			"count":11,
			"type":"VEC3"
		},
		{
			"bufferView":291,
			"componentType":5121,
			"count":11,
			"type":"VEC4"
		},
		{
			"bufferView":292,
			"componentType":5126,
			"count":11,
			"type":"VEC4"
		},
		{
			"bufferView":293,
			"componentType":5123,
			"count":15,
			"type":"SCALAR"
		},
		{
			"bufferView":294,
			"componentType":5126,
			"count":7,
			"max":[
				1.25,
				-0.31464847922325134,
				-0.5698438286781311
			],
			"min":[
				-0.4000000059604645,
				-0.8353514671325684,
				-1.4572747945785522
			],
			"type":"VEC3"
		},
		{
			"bufferView":295,
			"componentType":5126,
			"count":7,
			"type":"VEC3"
		},
		{
			"bufferView":296,
			"componentType":5121,
			"count":7,
			"type":"VEC4"
		},
		{
			"bufferView":297,
			"componentType":5126,
			"count":7,
			"type":"VEC4"
		},
		{
			"bufferView":298,
			"componentType":5126,
			"count":52,
			"max":[
				6.267369747161865,
				1,
				1
			],
			"min":[
				-11.138641357421875,
				0.08544307947158813,
				-1
			],
			"type":"VEC3"
		},
		{
			"bufferView":299,
			"componentType":5126,
			"count":52,
			"type":"VEC3"
		},
		{
			"bufferView":300,
			"componentType":5126,
			"count":52,
			"type":"VEC2"
		},
		{
			"bufferView":301,
			"componentType":5121,
			"count":52,
			"type":"VEC4"
		},
		{
			"bufferView":302,
			"componentType":5126,
			"count":52,
			"type":"VEC4"
		},
		{
			"bufferView":303,
			"componentType":5123,
			"count":78,
			"type":"SCALAR"
		},
		{
			"bufferView":304,
			"componentType":5126,
			"count":37,
			"max":[
				6.267369747161865,
				1,
				1
			],
			"min":[
				-11.138641357421875,
				-1,
				-1
			],
			"type":"VEC3"
		},
		{
			"bufferView":305,
			"componentType":5126,
			"count":37,
			"type":"VEC3"
		},
		{
			"bufferView":306,
			"componentType":5126,
			"count":37,
			"type":"VEC2"
		},
		{
			"bufferView":307,
			"componentType":5121,
			"count":37,
			"type":"VEC4"
		},
		{
			"bufferView":308,
			"componentType":5126,
			"count":37,
			"type":"VEC4"
		},
		{
			"bufferView":309,
			"componentType":5123,
			"count":42,
			"type":"SCALAR"
		},
		{
			"bufferView":310,
			"componentType":5126,
			"count":22,
			"max":[
				6.267369747161865,
				0.6389697194099426,
				1
			],
			"min":[
				-11.138641357421875,
				-1,
				-1
			],
			"type":"VEC3"
		},
		{
			"bufferView":311,
			"componentType":5126,
			"count":22,
			"type":"VEC3"
		},
		{
			"bufferView":312,
			"componentType":5126,
			"count":22,
			"type":"VEC2"
		},
		{
			"bufferView":313,
			"componentType":5121,
			"count":22,
			"type":"VEC4"
		},
		{
			"bufferView":314,
			"componentType":5126,
			"count":22,
			"type":"VEC4"
		},
		{
			"bufferView":315,
			"componentType":5123,
			"count":36,
			"type":"SCALAR"
		},
		{
			"bufferView":316,
			"componentType":5126,
			"count":16,
			"max":[
				6.267369747161865,
				0.6389697194099426,
				1
			],
			"min":[
				-11.138641357421875,
				-1,
				-1
			],
			"type":"VEC3"
		},
		{
			"bufferView":317,
			"componentType":5126,
			"count":16,
			"type":"VEC3"
		},
		{
			"bufferView":318,
			"componentType":5126,
			"count":16,
			"type":"VEC2"
		},
		{
			"bufferView":319,
			"componentType":5121,
			"count":16,
			"type":"VEC4"
		},
		{
			"bufferView":320,
			"componentType":5126,
			"count":16,
			"type":"VEC4"
		},
		{
			"bufferView":321,
			"componentType":5123,
			"count":18,
			"type":"SCALAR"
		},
		{
			"bufferView":322,
			"componentType":5126,
			"count":56,
			"max":[
				8.996726989746094,
				1.4644896984100342,
				0.3166205883026123
			],
			"min":[
				6.267369747161865,
				-1.297232747077942,
				-0.3166205883026123
			],
			"type":"VEC3"
		},
		{
			"bufferView":323,
			"componentType":5126,
			"count":56,
			"type":"VEC3"
		},
		{
			"bufferView":324,
			"componentType":5126,
			"count":56,
			"type":"VEC2"
		},
		{
			"bufferView":325,
			"componentType":5121,
			"count":56,
			"type":"VEC4"
		},
		{
			"bufferView":326,
			"componentType":5126,
			"count":56,
			"type":"VEC4"
		},
		{
			"bufferView":327,
			"componentType":5123,
			"count":102,
			"type":"SCALAR"
		},
		{
			"bufferView":328,
			"componentType":5126,
			"count":522,
			"max":[
				-6.057753562927246,
				1.0177291631698608,
				0.5905892848968506
			],
			"min":[
				-10.149150848388672,
				0.6240309476852417,
				-0.5843290090560913
			],
			"type":"VEC3"
		},
		{
			"bufferView":329,
			"componentType":5126,
			"count":522,
			"type":"VEC3"
		},
		{
			"bufferView":330,
			"componentType":5126,
			"count":522,
			"type":"VEC2"
		},
		{
			"bufferView":331,
			"componentType":5121,
			"count":522,
			"type":"VEC4"
		},
		{
			"bufferView":332,
			"componentType":5126,
			"count":522,
			"type":"VEC4"
		},
		{
			"bufferView":333,
			"componentType":5123,
			"count":756,
			"type":"SCALAR"
		},
		{
			"bufferView":334,
			"componentType":5126,
			"count":49,
			"max":[
				1.6333333333333333
			],
			"min":[
				0.03333333333333333
			],
			"type":"SCALAR"
		},
		{
			"bufferView":335,
			"componentType":5126,
			"count":49,
			"type":"VEC3"
		},
		{
			"bufferView":336,
			"componentType":5126,
			"count":2,
			"max":[
				1.6333333333333333
			],
			"min":[
				0.03333333333333333
			],
			"type":"SCALAR"
		},
		{
			"bufferView":337,
			"componentType":5126,
			"count":2,
			"type":"VEC4"
		},
		{
			"bufferView":338,
			"componentType":5126,
			"count":2,
			"type":"VEC3"
		},
		{
			"bufferView":339,
			"componentType":5126,
			"count":2,
			"type":"VEC3"
		},
		{
			"bufferView":340,
			"componentType":5126,
			"count":49,
			"type":"VEC4"
		},
		{
			"bufferView":341,
			"componentType":5126,
			"count":2,
			"type":"VEC3"
		},
		{
			"bufferView":342,
			"componentType":5126,
			"count":2,
			"type":"VEC3"
		},
		{
			"bufferView":343,
			"componentType":5126,
			"count":49,
			"type":"VEC4"
		},
		{
			"bufferView":344,
			"componentType":5126,
			"count":2,
			"type":"VEC3"
		},
		{
			"bufferView":345,
			"componentType":5126,
			"count":2,
			"type":"VEC3"
		},
		{
			"bufferView":346,
			"componentType":5126,
			"count":49,
			"type":"VEC4"
		},
		{
			"bufferView":347,
			"componentType":5126,
			"count":2,
			"type":"VEC3"
		}
	],
	"bufferViews":[
		{
			"buffer":0,
			"byteLength":144,
			"byteOffset":0,
			"target":34962
		},
		{
			"buffer":0,
			"byteLength":144,
			"byteOffset":144,
			"target":34962
		},
		{
			"buffer":0,
			"byteLength":48,
			"byteOffset":288,
			"target":34962
		},
		{
			"buffer":0,
			"byteLength":192,
			"byteOffset":336,
			"target":34962
		},
		{
			"buffer":0,
			"byteLength":36,
			"byteOffset":528,
			"target":34963
		},
		{
			"buffer":0,
			"byteLength":144,
			"byteOffset":564,
			"target":34962
		},
		{
			"buffer":0,
			"byteLength":144,
			"byteOffset":708,
			"target":34962
		},
		{
			"buffer":0,
			"byteLength":48,
			"byteOffset":852,
			"target":34962
		},
		{
			"buffer":0,
			"byteLength":192,
			"byteOffset":900,
			"target":34962
		},
		{
			"buffer":0,
			"byteLength":36,
			"byteOffset":1092,
			"target":34963
		},
		{
			"buffer":0,
			"byteLength":256,
			"byteOffset":1128
		},
		{
			"buffer":0,
			"byteLength":144,
			"byteOffset":1384,
			"target":34962
		},
		{
			"buffer":0,
			"byteLength":144,
			"byteOffset":1528,
			"target":34962
		},
		{
			"buffer":0,
			"byteLength":48,
			"byteOffset":1672,
			"target":34962
		},
		{
			"buffer":0,
			"byteLength":192,
			"byteOffset":1720,
			"target":34962
		},
		{
			"buffer":0,
			"byteLength":36,
			"byteOffset":1912,
			"target":34963
		},
		{
			"buffer":0,
			"byteLength":144,
			"byteOffset":1948,
			"target":34962
		},
		{
			"buffer":0,
			"byteLength":144,
			"byteOffset":2092,
			"target":34962
		},
		{
			"buffer":0,
			"byteLength":48,
			"byteOffset":2236,
			"target":34962
		},
		{
			"buffer":0,
			"byteLength":192,
			"byteOffset":2284,
			"target":34962
		},
		{
			"buffer":0,
			"byteLength":36,
			"byteOffset":2476,
			"target":34963
		},
		{
			"buffer":0,
			"byteLength":144,
			"byteOffset":2512,
			"target":34962
		},
		{
			"buffer":0,
			"byteLength":144,
			"byteOffset":2656,
			"target":34962
		},
		{
			"buffer":0,
			"byteLength":48,
			"byteOffset":2800,
			"target":34962
		},
		{
			"buffer":0,
			"byteLength":192,
			"byteOffset":2848,
			"target":34962
		},
		{
			"buffer":0,
			"byteLength":144,
			"byteOffset":3040,
			"target":34962
		},
		{
			"buffer":0,
			"byteLength":144,
			"byteOffset":3184,
			"target":34962
		},
		{
			"buffer":0,
			"byteLength":48,
			"byteOffset":3328,
			"target":34962
		},
		{
			"buffer":0,
			"byteLength":192,
			"byteOffset":3376,
			"target":34962
		},
		{
			"buffer":0,
			"byteLength":36,
			"byteOffset":3568,
			"target":34963
		},
		{
			"buffer":0,
			"byteLength":144,
			"byteOffset":3604,
			"target":34962
		},
		{
			"buffer":0,
			"byteLength":144,
			"byteOffset":3748,
			"target":34962
		},
		{
			"buffer":0,
			"byteLength":48,
			"byteOffset":3892,
			"target":34962
		},
		{
			"buffer":0,
			"byteLength":192,
			"byteOffset":3940,
			"target":34962
		},
		{
			"buffer":0,
			"byteLength":144,
			"byteOffset":4132,
			"target":34962
		},
		{
			"buffer":0,
			"byteLength":144,
			"byteOffset":4276,
			"target":34962
		},
		{
			"buffer":0,
			"byteLength":48,
			"byteOffset":4420,
			"target":34962
		},
		{
			"buffer":0,
			"byteLength":192,
			"byteOffset":4468,
			"target":34962
		},
		{
			"buffer":0,
			"byteLength":144,
			"byteOffset":4660,
			"target":34962
		},
		{
			"buffer":0,
			"byteLength":144,
			"byteOffset":4804,
			"target":34962
		},
		{
			"buffer":0,
			"byteLength":48,
			"byteOffset":4948,
			"target":34962
		},
		{
			"buffer":0,
			"byteLength":192,
			"byteOffset":4996,
			"target":34962
		},
		{
			"buffer":0,
			"byteLength":144,
			"byteOffset":5188,
			"target":34962
		},
		{
			"buffer":0,
			"byteLength":144,
			"byteOffset":5332,
			"target":34962
		},
		{
			"buffer":0,
			"byteLength":48,
			"byteOffset":5476,
			"target":34962
		},
		{
			"buffer":0,
			"byteLength":192,
			"byteOffset":5524,
			"target":34962
		},
		{
			"buffer":0,
			"byteLength":144,
			"byteOffset":5716,
			"target":34962
		},
		{
			"buffer":0,
			"byteLength":144,
			"byteOffset":5860,
			"target":34962
		},
		{
			"buffer":0,
			"byteLength":48,
			"byteOffset":6004,
			"target":34962
		},
		{
			"buffer":0,
			"byteLength":192,
			"byteOffset":6052,
			"target":34962
		},
		{
			"buffer":0,
			"byteLength":144,
			"byteOffset":6244,
			"target":34962
		},
		{
			"buffer":0,
			"byteLength":144,
			"byteOffset":6388,
			"target":34962
		},
		{
			"buffer":0,
			"byteLength":48,
			"byteOffset":6532,
			"target":34962
		},
		{
			"buffer":0,
			"byteLength":192,
			"byteOffset":6580,
			"target":34962
		},
		{
			"buffer":0,
			"byteLength":144,
			"byteOffset":6772,
			"target":34962
		},
		{
			"buffer":0,
			"byteLength":144,
			"byteOffset":6916,
			"target":34962
		},
		{
			"buffer":0,
			"byteLength":48,
			"byteOffset":7060,
			"target":34962
		},
		{
			"buffer":0,
			"byteLength":192,
			"byteOffset":7108,
			"target":34962
		},
		{
			"buffer":0,
			"byteLength":144,
			"byteOffset":7300,
			"target":34962
		},
		{
			"buffer":0,
			"byteLength":144,
			"byteOffset":7444,
			"target":34962
		},
		{
			"buffer":0,
			"byteLength":48,
			"byteOffset":7588,
			"target":34962
		},
		{
			"buffer":0,
			"byteLength":192,
			"byteOffset":7636,
			"target":34962
		},
		{
			"buffer":0,
			"byteLength":144,
			"byteOffset":7828,
			"target":34962
		},
		{
			"buffer":0,
			"byteLength":144,
			"byteOffset":7972,
			"target":34962
		},
		{
			"buffer":0,
			"byteLength":48,
			"byteOffset":8116,
			"target":34962
		},
		{
			"buffer":0,
			"byteLength":192,
			"byteOffset":8164,
			"target":34962
		},
		{
			"buffer":0,
			"byteLength":144,
			"byteOffset":8356,
			"target":34962
		},
		{
			"buffer":0,
			"byteLength":144,
			"byteOffset":8500,
			"target":34962
		},
		{
			"buffer":0,
			"byteLength":48,
			"byteOffset":8644,
			"target":34962
		},
		{
			"buffer":0,
			"byteLength":192,
			"byteOffset":8692,
			"target":34962
		},
		{
			"buffer":0,
			"byteLength":144,
			"byteOffset":8884,
			"target":34962
		},
		{
			"buffer":0,
			"byteLength":144,
			"byteOffset":9028,
			"target":34962
		},
		{
			"buffer":0,
			"byteLength":48,
			"byteOffset":9172,
			"target":34962
		},
		{
			"buffer":0,
			"byteLength":192,
			"byteOffset":9220,
			"target":34962
		},
		{
			"buffer":0,
			"byteLength":144,
			"byteOffset":9412,
			"target":34962
		},
		{
			"buffer":0,
			"byteLength":144,
			"byteOffset":9556,
			"target":34962
		},
		{
			"buffer":0,
			"byteLength":48,
			"byteOffset":9700,
			"target":34962
		},
		{
			"buffer":0,
			"byteLength":192,
			"byteOffset":9748,
			"target":34962
		},
		{
			"buffer":0,
			"byteLength":144,
			"byteOffset":9940,
			"target":34962
		},
		{
			"buffer":0,
			"byteLength":144,
			"byteOffset":10084,
			"target":34962
		},
		{
			"buffer":0,
			"byteLength":48,
			"byteOffset":10228,
			"target":34962
		},
		{
			"buffer":0,
			"byteLength":192,
			"byteOffset":10276,
			"target":34962
		},
		{
			"buffer":0,
			"byteLength":144,
			"byteOffset":10468,
			"target":34962
		},
		{
			"buffer":0,
			"byteLength":144,
			"byteOffset":10612,
			"target":34962
		},
		{
			"buffer":0,
			"byteLength":48,
			"byteOffset":10756,
			"target":34962
		},
		{
			"buffer":0,
			"byteLength":192,
			"byteOffset":10804,
			"target":34962
		},
		{
			"buffer":0,
			"byteLength":144,
			"byteOffset":10996,
			"target":34962
		},
		{
			"buffer":0,
			"byteLength":144,
			"byteOffset":11140,
			"target":34962
		},
		{
			"buffer":0,
			"byteLength":48,
			"byteOffset":11284,
			"target":34962
		},
		{
			"buffer":0,
			"byteLength":192,
			"byteOffset":11332,
			"target":34962
		},
		{
			"buffer":0,
			"byteLength":144,
			"byteOffset":11524,
			"target":34962
		},
		{
			"buffer":0,
			"byteLength":144,
			"byteOffset":11668,
			"target":34962
		},
		{
			"buffer":0,
			"byteLength":48,
			"byteOffset":11812,
			"target":34962
		},
		{
			"buffer":0,
			"byteLength":192,
			"byteOffset":11860,
			"target":34962
		},
		{
			"buffer":0,
			"byteLength":144,
			"byteOffset":12052,
			"target":34962
		},
		{
			"buffer":0,
			"byteLength":144,
			"byteOffset":12196,
			"target":34962
		},
		{
			"buffer":0,
			"byteLength":48,
			"byteOffset":12340,
			"target":34962
		},
		{
			"buffer":0,
			"byteLength":192,
			"byteOffset":12388,
			"target":34962
		},
		{
			"buffer":0,
			"byteLength":144,
			"byteOffset":12580,
			"target":34962
		},
		{
			"buffer":0,
			"byteLength":144,
			"byteOffset":12724,
			"target":34962
		},
		{
			"buffer":0,
			"byteLength":48,
			"byteOffset":12868,
			"target":34962
		},
		{
			"buffer":0,
			"byteLength":192,
			"byteOffset":12916,
			"target":34962
		},
		{
			"buffer":0,
			"byteLength":144,
			"byteOffset":13108,
			"target":34962
		},
		{
			"buffer":0,
			"byteLength":144,
			"byteOffset":13252,
			"target":34962
		},
		{
			"buffer":0,
			"byteLength":48,
			"byteOffset":13396,
			"target":34962
		},
		{
			"buffer":0,
			"byteLength":192,
			"byteOffset":13444,
			"target":34962
		},
		{
			"buffer":0,
			"byteLength":144,
			"byteOffset":13636,
			"target":34962
		},
		{
			"buffer":0,
			"byteLength":144,
			"byteOffset":13780,
			"target":34962
		},
		{
			"buffer":0,
			"byteLength":48,
			"byteOffset":13924,
			"target":34962
		},
		{
			"buffer":0,
			"byteLength":192,
			"byteOffset":13972,
			"target":34962
		},
		{
			"buffer":0,
			"byteLength":144,
			"byteOffset":14164,
			"target":34962
		},
		{
			"buffer":0,
			"byteLength":144,
			"byteOffset":14308,
			"target":34962
		},
		{
			"buffer":0,
			"byteLength":48,
			"byteOffset":14452,
			"target":34962
		},
		{
			"buffer":0,
			"byteLength":192,
			"byteOffset":14500,
			"target":34962
		},
		{
			"buffer":0,
			"byteLength":144,
			"byteOffset":14692,
			"target":34962
		},
		{
			"buffer":0,
			"byteLength":144,
			"byteOffset":14836,
			"target":34962
		},
		{
			"buffer":0,
			"byteLength":48,
			"byteOffset":14980,
			"target":34962
		},
		{
			"buffer":0,
			"byteLength":192,
			"byteOffset":15028,
			"target":34962
		},
		{
			"buffer":0,
			"byteLength":144,
			"byteOffset":15220,
			"target":34962
		},
		{
			"buffer":0,
			"byteLength":144,
			"byteOffset":15364,
			"target":34962
		},
		{
			"buffer":0,
			"byteLength":48,
			"byteOffset":15508,
			"target":34962
		},
		{
			"buffer":0,
			"byteLength":192,
			"byteOffset":15556,
			"target":34962
		},
		{
			"buffer":0,
			"byteLength":144,
			"byteOffset":15748,
			"target":34962
		},
		{
			"buffer":0,
			"byteLength":144,
			"byteOffset":15892,
			"target":34962
		},
		{
			"buffer":0,
			"byteLength":48,
			"byteOffset":16036,
			"target":34962
		},
		{
			"buffer":0,
			"byteLength":192,
			"byteOffset":16084,
			"target":34962
		},
		{
			"buffer":0,
			"byteLength":144,
			"byteOffset":16276,
			"target":34962
		},
		{
			"buffer":0,
			"byteLength":144,
			"byteOffset":16420,
			"target":34962
		},
		{
			"buffer":0,
			"byteLength":48,
			"byteOffset":16564,
			"target":34962
		},
		{
			"buffer":0,
			"byteLength":192,
			"byteOffset":16612,
			"target":34962
		},
		{
			"buffer":0,
			"byteLength":144,
			"byteOffset":16804,
			"target":34962
		},
		{
			"buffer":0,
			"byteLength":144,
			"byteOffset":16948,
			"target":34962
		},
		{
			"buffer":0,
			"byteLength":48,
			"byteOffset":17092,
			"target":34962
		},
		{
			"buffer":0,
			"byteLength":192,
			"byteOffset":17140,
			"target":34962
		},
		{
			"buffer":0,
			"byteLength":144,
			"byteOffset":17332,
			"target":34962
		},
		{
			"buffer":0,
			"byteLength":144,
			"byteOffset":17476,
			"target":34962
		},
		{
			"buffer":0,
			"byteLength":48,
			"byteOffset":17620,
			"target":34962
		},
		{
			"buffer":0,
			"byteLength":192,
			"byteOffset":17668,
			"target":34962
		},
		{
			"buffer":0,
			"byteLength":144,
			"byteOffset":17860,
			"target":34962
		},
		{
			"buffer":0,
			"byteLength":144,
			"byteOffset":18004,
			"target":34962
		},
		{
			"buffer":0,
			"byteLength":48,
			"byteOffset":18148,
			"target":34962
		},
		{
			"buffer":0,
			"byteLength":192,
			"byteOffset":18196,
			"target":34962
		},
		{
			"buffer":0,
			"byteLength":144,
			"byteOffset":18388,
			"target":34962
		},
		{
			"buffer":0,
			"byteLength":144,
			"byteOffset":18532,
			"target":34962
		},
		{
			"buffer":0,
			"byteLength":48,
			"byteOffset":18676,
			"target":34962
		},
		{
			"buffer":0,
			"byteLength":192,
			"byteOffset":18724,
			"target":34962
		},
		{
			"buffer":0,
			"byteLength":144,
			"byteOffset":18916,
			"target":34962
		},
		{
			"buffer":0,
			"byteLength":144,
			"byteOffset":19060,
			"target":34962
		},
		{
			"buffer":0,
			"byteLength":48,
			"byteOffset":19204,
			"target":34962
		},
		{
			"buffer":0,
			"byteLength":192,
			"byteOffset":19252,
			"target":34962
		},
		{
			"buffer":0,
			"byteLength":144,
			"byteOffset":19444,
			"target":34962
		},
		{
			"buffer":0,
			"byteLength":144,
			"byteOffset":19588,
			"target":34962
		},
		{
			"buffer":0,
			"byteLength":48,
			"byteOffset":19732,
			"target":34962
		},
		{
			"buffer":0,
			"byteLength":192,
			"byteOffset":19780,
			"target":34962
		},
		{
			"buffer":0,
			"byteLength":144,
			"byteOffset":19972,
			"target":34962
		},
		{
			"buffer":0,
			"byteLength":144,
			"byteOffset":20116,
			"target":34962
		},
		{
			"buffer":0,
			"byteLength":48,
			"byteOffset":20260,
			"target":34962
		},
		{
			"buffer":0,
			"byteLength":192,
			"byteOffset":20308,
			"target":34962
		},
		{
			"buffer":0,
			"byteLength":144,
			"byteOffset":20500,
			"target":34962
		},
		{
			"buffer":0,
			"byteLength":144,
			"byteOffset":20644,
			"target":34962
		},
		{
			"buffer":0,
			"byteLength":48,
			"byteOffset":20788,
			"target":34962
		},
		{
			"buffer":0,
			"byteLength":192,
			"byteOffset":20836,
			"target":34962
		},
		{
			"buffer":0,
			"byteLength":144,
			"byteOffset":21028,
			"target":34962
		},
		{
			"buffer":0,
			"byteLength":144,
			"byteOffset":21172,
			"target":34962
		},
		{
			"buffer":0,
			"byteLength":48,
			"byteOffset":21316,
			"target":34962
		},
		{
			"buffer":0,
			"byteLength":192,
			"byteOffset":21364,
			"target":34962
		},
		{
			"buffer":0,
			"byteLength":144,
			"byteOffset":21556,
			"target":34962
		},
		{
			"buffer":0,
			"byteLength":144,
			"byteOffset":21700,
			"target":34962
		},
		{
			"buffer":0,
			"byteLength":48,
			"byteOffset":21844,
			"target":34962
		},
		{
			"buffer":0,
			"byteLength":192,
			"byteOffset":21892,
			"target":34962
		},
		{
			"buffer":0,
			"byteLength":144,
			"byteOffset":22084,
			"target":34962
		},
		{
			"buffer":0,
			"byteLength":144,
			"byteOffset":22228,
			"target":34962
		},
		{
			"buffer":0,
			"byteLength":48,
			"byteOffset":22372,
			"target":34962
		},
		{
			"buffer":0,
			"byteLength":192,
			"byteOffset":22420,
			"target":34962
		},
		{
			"buffer":0,
			"byteLength":144,
			"byteOffset":22612,
			"target":34962
		},
		{
			"buffer":0,
			"byteLength":144,
			"byteOffset":22756,
			"target":34962
		},
		{
			"buffer":0,
			"byteLength":48,
			"byteOffset":22900,
			"target":34962
		},
		{
			"buffer":0,
			"byteLength":192,
			"byteOffset":22948,
			"target":34962
		},
		{
			"buffer":0,
			"byteLength":144,
			"byteOffset":23140,
			"target":34962
		},
		{
			"buffer":0,
			"byteLength":144,
			"byteOffset":23284,
			"target":34962
		},
		{
			"buffer":0,
			"byteLength":48,
			"byteOffset":23428,
			"target":34962
		},
		{
			"buffer":0,
			"byteLength":192,
			"byteOffset":23476,
			"target":34962
		},
		{
			"buffer":0,
			"byteLength":144,
			"byteOffset":23668,
			"target":34962
		},
		{
			"buffer":0,
			"byteLength":144,
			"byteOffset":23812,
			"target":34962
		},
		{
			"buffer":0,
			"byteLength":48,
			"byteOffset":23956,
			"target":34962
		},
		{
			"buffer":0,
			"byteLength":192,
			"byteOffset":24004,
			"target":34962
		},
		{
			"buffer":0,
			"byteLength":144,
			"byteOffset":24196,
			"target":34962
		},
		{
			"buffer":0,
			"byteLength":144,
			"byteOffset":24340,
			"target":34962
		},
		{
			"buffer":0,
			"byteLength":48,
			"byteOffset":24484,
			"target":34962
		},
		{
			"buffer":0,
			"byteLength":192,
			"byteOffset":24532,
			"target":34962
		},
		{
			"buffer":0,
			"byteLength":144,
			"byteOffset":24724,
			"target":34962
		},
		{
			"buffer":0,
			"byteLength":144,
			"byteOffset":24868,
			"target":34962
		},
		{
			"buffer":0,
			"byteLength":48,
			"byteOffset":25012,
			"target":34962
		},
		{
			"buffer":0,
			"byteLength":192,
			"byteOffset":25060,
			"target":34962
		},
		{
			"buffer":0,
			"byteLength":144,
			"byteOffset":25252,
			"target":34962
		},
		{
			"buffer":0,
			"byteLength":144,
			"byteOffset":25396,
			"target":34962
		},
		{
			"buffer":0,
			"byteLength":48,
			"byteOffset":25540,
			"target":34962
		},
		{
			"buffer":0,
			"byteLength":192,
			"byteOffset":25588,
			"target":34962
		},
		{
			"buffer":0,
			"byteLength":144,
			"byteOffset":25780,
			"target":34962
		},
		{
			"buffer":0,
			"byteLength":144,
			"byteOffset":25924,
			"target":34962
		},
		{
			"buffer":0,
			"byteLength":48,
			"byteOffset":26068,
			"target":34962
		},
		{
			"buffer":0,
			"byteLength":192,
			"byteOffset":26116,
			"target":34962
		},
		{
			"buffer":0,
			"byteLength":144,
			"byteOffset":26308,
			"target":34962
		},
		{
			"buffer":0,
			"byteLength":144,
			"byteOffset":26452,
			"target":34962
		},
		{
			"buffer":0,
			"byteLength":48,
			"byteOffset":26596,
			"target":34962
		},
		{
			"buffer":0,
			"byteLength":192,
			"byteOffset":26644,
			"target":34962
		},
		{
			"buffer":0,
			"byteLength":144,
			"byteOffset":26836,
			"target":34962
		},
		{
			"buffer":0,
			"byteLength":144,
			"byteOffset":26980,
			"target":34962
		},
		{
			"buffer":0,
			"byteLength":48,
			"byteOffset":27124,
			"target":34962
		},
		{
			"buffer":0,
			"byteLength":192,
			"byteOffset":27172,
			"target":34962
		},
		{
			"buffer":0,
			"byteLength":144,
			"byteOffset":27364,
			"target":34962
		},
		{
			"buffer":0,
			"byteLength":144,
			"byteOffset":27508,
			"target":34962
		},
		{
			"buffer":0,
			"byteLength":48,
			"byteOffset":27652,
			"target":34962
		},
		{
			"buffer":0,
			"byteLength":192,
			"byteOffset":27700,
			"target":34962
		},
		{
			"buffer":0,
			"byteLength":6744,
			"byteOffset":27892,
			"target":34962
		},
		{
			"buffer":0,
			"byteLength":6744,
			"byteOffset":34636,
			"target":34962
		},
		{
			"buffer":0,
			"byteLength":4496,
			"byteOffset":41380,
			"target":34962
		},
		{
			"buffer":0,
			"byteLength":2248,
			"byteOffset":45876,
			"target":34962
		},
		{
			"buffer":0,
			"byteLength":8992,
			"byteOffset":48124,
			"target":34962
		},
		{
			"buffer":0,
			"byteLength":1344,
			"byteOffset":57116,
			"target":34963
		},
		{
			"buffer":0,
			"byteLength":6768,
			"byteOffset":58460,
			"target":34962
		},
		{
			"buffer":0,
			"byteLength":6768,
			"byteOffset":65228,
			"target":34962
		},
		{
			"buffer":0,
			"byteLength":4512,
			"byteOffset":71996,
			"target":34962
		},
		{
			"buffer":0,
			"byteLength":2256,
			"byteOffset":76508,
			"target":34962
		},
		{
			"buffer":0,
			"byteLength":9024,
			"byteOffset":78764,
			"target":34962
		},
		{
			"buffer":0,
			"byteLength":1344,
			"byteOffset":87788,
			"target":34963
		},
		{
			"buffer":0,
			"byteLength":7464,
			"byteOffset":89132,
			"target":34962
		},
		{
			"buffer":0,
			"byteLength":7464,
			"byteOffset":96596,
			"target":34962
		},
		{
			"buffer":0,
			"byteLength":4976,
			"byteOffset":104060,
			"target":34962
		},
		{
			"buffer":0,
			"byteLength":2488,
			"byteOffset":109036,
			"target":34962
		},
		{
			"buffer":0,
			"byteLength":9952,
			"byteOffset":111524,
			"target":34962
		},
		{
			"buffer":0,
			"byteLength":1344,
			"byteOffset":121476,
			"target":34963
		},
		{
			"buffer":0,
			"byteLength":7440,
			"byteOffset":122820,
			"target":34962
		},
		{
			"buffer":0,
			"byteLength":7440,
			"byteOffset":130260,
			"target":34962
		},
		{
			"buffer":0,
			"byteLength":4960,
			"byteOffset":137700,
			"target":34962
		},
		{
			"buffer":0,
			"byteLength":2480,
			"byteOffset":142660,
			"target":34962
		},
		{
			"buffer":0,
			"byteLength":9920,
			"byteOffset":145140,
			"target":34962
		},
		{
			"buffer":0,
			"byteLength":1344,
			"byteOffset":155060,
			"target":34963
		},
		{
			"buffer":0,
			"byteLength":6240,
			"byteOffset":156404,
			"target":34962
		},
		{
			"buffer":0,
			"byteLength":6240,
			"byteOffset":162644,
			"target":34962
		},
		{
			"buffer":0,
			"byteLength":4160,
			"byteOffset":168884,
			"target":34962
		},
		{
			"buffer":0,
			"byteLength":2080,
			"byteOffset":173044,
			"target":34962
		},
		{
			"buffer":0,
			"byteLength":8320,
			"byteOffset":175124,
			"target":34962
		},
		{
			"buffer":0,
			"byteLength":1344,
			"byteOffset":183444,
			"target":34963
		},
		{
			"buffer":0,
			"byteLength":6192,
			"byteOffset":184788,
			"target":34962
		},
		{
			"buffer":0,
			"byteLength":6192,
			"byteOffset":190980,
			"target":34962
		},
		{
			"buffer":0,
			"byteLength":4128,
			"byteOffset":197172,
			"target":34962
		},
		{
			"buffer":0,
			"byteLength":2064,
			"byteOffset":201300,
			"target":34962
		},
		{
			"buffer":0,
			"byteLength":8256,
			"byteOffset":203364,
			"target":34962
		},
		{
			"buffer":0,
			"byteLength":1344,
			"byteOffset":211620,
			"target":34963
		},
		{
			"buffer":0,
			"byteLength":7056,
			"byteOffset":212964,
			"target":34962
		},
		{
			"buffer":0,
			"byteLength":7056,
			"byteOffset":220020,
			"target":34962
		},
		{
			"buffer":0,
			"byteLength":4704,
			"byteOffset":227076,
			"target":34962
		},
		{
			"buffer":0,
			"byteLength":2352,
			"byteOffset":231780,
			"target":34962
		},
		{
			"buffer":0,
			"byteLength":9408,
			"byteOffset":234132,
			"target":34962
		},
		{
			"buffer":0,
			"byteLength":1344,
			"byteOffset":243540,
			"target":34963
		},
		{
			"buffer":0,
			"byteLength":7056,
			"byteOffset":244884,
			"target":34962
		},
		{
			"buffer":0,
			"byteLength":7056,
			"byteOffset":251940,
			"target":34962
		},
		{
			"buffer":0,
			"byteLength":4704,
			"byteOffset":258996,
			"target":34962
		},
		{
			"buffer":0,
			"byteLength":2352,
			"byteOffset":263700,
			"target":34962
		},
		{
			"buffer":0,
			"byteLength":9408,
			"byteOffset":266052,
			"target":34962
		},
		{
			"buffer":0,
			"byteLength":1344,
			"byteOffset":275460,
			"target":34963
		},
		{
			"buffer":0,
			"byteLength":144,
			"byteOffset":276804,
			"target":34962
		},
		{
			"buffer":0,
			"byteLength":144,
			"byteOffset":276948,
			"target":34962
		},
		{
			"buffer":0,
			"byteLength":48,
			"byteOffset":277092,
			"target":34962
		},
		{
			"buffer":0,
			"byteLength":192,
			"byteOffset":277140,
			"target":34962
		},
		{
			"buffer":0,
			"byteLength":144,
			"byteOffset":277332,
			"target":34962
		},
		{
			"buffer":0,
			"byteLength":144,
			"byteOffset":277476,
			"target":34962
		},
		{
			"buffer":0,
			"byteLength":48,
			"byteOffset":277620,
			"target":34962
		},
		{
			"buffer":0,
			"byteLength":192,
			"byteOffset":277668,
			"target":34962
		},
		{
			"buffer":0,
			"byteLength":36,
			"byteOffset":277860,
			"target":34963
		},
		{
			"buffer":0,
			"byteLength":144,
			"byteOffset":277896,
			"target":34962
		},
		{
			"buffer":0,
			"byteLength":144,
			"byteOffset":278040,
			"target":34962
		},
		{
			"buffer":0,
			"byteLength":48,
			"byteOffset":278184,
			"target":34962
		},
		{
			"buffer":0,
			"byteLength":192,
			"byteOffset":278232,
			"target":34962
		},
		{
			"buffer":0,
			"byteLength":144,
			"byteOffset":278424,
			"target":34962
		},
		{
			"buffer":0,
			"byteLength":144,
			"byteOffset":278568,
			"target":34962
		},
		{
			"buffer":0,
			"byteLength":48,
			"byteOffset":278712,
			"target":34962
		},
		{
			"buffer":0,
			"byteLength":192,
			"byteOffset":278760,
			"target":34962
		},
		{
			"buffer":0,
			"byteLength":132,
			"byteOffset":278952,
			"target":34962
		},
		{
			"buffer":0,
			"byteLength":132,
			"byteOffset":279084,
			"target":34962
		},
		{
			"buffer":0,
			"byteLength":44,
			"byteOffset":279216,
			"target":34962
		},
		{
			"buffer":0,
			"byteLength":176,
			"byteOffset":279260,
			"target":34962
		},
		{
			"buffer":0,
			"byteLength":30,
			"byteOffset":279436,
			"target":34963
		},
		{
			"buffer":0,
			"byteLength":84,
			"byteOffset":279468,
			"target":34962
		},
		{
			"buffer":0,
			"byteLength":84,
			"byteOffset":279552,
			"target":34962
		},
		{
			"buffer":0,
			"byteLength":28,
			"byteOffset":279636,
			"target":34962
		},
		{
			"buffer":0,
			"byteLength":112,
			"byteOffset":279664,
			"target":34962
		},
		{
			"buffer":0,
			"byteLength":18,
			"byteOffset":279776,
			"target":34963
		},
		{
			"buffer":0,
			"byteLength":132,
			"byteOffset":279796,
			"target":34962
		},
		{
			"buffer":0,
			"byteLength":132,
			"byteOffset":279928,
			"target":34962
		},
		{
			"buffer":0,
			"byteLength":44,
			"byteOffset":280060,
			"target":34962
		},
		{
			"buffer":0,
			"byteLength":176,
			"byteOffset":280104,
			"target":34962
		},
		{
			"buffer":0,
			"byteLength":30,
			"byteOffset":280280,
			"target":34963
		},
		{
			"buffer":0,
			"byteLength":84,
			"byteOffset":280312,
			"target":34962
		},
		{
			"buffer":0,
			"byteLength":84,
			"byteOffset":280396,
			"target":34962
		},
		{
			"buffer":0,
			"byteLength":28,
			"byteOffset":280480,
			"target":34962
		},
		{
			"buffer":0,
			"byteLength":112,
			"byteOffset":280508,
			"target":34962
		},
		{
			"buffer":0,
			"byteLength":624,
			"byteOffset":280620,
			"target":34962
		},
		{
			"buffer":0,
			"byteLength":624,
			"byteOffset":281244,
			"target":34962
		},
		{
			"buffer":0,
			"byteLength":416,
			"byteOffset":281868,
			"target":34962
		},
		{
			"buffer":0,
			"byteLength":208,
			"byteOffset":282284,
			"target":34962
		},
		{
			"buffer":0,
			"byteLength":832,
			"byteOffset":282492,
			"target":34962
		},
		{
			"buffer":0,
			"byteLength":156,
			"byteOffset":283324,
			"target":34963
		},
		{
			"buffer":0,
			"byteLength":444,
			"byteOffset":283480,
			"target":34962
		},
		{
			"buffer":0,
			"byteLength":444,
			"byteOffset":283924,
			"target":34962
		},
		{
			"buffer":0,
			"byteLength":296,
			"byteOffset":284368,
			"target":34962
		},
		{
			"buffer":0,
			"byteLength":148,
			"byteOffset":284664,
			"target":34962
		},
		{
			"buffer":0,
			"byteLength":592,
			"byteOffset":284812,
			"target":34962
		},
		{
			"buffer":0,
			"byteLength":84,
			"byteOffset":285404,
			"target":34963
		},
		{
			"buffer":0,
			"byteLength":264,
			"byteOffset":285488,
			"target":34962
		},
		{
			"buffer":0,
			"byteLength":264,
			"byteOffset":285752,
			"target":34962
		},
		{
			"buffer":0,
			"byteLength":176,
			"byteOffset":286016,
			"target":34962
		},
		{
			"buffer":0,
			"byteLength":88,
			"byteOffset":286192,
			"target":34962
		},
		{
			"buffer":0,
			"byteLength":352,
			"byteOffset":286280,
			"target":34962
		},
		{
			"buffer":0,
			"byteLength":72,
			"byteOffset":286632,
			"target":34963
		},
		{
			"buffer":0,
			"byteLength":192,
			"byteOffset":286704,
			"target":34962
		},
		{
			"buffer":0,
			"byteLength":192,
			"byteOffset":286896,
			"target":34962
		},
		{
			"buffer":0,
			"byteLength":128,
			"byteOffset":287088,
			"target":34962
		},
		{
			"buffer":0,
			"byteLength":64,
			"byteOffset":287216,
			"target":34962
		},
		{
			"buffer":0,
			"byteLength":256,
			"byteOffset":287280,
			"target":34962
		},
		{
			"buffer":0,
			"byteLength":36,
			"byteOffset":287536,
			"target":34963
		},
		{
			"buffer":0,
			"byteLength":672,
			"byteOffset":287572,
			"target":34962
		},
		{
			"buffer":0,
			"byteLength":672,
			"byteOffset":288244,
			"target":34962
		},
		{
			"buffer":0,
			"byteLength":448,
			"byteOffset":288916,
			"target":34962
		},
		{
			"buffer":0,
			"byteLength":224,
			"byteOffset":289364,
			"target":34962
		},
		{
			"buffer":0,
			"byteLength":896,
			"byteOffset":289588,
			"target":34962
		},
		{
			"buffer":0,
			"byteLength":204,
			"byteOffset":290484,
			"target":34963
		},
		{
			"buffer":0,
			"byteLength":6264,
			"byteOffset":290688,
			"target":34962
		},
		{
			"buffer":0,
			"byteLength":6264,
			"byteOffset":296952,
			"target":34962
		},
		{
			"buffer":0,
			"byteLength":4176,
			"byteOffset":303216,
			"target":34962
		},
		{
			"buffer":0,
			"byteLength":2088,
			"byteOffset":307392,
			"target":34962
		},
		{
			"buffer":0,
			"byteLength":8352,
			"byteOffset":309480,
			"target":34962
		},
		{
			"buffer":0,
			"byteLength":1512,
			"byteOffset":317832,
			"target":34963
		},
		{
			"buffer":0,
			"byteLength":196,
			"byteOffset":319344
		},
		{
			"buffer":0,
			"byteLength":588,
			"byteOffset":319540
		},
		{
			"buffer":0,
			"byteLength":8,
			"byteOffset":320128
		},
		{
			"buffer":0,
			"byteLength":32,
			"byteOffset":320136
		},
		{
			"buffer":0,
			"byteLength":24,
			"byteOffset":320168
		},
		{
			"buffer":0,
			"byteLength":24,
			"byteOffset":320192
		},
		{
			"buffer":0,
			"byteLength":784,
			"byteOffset":320216
		},
		{
			"buffer":0,
			"byteLength":24,
			"byteOffset":321000
		},
		{
			"buffer":0,
			"byteLength":24,
			"byteOffset":321024
		},
		{
			"buffer":0,
			"byteLength":784,
			"byteOffset":321048
		},
		{
			"buffer":0,
			"byteLength":24,
			"byteOffset":321832
		},
		{
			"buffer":0,
			"byteLength":24,
			"byteOffset":321856
		},
		{
			"buffer":0,
			"byteLength":784,
			"byteOffset":321880
		},
		{
			"buffer":0,
			"byteLength":24,
			"byteOffset":322664
		}
	],
	"buffers":[
		{
			"byteLength":322688,
			"uri":"suckfish.bin"
		}
	]
}
