{
	"asset":{
		"generator":"Khronos glTF Blender I/O v4.4.56",
		"version":"2.0"
	},
	"scene":0,
	"scenes":[
		{
			"name":"Scene",
			"nodes":[
				17
			]
		}
	],
	"nodes":[
		{
			"name":"Spine_2",
			"translation":[
				1.1340060234069824,
				0,
				0
			]
		},
		{
			"children":[
				0
			],
			"name":"Spine_1",
			"translation":[
				1.134006142616272,
				0,
				0
			]
		},
		{
			"children":[
				1
			],
			"name":"Spine_0",
			"translation":[
				-1.0186177492141724,
				0,
				0
			]
		},
		{
			"children":[
				2
			],
			"name":"Root"
		},
		{
			"mesh":0,
			"name":"Eye_-1",
			"skin":0
		},
		{
			"mesh":1,
			"name":"Eye_1",
			"skin":0
		},
		{
			"mesh":2,
			"name":"Eye_glint_-1",
			"skin":0
		},
		{
			"mesh":3,
			"name":"Eye_glint_1",
			"skin":0
		},
		{
			"mesh":4,
			"name":"Long_bill",
			"skin":0
		},
		{
			"mesh":5,
			"name":"Marlin_Body",
			"skin":0
		},
		{
			"mesh":6,
			"name":"Pectoral_-1",
			"skin":0
		},
		{
			"mesh":7,
			"name":"Pectoral_1",
			"skin":0
		},
		{
			"mesh":8,
			"name":"Pelvic_-1",
			"skin":0
		},
		{
			"mesh":9,
			"name":"Pelvic_1",
			"skin":0
		},
		{
			"mesh":10,
			"name":"Swept_dorsal",
			"skin":0
		},
		{
			"mesh":11,
			"name":"Tail_lower",
			"skin":0
		},
		{
			"mesh":12,
			"name":"Tail_upper",
			"skin":0
		},
		{
			"children":[
				4,
				5,
				6,
				7,
				8,
				9,
				10,
				11,
				12,
				13,
				14,
				15,
				16,
				3
			],
			"name":"marlin_Rig"
		}
	],
	"animations":[
		{
			"channels":[
				{
					"sampler":0,
					"target":{
						"node":3,
						"path":"translation"
					}
				},
				{
					"sampler":1,
					"target":{
						"node":3,
						"path":"rotation"
					}
				},
				{
					"sampler":2,
					"target":{
						"node":3,
						"path":"scale"
					}
				},
				{
					"sampler":3,
					"target":{
						"node":2,
						"path":"translation"
					}
				},
				{
					"sampler":4,
					"target":{
						"node":2,
						"path":"rotation"
					}
				},
				{
					"sampler":5,
					"target":{
						"node":2,
						"path":"scale"
					}
				},
				{
					"sampler":6,
					"target":{
						"node":1,
						"path":"translation"
					}
				},
				{
					"sampler":7,
					"target":{
						"node":1,
						"path":"rotation"
					}
				},
				{
					"sampler":8,
					"target":{
						"node":1,
						"path":"scale"
					}
				},
				{
					"sampler":9,
					"target":{
						"node":0,
						"path":"translation"
					}
				},
				{
					"sampler":10,
					"target":{
						"node":0,
						"path":"rotation"
					}
				},
				{
					"sampler":11,
					"target":{
						"node":0,
						"path":"scale"
					}
				}
			],
			"name":"Swim",
			"samplers":[
				{
					"input":81,
					"interpolation":"LINEAR",
					"output":82
				},
				{
					"input":83,
					"interpolation":"STEP",
					"output":84
				},
				{
					"input":83,
					"interpolation":"STEP",
					"output":85
				},
				{
					"input":83,
					"interpolation":"STEP",
					"output":86
				},
				{
					"input":81,
					"interpolation":"LINEAR",
					"output":87
				},
				{
					"input":83,
					"interpolation":"STEP",
					"output":88
				},
				{
					"input":83,
					"interpolation":"LINEAR",
					"output":89
				},
				{
					"input":81,
					"interpolation":"LINEAR",
					"output":90
				},
				{
					"input":83,
					"interpolation":"STEP",
					"output":91
				},
				{
					"input":83,
					"interpolation":"STEP",
					"output":92
				},
				{
					"input":81,
					"interpolation":"LINEAR",
					"output":93
				},
				{
					"input":83,
					"interpolation":"STEP",
					"output":94
				}
			]
		}
	],
	"materials":[
		{
			"doubleSided":true,
			"name":"Eye Black",
			"pbrMetallicRoughness":{
				"baseColorFactor":[
					0.006000000052154064,
					0.009999999776482582,
					0.013000000268220901,
					1
				],
				"metallicFactor":0,
				"roughnessFactor":0.20000000298023224
			}
		},
		{
			"doubleSided":true,
			"name":"Eye White",
			"pbrMetallicRoughness":{
				"baseColorFactor":[
					0.9599999785423279,
					0.9800000190734863,
					1,
					1
				],
				"metallicFactor":0,
				"roughnessFactor":0.25
			}
		},
		{
			"doubleSided":true,
			"name":"Ocean Back",
			"pbrMetallicRoughness":{
				"baseColorFactor":[
					0.07000000029802322,
					0.2199999988079071,
					0.3499999940395355,
					1
				],
				"metallicFactor":0,
				"roughnessFactor":0.5
			}
		},
		{
			"doubleSided":true,
			"name":"Silver Flank",
			"pbrMetallicRoughness":{
				"baseColorFactor":[
					0.28999999165534973,
					0.5099999904632568,
					0.6200000047683716,
					1
				],
				"metallicFactor":0,
				"roughnessFactor":0.5
			}
		},
		{
			"doubleSided":true,
			"name":"Pale Belly",
			"pbrMetallicRoughness":{
				"baseColorFactor":[
					0.7699999809265137,
					0.8299999833106995,
					0.7900000214576721,
					1
				],
				"metallicFactor":0,
				"roughnessFactor":0.5
			}
		},
		{
			"doubleSided":true,
			"name":"Fin Blue",
			"pbrMetallicRoughness":{
				"baseColorFactor":[
					0.10999999940395355,
					0.28999999165534973,
					0.3799999952316284,
					1
				],
				"metallicFactor":0,
				"roughnessFactor":0.5
			}
		}
	],
	"meshes":[
		{
			"name":"Sphere.014",
			"primitives":[
				{
					"attributes":{
						"POSITION":0,
						"NORMAL":1,
						"TEXCOORD_0":2,
						"JOINTS_0":3,
						"WEIGHTS_0":4
					},
					"indices":5,
					"material":0
				}
			]
		},
		{
			"name":"Sphere.016",
			"primitives":[
				{
					"attributes":{
						"POSITION":7,
						"NORMAL":8,
						"TEXCOORD_0":9,
						"JOINTS_0":10,
						"WEIGHTS_0":11
					},
					"indices":12,
					"material":0
				}
			]
		},
		{
			"name":"Sphere.015",
			"primitives":[
				{
					"attributes":{
						"POSITION":13,
						"NORMAL":14,
						"TEXCOORD_0":15,
						"JOINTS_0":16,
						"WEIGHTS_0":17
					},
					"indices":18,
					"material":1
				}
			]
		},
		{
			"name":"Sphere.017",
			"primitives":[
				{
					"attributes":{
						"POSITION":19,
						"NORMAL":20,
						"TEXCOORD_0":21,
						"JOINTS_0":22,
						"WEIGHTS_0":23
					},
					"indices":24,
					"material":1
				}
			]
		},
		{
			"name":"Cone",
			"primitives":[
				{
					"attributes":{
						"POSITION":25,
						"NORMAL":26,
						"TEXCOORD_0":27,
						"JOINTS_0":28,
						"WEIGHTS_0":29
					},
					"indices":30,
					"material":2
				}
			]
		},
		{
			"name":"Marlin_Body",
			"primitives":[
				{
					"attributes":{
						"POSITION":31,
						"NORMAL":32,
						"JOINTS_0":33,
						"WEIGHTS_0":34
					},
					"indices":35,
					"material":2
				},
				{
					"attributes":{
						"POSITION":36,
						"NORMAL":37,
						"JOINTS_0":38,
						"WEIGHTS_0":39
					},
					"indices":40,
					"material":3
				},
				{
					"attributes":{
						"POSITION":41,
						"NORMAL":42,
						"JOINTS_0":43,
						"WEIGHTS_0":44
					},
					"indices":45,
					"material":4
				}
			]
		},
		{
			"name":"Pectoral_-1.001",
			"primitives":[
				{
					"attributes":{
						"POSITION":46,
						"NORMAL":47,
						"JOINTS_0":48,
						"WEIGHTS_0":49
					},
					"indices":50,
					"material":5
				}
			]
		},
		{
			"name":"Pectoral_1.001",
			"primitives":[
				{
					"attributes":{
						"POSITION":51,
						"NORMAL":52,
						"JOINTS_0":53,
						"WEIGHTS_0":54
					},
					"indices":55,
					"material":5
				}
			]
		},
		{
			"name":"Pelvic_-1.001",
			"primitives":[
				{
					"attributes":{
						"POSITION":56,
						"NORMAL":57,
						"JOINTS_0":58,
						"WEIGHTS_0":59
					},
					"indices":60,
					"material":5
				}
			]
		},
		{
			"name":"Pelvic_1.001",
			"primitives":[
				{
					"attributes":{
						"POSITION":61,
						"NORMAL":62,
						"JOINTS_0":63,
						"WEIGHTS_0":64
					},
					"indices":65,
					"material":5
				}
			]
		},
		{
			"name":"Swept_dorsal",
			"primitives":[
				{
					"attributes":{
						"POSITION":66,
						"NORMAL":67,
						"JOINTS_0":68,
						"WEIGHTS_0":69
					},
					"indices":70,
					"material":2
				}
			]
		},
		{
			"name":"Tail_lower",
			"primitives":[
				{
					"attributes":{
						"POSITION":71,
						"NORMAL":72,
						"JOINTS_0":73,
						"WEIGHTS_0":74
					},
					"indices":75,
					"material":5
				}
			]
		},
		{
			"name":"Tail_upper",
			"primitives":[
				{
					"attributes":{
						"POSITION":76,
						"NORMAL":77,
						"JOINTS_0":78,
						"WEIGHTS_0":79
					},
					"indices":80,
					"material":5
				}
			]
		}
	],
	"skins":[
		{
			"inverseBindMatrices":6,
			"joints":[
				3,
				2,
				1,
				0
			],
			"name":"marlin_Rig"
		}
	],
	"accessors":[
		{
			"bufferView":0,
			"componentType":5126,
			"count":498,
			"max":[
				-1.3949999809265137,
				0.20499999821186066,
				0.38499999046325684
			],
			"min":[
				-1.5450000762939453,
				0.05499999225139618,
				0.29500001668930054
			],
			"type":"VEC3"
		},
		{
			"bufferView":1,
			"componentType":5126,
			"count":498,
			"type":"VEC3"
		},
		{
			"bufferView":2,
			"componentType":5126,
			"count":498,
			"type":"VEC2"
		},
		{
			"bufferView":3,
			"componentType":5121,
			"count":498,
			"type":"VEC4"
		},
		{
			"bufferView":4,
			"componentType":5126,
			"count":498,
			"type":"VEC4"
		},
		{
			"bufferView":5,
			"componentType":5123,
			"count":672,
			"type":"SCALAR"
		},
		{
			"bufferView":6,
			"componentType":5126,
			"count":4,
			"type":"MAT4"
		},
		{
			"bufferView":7,
			"componentType":5126,
			"count":498,
			"max":[
				-1.3949999809265137,
				0.20499999821186066,
				-0.29500001668930054
			],
			"min":[
				-1.5450000762939453,
				0.05499999225139618,
				-0.38499999046325684
			],
			"type":"VEC3"
		},
		{
			"bufferView":8,
			"componentType":5126,
			"count":498,
			"type":"VEC3"
		},
		{
			"bufferView":9,
			"componentType":5126,
			"count":498,
			"type":"VEC2"
		},
		{
			"bufferView":10,
			"componentType":5121,
			"count":498,
			"type":"VEC4"
		},
		{
			"bufferView":11,
			"componentType":5126,
			"count":498,
			"type":"VEC4"
		},
		{
			"bufferView":12,
			"componentType":5123,
			"count":672,
			"type":"SCALAR"
		},
		{
			"bufferView":13,
			"componentType":5126,
			"count":296,
			"max":[
				-1.4700000286102295,
				0.16974999010562897,
				0.38874998688697815
			],
			"min":[
				-1.5074999332427979,
				0.13224999606609344,
				0.36625000834465027
			],
			"type":"VEC3"
		},
		{
			"bufferView":14,
			"componentType":5126,
			"count":296,
			"type":"VEC3"
		},
		{
			"bufferView":15,
			"componentType":5126,
			"count":296,
			"type":"VEC2"
		},
		{
			"bufferView":16,
			"componentType":5121,
			"count":296,
			"type":"VEC4"
		},
		{
			"bufferView":17,
			"componentType":5126,
			"count":296,
			"type":"VEC4"
		},
		{
			"bufferView":18,
			"componentType":5123,
			"count":360,
			"type":"SCALAR"
		},
		{
			"bufferView":19,
			"componentType":5126,
			"count":296,
			"max":[
				-1.4700000286102295,
				0.16974999010562897,
				-0.36625000834465027
			],
			"min":[
				-1.5074999332427979,
				0.13224999606609344,
				-0.38874998688697815
			],
			"type":"VEC3"
		},
		{
			"bufferView":20,
			"componentType":5126,
			"count":296,
			"type":"VEC3"
		},
		{
			"bufferView":21,
			"componentType":5126,
			"count":296,
			"type":"VEC2"
		},
		{
			"bufferView":22,
			"componentType":5121,
			"count":296,
			"type":"VEC4"
		},
		{
			"bufferView":23,
			"componentType":5126,
			"count":296,
			"type":"VEC4"
		},
		{
			"bufferView":24,
			"componentType":5123,
			"count":360,
			"type":"SCALAR"
		},
		{
			"bufferView":25,
			"componentType":5126,
			"count":60,
			"max":[
				-1.7493938207626343,
				0.14999821782112122,
				0.09999986737966537
			],
			"min":[
				-3.4000306129455566,
				-0.04999814182519913,
				-0.10000016540288925
			],
			"type":"VEC3"
		},
		{
			"bufferView":26,
			"componentType":5126,
			"count":60,
			"type":"VEC3"
		},
		{
			"bufferView":27,
			"componentType":5126,
			"count":60,
			"type":"VEC2"
		},
		{
			"bufferView":28,
			"componentType":5121,
			"count":60,
			"type":"VEC4"
		},
		{
			"bufferView":29,
			"componentType":5126,
			"count":60,
			"type":"VEC4"
		},
		{
			"bufferView":30,
			"componentType":5123,
			"count":84,
			"type":"SCALAR"
		},
		{
			"bufferView":31,
			"componentType":5126,
			"count":104,
			"max":[
				1.350000023841858,
				0.5799999833106995,
				0.45270097255706787
			],
			"min":[
				-1.899999976158142,
				0.1060660183429718,
				-0.45270097255706787
			],
			"type":"VEC3"
		},
		{
			"bufferView":32,
			"componentType":5126,
			"count":104,
			"type":"VEC3"
		},
		{
			"bufferView":33,
			"componentType":5121,
			"count":104,
			"type":"VEC4"
		},
		{
			"bufferView":34,
			"componentType":5126,
			"count":104,
			"type":"VEC4"
		},
		{
			"bufferView":35,
			"componentType":5123,
			"count":156,
			"type":"SCALAR"
		},
		{
			"bufferView":36,
			"componentType":5126,
			"count":176,
			"max":[
				1.7999999523162842,
				0.29698485136032104,
				0.49000000953674316
			],
			"min":[
				-1.899999976158142,
				-0.22195638716220856,
				-0.49000000953674316
			],
			"type":"VEC3"
		},
		{
			"bufferView":37,
			"componentType":5126,
			"count":176,
			"type":"VEC3"
		},
		{
			"bufferView":38,
			"componentType":5121,
			"count":176,
			"type":"VEC4"
		},
		{
			"bufferView":39,
			"componentType":5126,
			"count":176,
			"type":"VEC4"
		},
		{
			"bufferView":40,
			"componentType":5123,
			"count":300,
			"type":"SCALAR"
		},
		{
			"bufferView":41,
			"componentType":5126,
			"count":136,
			"max":[
				1.7999999523162842,
				-0.057402513921260834,
				0.45270097255706787
			],
			"min":[
				-1.899999976158142,
				-0.5799999833106995,
				-0.45270097255706787
			],
			"type":"VEC3"
		},
		{
			"bufferView":42,
			"componentType":5126,
			"count":136,
			"type":"VEC3"
		},
		{
			"bufferView":43,
			"componentType":5121,
			"count":136,
			"type":"VEC4"
		},
		{
			"bufferView":44,
			"componentType":5126,
			"count":136,
			"type":"VEC4"
		},
		{
			"bufferView":45,
			"componentType":5123,
			"count":204,
			"type":"SCALAR"
		},
		{
			"bufferView":46,
			"componentType":5126,
			"count":24,
			"max":[
				0.35340848565101624,
				-0.08642971515655518,
				1.3107243776321411
			],
			"min":[
				-0.9534084796905518,
				-0.4935702681541443,
				0.32927560806274414
			],
			"type":"VEC3"
		},
		{
			"bufferView":47,
			"componentType":5126,
			"count":24,
			"type":"VEC3"
		},
		{
			"bufferView":48,
			"componentType":5121,
			"count":24,
			"type":"VEC4"
		},
		{
			"bufferView":49,
			"componentType":5126,
			"count":24,
			"type":"VEC4"
		},
		{
			"bufferView":50,
			"componentType":5123,
			"count":36,
			"type":"SCALAR"
		},
		{
			"bufferView":51,
			"componentType":5126,
			"count":24,
			"max":[
				0.35340848565101624,
				-0.08642971515655518,
				-0.32927560806274414
			],
			"min":[
				-0.9534084796905518,
				-0.4935702681541443,
				-1.3107243776321411
			],
			"type":"VEC3"
		},
		{
			"bufferView":52,
			"componentType":5126,
			"count":24,
			"type":"VEC3"
		},
		{
			"bufferView":53,
			"componentType":5121,
			"count":24,
			"type":"VEC4"
		},
		{
			"bufferView":54,
			"componentType":5126,
			"count":24,
			"type":"VEC4"
		},
		{
			"bufferView":55,
			"componentType":5123,
			"count":36,
			"type":"SCALAR"
		},
		{
			"bufferView":56,
			"componentType":5126,
			"count":18,
			"max":[
				1.1912039518356323,
				-0.14087167382240295,
				0.566051721572876
			],
			"min":[
				0.5987961292266846,
				-0.5091283321380615,
				0.13394826650619507
			],
			"type":"VEC3"
		},
		{
			"bufferView":57,
			"componentType":5126,
			"count":18,
			"type":"VEC3"
		},
		{
			"bufferView":58,
			"componentType":5121,
			"count":18,
			"type":"VEC4"
		},
		{
			"bufferView":59,
			"componentType":5126,
			"count":18,
			"type":"VEC4"
		},
		{
			"bufferView":60,
			"componentType":5123,
			"count":24,
			"type":"SCALAR"
		},
		{
			"bufferView":61,
			"componentType":5126,
			"count":18,
			"max":[
				1.1912039518356323,
				-0.14087167382240295,
				-0.13394826650619507
			],
			"min":[
				0.5987961292266846,
				-0.5091283321380615,
				-0.566051721572876
			],
			"type":"VEC3"
		},
		{
			"bufferView":62,
			"componentType":5126,
			"count":18,
			"type":"VEC3"
		},
		{
			"bufferView":63,
			"componentType":5121,
			"count":18,
			"type":"VEC4"
		},
		{
			"bufferView":64,
			"componentType":5126,
			"count":18,
			"type":"VEC4"
		},
		{
			"bufferView":65,
			"componentType":5123,
			"count":24,
			"type":"SCALAR"
		},
		{
			"bufferView":66,
			"componentType":5126,
			"count":30,
			"max":[
				1.1200000047683716,
				1.399999976158142,
				0.044999998062849045
			],
			"min":[
				-1.2000000476837158,
				0.23000000417232513,
				-0.044999998062849045
			],
			"type":"VEC3"
		},
		{
			"bufferView":67,
			"componentType":5126,
			"count":30,
			"type":"VEC3"
		},
		{
			"bufferView":68,
			"componentType":5121,
			"count":30,
			"type":"VEC4"
		},
		{
			"bufferView":69,
			"componentType":5126,
			"count":30,
			"type":"VEC4"
		},
		{
			"bufferView":70,
			"componentType":5123,
			"count":48,
			"type":"SCALAR"
		},
		{
			"bufferView":71,
			"componentType":5126,
			"count":24,
			"max":[
				2.259999990463257,
				0.029999999329447746,
				0.04500000178813934
			],
			"min":[
				1.5299999713897705,
				-0.8700000047683716,
				-0.04500000178813934
			],
			"type":"VEC3"
		},
		{
			"bufferView":72,
			"componentType":5126,
			"count":24,
			"type":"VEC3"
		},
		{
			"bufferView":73,
			"componentType":5121,
			"count":24,
			"type":"VEC4"
		},
		{
			"bufferView":74,
			"componentType":5126,
			"count":24,
			"type":"VEC4"
		},
		{
			"bufferView":75,
			"componentType":5123,
			"count":36,
			"type":"SCALAR"
		},
		{
			"bufferView":76,
			"componentType":5126,
			"count":26,
			"max":[
				2.2699999809265137,
				1.1200000047683716,
				0.04500000178813934
			],
			"min":[
				1.4800000190734863,
				-0.019999999552965164,
				-0.04500000178813934
			],
			"type":"VEC3"
		},
		{
			"bufferView":77,
			"componentType":5126,
			"count":26,
			"type":"VEC3"
		},
		{
			"bufferView":78,
			"componentType":5121,
			"count":26,
			"type":"VEC4"
		},
		{
			"bufferView":79,
			"componentType":5126,
			"count":26,
			"type":"VEC4"
		},
		{
			"bufferView":80,
			"componentType":5123,
			"count":36,
			"type":"SCALAR"
		},
		{
			"bufferView":81,
			"componentType":5126,
			"count":49,
			"max":[
				1.6333333333333333
			],
			"min":[
				0.03333333333333333
			],
			"type":"SCALAR"
		},
		{
			"bufferView":82,
			"componentType":5126,
			"count":49,
			"type":"VEC3"
		},
		{
			"bufferView":83,
			"componentType":5126,
			"count":2,
			"max":[
				1.6333333333333333
			],
			"min":[
				0.03333333333333333
			],
			"type":"SCALAR"
		},
		{
			"bufferView":84,
			"componentType":5126,
			"count":2,
			"type":"VEC4"
		},
		{
			"bufferView":85,
			"componentType":5126,
			"count":2,
			"type":"VEC3"
		},
		{
			"bufferView":86,
			"componentType":5126,
			"count":2,
			"type":"VEC3"
		},
		{
			"bufferView":87,
			"componentType":5126,
			"count":49,
			"type":"VEC4"
		},
		{
			"bufferView":88,
			"componentType":5126,
			"count":2,
			"type":"VEC3"
		},
		{
			"bufferView":89,
			"componentType":5126,
			"count":2,
			"type":"VEC3"
		},
		{
			"bufferView":90,
			"componentType":5126,
			"count":49,
			"type":"VEC4"
		},
		{
			"bufferView":91,
			"componentType":5126,
			"count":2,
			"type":"VEC3"
		},
		{
			"bufferView":92,
			"componentType":5126,
			"count":2,
			"type":"VEC3"
		},
		{
			"bufferView":93,
			"componentType":5126,
			"count":49,
			"type":"VEC4"
		},
		{
			"bufferView":94,
			"componentType":5126,
			"count":2,
			"type":"VEC3"
		}
	],
	"bufferViews":[
		{
			"buffer":0,
			"byteLength":5976,
			"byteOffset":0,
			"target":34962
		},
		{
			"buffer":0,
			"byteLength":5976,
			"byteOffset":5976,
			"target":34962
		},
		{
			"buffer":0,
			"byteLength":3984,
			"byteOffset":11952,
			"target":34962
		},
		{
			"buffer":0,
			"byteLength":1992,
			"byteOffset":15936,
			"target":34962
		},
		{
			"buffer":0,
			"byteLength":7968,
			"byteOffset":17928,
			"target":34962
		},
		{
			"buffer":0,
			"byteLength":1344,
			"byteOffset":25896,
			"target":34963
		},
		{
			"buffer":0,
			"byteLength":256,
			"byteOffset":27240
		},
		{
			"buffer":0,
			"byteLength":5976,
			"byteOffset":27496,
			"target":34962
		},
		{
			"buffer":0,
			"byteLength":5976,
			"byteOffset":33472,
			"target":34962
		},
		{
			"buffer":0,
			"byteLength":3984,
			"byteOffset":39448,
			"target":34962
		},
		{
			"buffer":0,
			"byteLength":1992,
			"byteOffset":43432,
			"target":34962
		},
		{
			"buffer":0,
			"byteLength":7968,
			"byteOffset":45424,
			"target":34962
		},
		{
			"buffer":0,
			"byteLength":1344,
			"byteOffset":53392,
			"target":34963
		},
		{
			"buffer":0,
			"byteLength":3552,
			"byteOffset":54736,
			"target":34962
		},
		{
			"buffer":0,
			"byteLength":3552,
			"byteOffset":58288,
			"target":34962
		},
		{
			"buffer":0,
			"byteLength":2368,
			"byteOffset":61840,
			"target":34962
		},
		{
			"buffer":0,
			"byteLength":1184,
			"byteOffset":64208,
			"target":34962
		},
		{
			"buffer":0,
			"byteLength":4736,
			"byteOffset":65392,
			"target":34962
		},
		{
			"buffer":0,
			"byteLength":720,
			"byteOffset":70128,
			"target":34963
		},
		{
			"buffer":0,
			"byteLength":3552,
			"byteOffset":70848,
			"target":34962
		},
		{
			"buffer":0,
			"byteLength":3552,
			"byteOffset":74400,
			"target":34962
		},
		{
			"buffer":0,
			"byteLength":2368,
			"byteOffset":77952,
			"target":34962
		},
		{
			"buffer":0,
			"byteLength":1184,
			"byteOffset":80320,
			"target":34962
		},
		{
			"buffer":0,
			"byteLength":4736,
			"byteOffset":81504,
			"target":34962
		},
		{
			"buffer":0,
			"byteLength":720,
			"byteOffset":86240,
			"target":34963
		},
		{
			"buffer":0,
			"byteLength":720,
			"byteOffset":86960,
			"target":34962
		},
		{
			"buffer":0,
			"byteLength":720,
			"byteOffset":87680,
			"target":34962
		},
		{
			"buffer":0,
			"byteLength":480,
			"byteOffset":88400,
			"target":34962
		},
		{
			"buffer":0,
			"byteLength":240,
			"byteOffset":88880,
			"target":34962
		},
		{
			"buffer":0,
			"byteLength":960,
			"byteOffset":89120,
			"target":34962
		},
		{
			"buffer":0,
			"byteLength":168,
			"byteOffset":90080,
			"target":34963
		},
		{
			"buffer":0,
			"byteLength":1248,
			"byteOffset":90248,
			"target":34962
		},
		{
			"buffer":0,
			"byteLength":1248,
			"byteOffset":91496,
			"target":34962
		},
		{
			"buffer":0,
			"byteLength":416,
			"byteOffset":92744,
			"target":34962
		},
		{
			"buffer":0,
			"byteLength":1664,
			"byteOffset":93160,
			"target":34962
		},
		{
			"buffer":0,
			"byteLength":312,
			"byteOffset":94824,
			"target":34963
		},
		{
			"buffer":0,
			"byteLength":2112,
			"byteOffset":95136,
			"target":34962
		},
		{
			"buffer":0,
			"byteLength":2112,
			"byteOffset":97248,
			"target":34962
		},
		{
			"buffer":0,
			"byteLength":704,
			"byteOffset":99360,
			"target":34962
		},
		{
			"buffer":0,
			"byteLength":2816,
			"byteOffset":100064,
			"target":34962
		},
		{
			"buffer":0,
			"byteLength":600,
			"byteOffset":102880,
			"target":34963
		},
		{
			"buffer":0,
			"byteLength":1632,
			"byteOffset":103480,
			"target":34962
		},
		{
			"buffer":0,
			"byteLength":1632,
			"byteOffset":105112,
			"target":34962
		},
		{
			"buffer":0,
			"byteLength":544,
			"byteOffset":106744,
			"target":34962
		},
		{
			"buffer":0,
			"byteLength":2176,
			"byteOffset":107288,
			"target":34962
		},
		{
			"buffer":0,
			"byteLength":408,
			"byteOffset":109464,
			"target":34963
		},
		{
			"buffer":0,
			"byteLength":288,
			"byteOffset":109872,
			"target":34962
		},
		{
			"buffer":0,
			"byteLength":288,
			"byteOffset":110160,
			"target":34962
		},
		{
			"buffer":0,
			"byteLength":96,
			"byteOffset":110448,
			"target":34962
		},
		{
			"buffer":0,
			"byteLength":384,
			"byteOffset":110544,
			"target":34962
		},
		{
			"buffer":0,
			"byteLength":72,
			"byteOffset":110928,
			"target":34963
		},
		{
			"buffer":0,
			"byteLength":288,
			"byteOffset":111000,
			"target":34962
		},
		{
			"buffer":0,
			"byteLength":288,
			"byteOffset":111288,
			"target":34962
		},
		{
			"buffer":0,
			"byteLength":96,
			"byteOffset":111576,
			"target":34962
		},
		{
			"buffer":0,
			"byteLength":384,
			"byteOffset":111672,
			"target":34962
		},
		{
			"buffer":0,
			"byteLength":72,
			"byteOffset":112056,
			"target":34963
		},
		{
			"buffer":0,
			"byteLength":216,
			"byteOffset":112128,
			"target":34962
		},
		{
			"buffer":0,
			"byteLength":216,
			"byteOffset":112344,
			"target":34962
		},
		{
			"buffer":0,
			"byteLength":72,
			"byteOffset":112560,
			"target":34962
		},
		{
			"buffer":0,
			"byteLength":288,
			"byteOffset":112632,
			"target":34962
		},
		{
			"buffer":0,
			"byteLength":48,
			"byteOffset":112920,
			"target":34963
		},
		{
			"buffer":0,
			"byteLength":216,
			"byteOffset":112968,
			"target":34962
		},
		{
			"buffer":0,
			"byteLength":216,
			"byteOffset":113184,
			"target":34962
		},
		{
			"buffer":0,
			"byteLength":72,
			"byteOffset":113400,
			"target":34962
		},
		{
			"buffer":0,
			"byteLength":288,
			"byteOffset":113472,
			"target":34962
		},
		{
			"buffer":0,
			"byteLength":48,
			"byteOffset":113760,
			"target":34963
		},
		{
			"buffer":0,
			"byteLength":360,
			"byteOffset":113808,
			"target":34962
		},
		{
			"buffer":0,
			"byteLength":360,
			"byteOffset":114168,
			"target":34962
		},
		{
			"buffer":0,
			"byteLength":120,
			"byteOffset":114528,
			"target":34962
		},
		{
			"buffer":0,
			"byteLength":480,
			"byteOffset":114648,
			"target":34962
		},
		{
			"buffer":0,
			"byteLength":96,
			"byteOffset":115128,
			"target":34963
		},
		{
			"buffer":0,
			"byteLength":288,
			"byteOffset":115224,
			"target":34962
		},
		{
			"buffer":0,
			"byteLength":288,
			"byteOffset":115512,
			"target":34962
		},
		{
			"buffer":0,
			"byteLength":96,
			"byteOffset":115800,
			"target":34962
		},
		{
			"buffer":0,
			"byteLength":384,
			"byteOffset":115896,
			"target":34962
		},
		{
			"buffer":0,
			"byteLength":72,
			"byteOffset":116280,
			"target":34963
		},
		{
			"buffer":0,
			"byteLength":312,
			"byteOffset":116352,
			"target":34962
		},
		{
			"buffer":0,
			"byteLength":312,
			"byteOffset":116664,
			"target":34962
		},
		{
			"buffer":0,
			"byteLength":104,
			"byteOffset":116976,
			"target":34962
		},
		{
			"buffer":0,
			"byteLength":416,
			"byteOffset":117080,
			"target":34962
		},
		{
			"buffer":0,
			"byteLength":72,
			"byteOffset":117496,
			"target":34963
		},
		{
			"buffer":0,
			"byteLength":196,
			"byteOffset":117568
		},
		{
			"buffer":0,
			"byteLength":588,
			"byteOffset":117764
		},
		{
			"buffer":0,
			"byteLength":8,
			"byteOffset":118352
		},
		{
			"buffer":0,
			"byteLength":32,
			"byteOffset":118360
		},
		{
			"buffer":0,
			"byteLength":24,
			"byteOffset":118392
		},
		{
			"buffer":0,
			"byteLength":24,
			"byteOffset":118416
		},
		{
			"buffer":0,
			"byteLength":784,
			"byteOffset":118440
		},
		{
			"buffer":0,
			"byteLength":24,
			"byteOffset":119224
		},
		{
			"buffer":0,
			"byteLength":24,
			"byteOffset":119248
		},
		{
			"buffer":0,
			"byteLength":784,
			"byteOffset":119272
		},
		{
			"buffer":0,
			"byteLength":24,
			"byteOffset":120056
		},
		{
			"buffer":0,
			"byteLength":24,
			"byteOffset":120080
		},
		{
			"buffer":0,
			"byteLength":784,
			"byteOffset":120104
		},
		{
			"buffer":0,
			"byteLength":24,
			"byteOffset":120888
		}
	],
	"buffers":[
		{
			"byteLength":120912,
			"uri":"marlin.bin"
		}
	]
}
