{
	"asset":{
		"generator":"Khronos glTF Blender I/O v4.4.56",
		"version":"2.0"
	},
	"scene":0,
	"scenes":[
		{
			"name":"Scene",
			"nodes":[
				41
			]
		}
	],
	"nodes":[
		{
			"name":"Leg_00",
			"translation":[
				-0.4369092881679535,
				0.25999999046325684,
				0.5725702047348022
			]
		},
		{
			"name":"Leg_01",
			"translation":[
				-0.16453394293785095,
				0.2600000202655792,
				0.6057560443878174
			]
		},
		{
			"name":"Leg_02",
			"translation":[
				0.30595695972442627,
				0.18293747305870056,
				0.6202033758163452
			]
		},
		{
			"name":"Leg_03",
			"translation":[
				0.6156079769134521,
				0.2600000202655792,
				0.5856022834777832
			]
		},
		{
			"name":"Leg_04",
			"translation":[
				-0.43690934777259827,
				0.25999999046325684,
				-0.572570264339447
			]
		},
		{
			"name":"Leg_05",
			"translation":[
				-0.16453400254249573,
				0.2600000202655792,
				-0.6057560443878174
			]
		},
		{
			"name":"Leg_06",
			"translation":[
				0.30595695972442627,
				0.18293750286102295,
				-0.6202034950256348
			]
		},
		{
			"name":"Leg_07",
			"translation":[
				0.6156079769134521,
				0.2600000202655792,
				-0.5856022834777832
			]
		},
		{
			"name":"Claw_-1",
			"translation":[
				-0.5400000214576721,
				0.3499999940395355,
				0.6499999761581421
			]
		},
		{
			"name":"Claw_1",
			"translation":[
				-0.5400000214576721,
				0.3499999940395355,
				-0.6499999761581421
			]
		},
		{
			"children":[
				0,
				1,
				2,
				3,
				4,
				5,
				6,
				7,
				8,
				9
			],
			"name":"Root"
		},
		{
			"mesh":0,
			"name":"Claw_arm",
			"skin":0
		},
		{
			"mesh":1,
			"name":"Claw_arm.001",
			"skin":0
		},
		{
			"mesh":2,
			"name":"Claw_palm",
			"skin":0
		},
		{
			"mesh":3,
			"name":"Claw_palm.001",
			"skin":0
		},
		{
			"mesh":4,
			"name":"Claw_pincer",
			"skin":0
		},
		{
			"mesh":5,
			"name":"Claw_pincer.001",
			"skin":0
		},
		{
			"mesh":6,
			"name":"Claw_pincer.002",
			"skin":0
		},
		{
			"mesh":7,
			"name":"Claw_pincer.003",
			"skin":0
		},
		{
			"mesh":8,
			"name":"Crab_Carapace",
			"skin":0
		},
		{
			"mesh":9,
			"name":"Crab_eye",
			"skin":0
		},
		{
			"mesh":10,
			"name":"Crab_eye.001",
			"skin":0
		},
		{
			"mesh":11,
			"name":"Eye_stalk",
			"skin":0
		},
		{
			"mesh":12,
			"name":"Eye_stalk.001",
			"skin":0
		},
		{
			"mesh":13,
			"name":"Top_shell",
			"skin":0
		},
		{
			"mesh":14,
			"name":"Walking_leg_tip",
			"skin":0
		},
		{
			"mesh":15,
			"name":"Walking_leg_tip.001",
			"skin":0
		},
		{
			"mesh":16,
			"name":"Walking_leg_tip.002",
			"skin":0
		},
		{
			"mesh":17,
			"name":"Walking_leg_tip.003",
			"skin":0
		},
		{
			"mesh":18,
			"name":"Walking_leg_tip.004",
			"skin":0
		},
		{
			"mesh":19,
			"name":"Walking_leg_tip.005",
			"skin":0
		},
		{
			"mesh":20,
			"name":"Walking_leg_tip.006",
			"skin":0
		},
		{
			"mesh":21,
			"name":"Walking_leg_tip.007",
			"skin":0
		},
		{
			"mesh":22,
			"name":"Walking_leg_upper",
			"skin":0
		},
		{
			"mesh":23,
			"name":"Walking_leg_upper.001",
			"skin":0
		},
		{
			"mesh":24,
			"name":"Walking_leg_upper.002",
			"skin":0
		},
		{
			"mesh":25,
			"name":"Walking_leg_upper.003",
			"skin":0
		},
		{
			"mesh":26,
			"name":"Walking_leg_upper.004",
			"skin":0
		},
		{
			"mesh":27,
			"name":"Walking_leg_upper.005",
			"skin":0
		},
		{
			"mesh":28,
			"name":"Walking_leg_upper.006",
			"skin":0
		},
		{
			"mesh":29,
			"name":"Walking_leg_upper.007",
			"skin":0
		},
		{
			"children":[
				11,
				12,
				13,
				14,
				15,
				16,
				17,
				18,
				19,
				20,
				21,
				22,
				23,
				24,
				25,
				26,
				27,
				28,
				29,
				30,
				31,
				32,
				33,
				34,
				35,
				36,
				37,
				38,
				39,
				40,
				10
			],
			"name":"crab_Rig"
		}
	],
	"animations":[
		{
			"channels":[
				{
					"sampler":0,
					"target":{
						"node":10,
						"path":"translation"
					}
				},
				{
					"sampler":1,
					"target":{
						"node":10,
						"path":"rotation"
					}
				},
				{
					"sampler":2,
					"target":{
						"node":10,
						"path":"scale"
					}
				},
				{
					"sampler":3,
					"target":{
						"node":0,
						"path":"translation"
					}
				},
				{
					"sampler":4,
					"target":{
						"node":0,
						"path":"rotation"
					}
				},
				{
					"sampler":5,
					"target":{
						"node":0,
						"path":"scale"
					}
				},
				{
					"sampler":6,
					"target":{
						"node":1,
						"path":"translation"
					}
				},
				{
					"sampler":7,
					"target":{
						"node":1,
						"path":"rotation"
					}
				},
				{
					"sampler":8,
					"target":{
						"node":1,
						"path":"scale"
					}
				},
				{
					"sampler":9,
					"target":{
						"node":2,
						"path":"translation"
					}
				},
				{
					"sampler":10,
					"target":{
						"node":2,
						"path":"rotation"
					}
				},
				{
					"sampler":11,
					"target":{
						"node":2,
						"path":"scale"
					}
				},
				{
					"sampler":12,
					"target":{
						"node":3,
						"path":"translation"
					}
				},
				{
					"sampler":13,
					"target":{
						"node":3,
						"path":"rotation"
					}
				},
				{
					"sampler":14,
					"target":{
						"node":3,
						"path":"scale"
					}
				},
				{
					"sampler":15,
					"target":{
						"node":4,
						"path":"translation"
					}
				},
				{
					"sampler":16,
					"target":{
						"node":4,
						"path":"rotation"
					}
				},
				{
					"sampler":17,
					"target":{
						"node":4,
						"path":"scale"
					}
				},
				{
					"sampler":18,
					"target":{
						"node":5,
						"path":"translation"
					}
				},
				{
					"sampler":19,
					"target":{
						"node":5,
						"path":"rotation"
					}
				},
				{
					"sampler":20,
					"target":{
						"node":5,
						"path":"scale"
					}
				},
				{
					"sampler":21,
					"target":{
						"node":6,
						"path":"translation"
					}
				},
				{
					"sampler":22,
					"target":{
						"node":6,
						"path":"rotation"
					}
				},
				{
					"sampler":23,
					"target":{
						"node":6,
						"path":"scale"
					}
				},
				{
					"sampler":24,
					"target":{
						"node":7,
						"path":"translation"
					}
				},
				{
					"sampler":25,
					"target":{
						"node":7,
						"path":"rotation"
					}
				},
				{
					"sampler":26,
					"target":{
						"node":7,
						"path":"scale"
					}
				},
				{
					"sampler":27,
					"target":{
						"node":8,
						"path":"translation"
					}
				},
				{
					"sampler":28,
					"target":{
						"node":8,
						"path":"rotation"
					}
				},
				{
					"sampler":29,
					"target":{
						"node":8,
						"path":"scale"
					}
				},
				{
					"sampler":30,
					"target":{
						"node":9,
						"path":"translation"
					}
				},
				{
					"sampler":31,
					"target":{
						"node":9,
						"path":"rotation"
					}
				},
				{
					"sampler":32,
					"target":{
						"node":9,
						"path":"scale"
					}
				}
			],
			"name":"Walk",
			"samplers":[
				{
					"input":168,
					"interpolation":"LINEAR",
					"output":169
				},
				{
					"input":170,
					"interpolation":"STEP",
					"output":171
				},
				{
					"input":170,
					"interpolation":"STEP",
					"output":172
				},
				{
					"input":170,
					"interpolation":"STEP",
					"output":173
				},
				{
					"input":168,
					"interpolation":"LINEAR",
					"output":174
				},
				{
					"input":170,
					"interpolation":"STEP",
					"output":175
				},
				{
					"input":170,
					"interpolation":"STEP",
					"output":176
				},
				{
					"input":168,
					"interpolation":"LINEAR",
					"output":177
				},
				{
					"input":170,
					"interpolation":"STEP",
					"output":178
				},
				{
					"input":170,
					"interpolation":"STEP",
					"output":179
				},
				{
					"input":168,
					"interpolation":"LINEAR",
					"output":180
				},
				{
					"input":170,
					"interpolation":"STEP",
					"output":181
				},
				{
					"input":170,
					"interpolation":"STEP",
					"output":182
				},
				{
					"input":168,
					"interpolation":"LINEAR",
					"output":183
				},
				{
					"input":170,
					"interpolation":"STEP",
					"output":184
				},
				{
					"input":170,
					"interpolation":"STEP",
					"output":185
				},
				{
					"input":168,
					"interpolation":"LINEAR",
					"output":186
				},
				{
					"input":170,
					"interpolation":"STEP",
					"output":187
				},
				{
					"input":170,
					"interpolation":"STEP",
					"output":188
				},
				{
					"input":168,
					"interpolation":"LINEAR",
					"output":189
				},
				{
					"input":170,
					"interpolation":"STEP",
					"output":190
				},
				{
					"input":170,
					"interpolation":"STEP",
					"output":191
				},
				{
					"input":168,
					"interpolation":"LINEAR",
					"output":192
				},
				{
					"input":170,
					"interpolation":"STEP",
					"output":193
				},
				{
					"input":170,
					"interpolation":"STEP",
					"output":194
				},
				{
					"input":168,
					"interpolation":"LINEAR",
					"output":195
				},
				{
					"input":170,
					"interpolation":"STEP",
					"output":196
				},
				{
					"input":170,
					"interpolation":"STEP",
					"output":197
				},
				{
					"input":168,
					"interpolation":"LINEAR",
					"output":198
				},
				{
					"input":170,
					"interpolation":"STEP",
					"output":199
				},
				{
					"input":170,
					"interpolation":"STEP",
					"output":200
				},
				{
					"input":168,
					"interpolation":"LINEAR",
					"output":201
				},
				{
					"input":170,
					"interpolation":"STEP",
					"output":202
				}
			]
		}
	],
	"materials":[
		{
			"doubleSided":true,
			"name":"Crab Coral",
			"pbrMetallicRoughness":{
				"baseColorFactor":[
					0.7300000190734863,
					0.1899999976158142,
					0.10000000149011612,
					1
				],
				"metallicFactor":0,
				"roughnessFactor":0.5
			}
		},
		{
			"doubleSided":true,
			"name":"Shell Highlights",
			"pbrMetallicRoughness":{
				"baseColorFactor":[
					0.9100000262260437,
					0.3499999940395355,
					0.1599999964237213,
					1
				],
				"metallicFactor":0,
				"roughnessFactor":0.5
			}
		},
		{
			"doubleSided":true,
			"name":"Claw Tips",
			"pbrMetallicRoughness":{
				"baseColorFactor":[
					0.9399999976158142,
					0.7200000286102295,
					0.4300000071525574,
					1
				],
				"metallicFactor":0,
				"roughnessFactor":0.5
			}
		},
		{
			"doubleSided":true,
			"name":"Eye Black.003",
			"pbrMetallicRoughness":{
				"baseColorFactor":[
					0.006000000052154064,
					0.009999999776482582,
					0.013000000268220901,
					1
				],
				"metallicFactor":0,
				"roughnessFactor":0.20000000298023224
			}
		}
	],
	"meshes":[
		{
			"name":"Cone.010",
			"primitives":[
				{
					"attributes":{
						"POSITION":0,
						"NORMAL":1,
						"TEXCOORD_0":2,
						"JOINTS_0":3,
						"WEIGHTS_0":4
					},
					"indices":5,
					"material":0
				}
			]
		},
		{
			"name":"Cone.020",
			"primitives":[
				{
					"attributes":{
						"POSITION":7,
						"NORMAL":8,
						"TEXCOORD_0":9,
						"JOINTS_0":10,
						"WEIGHTS_0":11
					},
					"indices":5,
					"material":0
				}
			]
		},
		{
			"name":"Sphere.031",
			"primitives":[
				{
					"attributes":{
						"POSITION":12,
						"NORMAL":13,
						"TEXCOORD_0":14,
						"JOINTS_0":15,
						"WEIGHTS_0":16
					},
					"indices":17,
					"material":1
				}
			]
		},
		{
			"name":"Sphere.033",
			"primitives":[
				{
					"attributes":{
						"POSITION":18,
						"NORMAL":19,
						"TEXCOORD_0":20,
						"JOINTS_0":21,
						"WEIGHTS_0":22
					},
					"indices":23,
					"material":1
				}
			]
		},
		{
			"name":"Claw_pincer",
			"primitives":[
				{
					"attributes":{
						"POSITION":24,
						"NORMAL":25,
						"JOINTS_0":26,
						"WEIGHTS_0":27
					},
					"indices":28,
					"material":2
				}
			]
		},
		{
			"name":"Claw_pincer.001",
			"primitives":[
				{
					"attributes":{
						"POSITION":29,
						"NORMAL":30,
						"JOINTS_0":31,
						"WEIGHTS_0":32
					},
					"indices":33,
					"material":2
				}
			]
		},
		{
			"name":"Claw_pincer.002",
			"primitives":[
				{
					"attributes":{
						"POSITION":34,
						"NORMAL":35,
						"JOINTS_0":36,
						"WEIGHTS_0":37
					},
					"indices":28,
					"material":2
				}
			]
		},
		{
			"name":"Claw_pincer.003",
			"primitives":[
				{
					"attributes":{
						"POSITION":38,
						"NORMAL":39,
						"JOINTS_0":40,
						"WEIGHTS_0":41
					},
					"indices":33,
					"material":2
				}
			]
		},
		{
			"name":"Sphere.028",
			"primitives":[
				{
					"attributes":{
						"POSITION":42,
						"NORMAL":43,
						"TEXCOORD_0":44,
						"JOINTS_0":45,
						"WEIGHTS_0":46
					},
					"indices":47,
					"material":0
				}
			]
		},
		{
			"name":"Sphere.030",
			"primitives":[
				{
					"attributes":{
						"POSITION":48,
						"NORMAL":49,
						"TEXCOORD_0":50,
						"JOINTS_0":51,
						"WEIGHTS_0":52
					},
					"indices":53,
					"material":3
				}
			]
		},
		{
			"name":"Sphere.032",
			"primitives":[
				{
					"attributes":{
						"POSITION":54,
						"NORMAL":55,
						"TEXCOORD_0":56,
						"JOINTS_0":57,
						"WEIGHTS_0":58
					},
					"indices":59,
					"material":3
				}
			]
		},
		{
			"name":"Cone.009",
			"primitives":[
				{
					"attributes":{
						"POSITION":60,
						"NORMAL":61,
						"TEXCOORD_0":62,
						"JOINTS_0":63,
						"WEIGHTS_0":64
					},
					"indices":65,
					"material":0
				}
			]
		},
		{
			"name":"Cone.019",
			"primitives":[
				{
					"attributes":{
						"POSITION":66,
						"NORMAL":67,
						"TEXCOORD_0":68,
						"JOINTS_0":69,
						"WEIGHTS_0":70
					},
					"indices":71,
					"material":0
				}
			]
		},
		{
			"name":"Sphere.029",
			"primitives":[
				{
					"attributes":{
						"POSITION":72,
						"NORMAL":73,
						"TEXCOORD_0":74,
						"JOINTS_0":75,
						"WEIGHTS_0":76
					},
					"indices":77,
					"material":1
				}
			]
		},
		{
			"name":"Cone.002",
			"primitives":[
				{
					"attributes":{
						"POSITION":78,
						"NORMAL":79,
						"TEXCOORD_0":80,
						"JOINTS_0":81,
						"WEIGHTS_0":82
					},
					"indices":83,
					"material":1
				}
			]
		},
		{
			"name":"Cone.004",
			"primitives":[
				{
					"attributes":{
						"POSITION":84,
						"NORMAL":85,
						"TEXCOORD_0":86,
						"JOINTS_0":87,
						"WEIGHTS_0":88
					},
					"indices":89,
					"material":1
				}
			]
		},
		{
			"name":"Cone.006",
			"primitives":[
				{
					"attributes":{
						"POSITION":90,
						"NORMAL":91,
						"TEXCOORD_0":92,
						"JOINTS_0":93,
						"WEIGHTS_0":94
					},
					"indices":95,
					"material":1
				}
			]
		},
		{
			"name":"Cone.008",
			"primitives":[
				{
					"attributes":{
						"POSITION":96,
						"NORMAL":97,
						"TEXCOORD_0":98,
						"JOINTS_0":99,
						"WEIGHTS_0":100
					},
					"indices":101,
					"material":1
				}
			]
		},
		{
			"name":"Cone.012",
			"primitives":[
				{
					"attributes":{
						"POSITION":102,
						"NORMAL":103,
						"TEXCOORD_0":104,
						"JOINTS_0":105,
						"WEIGHTS_0":106
					},
					"indices":107,
					"material":1
				}
			]
		},
		{
			"name":"Cone.014",
			"primitives":[
				{
					"attributes":{
						"POSITION":108,
						"NORMAL":109,
						"TEXCOORD_0":110,
						"JOINTS_0":111,
						"WEIGHTS_0":112
					},
					"indices":113,
					"material":1
				}
			]
		},
		{
			"name":"Cone.016",
			"primitives":[
				{
					"attributes":{
						"POSITION":114,
						"NORMAL":115,
						"TEXCOORD_0":116,
						"JOINTS_0":117,
						"WEIGHTS_0":118
					},
					"indices":119,
					"material":1
				}
			]
		},
		{
			"name":"Cone.018",
			"primitives":[
				{
					"attributes":{
						"POSITION":120,
						"NORMAL":121,
						"TEXCOORD_0":122,
						"JOINTS_0":123,
						"WEIGHTS_0":124
					},
					"indices":125,
					"material":1
				}
			]
		},
		{
			"name":"Cone.001",
			"primitives":[
				{
					"attributes":{
						"POSITION":126,
						"NORMAL":127,
						"TEXCOORD_0":128,
						"JOINTS_0":129,
						"WEIGHTS_0":130
					},
					"indices":5,
					"material":0
				}
			]
		},
		{
			"name":"Cone.003",
			"primitives":[
				{
					"attributes":{
						"POSITION":131,
						"NORMAL":132,
						"TEXCOORD_0":133,
						"JOINTS_0":134,
						"WEIGHTS_0":135
					},
					"indices":136,
					"material":0
				}
			]
		},
		{
			"name":"Cone.005",
			"primitives":[
				{
					"attributes":{
						"POSITION":137,
						"NORMAL":138,
						"TEXCOORD_0":139,
						"JOINTS_0":140,
						"WEIGHTS_0":141
					},
					"indices":5,
					"material":0
				}
			]
		},
		{
			"name":"Cone.007",
			"primitives":[
				{
					"attributes":{
						"POSITION":142,
						"NORMAL":143,
						"TEXCOORD_0":144,
						"JOINTS_0":145,
						"WEIGHTS_0":146
					},
					"indices":5,
					"material":0
				}
			]
		},
		{
			"name":"Cone.011",
			"primitives":[
				{
					"attributes":{
						"POSITION":147,
						"NORMAL":148,
						"TEXCOORD_0":149,
						"JOINTS_0":150,
						"WEIGHTS_0":151
					},
					"indices":5,
					"material":0
				}
			]
		},
		{
			"name":"Cone.013",
			"primitives":[
				{
					"attributes":{
						"POSITION":152,
						"NORMAL":153,
						"TEXCOORD_0":154,
						"JOINTS_0":155,
						"WEIGHTS_0":156
					},
					"indices":157,
					"material":0
				}
			]
		},
		{
			"name":"Cone.015",
			"primitives":[
				{
					"attributes":{
						"POSITION":158,
						"NORMAL":159,
						"TEXCOORD_0":160,
						"JOINTS_0":161,
						"WEIGHTS_0":162
					},
					"indices":5,
					"material":0
				}
			]
		},
		{
			"name":"Cone.017",
			"primitives":[
				{
					"attributes":{
						"POSITION":163,
						"NORMAL":164,
						"TEXCOORD_0":165,
						"JOINTS_0":166,
						"WEIGHTS_0":167
					},
					"indices":5,
					"material":0
				}
			]
		}
	],
	"skins":[
		{
			"inverseBindMatrices":6,
			"joints":[
				10,
				0,
				1,
				2,
				3,
				4,
				5,
				6,
				7,
				8,
				9
			],
			"name":"crab_Rig"
		}
	],
	"accessors":[
		{
			"bufferView":0,
			"componentType":5126,
			"count":48,
			"max":[
				-0.46492457389831543,
				0.5198100209236145,
				1.1325454711914062
			],
			"min":[
				-1.245065450668335,
				0.20021918416023254,
				0.5201398134231567
			],
			"type":"VEC3"
		},
		{
			"bufferView":1,
			"componentType":5126,
			"count":48,
			"type":"VEC3"
		},
		{
			"bufferView":2,
			"componentType":5126,
			"count":48,
			"type":"VEC2"
		},
		{
			"bufferView":3,
			"componentType":5121,
			"count":48,
			"type":"VEC4"
		},
		{
			"bufferView":4,
			"componentType":5126,
			"count":48,
			"type":"VEC4"
		},
		{
			"bufferView":5,
			"componentType":5123,
			"count":84,
			"type":"SCALAR"
		},
		{
			"bufferView":6,
			"componentType":5126,
			"count":11,
			"type":"MAT4"
		},
		{
			"bufferView":7,
			"componentType":5126,
			"count":48,
			"max":[
				-0.4649246037006378,
				0.5198099613189697,
				-0.5201396942138672
			],
			"min":[
				-1.2450653314590454,
				0.20021921396255493,
				-1.1325454711914062
			],
			"type":"VEC3"
		},
		{
			"bufferView":8,
			"componentType":5126,
			"count":48,
			"type":"VEC3"
		},
		{
			"bufferView":9,
			"componentType":5126,
			"count":48,
			"type":"VEC2"
		},
		{
			"bufferView":10,
			"componentType":5121,
			"count":48,
			"type":"VEC4"
		},
		{
			"bufferView":11,
			"componentType":5126,
			"count":48,
			"type":"VEC4"
		},
		{
			"bufferView":12,
			"componentType":5126,
			"count":482,
			"max":[
				-1.0699999332427979,
				0.7099999785423279,
				1.3899999856948853
			],
			"min":[
				-2.0299999713897705,
				0.1899999976158142,
				0.8500000238418579
			],
			"type":"VEC3"
		},
		{
			"bufferView":13,
			"componentType":5126,
			"count":482,
			"type":"VEC3"
		},
		{
			"bufferView":14,
			"componentType":5126,
			"count":482,
			"type":"VEC2"
		},
		{
			"bufferView":15,
			"componentType":5121,
			"count":482,
			"type":"VEC4"
		},
		{
			"bufferView":16,
			"componentType":5126,
			"count":482,
			"type":"VEC4"
		},
		{
			"bufferView":17,
			"componentType":5123,
			"count":672,
			"type":"SCALAR"
		},
		{
			"bufferView":18,
			"componentType":5126,
			"count":484,
			"max":[
				-1.0699999332427979,
				0.7099999785423279,
				-0.8500000238418579
			],
			"min":[
				-2.0299999713897705,
				0.1899999976158142,
				-1.3899999856948853
			],
			"type":"VEC3"
		},
		{
			"bufferView":19,
			"componentType":5126,
			"count":484,
			"type":"VEC3"
		},
		{
			"bufferView":20,
			"componentType":5126,
			"count":484,
			"type":"VEC2"
		},
		{
			"bufferView":21,
			"componentType":5121,
			"count":484,
			"type":"VEC4"
		},
		{
			"bufferView":22,
			"componentType":5126,
			"count":484,
			"type":"VEC4"
		},
		{
			"bufferView":23,
			"componentType":5123,
			"count":672,
			"type":"SCALAR"
		},
		{
			"bufferView":24,
			"componentType":5126,
			"count":30,
			"max":[
				-1.8477333784103394,
				0.5649234652519226,
				1.3425184488296509
			],
			"min":[
				-2.7022666931152344,
				0.39507657289505005,
				1.1574815511703491
			],
			"type":"VEC3"
		},
		{
			"bufferView":25,
			"componentType":5126,
			"count":30,
			"type":"VEC3"
		},
		{
			"bufferView":26,
			"componentType":5121,
			"count":30,
			"type":"VEC4"
		},
		{
			"bufferView":27,
			"componentType":5126,
			"count":30,
			"type":"VEC4"
		},
		{
			"bufferView":28,
			"componentType":5123,
			"count":48,
			"type":"SCALAR"
		},
		{
			"bufferView":29,
			"componentType":5126,
			"count":30,
			"max":[
				-1.8477333784103394,
				0.5649234652519226,
				1.082518458366394
			],
			"min":[
				-2.7022666931152344,
				0.39507657289505005,
				0.8974815607070923
			],
			"type":"VEC3"
		},
		{
			"bufferView":30,
			"componentType":5126,
			"count":30,
			"type":"VEC3"
		},
		{
			"bufferView":31,
			"componentType":5121,
			"count":30,
			"type":"VEC4"
		},
		{
			"bufferView":32,
			"componentType":5126,
			"count":30,
			"type":"VEC4"
		},
		{
			"bufferView":33,
			"componentType":5123,
			"count":48,
			"type":"SCALAR"
		},
		{
			"bufferView":34,
			"componentType":5126,
			"count":30,
			"max":[
				-1.8477333784103394,
				0.5649234652519226,
				-0.8974815607070923
			],
			"min":[
				-2.7022666931152344,
				0.39507657289505005,
				-1.082518458366394
			],
			"type":"VEC3"
		},
		{
			"bufferView":35,
			"componentType":5126,
			"count":30,
			"type":"VEC3"
		},
		{
			"bufferView":36,
			"componentType":5121,
			"count":30,
			"type":"VEC4"
		},
		{
			"bufferView":37,
			"componentType":5126,
			"count":30,
			"type":"VEC4"
		},
		{
			"bufferView":38,
			"componentType":5126,
			"count":30,
			"max":[
				-1.8477333784103394,
				0.5649234652519226,
				-1.1574815511703491
			],
			"min":[
				-2.7022666931152344,
				0.39507657289505005,
				-1.3425184488296509
			],
			"type":"VEC3"
		},
		{
			"bufferView":39,
			"componentType":5126,
			"count":30,
			"type":"VEC3"
		},
		{
			"bufferView":40,
			"componentType":5121,
			"count":30,
			"type":"VEC4"
		},
		{
			"bufferView":41,
			"componentType":5126,
			"count":30,
			"type":"VEC4"
		},
		{
			"bufferView":42,
			"componentType":5126,
			"count":480,
			"max":[
				1,
				0.75,
				0.7900000214576721
			],
			"min":[
				-0.9999999403953552,
				-0.050000011920928955,
				-0.7900000214576721
			],
			"type":"VEC3"
		},
		{
			"bufferView":43,
			"componentType":5126,
			"count":480,
			"type":"VEC3"
		},
		{
			"bufferView":44,
			"componentType":5126,
			"count":480,
			"type":"VEC2"
		},
		{
			"bufferView":45,
			"componentType":5121,
			"count":480,
			"type":"VEC4"
		},
		{
			"bufferView":46,
			"componentType":5126,
			"count":480,
			"type":"VEC4"
		},
		{
			"bufferView":47,
			"componentType":5123,
			"count":672,
			"type":"SCALAR"
		},
		{
			"bufferView":48,
			"componentType":5126,
			"count":480,
			"max":[
				-0.7899999618530273,
				0.9500000476837158,
				0.4300000071525574
			],
			"min":[
				-0.9699999690055847,
				0.7699999809265137,
				0.25
			],
			"type":"VEC3"
		},
		{
			"bufferView":49,
			"componentType":5126,
			"count":480,
			"type":"VEC3"
		},
		{
			"bufferView":50,
			"componentType":5126,
			"count":480,
			"type":"VEC2"
		},
		{
			"bufferView":51,
			"componentType":5121,
			"count":480,
			"type":"VEC4"
		},
		{
			"bufferView":52,
			"componentType":5126,
			"count":480,
			"type":"VEC4"
		},
		{
			"bufferView":53,
			"componentType":5123,
			"count":672,
			"type":"SCALAR"
		},
		{
			"bufferView":54,
			"componentType":5126,
			"count":480,
			"max":[
				-0.7899999618530273,
				0.9500000476837158,
				-0.25
			],
			"min":[
				-0.9699999690055847,
				0.7699999809265137,
				-0.4300000071525574
			],
			"type":"VEC3"
		},
		{
			"bufferView":55,
			"componentType":5126,
			"count":480,
			"type":"VEC3"
		},
		{
			"bufferView":56,
			"componentType":5126,
			"count":480,
			"type":"VEC2"
		},
		{
			"bufferView":57,
			"componentType":5121,
			"count":480,
			"type":"VEC4"
		},
		{
			"bufferView":58,
			"componentType":5126,
			"count":480,
			"type":"VEC4"
		},
		{
			"bufferView":59,
			"componentType":5123,
			"count":672,
			"type":"SCALAR"
		},
		{
			"bufferView":60,
			"componentType":5126,
			"count":50,
			"max":[
				-0.5877205729484558,
				0.8759887218475342,
				0.384334534406662
			],
			"min":[
				-0.9061934947967529,
				0.48246073722839355,
				0.23596122860908508
			],
			"type":"VEC3"
		},
		{
			"bufferView":61,
			"componentType":5126,
			"count":50,
			"type":"VEC3"
		},
		{
			"bufferView":62,
			"componentType":5126,
			"count":50,
			"type":"VEC2"
		},
		{
			"bufferView":63,
			"componentType":5121,
			"count":50,
			"type":"VEC4"
		},
		{
			"bufferView":64,
			"componentType":5126,
			"count":50,
			"type":"VEC4"
		},
		{
			"bufferView":65,
			"componentType":5123,
			"count":84,
			"type":"SCALAR"
		},
		{
			"bufferView":66,
			"componentType":5126,
			"count":52,
			"max":[
				-0.5877205729484558,
				0.8759887218475342,
				-0.2359612137079239
			],
			"min":[
				-0.9061934947967529,
				0.48246073722839355,
				-0.384334534406662
			],
			"type":"VEC3"
		},
		{
			"bufferView":67,
			"componentType":5126,
			"count":52,
			"type":"VEC3"
		},
		{
			"bufferView":68,
			"componentType":5126,
			"count":52,
			"type":"VEC2"
		},
		{
			"bufferView":69,
			"componentType":5121,
			"count":52,
			"type":"VEC4"
		},
		{
			"bufferView":70,
			"componentType":5126,
			"count":52,
			"type":"VEC4"
		},
		{
			"bufferView":71,
			"componentType":5123,
			"count":84,
			"type":"SCALAR"
		},
		{
			"bufferView":72,
			"componentType":5126,
			"count":352,
			"max":[
				0.8199999928474426,
				0.7899999618530273,
				0.6600000262260437
			],
			"min":[
				-0.8199999332427979,
				0.22999998927116394,
				-0.6599999666213989
			],
			"type":"VEC3"
		},
		{
			"bufferView":73,
			"componentType":5126,
			"count":352,
			"type":"VEC3"
		},
		{
			"bufferView":74,
			"componentType":5126,
			"count":352,
			"type":"VEC2"
		},
		{
			"bufferView":75,
			"componentType":5121,
			"count":352,
			"type":"VEC4"
		},
		{
			"bufferView":76,
			"componentType":5126,
			"count":352,
			"type":"VEC4"
		},
		{
			"bufferView":77,
			"componentType":5123,
			"count":480,
			"type":"SCALAR"
		},
		{
			"bufferView":78,
			"componentType":5126,
			"count":58,
			"max":[
				-0.7338319420814514,
				0.22932207584381104,
				1.507814645767212
			],
			"min":[
				-1.057940125465393,
				-0.2559186816215515,
				1.1548775434494019
			],
			"type":"VEC3"
		},
		{
			"bufferView":79,
			"componentType":5126,
			"count":58,
			"type":"VEC3"
		},
		{
			"bufferView":80,
			"componentType":5126,
			"count":58,
			"type":"VEC2"
		},
		{
			"bufferView":81,
			"componentType":5121,
			"count":58,
			"type":"VEC4"
		},
		{
			"bufferView":82,
			"componentType":5126,
			"count":58,
			"type":"VEC4"
		},
		{
			"bufferView":83,
			"componentType":5123,
			"count":84,
			"type":"SCALAR"
		},
		{
			"bufferView":84,
			"componentType":5126,
			"count":52,
			"max":[
				-0.17550194263458252,
				0.23321083188056946,
				1.6562999486923218
			],
			"min":[
				-0.3244980573654175,
				-0.2563853859901428,
				1.16749906539917
			],
			"type":"VEC3"
		},
		{
			"bufferView":85,
			"componentType":5126,
			"count":52,
			"type":"VEC3"
		},
		{
			"bufferView":86,
			"componentType":5126,
			"count":52,
			"type":"VEC2"
		},
		{
			"bufferView":87,
			"componentType":5121,
			"count":52,
			"type":"VEC4"
		},
		{
			"bufferView":88,
			"componentType":5126,
			"count":52,
			"type":"VEC4"
		},
		{
			"bufferView":89,
			"componentType":5123,
			"count":84,
			"type":"SCALAR"
		},
		{
			"bufferView":90,
			"componentType":5126,
			"count":53,
			"max":[
				0.4584978222846985,
				0.2345326840877533,
				1.6562212705612183
			],
			"min":[
				0.22918498516082764,
				-0.25654399394989014,
				1.1681551933288574
			],
			"type":"VEC3"
		},
		{
			"bufferView":91,
			"componentType":5126,
			"count":53,
			"type":"VEC3"
		},
		{
			"bufferView":92,
			"componentType":5126,
			"count":53,
			"type":"VEC2"
		},
		{
			"bufferView":93,
			"componentType":5121,
			"count":53,
			"type":"VEC4"
		},
		{
			"bufferView":94,
			"componentType":5126,
			"count":53,
			"type":"VEC4"
		},
		{
			"bufferView":95,
			"componentType":5123,
			"count":84,
			"type":"SCALAR"
		},
		{
			"bufferView":96,
			"componentType":5126,
			"count":58,
			"max":[
				1.2074159383773804,
				0.23412156105041504,
				1.5077216625213623
			],
			"min":[
				0.7882016897201538,
				-0.2564946115016937,
				1.1556531190872192
			],
			"type":"VEC3"
		},
		{
			"bufferView":97,
			"componentType":5126,
			"count":58,
			"type":"VEC3"
		},
		{
			"bufferView":98,
			"componentType":5126,
			"count":58,
			"type":"VEC2"
		},
		{
			"bufferView":99,
			"componentType":5121,
			"count":58,
			"type":"VEC4"
		},
		{
			"bufferView":100,
			"componentType":5126,
			"count":58,
			"type":"VEC4"
		},
		{
			"bufferView":101,
			"componentType":5123,
			"count":84,
			"type":"SCALAR"
		},
		{
			"bufferView":102,
			"componentType":5126,
			"count":60,
			"max":[
				-0.7338320016860962,
				0.22932207584381104,
				-1.1548774242401123
			],
			"min":[
				-1.0579400062561035,
				-0.2559186816215515,
				-1.5078147649765015
			],
			"type":"VEC3"
		},
		{
			"bufferView":103,
			"componentType":5126,
			"count":60,
			"type":"VEC3"
		},
		{
			"bufferView":104,
			"componentType":5126,
			"count":60,
			"type":"VEC2"
		},
		{
			"bufferView":105,
			"componentType":5121,
			"count":60,
			"type":"VEC4"
		},
		{
			"bufferView":106,
			"componentType":5126,
			"count":60,
			"type":"VEC4"
		},
		{
			"bufferView":107,
			"componentType":5123,
			"count":84,
			"type":"SCALAR"
		},
		{
			"bufferView":108,
			"componentType":5126,
			"count":52,
			"max":[
				-0.1755019724369049,
				0.23321077227592468,
				-1.16749906539917
			],
			"min":[
				-0.32449808716773987,
				-0.25638532638549805,
				-1.6563000679016113
			],
			"type":"VEC3"
		},
		{
			"bufferView":109,
			"componentType":5126,
			"count":52,
			"type":"VEC3"
		},
		{
			"bufferView":110,
			"componentType":5126,
			"count":52,
			"type":"VEC2"
		},
		{
			"bufferView":111,
			"componentType":5121,
			"count":52,
			"type":"VEC4"
		},
		{
			"bufferView":112,
			"componentType":5126,
			"count":52,
			"type":"VEC4"
		},
		{
			"bufferView":113,
			"componentType":5123,
			"count":84,
			"type":"SCALAR"
		},
		{
			"bufferView":114,
			"componentType":5126,
			"count":54,
			"max":[
				0.4584977626800537,
				0.2345326542854309,
				-1.1681551933288574
			],
			"min":[
				0.22918501496315002,
				-0.25654393434524536,
				-1.6562212705612183
			],
			"type":"VEC3"
		},
		{
			"bufferView":115,
			"componentType":5126,
			"count":54,
			"type":"VEC3"
		},
		{
			"bufferView":116,
			"componentType":5126,
			"count":54,
			"type":"VEC2"
		},
		{
			"bufferView":117,
			"componentType":5121,
			"count":54,
			"type":"VEC4"
		},
		{
			"bufferView":118,
			"componentType":5126,
			"count":54,
			"type":"VEC4"
		},
		{
			"bufferView":119,
			"componentType":5123,
			"count":84,
			"type":"SCALAR"
		},
		{
			"bufferView":120,
			"componentType":5126,
			"count":52,
			"max":[
				1.2074159383773804,
				0.23412156105041504,
				-1.1556529998779297
			],
			"min":[
				0.7882016897201538,
				-0.25649458169937134,
				-1.5077216625213623
			],
			"type":"VEC3"
		},
		{
			"bufferView":121,
			"componentType":5126,
			"count":52,
			"type":"VEC3"
		},
		{
			"bufferView":122,
			"componentType":5126,
			"count":52,
			"type":"VEC2"
		},
		{
			"bufferView":123,
			"componentType":5121,
			"count":52,
			"type":"VEC4"
		},
		{
			"bufferView":124,
			"componentType":5126,
			"count":52,
			"type":"VEC4"
		},
		{
			"bufferView":125,
			"componentType":5123,
			"count":84,
			"type":"SCALAR"
		},
		{
			"bufferView":126,
			"componentType":5126,
			"count":48,
			"max":[
				-0.263090580701828,
				0.3693525791168213,
				1.2659748792648315
			],
			"min":[
				-0.859256386756897,
				0.10544141381978989,
				0.5725702047348022
			],
			"type":"VEC3"
		},
		{
			"bufferView":127,
			"componentType":5126,
			"count":48,
			"type":"VEC3"
		},
		{
			"bufferView":128,
			"componentType":5126,
			"count":48,
			"type":"VEC2"
		},
		{
			"bufferView":129,
			"componentType":5121,
			"count":48,
			"type":"VEC4"
		},
		{
			"bufferView":130,
			"componentType":5126,
			"count":48,
			"type":"VEC4"
		},
		{
			"bufferView":131,
			"componentType":5126,
			"count":52,
			"max":[
				0.04453402757644653,
				0.36906707286834717,
				1.243348240852356
			],
			"min":[
				-0.32127320766448975,
				0.10563606768846512,
				0.6057560443878174
			],
			"type":"VEC3"
		},
		{
			"bufferView":132,
			"componentType":5126,
			"count":52,
			"type":"VEC3"
		},
		{
			"bufferView":133,
			"componentType":5126,
			"count":52,
			"type":"VEC2"
		},
		{
			"bufferView":134,
			"componentType":5121,
			"count":52,
			"type":"VEC4"
		},
		{
			"bufferView":135,
			"componentType":5126,
			"count":52,
			"type":"VEC4"
		},
		{
			"bufferView":136,
			"componentType":5123,
			"count":84,
			"type":"SCALAR"
		},
		{
			"bufferView":137,
			"componentType":5126,
			"count":48,
			"max":[
				0.3744596838951111,
				0.3689830005168915,
				1.2334977388381958
			],
			"min":[
				0.12079249322414398,
				0.10569338500499725,
				0.6202033758163452
			],
			"type":"VEC3"
		},
		{
			"bufferView":138,
			"componentType":5126,
			"count":48,
			"type":"VEC3"
		},
		{
			"bufferView":139,
			"componentType":5126,
			"count":48,
			"type":"VEC2"
		},
		{
			"bufferView":140,
			"componentType":5121,
			"count":48,
			"type":"VEC4"
		},
		{
			"bufferView":141,
			"componentType":5126,
			"count":48,
			"type":"VEC4"
		},
		{
			"bufferView":142,
			"componentType":5126,
			"count":48,
			"max":[
				0.9151872992515564,
				0.36921796202659607,
				1.257089376449585
			],
			"min":[
				0.4243919551372528,
				0.10553320497274399,
				0.5856022834777832
			],
			"type":"VEC3"
		},
		{
			"bufferView":143,
			"componentType":5126,
			"count":48,
			"type":"VEC3"
		},
		{
			"bufferView":144,
			"componentType":5126,
			"count":48,
			"type":"VEC2"
		},
		{
			"bufferView":145,
			"componentType":5121,
			"count":48,
			"type":"VEC4"
		},
		{
			"bufferView":146,
			"componentType":5126,
			"count":48,
			"type":"VEC4"
		},
		{
			"bufferView":147,
			"componentType":5126,
			"count":48,
			"max":[
				-0.2630906105041504,
				0.3693525791168213,
				-0.572570264339447
			],
			"min":[
				-0.859256386756897,
				0.10544142127037048,
				-1.2659748792648315
			],
			"type":"VEC3"
		},
		{
			"bufferView":148,
			"componentType":5126,
			"count":48,
			"type":"VEC3"
		},
		{
			"bufferView":149,
			"componentType":5126,
			"count":48,
			"type":"VEC2"
		},
		{
			"bufferView":150,
			"componentType":5121,
			"count":48,
			"type":"VEC4"
		},
		{
			"bufferView":151,
			"componentType":5126,
			"count":48,
			"type":"VEC4"
		},
		{
			"bufferView":152,
			"componentType":5126,
			"count":50,
			"max":[
				0.04453405737876892,
				0.36906707286834717,
				-0.6057560443878174
			],
			"min":[
				-0.32127323746681213,
				0.10563606768846512,
				-1.243348240852356
			],
			"type":"VEC3"
		},
		{
			"bufferView":153,
			"componentType":5126,
			"count":50,
			"type":"VEC3"
		},
		{
			"bufferView":154,
			"componentType":5126,
			"count":50,
			"type":"VEC2"
		},
		{
			"bufferView":155,
			"componentType":5121,
			"count":50,
			"type":"VEC4"
		},
		{
			"bufferView":156,
			"componentType":5126,
			"count":50,
			"type":"VEC4"
		},
		{
			"bufferView":157,
			"componentType":5123,
			"count":84,
			"type":"SCALAR"
		},
		{
			"bufferView":158,
			"componentType":5126,
			"count":48,
			"max":[
				0.37445971369743347,
				0.3689829707145691,
				-0.6202034950256348
			],
			"min":[
				0.12079247832298279,
				0.10569339990615845,
				-1.2334976196289062
			],
			"type":"VEC3"
		},
		{
			"bufferView":159,
			"componentType":5126,
			"count":48,
			"type":"VEC3"
		},
		{
			"bufferView":160,
			"componentType":5126,
			"count":48,
			"type":"VEC2"
		},
		{
			"bufferView":161,
			"componentType":5121,
			"count":48,
			"type":"VEC4"
		},
		{
			"bufferView":162,
			"componentType":5126,
			"count":48,
			"type":"VEC4"
		},
		{
			"bufferView":163,
			"componentType":5126,
			"count":48,
			"max":[
				0.9151872992515564,
				0.36921796202659607,
				-0.5856022834777832
			],
			"min":[
				0.4243919849395752,
				0.10553320497274399,
				-1.257089376449585
			],
			"type":"VEC3"
		},
		{
			"bufferView":164,
			"componentType":5126,
			"count":48,
			"type":"VEC3"
		},
		{
			"bufferView":165,
			"componentType":5126,
			"count":48,
			"type":"VEC2"
		},
		{
			"bufferView":166,
			"componentType":5121,
			"count":48,
			"type":"VEC4"
		},
		{
			"bufferView":167,
			"componentType":5126,
			"count":48,
			"type":"VEC4"
		},
		{
			"bufferView":168,
			"componentType":5126,
			"count":49,
			"max":[
				1.6333333333333333
			],
			"min":[
				0.03333333333333333
			],
			"type":"SCALAR"
		},
		{
			"bufferView":169,
			"componentType":5126,
			"count":49,
			"type":"VEC3"
		},
		{
			"bufferView":170,
			"componentType":5126,
			"count":2,
			"max":[
				1.6333333333333333
			],
			"min":[
				0.03333333333333333
			],
			"type":"SCALAR"
		},
		{
			"bufferView":171,
			"componentType":5126,
			"count":2,
			"type":"VEC4"
		},
		{
			"bufferView":172,
			"componentType":5126,
			"count":2,
			"type":"VEC3"
		},
		{
			"bufferView":173,
			"componentType":5126,
			"count":2,
			"type":"VEC3"
		},
		{
			"bufferView":174,
			"componentType":5126,
			"count":49,
			"type":"VEC4"
		},
		{
			"bufferView":175,
			"componentType":5126,
			"count":2,
			"type":"VEC3"
		},
		{
			"bufferView":176,
			"componentType":5126,
			"count":2,
			"type":"VEC3"
		},
		{
			"bufferView":177,
			"componentType":5126,
			"count":49,
			"type":"VEC4"
		},
		{
			"bufferView":178,
			"componentType":5126,
			"count":2,
			"type":"VEC3"
		},
		{
			"bufferView":179,
			"componentType":5126,
			"count":2,
			"type":"VEC3"
		},
		{
			"bufferView":180,
			"componentType":5126,
			"count":49,
			"type":"VEC4"
		},
		{
			"bufferView":181,
			"componentType":5126,
			"count":2,
			"type":"VEC3"
		},
		{
			"bufferView":182,
			"componentType":5126,
			"count":2,
			"type":"VEC3"
		},
		{
			"bufferView":183,
			"componentType":5126,
			"count":49,
			"type":"VEC4"
		},
		{
			"bufferView":184,
			"componentType":5126,
			"count":2,
			"type":"VEC3"
		},
		{
			"bufferView":185,
			"componentType":5126,
			"count":2,
			"type":"VEC3"
		},
		{
			"bufferView":186,
			"componentType":5126,
			"count":49,
			"type":"VEC4"
		},
		{
			"bufferView":187,
			"componentType":5126,
			"count":2,
			"type":"VEC3"
		},
		{
			"bufferView":188,
			"componentType":5126,
			"count":2,
			"type":"VEC3"
		},
		{
			"bufferView":189,
			"componentType":5126,
			"count":49,
			"type":"VEC4"
		},
		{
			"bufferView":190,
			"componentType":5126,
			"count":2,
			"type":"VEC3"
		},
		{
			"bufferView":191,
			"componentType":5126,
			"count":2,
			"type":"VEC3"
		},
		{
			"bufferView":192,
			"componentType":5126,
			"count":49,
			"type":"VEC4"
		},
		{
			"bufferView":193,
			"componentType":5126,
			"count":2,
			"type":"VEC3"
		},
		{
			"bufferView":194,
			"componentType":5126,
			"count":2,
			"type":"VEC3"
		},
		{
			"bufferView":195,
			"componentType":5126,
			"count":49,
			"type":"VEC4"
		},
		{
			"bufferView":196,
			"componentType":5126,
			"count":2,
			"type":"VEC3"
		},
		{
			"bufferView":197,
			"componentType":5126,
			"count":2,
			"type":"VEC3"
		},
		{
			"bufferView":198,
			"componentType":5126,
			"count":49,
			"type":"VEC4"
		},
		{
			"bufferView":199,
			"componentType":5126,
			"count":2,
			"type":"VEC3"
		},
		{
			"bufferView":200,
			"componentType":5126,
			"count":2,
			"type":"VEC3"
		},
		{
			"bufferView":201,
			"componentType":5126,
			"count":49,
			"type":"VEC4"
		},
		{
			"bufferView":202,
			"componentType":5126,
			"count":2,
			"type":"VEC3"
		}
	],
	"bufferViews":[
		{
			"buffer":0,
			"byteLength":576,
			"byteOffset":0,
			"target":34962
		},
		{
			"buffer":0,
			"byteLength":576,
			"byteOffset":576,
			"target":34962
		},
		{
			"buffer":0,
			"byteLength":384,
			"byteOffset":1152,
			"target":34962
		},
		{
			"buffer":0,
			"byteLength":192,
			"byteOffset":1536,
			"target":34962
		},
		{
			"buffer":0,
			"byteLength":768,
			"byteOffset":1728,
			"target":34962
		},
		{
			"buffer":0,
			"byteLength":168,
			"byteOffset":2496,
			"target":34963
		},
		{
			"buffer":0,
			"byteLength":704,
			"byteOffset":2664
		},
		{
			"buffer":0,
			"byteLength":576,
			"byteOffset":3368,
			"target":34962
		},
		{
			"buffer":0,
			"byteLength":576,
			"byteOffset":3944,
			"target":34962
		},
		{
			"buffer":0,
			"byteLength":384,
			"byteOffset":4520,
			"target":34962
		},
		{
			"buffer":0,
			"byteLength":192,
			"byteOffset":4904,
			"target":34962
		},
		{
			"buffer":0,
			"byteLength":768,
			"byteOffset":5096,
			"target":34962
		},
		{
			"buffer":0,
			"byteLength":5784,
			"byteOffset":5864,
			"target":34962
		},
		{
			"buffer":0,
			"byteLength":5784,
			"byteOffset":11648,
			"target":34962
		},
		{
			"buffer":0,
			"byteLength":3856,
			"byteOffset":17432,
			"target":34962
		},
		{
			"buffer":0,
			"byteLength":1928,
			"byteOffset":21288,
			"target":34962
		},
		{
			"buffer":0,
			"byteLength":7712,
			"byteOffset":23216,
			"target":34962
		},
		{
			"buffer":0,
			"byteLength":1344,
			"byteOffset":30928,
			"target":34963
		},
		{
			"buffer":0,
			"byteLength":5808,
			"byteOffset":32272,
			"target":34962
		},
		{
			"buffer":0,
			"byteLength":5808,
			"byteOffset":38080,
			"target":34962
		},
		{
			"buffer":0,
			"byteLength":3872,
			"byteOffset":43888,
			"target":34962
		},
		{
			"buffer":0,
			"byteLength":1936,
			"byteOffset":47760,
			"target":34962
		},
		{
			"buffer":0,
			"byteLength":7744,
			"byteOffset":49696,
			"target":34962
		},
		{
			"buffer":0,
			"byteLength":1344,
			"byteOffset":57440,
			"target":34963
		},
		{
			"buffer":0,
			"byteLength":360,
			"byteOffset":58784,
			"target":34962
		},
		{
			"buffer":0,
			"byteLength":360,
			"byteOffset":59144,
			"target":34962
		},
		{
			"buffer":0,
			"byteLength":120,
			"byteOffset":59504,
			"target":34962
		},
		{
			"buffer":0,
			"byteLength":480,
			"byteOffset":59624,
			"target":34962
		},
		{
			"buffer":0,
			"byteLength":96,
			"byteOffset":60104,
			"target":34963
		},
		{
			"buffer":0,
			"byteLength":360,
			"byteOffset":60200,
			"target":34962
		},
		{
			"buffer":0,
			"byteLength":360,
			"byteOffset":60560,
			"target":34962
		},
		{
			"buffer":0,
			"byteLength":120,
			"byteOffset":60920,
			"target":34962
		},
		{
			"buffer":0,
			"byteLength":480,
			"byteOffset":61040,
			"target":34962
		},
		{
			"buffer":0,
			"byteLength":96,
			"byteOffset":61520,
			"target":34963
		},
		{
			"buffer":0,
			"byteLength":360,
			"byteOffset":61616,
			"target":34962
		},
		{
			"buffer":0,
			"byteLength":360,
			"byteOffset":61976,
			"target":34962
		},
		{
			"buffer":0,
			"byteLength":120,
			"byteOffset":62336,
			"target":34962
		},
		{
			"buffer":0,
			"byteLength":480,
			"byteOffset":62456,
			"target":34962
		},
		{
			"buffer":0,
			"byteLength":360,
			"byteOffset":62936,
			"target":34962
		},
		{
			"buffer":0,
			"byteLength":360,
			"byteOffset":63296,
			"target":34962
		},
		{
			"buffer":0,
			"byteLength":120,
			"byteOffset":63656,
			"target":34962
		},
		{
			"buffer":0,
			"byteLength":480,
			"byteOffset":63776,
			"target":34962
		},
		{
			"buffer":0,
			"byteLength":5760,
			"byteOffset":64256,
			"target":34962
		},
		{
			"buffer":0,
			"byteLength":5760,
			"byteOffset":70016,
			"target":34962
		},
		{
			"buffer":0,
			"byteLength":3840,
			"byteOffset":75776,
			"target":34962
		},
		{
			"buffer":0,
			"byteLength":1920,
			"byteOffset":79616,
			"target":34962
		},
		{
			"buffer":0,
			"byteLength":7680,
			"byteOffset":81536,
			"target":34962
		},
		{
			"buffer":0,
			"byteLength":1344,
			"byteOffset":89216,
			"target":34963
		},
		{
			"buffer":0,
			"byteLength":5760,
			"byteOffset":90560,
			"target":34962
		},
		{
			"buffer":0,
			"byteLength":5760,
			"byteOffset":96320,
			"target":34962
		},
		{
			"buffer":0,
			"byteLength":3840,
			"byteOffset":102080,
			"target":34962
		},
		{
			"buffer":0,
			"byteLength":1920,
			"byteOffset":105920,
			"target":34962
		},
		{
			"buffer":0,
			"byteLength":7680,
			"byteOffset":107840,
			"target":34962
		},
		{
			"buffer":0,
			"byteLength":1344,
			"byteOffset":115520,
			"target":34963
		},
		{
			"buffer":0,
			"byteLength":5760,
			"byteOffset":116864,
			"target":34962
		},
		{
			"buffer":0,
			"byteLength":5760,
			"byteOffset":122624,
			"target":34962
		},
		{
			"buffer":0,
			"byteLength":3840,
			"byteOffset":128384,
			"target":34962
		},
		{
			"buffer":0,
			"byteLength":1920,
			"byteOffset":132224,
			"target":34962
		},
		{
			"buffer":0,
			"byteLength":7680,
			"byteOffset":134144,
			"target":34962
		},
		{
			"buffer":0,
			"byteLength":1344,
			"byteOffset":141824,
			"target":34963
		},
		{
			"buffer":0,
			"byteLength":600,
			"byteOffset":143168,
			"target":34962
		},
		{
			"buffer":0,
			"byteLength":600,
			"byteOffset":143768,
			"target":34962
		},
		{
			"buffer":0,
			"byteLength":400,
			"byteOffset":144368,
			"target":34962
		},
		{
			"buffer":0,
			"byteLength":200,
			"byteOffset":144768,
			"target":34962
		},
		{
			"buffer":0,
			"byteLength":800,
			"byteOffset":144968,
			"target":34962
		},
		{
			"buffer":0,
			"byteLength":168,
			"byteOffset":145768,
			"target":34963
		},
		{
			"buffer":0,
			"byteLength":624,
			"byteOffset":145936,
			"target":34962
		},
		{
			"buffer":0,
			"byteLength":624,
			"byteOffset":146560,
			"target":34962
		},
		{
			"buffer":0,
			"byteLength":416,
			"byteOffset":147184,
			"target":34962
		},
		{
			"buffer":0,
			"byteLength":208,
			"byteOffset":147600,
			"target":34962
		},
		{
			"buffer":0,
			"byteLength":832,
			"byteOffset":147808,
			"target":34962
		},
		{
			"buffer":0,
			"byteLength":168,
			"byteOffset":148640,
			"target":34963
		},
		{
			"buffer":0,
			"byteLength":4224,
			"byteOffset":148808,
			"target":34962
		},
		{
			"buffer":0,
			"byteLength":4224,
			"byteOffset":153032,
			"target":34962
		},
		{
			"buffer":0,
			"byteLength":2816,
			"byteOffset":157256,
			"target":34962
		},
		{
			"buffer":0,
			"byteLength":1408,
			"byteOffset":160072,
			"target":34962
		},
		{
			"buffer":0,
			"byteLength":5632,
			"byteOffset":161480,
			"target":34962
		},
		{
			"buffer":0,
			"byteLength":960,
			"byteOffset":167112,
			"target":34963
		},
		{
			"buffer":0,
			"byteLength":696,
			"byteOffset":168072,
			"target":34962
		},
		{
			"buffer":0,
			"byteLength":696,
			"byteOffset":168768,
			"target":34962
		},
		{
			"buffer":0,
			"byteLength":464,
			"byteOffset":169464,
			"target":34962
		},
		{
			"buffer":0,
			"byteLength":232,
			"byteOffset":169928,
			"target":34962
		},
		{
			"buffer":0,
			"byteLength":928,
			"byteOffset":170160,
			"target":34962
		},
		{
			"buffer":0,
			"byteLength":168,
			"byteOffset":171088,
			"target":34963
		},
		{
			"buffer":0,
			"byteLength":624,
			"byteOffset":171256,
			"target":34962
		},
		{
			"buffer":0,
			"byteLength":624,
			"byteOffset":171880,
			"target":34962
		},
		{
			"buffer":0,
			"byteLength":416,
			"byteOffset":172504,
			"target":34962
		},
		{
			"buffer":0,
			"byteLength":208,
			"byteOffset":172920,
			"target":34962
		},
		{
			"buffer":0,
			"byteLength":832,
			"byteOffset":173128,
			"target":34962
		},
		{
			"buffer":0,
			"byteLength":168,
			"byteOffset":173960,
			"target":34963
		},
		{
			"buffer":0,
			"byteLength":636,
			"byteOffset":174128,
			"target":34962
		},
		{
			"buffer":0,
			"byteLength":636,
			"byteOffset":174764,
			"target":34962
		},
		{
			"buffer":0,
			"byteLength":424,
			"byteOffset":175400,
			"target":34962
		},
		{
			"buffer":0,
			"byteLength":212,
			"byteOffset":175824,
			"target":34962
		},
		{
			"buffer":0,
			"byteLength":848,
			"byteOffset":176036,
			"target":34962
		},
		{
			"buffer":0,
			"byteLength":168,
			"byteOffset":176884,
			"target":34963
		},
		{
			"buffer":0,
			"byteLength":696,
			"byteOffset":177052,
			"target":34962
		},
		{
			"buffer":0,
			"byteLength":696,
			"byteOffset":177748,
			"target":34962
		},
		{
			"buffer":0,
			"byteLength":464,
			"byteOffset":178444,
			"target":34962
		},
		{
			"buffer":0,
			"byteLength":232,
			"byteOffset":178908,
			"target":34962
		},
		{
			"buffer":0,
			"byteLength":928,
			"byteOffset":179140,
			"target":34962
		},
		{
			"buffer":0,
			"byteLength":168,
			"byteOffset":180068,
			"target":34963
		},
		{
			"buffer":0,
			"byteLength":720,
			"byteOffset":180236,
			"target":34962
		},
		{
			"buffer":0,
			"byteLength":720,
			"byteOffset":180956,
			"target":34962
		},
		{
			"buffer":0,
			"byteLength":480,
			"byteOffset":181676,
			"target":34962
		},
		{
			"buffer":0,
			"byteLength":240,
			"byteOffset":182156,
			"target":34962
		},
		{
			"buffer":0,
			"byteLength":960,
			"byteOffset":182396,
			"target":34962
		},
		{
			"buffer":0,
			"byteLength":168,
			"byteOffset":183356,
			"target":34963
		},
		{
			"buffer":0,
			"byteLength":624,
			"byteOffset":183524,
			"target":34962
		},
		{
			"buffer":0,
			"byteLength":624,
			"byteOffset":184148,
			"target":34962
		},
		{
			"buffer":0,
			"byteLength":416,
			"byteOffset":184772,
			"target":34962
		},
		{
			"buffer":0,
			"byteLength":208,
			"byteOffset":185188,
			"target":34962
		},
		{
			"buffer":0,
			"byteLength":832,
			"byteOffset":185396,
			"target":34962
		},
		{
			"buffer":0,
			"byteLength":168,
			"byteOffset":186228,
			"target":34963
		},
		{
			"buffer":0,
			"byteLength":648,
			"byteOffset":186396,
			"target":34962
		},
		{
			"buffer":0,
			"byteLength":648,
			"byteOffset":187044,
			"target":34962
		},
		{
			"buffer":0,
			"byteLength":432,
			"byteOffset":187692,
			"target":34962
		},
		{
			"buffer":0,
			"byteLength":216,
			"byteOffset":188124,
			"target":34962
		},
		{
			"buffer":0,
			"byteLength":864,
			"byteOffset":188340,
			"target":34962
		},
		{
			"buffer":0,
			"byteLength":168,
			"byteOffset":189204,
			"target":34963
		},
		{
			"buffer":0,
			"byteLength":624,
			"byteOffset":189372,
			"target":34962
		},
		{
			"buffer":0,
			"byteLength":624,
			"byteOffset":189996,
			"target":34962
		},
		{
			"buffer":0,
			"byteLength":416,
			"byteOffset":190620,
			"target":34962
		},
		{
			"buffer":0,
			"byteLength":208,
			"byteOffset":191036,
			"target":34962
		},
		{
			"buffer":0,
			"byteLength":832,
			"byteOffset":191244,
			"target":34962
		},
		{
			"buffer":0,
			"byteLength":168,
			"byteOffset":192076,
			"target":34963
		},
		{
			"buffer":0,
			"byteLength":576,
			"byteOffset":192244,
			"target":34962
		},
		{
			"buffer":0,
			"byteLength":576,
			"byteOffset":192820,
			"target":34962
		},
		{
			"buffer":0,
			"byteLength":384,
			"byteOffset":193396,
			"target":34962
		},
		{
			"buffer":0,
			"byteLength":192,
			"byteOffset":193780,
			"target":34962
		},
		{
			"buffer":0,
			"byteLength":768,
			"byteOffset":193972,
			"target":34962
		},
		{
			"buffer":0,
			"byteLength":624,
			"byteOffset":194740,
			"target":34962
		},
		{
			"buffer":0,
			"byteLength":624,
			"byteOffset":195364,
			"target":34962
		},
		{
			"buffer":0,
			"byteLength":416,
			"byteOffset":195988,
			"target":34962
		},
		{
			"buffer":0,
			"byteLength":208,
			"byteOffset":196404,
			"target":34962
		},
		{
			"buffer":0,
			"byteLength":832,
			"byteOffset":196612,
			"target":34962
		},
		{
			"buffer":0,
			"byteLength":168,
			"byteOffset":197444,
			"target":34963
		},
		{
			"buffer":0,
			"byteLength":576,
			"byteOffset":197612,
			"target":34962
		},
		{
			"buffer":0,
			"byteLength":576,
			"byteOffset":198188,
			"target":34962
		},
		{
			"buffer":0,
			"byteLength":384,
			"byteOffset":198764,
			"target":34962
		},
		{
			"buffer":0,
			"byteLength":192,
			"byteOffset":199148,
			"target":34962
		},
		{
			"buffer":0,
			"byteLength":768,
			"byteOffset":199340,
			"target":34962
		},
		{
			"buffer":0,
			"byteLength":576,
			"byteOffset":200108,
			"target":34962
		},
		{
			"buffer":0,
			"byteLength":576,
			"byteOffset":200684,
			"target":34962
		},
		{
			"buffer":0,
			"byteLength":384,
			"byteOffset":201260,
			"target":34962
		},
		{
			"buffer":0,
			"byteLength":192,
			"byteOffset":201644,
			"target":34962
		},
		{
			"buffer":0,
			"byteLength":768,
			"byteOffset":201836,
			"target":34962
		},
		{
			"buffer":0,
			"byteLength":576,
			"byteOffset":202604,
			"target":34962
		},
		{
			"buffer":0,
			"byteLength":576,
			"byteOffset":203180,
			"target":34962
		},
		{
			"buffer":0,
			"byteLength":384,
			"byteOffset":203756,
			"target":34962
		},
		{
			"buffer":0,
			"byteLength":192,
			"byteOffset":204140,
			"target":34962
		},
		{
			"buffer":0,
			"byteLength":768,
			"byteOffset":204332,
			"target":34962
		},
		{
			"buffer":0,
			"byteLength":600,
			"byteOffset":205100,
			"target":34962
		},
		{
			"buffer":0,
			"byteLength":600,
			"byteOffset":205700,
			"target":34962
		},
		{
			"buffer":0,
			"byteLength":400,
			"byteOffset":206300,
			"target":34962
		},
		{
			"buffer":0,
			"byteLength":200,
			"byteOffset":206700,
			"target":34962
		},
		{
			"buffer":0,
			"byteLength":800,
			"byteOffset":206900,
			"target":34962
		},
		{
			"buffer":0,
			"byteLength":168,
			"byteOffset":207700,
			"target":34963
		},
		{
			"buffer":0,
			"byteLength":576,
			"byteOffset":207868,
			"target":34962
		},
		{
			"buffer":0,
			"byteLength":576,
			"byteOffset":208444,
			"target":34962
		},
		{
			"buffer":0,
			"byteLength":384,
			"byteOffset":209020,
			"target":34962
		},
		{
			"buffer":0,
			"byteLength":192,
			"byteOffset":209404,
			"target":34962
		},
		{
			"buffer":0,
			"byteLength":768,
			"byteOffset":209596,
			"target":34962
		},
		{
			"buffer":0,
			"byteLength":576,
			"byteOffset":210364,
			"target":34962
		},
		{
			"buffer":0,
			"byteLength":576,
			"byteOffset":210940,
			"target":34962
		},
		{
			"buffer":0,
			"byteLength":384,
			"byteOffset":211516,
			"target":34962
		},
		{
			"buffer":0,
			"byteLength":192,
			"byteOffset":211900,
			"target":34962
		},
		{
			"buffer":0,
			"byteLength":768,
			"byteOffset":212092,
			"target":34962
		},
		{
			"buffer":0,
			"byteLength":196,
			"byteOffset":212860
		},
		{
			"buffer":0,
			"byteLength":588,
			"byteOffset":213056
		},
		{
			"buffer":0,
			"byteLength":8,
			"byteOffset":213644
		},
		{
			"buffer":0,
			"byteLength":32,
			"byteOffset":213652
		},
		{
			"buffer":0,
			"byteLength":24,
			"byteOffset":213684
		},
		{
			"buffer":0,
			"byteLength":24,
			"byteOffset":213708
		},
		{
			"buffer":0,
			"byteLength":784,
			"byteOffset":213732
		},
		{
			"buffer":0,
			"byteLength":24,
			"byteOffset":214516
		},
		{
			"buffer":0,
			"byteLength":24,
			"byteOffset":214540
		},
		{
			"buffer":0,
			"byteLength":784,
			"byteOffset":214564
		},
		{
			"buffer":0,
			"byteLength":24,
			"byteOffset":215348
		},
		{
			"buffer":0,
			"byteLength":24,
			"byteOffset":215372
		},
		{
			"buffer":0,
			"byteLength":784,
			"byteOffset":215396
		},
		{
			"buffer":0,
			"byteLength":24,
			"byteOffset":216180
		},
		{
			"buffer":0,
			"byteLength":24,
			"byteOffset":216204
		},
		{
			"buffer":0,
			"byteLength":784,
			"byteOffset":216228
		},
		{
			"buffer":0,
			"byteLength":24,
			"byteOffset":217012
		},
		{
			"buffer":0,
			"byteLength":24,
			"byteOffset":217036
		},
		{
			"buffer":0,
			"byteLength":784,
			"byteOffset":217060
		},
		{
			"buffer":0,
			"byteLength":24,
			"byteOffset":217844
		},
		{
			"buffer":0,
			"byteLength":24,
			"byteOffset":217868
		},
		{
			"buffer":0,
			"byteLength":784,
			"byteOffset":217892
		},
		{
			"buffer":0,
			"byteLength":24,
			"byteOffset":218676
		},
		{
			"buffer":0,
			"byteLength":24,
			"byteOffset":218700
		},
		{
			"buffer":0,
			"byteLength":784,
			"byteOffset":218724
		},
		{
			"buffer":0,
			"byteLength":24,
			"byteOffset":219508
		},
		{
			"buffer":0,
			"byteLength":24,
			"byteOffset":219532
		},
		{
			"buffer":0,
			"byteLength":784,
			"byteOffset":219556
		},
		{
			"buffer":0,
			"byteLength":24,
			"byteOffset":220340
		},
		{
			"buffer":0,
			"byteLength":24,
			"byteOffset":220364
		},
		{
			"buffer":0,
			"byteLength":784,
			"byteOffset":220388
		},
		{
			"buffer":0,
			"byteLength":24,
			"byteOffset":221172
		},
		{
			"buffer":0,
			"byteLength":24,
			"byteOffset":221196
		},
		{
			"buffer":0,
			"byteLength":784,
			"byteOffset":221220
		},
		{
			"buffer":0,
			"byteLength":24,
			"byteOffset":222004
		}
	],
	"buffers":[
		{
			"byteLength":222028,
			"uri":"crab.bin"
		}
	]
}
