{
	"asset":{
		"generator":"Khronos glTF Blender I/O v4.4.56",
		"version":"2.0"
	},
	"scene":0,
	"scenes":[
		{
			"name":"Scene",
			"nodes":[
				15
			]
		}
	],
	"nodes":[
		{
			"name":"Spine_2",
			"translation":[
				0.9421052932739258,
				0,
				0
			]
		},
		{
			"children":[
				0
			],
			"name":"Spine_1",
			"translation":[
				0.9421054124832153,
				0,
				0
			]
		},
		{
			"children":[
				1
			],
			"name":"Spine_0",
			"translation":[
				-0.5215786695480347,
				0,
				0
			]
		},
		{
			"children":[
				2
			],
			"name":"Root"
		},
		{
			"mesh":0,
			"name":"Dolphin_Body",
			"skin":0
		},
		{
			"mesh":1,
			"name":"Dolphin_Rostrum",
			"skin":0
		},
		{
			"mesh":2,
			"name":"Dorsal",
			"skin":0
		},
		{
			"mesh":3,
			"name":"Eye_-1",
			"skin":0
		},
		{
			"mesh":4,
			"name":"Eye_1",
			"skin":0
		},
		{
			"mesh":5,
			"name":"Eye_glint_-1",
			"skin":0
		},
		{
			"mesh":6,
			"name":"Eye_glint_1",
			"skin":0
		},
		{
			"mesh":7,
			"name":"Pectoral_-1",
			"skin":0
		},
		{
			"mesh":8,
			"name":"Pectoral_1",
			"skin":0
		},
		{
			"mesh":9,
			"name":"Tail_fluke_-1",
			"skin":0
		},
		{
			"mesh":10,
			"name":"Tail_fluke_1",
			"skin":0
		},
		{
			"children":[
				4,
				5,
				6,
				7,
				8,
				9,
				10,
				11,
				12,
				13,
				14,
				3
			],
			"name":"dolphin_Rig"
		}
	],
	"animations":[
		{
			"channels":[
				{
					"sampler":0,
					"target":{
						"node":3,
						"path":"translation"
					}
				},
				{
					"sampler":1,
					"target":{
						"node":3,
						"path":"rotation"
					}
				},
				{
					"sampler":2,
					"target":{
						"node":3,
						"path":"scale"
					}
				},
				{
					"sampler":3,
					"target":{
						"node":2,
						"path":"translation"
					}
				},
				{
					"sampler":4,
					"target":{
						"node":2,
						"path":"rotation"
					}
				},
				{
					"sampler":5,
					"target":{
						"node":2,
						"path":"scale"
					}
				},
				{
					"sampler":6,
					"target":{
						"node":1,
						"path":"translation"
					}
				},
				{
					"sampler":7,
					"target":{
						"node":1,
						"path":"rotation"
					}
				},
				{
					"sampler":8,
					"target":{
						"node":1,
						"path":"scale"
					}
				},
				{
					"sampler":9,
					"target":{
						"node":0,
						"path":"translation"
					}
				},
				{
					"sampler":10,
					"target":{
						"node":0,
						"path":"rotation"
					}
				},
				{
					"sampler":11,
					"target":{
						"node":0,
						"path":"scale"
					}
				}
			],
			"name":"Swim",
			"samplers":[
				{
					"input":75,
					"interpolation":"LINEAR",
					"output":76
				},
				{
					"input":77,
					"interpolation":"STEP",
					"output":78
				},
				{
					"input":77,
					"interpolation":"STEP",
					"output":79
				},
				{
					"input":77,
					"interpolation":"STEP",
					"output":80
				},
				{
					"input":75,
					"interpolation":"LINEAR",
					"output":81
				},
				{
					"input":77,
					"interpolation":"STEP",
					"output":82
				},
				{
					"input":77,
					"interpolation":"LINEAR",
					"output":83
				},
				{
					"input":75,
					"interpolation":"LINEAR",
					"output":84
				},
				{
					"input":77,
					"interpolation":"STEP",
					"output":85
				},
				{
					"input":77,
					"interpolation":"STEP",
					"output":86
				},
				{
					"input":75,
					"interpolation":"LINEAR",
					"output":87
				},
				{
					"input":77,
					"interpolation":"STEP",
					"output":88
				}
			]
		}
	],
	"materials":[
		{
			"doubleSided":true,
			"name":"Ocean Back.001",
			"pbrMetallicRoughness":{
				"baseColorFactor":[
					0.20000000298023224,
					0.3499999940395355,
					0.41999998688697815,
					1
				],
				"metallicFactor":0,
				"roughnessFactor":0.5
			}
		},
		{
			"doubleSided":true,
			"name":"Silver Flank.001",
			"pbrMetallicRoughness":{
				"baseColorFactor":[
					0.4399999976158142,
					0.5899999737739563,
					0.6299999952316284,
					1
				],
				"metallicFactor":0,
				"roughnessFactor":0.5
			}
		},
		{
			"doubleSided":true,
			"name":"Pale Belly.001",
			"pbrMetallicRoughness":{
				"baseColorFactor":[
					0.7699999809265137,
					0.8299999833106995,
					0.7900000214576721,
					1
				],
				"metallicFactor":0,
				"roughnessFactor":0.5
			}
		},
		{
			"doubleSided":true,
			"name":"Eye Black.001",
			"pbrMetallicRoughness":{
				"baseColorFactor":[
					0.006000000052154064,
					0.009999999776482582,
					0.013000000268220901,
					1
				],
				"metallicFactor":0,
				"roughnessFactor":0.20000000298023224
			}
		},
		{
			"doubleSided":true,
			"name":"Eye White.001",
			"pbrMetallicRoughness":{
				"baseColorFactor":[
					0.9599999785423279,
					0.9800000190734863,
					1,
					1
				],
				"metallicFactor":0,
				"roughnessFactor":0.25
			}
		},
		{
			"doubleSided":true,
			"name":"Fin Blue.001",
			"pbrMetallicRoughness":{
				"baseColorFactor":[
					0.10999999940395355,
					0.28999999165534973,
					0.3799999952316284,
					1
				],
				"metallicFactor":0,
				"roughnessFactor":0.5
			}
		}
	],
	"meshes":[
		{
			"name":"Dolphin_Body",
			"primitives":[
				{
					"attributes":{
						"POSITION":0,
						"NORMAL":1,
						"JOINTS_0":2,
						"WEIGHTS_0":3
					},
					"indices":4,
					"material":0
				},
				{
					"attributes":{
						"POSITION":5,
						"NORMAL":6,
						"JOINTS_0":7,
						"WEIGHTS_0":8
					},
					"indices":9,
					"material":1
				},
				{
					"attributes":{
						"POSITION":10,
						"NORMAL":11,
						"JOINTS_0":12,
						"WEIGHTS_0":13
					},
					"indices":14,
					"material":2
				}
			]
		},
		{
			"name":"Dolphin_Rostrum",
			"primitives":[
				{
					"attributes":{
						"POSITION":16,
						"NORMAL":17,
						"JOINTS_0":18,
						"WEIGHTS_0":19
					},
					"indices":20,
					"material":1
				},
				{
					"attributes":{
						"POSITION":21,
						"NORMAL":22,
						"JOINTS_0":23,
						"WEIGHTS_0":24
					},
					"indices":25,
					"material":2
				}
			]
		},
		{
			"name":"Dorsal",
			"primitives":[
				{
					"attributes":{
						"POSITION":26,
						"NORMAL":27,
						"JOINTS_0":28,
						"WEIGHTS_0":29
					},
					"indices":30,
					"material":0
				}
			]
		},
		{
			"name":"Sphere.018",
			"primitives":[
				{
					"attributes":{
						"POSITION":31,
						"NORMAL":32,
						"TEXCOORD_0":33,
						"JOINTS_0":34,
						"WEIGHTS_0":35
					},
					"indices":36,
					"material":3
				}
			]
		},
		{
			"name":"Sphere.020",
			"primitives":[
				{
					"attributes":{
						"POSITION":37,
						"NORMAL":38,
						"TEXCOORD_0":39,
						"JOINTS_0":40,
						"WEIGHTS_0":41
					},
					"indices":42,
					"material":3
				}
			]
		},
		{
			"name":"Sphere.019",
			"primitives":[
				{
					"attributes":{
						"POSITION":43,
						"NORMAL":44,
						"TEXCOORD_0":45,
						"JOINTS_0":46,
						"WEIGHTS_0":47
					},
					"indices":48,
					"material":4
				}
			]
		},
		{
			"name":"Sphere.021",
			"primitives":[
				{
					"attributes":{
						"POSITION":49,
						"NORMAL":50,
						"TEXCOORD_0":51,
						"JOINTS_0":52,
						"WEIGHTS_0":53
					},
					"indices":54,
					"material":4
				}
			]
		},
		{
			"name":"Pectoral_-1.002",
			"primitives":[
				{
					"attributes":{
						"POSITION":55,
						"NORMAL":56,
						"JOINTS_0":57,
						"WEIGHTS_0":58
					},
					"indices":59,
					"material":5
				}
			]
		},
		{
			"name":"Pectoral_1.002",
			"primitives":[
				{
					"attributes":{
						"POSITION":60,
						"NORMAL":61,
						"JOINTS_0":62,
						"WEIGHTS_0":63
					},
					"indices":64,
					"material":5
				}
			]
		},
		{
			"name":"Tail_fluke_-1",
			"primitives":[
				{
					"attributes":{
						"POSITION":65,
						"NORMAL":66,
						"JOINTS_0":67,
						"WEIGHTS_0":68
					},
					"indices":69,
					"material":0
				}
			]
		},
		{
			"name":"Tail_fluke_1",
			"primitives":[
				{
					"attributes":{
						"POSITION":70,
						"NORMAL":71,
						"JOINTS_0":72,
						"WEIGHTS_0":73
					},
					"indices":74,
					"material":0
				}
			]
		}
	],
	"skins":[
		{
			"inverseBindMatrices":15,
			"joints":[
				3,
				2,
				1,
				0
			],
			"name":"dolphin_Rig"
		}
	],
	"accessors":[
		{
			"bufferView":0,
			"componentType":5126,
			"count":112,
			"max":[
				1.350000023841858,
				0.5799999833106995,
				0.45270097255706787
			],
			"min":[
				-1.899999976158142,
				0.1414213627576828,
				-0.45270097255706787
			],
			"type":"VEC3"
		},
		{
			"bufferView":1,
			"componentType":5126,
			"count":112,
			"type":"VEC3"
		},
		{
			"bufferView":2,
			"componentType":5121,
			"count":112,
			"type":"VEC4"
		},
		{
			"bufferView":3,
			"componentType":5126,
			"count":112,
			"type":"VEC4"
		},
		{
			"bufferView":4,
			"componentType":5123,
			"count":168,
			"type":"SCALAR"
		},
		{
			"bufferView":5,
			"componentType":5126,
			"count":176,
			"max":[
				1.7999999523162842,
				0.30000001192092896,
				0.49000000953674316
			],
			"min":[
				-1.899999976158142,
				-0.24405591189861298,
				-0.49000000953674316
			],
			"type":"VEC3"
		},
		{
			"bufferView":6,
			"componentType":5126,
			"count":176,
			"type":"VEC3"
		},
		{
			"bufferView":7,
			"componentType":5121,
			"count":176,
			"type":"VEC4"
		},
		{
			"bufferView":8,
			"componentType":5126,
			"count":176,
			"type":"VEC4"
		},
		{
			"bufferView":9,
			"componentType":5123,
			"count":300,
			"type":"SCALAR"
		},
		{
			"bufferView":10,
			"componentType":5126,
			"count":128,
			"max":[
				1.7999999523162842,
				-0.07556349039077759,
				0.45270097255706787
			],
			"min":[
				-1.899999976158142,
				-0.5799999833106995,
				-0.45270097255706787
			],
			"type":"VEC3"
		},
		{
			"bufferView":11,
			"componentType":5126,
			"count":128,
			"type":"VEC3"
		},
		{
			"bufferView":12,
			"componentType":5121,
			"count":128,
			"type":"VEC4"
		},
		{
			"bufferView":13,
			"componentType":5126,
			"count":128,
			"type":"VEC4"
		},
		{
			"bufferView":14,
			"componentType":5123,
			"count":192,
			"type":"SCALAR"
		},
		{
			"bufferView":15,
			"componentType":5126,
			"count":4,
			"type":"MAT4"
		},
		{
			"bufferView":16,
			"componentType":5126,
			"count":112,
			"max":[
				-1.649999976158142,
				0.10000000149011612,
				0.1899999976158142
			],
			"min":[
				-2.5,
				-0.2199999988079071,
				-0.1899999976158142
			],
			"type":"VEC3"
		},
		{
			"bufferView":17,
			"componentType":5126,
			"count":112,
			"type":"VEC3"
		},
		{
			"bufferView":18,
			"componentType":5121,
			"count":112,
			"type":"VEC4"
		},
		{
			"bufferView":19,
			"componentType":5126,
			"count":112,
			"type":"VEC4"
		},
		{
			"bufferView":20,
			"componentType":5123,
			"count":204,
			"type":"SCALAR"
		},
		{
			"bufferView":21,
			"componentType":5126,
			"count":48,
			"max":[
				-1.649999976158142,
				-0.12122935056686401,
				0.175537109375
			],
			"min":[
				-2.5,
				-0.2199999988079071,
				-0.175537109375
			],
			"type":"VEC3"
		},
		{
			"bufferView":22,
			"componentType":5126,
			"count":48,
			"type":"VEC3"
		},
		{
			"bufferView":23,
			"componentType":5121,
			"count":48,
			"type":"VEC4"
		},
		{
			"bufferView":24,
			"componentType":5126,
			"count":48,
			"type":"VEC4"
		},
		{
			"bufferView":25,
			"componentType":5123,
			"count":72,
			"type":"SCALAR"
		},
		{
			"bufferView":26,
			"componentType":5126,
			"count":24,
			"max":[
				0.5,
				1.2000000476837158,
				0.044999998062849045
			],
			"min":[
				-0.44999998807907104,
				0.4300000071525574,
				-0.044999998062849045
			],
			"type":"VEC3"
		},
		{
			"bufferView":27,
			"componentType":5126,
			"count":24,
			"type":"VEC3"
		},
		{
			"bufferView":28,
			"componentType":5121,
			"count":24,
			"type":"VEC4"
		},
		{
			"bufferView":29,
			"componentType":5126,
			"count":24,
			"type":"VEC4"
		},
		{
			"bufferView":30,
			"componentType":5123,
			"count":36,
			"type":"SCALAR"
		},
		{
			"bufferView":31,
			"componentType":5126,
			"count":500,
			"max":[
				-1.3949999809265137,
				0.20499999821186066,
				0.4150000214576721
			],
			"min":[
				-1.5450000762939453,
				0.05499999225139618,
				0.32499998807907104
			],
			"type":"VEC3"
		},
		{
			"bufferView":32,
			"componentType":5126,
			"count":500,
			"type":"VEC3"
		},
		{
			"bufferView":33,
			"componentType":5126,
			"count":500,
			"type":"VEC2"
		},
		{
			"bufferView":34,
			"componentType":5121,
			"count":500,
			"type":"VEC4"
		},
		{
			"bufferView":35,
			"componentType":5126,
			"count":500,
			"type":"VEC4"
		},
		{
			"bufferView":36,
			"componentType":5123,
			"count":672,
			"type":"SCALAR"
		},
		{
			"bufferView":37,
			"componentType":5126,
			"count":500,
			"max":[
				-1.3949999809265137,
				0.20499999821186066,
				-0.32499998807907104
			],
			"min":[
				-1.5450000762939453,
				0.05499999225139618,
				-0.4150000214576721
			],
			"type":"VEC3"
		},
		{
			"bufferView":38,
			"componentType":5126,
			"count":500,
			"type":"VEC3"
		},
		{
			"bufferView":39,
			"componentType":5126,
			"count":500,
			"type":"VEC2"
		},
		{
			"bufferView":40,
			"componentType":5121,
			"count":500,
			"type":"VEC4"
		},
		{
			"bufferView":41,
			"componentType":5126,
			"count":500,
			"type":"VEC4"
		},
		{
			"bufferView":42,
			"componentType":5123,
			"count":672,
			"type":"SCALAR"
		},
		{
			"bufferView":43,
			"componentType":5126,
			"count":290,
			"max":[
				-1.4700000286102295,
				0.16974999010562897,
				0.41874998807907104
			],
			"min":[
				-1.5074999332427979,
				0.13224999606609344,
				0.39625000953674316
			],
			"type":"VEC3"
		},
		{
			"bufferView":44,
			"componentType":5126,
			"count":290,
			"type":"VEC3"
		},
		{
			"bufferView":45,
			"componentType":5126,
			"count":290,
			"type":"VEC2"
		},
		{
			"bufferView":46,
			"componentType":5121,
			"count":290,
			"type":"VEC4"
		},
		{
			"bufferView":47,
			"componentType":5126,
			"count":290,
			"type":"VEC4"
		},
		{
			"bufferView":48,
			"componentType":5123,
			"count":360,
			"type":"SCALAR"
		},
		{
			"bufferView":49,
			"componentType":5126,
			"count":290,
			"max":[
				-1.4700000286102295,
				0.16974999010562897,
				-0.39625000953674316
			],
			"min":[
				-1.5074999332427979,
				0.13224999606609344,
				-0.41874998807907104
			],
			"type":"VEC3"
		},
		{
			"bufferView":50,
			"componentType":5126,
			"count":290,
			"type":"VEC3"
		},
		{
			"bufferView":51,
			"componentType":5126,
			"count":290,
			"type":"VEC2"
		},
		{
			"bufferView":52,
			"componentType":5121,
			"count":290,
			"type":"VEC4"
		},
		{
			"bufferView":53,
			"componentType":5126,
			"count":290,
			"type":"VEC4"
		},
		{
			"bufferView":54,
			"componentType":5123,
			"count":360,
			"type":"SCALAR"
		},
		{
			"bufferView":55,
			"componentType":5126,
			"count":24,
			"max":[
				0.35340848565101624,
				-0.08642971515655518,
				1.3107243776321411
			],
			"min":[
				-0.9534084796905518,
				-0.4935702681541443,
				0.32927560806274414
			],
			"type":"VEC3"
		},
		{
			"bufferView":56,
			"componentType":5126,
			"count":24,
			"type":"VEC3"
		},
		{
			"bufferView":57,
			"componentType":5121,
			"count":24,
			"type":"VEC4"
		},
		{
			"bufferView":58,
			"componentType":5126,
			"count":24,
			"type":"VEC4"
		},
		{
			"bufferView":59,
			"componentType":5123,
			"count":36,
			"type":"SCALAR"
		},
		{
			"bufferView":60,
			"componentType":5126,
			"count":24,
			"max":[
				0.35340848565101624,
				-0.08642971515655518,
				-0.32927560806274414
			],
			"min":[
				-0.9534084796905518,
				-0.4935702681541443,
				-1.3107243776321411
			],
			"type":"VEC3"
		},
		{
			"bufferView":61,
			"componentType":5126,
			"count":24,
			"type":"VEC3"
		},
		{
			"bufferView":62,
			"componentType":5121,
			"count":24,
			"type":"VEC4"
		},
		{
			"bufferView":63,
			"componentType":5126,
			"count":24,
			"type":"VEC4"
		},
		{
			"bufferView":64,
			"componentType":5123,
			"count":36,
			"type":"SCALAR"
		},
		{
			"bufferView":65,
			"componentType":5126,
			"count":24,
			"max":[
				2.210526943206787,
				0.09343017637729645,
				0.9252921938896179
			],
			"min":[
				1.4894732236862183,
				-0.08343017101287842,
				-0.005292152985930443
			],
			"type":"VEC3"
		},
		{
			"bufferView":66,
			"componentType":5126,
			"count":24,
			"type":"VEC3"
		},
		{
			"bufferView":67,
			"componentType":5121,
			"count":24,
			"type":"VEC4"
		},
		{
			"bufferView":68,
			"componentType":5126,
			"count":24,
			"type":"VEC4"
		},
		{
			"bufferView":69,
			"componentType":5123,
			"count":36,
			"type":"SCALAR"
		},
		{
			"bufferView":70,
			"componentType":5126,
			"count":24,
			"max":[
				2.210526943206787,
				0.09343017637729645,
				0.005292152985930443
			],
			"min":[
				1.4894732236862183,
				-0.08343017101287842,
				-0.9252921938896179
			],
			"type":"VEC3"
		},
		{
			"bufferView":71,
			"componentType":5126,
			"count":24,
			"type":"VEC3"
		},
		{
			"bufferView":72,
			"componentType":5121,
			"count":24,
			"type":"VEC4"
		},
		{
			"bufferView":73,
			"componentType":5126,
			"count":24,
			"type":"VEC4"
		},
		{
			"bufferView":74,
			"componentType":5123,
			"count":36,
			"type":"SCALAR"
		},
		{
			"bufferView":75,
			"componentType":5126,
			"count":49,
			"max":[
				1.6333333333333333
			],
			"min":[
				0.03333333333333333
			],
			"type":"SCALAR"
		},
		{
			"bufferView":76,
			"componentType":5126,
			"count":49,
			"type":"VEC3"
		},
		{
			"bufferView":77,
			"componentType":5126,
			"count":2,
			"max":[
				1.6333333333333333
			],
			"min":[
				0.03333333333333333
			],
			"type":"SCALAR"
		},
		{
			"bufferView":78,
			"componentType":5126,
			"count":2,
			"type":"VEC4"
		},
		{
			"bufferView":79,
			"componentType":5126,
			"count":2,
			"type":"VEC3"
		},
		{
			"bufferView":80,
			"componentType":5126,
			"count":2,
			"type":"VEC3"
		},
		{
			"bufferView":81,
			"componentType":5126,
			"count":49,
			"type":"VEC4"
		},
		{
			"bufferView":82,
			"componentType":5126,
			"count":2,
			"type":"VEC3"
		},
		{
			"bufferView":83,
			"componentType":5126,
			"count":2,
			"type":"VEC3"
		},
		{
			"bufferView":84,
			"componentType":5126,
			"count":49,
			"type":"VEC4"
		},
		{
			"bufferView":85,
			"componentType":5126,
			"count":2,
			"type":"VEC3"
		},
		{
			"bufferView":86,
			"componentType":5126,
			"count":2,
			"type":"VEC3"
		},
		{
			"bufferView":87,
			"componentType":5126,
			"count":49,
			"type":"VEC4"
		},
		{
			"bufferView":88,
			"componentType":5126,
			"count":2,
			"type":"VEC3"
		}
	],
	"bufferViews":[
		{
			"buffer":0,
			"byteLength":1344,
			"byteOffset":0,
			"target":34962
		},
		{
			"buffer":0,
			"byteLength":1344,
			"byteOffset":1344,
			"target":34962
		},
		{
			"buffer":0,
			"byteLength":448,
			"byteOffset":2688,
			"target":34962
		},
		{
			"buffer":0,
			"byteLength":1792,
			"byteOffset":3136,
			"target":34962
		},
		{
			"buffer":0,
			"byteLength":336,
			"byteOffset":4928,
			"target":34963
		},
		{
			"buffer":0,
			"byteLength":2112,
			"byteOffset":5264,
			"target":34962
		},
		{
			"buffer":0,
			"byteLength":2112,
			"byteOffset":7376,
			"target":34962
		},
		{
			"buffer":0,
			"byteLength":704,
			"byteOffset":9488,
			"target":34962
		},
		{
			"buffer":0,
			"byteLength":2816,
			"byteOffset":10192,
			"target":34962
		},
		{
			"buffer":0,
			"byteLength":600,
			"byteOffset":13008,
			"target":34963
		},
		{
			"buffer":0,
			"byteLength":1536,
			"byteOffset":13608,
			"target":34962
		},
		{
			"buffer":0,
			"byteLength":1536,
			"byteOffset":15144,
			"target":34962
		},
		{
			"buffer":0,
			"byteLength":512,
			"byteOffset":16680,
			"target":34962
		},
		{
			"buffer":0,
			"byteLength":2048,
			"byteOffset":17192,
			"target":34962
		},
		{
			"buffer":0,
			"byteLength":384,
			"byteOffset":19240,
			"target":34963
		},
		{
			"buffer":0,
			"byteLength":256,
			"byteOffset":19624
		},
		{
			"buffer":0,
			"byteLength":1344,
			"byteOffset":19880,
			"target":34962
		},
		{
			"buffer":0,
			"byteLength":1344,
			"byteOffset":21224,
			"target":34962
		},
		{
			"buffer":0,
			"byteLength":448,
			"byteOffset":22568,
			"target":34962
		},
		{
			"buffer":0,
			"byteLength":1792,
			"byteOffset":23016,
			"target":34962
		},
		{
			"buffer":0,
			"byteLength":408,
			"byteOffset":24808,
			"target":34963
		},
		{
			"buffer":0,
			"byteLength":576,
			"byteOffset":25216,
			"target":34962
		},
		{
			"buffer":0,
			"byteLength":576,
			"byteOffset":25792,
			"target":34962
		},
		{
			"buffer":0,
			"byteLength":192,
			"byteOffset":26368,
			"target":34962
		},
		{
			"buffer":0,
			"byteLength":768,
			"byteOffset":26560,
			"target":34962
		},
		{
			"buffer":0,
			"byteLength":144,
			"byteOffset":27328,
			"target":34963
		},
		{
			"buffer":0,
			"byteLength":288,
			"byteOffset":27472,
			"target":34962
		},
		{
			"buffer":0,
			"byteLength":288,
			"byteOffset":27760,
			"target":34962
		},
		{
			"buffer":0,
			"byteLength":96,
			"byteOffset":28048,
			"target":34962
		},
		{
			"buffer":0,
			"byteLength":384,
			"byteOffset":28144,
			"target":34962
		},
		{
			"buffer":0,
			"byteLength":72,
			"byteOffset":28528,
			"target":34963
		},
		{
			"buffer":0,
			"byteLength":6000,
			"byteOffset":28600,
			"target":34962
		},
		{
			"buffer":0,
			"byteLength":6000,
			"byteOffset":34600,
			"target":34962
		},
		{
			"buffer":0,
			"byteLength":4000,
			"byteOffset":40600,
			"target":34962
		},
		{
			"buffer":0,
			"byteLength":2000,
			"byteOffset":44600,
			"target":34962
		},
		{
			"buffer":0,
			"byteLength":8000,
			"byteOffset":46600,
			"target":34962
		},
		{
			"buffer":0,
			"byteLength":1344,
			"byteOffset":54600,
			"target":34963
		},
		{
			"buffer":0,
			"byteLength":6000,
			"byteOffset":55944,
			"target":34962
		},
		{
			"buffer":0,
			"byteLength":6000,
			"byteOffset":61944,
			"target":34962
		},
		{
			"buffer":0,
			"byteLength":4000,
			"byteOffset":67944,
			"target":34962
		},
		{
			"buffer":0,
			"byteLength":2000,
			"byteOffset":71944,
			"target":34962
		},
		{
			"buffer":0,
			"byteLength":8000,
			"byteOffset":73944,
			"target":34962
		},
		{
			"buffer":0,
			"byteLength":1344,
			"byteOffset":81944,
			"target":34963
		},
		{
			"buffer":0,
			"byteLength":3480,
			"byteOffset":83288,
			"target":34962
		},
		{
			"buffer":0,
			"byteLength":3480,
			"byteOffset":86768,
			"target":34962
		},
		{
			"buffer":0,
			"byteLength":2320,
			"byteOffset":90248,
			"target":34962
		},
		{
			"buffer":0,
			"byteLength":1160,
			"byteOffset":92568,
			"target":34962
		},
		{
			"buffer":0,
			"byteLength":4640,
			"byteOffset":93728,
			"target":34962
		},
		{
			"buffer":0,
			"byteLength":720,
			"byteOffset":98368,
			"target":34963
		},
		{
			"buffer":0,
			"byteLength":3480,
			"byteOffset":99088,
			"target":34962
		},
		{
			"buffer":0,
			"byteLength":3480,
			"byteOffset":102568,
			"target":34962
		},
		{
			"buffer":0,
			"byteLength":2320,
			"byteOffset":106048,
			"target":34962
		},
		{
			"buffer":0,
			"byteLength":1160,
			"byteOffset":108368,
			"target":34962
		},
		{
			"buffer":0,
			"byteLength":4640,
			"byteOffset":109528,
			"target":34962
		},
		{
			"buffer":0,
			"byteLength":720,
			"byteOffset":114168,
			"target":34963
		},
		{
			"buffer":0,
			"byteLength":288,
			"byteOffset":114888,
			"target":34962
		},
		{
			"buffer":0,
			"byteLength":288,
			"byteOffset":115176,
			"target":34962
		},
		{
			"buffer":0,
			"byteLength":96,
			"byteOffset":115464,
			"target":34962
		},
		{
			"buffer":0,
			"byteLength":384,
			"byteOffset":115560,
			"target":34962
		},
		{
			"buffer":0,
			"byteLength":72,
			"byteOffset":115944,
			"target":34963
		},
		{
			"buffer":0,
			"byteLength":288,
			"byteOffset":116016,
			"target":34962
		},
		{
			"buffer":0,
			"byteLength":288,
			"byteOffset":116304,
			"target":34962
		},
		{
			"buffer":0,
			"byteLength":96,
			"byteOffset":116592,
			"target":34962
		},
		{
			"buffer":0,
			"byteLength":384,
			"byteOffset":116688,
			"target":34962
		},
		{
			"buffer":0,
			"byteLength":72,
			"byteOffset":117072,
			"target":34963
		},
		{
			"buffer":0,
			"byteLength":288,
			"byteOffset":117144,
			"target":34962
		},
		{
			"buffer":0,
			"byteLength":288,
			"byteOffset":117432,
			"target":34962
		},
		{
			"buffer":0,
			"byteLength":96,
			"byteOffset":117720,
			"target":34962
		},
		{
			"buffer":0,
			"byteLength":384,
			"byteOffset":117816,
			"target":34962
		},
		{
			"buffer":0,
			"byteLength":72,
			"byteOffset":118200,
			"target":34963
		},
		{
			"buffer":0,
			"byteLength":288,
			"byteOffset":118272,
			"target":34962
		},
		{
			"buffer":0,
			"byteLength":288,
			"byteOffset":118560,
			"target":34962
		},
		{
			"buffer":0,
			"byteLength":96,
			"byteOffset":118848,
			"target":34962
		},
		{
			"buffer":0,
			"byteLength":384,
			"byteOffset":118944,
			"target":34962
		},
		{
			"buffer":0,
			"byteLength":72,
			"byteOffset":119328,
			"target":34963
		},
		{
			"buffer":0,
			"byteLength":196,
			"byteOffset":119400
		},
		{
			"buffer":0,
			"byteLength":588,
			"byteOffset":119596
		},
		{
			"buffer":0,
			"byteLength":8,
			"byteOffset":120184
		},
		{
			"buffer":0,
			"byteLength":32,
			"byteOffset":120192
		},
		{
			"buffer":0,
			"byteLength":24,
			"byteOffset":120224
		},
		{
			"buffer":0,
			"byteLength":24,
			"byteOffset":120248
		},
		{
			"buffer":0,
			"byteLength":784,
			"byteOffset":120272
		},
		{
			"buffer":0,
			"byteLength":24,
			"byteOffset":121056
		},
		{
			"buffer":0,
			"byteLength":24,
			"byteOffset":121080
		},
		{
			"buffer":0,
			"byteLength":784,
			"byteOffset":121104
		},
		{
			"buffer":0,
			"byteLength":24,
			"byteOffset":121888
		},
		{
			"buffer":0,
			"byteLength":24,
			"byteOffset":121912
		},
		{
			"buffer":0,
			"byteLength":784,
			"byteOffset":121936
		},
		{
			"buffer":0,
			"byteLength":24,
			"byteOffset":122720
		}
	],
	"buffers":[
		{
			"byteLength":122744,
			"uri":"dolphin.bin"
		}
	]
}
